<?xml version="1.0" encoding="utf-8"?>
<!-- Generator: Adobe Illustrator 16.0.0, SVG Export Plug-In . SVG Version: 6.00 Build 0)  -->
<!DOCTYPE svg PUBLIC "-//W3C//DTD SVG 1.1//EN" "http://www.w3.org/Graphics/SVG/1.1/DTD/svg11.dtd">
<svg version="1.1" id="Layer_1" xmlns="http://www.w3.org/2000/svg" xmlns:xlink="http://www.w3.org/1999/xlink" x="0px" y="0px"
	 width="481.009px" height="579.844px" viewBox="0 0 481.009 579.844" enable-background="new 0 0 481.009 579.844"
	 xml:space="preserve">
<g>
	<rect fill="#8EC14C" width="481.009" height="579.844"/>
	<g>
		<path fill="#FFFFFF" d="M76.664,55.562c2.086,0,3.552,0.621,4.695,1.615v3.477c-1.217-0.919-2.385-1.838-4.596-1.838
			c-2.981,0-5.366,2.335-5.366,5.44c0,3.105,2.385,5.416,5.366,5.416c2.211,0,3.602-0.795,4.844-1.764v3.354
			c-1.143,1.019-2.857,1.689-4.943,1.689c-4.77,0-8.794-3.552-8.794-8.694S71.894,55.561,76.664,55.562L76.664,55.562z"/>
		<path fill="#FFFFFF" d="M101.255,64.255c0,5.142-3.925,8.694-8.694,8.694s-8.719-3.552-8.719-8.694s3.95-8.694,8.719-8.694
			S101.255,59.113,101.255,64.255z M87.369,64.255c0,3.105,2.211,5.416,5.192,5.416s5.167-2.31,5.167-5.416
			c0-3.105-2.186-5.44-5.167-5.44S87.369,61.15,87.369,64.255z"/>
		<path fill="#FFFFFF" d="M121.351,72.577h-3.453V62.144l-4.248,4.72h-1.019l-4.322-4.72v10.433h-3.453V55.81h1.516l6.757,7.179
			l6.707-7.179h1.516V72.577z"/>
		<path fill="#FFFFFF" d="M139.359,61.871c0,3.403-2.882,5.739-6.21,5.739c-1.49,0-2.708-0.348-3.502-0.746v5.713h-3.453V55.934
			h6.881C136.179,55.934,139.359,58.194,139.359,61.871z M135.832,61.871c0-1.739-1.541-2.708-3.329-2.708h-2.856v4.918
			c0.745,0.298,1.838,0.546,2.931,0.546C134.564,64.628,135.832,63.411,135.832,61.871z"/>
		<path fill="#FFFFFF" d="M146.289,69.472h8.322v3.105h-11.775V55.934h3.453V69.472z"/>
		<path fill="#FFFFFF" d="M162.111,58.915v3.776h7.353v2.807h-7.353v4.024h8.322v3.055h-11.775V55.934h11.775v2.981H162.111z"/>
		<path fill="#FFFFFF" d="M187.175,59.039h-5.316v13.464h-3.428V59.039h-5.316v-3.105h14.06V59.039z"/>
		<path fill="#FFFFFF" d="M193.782,58.915v3.776h7.353v2.807h-7.353v4.024h8.322v3.055h-11.775V55.934h11.775v2.981H193.782z"/>
		<path fill="#FFFFFF" d="M217.479,59.039v4.198h6.533v3.105h-6.533v6.235h-3.453V55.934h11.353v3.105H217.479z"/>
		<path fill="#FFFFFF" d="M239.462,72.577l-6.21-6.832v6.832h-3.453V55.934h6.757c3.105,0,6.285,1.714,6.285,5.391
			c0,2.882-2.36,4.596-5.068,4.819l6.235,6.434H239.462z M233.252,59.163v4.198c0.819,0.249,1.813,0.422,2.807,0.422
			c1.987,0,3.254-0.845,3.254-2.335c0-1.615-1.416-2.285-3.205-2.285L233.252,59.163z"/>
		<path fill="#FFFFFF" d="M250.192,58.915v3.776h7.353v2.807h-7.353v4.024h8.322v3.055h-11.775V55.934h11.775v2.981H250.192z"/>
		<path fill="#FFFFFF" d="M266.437,58.915v3.776h7.353v2.807h-7.353v4.024h8.322v3.055h-11.775V55.934h11.775v2.981H266.437z"/>
		<path fill="#FFFFFF" d="M302.728,64.255c0,5.142-3.925,8.694-8.694,8.694s-8.719-3.552-8.719-8.694s3.95-8.694,8.719-8.694
			S302.728,59.113,302.728,64.255z M288.842,64.255c0,3.105,2.211,5.416,5.192,5.416s5.167-2.31,5.167-5.416
			c0-3.105-2.186-5.44-5.167-5.44S288.842,61.15,288.842,64.255z"/>
		<path fill="#FFFFFF" d="M315.992,72.577l-6.21-6.832v6.832h-3.453V55.934h6.757c3.105,0,6.285,1.714,6.285,5.391
			c0,2.882-2.36,4.596-5.068,4.819l6.235,6.434H315.992z M309.782,59.163v4.198c0.819,0.249,1.813,0.422,2.807,0.422
			c1.987,0,3.254-0.845,3.254-2.335c0-1.615-1.416-2.285-3.205-2.285L309.782,59.163z"/>
		<path fill="#FFFFFF" d="M338.148,55.562c2.086,0,3.552,0.621,4.695,1.615v3.477c-1.217-0.919-2.385-1.838-4.596-1.838
			c-2.981,0-5.366,2.335-5.366,5.44c0,3.105,2.385,5.416,5.366,5.416c2.211,0,3.602-0.795,4.844-1.764v3.354
			c-1.143,1.019-2.857,1.689-4.943,1.689c-4.77,0-8.794-3.552-8.794-8.694S333.379,55.561,338.148,55.562L338.148,55.562z"/>
		<path fill="#FFFFFF" d="M361.299,55.934v16.644h-3.428V65.82h-7.726v6.757h-3.453V55.934h3.453v6.782h7.726v-6.782H361.299z"/>
		<path fill="#FFFFFF" d="M369.719,58.915v3.776h7.353v2.807h-7.353v4.024h8.322v3.055h-11.775V55.934h11.775v2.981H369.719z"/>
		<path fill="#FFFFFF" d="M392.174,69.472h-6.583l-1.267,3.105h-4.049l7.75-16.768h1.714l7.75,16.768h-4.049L392.174,69.472z
			 M390.982,66.541l-2.086-5.092l-2.087,5.092H390.982z"/>
		<path fill="#FFFFFF" d="M413.264,61.871c0,3.403-2.882,5.739-6.21,5.739c-1.49,0-2.708-0.348-3.502-0.746v5.713h-3.453V55.934
			h6.881C410.084,55.934,413.264,58.194,413.264,61.871z M406.482,64.628c1.987,0,3.254-1.217,3.254-2.757
			c0-1.739-1.541-2.708-3.329-2.708h-2.856v4.918C404.296,64.38,405.389,64.628,406.482,64.628L406.482,64.628z"/>
		<path fill="#FFFFFF" d="M118.867,94.778c0,5.142-3.925,8.694-8.694,8.694s-8.719-3.552-8.719-8.694s3.95-8.694,8.719-8.694
			S118.867,89.636,118.867,94.778z M104.98,94.778c0,3.105,2.211,5.416,5.192,5.416s5.167-2.31,5.167-5.416
			c0-3.105-2.186-5.44-5.167-5.44S104.98,91.673,104.98,94.778z"/>
		<path fill="#FFFFFF" d="M125.92,89.562v4.198h6.533v3.105h-6.533v6.235h-3.453V86.457h11.353v3.105H125.92z"/>
		<path fill="#FFFFFF" d="M141.693,89.562v4.198h6.533v3.105h-6.533v6.235h-3.453V86.457h11.353v3.105H141.693z"/>
		<path fill="#FFFFFF" d="M157.466,89.438v3.776h7.353v2.807h-7.353v4.024h8.322v3.055h-11.775V86.457h11.775v2.981H157.466z"/>
		<path fill="#FFFFFF" d="M179.922,103.1l-6.21-6.832v6.832h-3.453V86.457h6.757c3.105,0,6.285,1.714,6.285,5.391
			c0,2.882-2.36,4.596-5.068,4.819l6.235,6.434H179.922z M173.712,89.686v4.198c0.819,0.249,1.813,0.422,2.807,0.422
			c1.987,0,3.254-0.845,3.254-2.335c0-1.614-1.416-2.285-3.205-2.285H173.712z"/>
		<path fill="#FFFFFF" d="M196.39,87.45v3.403c-1.192-0.746-2.509-1.491-4.223-1.491c-1.292,0-2.732,0.546-2.732,1.813
			c0,1.093,1.093,1.515,2.484,2.086l2.037,0.845c2.335,0.994,3.378,2.41,3.378,4.248c0,2.956-2.856,5.067-6.31,5.067
			c-1.938,0-3.801-0.795-5.142-1.739v-3.403c1.441,1.043,3.229,1.888,5.217,1.888c1.391,0,2.534-0.547,2.534-1.64
			c0-0.87-0.968-1.391-1.938-1.739l-2.559-0.994c-2.583-0.994-3.304-2.683-3.304-4.621c0-3.055,2.807-5.042,5.912-5.042
			C193.682,86.133,195.322,86.754,196.39,87.45z"/>
		<path fill="#FFFFFF" d="M220.534,89.562h-5.316v13.464h-3.428V89.562h-5.316v-3.105h14.06V89.562z"/>
		<path fill="#FFFFFF" d="M239.487,94.778c0,5.142-3.925,8.694-8.694,8.694s-8.719-3.552-8.719-8.694s3.95-8.694,8.719-8.694
			S239.487,89.636,239.487,94.778z M225.601,94.778c0,3.105,2.211,5.416,5.192,5.416s5.167-2.31,5.167-5.416
			c0-3.105-2.186-5.44-5.167-5.44S225.601,91.673,225.601,94.778z"/>
		<path fill="#FFFFFF" d="M253.992,99.995h8.322v3.105h-11.775V86.457h3.453V99.995z"/>
		<path fill="#FFFFFF" d="M269.815,89.438v3.776h7.353v2.807h-7.353v4.024h8.322v3.055h-11.775V86.457h11.775v2.981H269.815z"/>
		<path fill="#FFFFFF" d="M289.836,103.224h-1.714l-7.75-16.768h4.049l4.546,11.005l4.57-11.005h4.049L289.836,103.224z"/>
		<path fill="#FFFFFF" d="M303.771,89.438v3.776h7.353v2.807h-7.353v4.024h8.322v3.055h-11.775V86.457h11.775v2.981H303.771z"/>
		<path fill="#FFFFFF" d="M320.016,99.995h8.322v3.105h-11.775V86.457h3.453V99.995z"/>
		<path fill="#FFFFFF" d="M353.972,96.518c0,4.347-3.155,6.93-7.179,6.93c-4.024,0-7.204-2.583-7.204-6.93V86.407h3.453v9.912
			c0,2.534,1.516,3.826,3.751,3.801c2.235-0.025,3.751-1.267,3.751-3.801v-9.912h3.428V96.518z"/>
		<path fill="#FFFFFF" d="M371.732,92.394c0,3.403-2.882,5.738-6.21,5.738c-1.49,0-2.708-0.348-3.502-0.745v5.713h-3.453V86.457
			h6.881C368.552,86.457,371.732,88.717,371.732,92.394z M364.95,95.151c1.987,0,3.254-1.217,3.254-2.758
			c0-1.739-1.541-2.708-3.329-2.708h-2.856v4.918C362.764,94.903,363.857,95.151,364.95,95.151L364.95,95.151z"/>
		<path fill="#FFFFFF" d="M378.686,101.56c0,1.093-0.894,2.012-1.987,2.012c-1.093,0-1.987-0.919-1.987-2.012
			c0-1.093,0.894-1.987,1.987-1.987C377.792,99.573,378.686,100.467,378.686,101.56z M378.09,97.387h-2.782v-10.93h2.782V97.387z"/>
	</g>
	<g>
		<g>
			<path fill="#FFFFFF" d="M43.527,416.688v2.915h4.775v1.245h-4.775v3.164h5.405v1.245h-6.724v-9.814h6.724v1.245H43.527z"/>
			<path fill="#FFFFFF" d="M56.769,418.915v-0.981h1.201v7.324h-1.201v-1.245c-0.513,0.776-1.406,1.465-2.52,1.465
				c-1.89,0-3.413-1.538-3.413-3.765c0-2.417,1.523-3.926,3.53-3.926C55.202,417.787,56.139,418.212,56.769,418.915z
				 M52.082,421.713c0,1.421,0.938,2.593,2.358,2.593c1.333,0,2.344-1.157,2.329-2.725l-0.015-1.406
				c-0.615-0.762-1.274-1.216-2.168-1.216C53.019,418.959,52.082,420.292,52.082,421.713z"/>
			<path fill="#FFFFFF" d="M65.968,418.505v1.216c-0.557-0.41-1.216-0.762-2.197-0.762c-1.567,0-2.578,1.26-2.578,2.681
				s1.011,2.666,2.578,2.666c0.981,0,1.641-0.352,2.197-0.762v1.216c-0.293,0.293-1.128,0.718-2.197,0.718
				c-2.227,0-3.823-1.758-3.823-3.838s1.597-3.853,3.823-3.853C64.84,417.787,65.675,418.227,65.968,418.505z"/>
			<path fill="#FFFFFF" d="M74.245,420.79v4.468h-1.201l-0.015-4.351c0-1.26-0.542-1.948-1.699-1.948
				c-0.776,0-1.597,0.674-2.183,1.436v4.863h-1.201v-10.547h1.201v4.38c0.454-0.571,1.392-1.304,2.388-1.304
				C73.029,417.787,74.245,418.769,74.245,420.79z"/>
			<path fill="#FFFFFF" d="M88.043,421.64c0,2.08-1.597,3.838-3.823,3.838s-3.823-1.758-3.823-3.838s1.597-3.853,3.823-3.853
				S88.043,419.56,88.043,421.64z M81.642,421.64c0,1.421,1.011,2.666,2.578,2.666s2.578-1.245,2.578-2.666
				s-1.011-2.681-2.578-2.681S81.642,420.219,81.642,421.64z"/>
			<path fill="#FFFFFF" d="M91.676,417.128v0.806h2.139v1.128h-2.139v6.196h-1.201v-6.196h-1.157v-1.128h1.157v-0.938
				c0-1.714,1.172-2.505,2.271-2.505c0.498,0,0.923,0.146,1.216,0.396v1.055c-0.293-0.19-0.732-0.322-1.143-0.308
				C92.101,415.663,91.676,416.044,91.676,417.128z"/>
			<path fill="#FFFFFF" d="M97.067,417.128v0.806h2.139v1.128h-2.139v6.196h-1.201v-6.196h-1.157v-1.128h1.157v-0.938
				c0-1.714,1.172-2.505,2.271-2.505c0.498,0,0.923,0.146,1.216,0.396v1.055c-0.293-0.19-0.732-0.322-1.143-0.308
				C97.492,415.663,97.067,416.044,97.067,417.128z"/>
			<path fill="#FFFFFF" d="M107.189,422.064h-5.625c0.176,1.23,1.143,2.241,2.549,2.241c1.055,0,1.714-0.483,2.197-0.835v1.216
				c-0.293,0.293-1.055,0.791-2.197,0.791c-2.227,0-3.823-1.758-3.823-3.838s1.465-3.853,3.53-3.853c2.256,0,3.369,1.553,3.369,3.56
				V422.064z M106.002,421.039c-0.146-1.421-1.157-2.08-2.183-2.08c-1.201,0-2.021,0.923-2.227,2.08H106.002z"/>
			<path fill="#FFFFFF" d="M113.517,417.992v1.436c-0.308-0.234-0.688-0.381-1.069-0.381c-0.996,0-1.538,0.806-2.08,1.787v4.424
				h-1.201v-7.324h1.201v1.465c0.557-0.967,1.421-1.611,2.256-1.611C112.96,417.787,113.253,417.86,113.517,417.992z"/>
			<path fill="#FFFFFF" d="M121.369,417.934v7.324h-1.201v-6.196h-1.157v-1.128H121.369z M119.625,415.414
				c0-0.527,0.425-0.996,0.996-0.996c0.557,0,0.996,0.469,0.996,0.996c0,0.513-0.439,0.996-0.996,0.996
				C120.05,416.41,119.625,415.927,119.625,415.414z"/>
			<path fill="#FFFFFF" d="M128.151,418.344v1.289c-0.41-0.308-1.187-0.674-1.919-0.674c-0.923,0-1.377,0.527-1.377,0.996
				c0,0.366,0.22,0.791,0.894,1.025l1.23,0.439c0.952,0.337,1.421,0.981,1.421,1.816c0,1.245-1.128,2.241-2.695,2.241
				c-0.864,0-1.919-0.396-2.256-0.645v-1.289c0.41,0.308,1.436,0.762,2.168,0.762c0.923,0,1.494-0.454,1.494-1.069
				c0-0.469-0.366-0.703-1.055-0.952l-1.084-0.396c-1.143-0.425-1.406-1.099-1.406-1.934c0-1.245,1.011-2.168,2.578-2.168
				C127.008,417.787,127.814,418.095,128.151,418.344z"/>
			<path fill="#FFFFFF" d="M141.671,425.258h-0.747l-2.007-5.171l-2.007,5.171h-0.747l-2.563-7.324h1.436l1.626,5.142l1.919-5.142
				h0.674l1.919,5.142l1.626-5.142h1.436L141.671,425.258z"/>
			<path fill="#FFFFFF" d="M152.833,421.64c0,2.08-1.597,3.838-3.823,3.838s-3.823-1.758-3.823-3.838s1.597-3.853,3.823-3.853
				S152.833,419.56,152.833,421.64z M146.432,421.64c0,1.421,1.011,2.666,2.578,2.666s2.578-1.245,2.578-2.666
				s-1.011-2.681-2.578-2.681S146.432,420.219,146.432,421.64z"/>
			<path fill="#FFFFFF" d="M159.162,417.992v1.436c-0.308-0.234-0.688-0.381-1.069-0.381c-0.996,0-1.538,0.806-2.08,1.787v4.424
				h-1.201v-7.324h1.201v1.465c0.557-0.967,1.421-1.611,2.256-1.611C158.605,417.787,158.898,417.86,159.162,417.992z"/>
			<path fill="#FFFFFF" d="M162.721,417.934h2.139v1.128h-2.139v4.292c0,0.615,0.308,0.981,0.952,0.981
				c0.586,0,0.952-0.176,1.245-0.352v0.981c-0.396,0.308-0.776,0.513-1.509,0.513c-1.245,0-1.89-0.82-1.89-2.065v-4.351h-1.406
				v-0.352c0.952-0.425,1.567-1.436,2.051-2.886h0.557V417.934z"/>
			<path fill="#FFFFFF" d="M173.341,420.79v4.468h-1.201l-0.015-4.351c0-1.26-0.542-1.948-1.699-1.948
				c-0.776,0-1.597,0.674-2.183,1.436v4.863h-1.201v-10.547h1.201v4.38c0.454-0.571,1.392-1.304,2.388-1.304
				C172.125,417.787,173.341,418.769,173.341,420.79z"/>
			<path fill="#FFFFFF" d="M185.426,418.915v-0.981h1.201v7.324h-1.201v-1.245c-0.513,0.776-1.406,1.465-2.52,1.465
				c-1.89,0-3.413-1.538-3.413-3.765c0-2.417,1.523-3.926,3.53-3.926C183.859,417.787,184.796,418.212,185.426,418.915z
				 M180.739,421.713c0,1.421,0.938,2.593,2.358,2.593c1.333,0,2.344-1.157,2.329-2.725l-0.015-1.406
				c-0.615-0.762-1.274-1.216-2.168-1.216C181.676,418.959,180.739,420.292,180.739,421.713z"/>
			<path fill="#FFFFFF" d="M199.02,418.505v1.216c-0.557-0.41-1.216-0.762-2.197-0.762c-1.567,0-2.578,1.26-2.578,2.681
				s1.011,2.666,2.578,2.666c0.981,0,1.641-0.352,2.197-0.762v1.216c-0.293,0.293-1.128,0.718-2.197,0.718
				c-2.227,0-3.823-1.758-3.823-3.838s1.597-3.853,3.823-3.853C197.892,417.787,198.727,418.227,199.02,418.505z"/>
			<path fill="#FFFFFF" d="M207.384,422.064h-5.625c0.176,1.23,1.143,2.241,2.549,2.241c1.055,0,1.714-0.483,2.197-0.835v1.216
				c-0.293,0.293-1.055,0.791-2.197,0.791c-2.227,0-3.823-1.758-3.823-3.838s1.465-3.853,3.53-3.853c2.256,0,3.369,1.553,3.369,3.56
				V422.064z M206.198,421.039c-0.146-1.421-1.157-2.08-2.183-2.08c-1.201,0-2.021,0.923-2.227,2.08H206.198z"/>
			<path fill="#FFFFFF" d="M213.712,417.992v1.436c-0.308-0.234-0.688-0.381-1.069-0.381c-0.996,0-1.538,0.806-2.08,1.787v4.424
				h-1.201v-7.324h1.201v1.465c0.557-0.967,1.421-1.611,2.256-1.611C213.156,417.787,213.449,417.86,213.712,417.992z"/>
			<path fill="#FFFFFF" d="M217.272,417.934h2.139v1.128h-2.139v4.292c0,0.615,0.308,0.981,0.952,0.981
				c0.586,0,0.952-0.176,1.245-0.352v0.981c-0.396,0.308-0.776,0.513-1.509,0.513c-1.245,0-1.89-0.82-1.89-2.065v-4.351h-1.406
				v-0.352c0.952-0.425,1.567-1.436,2.051-2.886h0.557V417.934z"/>
			<path fill="#FFFFFF" d="M227.013,418.915v-0.981h1.201v7.324h-1.201v-1.245c-0.513,0.776-1.406,1.465-2.52,1.465
				c-1.89,0-3.413-1.538-3.413-3.765c0-2.417,1.523-3.926,3.53-3.926C225.446,417.787,226.383,418.212,227.013,418.915z
				 M222.326,421.713c0,1.421,0.938,2.593,2.358,2.593c1.333,0,2.344-1.157,2.329-2.725l-0.015-1.406
				c-0.615-0.762-1.274-1.216-2.168-1.216C223.263,418.959,222.326,420.292,222.326,421.713z"/>
			<path fill="#FFFFFF" d="M232.624,417.934v7.324h-1.201v-6.196h-1.157v-1.128H232.624z M230.88,415.414
				c0-0.527,0.425-0.996,0.996-0.996c0.557,0,0.996,0.469,0.996,0.996c0,0.513-0.439,0.996-0.996,0.996
				C231.305,416.41,230.88,415.927,230.88,415.414z"/>
			<path fill="#FFFFFF" d="M241.515,420.79v4.468h-1.201l-0.015-4.351c0-1.26-0.542-1.948-1.699-1.948
				c-0.776,0-1.597,0.674-2.183,1.436v4.863h-1.201v-7.324h1.201v1.157c0.454-0.571,1.392-1.304,2.388-1.304
				C240.299,417.787,241.515,418.769,241.515,420.79z"/>
			<path fill="#FFFFFF" d="M254.479,420.79v4.468h-1.201l-0.015-4.351c0-1.26-0.542-1.948-1.699-1.948
				c-0.776,0-1.597,0.674-2.183,1.436v4.863h-1.201v-7.324h1.201v1.157c0.454-0.571,1.392-1.304,2.388-1.304
				C253.263,417.787,254.479,418.769,254.479,420.79z"/>
			<path fill="#FFFFFF" d="M262.741,422.27c0,1.934-1.348,3.135-3.105,3.135s-3.105-1.201-3.105-3.135v-4.336h1.245v4.336
				c0,1.274,0.879,1.963,1.86,1.963s1.86-0.688,1.86-1.963v-4.336h1.245V422.27z"/>
			<path fill="#FFFFFF" d="M276.32,420.79v4.468h-1.201l-0.015-4.351c0-1.26-0.688-1.948-1.846-1.948
				c-0.85,0-1.436,0.615-1.992,1.318v4.98h-1.201l-0.015-4.351c0-1.26-0.688-1.948-1.846-1.948c-0.806,0-1.45,0.542-1.992,1.201
				v5.098h-1.201v-7.324h1.201v0.938c0.469-0.527,1.201-1.084,2.197-1.084c1.055,0,2.036,0.498,2.534,1.494
				c0.688-0.806,1.436-1.494,2.52-1.494C274.958,417.787,276.32,418.769,276.32,420.79z"/>
			<path fill="#FFFFFF" d="M279.792,419.179c0.513-0.776,1.406-1.392,2.52-1.392c1.89,0,3.413,1.465,3.413,3.691
				c0,2.417-1.523,3.999-3.53,3.999c-0.835,0-1.772-0.498-2.402-1.201v0.981h-1.201v-10.547h1.201V419.179z M279.792,421.61
				l0.015,1.406c0.615,0.762,1.274,1.289,2.168,1.289c1.567,0,2.505-1.406,2.505-2.827s-0.938-2.52-2.358-2.52
				C280.788,418.959,279.777,420.043,279.792,421.61z"/>
			<path fill="#FFFFFF" d="M294.088,422.064h-5.625c0.176,1.23,1.143,2.241,2.549,2.241c1.055,0,1.714-0.483,2.197-0.835v1.216
				c-0.293,0.293-1.055,0.791-2.197,0.791c-2.227,0-3.823-1.758-3.823-3.838s1.465-3.853,3.53-3.853c2.256,0,3.369,1.553,3.369,3.56
				V422.064z M292.902,421.039c-0.146-1.421-1.157-2.08-2.183-2.08c-1.201,0-2.021,0.923-2.227,2.08H292.902z"/>
			<path fill="#FFFFFF" d="M300.417,417.992v1.436c-0.308-0.234-0.688-0.381-1.069-0.381c-0.996,0-1.538,0.806-2.08,1.787v4.424
				h-1.201v-7.324h1.201v1.465c0.557-0.967,1.421-1.611,2.256-1.611C299.86,417.787,300.153,417.86,300.417,417.992z"/>
			<path fill="#FFFFFF" d="M313.483,421.64c0,2.08-1.597,3.838-3.823,3.838s-3.823-1.758-3.823-3.838s1.597-3.853,3.823-3.853
				S313.483,419.56,313.483,421.64z M307.082,421.64c0,1.421,1.011,2.666,2.578,2.666s2.578-1.245,2.578-2.666
				s-1.011-2.681-2.578-2.681S307.082,420.219,307.082,421.64z"/>
			<path fill="#FFFFFF" d="M317.116,417.128v0.806h2.139v1.128h-2.139v6.196h-1.201v-6.196h-1.157v-1.128h1.157v-0.938
				c0-1.714,1.172-2.505,2.271-2.505c0.498,0,0.923,0.146,1.216,0.396v1.055c-0.293-0.19-0.732-0.322-1.143-0.308
				C317.541,415.663,317.116,416.044,317.116,417.128z"/>
			<path fill="#FFFFFF" d="M330.753,418.505v1.216c-0.557-0.41-1.216-0.762-2.197-0.762c-1.567,0-2.578,1.26-2.578,2.681
				s1.011,2.666,2.578,2.666c0.981,0,1.641-0.352,2.197-0.762v1.216c-0.293,0.293-1.128,0.718-2.197,0.718
				c-2.227,0-3.823-1.758-3.823-3.838s1.597-3.853,3.823-3.853C329.625,417.787,330.46,418.227,330.753,418.505z"/>
			<path fill="#FFFFFF" d="M337.082,417.992v1.436c-0.308-0.234-0.688-0.381-1.069-0.381c-0.996,0-1.538,0.806-2.08,1.787v4.424
				h-1.201v-7.324h1.201v1.465c0.557-0.967,1.421-1.611,2.256-1.611C336.525,417.787,336.818,417.86,337.082,417.992z"/>
			<path fill="#FFFFFF" d="M345.006,422.064h-5.625c0.176,1.23,1.143,2.241,2.549,2.241c1.055,0,1.714-0.483,2.197-0.835v1.216
				c-0.293,0.293-1.055,0.791-2.197,0.791c-2.227,0-3.823-1.758-3.823-3.838s1.465-3.853,3.53-3.853c2.256,0,3.369,1.553,3.369,3.56
				V422.064z M343.82,421.039c-0.146-1.421-1.157-2.08-2.183-2.08c-1.201,0-2.021,0.923-2.227,2.08H343.82z"/>
			<path fill="#FFFFFF" d="M353.605,425.258h-1.201v-1.245c-0.513,0.776-1.406,1.465-2.52,1.465c-1.89,0-3.413-1.538-3.413-3.765
				c0-2.417,1.523-3.926,3.53-3.926c0.835,0,1.772,0.425,2.402,1.128v-4.204h1.201V425.258z M347.716,421.713
				c0,1.421,0.938,2.593,2.358,2.593c1.333,0,2.344-1.157,2.329-2.725l-0.015-1.406c-0.615-0.762-1.274-1.187-2.168-1.187
				C348.654,418.988,347.716,420.292,347.716,421.713z"/>
			<path fill="#FFFFFF" d="M358.014,417.934v7.324h-1.201v-6.196h-1.157v-1.128H358.014z M356.271,415.414
				c0-0.527,0.425-0.996,0.996-0.996c0.557,0,0.996,0.469,0.996,0.996c0,0.513-0.439,0.996-0.996,0.996
				C356.696,416.41,356.271,415.927,356.271,415.414z"/>
			<path fill="#FFFFFF" d="M362.628,417.934h2.139v1.128h-2.139v4.292c0,0.615,0.308,0.981,0.952,0.981
				c0.586,0,0.952-0.176,1.245-0.352v0.981c-0.396,0.308-0.776,0.513-1.509,0.513c-1.245,0-1.89-0.82-1.89-2.065v-4.351h-1.406
				v-0.352c0.952-0.425,1.567-1.436,2.051-2.886h0.557V417.934z"/>
			<path fill="#FFFFFF" d="M371.139,418.344v1.289c-0.41-0.308-1.187-0.674-1.919-0.674c-0.923,0-1.377,0.527-1.377,0.996
				c0,0.366,0.22,0.791,0.894,1.025l1.23,0.439c0.952,0.337,1.421,0.981,1.421,1.816c0,1.245-1.128,2.241-2.695,2.241
				c-0.864,0-1.919-0.396-2.256-0.645v-1.289c0.41,0.308,1.436,0.762,2.168,0.762c0.923,0,1.494-0.454,1.494-1.069
				c0-0.469-0.366-0.703-1.055-0.952l-1.084-0.396c-1.143-0.425-1.406-1.099-1.406-1.934c0-1.245,1.011-2.168,2.578-2.168
				C369.997,417.787,370.802,418.095,371.139,418.344z"/>
			<path fill="#FFFFFF" d="M378.815,419.179c0.513-0.776,1.406-1.392,2.52-1.392c1.89,0,3.413,1.465,3.413,3.691
				c0,2.417-1.523,3.999-3.53,3.999c-0.835,0-1.772-0.498-2.402-1.201v0.981h-1.201v-10.547h1.201V419.179z M378.815,421.61
				l0.015,1.406c0.615,0.762,1.274,1.289,2.168,1.289c1.567,0,2.505-1.406,2.505-2.827s-0.938-2.52-2.358-2.52
				C379.811,418.959,378.8,420.043,378.815,421.61z"/>
			<path fill="#FFFFFF" d="M392.145,418.915v-0.981h1.201v7.324h-1.201v-1.245c-0.513,0.776-1.406,1.465-2.52,1.465
				c-1.89,0-3.413-1.538-3.413-3.765c0-2.417,1.523-3.926,3.53-3.926C390.578,417.787,391.515,418.212,392.145,418.915z
				 M387.458,421.713c0,1.421,0.938,2.593,2.358,2.593c1.333,0,2.344-1.157,2.329-2.725l-0.015-1.406
				c-0.615-0.762-1.274-1.216-2.168-1.216C388.395,418.959,387.458,420.292,387.458,421.713z"/>
			<path fill="#FFFFFF" d="M400.026,418.344v1.289c-0.41-0.308-1.187-0.674-1.919-0.674c-0.923,0-1.377,0.527-1.377,0.996
				c0,0.366,0.22,0.791,0.894,1.025l1.23,0.439c0.952,0.337,1.421,0.981,1.421,1.816c0,1.245-1.128,2.241-2.695,2.241
				c-0.864,0-1.919-0.396-2.256-0.645v-1.289c0.41,0.308,1.436,0.762,2.168,0.762c0.923,0,1.494-0.454,1.494-1.069
				c0-0.469-0.366-0.703-1.055-0.952l-1.084-0.396c-1.143-0.425-1.406-1.099-1.406-1.934c0-1.245,1.011-2.168,2.578-2.168
				C398.883,417.787,399.689,418.095,400.026,418.344z"/>
			<path fill="#FFFFFF" d="M408.493,422.064h-5.625c0.176,1.23,1.143,2.241,2.549,2.241c1.055,0,1.714-0.483,2.197-0.835v1.216
				c-0.293,0.293-1.055,0.791-2.197,0.791c-2.227,0-3.823-1.758-3.823-3.838s1.465-3.853,3.53-3.853c2.256,0,3.369,1.553,3.369,3.56
				V422.064z M407.306,421.039c-0.146-1.421-1.157-2.08-2.183-2.08c-1.201,0-2.021,0.923-2.227,2.08H407.306z"/>
			<path fill="#FFFFFF" d="M417.091,425.258h-1.201v-1.245c-0.513,0.776-1.406,1.465-2.52,1.465c-1.89,0-3.413-1.538-3.413-3.765
				c0-2.417,1.523-3.926,3.53-3.926c0.835,0,1.772,0.425,2.402,1.128v-4.204h1.201V425.258z M411.203,421.713
				c0,1.421,0.938,2.593,2.358,2.593c1.333,0,2.344-1.157,2.329-2.725l-0.015-1.406c-0.615-0.762-1.274-1.187-2.168-1.187
				C412.14,418.988,411.203,420.292,411.203,421.713z"/>
			<path fill="#FFFFFF" d="M431.11,421.64c0,2.08-1.597,3.838-3.823,3.838s-3.823-1.758-3.823-3.838s1.597-3.853,3.823-3.853
				S431.11,419.56,431.11,421.64z M424.708,421.64c0,1.421,1.011,2.666,2.578,2.666s2.578-1.245,2.578-2.666
				s-1.011-2.681-2.578-2.681S424.708,420.219,424.708,421.64z"/>
			<path fill="#FFFFFF" d="M439.386,420.79v4.468h-1.201l-0.015-4.351c0-1.26-0.542-1.948-1.699-1.948
				c-0.776,0-1.597,0.674-2.183,1.436v4.863h-1.201v-7.324h1.201v1.157c0.454-0.571,1.392-1.304,2.388-1.304
				C438.17,417.787,439.386,418.769,439.386,420.79z"/>
			<path fill="#FFFFFF" d="M45.753,435.934v7.324h-1.201v-6.196h-1.157v-1.128H45.753z M44.01,433.414
				c0-0.527,0.425-0.996,0.996-0.996c0.557,0,0.996,0.469,0.996,0.996c0,0.513-0.439,0.996-0.996,0.996
				C44.435,434.41,44.01,433.927,44.01,433.414z"/>
			<path fill="#FFFFFF" d="M50.368,435.934h2.139v1.128h-2.139v4.292c0,0.615,0.308,0.981,0.952,0.981
				c0.586,0,0.952-0.176,1.245-0.352v0.981c-0.396,0.308-0.776,0.513-1.509,0.513c-1.245,0-1.89-0.82-1.89-2.065v-4.351H47.76
				v-0.352c0.952-0.425,1.567-1.436,2.051-2.886h0.557V435.934z"/>
			<path fill="#FFFFFF" d="M56.256,433.59l-1.611,3.765l-0.908-0.234l1.318-3.94L56.256,433.59z"/>
			<path fill="#FFFFFF" d="M61.984,436.344v1.289c-0.41-0.308-1.187-0.674-1.919-0.674c-0.923,0-1.377,0.527-1.377,0.996
				c0,0.366,0.22,0.791,0.894,1.025l1.23,0.439c0.952,0.337,1.421,0.981,1.421,1.816c0,1.245-1.128,2.241-2.695,2.241
				c-0.864,0-1.919-0.396-2.256-0.645v-1.289c0.41,0.308,1.436,0.762,2.168,0.762c0.923,0,1.494-0.454,1.494-1.069
				c0-0.469-0.366-0.703-1.055-0.952l-1.084-0.396c-1.143-0.425-1.406-1.099-1.406-1.934c0-1.245,1.011-2.168,2.578-2.168
				C60.841,435.787,61.647,436.095,61.984,436.344z"/>
			<path fill="#FFFFFF" d="M73.966,436.505v1.216c-0.557-0.41-1.216-0.762-2.197-0.762c-1.567,0-2.578,1.26-2.578,2.681
				s1.011,2.666,2.578,2.666c0.981,0,1.641-0.352,2.197-0.762v1.216c-0.293,0.293-1.128,0.718-2.197,0.718
				c-2.227,0-3.823-1.758-3.823-3.838s1.597-3.853,3.823-3.853C72.838,435.787,73.673,436.227,73.966,436.505z"/>
			<path fill="#FFFFFF" d="M83.078,439.64c0,2.08-1.597,3.838-3.823,3.838s-3.823-1.758-3.823-3.838s1.597-3.853,3.823-3.853
				S83.078,437.56,83.078,439.64z M76.676,439.64c0,1.421,1.011,2.666,2.578,2.666s2.578-1.245,2.578-2.666
				s-1.011-2.681-2.578-2.681S76.676,438.219,76.676,439.64z"/>
			<path fill="#FFFFFF" d="M96.364,438.79v4.468h-1.201l-0.015-4.351c0-1.26-0.688-1.948-1.846-1.948
				c-0.85,0-1.436,0.615-1.992,1.318v4.98h-1.201l-0.015-4.351c0-1.26-0.688-1.948-1.846-1.948c-0.806,0-1.45,0.542-1.992,1.201
				v5.098h-1.201v-7.324h1.201v0.938c0.469-0.527,1.201-1.084,2.197-1.084c1.055,0,2.036,0.498,2.534,1.494
				c0.688-0.806,1.436-1.494,2.52-1.494C95.001,435.787,96.364,436.769,96.364,438.79z"/>
			<path fill="#FFFFFF" d="M109.943,438.79v4.468h-1.201l-0.015-4.351c0-1.26-0.688-1.948-1.846-1.948
				c-0.85,0-1.436,0.615-1.992,1.318v4.98h-1.201l-0.015-4.351c0-1.26-0.688-1.948-1.846-1.948c-0.806,0-1.45,0.542-1.992,1.201
				v5.098h-1.201v-7.324h1.201v0.938c0.469-0.527,1.201-1.084,2.197-1.084c1.055,0,2.036,0.498,2.534,1.494
				c0.688-0.806,1.436-1.494,2.52-1.494C108.581,435.787,109.943,436.769,109.943,438.79z"/>
			<path fill="#FFFFFF" d="M114.132,435.934v7.324h-1.201v-6.196h-1.157v-1.128H114.132z M112.389,433.414
				c0-0.527,0.425-0.996,0.996-0.996c0.557,0,0.996,0.469,0.996,0.996c0,0.513-0.439,0.996-0.996,0.996
				C112.814,434.41,112.389,433.927,112.389,433.414z"/>
			<path fill="#FFFFFF" d="M120.915,436.344v1.289c-0.41-0.308-1.187-0.674-1.919-0.674c-0.923,0-1.377,0.527-1.377,0.996
				c0,0.366,0.22,0.791,0.894,1.025l1.23,0.439c0.952,0.337,1.421,0.981,1.421,1.816c0,1.245-1.128,2.241-2.695,2.241
				c-0.864,0-1.919-0.396-2.256-0.645v-1.289c0.41,0.308,1.436,0.762,2.168,0.762c0.923,0,1.494-0.454,1.494-1.069
				c0-0.469-0.366-0.703-1.055-0.952l-1.084-0.396c-1.143-0.425-1.406-1.099-1.406-1.934c0-1.245,1.011-2.168,2.578-2.168
				C119.772,435.787,120.578,436.095,120.915,436.344z"/>
			<path fill="#FFFFFF" d="M127.184,436.344v1.289c-0.41-0.308-1.187-0.674-1.919-0.674c-0.923,0-1.377,0.527-1.377,0.996
				c0,0.366,0.22,0.791,0.894,1.025l1.23,0.439c0.952,0.337,1.421,0.981,1.421,1.816c0,1.245-1.128,2.241-2.695,2.241
				c-0.864,0-1.919-0.396-2.256-0.645v-1.289c0.41,0.308,1.436,0.762,2.168,0.762c0.923,0,1.494-0.454,1.494-1.069
				c0-0.469-0.366-0.703-1.055-0.952l-1.084-0.396c-1.143-0.425-1.406-1.099-1.406-1.934c0-1.245,1.011-2.168,2.578-2.168
				C126.042,435.787,126.847,436.095,127.184,436.344z"/>
			<path fill="#FFFFFF" d="M131.183,435.934v7.324h-1.201v-6.196h-1.157v-1.128H131.183z M129.44,433.414
				c0-0.527,0.425-0.996,0.996-0.996c0.557,0,0.996,0.469,0.996,0.996c0,0.513-0.439,0.996-0.996,0.996
				C129.865,434.41,129.44,433.927,129.44,433.414z"/>
			<path fill="#FFFFFF" d="M140.91,439.64c0,2.08-1.597,3.838-3.823,3.838s-3.823-1.758-3.823-3.838s1.597-3.853,3.823-3.853
				S140.91,437.56,140.91,439.64z M134.508,439.64c0,1.421,1.011,2.666,2.578,2.666s2.578-1.245,2.578-2.666
				s-1.011-2.681-2.578-2.681S134.508,438.219,134.508,439.64z"/>
			<path fill="#FFFFFF" d="M149.186,438.79v4.468h-1.201l-0.015-4.351c0-1.26-0.542-1.948-1.699-1.948
				c-0.776,0-1.597,0.674-2.183,1.436v4.863h-1.201v-7.324h1.201v1.157c0.454-0.571,1.392-1.304,2.388-1.304
				C147.97,435.787,149.186,436.769,149.186,438.79z"/>
			<path fill="#FFFFFF" d="M153.434,442.496c0,0.557-0.469,1.025-1.025,1.025c-0.571,0-1.025-0.469-1.025-1.025
				c0-0.571,0.454-1.025,1.025-1.025C152.965,441.471,153.434,441.925,153.434,442.496z"/>
			<path fill="#FFFFFF" d="M167.526,434.688h-3.384v8.525h-1.318v-8.525h-3.384v-1.245h8.086V434.688z"/>
			<path fill="#FFFFFF" d="M175.495,438.79v4.468h-1.201l-0.015-4.351c0-1.26-0.542-1.948-1.699-1.948
				c-0.776,0-1.597,0.674-2.183,1.436v4.863h-1.201v-10.547h1.201v4.38c0.454-0.571,1.392-1.304,2.388-1.304
				C174.279,435.787,175.495,436.769,175.495,438.79z"/>
			<path fill="#FFFFFF" d="M184.152,440.064h-5.625c0.176,1.23,1.143,2.241,2.549,2.241c1.055,0,1.714-0.483,2.197-0.835v1.216
				c-0.293,0.293-1.055,0.791-2.197,0.791c-2.227,0-3.823-1.758-3.823-3.838s1.465-3.853,3.53-3.853c2.256,0,3.369,1.553,3.369,3.56
				V440.064z M182.965,439.039c-0.146-1.421-1.157-2.08-2.183-2.08c-1.201,0-2.021,0.923-2.227,2.08H182.965z"/>
			<path fill="#FFFFFF" d="M196.032,436.505v1.216c-0.557-0.41-1.216-0.762-2.197-0.762c-1.567,0-2.578,1.26-2.578,2.681
				s1.011,2.666,2.578,2.666c0.981,0,1.641-0.352,2.197-0.762v1.216c-0.293,0.293-1.128,0.718-2.197,0.718
				c-2.227,0-3.823-1.758-3.823-3.838s1.597-3.853,3.823-3.853C194.904,435.787,195.739,436.227,196.032,436.505z"/>
			<path fill="#FFFFFF" d="M202.36,435.992v1.436c-0.308-0.234-0.688-0.381-1.069-0.381c-0.996,0-1.538,0.806-2.08,1.787v4.424
				h-1.201v-7.324h1.201v1.465c0.557-0.967,1.421-1.611,2.256-1.611C201.803,435.787,202.096,435.86,202.36,435.992z"/>
			<path fill="#FFFFFF" d="M210.285,440.064h-5.625c0.176,1.23,1.143,2.241,2.549,2.241c1.055,0,1.714-0.483,2.197-0.835v1.216
				c-0.293,0.293-1.055,0.791-2.197,0.791c-2.227,0-3.823-1.758-3.823-3.838s1.465-3.853,3.53-3.853c2.256,0,3.369,1.553,3.369,3.56
				V440.064z M209.098,439.039c-0.146-1.421-1.157-2.08-2.183-2.08c-1.201,0-2.021,0.923-2.227,2.08H209.098z"/>
			<path fill="#FFFFFF" d="M218.883,443.258h-1.201v-1.245c-0.513,0.776-1.406,1.465-2.52,1.465c-1.89,0-3.413-1.538-3.413-3.765
				c0-2.417,1.523-3.926,3.53-3.926c0.835,0,1.772,0.425,2.402,1.128v-4.204h1.201V443.258z M212.995,439.713
				c0,1.421,0.938,2.593,2.358,2.593c1.333,0,2.344-1.157,2.329-2.725l-0.015-1.406c-0.615-0.762-1.274-1.187-2.168-1.187
				C213.932,436.988,212.995,438.292,212.995,439.713z"/>
			<path fill="#FFFFFF" d="M223.292,435.934v7.324h-1.201v-6.196h-1.157v-1.128H223.292z M221.549,433.414
				c0-0.527,0.425-0.996,0.996-0.996c0.557,0,0.996,0.469,0.996,0.996c0,0.513-0.439,0.996-0.996,0.996
				C221.974,434.41,221.549,433.927,221.549,433.414z"/>
			<path fill="#FFFFFF" d="M227.907,435.934h2.139v1.128h-2.139v4.292c0,0.615,0.308,0.981,0.952,0.981
				c0.586,0,0.952-0.176,1.245-0.352v0.981c-0.396,0.308-0.776,0.513-1.509,0.513c-1.245,0-1.89-0.82-1.89-2.065v-4.351h-1.406
				v-0.352c0.952-0.425,1.567-1.436,2.051-2.886h0.557V435.934z"/>
			<path fill="#FFFFFF" d="M236.417,436.344v1.289c-0.41-0.308-1.187-0.674-1.919-0.674c-0.923,0-1.377,0.527-1.377,0.996
				c0,0.366,0.22,0.791,0.894,1.025l1.23,0.439c0.952,0.337,1.421,0.981,1.421,1.816c0,1.245-1.128,2.241-2.695,2.241
				c-0.864,0-1.919-0.396-2.256-0.645v-1.289c0.41,0.308,1.436,0.762,2.168,0.762c0.923,0,1.494-0.454,1.494-1.069
				c0-0.469-0.366-0.703-1.055-0.952l-1.084-0.396c-1.143-0.425-1.406-1.099-1.406-1.934c0-1.245,1.011-2.168,2.578-2.168
				C235.275,435.787,236.081,436.095,236.417,436.344z"/>
			<path fill="#FFFFFF" d="M250.026,439.64c0,2.08-1.597,3.838-3.823,3.838s-3.823-1.758-3.823-3.838s1.597-3.853,3.823-3.853
				S250.026,437.56,250.026,439.64z M243.625,439.64c0,1.421,1.011,2.666,2.578,2.666s2.578-1.245,2.578-2.666
				s-1.011-2.681-2.578-2.681S243.625,438.219,243.625,439.64z"/>
			<path fill="#FFFFFF" d="M253.659,435.128v0.806h2.139v1.128h-2.139v6.196h-1.201v-6.196H251.3v-1.128h1.157v-0.938
				c0-1.714,1.172-2.505,2.271-2.505c0.498,0,0.923,0.146,1.216,0.396v1.055c-0.293-0.19-0.732-0.322-1.143-0.308
				C254.083,433.663,253.659,434.044,253.659,435.128z"/>
			<path fill="#FFFFFF" d="M268.175,440.064h-5.625c0.176,1.23,1.143,2.241,2.549,2.241c1.055,0,1.714-0.483,2.197-0.835v1.216
				c-0.293,0.293-1.055,0.791-2.197,0.791c-2.227,0-3.823-1.758-3.823-3.838s1.465-3.853,3.53-3.853c2.256,0,3.369,1.553,3.369,3.56
				V440.064z M266.989,439.039c-0.146-1.421-1.157-2.08-2.183-2.08c-1.201,0-2.021,0.923-2.227,2.08H266.989z"/>
			<path fill="#FFFFFF" d="M273.17,443.258h-0.747l-3.296-7.324h1.436l2.212,5.391l2.402-5.391h1.436L273.17,443.258z"/>
			<path fill="#FFFFFF" d="M284.318,440.064h-5.625c0.176,1.23,1.143,2.241,2.549,2.241c1.055,0,1.714-0.483,2.197-0.835v1.216
				c-0.293,0.293-1.055,0.791-2.197,0.791c-2.227,0-3.823-1.758-3.823-3.838s1.465-3.853,3.53-3.853c2.256,0,3.369,1.553,3.369,3.56
				V440.064z M283.131,439.039c-0.146-1.421-1.157-2.08-2.183-2.08c-1.201,0-2.021,0.923-2.227,2.08H283.131z"/>
			<path fill="#FFFFFF" d="M290.646,435.992v1.436c-0.308-0.234-0.688-0.381-1.069-0.381c-0.996,0-1.538,0.806-2.08,1.787v4.424
				h-1.201v-7.324h1.201v1.465c0.557-0.967,1.421-1.611,2.256-1.611C290.089,435.787,290.382,435.86,290.646,435.992z"/>
			<path fill="#FFFFFF" d="M299.083,435.934l-5.391,10.84h-1.392l2.095-3.955l-3.237-6.885h1.436l2.563,5.391l2.49-5.391H299.083z"
				/>
			<path fill="#FFFFFF" d="M312.077,439.64c0,2.08-1.597,3.838-3.823,3.838s-3.823-1.758-3.823-3.838s1.597-3.853,3.823-3.853
				S312.077,437.56,312.077,439.64z M305.675,439.64c0,1.421,1.011,2.666,2.578,2.666s2.578-1.245,2.578-2.666
				s-1.011-2.681-2.578-2.681S305.675,438.219,305.675,439.64z"/>
			<path fill="#FFFFFF" d="M315.709,435.128v0.806h2.139v1.128h-2.139v6.196h-1.201v-6.196h-1.157v-1.128h1.157v-0.938
				c0-1.714,1.172-2.505,2.271-2.505c0.498,0,0.923,0.146,1.216,0.396v1.055c-0.293-0.19-0.732-0.322-1.143-0.308
				C316.134,433.663,315.709,434.044,315.709,435.128z"/>
			<path fill="#FFFFFF" d="M321.1,435.128v0.806h2.139v1.128H321.1v6.196h-1.201v-6.196h-1.157v-1.128h1.157v-0.938
				c0-1.714,1.172-2.505,2.271-2.505c0.498,0,0.923,0.146,1.216,0.396v1.055c-0.293-0.19-0.732-0.322-1.143-0.308
				C321.525,433.663,321.1,434.044,321.1,435.128z"/>
			<path fill="#FFFFFF" d="M331.222,440.064h-5.625c0.176,1.23,1.143,2.241,2.549,2.241c1.055,0,1.714-0.483,2.197-0.835v1.216
				c-0.293,0.293-1.055,0.791-2.197,0.791c-2.227,0-3.823-1.758-3.823-3.838s1.465-3.853,3.53-3.853c2.256,0,3.369,1.553,3.369,3.56
				V440.064z M330.036,439.039c-0.146-1.421-1.157-2.08-2.183-2.08c-1.201,0-2.021,0.923-2.227,2.08H330.036z"/>
			<path fill="#FFFFFF" d="M337.55,435.992v1.436c-0.308-0.234-0.688-0.381-1.069-0.381c-0.996,0-1.538,0.806-2.08,1.787v4.424
				H333.2v-7.324h1.201v1.465c0.557-0.967,1.421-1.611,2.256-1.611C336.994,435.787,337.287,435.86,337.55,435.992z"/>
			<path fill="#FFFFFF" d="M350.382,435.934l-5.391,10.84H343.6l2.095-3.955l-3.237-6.885h1.436l2.563,5.391l2.49-5.391H350.382z"/>
			<path fill="#FFFFFF" d="M358.981,439.64c0,2.08-1.597,3.838-3.823,3.838s-3.823-1.758-3.823-3.838s1.597-3.853,3.823-3.853
				S358.981,437.56,358.981,439.64z M352.58,439.64c0,1.421,1.011,2.666,2.578,2.666s2.578-1.245,2.578-2.666
				s-1.011-2.681-2.578-2.681S352.58,438.219,352.58,439.64z"/>
			<path fill="#FFFFFF" d="M366.95,440.27c0,1.934-1.348,3.135-3.105,3.135s-3.105-1.201-3.105-3.135v-4.336h1.245v4.336
				c0,1.274,0.879,1.963,1.86,1.963s1.86-0.688,1.86-1.963v-4.336h1.245V440.27z"/>
			<path fill="#FFFFFF" d="M379.123,436.505v1.216c-0.557-0.41-1.216-0.762-2.197-0.762c-1.567,0-2.578,1.26-2.578,2.681
				s1.011,2.666,2.578,2.666c0.981,0,1.641-0.352,2.197-0.762v1.216c-0.293,0.293-1.128,0.718-2.197,0.718
				c-2.227,0-3.823-1.758-3.823-3.838s1.597-3.853,3.823-3.853C377.995,435.787,378.83,436.227,379.123,436.505z"/>
			<path fill="#FFFFFF" d="M388.234,439.64c0,2.08-1.597,3.838-3.823,3.838s-3.823-1.758-3.823-3.838s1.597-3.853,3.823-3.853
				S388.234,437.56,388.234,439.64z M381.833,439.64c0,1.421,1.011,2.666,2.578,2.666s2.578-1.245,2.578-2.666
				s-1.011-2.681-2.578-2.681S381.833,438.219,381.833,439.64z"/>
			<path fill="#FFFFFF" d="M401.52,438.79v4.468h-1.201l-0.015-4.351c0-1.26-0.688-1.948-1.846-1.948
				c-0.85,0-1.436,0.615-1.992,1.318v4.98h-1.201l-0.015-4.351c0-1.26-0.688-1.948-1.846-1.948c-0.806,0-1.45,0.542-1.992,1.201
				v5.098h-1.201v-7.324h1.201v0.938c0.469-0.527,1.201-1.084,2.197-1.084c1.055,0,2.036,0.498,2.534,1.494
				c0.688-0.806,1.436-1.494,2.52-1.494C400.158,435.787,401.52,436.769,401.52,438.79z"/>
			<path fill="#FFFFFF" d="M410.924,439.479c0,2.417-1.523,3.999-3.53,3.999c-0.835,0-1.772-0.498-2.402-1.201v4.497h-1.201v-10.84
				h1.201v1.245c0.513-0.776,1.406-1.392,2.52-1.392C409.401,435.787,410.924,437.252,410.924,439.479z M404.992,439.61l0.015,1.406
				c0.615,0.762,1.274,1.289,2.168,1.289c1.567,0,2.505-1.406,2.505-2.827s-0.938-2.52-2.358-2.52
				C405.988,436.959,404.977,438.043,404.992,439.61z"/>
			<path fill="#FFFFFF" d="M414.103,443.258h-1.201v-10.547h1.201V443.258z"/>
			<path fill="#FFFFFF" d="M422.98,440.064h-5.625c0.176,1.23,1.143,2.241,2.549,2.241c1.055,0,1.714-0.483,2.197-0.835v1.216
				c-0.293,0.293-1.055,0.791-2.197,0.791c-2.227,0-3.823-1.758-3.823-3.838s1.465-3.853,3.53-3.853c2.256,0,3.369,1.553,3.369,3.56
				V440.064z M421.793,439.039c-0.146-1.421-1.157-2.08-2.183-2.08c-1.201,0-2.021,0.923-2.227,2.08H421.793z"/>
			<path fill="#FFFFFF" d="M426.979,435.934h2.139v1.128h-2.139v4.292c0,0.615,0.308,0.981,0.952,0.981
				c0.586,0,0.952-0.176,1.245-0.352v0.981c-0.396,0.308-0.776,0.513-1.509,0.513c-1.245,0-1.89-0.82-1.89-2.065v-4.351h-1.406
				v-0.352c0.952-0.425,1.567-1.436,2.051-2.886h0.557V435.934z"/>
			<path fill="#FFFFFF" d="M437.687,440.064h-5.625c0.176,1.23,1.143,2.241,2.549,2.241c1.055,0,1.714-0.483,2.197-0.835v1.216
				c-0.293,0.293-1.055,0.791-2.197,0.791c-2.227,0-3.823-1.758-3.823-3.838s1.465-3.853,3.53-3.853c2.256,0,3.369,1.553,3.369,3.56
				V440.064z M436.5,439.039c-0.146-1.421-1.157-2.08-2.183-2.08c-1.201,0-2.021,0.923-2.227,2.08H436.5z"/>
			<path fill="#FFFFFF" d="M53.598,454.915v-0.981h1.201v7.324h-1.201v-1.245c-0.513,0.776-1.406,1.465-2.52,1.465
				c-1.89,0-3.413-1.538-3.413-3.765c0-2.417,1.523-3.926,3.53-3.926C52.03,453.787,52.968,454.212,53.598,454.915z M48.91,457.713
				c0,1.421,0.938,2.593,2.358,2.593c1.333,0,2.344-1.157,2.329-2.725l-0.015-1.406c-0.615-0.762-1.274-1.216-2.168-1.216
				C49.848,454.959,48.91,456.292,48.91,457.713z"/>
			<path fill="#FFFFFF" d="M61.64,453.992v1.436c-0.308-0.234-0.688-0.381-1.069-0.381c-0.996,0-1.538,0.806-2.08,1.787v4.424
				h-1.201v-7.324h1.201v1.465c0.557-0.967,1.421-1.611,2.256-1.611C61.083,453.787,61.376,453.86,61.64,453.992z"/>
			<path fill="#FFFFFF" d="M69.564,458.064h-5.625c0.176,1.23,1.143,2.241,2.549,2.241c1.055,0,1.714-0.483,2.197-0.835v1.216
				c-0.293,0.293-1.055,0.791-2.197,0.791c-2.227,0-3.823-1.758-3.823-3.838s1.465-3.853,3.53-3.853c2.256,0,3.369,1.553,3.369,3.56
				V458.064z M68.378,457.039c-0.146-1.421-1.157-2.08-2.183-2.08c-1.201,0-2.021,0.923-2.227,2.08H68.378z"/>
			<path fill="#FFFFFF" d="M81.356,454.915v-0.981h1.201v7.324h-1.201v-1.245c-0.513,0.776-1.406,1.465-2.52,1.465
				c-1.89,0-3.413-1.538-3.413-3.765c0-2.417,1.523-3.926,3.53-3.926C79.789,453.787,80.727,454.212,81.356,454.915z
				 M76.669,457.713c0,1.421,0.938,2.593,2.358,2.593c1.333,0,2.344-1.157,2.329-2.725l-0.015-1.406
				c-0.615-0.762-1.274-1.216-2.168-1.216C77.606,454.959,76.669,456.292,76.669,457.713z"/>
			<path fill="#FFFFFF" d="M91.669,461.258h-1.201v-1.245c-0.513,0.776-1.406,1.465-2.52,1.465c-1.89,0-3.413-1.538-3.413-3.765
				c0-2.417,1.523-3.926,3.53-3.926c0.835,0,1.772,0.425,2.402,1.128v-4.204h1.201V461.258z M85.78,457.713
				c0,1.421,0.938,2.593,2.358,2.593c1.333,0,2.344-1.157,2.329-2.725l-0.015-1.406c-0.615-0.762-1.274-1.187-2.168-1.187
				C86.718,454.988,85.78,456.292,85.78,457.713z"/>
			<path fill="#FFFFFF" d="M100.78,461.258h-1.201v-1.245c-0.513,0.776-1.406,1.465-2.52,1.465c-1.89,0-3.413-1.538-3.413-3.765
				c0-2.417,1.523-3.926,3.53-3.926c0.835,0,1.772,0.425,2.402,1.128v-4.204h1.201V461.258z M94.892,457.713
				c0,1.421,0.938,2.593,2.358,2.593c1.333,0,2.344-1.157,2.329-2.725l-0.015-1.406c-0.615-0.762-1.274-1.187-2.168-1.187
				C95.829,454.988,94.892,456.292,94.892,457.713z"/>
			<path fill="#FFFFFF" d="M109.657,458.064h-5.625c0.176,1.23,1.143,2.241,2.549,2.241c1.055,0,1.714-0.483,2.197-0.835v1.216
				c-0.293,0.293-1.055,0.791-2.197,0.791c-2.227,0-3.823-1.758-3.823-3.838s1.465-3.853,3.53-3.853c2.256,0,3.369,1.553,3.369,3.56
				V458.064z M108.471,457.039c-0.146-1.421-1.157-2.08-2.183-2.08c-1.201,0-2.021,0.923-2.227,2.08H108.471z"/>
			<path fill="#FFFFFF" d="M118.256,461.258h-1.201v-1.245c-0.513,0.776-1.406,1.465-2.52,1.465c-1.89,0-3.413-1.538-3.413-3.765
				c0-2.417,1.523-3.926,3.53-3.926c0.835,0,1.772,0.425,2.402,1.128v-4.204h1.201V461.258z M112.367,457.713
				c0,1.421,0.938,2.593,2.358,2.593c1.333,0,2.344-1.157,2.329-2.725l-0.015-1.406c-0.615-0.762-1.274-1.187-2.168-1.187
				C113.305,454.988,112.367,456.292,112.367,457.713z"/>
			<path fill="#FFFFFF" d="M131.132,458.27c0,1.934-1.348,3.135-3.105,3.135s-3.105-1.201-3.105-3.135v-4.336h1.245v4.336
				c0,1.274,0.879,1.963,1.86,1.963s1.86-0.688,1.86-1.963v-4.336h1.245V458.27z"/>
			<path fill="#FFFFFF" d="M140.536,457.479c0,2.417-1.523,3.999-3.53,3.999c-0.835,0-1.772-0.498-2.402-1.201v4.497h-1.201v-10.84
				h1.201v1.245c0.513-0.776,1.406-1.392,2.52-1.392C139.013,453.787,140.536,455.252,140.536,457.479z M134.604,457.61l0.015,1.406
				c0.615,0.762,1.274,1.289,2.168,1.289c1.567,0,2.505-1.406,2.505-2.827s-0.938-2.52-2.358-2.52
				C135.6,454.959,134.589,456.043,134.604,457.61z"/>
			<path fill="#FFFFFF" d="M152.328,454.915v-0.981h1.201v7.324h-1.201v-1.245c-0.513,0.776-1.406,1.465-2.52,1.465
				c-1.89,0-3.413-1.538-3.413-3.765c0-2.417,1.523-3.926,3.53-3.926C150.761,453.787,151.698,454.212,152.328,454.915z
				 M147.641,457.713c0,1.421,0.938,2.593,2.358,2.593c1.333,0,2.344-1.157,2.329-2.725l-0.015-1.406
				c-0.615-0.762-1.274-1.216-2.168-1.216C148.578,454.959,147.641,456.292,147.641,457.713z"/>
			<path fill="#FFFFFF" d="M162.318,456.79v4.468h-1.201l-0.015-4.351c0-1.26-0.542-1.948-1.699-1.948
				c-0.776,0-1.597,0.674-2.183,1.436v4.863h-1.201v-7.324h1.201v1.157c0.454-0.571,1.392-1.304,2.388-1.304
				C161.103,453.787,162.318,454.769,162.318,456.79z"/>
			<path fill="#FFFFFF" d="M171.21,461.258h-1.201v-1.245c-0.513,0.776-1.406,1.465-2.52,1.465c-1.89,0-3.413-1.538-3.413-3.765
				c0-2.417,1.523-3.926,3.53-3.926c0.835,0,1.772,0.425,2.402,1.128v-4.204h1.201V461.258z M165.321,457.713
				c0,1.421,0.938,2.593,2.358,2.593c1.333,0,2.344-1.157,2.329-2.725l-0.015-1.406c-0.615-0.762-1.274-1.187-2.168-1.187
				C166.259,454.988,165.321,456.292,165.321,457.713z"/>
			<path fill="#FFFFFF" d="M184.481,458.064h-5.625c0.176,1.23,1.143,2.241,2.549,2.241c1.055,0,1.714-0.483,2.197-0.835v1.216
				c-0.293,0.293-1.055,0.791-2.197,0.791c-2.227,0-3.823-1.758-3.823-3.838s1.465-3.853,3.53-3.853c2.256,0,3.369,1.553,3.369,3.56
				V458.064z M183.295,457.039c-0.146-1.421-1.157-2.08-2.183-2.08c-1.201,0-2.021,0.923-2.227,2.08H183.295z"/>
			<path fill="#FFFFFF" d="M189.477,461.258h-0.747l-3.296-7.324h1.436l2.212,5.391l2.402-5.391h1.436L189.477,461.258z"/>
			<path fill="#FFFFFF" d="M200.624,458.064h-5.625c0.176,1.23,1.143,2.241,2.549,2.241c1.055,0,1.714-0.483,2.197-0.835v1.216
				c-0.293,0.293-1.055,0.791-2.197,0.791c-2.227,0-3.823-1.758-3.823-3.838s1.465-3.853,3.53-3.853c2.256,0,3.369,1.553,3.369,3.56
				V458.064z M199.438,457.039c-0.146-1.421-1.157-2.08-2.183-2.08c-1.201,0-2.021,0.923-2.227,2.08H199.438z"/>
			<path fill="#FFFFFF" d="M206.952,453.992v1.436c-0.308-0.234-0.688-0.381-1.069-0.381c-0.996,0-1.538,0.806-2.08,1.787v4.424
				h-1.201v-7.324h1.201v1.465c0.557-0.967,1.421-1.611,2.256-1.611C206.396,453.787,206.688,453.86,206.952,453.992z"/>
			<path fill="#FFFFFF" d="M215.39,453.934l-5.391,10.84h-1.392l2.095-3.955l-3.237-6.885h1.436l2.563,5.391l2.49-5.391H215.39z"/>
			<path fill="#FFFFFF" d="M226.903,460.086v1.172h-5.317v-1.172h1.948v-6.387c-0.586,0.513-1.23,0.645-1.846,0.762v-1.26
				c1.128-0.293,1.978-1.025,2.52-1.758h0.645v8.643H226.903z"/>
			<path fill="#FFFFFF" d="M231.283,460.496c0,0.557-0.469,1.025-1.025,1.025c-0.571,0-1.025-0.469-1.025-1.025
				c0-0.571,0.454-1.025,1.025-1.025C230.814,459.471,231.283,459.925,231.283,460.496z"/>
			<path fill="#FFFFFF" d="M240.233,456.351c0,2.52-1.187,5.127-3.706,5.127s-3.706-2.607-3.706-5.127s1.187-5.127,3.706-5.127
				S240.233,453.831,240.233,456.351z M234.066,456.351c0,1.904,0.85,3.838,2.461,3.838s2.461-1.934,2.461-3.838
				s-0.85-3.838-2.461-3.838S234.066,454.446,234.066,456.351z"/>
			<path fill="#FFFFFF" d="M248.29,456.351c0,2.52-1.187,5.127-3.706,5.127s-3.706-2.607-3.706-5.127s1.187-5.127,3.706-5.127
				S248.29,453.831,248.29,456.351z M242.123,456.351c0,1.904,0.85,3.838,2.461,3.838s2.461-1.934,2.461-3.838
				s-0.85-3.838-2.461-3.838S242.123,454.446,242.123,456.351z"/>
			<path fill="#FFFFFF" d="M259.716,454.505v1.216c-0.557-0.41-1.216-0.762-2.197-0.762c-1.567,0-2.578,1.26-2.578,2.681
				s1.011,2.666,2.578,2.666c0.981,0,1.641-0.352,2.197-0.762v1.216c-0.293,0.293-1.128,0.718-2.197,0.718
				c-2.227,0-3.823-1.758-3.823-3.838s1.597-3.853,3.823-3.853C258.588,453.787,259.423,454.227,259.716,454.505z"/>
			<path fill="#FFFFFF" d="M266.044,453.992v1.436c-0.308-0.234-0.688-0.381-1.069-0.381c-0.996,0-1.538,0.806-2.08,1.787v4.424
				h-1.201v-7.324h1.201v1.465c0.557-0.967,1.421-1.611,2.256-1.611C265.487,453.787,265.78,453.86,266.044,453.992z"/>
			<path fill="#FFFFFF" d="M273.969,458.064h-5.625c0.176,1.23,1.143,2.241,2.549,2.241c1.055,0,1.714-0.483,2.197-0.835v1.216
				c-0.293,0.293-1.055,0.791-2.197,0.791c-2.227,0-3.823-1.758-3.823-3.838s1.465-3.853,3.53-3.853c2.256,0,3.369,1.553,3.369,3.56
				V458.064z M272.782,457.039c-0.146-1.421-1.157-2.08-2.183-2.08c-1.201,0-2.021,0.923-2.227,2.08H272.782z"/>
			<path fill="#FFFFFF" d="M282.567,461.258h-1.201v-1.245c-0.513,0.776-1.406,1.465-2.52,1.465c-1.89,0-3.413-1.538-3.413-3.765
				c0-2.417,1.523-3.926,3.53-3.926c0.835,0,1.772,0.425,2.402,1.128v-4.204h1.201V461.258z M276.679,457.713
				c0,1.421,0.938,2.593,2.358,2.593c1.333,0,2.344-1.157,2.329-2.725l-0.015-1.406c-0.615-0.762-1.274-1.187-2.168-1.187
				C277.616,454.988,276.679,456.292,276.679,457.713z"/>
			<path fill="#FFFFFF" d="M286.977,453.934v7.324h-1.201v-6.196h-1.157v-1.128H286.977z M285.233,451.414
				c0-0.527,0.425-0.996,0.996-0.996c0.557,0,0.996,0.469,0.996,0.996c0,0.513-0.439,0.996-0.996,0.996
				C285.658,452.41,285.233,451.927,285.233,451.414z"/>
			<path fill="#FFFFFF" d="M291.591,453.934h2.139v1.128h-2.139v4.292c0,0.615,0.308,0.981,0.952,0.981
				c0.586,0,0.952-0.176,1.245-0.352v0.981c-0.396,0.308-0.776,0.513-1.509,0.513c-1.245,0-1.89-0.82-1.89-2.065v-4.351h-1.406
				v-0.352c0.952-0.425,1.567-1.436,2.051-2.886h0.557V453.934z"/>
			<path fill="#FFFFFF" d="M307.44,457.479c0,2.417-1.523,3.999-3.53,3.999c-0.835,0-1.772-0.498-2.402-1.201v4.497h-1.201v-10.84
				h1.201v1.245c0.513-0.776,1.406-1.392,2.52-1.392C305.917,453.787,307.44,455.252,307.44,457.479z M301.508,457.61l0.015,1.406
				c0.615,0.762,1.274,1.289,2.168,1.289c1.567,0,2.505-1.406,2.505-2.827s-0.938-2.52-2.358-2.52
				C302.504,454.959,301.493,456.043,301.508,457.61z"/>
			<path fill="#FFFFFF" d="M315.409,458.27c0,1.934-1.348,3.135-3.105,3.135s-3.105-1.201-3.105-3.135v-4.336h1.245v4.336
				c0,1.274,0.879,1.963,1.86,1.963s1.86-0.688,1.86-1.963v-4.336h1.245V458.27z"/>
			<path fill="#FFFFFF" d="M319.701,453.934h2.139v1.128h-2.139v4.292c0,0.615,0.308,0.981,0.952,0.981
				c0.586,0,0.952-0.176,1.245-0.352v0.981c-0.396,0.308-0.776,0.513-1.509,0.513c-1.245,0-1.89-0.82-1.89-2.065v-4.351h-1.406
				v-0.352c0.952-0.425,1.567-1.436,2.051-2.886h0.557V453.934z"/>
			<path fill="#FFFFFF" d="M328.212,454.344v1.289c-0.41-0.308-1.187-0.674-1.919-0.674c-0.923,0-1.377,0.527-1.377,0.996
				c0,0.366,0.22,0.791,0.894,1.025l1.23,0.439c0.952,0.337,1.421,0.981,1.421,1.816c0,1.245-1.128,2.241-2.695,2.241
				c-0.864,0-1.919-0.396-2.256-0.645v-1.289c0.41,0.308,1.436,0.762,2.168,0.762c0.923,0,1.494-0.454,1.494-1.069
				c0-0.469-0.366-0.703-1.055-0.952l-1.084-0.396c-1.143-0.425-1.406-1.099-1.406-1.934c0-1.245,1.011-2.168,2.578-2.168
				C327.069,453.787,327.875,454.095,328.212,454.344z"/>
			<path fill="#FFFFFF" d="M341.586,453.934l-5.391,10.84h-1.392l2.095-3.955l-3.237-6.885h1.436l2.563,5.391l2.49-5.391H341.586z"
				/>
			<path fill="#FFFFFF" d="M350.185,457.64c0,2.08-1.597,3.838-3.823,3.838s-3.823-1.758-3.823-3.838s1.597-3.853,3.823-3.853
				S350.185,455.56,350.185,457.64z M343.783,457.64c0,1.421,1.011,2.666,2.578,2.666s2.578-1.245,2.578-2.666
				s-1.011-2.681-2.578-2.681S343.783,456.219,343.783,457.64z"/>
			<path fill="#FFFFFF" d="M358.153,458.27c0,1.934-1.348,3.135-3.105,3.135s-3.105-1.201-3.105-3.135v-4.336h1.245v4.336
				c0,1.274,0.879,1.963,1.86,1.963s1.86-0.688,1.86-1.963v-4.336h1.245V458.27z"/>
			<path fill="#FFFFFF" d="M370.81,458.27c0,1.934-1.348,3.135-3.105,3.135s-3.105-1.201-3.105-3.135v-4.336h1.245v4.336
				c0,1.274,0.879,1.963,1.86,1.963s1.86-0.688,1.86-1.963v-4.336h1.245V458.27z"/>
			<path fill="#FFFFFF" d="M380.214,457.479c0,2.417-1.523,3.999-3.53,3.999c-0.835,0-1.772-0.498-2.402-1.201v4.497h-1.201v-10.84
				h1.201v1.245c0.513-0.776,1.406-1.392,2.52-1.392C378.69,453.787,380.214,455.252,380.214,457.479z M374.281,457.61l0.015,1.406
				c0.615,0.762,1.274,1.289,2.168,1.289c1.567,0,2.505-1.406,2.505-2.827s-0.938-2.52-2.358-2.52
				C375.277,454.959,374.267,456.043,374.281,457.61z"/>
			<path fill="#FFFFFF" d="M392.24,460.086v1.172h-5.317v-1.172h1.948v-6.387c-0.586,0.513-1.23,0.645-1.846,0.762v-1.26
				c1.128-0.293,1.978-1.025,2.52-1.758h0.645v8.643H392.24z"/>
			<path fill="#FFFFFF" d="M400.238,461.258h-1.201v-10.547h1.201V461.258z"/>
			<path fill="#FFFFFF" d="M409.115,458.064h-5.625c0.176,1.23,1.143,2.241,2.549,2.241c1.055,0,1.714-0.483,2.197-0.835v1.216
				c-0.293,0.293-1.055,0.791-2.197,0.791c-2.227,0-3.823-1.758-3.823-3.838s1.465-3.853,3.53-3.853c2.256,0,3.369,1.553,3.369,3.56
				V458.064z M407.929,457.039c-0.146-1.421-1.157-2.08-2.183-2.08c-1.201,0-2.021,0.923-2.227,2.08H407.929z"/>
			<path fill="#FFFFFF" d="M414.11,461.258h-0.747l-3.296-7.324h1.436l2.212,5.391l2.402-5.391h1.436L414.11,461.258z"/>
			<path fill="#FFFFFF" d="M425.258,458.064h-5.625c0.176,1.23,1.143,2.241,2.549,2.241c1.055,0,1.714-0.483,2.197-0.835v1.216
				c-0.293,0.293-1.055,0.791-2.197,0.791c-2.227,0-3.823-1.758-3.823-3.838s1.465-3.853,3.53-3.853c2.256,0,3.369,1.553,3.369,3.56
				V458.064z M424.071,457.039c-0.146-1.421-1.157-2.08-2.183-2.08c-1.201,0-2.021,0.923-2.227,2.08H424.071z"/>
			<path fill="#FFFFFF" d="M428.437,461.258h-1.201v-10.547h1.201V461.258z"/>
			<path fill="#FFFFFF" d="M432.904,460.496c0,0.557-0.469,1.025-1.025,1.025c-0.571,0-1.025-0.469-1.025-1.025
				c0-0.571,0.454-1.025,1.025-1.025C432.436,459.471,432.904,459.925,432.904,460.496z"/>
		</g>
	</g>
	<g>
		<circle fill="#FF9F03" cx="96.345" cy="185.744" r="13.496"/>
		<circle fill="#FFC306" cx="96.345" cy="185.745" r="10.993"/>
		<g>
			<path fill="#FFA017" d="M97.362,190.624c-0.647,0.135-1.299,0.183-1.957,0.145c-0.657-0.036-1.287-0.156-1.887-0.357l0.563-2.014
				c0.492,0.165,0.954,0.28,1.389,0.352c0.434,0.07,0.881,0.076,1.34,0.016l-0.773-2.277c-0.564,0.032-1.069,0.027-1.514-0.014
				c-0.446-0.039-0.836-0.137-1.171-0.289c-0.333-0.152-0.619-0.368-0.857-0.644c-0.238-0.278-0.427-0.624-0.571-1.045l-0.009-0.027
				c-0.137-0.402-0.188-0.791-0.155-1.165c0.034-0.372,0.141-0.722,0.323-1.05c0.182-0.328,0.433-0.629,0.755-0.903
				c0.323-0.275,0.7-0.512,1.133-0.713l-0.283-0.832l1.49-0.505l0.292,0.859c0.542-0.098,1.061-0.134,1.554-0.105
				c0.495,0.029,0.985,0.116,1.472,0.261l-0.392,2c-0.351-0.091-0.7-0.165-1.046-0.211c-0.346-0.046-0.685-0.058-1.017-0.03
				l0.734,2.164c1.189-0.074,2.111,0.045,2.766,0.355c0.654,0.311,1.117,0.867,1.389,1.669l0.01,0.028
				c0.136,0.401,0.185,0.789,0.147,1.165c-0.038,0.376-0.147,0.727-0.329,1.055c-0.183,0.328-0.433,0.632-0.754,0.911
				s-0.703,0.52-1.145,0.723l0.482,1.419l-1.491,0.506L97.362,190.624z M94.651,182.404c-0.328,0.165-0.544,0.352-0.647,0.564
				c-0.104,0.21-0.119,0.431-0.041,0.661l0.009,0.027c0.076,0.221,0.207,0.385,0.394,0.499c0.188,0.111,0.501,0.173,0.941,0.184
				L94.651,182.404z M98.183,188.38c0.642-0.335,0.877-0.757,0.707-1.262l-0.01-0.03c-0.084-0.248-0.226-0.427-0.421-0.535
				c-0.197-0.108-0.516-0.168-0.957-0.18L98.183,188.38z"/>
		</g>
		<path opacity="0.2" fill="#FFFFFF" d="M96.513,172.261c-1.494-0.019-3.013,0.196-4.508,0.704
			c-7.056,2.396-10.836,10.062-8.44,17.119c1.958,5.768,7.436,9.34,13.224,9.149L96.513,172.261z"/>
	</g>
	<g>
		<circle fill="#FFA017" cx="359.2" cy="156.769" r="13.497"/>
		<circle fill="#FFC306" cx="359.2" cy="156.77" r="10.993"/>
		<g>
			<path fill="#FFA017" d="M357.737,161.534c-0.632-0.194-1.226-0.467-1.784-0.816c-0.558-0.35-1.051-0.757-1.48-1.224l1.464-1.492
				c0.352,0.38,0.701,0.705,1.047,0.978c0.347,0.271,0.735,0.492,1.166,0.661l0.421-2.368c-0.51-0.244-0.95-0.492-1.319-0.743
				c-0.372-0.25-0.666-0.524-0.886-0.819c-0.218-0.293-0.365-0.62-0.441-0.976c-0.074-0.358-0.073-0.753,0.005-1.192l0.005-0.028
				c0.075-0.418,0.217-0.782,0.426-1.095c0.209-0.311,0.472-0.566,0.79-0.765c0.317-0.2,0.683-0.342,1.098-0.426
				c0.415-0.085,0.86-0.111,1.336-0.078l0.153-0.865l1.549,0.276l-0.158,0.894c0.522,0.176,0.993,0.395,1.412,0.659
				c0.419,0.265,0.807,0.576,1.163,0.938l-1.309,1.564c-0.263-0.25-0.534-0.481-0.814-0.69c-0.28-0.209-0.572-0.381-0.876-0.517
				l-0.4,2.25c1.078,0.509,1.827,1.057,2.25,1.646c0.424,0.587,0.56,1.298,0.412,2.132l-0.005,0.029
				c-0.075,0.417-0.219,0.78-0.433,1.092c-0.215,0.311-0.479,0.565-0.797,0.766c-0.318,0.198-0.685,0.344-1.1,0.434
				c-0.416,0.089-0.866,0.117-1.352,0.081l-0.263,1.476l-1.55-0.276L357.737,161.534z M359.328,153.027
				c-0.368-0.014-0.646,0.045-0.839,0.181c-0.193,0.134-0.312,0.321-0.354,0.561l-0.005,0.027c-0.041,0.23-0.004,0.437,0.104,0.628
				c0.111,0.187,0.355,0.394,0.736,0.614L359.328,153.027z M359.538,159.964c0.724,0.017,1.134-0.239,1.228-0.763l0.005-0.032
				c0.046-0.258,0.008-0.482-0.111-0.672c-0.121-0.19-0.371-0.396-0.751-0.618L359.538,159.964z"/>
		</g>
		<path opacity="0.2" fill="#FFFFFF" d="M365.853,145.041c-1.299-0.737-2.734-1.283-4.289-1.559
			c-7.336-1.306-14.346,3.585-15.652,10.923c-1.066,5.997,2.008,11.769,7.17,14.393L365.853,145.041z"/>
	</g>
	<g>
		<circle fill="#FF9F03" cx="109.174" cy="223.362" r="5.92"/>
		<circle fill="#FFC306" cx="109.174" cy="223.362" r="4.822"/>
		<g>
			<path fill="#FFA017" d="M109.547,225.516c-0.286,0.05-0.573,0.061-0.86,0.036c-0.287-0.026-0.562-0.088-0.822-0.185l0.277-0.875
				c0.213,0.08,0.415,0.137,0.604,0.175c0.189,0.037,0.385,0.046,0.587,0.027l-0.306-1.01c-0.248,0.006-0.469-0.004-0.664-0.029
				c-0.195-0.024-0.365-0.072-0.509-0.144c-0.144-0.071-0.266-0.17-0.366-0.294c-0.1-0.125-0.178-0.28-0.234-0.467l-0.004-0.013
				c-0.054-0.178-0.071-0.348-0.05-0.512c0.02-0.164,0.072-0.315,0.156-0.456c0.085-0.141,0.199-0.27,0.345-0.385
				c0.146-0.116,0.315-0.214,0.507-0.296l-0.111-0.369l0.661-0.199l0.115,0.382c0.239-0.036,0.467-0.043,0.683-0.023
				c0.216,0.021,0.43,0.066,0.642,0.136l-0.202,0.872c-0.152-0.046-0.304-0.083-0.456-0.109c-0.151-0.026-0.299-0.034-0.445-0.028
				l0.29,0.959c0.522-0.015,0.925,0.051,1.207,0.197s0.477,0.397,0.585,0.753l0.003,0.012c0.054,0.178,0.069,0.349,0.048,0.512
				c-0.022,0.165-0.075,0.316-0.16,0.458c-0.085,0.14-0.199,0.271-0.344,0.388c-0.145,0.117-0.315,0.217-0.512,0.299l0.189,0.629
				l-0.661,0.199L109.547,225.516z M108.481,221.873c-0.146,0.066-0.244,0.146-0.292,0.236c-0.049,0.091-0.058,0.188-0.027,0.29
				l0.003,0.012c0.03,0.098,0.085,0.172,0.166,0.225c0.08,0.051,0.217,0.083,0.41,0.094L108.481,221.873z M109.94,224.545
				c0.287-0.138,0.396-0.319,0.329-0.543l-0.004-0.012c-0.033-0.11-0.093-0.191-0.177-0.241c-0.084-0.051-0.224-0.082-0.417-0.094
				L109.94,224.545z"/>
		</g>
		<path opacity="0.2" fill="#FFFFFF" d="M109.448,217.454c-0.655-0.031-1.325,0.041-1.987,0.241c-3.13,0.946-4.901,4.25-3.955,7.38
			c0.772,2.557,3.121,4.205,5.662,4.207L109.448,217.454z"/>
	</g>
	<circle opacity="0.3" fill="#FFFFFF" cx="404.077" cy="203.367" r="2.466"/>
	<circle opacity="0.3" fill="#FFFFFF" cx="353.811" cy="190.571" r="2.466"/>
	<g>
		<circle fill="#FFA017" cx="125.185" cy="156.691" r="5.92"/>
		<circle fill="#FFC306" cx="125.184" cy="156.691" r="4.822"/>
		<g>
			<path fill="#FFA017" d="M125.376,158.869c-0.289,0.025-0.575,0.013-0.859-0.038c-0.284-0.049-0.553-0.135-0.804-0.252
				l0.349-0.848c0.206,0.097,0.402,0.17,0.588,0.224c0.186,0.054,0.379,0.079,0.583,0.077l-0.22-1.032
				c-0.248-0.016-0.467-0.044-0.659-0.084c-0.192-0.041-0.357-0.103-0.495-0.186c-0.137-0.083-0.25-0.192-0.34-0.325
				c-0.089-0.133-0.154-0.293-0.195-0.484l-0.002-0.013c-0.039-0.182-0.041-0.354-0.007-0.514c0.033-0.161,0.098-0.308,0.194-0.441
				c0.096-0.133,0.221-0.252,0.376-0.354c0.154-0.103,0.332-0.188,0.529-0.253l-0.08-0.377l0.675-0.143l0.083,0.389
				c0.241-0.014,0.469-0.003,0.683,0.035c0.214,0.039,0.423,0.102,0.627,0.19l-0.274,0.852c-0.148-0.058-0.296-0.108-0.445-0.147
				c-0.148-0.038-0.295-0.059-0.441-0.065l0.208,0.981c0.521,0.029,0.917,0.128,1.187,0.297c0.269,0.168,0.442,0.435,0.519,0.799
				l0.002,0.012c0.039,0.182,0.04,0.354,0.005,0.514c-0.036,0.162-0.102,0.309-0.198,0.443c-0.096,0.133-0.221,0.252-0.375,0.358
				c-0.154,0.104-0.333,0.19-0.535,0.255l0.136,0.644l-0.675,0.143L125.376,158.869z M124.619,155.149
				c-0.151,0.054-0.255,0.124-0.311,0.211c-0.057,0.087-0.073,0.182-0.051,0.287l0.002,0.011c0.021,0.101,0.07,0.178,0.146,0.237
				s0.209,0.101,0.4,0.128L124.619,155.149z M125.849,157.933c0.297-0.112,0.421-0.284,0.374-0.513l-0.004-0.013
				c-0.023-0.112-0.076-0.197-0.156-0.254c-0.08-0.058-0.216-0.1-0.407-0.128L125.849,157.933z"/>
		</g>
		<path opacity="0.2" fill="#FFFFFF" d="M125.953,150.826c-0.65-0.085-1.324-0.07-2,0.074c-3.198,0.681-5.24,3.825-4.559,7.022
			c0.556,2.613,2.758,4.452,5.289,4.667L125.953,150.826z"/>
	</g>
	<circle opacity="0.3" fill="#FFFFFF" cx="131.106" cy="185.687" r="2.466"/>
	<g>
		<circle fill="#FFA017" cx="375.513" cy="231.822" r="5.92"/>
		<circle fill="#FFC306" cx="375.512" cy="231.823" r="4.822"/>
		<g>
			<path fill="#FFA017" d="M376.046,233.943c-0.281,0.071-0.566,0.103-0.854,0.099c-0.289-0.005-0.567-0.045-0.833-0.123l0.21-0.893
				c0.219,0.063,0.424,0.105,0.615,0.128c0.192,0.023,0.388,0.018,0.588-0.017l-0.381-0.984c-0.247,0.024-0.468,0.03-0.664,0.021
				c-0.196-0.009-0.369-0.045-0.519-0.105c-0.148-0.06-0.277-0.15-0.387-0.267c-0.108-0.117-0.198-0.266-0.269-0.447l-0.004-0.013
				c-0.067-0.173-0.096-0.342-0.089-0.507c0.008-0.164,0.048-0.32,0.122-0.466c0.074-0.147,0.178-0.283,0.315-0.41
				c0.136-0.126,0.298-0.237,0.483-0.333l-0.138-0.359l0.644-0.249l0.143,0.371c0.236-0.052,0.463-0.077,0.68-0.074
				c0.218,0.005,0.434,0.034,0.65,0.088l-0.136,0.885c-0.156-0.035-0.31-0.06-0.463-0.075c-0.152-0.014-0.301-0.012-0.446,0.006
				l0.361,0.935c0.52-0.054,0.926-0.019,1.218,0.106c0.293,0.124,0.506,0.36,0.64,0.707l0.004,0.011
				c0.067,0.174,0.095,0.343,0.086,0.509c-0.01,0.165-0.052,0.32-0.126,0.469c-0.074,0.146-0.178,0.284-0.313,0.412
				c-0.136,0.127-0.298,0.241-0.488,0.337l0.236,0.615l-0.644,0.247L376.046,233.943z M374.709,230.389
				c-0.141,0.078-0.232,0.164-0.273,0.258c-0.042,0.095-0.043,0.192-0.005,0.291l0.004,0.012c0.037,0.095,0.098,0.165,0.182,0.211
				c0.083,0.045,0.223,0.066,0.415,0.063L374.709,230.389z M376.365,232.945c0.276-0.158,0.371-0.347,0.288-0.566l-0.005-0.012
				c-0.042-0.107-0.107-0.184-0.195-0.228s-0.229-0.065-0.422-0.062L376.365,232.945z"/>
		</g>
		<path opacity="0.2" fill="#FFFFFF" d="M375.343,225.91c-0.655,0.019-1.317,0.14-1.963,0.389c-3.05,1.177-4.568,4.604-3.39,7.655
			c0.962,2.494,3.427,3.96,5.96,3.772L375.343,225.91z"/>
	</g>
	<g>
		<polygon fill="#8E8E8E" points="326.074,187.374 153.977,187.374 153.019,157.116 327.032,157.116 		"/>
		<polygon opacity="0.15" points="320.478,182.726 159.573,182.726 158.635,161.765 321.416,161.765 		"/>
		<polygon fill="#C2E812" points="186.078,182.726 159.573,182.726 158.635,161.765 186.078,161.765 		"/>
		<polygon opacity="0.15" fill="#FFFFFF" points="159.573,182.726 160.17,184.228 320.478,182.726 		"/>
		<polygon opacity="0.15" fill="#FFFFFF" points="153.019,157.116 153.079,159.006 327.032,157.116 		"/>
		<polygon opacity="0.15" fill="#FFFFFF" points="195.967,166.048 195.967,178.442 203.39,172.245 		"/>
		<polygon opacity="0.15" fill="#FFFFFF" points="206.018,166.048 206.018,178.442 213.441,172.245 		"/>
		<polygon opacity="0.15" fill="#FFFFFF" points="216.069,166.048 216.069,178.442 223.492,172.245 		"/>
	</g>
	<polygon fill="#3A3A3A" points="350.399,203.366 240.025,203.366 129.651,203.366 125.184,206.444 127.863,353.065 
		127.863,358.314 240.025,358.314 352.188,358.314 352.188,353.065 354.869,206.444 	"/>
	<polygon fill="#197278" points="337.528,214.819 240.025,214.819 142.524,214.819 138.588,218.201 141.269,340.661 
		141.269,345.076 240.025,345.076 338.782,345.076 338.782,340.661 341.463,218.201 	"/>
	<polygon fill="#D2D5DD" points="263.263,353.065 261.029,356.416 240.025,356.416 219.024,356.416 216.791,353.065 
		109.173,353.065 109.173,355.746 115.726,363.567 240.025,363.567 364.327,363.567 370.878,355.746 370.878,353.065 	"/>
	<polygon opacity="0.3" fill="#FFFFFF" points="109.173,353.065 109.173,355.746 218.577,355.746 216.791,353.065 	"/>
	<polygon opacity="0.3" fill="#FFFFFF" points="370.878,353.065 370.878,355.746 261.475,355.746 263.263,353.065 	"/>
	<polygon opacity="0.15" fill="#FFFFFF" points="125.184,206.444 354.869,206.444 350.399,203.366 129.651,203.366 	"/>
	<rect x="177.77" y="263.047" fill="#C2E812" width="124.512" height="36.598"/>
	<polygon fill="#FFFFFF" points="295.769,295.855 301.788,311.881 305.264,308.557 312.762,317.604 318.244,312.484 
		308.546,305.845 312.614,302.38 	"/>
	<polygon fill="#FFFFFF" points="181.692,250.35 176.591,261.122 165.142,259.252 176.277,263.813 174.641,275.965 179.708,264.543 
		190.779,265.454 180.384,261.311 	"/>
	<polygon fill="#AA8F66" points="402.265,378.632 79.548,378.632 71.5,363.567 409.508,363.567 	"/>
	<polygon opacity="0.2" fill="#FFFFFF" points="71.5,363.567 73.758,367.794 409.508,363.567 	"/>
	<g>
		<path fill="#FFFFFF" d="M194.531,273.591h5.185v15.512h-5.185V273.591z"/>
		<path fill="#FFFFFF" d="M212.569,273.479h5.142l6.537,15.623h-5.629l-0.819-2.083h-5.429l-0.798,2.083h-5.54L212.569,273.479z
			 M216.513,283.341l-1.417-3.767l-1.419,3.767H216.513z"/>
		<path fill="#FFFFFF" d="M233.244,289.435c-1.212,0-2.345-0.192-3.402-0.577c-1.056-0.384-1.979-0.931-2.77-1.64
			c-0.79-0.709-1.411-1.558-1.861-2.548c-0.451-0.99-0.676-2.083-0.676-3.28v-0.044c0-1.152,0.214-2.225,0.644-3.213
			c0.427-0.99,1.027-1.847,1.794-2.571c0.768-0.724,1.673-1.289,2.715-1.695c1.041-0.406,2.175-0.61,3.402-0.61
			c1.345,0,2.552,0.208,3.624,0.621c1.071,0.413,2.027,0.989,2.869,1.728l-2.903,3.502c-0.517-0.43-1.056-0.762-1.618-0.998
			c-0.561-0.236-1.166-0.354-1.816-0.354c-0.502,0-0.968,0.091-1.396,0.277c-0.428,0.184-0.797,0.439-1.108,0.764
			c-0.31,0.324-0.551,0.709-0.72,1.152s-0.254,0.931-0.254,1.463v0.044c0,0.546,0.091,1.049,0.277,1.508
			c0.185,0.457,0.439,0.849,0.764,1.175c0.325,0.324,0.712,0.575,1.164,0.753c0.45,0.178,0.95,0.266,1.496,0.266
			c0.443,0,0.798-0.03,1.064-0.088c0.266-0.059,0.502-0.149,0.709-0.267v-1.551h-2.659v-3.303h7.513v7.164
			c-0.842,0.693-1.84,1.252-2.992,1.68C235.947,289.221,234.662,289.435,233.244,289.435z"/>
		<path fill="#FFFFFF" d="M241.599,273.591h7.579c1.389,0,2.531,0.158,3.423,0.476c0.895,0.317,1.615,0.75,2.161,1.296
			c0.473,0.472,0.828,1.005,1.064,1.596c0.237,0.591,0.355,1.285,0.355,2.082v0.046c0,1.137-0.273,2.097-0.819,2.881
			c-0.547,0.782-1.293,1.403-2.239,1.86l3.612,5.274h-5.917l-2.925-4.432h-0.044h-1.064v4.432h-5.185V273.591z M249.023,280.971
			c0.621,0,1.108-0.134,1.462-0.399c0.355-0.266,0.532-0.636,0.532-1.108v-0.044c0-0.502-0.177-0.876-0.532-1.12
			c-0.354-0.244-0.834-0.366-1.44-0.366h-2.26v3.037H249.023z"/>
		<path fill="#FFFFFF" d="M257.444,273.591h13.229v4.254h-8.133v1.574h7.579v3.745h-7.579v1.685h8.244v4.254h-13.34V273.591z"/>
		<path fill="#FFFFFF" d="M272.18,273.591h13.229v4.254h-8.132v1.574h7.578v3.745h-7.578v1.685h8.243v4.254h-13.34V273.591z"/>
	</g>
	<polygon opacity="0.1" fill="#FFFFFF" points="127.863,353.065 350.399,203.366 129.651,203.366 125.184,206.444 	"/>
	<g opacity="0.5">
		<rect x="76.219" y="232.207" fill="#FFFFFF" width="2.928" height="15.331"/>
		<rect x="70.018" y="238.408" fill="#FFFFFF" width="15.331" height="2.928"/>
	</g>
	<g opacity="0.3">
		<rect x="109.001" y="267.133" fill="#FFFFFF" width="1.687" height="8.832"/>
		<rect x="105.428" y="270.706" fill="#FFFFFF" width="8.833" height="1.687"/>
	</g>
	<g opacity="0.5">
		<rect x="388.686" y="170.056" fill="#FFFFFF" width="1.686" height="8.833"/>
		<rect x="385.113" y="173.629" fill="#FFFFFF" width="8.833" height="1.686"/>
	</g>
	<g opacity="0.3">
		<rect x="392.481" y="255.863" fill="#FFFFFF" width="2.928" height="15.331"/>
		<rect x="386.28" y="262.064" fill="#FFFFFF" width="15.331" height="2.928"/>
	</g>
	<path opacity="0.5" fill="#FFFFFF" d="M107.834,159.257c0,0.819-0.665,2.019-1.485,2.019c-0.82,0-1.484-1.2-1.484-2.019
		c0-0.82,0.665-1.485,1.484-1.485C107.17,157.772,107.834,158.437,107.834,159.257z"/>
	<g>
		<rect x="182.805" y="497.937" fill="#FF9F03" width="115.399" height="45.63"/>
		<g>
			<g>
				<path fill="#FFFFFF" d="M221.996,529.445h-1.304l-10.126-10.459v10.332h-3.555v-17.262h1.304l10.127,10.611v-10.482h3.554
					V529.445z"/>
				<path fill="#FFFFFF" d="M230.669,515.254v3.887h7.57v2.889h-7.57v4.145h8.567v3.145h-12.122v-17.133h12.122v3.068H230.669z"/>
				<path fill="#FFFFFF" d="M252.437,520.854l6.111,8.465h-4.475l-4.143-5.984l-4.041,5.984h-4.347l5.958-8.592l-5.958-8.541h4.475
					l4.015,6.213l4.041-6.213h4.475L252.437,520.854z"/>
				<path fill="#FFFFFF" d="M273.999,515.381h-5.473v13.859h-3.529v-13.859h-5.473v-3.195h14.475V515.381z"/>
			</g>
		</g>
	</g>
	<g opacity="0.5">
		<polygon fill="#FFFFFF" points="467.533,19.579 469.098,19.579 469.098,23.955 457.323,23.955 457.323,8.265 469.098,8.265 
			469.098,12.694 467.569,12.694 467.569,9.866 458.906,9.866 458.906,22.354 467.533,22.354 		"/>
		<polygon fill="#FFFFFF" points="463.383,15.037 463.383,17.219 469.858,17.219 469.858,19.733 474.744,16.114 469.858,12.499 
			469.858,14.965 		"/>
	</g>
</g>
</svg>
