<?xml version="1.0" encoding="utf-8"?>
<!-- Generator: Adobe Illustrator 16.0.0, SVG Export Plug-In . SVG Version: 6.00 Build 0)  -->
<!DOCTYPE svg PUBLIC "-//W3C//DTD SVG 1.1//EN" "http://www.w3.org/Graphics/SVG/1.1/DTD/svg11.dtd">
<svg version="1.1" id="Layer_1" xmlns="http://www.w3.org/2000/svg" xmlns:xlink="http://www.w3.org/1999/xlink" x="0px" y="0px"
	 width="481.009px" height="579.844px" viewBox="0 0 481.009 579.844" enable-background="new 0 0 481.009 579.844"
	 xml:space="preserve">
<g>
	<rect x="0" fill="#8EC14C" width="481.008" height="579.844"/>
	<g>
		<g>
			<path fill="#FFFFFF" d="M32.313,56.927v3.403c-1.192-0.746-2.509-1.491-4.223-1.491c-1.292,0-2.732,0.546-2.732,1.813
				c0,1.093,1.093,1.515,2.484,2.087l2.037,0.844c2.335,0.994,3.378,2.41,3.378,4.248c0,2.956-2.856,5.067-6.31,5.067
				c-1.938,0-3.801-0.795-5.142-1.739v-3.403c1.441,1.043,3.229,1.888,5.217,1.888c1.391,0,2.534-0.546,2.534-1.64
				c0-0.87-0.968-1.391-1.938-1.739l-2.559-0.994c-2.583-0.994-3.304-2.683-3.304-4.621c0-3.056,2.807-5.043,5.912-5.043
				C29.605,55.61,31.245,56.231,32.313,56.927z"/>
			<path fill="#FFFFFF" d="M51.341,55.934v16.644h-3.428V65.82h-7.726v6.757h-3.453V55.934h3.453v6.782h7.726v-6.782H51.341z"/>
			<path fill="#FFFFFF" d="M65.971,69.472h-6.583l-1.267,3.105h-4.049l7.75-16.768h1.714l7.75,16.768h-4.049L65.971,69.472z
				 M64.778,66.541l-2.086-5.092l-2.087,5.092H64.778z"/>
			<path fill="#FFFFFF" d="M83.682,72.577l-6.21-6.832v6.832h-3.453V55.934h6.757c3.105,0,6.285,1.714,6.285,5.391
				c0,2.882-2.36,4.596-5.068,4.819l6.235,6.434H83.682z M77.472,59.163v4.198c0.819,0.249,1.813,0.422,2.807,0.422
				c1.987,0,3.254-0.845,3.254-2.335c0-1.615-1.416-2.285-3.205-2.285L77.472,59.163z"/>
			<path fill="#FFFFFF" d="M94.412,58.915v3.776h7.353v2.807h-7.353v4.024h8.322v3.055H90.958V55.934h11.775v2.981H94.412z"/>
			<path fill="#FFFFFF" d="M122.406,66.292v6.285h-3.528v-6.111l-6.458-10.533h4.049l4.148,7.005l4.174-7.005h4.049L122.406,66.292z
				"/>
			<path fill="#FFFFFF" d="M146.873,64.255c0,5.142-3.925,8.694-8.694,8.694s-8.719-3.552-8.719-8.694s3.95-8.694,8.719-8.694
				S146.873,59.113,146.873,64.255z M132.987,64.255c0,3.105,2.211,5.416,5.192,5.416s5.167-2.31,5.167-5.416
				c0-3.105-2.186-5.44-5.167-5.44S132.987,61.15,132.987,64.255z"/>
			<path fill="#FFFFFF" d="M164.608,65.995c0,4.347-3.155,6.93-7.179,6.93c-4.024,0-7.204-2.583-7.204-6.93V55.884h3.453v9.912
				c0,2.534,1.516,3.826,3.751,3.801c2.235-0.025,3.751-1.267,3.751-3.801v-9.912h3.428V65.995z"/>
			<path fill="#FFFFFF" d="M178.99,72.577l-6.21-6.832v6.832h-3.453V55.934h6.757c3.105,0,6.285,1.714,6.285,5.391
				c0,2.882-2.36,4.596-5.068,4.819l6.235,6.434H178.99z M172.78,59.163v4.198c0.819,0.249,1.813,0.422,2.807,0.422
				c1.987,0,3.254-0.845,3.254-2.335c0-1.615-1.416-2.285-3.205-2.285L172.78,59.163z"/>
			<path fill="#FFFFFF" d="M197.172,69.472h8.322v3.105h-11.775V55.934h3.453V69.472z"/>
			<path fill="#FFFFFF" d="M215.677,59.039v10.433h2.807v3.105h-9.067v-3.105h2.807V59.039h-2.807v-3.105h9.067v3.105H215.677z"/>
			<path fill="#FFFFFF" d="M237.885,72.701h-1.267l-9.837-10.16v10.036h-3.453V55.81h1.267l9.837,10.309V55.934h3.453V72.701z"/>
			<path fill="#FFFFFF" d="M248.117,65.845l-1.813,2.037v4.695h-3.453V55.934h3.453v7.452l6.335-7.452h4.372l-6.533,7.278
				l7.278,9.365h-4.521L248.117,65.845z"/>
			<path fill="#FFFFFF" d="M283.54,72.577h-2.385l-3.701-10.707l-3.701,10.707h-2.385l-5.54-16.644h3.925l3.08,10.508l3.503-10.508
				h2.311l3.453,10.508l3.13-10.508h3.925L283.54,72.577z"/>
			<path fill="#FFFFFF" d="M298.021,59.039v10.433h2.807v3.105h-9.067v-3.105h2.808V59.039h-2.808v-3.105h9.067v3.105H298.021z"/>
			<path fill="#FFFFFF" d="M317.943,59.039h-5.316v13.464h-3.428V59.039h-5.316v-3.105h14.061V59.039z"/>
			<path fill="#FFFFFF" d="M335.704,55.934v16.644h-3.429V65.82h-7.726v6.757h-3.453V55.934h3.453v6.782h7.726v-6.782H335.704z"/>
			<path fill="#FFFFFF" d="M351.575,59.039v4.198h6.533v3.105h-6.533v6.235h-3.453V55.934h11.353v3.105H351.575z"/>
			<path fill="#FFFFFF" d="M373.56,72.577l-6.21-6.832v6.832h-3.453V55.934h6.757c3.104,0,6.284,1.714,6.284,5.391
				c0,2.882-2.359,4.596-5.067,4.819l6.235,6.434H373.56z M367.35,59.163v4.198c0.819,0.249,1.813,0.422,2.807,0.422
				c1.987,0,3.254-0.845,3.254-2.335c0-1.615-1.416-2.285-3.204-2.285L367.35,59.163z"/>
			<path fill="#FFFFFF" d="M386.973,59.039v10.433h2.807v3.105h-9.067v-3.105h2.808V59.039h-2.808v-3.105h9.067v3.105H386.973z"/>
			<path fill="#FFFFFF" d="M398.075,58.915v3.776h7.354v2.807h-7.354v4.024h8.322v3.055h-11.775V55.934h11.775v2.981H398.075z"/>
			<path fill="#FFFFFF" d="M425.425,72.701h-1.267l-9.837-10.16v10.036h-3.453V55.81h1.267l9.837,10.309V55.934h3.453V72.701z"/>
			<path fill="#FFFFFF" d="M445.644,64.156c0,4.918-3.254,8.744-8.619,8.744c-2.286,0-4.621-0.273-6.633-0.67V55.934h6.036
				C441.271,55.934,445.644,58.791,445.644,64.156z M433.845,59.163v10.21c0.993,0.199,2.136,0.273,3.08,0.273
				c3.428,0,5.191-2.26,5.191-5.366c0-3.329-2.583-5.117-5.813-5.117H433.845z"/>
			<path fill="#FFFFFF" d="M453.79,55.61c1.938,0,3.577,0.621,4.646,1.317v3.403c-1.192-0.746-2.509-1.491-4.223-1.491
				c-1.292,0-2.732,0.546-2.732,1.813c0,1.093,1.093,1.515,2.483,2.087l2.037,0.844c2.335,0.994,3.379,2.41,3.379,4.248
				c0,2.956-2.857,5.067-6.31,5.067c-1.938,0-3.801-0.795-5.143-1.739v-3.403c1.44,1.043,3.229,1.888,5.217,1.888
				c1.391,0,2.534-0.546,2.534-1.64c0-0.87-0.969-1.391-1.938-1.739l-2.559-0.994c-2.584-0.994-3.305-2.683-3.305-4.621
				C447.878,57.598,450.686,55.61,453.79,55.61L453.79,55.61z"/>
			<path fill="#FFFFFF" d="M101.541,99.994h-6.583l-1.267,3.105h-4.049l7.75-16.768h1.714l7.75,16.768h-4.049L101.541,99.994z
				 M100.348,97.063l-2.086-5.093l-2.087,5.093H100.348z"/>
			<path fill="#FFFFFF" d="M124.145,103.224h-1.267l-9.837-10.16V103.1h-3.453V86.332h1.267l9.837,10.31V86.456h3.453V103.224z"/>
			<path fill="#FFFFFF" d="M144.365,94.679c0,4.919-3.254,8.744-8.62,8.744c-2.285,0-4.621-0.273-6.632-0.671V86.456h6.036
				C139.993,86.456,144.365,89.313,144.365,94.679z M132.565,89.686v10.21c0.994,0.198,2.136,0.273,3.081,0.273
				c3.428,0,5.191-2.261,5.191-5.366c0-3.329-2.583-5.117-5.813-5.117H132.565z"/>
			<path fill="#FFFFFF" d="M171.464,94.778c0,5.142-3.925,8.694-8.694,8.694s-8.719-3.553-8.719-8.694
				c0-5.143,3.95-8.694,8.719-8.694S171.464,89.636,171.464,94.778z M157.578,94.778c0,3.104,2.211,5.415,5.192,5.415
				s5.167-2.311,5.167-5.415c0-3.105-2.186-5.44-5.167-5.44S157.578,91.673,157.578,94.778z"/>
			<path fill="#FFFFFF" d="M189.622,103.224h-1.267l-9.837-10.16V103.1h-3.453V86.332h1.267l9.837,10.31V86.456h3.453V103.224z"/>
			<path fill="#FFFFFF" d="M211.231,87.449v3.403c-1.192-0.745-2.509-1.49-4.223-1.49c-1.292,0-2.732,0.547-2.732,1.813
				c0,1.093,1.093,1.516,2.484,2.087l2.037,0.845c2.335,0.993,3.378,2.409,3.378,4.247c0,2.957-2.856,5.068-6.31,5.068
				c-1.938,0-3.801-0.795-5.142-1.739V98.28c1.441,1.043,3.229,1.888,5.217,1.888c1.391,0,2.534-0.546,2.534-1.64
				c0-0.869-0.969-1.391-1.938-1.738l-2.559-0.994c-2.583-0.993-3.304-2.683-3.304-4.62c0-3.056,2.807-5.043,5.912-5.043
				C208.523,86.133,210.163,86.754,211.231,87.449z"/>
			<path fill="#FFFFFF" d="M231.7,94.778c0,5.142-3.925,8.694-8.694,8.694s-8.719-3.553-8.719-8.694c0-5.143,3.95-8.694,8.719-8.694
				S231.7,89.636,231.7,94.778z M217.813,94.778c0,3.104,2.211,5.415,5.192,5.415s5.167-2.311,5.167-5.415
				c0-3.105-2.186-5.44-5.167-5.44S217.813,91.673,217.813,94.778z"/>
			<path fill="#FFFFFF" d="M247.423,87.698v3.478c-1.217-0.919-2.385-1.838-4.596-1.838c-2.981,0-5.366,2.335-5.366,5.44
				c0,3.104,2.385,5.415,5.366,5.415c2.211,0,3.602-0.795,4.844-1.764v3.354c-1.143,1.019-2.856,1.689-4.943,1.689
				c-4.769,0-8.793-3.553-8.793-8.694c0-5.143,4.024-8.694,8.793-8.694C244.814,86.084,246.28,86.705,247.423,87.698z"/>
			<path fill="#FFFFFF" d="M257.408,89.562v10.434h2.807v3.104h-9.067v-3.104h2.808V89.562h-2.808v-3.105h9.067v3.105H257.408z"/>
			<path fill="#FFFFFF" d="M274.722,99.994h-6.583l-1.267,3.105h-4.05l7.751-16.768h1.714l7.751,16.768h-4.05L274.722,99.994z
				 M273.529,97.063l-2.087-5.093l-2.087,5.093H273.529z"/>
			<path fill="#FFFFFF" d="M286.222,99.994h8.322v3.105h-11.775V86.456h3.453V99.994z"/>
			<path fill="#FFFFFF" d="M322.539,103.1h-3.453V92.667l-4.247,4.72h-1.019l-4.322-4.72V103.1h-3.453V86.332h1.515l6.757,7.179
				l6.708-7.179h1.515V103.1z"/>
			<path fill="#FFFFFF" d="M330.958,89.438v3.775h7.354v2.808h-7.354v4.023h8.322v3.056h-11.775V86.456h11.775v2.981H330.958z"/>
			<path fill="#FFFFFF" d="M359.003,94.679c0,4.919-3.254,8.744-8.619,8.744c-2.286,0-4.621-0.273-6.633-0.671V86.456h6.036
				C354.631,86.456,359.003,89.313,359.003,94.679z M347.204,89.686v10.21c0.993,0.198,2.136,0.273,3.08,0.273
				c3.428,0,5.191-2.261,5.191-5.366c0-3.329-2.583-5.117-5.813-5.117H347.204z"/>
			<path fill="#FFFFFF" d="M368.74,89.562v10.434h2.807v3.104h-9.067v-3.104h2.808V89.562h-2.808v-3.105h9.067v3.105H368.74z"/>
			<path fill="#FFFFFF" d="M386.054,99.994h-6.583l-1.267,3.105h-4.05l7.751-16.768h1.714l7.751,16.768h-4.05L386.054,99.994z
				 M384.861,97.063l-2.087-5.093l-2.087,5.093H384.861z"/>
		</g>
	</g>
	<g>
		<g>
			<path fill="#FFFFFF" d="M60.871,415.013h5.405v1.245h-6.724v-9.814h1.318V415.013z"/>
			<path fill="#FFFFFF" d="M74.889,413.064h-5.625c0.176,1.23,1.143,2.241,2.549,2.241c1.055,0,1.714-0.483,2.197-0.835v1.216
				c-0.293,0.293-1.055,0.791-2.197,0.791c-2.227,0-3.823-1.758-3.823-3.838s1.465-3.853,3.53-3.853c2.256,0,3.369,1.553,3.369,3.56
				V413.064z M73.703,412.039c-0.146-1.421-1.157-2.08-2.183-2.08c-1.201,0-2.021,0.923-2.227,2.08H73.703z"/>
			<path fill="#FFFFFF" d="M79.884,416.258h-0.747l-3.296-7.324h1.436l2.212,5.391l2.402-5.391h1.436L79.884,416.258z"/>
			<path fill="#FFFFFF" d="M91.032,413.064h-5.625c0.176,1.23,1.143,2.241,2.549,2.241c1.055,0,1.714-0.483,2.197-0.835v1.216
				c-0.293,0.293-1.055,0.791-2.197,0.791c-2.227,0-3.823-1.758-3.823-3.838s1.465-3.853,3.53-3.853c2.256,0,3.369,1.553,3.369,3.56
				V413.064z M89.845,412.039c-0.146-1.421-1.157-2.08-2.183-2.08c-1.201,0-2.021,0.923-2.227,2.08H89.845z"/>
			<path fill="#FFFFFF" d="M94.21,416.258h-1.201v-10.547h1.201V416.258z"/>
			<path fill="#FFFFFF" d="M107.438,416.258l-4.658-4.131v4.131h-1.318v-9.814h3.765c1.685,0,3.413,0.923,3.413,2.944
				c0,1.831-1.787,2.798-3.486,2.798c-0.132,0-0.293,0-0.483-0.015l4.79,4.087H107.438z M102.78,407.688v3.149
				c0.645,0.176,1.436,0.278,2.183,0.278c1.479,0,2.329-0.674,2.329-1.729c0-1.099-1.025-1.699-2.285-1.699H102.78z"/>
			<path fill="#FFFFFF" d="M116.798,413.064h-5.625c0.176,1.23,1.143,2.241,2.549,2.241c1.055,0,1.714-0.483,2.197-0.835v1.216
				c-0.293,0.293-1.055,0.791-2.197,0.791c-2.227,0-3.823-1.758-3.823-3.838s1.465-3.853,3.53-3.853c2.256,0,3.369,1.553,3.369,3.56
				V413.064z M115.612,412.039c-0.146-1.421-1.157-2.08-2.183-2.08c-1.201,0-2.021,0.923-2.227,2.08H115.612z"/>
			<path fill="#FFFFFF" d="M125.822,416.258h-0.747l-2.007-5.171l-2.007,5.171h-0.747l-2.563-7.324h1.436l1.626,5.142l1.919-5.142
				h0.674l1.919,5.142l1.626-5.142h1.436L125.822,416.258z"/>
			<path fill="#FFFFFF" d="M135.27,409.915v-0.981h1.201v7.324h-1.201v-1.244c-0.513,0.775-1.406,1.464-2.52,1.464
				c-1.89,0-3.413-1.538-3.413-3.765c0-2.417,1.523-3.926,3.53-3.926C133.703,408.787,134.64,409.212,135.27,409.915z
				 M130.583,412.713c0,1.421,0.938,2.593,2.358,2.593c1.333,0,2.344-1.157,2.329-2.725l-0.015-1.406
				c-0.615-0.762-1.274-1.216-2.168-1.216C131.52,409.959,130.583,411.292,130.583,412.713z"/>
			<path fill="#FFFFFF" d="M143.312,408.992v1.436c-0.308-0.234-0.688-0.381-1.069-0.381c-0.996,0-1.538,0.806-2.08,1.787v4.424
				h-1.201v-7.324h1.201v1.465c0.557-0.967,1.421-1.611,2.256-1.611C142.755,408.787,143.048,408.86,143.312,408.992z"/>
			<path fill="#FFFFFF" d="M151.471,416.258h-1.201v-1.244c-0.513,0.775-1.406,1.464-2.52,1.464c-1.89,0-3.413-1.538-3.413-3.765
				c0-2.417,1.523-3.926,3.53-3.926c0.835,0,1.772,0.425,2.402,1.128v-4.204h1.201V416.258z M145.583,412.713
				c0,1.422,0.938,2.594,2.358,2.594c1.333,0,2.344-1.158,2.329-2.725l-0.015-1.406c-0.615-0.762-1.274-1.188-2.168-1.188
				C146.52,409.988,145.583,411.293,145.583,412.713z"/>
			<path fill="#FFFFFF" d="M158.151,409.344v1.289c-0.41-0.308-1.187-0.674-1.919-0.674c-0.923,0-1.377,0.527-1.377,0.996
				c0,0.366,0.22,0.791,0.894,1.025l1.23,0.439c0.952,0.337,1.421,0.981,1.421,1.816c0,1.245-1.128,2.241-2.695,2.241
				c-0.864,0-1.919-0.396-2.256-0.645v-1.289c0.41,0.308,1.436,0.762,2.168,0.762c0.923,0,1.494-0.454,1.494-1.069
				c0-0.469-0.366-0.703-1.055-0.952l-1.084-0.396c-1.143-0.425-1.406-1.099-1.406-1.934c0-1.245,1.011-2.168,2.578-2.168
				C157.008,408.787,157.814,409.095,158.151,409.344z"/>
			<path fill="#FFFFFF" d="M166.544,408.934v7.324h-1.201v-6.196h-1.157v-1.128H166.544z M164.801,406.414
				c0-0.527,0.425-0.996,0.996-0.996c0.557,0,0.996,0.469,0.996,0.996c0,0.513-0.439,0.996-0.996,0.996
				C165.226,407.41,164.801,406.927,164.801,406.414z"/>
			<path fill="#FFFFFF" d="M173.327,409.344v1.289c-0.41-0.308-1.187-0.674-1.919-0.674c-0.923,0-1.377,0.527-1.377,0.996
				c0,0.366,0.22,0.791,0.894,1.025l1.23,0.439c0.952,0.337,1.421,0.981,1.421,1.816c0,1.245-1.128,2.241-2.695,2.241
				c-0.864,0-1.919-0.396-2.256-0.645v-1.289c0.41,0.308,1.436,0.762,2.168,0.762c0.923,0,1.494-0.454,1.494-1.069
				c0-0.469-0.366-0.703-1.055-0.952l-1.084-0.396c-1.143-0.425-1.406-1.099-1.406-1.934c0-1.245,1.011-2.168,2.578-2.168
				C172.184,408.787,172.99,409.095,173.327,409.344z"/>
			<path fill="#FFFFFF" d="M185.221,409.915v-0.981h1.201v7.324h-1.201v-1.244c-0.513,0.775-1.406,1.464-2.52,1.464
				c-1.89,0-3.413-1.538-3.413-3.765c0-2.417,1.523-3.926,3.53-3.926C183.654,408.787,184.591,409.212,185.221,409.915z
				 M180.534,412.713c0,1.421,0.938,2.593,2.358,2.593c1.333,0,2.344-1.157,2.329-2.725l-0.015-1.406
				c-0.615-0.762-1.274-1.216-2.168-1.216C181.471,409.959,180.534,411.292,180.534,412.713z"/>
			<path fill="#FFFFFF" d="M195.211,411.79v4.468h-1.201l-0.015-4.35c0-1.26-0.542-1.949-1.699-1.949
				c-0.776,0-1.597,0.674-2.183,1.436v4.863h-1.201v-7.324h1.201v1.157c0.454-0.571,1.392-1.304,2.388-1.304
				C193.996,408.787,195.211,409.769,195.211,411.79z"/>
			<path fill="#FFFFFF" d="M206.227,408.992v1.436c-0.308-0.234-0.688-0.381-1.069-0.381c-0.996,0-1.538,0.806-2.08,1.787v4.424
				h-1.201v-7.324h1.201v1.465c0.557-0.967,1.421-1.611,2.256-1.611C205.67,408.787,205.963,408.86,206.227,408.992z"/>
			<path fill="#FFFFFF" d="M214.152,413.064h-5.625c0.176,1.23,1.143,2.241,2.549,2.241c1.055,0,1.714-0.483,2.197-0.835v1.216
				c-0.293,0.293-1.055,0.791-2.197,0.791c-2.227,0-3.823-1.758-3.823-3.838s1.465-3.853,3.53-3.853c2.256,0,3.369,1.553,3.369,3.56
				V413.064z M212.965,412.039c-0.146-1.421-1.157-2.08-2.183-2.08c-1.201,0-2.021,0.923-2.227,2.08H212.965z"/>
			<path fill="#FFFFFF" d="M217.785,408.128v0.806h2.139v1.128h-2.139v6.196h-1.201v-6.196h-1.157v-1.128h1.157v-0.938
				c0-1.714,1.172-2.505,2.271-2.505c0.498,0,0.923,0.146,1.216,0.396v1.055c-0.293-0.19-0.732-0.322-1.143-0.308
				C218.209,406.663,217.785,407.044,217.785,408.128z"/>
			<path fill="#FFFFFF" d="M227.907,413.064h-5.625c0.176,1.23,1.143,2.241,2.549,2.241c1.055,0,1.714-0.483,2.197-0.835v1.216
				c-0.293,0.293-1.055,0.791-2.197,0.791c-2.227,0-3.823-1.758-3.823-3.838s1.465-3.853,3.53-3.853c2.256,0,3.369,1.553,3.369,3.56
				V413.064z M226.72,412.039c-0.146-1.421-1.157-2.08-2.183-2.08c-1.201,0-2.021,0.923-2.227,2.08H226.72z"/>
			<path fill="#FFFFFF" d="M234.235,408.992v1.436c-0.308-0.234-0.688-0.381-1.069-0.381c-0.996,0-1.538,0.806-2.08,1.787v4.424
				h-1.201v-7.324h1.201v1.465c0.557-0.967,1.421-1.611,2.256-1.611C233.678,408.787,233.971,408.86,234.235,408.992z"/>
			<path fill="#FFFFFF" d="M240.124,408.992v1.436c-0.308-0.234-0.688-0.381-1.069-0.381c-0.996,0-1.538,0.806-2.08,1.787v4.424
				h-1.201v-7.324h1.201v1.465c0.557-0.967,1.421-1.611,2.256-1.611C239.567,408.787,239.86,408.86,240.124,408.992z"/>
			<path fill="#FFFFFF" d="M247.082,409.915v-0.981h1.201v7.324h-1.201v-1.244c-0.513,0.775-1.406,1.464-2.52,1.464
				c-1.89,0-3.413-1.538-3.413-3.765c0-2.417,1.523-3.926,3.53-3.926C245.514,408.787,246.452,409.212,247.082,409.915z
				 M242.394,412.713c0,1.421,0.938,2.593,2.358,2.593c1.333,0,2.344-1.157,2.329-2.725l-0.015-1.406
				c-0.615-0.762-1.274-1.216-2.168-1.216C243.332,409.959,242.394,411.292,242.394,412.713z"/>
			<path fill="#FFFFFF" d="M251.974,416.258h-1.201v-10.547h1.201V416.258z"/>
			<path fill="#FFFFFF" d="M260.778,408.934v7.324h-1.201v-6.196h-1.157v-1.128H260.778z M259.035,406.414
				c0-0.527,0.425-0.996,0.996-0.996c0.557,0,0.996,0.469,0.996,0.996c0,0.513-0.439,0.996-0.996,0.996
				C259.459,407.41,259.035,406.927,259.035,406.414z"/>
			<path fill="#FFFFFF" d="M269.669,411.79v4.468h-1.201l-0.015-4.35c0-1.26-0.542-1.949-1.699-1.949
				c-0.776,0-1.597,0.674-2.183,1.436v4.863h-1.201v-7.324h1.201v1.157c0.454-0.571,1.392-1.304,2.388-1.304
				C268.454,408.787,269.669,409.769,269.669,411.79z"/>
			<path fill="#FFFFFF" d="M277.448,409.505v1.216c-0.557-0.41-1.216-0.762-2.197-0.762c-1.567,0-2.578,1.26-2.578,2.681
				s1.011,2.666,2.578,2.666c0.981,0,1.641-0.352,2.197-0.762v1.216c-0.293,0.293-1.128,0.718-2.197,0.718
				c-2.227,0-3.823-1.758-3.823-3.838s1.597-3.853,3.823-3.853C276.32,408.787,277.155,409.227,277.448,409.505z"/>
			<path fill="#FFFFFF" d="M285.812,413.064h-5.625c0.176,1.23,1.143,2.241,2.549,2.241c1.055,0,1.714-0.483,2.197-0.835v1.216
				c-0.293,0.293-1.055,0.791-2.197,0.791c-2.227,0-3.823-1.758-3.823-3.838s1.465-3.853,3.53-3.853c2.256,0,3.369,1.553,3.369,3.56
				V413.064z M284.625,412.039c-0.146-1.421-1.157-2.08-2.183-2.08c-1.201,0-2.021,0.923-2.227,2.08H284.625z"/>
			<path fill="#FFFFFF" d="M294.088,411.79v4.468h-1.201l-0.015-4.35c0-1.26-0.542-1.949-1.699-1.949
				c-0.776,0-1.597,0.674-2.183,1.436v4.863h-1.201v-7.324h1.201v1.157c0.454-0.571,1.392-1.304,2.388-1.304
				C292.873,408.787,294.088,409.769,294.088,411.79z"/>
			<path fill="#FFFFFF" d="M298.38,408.934h2.139v1.128h-2.139v4.292c0,0.615,0.308,0.981,0.952,0.981
				c0.586,0,0.952-0.176,1.245-0.352v0.981c-0.396,0.308-0.776,0.513-1.509,0.513c-1.245,0-1.89-0.82-1.89-2.065v-4.351h-1.406
				v-0.352c0.952-0.425,1.567-1.436,2.051-2.886h0.557V408.934z"/>
			<path fill="#FFFFFF" d="M304.621,408.934v7.324h-1.201v-6.196h-1.157v-1.128H304.621z M302.877,406.414
				c0-0.527,0.425-0.996,0.996-0.996c0.557,0,0.996,0.469,0.996,0.996c0,0.513-0.439,0.996-0.996,0.996
				C303.302,407.41,302.877,406.927,302.877,406.414z"/>
			<path fill="#FFFFFF" d="M310.231,416.258h-0.747l-3.296-7.324h1.436l2.212,5.391l2.402-5.391h1.436L310.231,416.258z"/>
			<path fill="#FFFFFF" d="M321.378,413.064h-5.625c0.176,1.23,1.143,2.241,2.549,2.241c1.055,0,1.714-0.483,2.197-0.835v1.216
				c-0.293,0.293-1.055,0.791-2.197,0.791c-2.227,0-3.823-1.758-3.823-3.838s1.465-3.853,3.53-3.853c2.256,0,3.369,1.553,3.369,3.56
				V413.064z M320.192,412.039c-0.146-1.421-1.157-2.08-2.183-2.08c-1.201,0-2.021,0.923-2.227,2.08H320.192z"/>
			<path fill="#FFFFFF" d="M334.884,412.479c0,2.417-1.523,3.999-3.53,3.999c-0.835,0-1.772-0.498-2.402-1.201v4.497h-1.201v-10.84
				h1.201v1.245c0.513-0.776,1.406-1.392,2.52-1.392C333.361,408.787,334.884,410.252,334.884,412.479z M328.952,412.61l0.015,1.406
				c0.615,0.762,1.274,1.289,2.168,1.289c1.567,0,2.505-1.406,2.505-2.827s-0.938-2.52-2.358-2.52
				C329.948,409.959,328.937,411.043,328.952,412.61z"/>
			<path fill="#FFFFFF" d="M341.212,408.992v1.436c-0.308-0.234-0.688-0.381-1.069-0.381c-0.996,0-1.538,0.806-2.08,1.787v4.424
				h-1.201v-7.324h1.201v1.465c0.557-0.967,1.421-1.611,2.256-1.611C340.656,408.787,340.949,408.86,341.212,408.992z"/>
			<path fill="#FFFFFF" d="M349.884,412.64c0,2.08-1.597,3.838-3.823,3.838s-3.823-1.758-3.823-3.838s1.597-3.853,3.823-3.853
				S349.884,410.56,349.884,412.64z M343.483,412.64c0,1.421,1.011,2.666,2.578,2.666s2.578-1.245,2.578-2.666
				s-1.011-2.681-2.578-2.681S343.483,411.219,343.483,412.64z"/>
			<path fill="#FFFFFF" d="M357.282,409.916v-0.982h1.201v7.178c0,2.622-1.772,3.882-3.853,3.882c-1.362,0-2.168-0.469-2.681-0.791
				v-1.289c0.41,0.234,1.406,0.908,2.681,0.908c1.421,0,2.651-0.82,2.651-2.271v-1.537c-0.513,0.775-1.406,1.464-2.52,1.464
				c-1.89,0-3.413-1.538-3.413-3.765c0-2.417,1.523-3.926,3.53-3.926C355.714,408.787,356.652,409.213,357.282,409.916z
				 M352.594,412.713c0,1.422,0.938,2.578,2.358,2.578c1.333,0,2.344-1.143,2.329-2.709l-0.015-1.406
				c-0.615-0.762-1.274-1.201-2.168-1.201C353.532,409.975,352.594,411.293,352.594,412.713z"/>
			<path fill="#FFFFFF" d="M365.324,408.992v1.436c-0.308-0.234-0.688-0.381-1.069-0.381c-0.996,0-1.538,0.806-2.08,1.787v4.424
				h-1.201v-7.324h1.201v1.465c0.557-0.967,1.421-1.611,2.256-1.611C364.767,408.787,365.06,408.86,365.324,408.992z"/>
			<path fill="#FFFFFF" d="M372.282,409.915v-0.981h1.201v7.324h-1.201v-1.244c-0.513,0.775-1.406,1.464-2.52,1.464
				c-1.89,0-3.413-1.538-3.413-3.765c0-2.417,1.523-3.926,3.53-3.926C370.714,408.787,371.652,409.212,372.282,409.915z
				 M367.594,412.713c0,1.421,0.938,2.593,2.358,2.593c1.333,0,2.344-1.157,2.329-2.725l-0.015-1.406
				c-0.615-0.762-1.274-1.216-2.168-1.216C368.532,409.959,367.594,411.292,367.594,412.713z"/>
			<path fill="#FFFFFF" d="M387.282,411.79v4.468h-1.201l-0.015-4.351c0-1.26-0.688-1.948-1.846-1.948
				c-0.85,0-1.436,0.615-1.992,1.318v4.98h-1.201l-0.015-4.351c0-1.26-0.688-1.948-1.846-1.948c-0.806,0-1.45,0.542-1.992,1.201
				v5.098h-1.201v-7.324h1.201v0.938c0.469-0.527,1.201-1.084,2.197-1.084c1.055,0,2.036,0.498,2.534,1.494
				c0.688-0.806,1.436-1.494,2.52-1.494C385.919,408.787,387.282,409.769,387.282,411.79z"/>
			<path fill="#FFFFFF" d="M395.968,408.934h2.139v1.128h-2.139v4.292c0,0.615,0.308,0.981,0.952,0.981
				c0.586,0,0.952-0.176,1.245-0.352v0.981c-0.396,0.308-0.776,0.513-1.509,0.513c-1.245,0-1.89-0.82-1.89-2.065v-4.351h-1.406
				v-0.352c0.952-0.425,1.567-1.436,2.051-2.886h0.557V408.934z"/>
			<path fill="#FFFFFF" d="M406.588,411.79v4.468h-1.201l-0.015-4.351c0-1.26-0.542-1.948-1.699-1.948
				c-0.776,0-1.597,0.674-2.183,1.436v4.863h-1.201v-10.547h1.201v4.38c0.454-0.571,1.392-1.304,2.388-1.304
				C405.373,408.787,406.588,409.769,406.588,411.79z"/>
			<path fill="#FFFFFF" d="M414.279,409.915v-0.981h1.201v7.324h-1.201v-1.244c-0.513,0.775-1.406,1.464-2.52,1.464
				c-1.89,0-3.413-1.538-3.413-3.765c0-2.417,1.523-3.926,3.53-3.926C412.711,408.787,413.649,409.212,414.279,409.915z
				 M409.591,412.713c0,1.421,0.938,2.593,2.358,2.593c1.333,0,2.344-1.157,2.329-2.725l-0.015-1.406
				c-0.615-0.762-1.274-1.216-2.168-1.216C410.529,409.959,409.591,411.292,409.591,412.713z"/>
			<path fill="#FFFFFF" d="M419.992,408.934h2.139v1.128h-2.139v4.292c0,0.615,0.308,0.981,0.952,0.981
				c0.586,0,0.952-0.176,1.245-0.352v0.981c-0.396,0.308-0.776,0.513-1.509,0.513c-1.245,0-1.89-0.82-1.89-2.065v-4.351h-1.406
				v-0.352c0.952-0.425,1.567-1.436,2.051-2.886h0.557V408.934z"/>
			<path fill="#FFFFFF" d="M28.747,426.934v7.324h-1.201v-6.196h-1.157v-1.128H28.747z M27.003,424.414
				c0-0.527,0.425-0.996,0.996-0.996c0.557,0,0.996,0.469,0.996,0.996c0,0.513-0.439,0.996-0.996,0.996
				C27.428,425.41,27.003,424.927,27.003,424.414z"/>
			<path fill="#FFFFFF" d="M37.638,429.79v4.468h-1.201l-0.015-4.351c0-1.26-0.542-1.948-1.699-1.948
				c-0.776,0-1.597,0.674-2.183,1.436v4.863h-1.201v-7.324h1.201v1.157c0.454-0.571,1.392-1.304,2.388-1.304
				C36.422,426.787,37.638,427.769,37.638,429.79z"/>
			<path fill="#FFFFFF" d="M45.417,427.505v1.216c-0.557-0.41-1.216-0.762-2.197-0.762c-1.567,0-2.578,1.26-2.578,2.681
				s1.011,2.666,2.578,2.666c0.981,0,1.641-0.352,2.197-0.762v1.216c-0.293,0.293-1.128,0.718-2.197,0.718
				c-2.227,0-3.823-1.758-3.823-3.838s1.597-3.853,3.823-3.853C44.289,426.787,45.124,427.227,45.417,427.505z"/>
			<path fill="#FFFFFF" d="M53.781,431.064h-5.625c0.176,1.23,1.143,2.241,2.549,2.241c1.055,0,1.714-0.483,2.197-0.835v1.216
				c-0.293,0.293-1.055,0.791-2.197,0.791c-2.227,0-3.823-1.758-3.823-3.838s1.465-3.853,3.53-3.853c2.256,0,3.369,1.553,3.369,3.56
				V431.064z M52.594,430.039c-0.146-1.421-1.157-2.08-2.183-2.08c-1.201,0-2.021,0.923-2.227,2.08H52.594z"/>
			<path fill="#FFFFFF" d="M62.057,429.79v4.468h-1.201l-0.015-4.351c0-1.26-0.542-1.948-1.699-1.948
				c-0.776,0-1.597,0.674-2.183,1.436v4.863h-1.201v-7.324h1.201v1.157c0.454-0.571,1.392-1.304,2.388-1.304
				C60.841,426.787,62.057,427.769,62.057,429.79z"/>
			<path fill="#FFFFFF" d="M66.349,426.934h2.139v1.128h-2.139v4.292c0,0.615,0.308,0.981,0.952,0.981
				c0.586,0,0.952-0.176,1.245-0.352v0.981c-0.396,0.308-0.776,0.513-1.509,0.513c-1.245,0-1.89-0.82-1.89-2.065v-4.351h-1.406
				v-0.352c0.952-0.425,1.567-1.436,2.051-2.886h0.557V426.934z"/>
			<path fill="#FFFFFF" d="M72.589,426.934v7.324h-1.201v-6.196h-1.157v-1.128H72.589z M70.846,424.414
				c0-0.527,0.425-0.996,0.996-0.996c0.557,0,0.996,0.469,0.996,0.996c0,0.513-0.439,0.996-0.996,0.996
				C71.271,425.41,70.846,424.927,70.846,424.414z"/>
			<path fill="#FFFFFF" d="M78.2,434.258h-0.747l-3.296-7.324h1.436l2.212,5.391l2.402-5.391h1.436L78.2,434.258z"/>
			<path fill="#FFFFFF" d="M85.026,426.934v7.324h-1.201v-6.196h-1.157v-1.128H85.026z M83.283,424.414
				c0-0.527,0.425-0.996,0.996-0.996c0.557,0,0.996,0.469,0.996,0.996c0,0.513-0.439,0.996-0.996,0.996
				C83.708,425.41,83.283,424.927,83.283,424.414z"/>
			<path fill="#FFFFFF" d="M93.463,427.329l-4.409,5.801h4.556v1.128h-6.431v-0.396l4.263-5.801h-3.97v-1.128h5.991V427.329z"/>
			<path fill="#FFFFFF" d="M102.047,431.064h-5.625c0.176,1.23,1.143,2.241,2.549,2.241c1.055,0,1.714-0.483,2.197-0.835v1.216
				c-0.293,0.293-1.055,0.791-2.197,0.791c-2.227,0-3.823-1.758-3.823-3.838s1.465-3.853,3.53-3.853c2.256,0,3.369,1.553,3.369,3.56
				V431.064z M100.861,430.039c-0.146-1.421-1.157-2.08-2.183-2.08c-1.201,0-2.021,0.923-2.227,2.08H100.861z"/>
			<path fill="#FFFFFF" d="M108.214,427.344v1.289c-0.41-0.308-1.187-0.674-1.919-0.674c-0.923,0-1.377,0.527-1.377,0.996
				c0,0.366,0.22,0.791,0.894,1.025l1.23,0.439c0.952,0.337,1.421,0.981,1.421,1.816c0,1.245-1.128,2.241-2.695,2.241
				c-0.864,0-1.919-0.396-2.256-0.645v-1.289c0.41,0.308,1.436,0.762,2.168,0.762c0.923,0,1.494-0.454,1.494-1.069
				c0-0.469-0.366-0.703-1.055-0.952l-1.084-0.396c-1.143-0.425-1.406-1.099-1.406-1.934c0-1.245,1.011-2.168,2.578-2.168
				C107.072,426.787,107.877,427.095,108.214,427.344z"/>
			<path fill="#FFFFFF" d="M120.68,431.27c0,1.934-1.348,3.135-3.105,3.135s-3.105-1.201-3.105-3.135v-4.336h1.245v4.336
				c0,1.274,0.879,1.963,1.86,1.963s1.86-0.688,1.86-1.963v-4.336h1.245V431.27z"/>
			<path fill="#FFFFFF" d="M127.14,427.344v1.289c-0.41-0.308-1.187-0.674-1.919-0.674c-0.923,0-1.377,0.527-1.377,0.996
				c0,0.366,0.22,0.791,0.894,1.025l1.23,0.439c0.952,0.337,1.421,0.981,1.421,1.816c0,1.245-1.128,2.241-2.695,2.241
				c-0.864,0-1.919-0.396-2.256-0.645v-1.289c0.41,0.308,1.436,0.762,2.168,0.762c0.923,0,1.494-0.454,1.494-1.069
				c0-0.469-0.366-0.703-1.055-0.952l-1.084-0.396c-1.143-0.425-1.406-1.099-1.406-1.934c0-1.245,1.011-2.168,2.578-2.168
				C125.998,426.787,126.803,427.095,127.14,427.344z"/>
			<path fill="#FFFFFF" d="M135.607,431.064h-5.625c0.176,1.23,1.143,2.241,2.549,2.241c1.055,0,1.714-0.483,2.197-0.835v1.216
				c-0.293,0.293-1.055,0.791-2.197,0.791c-2.227,0-3.823-1.758-3.823-3.838s1.465-3.853,3.53-3.853c2.256,0,3.369,1.553,3.369,3.56
				V431.064z M134.42,430.039c-0.146-1.421-1.157-2.08-2.183-2.08c-1.201,0-2.021,0.923-2.227,2.08H134.42z"/>
			<path fill="#FFFFFF" d="M141.935,426.992v1.436c-0.308-0.234-0.688-0.381-1.069-0.381c-0.996,0-1.538,0.806-2.08,1.787v4.424
				h-1.201v-7.324h1.201v1.465c0.557-0.967,1.421-1.611,2.256-1.611C141.378,426.787,141.671,426.86,141.935,426.992z"/>
			<path fill="#FFFFFF" d="M147.663,427.344v1.289c-0.41-0.308-1.187-0.674-1.919-0.674c-0.923,0-1.377,0.527-1.377,0.996
				c0,0.366,0.22,0.791,0.894,1.025l1.23,0.439c0.952,0.337,1.421,0.981,1.421,1.816c0,1.245-1.128,2.241-2.695,2.241
				c-0.864,0-1.919-0.396-2.256-0.645v-1.289c0.41,0.308,1.436,0.762,2.168,0.762c0.923,0,1.494-0.454,1.494-1.069
				c0-0.469-0.366-0.703-1.055-0.952l-1.084-0.396c-1.143-0.425-1.406-1.099-1.406-1.934c0-1.245,1.011-2.168,2.578-2.168
				C146.52,426.787,147.326,427.095,147.663,427.344z"/>
			<path fill="#FFFFFF" d="M156.159,426.934h2.139v1.128h-2.139v4.292c0,0.615,0.308,0.981,0.952,0.981
				c0.586,0,0.952-0.176,1.245-0.352v0.981c-0.396,0.308-0.776,0.513-1.509,0.513c-1.245,0-1.89-0.82-1.89-2.065v-4.351h-1.406
				v-0.352c0.952-0.425,1.567-1.436,2.051-2.886h0.557V426.934z"/>
			<path fill="#FFFFFF" d="M167.614,430.64c0,2.08-1.597,3.838-3.823,3.838s-3.823-1.758-3.823-3.838s1.597-3.853,3.823-3.853
				S167.614,428.56,167.614,430.64z M161.212,430.64c0,1.421,1.011,2.666,2.578,2.666s2.578-1.245,2.578-2.666
				s-1.011-2.681-2.578-2.681S161.212,429.219,161.212,430.64z"/>
			<path fill="#FFFFFF" d="M179.494,427.505v1.216c-0.557-0.41-1.216-0.762-2.197-0.762c-1.567,0-2.578,1.26-2.578,2.681
				s1.011,2.666,2.578,2.666c0.981,0,1.641-0.352,2.197-0.762v1.216c-0.293,0.293-1.128,0.718-2.197,0.718
				c-2.227,0-3.823-1.758-3.823-3.838s1.597-3.853,3.823-3.853C178.366,426.787,179.201,427.227,179.494,427.505z"/>
			<path fill="#FFFFFF" d="M188.605,430.64c0,2.08-1.597,3.838-3.823,3.838s-3.823-1.758-3.823-3.838s1.597-3.853,3.823-3.853
				S188.605,428.56,188.605,430.64z M182.204,430.64c0,1.421,1.011,2.666,2.578,2.666s2.578-1.245,2.578-2.666
				s-1.011-2.681-2.578-2.681S182.204,429.219,182.204,430.64z"/>
			<path fill="#FFFFFF" d="M201.891,429.79v4.468h-1.201l-0.015-4.351c0-1.26-0.688-1.948-1.846-1.948
				c-0.85,0-1.436,0.615-1.992,1.318v4.98h-1.201l-0.015-4.351c0-1.26-0.688-1.948-1.846-1.948c-0.806,0-1.45,0.542-1.992,1.201
				v5.098h-1.201v-7.324h1.201v0.938c0.469-0.527,1.201-1.084,2.197-1.084c1.055,0,2.036,0.498,2.534,1.494
				c0.688-0.806,1.436-1.494,2.52-1.494C200.529,426.787,201.891,427.769,201.891,429.79z"/>
			<path fill="#FFFFFF" d="M211.295,430.479c0,2.417-1.523,3.999-3.53,3.999c-0.835,0-1.772-0.498-2.402-1.201v4.497h-1.201v-10.84
				h1.201v1.245c0.513-0.776,1.406-1.392,2.52-1.392C209.772,426.787,211.295,428.252,211.295,430.479z M205.363,430.61l0.015,1.406
				c0.615,0.762,1.274,1.289,2.168,1.289c1.567,0,2.505-1.406,2.505-2.827s-0.938-2.52-2.358-2.52
				C206.359,427.959,205.348,429.043,205.363,430.61z"/>
			<path fill="#FFFFFF" d="M214.474,434.258h-1.201v-10.547h1.201V434.258z"/>
			<path fill="#FFFFFF" d="M223.351,431.064h-5.625c0.176,1.23,1.143,2.241,2.549,2.241c1.055,0,1.714-0.483,2.197-0.835v1.216
				c-0.293,0.293-1.055,0.791-2.197,0.791c-2.227,0-3.823-1.758-3.823-3.838s1.465-3.853,3.53-3.853c2.256,0,3.369,1.553,3.369,3.56
				V431.064z M222.165,430.039c-0.146-1.421-1.157-2.08-2.183-2.08c-1.201,0-2.021,0.923-2.227,2.08H222.165z"/>
			<path fill="#FFFFFF" d="M227.35,426.934h2.139v1.128h-2.139v4.292c0,0.615,0.308,0.981,0.952,0.981
				c0.586,0,0.952-0.176,1.245-0.352v0.981c-0.396,0.308-0.776,0.513-1.509,0.513c-1.245,0-1.89-0.82-1.89-2.065v-4.351h-1.406
				v-0.352c0.952-0.425,1.567-1.436,2.051-2.886h0.557V426.934z"/>
			<path fill="#FFFFFF" d="M238.058,431.064h-5.625c0.176,1.23,1.143,2.241,2.549,2.241c1.055,0,1.714-0.483,2.197-0.835v1.216
				c-0.293,0.293-1.055,0.791-2.197,0.791c-2.227,0-3.823-1.758-3.823-3.838s1.465-3.853,3.53-3.853c2.256,0,3.369,1.553,3.369,3.56
				V431.064z M236.872,430.039c-0.146-1.421-1.157-2.08-2.183-2.08c-1.201,0-2.021,0.923-2.227,2.08H236.872z"/>
			<path fill="#FFFFFF" d="M251.564,430.64c0,2.08-1.597,3.838-3.823,3.838s-3.823-1.758-3.823-3.838s1.597-3.853,3.823-3.853
				S251.564,428.56,251.564,430.64z M245.163,430.64c0,1.421,1.011,2.666,2.578,2.666s2.578-1.245,2.578-2.666
				s-1.011-2.681-2.578-2.681S245.163,429.219,245.163,430.64z"/>
			<path fill="#FFFFFF" d="M255.197,426.128v0.806h2.139v1.128h-2.139v6.196h-1.201v-6.196h-1.157v-1.128h1.157v-0.938
				c0-1.714,1.172-2.505,2.271-2.505c0.498,0,0.923,0.146,1.216,0.396v1.055c-0.293-0.19-0.732-0.322-1.143-0.308
				C255.622,424.663,255.197,425.044,255.197,426.128z"/>
			<path fill="#FFFFFF" d="M260.587,426.128v0.806h2.139v1.128h-2.139v6.196h-1.201v-6.196h-1.157v-1.128h1.157v-0.938
				c0-1.714,1.172-2.505,2.271-2.505c0.498,0,0.923,0.146,1.216,0.396v1.055c-0.293-0.19-0.732-0.322-1.143-0.308
				C261.012,424.663,260.587,425.044,260.587,426.128z"/>
			<path fill="#FFFFFF" d="M270.709,431.064h-5.625c0.176,1.23,1.143,2.241,2.549,2.241c1.055,0,1.714-0.483,2.197-0.835v1.216
				c-0.293,0.293-1.055,0.791-2.197,0.791c-2.227,0-3.823-1.758-3.823-3.838s1.465-3.853,3.53-3.853c2.256,0,3.369,1.553,3.369,3.56
				V431.064z M269.523,430.039c-0.146-1.421-1.157-2.08-2.183-2.08c-1.201,0-2.021,0.923-2.227,2.08H269.523z"/>
			<path fill="#FFFFFF" d="M277.038,426.992v1.436c-0.308-0.234-0.688-0.381-1.069-0.381c-0.996,0-1.538,0.806-2.08,1.787v4.424
				h-1.201v-7.324h1.201v1.465c0.557-0.967,1.421-1.611,2.256-1.611C276.481,426.787,276.774,426.86,277.038,426.992z"/>
			<path fill="#FFFFFF" d="M282.765,427.344v1.289c-0.41-0.308-1.187-0.674-1.919-0.674c-0.923,0-1.377,0.527-1.377,0.996
				c0,0.366,0.22,0.791,0.894,1.025l1.23,0.439c0.952,0.337,1.421,0.981,1.421,1.816c0,1.245-1.128,2.241-2.695,2.241
				c-0.864,0-1.919-0.396-2.256-0.645v-1.289c0.41,0.308,1.436,0.762,2.168,0.762c0.923,0,1.494-0.454,1.494-1.069
				c0-0.469-0.366-0.703-1.055-0.952l-1.084-0.396c-1.143-0.425-1.406-1.099-1.406-1.934c0-1.245,1.011-2.168,2.578-2.168
				C281.623,426.787,282.428,427.095,282.765,427.344z"/>
			<path fill="#FFFFFF" d="M290.441,428.179c0.513-0.776,1.406-1.392,2.52-1.392c1.89,0,3.413,1.465,3.413,3.691
				c0,2.417-1.523,3.999-3.53,3.999c-0.835,0-1.772-0.498-2.402-1.201v0.981h-1.201v-10.547h1.201V428.179z M290.441,430.61
				l0.015,1.406c0.615,0.762,1.274,1.289,2.168,1.289c1.567,0,2.505-1.406,2.505-2.827s-0.938-2.52-2.358-2.52
				C291.437,427.959,290.426,429.043,290.441,430.61z"/>
			<path fill="#FFFFFF" d="M305.25,426.934l-5.391,10.84h-1.392l2.095-3.955l-3.237-6.885h1.436l2.563,5.391l2.49-5.391H305.25z"/>
			<path fill="#FFFFFF" d="M316.53,427.915v-0.981h1.201v7.178c0,2.622-1.772,3.882-3.853,3.882c-1.362,0-2.168-0.469-2.681-0.791
				v-1.289c0.41,0.234,1.406,0.908,2.681,0.908c1.421,0,2.651-0.82,2.651-2.271v-1.538c-0.513,0.776-1.406,1.465-2.52,1.465
				c-1.89,0-3.413-1.538-3.413-3.765c0-2.417,1.523-3.926,3.53-3.926C314.962,426.787,315.9,427.212,316.53,427.915z
				 M311.842,430.713c0,1.421,0.938,2.578,2.358,2.578c1.333,0,2.344-1.143,2.329-2.71l-0.015-1.406
				c-0.615-0.762-1.274-1.201-2.168-1.201C312.78,427.974,311.842,429.292,311.842,430.713z"/>
			<path fill="#FFFFFF" d="M326.608,431.064h-5.625c0.176,1.23,1.143,2.241,2.549,2.241c1.055,0,1.714-0.483,2.197-0.835v1.216
				c-0.293,0.293-1.055,0.791-2.197,0.791c-2.227,0-3.823-1.758-3.823-3.838s1.465-3.853,3.53-3.853c2.256,0,3.369,1.553,3.369,3.56
				V431.064z M325.421,430.039c-0.146-1.421-1.157-2.08-2.183-2.08c-1.201,0-2.021,0.923-2.227,2.08H325.421z"/>
			<path fill="#FFFFFF" d="M337.975,432.983v0.981c-0.396,0.308-0.776,0.513-1.509,0.513c-1.245,0-1.89-0.82-1.89-2.065v-4.351
				h-3.97v4.292c0,0.615,0.308,0.981,0.952,0.981c0.586,0,0.952-0.176,1.245-0.352v0.981c-0.396,0.308-0.776,0.513-1.509,0.513
				c-1.245,0-1.89-0.82-1.89-2.065v-4.351H328v-0.352c0.952-0.425,1.567-1.436,2.051-2.886h0.557v2.109h2.886
				c0.952,0,1.538-0.659,2.021-1.963h0.264v1.963h2.139v1.128h-2.139v4.292c0,0.615,0.308,0.981,0.952,0.981
				C337.316,433.335,337.682,433.159,337.975,432.983z"/>
			<path fill="#FFFFFF" d="M342.018,426.934v7.324h-1.201v-6.196h-1.157v-1.128H342.018z M340.275,424.414
				c0-0.527,0.425-0.996,0.996-0.996c0.557,0,0.996,0.469,0.996,0.996c0,0.513-0.439,0.996-0.996,0.996
				C340.7,425.41,340.275,424.927,340.275,424.414z"/>
			<path fill="#FFFFFF" d="M350.91,429.79v4.468h-1.201l-0.015-4.351c0-1.26-0.542-1.948-1.699-1.948
				c-0.776,0-1.597,0.674-2.183,1.436v4.863h-1.201v-7.324h1.201v1.157c0.454-0.571,1.392-1.304,2.388-1.304
				C349.694,426.787,350.91,427.769,350.91,429.79z"/>
			<path fill="#FFFFFF" d="M358.6,427.915v-0.981h1.201v7.178c0,2.622-1.772,3.882-3.853,3.882c-1.362,0-2.168-0.469-2.681-0.791
				v-1.289c0.41,0.234,1.406,0.908,2.681,0.908c1.421,0,2.651-0.82,2.651-2.271v-1.538c-0.513,0.776-1.406,1.465-2.52,1.465
				c-1.89,0-3.413-1.538-3.413-3.765c0-2.417,1.523-3.926,3.53-3.926C357.033,426.787,357.97,427.212,358.6,427.915z
				 M353.913,430.713c0,1.421,0.938,2.578,2.358,2.578c1.333,0,2.344-1.143,2.329-2.71l-0.015-1.406
				c-0.615-0.762-1.274-1.201-2.168-1.201C354.85,427.974,353.913,429.292,353.913,430.713z"/>
			<path fill="#FFFFFF" d="M373.82,430.479c0,2.417-1.523,3.999-3.53,3.999c-0.835,0-1.772-0.498-2.402-1.201v4.497h-1.201v-10.84
				h1.201v1.245c0.513-0.776,1.406-1.392,2.52-1.392C372.296,426.787,373.82,428.252,373.82,430.479z M367.887,430.61l0.015,1.406
				c0.615,0.762,1.274,1.289,2.168,1.289c1.567,0,2.505-1.406,2.505-2.827s-0.938-2.52-2.358-2.52
				C368.883,427.959,367.873,429.043,367.887,430.61z"/>
			<path fill="#FFFFFF" d="M381.217,427.915v-0.981h1.201v7.324h-1.201v-1.245c-0.513,0.776-1.406,1.465-2.52,1.465
				c-1.89,0-3.413-1.538-3.413-3.765c0-2.417,1.523-3.926,3.53-3.926C379.65,426.787,380.587,427.212,381.217,427.915z
				 M376.53,430.713c0,1.421,0.938,2.593,2.358,2.593c1.333,0,2.344-1.157,2.329-2.725l-0.015-1.406
				c-0.615-0.762-1.274-1.216-2.168-1.216C377.467,427.959,376.53,429.292,376.53,430.713z"/>
			<path fill="#FFFFFF" d="M386.828,426.934v7.324h-1.201v-6.196h-1.157v-1.128H386.828z M385.084,424.414
				c0-0.527,0.425-0.996,0.996-0.996c0.557,0,0.996,0.469,0.996,0.996c0,0.513-0.439,0.996-0.996,0.996
				C385.509,425.41,385.084,424.927,385.084,424.414z"/>
			<path fill="#FFFFFF" d="M396.042,434.258h-1.201v-1.245c-0.513,0.776-1.406,1.465-2.52,1.465c-1.89,0-3.413-1.538-3.413-3.765
				c0-2.417,1.523-3.926,3.53-3.926c0.835,0,1.772,0.425,2.402,1.128v-4.204h1.201V434.258z M390.153,430.713
				c0,1.421,0.938,2.593,2.358,2.593c1.333,0,2.344-1.157,2.329-2.725l-0.015-1.406c-0.615-0.762-1.274-1.187-2.168-1.187
				C391.09,427.988,390.153,429.292,390.153,430.713z"/>
			<path fill="#FFFFFF" d="M404.948,426.934h2.139v1.128h-2.139v4.292c0,0.615,0.308,0.981,0.952,0.981
				c0.586,0,0.952-0.176,1.245-0.352v0.981c-0.396,0.308-0.776,0.513-1.509,0.513c-1.245,0-1.89-0.82-1.89-2.065v-4.351h-1.406
				v-0.352c0.952-0.425,1.567-1.436,2.051-2.886h0.557V426.934z"/>
			<path fill="#FFFFFF" d="M416.403,430.64c0,2.08-1.597,3.838-3.823,3.838s-3.823-1.758-3.823-3.838s1.597-3.853,3.823-3.853
				S416.403,428.56,416.403,430.64z M410.001,430.64c0,1.421,1.011,2.666,2.578,2.666s2.578-1.245,2.578-2.666
				s-1.011-2.681-2.578-2.681S410.001,429.219,410.001,430.64z"/>
			<path fill="#FFFFFF" d="M427.125,426.992v1.436c-0.308-0.234-0.688-0.381-1.069-0.381c-0.996,0-1.538,0.806-2.08,1.787v4.424
				h-1.201v-7.324h1.201v1.465c0.557-0.967,1.421-1.611,2.256-1.611C426.569,426.787,426.862,426.86,427.125,426.992z"/>
			<path fill="#FFFFFF" d="M435.05,431.064h-5.625c0.176,1.23,1.143,2.241,2.549,2.241c1.055,0,1.714-0.483,2.197-0.835v1.216
				c-0.293,0.293-1.055,0.791-2.197,0.791c-2.227,0-3.823-1.758-3.823-3.838s1.465-3.853,3.53-3.853c2.256,0,3.369,1.553,3.369,3.56
				V431.064z M433.864,430.039c-0.146-1.421-1.157-2.08-2.183-2.08c-1.201,0-2.021,0.923-2.227,2.08H433.864z"/>
			<path fill="#FFFFFF" d="M438.683,426.128v0.806h2.139v1.128h-2.139v6.196h-1.201v-6.196h-1.157v-1.128h1.157v-0.938
				c0-1.714,1.172-2.505,2.271-2.505c0.498,0,0.923,0.146,1.216,0.396v1.055c-0.293-0.19-0.732-0.322-1.143-0.308
				C439.108,424.663,438.683,425.044,438.683,426.128z"/>
			<path fill="#FFFFFF" d="M448.805,431.064h-5.625c0.176,1.23,1.143,2.241,2.549,2.241c1.055,0,1.714-0.483,2.197-0.835v1.216
				c-0.293,0.293-1.055,0.791-2.197,0.791c-2.227,0-3.823-1.758-3.823-3.838s1.465-3.853,3.53-3.853c2.256,0,3.369,1.553,3.369,3.56
				V431.064z M447.619,430.039c-0.146-1.421-1.157-2.08-2.183-2.08c-1.201,0-2.021,0.923-2.227,2.08H447.619z"/>
			<path fill="#FFFFFF" d="M455.133,426.992v1.436c-0.308-0.234-0.688-0.381-1.069-0.381c-0.996,0-1.538,0.806-2.08,1.787v4.424
				h-1.201v-7.324h1.201v1.465c0.557-0.967,1.421-1.611,2.256-1.611C454.577,426.787,454.87,426.86,455.133,426.992z"/>
			<path fill="#FFFFFF" d="M36.225,444.128v0.806h2.139v1.128h-2.139v6.196h-1.201v-6.196h-1.157v-1.128h1.157v-0.938
				c0-1.714,1.172-2.505,2.271-2.505c0.498,0,0.923,0.146,1.216,0.396v1.055c-0.293-0.19-0.732-0.322-1.143-0.308
				C36.649,442.663,36.225,443.044,36.225,444.128z"/>
			<path fill="#FFFFFF" d="M44.311,444.992v1.436c-0.308-0.234-0.688-0.381-1.069-0.381c-0.996,0-1.538,0.806-2.08,1.787v4.424
				H39.96v-7.324h1.201v1.465c0.557-0.967,1.421-1.611,2.256-1.611C43.754,444.787,44.047,444.86,44.311,444.992z"/>
			<path fill="#FFFFFF" d="M47.768,444.934v7.324h-1.201v-6.196h-1.157v-1.128H47.768z M46.024,442.414
				c0-0.527,0.425-0.996,0.996-0.996c0.557,0,0.996,0.469,0.996,0.996c0,0.513-0.439,0.996-0.996,0.996
				C46.449,443.41,46.024,442.927,46.024,442.414z"/>
			<path fill="#FFFFFF" d="M56.747,449.064h-5.625c0.176,1.23,1.143,2.241,2.549,2.241c1.055,0,1.714-0.483,2.197-0.835v1.216
				c-0.293,0.293-1.055,0.791-2.197,0.791c-2.227,0-3.823-1.758-3.823-3.838s1.465-3.853,3.53-3.853c2.256,0,3.369,1.553,3.369,3.56
				V449.064z M55.561,448.039c-0.146-1.421-1.157-2.08-2.183-2.08c-1.201,0-2.021,0.923-2.227,2.08H55.561z"/>
			<path fill="#FFFFFF" d="M65.023,447.79v4.468h-1.201l-0.015-4.351c0-1.26-0.542-1.948-1.699-1.948
				c-0.776,0-1.597,0.674-2.183,1.436v4.863h-1.201v-7.324h1.201v1.157c0.454-0.571,1.392-1.304,2.388-1.304
				C63.808,444.787,65.023,445.769,65.023,447.79z"/>
			<path fill="#FFFFFF" d="M73.915,452.258h-1.201v-1.245c-0.513,0.776-1.406,1.465-2.52,1.465c-1.89,0-3.413-1.538-3.413-3.765
				c0-2.417,1.523-3.926,3.53-3.926c0.835,0,1.772,0.425,2.402,1.128v-4.204h1.201V452.258z M68.026,448.713
				c0,1.421,0.938,2.593,2.358,2.593c1.333,0,2.344-1.157,2.329-2.725l-0.015-1.406c-0.615-0.762-1.274-1.187-2.168-1.187
				C68.964,445.988,68.026,447.292,68.026,448.713z"/>
			<path fill="#FFFFFF" d="M80.595,445.344v1.289c-0.41-0.308-1.187-0.674-1.919-0.674c-0.923,0-1.377,0.527-1.377,0.996
				c0,0.366,0.22,0.791,0.894,1.025l1.23,0.439c0.952,0.337,1.421,0.981,1.421,1.816c0,1.245-1.128,2.241-2.695,2.241
				c-0.864,0-1.919-0.396-2.256-0.645v-1.289c0.41,0.308,1.436,0.762,2.168,0.762c0.923,0,1.494-0.454,1.494-1.069
				c0-0.469-0.366-0.703-1.055-0.952l-1.084-0.396c-1.143-0.425-1.406-1.099-1.406-1.934c0-1.245,1.011-2.168,2.578-2.168
				C79.452,444.787,80.258,445.095,80.595,445.344z"/>
			<path fill="#FFFFFF" d="M84.652,451.496c0,0.557-0.469,1.025-1.025,1.025c-0.571,0-1.025-0.469-1.025-1.025
				c0-0.571,0.454-1.025,1.025-1.025C84.184,450.471,84.652,450.925,84.652,451.496z"/>
			<path fill="#FFFFFF" d="M97.807,452.258l-4.658-4.131v4.131H91.83v-9.814h3.765c1.685,0,3.413,0.923,3.413,2.944
				c0,1.831-1.787,2.798-3.486,2.798c-0.132,0-0.293,0-0.483-0.015l4.79,4.087H97.807z M93.148,443.688v3.149
				c0.645,0.176,1.436,0.278,2.183,0.278c1.479,0,2.329-0.674,2.329-1.729c0-1.099-1.025-1.699-2.285-1.699H93.148z"/>
			<path fill="#FFFFFF" d="M107.167,449.064h-5.625c0.176,1.23,1.143,2.241,2.549,2.241c1.055,0,1.714-0.483,2.197-0.835v1.216
				c-0.293,0.293-1.055,0.791-2.197,0.791c-2.227,0-3.823-1.758-3.823-3.838s1.465-3.853,3.53-3.853c2.256,0,3.369,1.553,3.369,3.56
				V449.064z M105.98,448.039c-0.146-1.421-1.157-2.08-2.183-2.08c-1.201,0-2.021,0.923-2.227,2.08H105.98z"/>
			<path fill="#FFFFFF" d="M110.8,444.128v0.806h2.139v1.128H110.8v6.196h-1.201v-6.196h-1.157v-1.128h1.157v-0.938
				c0-1.714,1.172-2.505,2.271-2.505c0.498,0,0.923,0.146,1.216,0.396v1.055c-0.293-0.19-0.732-0.322-1.143-0.308
				C111.225,442.663,110.8,443.044,110.8,444.128z"/>
			<path fill="#FFFFFF" d="M120.922,449.064h-5.625c0.176,1.23,1.143,2.241,2.549,2.241c1.055,0,1.714-0.483,2.197-0.835v1.216
				c-0.293,0.293-1.055,0.791-2.197,0.791c-2.227,0-3.823-1.758-3.823-3.838s1.465-3.853,3.53-3.853c2.256,0,3.369,1.553,3.369,3.56
				V449.064z M119.735,448.039c-0.146-1.421-1.157-2.08-2.183-2.08c-1.201,0-2.021,0.923-2.227,2.08H119.735z"/>
			<path fill="#FFFFFF" d="M127.25,444.992v1.436c-0.308-0.234-0.688-0.381-1.069-0.381c-0.996,0-1.538,0.806-2.08,1.787v4.424
				h-1.201v-7.324h1.201v1.465c0.557-0.967,1.421-1.611,2.256-1.611C126.693,444.787,126.986,444.86,127.25,444.992z"/>
			<path fill="#FFFFFF" d="M133.139,444.992v1.436c-0.308-0.234-0.688-0.381-1.069-0.381c-0.996,0-1.538,0.806-2.08,1.787v4.424
				h-1.201v-7.324h1.201v1.465c0.557-0.967,1.421-1.611,2.256-1.611C132.582,444.787,132.875,444.86,133.139,444.992z"/>
			<path fill="#FFFFFF" d="M140.097,445.915v-0.981h1.201v7.324h-1.201v-1.245c-0.513,0.776-1.406,1.465-2.52,1.465
				c-1.89,0-3.413-1.538-3.413-3.765c0-2.417,1.523-3.926,3.53-3.926C138.529,444.787,139.467,445.212,140.097,445.915z
				 M135.409,448.713c0,1.421,0.938,2.593,2.358,2.593c1.333,0,2.344-1.157,2.329-2.725l-0.015-1.406
				c-0.615-0.762-1.274-1.216-2.168-1.216C136.347,445.959,135.409,447.292,135.409,448.713z"/>
			<path fill="#FFFFFF" d="M144.989,452.258h-1.201v-10.547h1.201V452.258z"/>
			<path fill="#FFFFFF" d="M153.793,444.934v7.324h-1.201v-6.196h-1.157v-1.128H153.793z M152.05,442.414
				c0-0.527,0.425-0.996,0.996-0.996c0.557,0,0.996,0.469,0.996,0.996c0,0.513-0.439,0.996-0.996,0.996
				C152.475,443.41,152.05,442.927,152.05,442.414z"/>
			<path fill="#FFFFFF" d="M162.685,447.79v4.468h-1.201l-0.015-4.351c0-1.26-0.542-1.948-1.699-1.948
				c-0.776,0-1.597,0.674-2.183,1.436v4.863h-1.201v-7.324h1.201v1.157c0.454-0.571,1.392-1.304,2.388-1.304
				C161.469,444.787,162.685,445.769,162.685,447.79z"/>
			<path fill="#FFFFFF" d="M170.463,445.505v1.216c-0.557-0.41-1.216-0.762-2.197-0.762c-1.567,0-2.578,1.26-2.578,2.681
				s1.011,2.666,2.578,2.666c0.981,0,1.641-0.352,2.197-0.762v1.216c-0.293,0.293-1.128,0.718-2.197,0.718
				c-2.227,0-3.823-1.758-3.823-3.838s1.597-3.853,3.823-3.853C169.335,444.787,170.17,445.227,170.463,445.505z"/>
			<path fill="#FFFFFF" d="M178.827,449.064h-5.625c0.176,1.23,1.143,2.241,2.549,2.241c1.055,0,1.714-0.483,2.197-0.835v1.216
				c-0.293,0.293-1.055,0.791-2.197,0.791c-2.227,0-3.823-1.758-3.823-3.838s1.465-3.853,3.53-3.853c2.256,0,3.369,1.553,3.369,3.56
				V449.064z M177.641,448.039c-0.146-1.421-1.157-2.08-2.183-2.08c-1.201,0-2.021,0.923-2.227,2.08H177.641z"/>
			<path fill="#FFFFFF" d="M187.104,447.79v4.468h-1.201l-0.015-4.351c0-1.26-0.542-1.948-1.699-1.948
				c-0.776,0-1.597,0.674-2.183,1.436v4.863h-1.201v-7.324h1.201v1.157c0.454-0.571,1.392-1.304,2.388-1.304
				C185.888,444.787,187.104,445.769,187.104,447.79z"/>
			<path fill="#FFFFFF" d="M191.396,444.934h2.139v1.128h-2.139v4.292c0,0.615,0.308,0.981,0.952,0.981
				c0.586,0,0.952-0.176,1.245-0.352v0.981c-0.396,0.308-0.776,0.513-1.509,0.513c-1.245,0-1.89-0.82-1.89-2.065v-4.351h-1.406
				v-0.352c0.952-0.425,1.567-1.436,2.051-2.886h0.557V444.934z"/>
			<path fill="#FFFFFF" d="M197.636,444.934v7.324h-1.201v-6.196h-1.157v-1.128H197.636z M195.893,442.414
				c0-0.527,0.425-0.996,0.996-0.996c0.557,0,0.996,0.469,0.996,0.996c0,0.513-0.439,0.996-0.996,0.996
				C196.317,443.41,195.893,442.927,195.893,442.414z"/>
			<path fill="#FFFFFF" d="M203.246,452.258h-0.747l-3.296-7.324h1.436l2.212,5.391l2.402-5.391h1.436L203.246,452.258z"/>
			<path fill="#FFFFFF" d="M214.394,449.064h-5.625c0.176,1.23,1.143,2.241,2.549,2.241c1.055,0,1.714-0.483,2.197-0.835v1.216
				c-0.293,0.293-1.055,0.791-2.197,0.791c-2.227,0-3.823-1.758-3.823-3.838s1.465-3.853,3.53-3.853c2.256,0,3.369,1.553,3.369,3.56
				V449.064z M213.207,448.039c-0.146-1.421-1.157-2.08-2.183-2.08c-1.201,0-2.021,0.923-2.227,2.08H213.207z"/>
			<path fill="#FFFFFF" d="M227.899,448.64c0,2.08-1.597,3.838-3.823,3.838s-3.823-1.758-3.823-3.838s1.597-3.853,3.823-3.853
				S227.899,446.56,227.899,448.64z M221.498,448.64c0,1.421,1.011,2.666,2.578,2.666s2.578-1.245,2.578-2.666
				s-1.011-2.681-2.578-2.681S221.498,447.219,221.498,448.64z"/>
			<path fill="#FFFFFF" d="M231.532,444.128v0.806h2.139v1.128h-2.139v6.196h-1.201v-6.196h-1.157v-1.128h1.157v-0.938
				c0-1.714,1.172-2.505,2.271-2.505c0.498,0,0.923,0.146,1.216,0.396v1.055c-0.293-0.19-0.732-0.322-1.143-0.308
				C231.957,442.663,231.532,443.044,231.532,444.128z"/>
			<path fill="#FFFFFF" d="M236.923,444.128v0.806h2.139v1.128h-2.139v6.196h-1.201v-6.196h-1.157v-1.128h1.157v-0.938
				c0-1.714,1.172-2.505,2.271-2.505c0.498,0,0.923,0.146,1.216,0.396v1.055c-0.293-0.19-0.732-0.322-1.143-0.308
				C237.348,442.663,236.923,443.044,236.923,444.128z"/>
			<path fill="#FFFFFF" d="M247.045,449.064h-5.625c0.176,1.23,1.143,2.241,2.549,2.241c1.055,0,1.713-0.483,2.197-0.835v1.216
				c-0.293,0.293-1.055,0.791-2.197,0.791c-2.227,0-3.824-1.758-3.824-3.838s1.464-3.853,3.531-3.853
				c2.256,0,3.369,1.553,3.369,3.56V449.064z M245.858,448.039c-0.146-1.421-1.156-2.08-2.182-2.08c-1.201,0-2.021,0.923-2.227,2.08
				H245.858z"/>
			<path fill="#FFFFFF" d="M253.374,444.992v1.436c-0.308-0.234-0.688-0.381-1.069-0.381c-0.996,0-1.538,0.806-2.08,1.787v4.424
				h-1.201v-7.324h1.201v1.465c0.557-0.967,1.421-1.611,2.256-1.611C252.817,444.787,253.11,444.86,253.374,444.992z"/>
			<path fill="#FFFFFF" d="M259.101,445.344v1.289c-0.41-0.308-1.187-0.674-1.919-0.674c-0.923,0-1.377,0.527-1.377,0.996
				c0,0.366,0.22,0.791,0.894,1.025l1.23,0.439c0.952,0.337,1.421,0.981,1.421,1.816c0,1.245-1.128,2.241-2.695,2.241
				c-0.864,0-1.919-0.396-2.256-0.645v-1.289c0.41,0.308,1.436,0.762,2.168,0.762c0.923,0,1.494-0.454,1.494-1.069
				c0-0.469-0.366-0.703-1.055-0.952l-1.084-0.396c-1.143-0.425-1.406-1.099-1.406-1.934c0-1.245,1.011-2.168,2.578-2.168
				C257.958,444.787,258.764,445.095,259.101,445.344z"/>
			<path fill="#FFFFFF" d="M267.597,444.934h2.139v1.128h-2.139v4.292c0,0.615,0.308,0.981,0.952,0.981
				c0.586,0,0.952-0.176,1.245-0.352v0.981c-0.396,0.308-0.776,0.513-1.509,0.513c-1.245,0-1.89-0.82-1.89-2.065v-4.351h-1.406
				v-0.352c0.952-0.425,1.567-1.436,2.051-2.886h0.557V444.934z"/>
			<path fill="#FFFFFF" d="M278.818,444.934l-5.391,10.84h-1.392l2.095-3.955l-3.237-6.885h1.436l2.563,5.391l2.49-5.391H278.818z"
				/>
			<path fill="#FFFFFF" d="M287.417,448.479c0,2.417-1.523,3.999-3.53,3.999c-0.835,0-1.772-0.498-2.402-1.201v4.497h-1.201v-10.84
				h1.201v1.245c0.513-0.776,1.406-1.392,2.52-1.392C285.893,444.787,287.417,446.252,287.417,448.479z M281.484,448.61l0.015,1.406
				c0.615,0.762,1.274,1.289,2.168,1.289c1.567,0,2.505-1.406,2.505-2.827s-0.938-2.52-2.358-2.52
				C282.48,445.959,281.469,447.043,281.484,448.61z"/>
			<path fill="#FFFFFF" d="M291.313,444.934v7.324h-1.201v-6.196h-1.157v-1.128H291.313z M289.57,442.414
				c0-0.527,0.425-0.996,0.996-0.996c0.557,0,0.996,0.469,0.996,0.996c0,0.513-0.439,0.996-0.996,0.996
				C289.995,443.41,289.57,442.927,289.57,442.414z"/>
			<path fill="#FFFFFF" d="M299.414,445.505v1.216c-0.557-0.41-1.216-0.762-2.197-0.762c-1.567,0-2.578,1.26-2.578,2.681
				s1.011,2.666,2.578,2.666c0.981,0,1.641-0.352,2.197-0.762v1.216c-0.293,0.293-1.128,0.718-2.197,0.718
				c-2.227,0-3.823-1.758-3.823-3.838s1.597-3.853,3.823-3.853C298.286,444.787,299.121,445.227,299.414,445.505z"/>
			<path fill="#FFFFFF" d="M306.811,445.915v-0.981h1.201v7.324h-1.201v-1.245c-0.513,0.776-1.406,1.465-2.52,1.465
				c-1.89,0-3.413-1.538-3.413-3.765c0-2.417,1.523-3.926,3.53-3.926C305.244,444.787,306.181,445.212,306.811,445.915z
				 M302.124,448.713c0,1.421,0.938,2.593,2.358,2.593c1.333,0,2.344-1.157,2.329-2.725l-0.015-1.406
				c-0.615-0.762-1.274-1.216-2.168-1.216C303.061,445.959,302.124,447.292,302.124,448.713z"/>
			<path fill="#FFFFFF" d="M311.704,452.258h-1.201v-10.547h1.201V452.258z"/>
			<path fill="#FFFFFF" d="M315.395,452.258h-1.201v-10.547h1.201V452.258z"/>
			<path fill="#FFFFFF" d="M324.785,444.934l-5.391,10.84h-1.392l2.095-3.955l-3.237-6.885h1.436l2.563,5.391l2.49-5.391H324.785z"
				/>
			<path fill="#FFFFFF" d="M337.778,448.479c0,2.417-1.523,3.999-3.53,3.999c-0.835,0-1.772-0.498-2.402-1.201v4.497h-1.201v-10.84
				h1.201v1.245c0.513-0.776,1.406-1.392,2.52-1.392C336.254,444.787,337.778,446.252,337.778,448.479z M331.845,448.61l0.015,1.406
				c0.615,0.762,1.274,1.289,2.168,1.289c1.567,0,2.505-1.406,2.505-2.827s-0.938-2.52-2.358-2.52
				C332.841,445.959,331.831,447.043,331.845,448.61z"/>
			<path fill="#FFFFFF" d="M345.175,445.915v-0.981h1.201v7.324h-1.201v-1.245c-0.513,0.776-1.406,1.465-2.52,1.465
				c-1.89,0-3.413-1.538-3.413-3.765c0-2.417,1.523-3.926,3.53-3.926C343.608,444.787,344.545,445.212,345.175,445.915z
				 M340.488,448.713c0,1.421,0.938,2.593,2.358,2.593c1.333,0,2.344-1.157,2.329-2.725l-0.015-1.406
				c-0.615-0.762-1.274-1.216-2.168-1.216C341.425,445.959,340.488,447.292,340.488,448.713z"/>
			<path fill="#FFFFFF" d="M355.766,444.934l-5.391,10.84h-1.392l2.095-3.955l-3.237-6.885h1.436l2.563,5.391l2.49-5.391H355.766z"
				/>
			<path fill="#FFFFFF" d="M372.934,447.79v4.468h-1.201l-0.015-4.351c0-1.26-0.688-1.948-1.846-1.948
				c-0.85,0-1.436,0.615-1.992,1.318v4.98h-1.201l-0.015-4.351c0-1.26-0.688-1.948-1.846-1.948c-0.806,0-1.45,0.542-1.992,1.201
				v5.098h-1.201v-7.324h1.201v0.938c0.469-0.527,1.201-1.084,2.197-1.084c1.055,0,2.036,0.498,2.534,1.494
				c0.688-0.806,1.436-1.494,2.52-1.494C371.572,444.787,372.934,445.769,372.934,447.79z"/>
			<path fill="#FFFFFF" d="M381.196,449.27c0,1.934-1.348,3.135-3.105,3.135s-3.105-1.201-3.105-3.135v-4.336h1.245v4.336
				c0,1.274,0.879,1.963,1.86,1.963s1.86-0.688,1.86-1.963v-4.336h1.245V449.27z"/>
			<path fill="#FFFFFF" d="M388.974,445.505v1.216c-0.557-0.41-1.216-0.762-2.197-0.762c-1.567,0-2.578,1.26-2.578,2.681
				s1.011,2.666,2.578,2.666c0.981,0,1.641-0.352,2.197-0.762v1.216c-0.293,0.293-1.128,0.718-2.197,0.718
				c-2.227,0-3.823-1.758-3.823-3.838s1.597-3.853,3.823-3.853C387.846,444.787,388.681,445.227,388.974,445.505z"/>
			<path fill="#FFFFFF" d="M397.25,447.79v4.468h-1.201l-0.015-4.351c0-1.26-0.542-1.948-1.699-1.948
				c-0.776,0-1.597,0.674-2.183,1.436v4.863h-1.201v-10.547h1.201v4.38c0.454-0.571,1.392-1.304,2.388-1.304
				C396.035,444.787,397.25,445.769,397.25,447.79z"/>
			<path fill="#FFFFFF" d="M410.214,447.79v4.468h-1.201l-0.015-4.351c0-1.26-0.542-1.948-1.699-1.948
				c-0.776,0-1.597,0.674-2.183,1.436v4.863h-1.201v-10.547h1.201v4.38c0.454-0.571,1.392-1.304,2.388-1.304
				C408.999,444.787,410.214,445.769,410.214,447.79z"/>
			<path fill="#FFFFFF" d="M414.404,444.934v7.324h-1.201v-6.196h-1.157v-1.128H414.404z M412.661,442.414
				c0-0.527,0.425-0.996,0.996-0.996c0.557,0,0.996,0.469,0.996,0.996c0,0.513-0.439,0.996-0.996,0.996
				C413.085,443.41,412.661,442.927,412.661,442.414z"/>
			<path fill="#FFFFFF" d="M422.417,445.915v-0.981h1.201v7.178c0,2.622-1.772,3.882-3.853,3.882c-1.362,0-2.168-0.469-2.681-0.791
				v-1.289c0.41,0.234,1.406,0.908,2.681,0.908c1.421,0,2.651-0.82,2.651-2.271v-1.538c-0.513,0.776-1.406,1.465-2.52,1.465
				c-1.89,0-3.413-1.538-3.413-3.765c0-2.417,1.523-3.926,3.53-3.926C420.849,444.787,421.787,445.212,422.417,445.915z
				 M417.729,448.713c0,1.421,0.938,2.578,2.358,2.578c1.333,0,2.344-1.143,2.329-2.71l-0.015-1.406
				c-0.615-0.762-1.274-1.201-2.168-1.201C418.667,445.974,417.729,447.292,417.729,448.713z"/>
			<path fill="#FFFFFF" d="M432.407,447.79v4.468h-1.201l-0.015-4.351c0-1.26-0.542-1.948-1.699-1.948
				c-0.776,0-1.597,0.674-2.183,1.436v4.863h-1.201v-10.547h1.201v4.38c0.454-0.571,1.392-1.304,2.388-1.304
				C431.191,444.787,432.407,445.769,432.407,447.79z"/>
			<path fill="#FFFFFF" d="M441.064,449.064h-5.625c0.176,1.23,1.143,2.241,2.549,2.241c1.055,0,1.714-0.483,2.197-0.835v1.216
				c-0.293,0.293-1.055,0.791-2.197,0.791c-2.227,0-3.823-1.758-3.823-3.838s1.465-3.853,3.53-3.853c2.256,0,3.369,1.553,3.369,3.56
				V449.064z M439.877,448.039c-0.146-1.421-1.157-2.08-2.183-2.08c-1.201,0-2.021,0.923-2.227,2.08H439.877z"/>
			<path fill="#FFFFFF" d="M447.392,444.992v1.436c-0.308-0.234-0.688-0.381-1.069-0.381c-0.996,0-1.538,0.806-2.08,1.787v4.424
				h-1.201v-7.324h1.201v1.465c0.557-0.967,1.421-1.611,2.256-1.611C446.835,444.787,447.128,444.86,447.392,444.992z"/>
			<path fill="#FFFFFF" d="M110.668,462.934h2.139v1.128h-2.139v4.292c0,0.615,0.308,0.981,0.952,0.981
				c0.586,0,0.952-0.176,1.245-0.352v0.981c-0.396,0.308-0.776,0.513-1.509,0.513c-1.245,0-1.89-0.82-1.89-2.065v-4.351h-1.406
				v-0.352c0.952-0.425,1.567-1.436,2.051-2.886h0.557V462.934z"/>
			<path fill="#FFFFFF" d="M121.288,465.79v4.468h-1.201l-0.015-4.351c0-1.26-0.542-1.948-1.699-1.948
				c-0.776,0-1.597,0.674-2.183,1.436v4.863h-1.201v-10.547h1.201v4.38c0.454-0.571,1.392-1.304,2.388-1.304
				C120.072,462.787,121.288,463.769,121.288,465.79z"/>
			<path fill="#FFFFFF" d="M128.979,463.915v-0.981h1.201v7.324h-1.201v-1.245c-0.513,0.776-1.406,1.465-2.52,1.465
				c-1.89,0-3.413-1.538-3.413-3.765c0-2.417,1.523-3.926,3.53-3.926C127.411,462.787,128.349,463.212,128.979,463.915z
				 M124.291,466.713c0,1.421,0.938,2.593,2.358,2.593c1.333,0,2.344-1.157,2.329-2.725l-0.015-1.406
				c-0.615-0.762-1.274-1.216-2.168-1.216C125.229,463.959,124.291,465.292,124.291,466.713z"/>
			<path fill="#FFFFFF" d="M138.969,465.79v4.468h-1.201l-0.015-4.351c0-1.26-0.542-1.948-1.699-1.948
				c-0.776,0-1.597,0.674-2.183,1.436v4.863h-1.201v-7.324h1.201v1.157c0.454-0.571,1.392-1.304,2.388-1.304
				C137.753,462.787,138.969,463.769,138.969,465.79z"/>
			<path fill="#FFFFFF" d="M152.255,470.258h-1.201v-1.245c-0.513,0.776-1.406,1.465-2.52,1.465c-1.89,0-3.413-1.538-3.413-3.765
				c0-2.417,1.523-3.926,3.53-3.926c0.835,0,1.772,0.425,2.402,1.128v-4.204h1.201V470.258z M146.366,466.713
				c0,1.421,0.938,2.593,2.358,2.593c1.333,0,2.344-1.157,2.329-2.725l-0.015-1.406c-0.615-0.762-1.274-1.187-2.168-1.187
				C147.304,463.988,146.366,465.292,146.366,466.713z"/>
			<path fill="#FFFFFF" d="M156.664,462.934v7.324h-1.201v-6.196h-1.157v-1.128H156.664z M154.921,460.414
				c0-0.527,0.425-0.996,0.996-0.996c0.557,0,0.996,0.469,0.996,0.996c0,0.513-0.439,0.996-0.996,0.996
				C155.346,461.41,154.921,460.927,154.921,460.414z"/>
			<path fill="#FFFFFF" d="M163.607,462.992v1.436c-0.308-0.234-0.688-0.381-1.069-0.381c-0.996,0-1.538,0.806-2.08,1.787v4.424
				h-1.201v-7.324h1.201v1.465c0.557-0.967,1.421-1.611,2.256-1.611C163.051,462.787,163.344,462.86,163.607,462.992z"/>
			<path fill="#FFFFFF" d="M171.532,467.064h-5.625c0.176,1.23,1.143,2.241,2.549,2.241c1.055,0,1.714-0.483,2.197-0.835v1.216
				c-0.293,0.293-1.055,0.791-2.197,0.791c-2.227,0-3.823-1.758-3.823-3.838s1.465-3.853,3.53-3.853c2.256,0,3.369,1.553,3.369,3.56
				V467.064z M170.346,466.039c-0.146-1.421-1.157-2.08-2.183-2.08c-1.201,0-2.021,0.923-2.227,2.08H170.346z"/>
			<path fill="#FFFFFF" d="M179.018,463.505v1.216c-0.557-0.41-1.216-0.762-2.197-0.762c-1.567,0-2.578,1.26-2.578,2.681
				s1.011,2.666,2.578,2.666c0.981,0,1.641-0.352,2.197-0.762v1.216c-0.293,0.293-1.128,0.718-2.197,0.718
				c-2.227,0-3.823-1.758-3.823-3.838s1.597-3.853,3.823-3.853C177.89,462.787,178.725,463.227,179.018,463.505z"/>
			<path fill="#FFFFFF" d="M183.017,462.934h2.139v1.128h-2.139v4.292c0,0.615,0.308,0.981,0.952,0.981
				c0.586,0,0.952-0.176,1.245-0.352v0.981c-0.396,0.308-0.776,0.513-1.509,0.513c-1.245,0-1.89-0.82-1.89-2.065v-4.351h-1.406
				v-0.352c0.952-0.425,1.567-1.436,2.051-2.886h0.557V462.934z"/>
			<path fill="#FFFFFF" d="M200.17,468.925c-0.703,0.762-2.065,1.553-3.779,1.553c-2.959,0-5.171-2.314-5.171-5.127
				s2.212-5.127,5.171-5.127c1.421,0,2.256,0.439,2.944,1.055v1.45c-0.659-0.454-1.45-1.216-2.944-1.216
				c-2.197,0-3.823,1.641-3.823,3.838s1.626,3.838,3.823,3.838c1.479,0,2.007-0.557,2.344-0.835l0.015-2.285h-2.461v-1.172h3.882
				V468.925z"/>
			<path fill="#FFFFFF" d="M209.691,463.754c0,1.729-1.611,3.149-3.633,3.149c-1.011,0-1.86-0.249-2.373-0.483v3.838h-1.318v-9.814
				h3.911C207.963,460.443,209.691,461.732,209.691,463.754z M208.344,463.754c0-1.245-1.172-2.065-2.432-2.065h-2.227v3.53
				c0.527,0.22,1.45,0.439,2.329,0.439C207.494,465.658,208.344,464.853,208.344,463.754z"/>
			<path fill="#FFFFFF" d="M218.949,461.688h-3.384v8.525h-1.318v-8.525h-3.384v-1.245h8.086V461.688z"/>
			<path fill="#FFFFFF" d="M221.894,466.669c0,2.344,1.025,5.2,2.212,6.519h-1.333c-1.201-1.245-2.373-3.853-2.373-6.519
				c0-2.52,1.172-5.273,2.373-6.519h1.333C222.919,461.469,221.894,464.472,221.894,466.669z"/>
			<path fill="#FFFFFF" d="M227.797,460.414l-1.318,3.94l-1.201-0.41l1.611-3.765L227.797,460.414z"/>
			<path fill="#FFFFFF" d="M237.772,468.925c-0.703,0.762-2.065,1.553-3.779,1.553c-2.959,0-5.171-2.314-5.171-5.127
				s2.212-5.127,5.171-5.127c1.421,0,2.256,0.439,2.944,1.055v1.45c-0.659-0.454-1.45-1.216-2.944-1.216
				c-2.197,0-3.823,1.641-3.823,3.838s1.626,3.838,3.823,3.838c1.479,0,2.007-0.557,2.344-0.835l0.015-2.285h-2.461v-1.172h3.882
				V468.925z"/>
			<path fill="#FFFFFF" d="M245.991,467.064h-5.625c0.176,1.23,1.143,2.241,2.549,2.241c1.055,0,1.713-0.483,2.197-0.835v1.216
				c-0.293,0.293-1.055,0.791-2.197,0.791c-2.227,0-3.824-1.758-3.824-3.838s1.464-3.853,3.531-3.853
				c2.256,0,3.369,1.553,3.369,3.56V467.064z M244.803,466.039c-0.146-1.421-1.156-2.08-2.182-2.08c-1.201,0-2.021,0.923-2.227,2.08
				H244.803z"/>
			<path fill="#FFFFFF" d="M249.99,462.934h2.139v1.128h-2.139v4.292c0,0.615,0.308,0.981,0.952,0.981
				c0.586,0,0.952-0.176,1.245-0.352v0.981c-0.396,0.308-0.776,0.513-1.509,0.513c-1.245,0-1.89-0.82-1.89-2.065v-4.351h-1.406
				v-0.352c0.952-0.425,1.567-1.436,2.051-2.886h0.557V462.934z"/>
			<path fill="#FFFFFF" d="M266.396,463.754c0,1.729-1.611,3.149-3.633,3.149c-1.011,0-1.86-0.249-2.373-0.483v3.838h-1.318v-9.814
				h3.911C264.667,460.443,266.396,461.732,266.396,463.754z M265.048,463.754c0-1.245-1.172-2.065-2.432-2.065h-2.227v3.53
				c0.527,0.22,1.45,0.439,2.329,0.439C264.199,465.658,265.048,464.853,265.048,463.754z"/>
			<path fill="#FFFFFF" d="M273.793,463.915v-0.981h1.201v7.324h-1.201v-1.245c-0.513,0.776-1.406,1.465-2.52,1.465
				c-1.89,0-3.413-1.538-3.413-3.765c0-2.417,1.523-3.926,3.53-3.926C272.226,462.787,273.164,463.212,273.793,463.915z
				 M269.106,466.713c0,1.421,0.938,2.593,2.358,2.593c1.333,0,2.344-1.157,2.329-2.725l-0.015-1.406
				c-0.615-0.762-1.274-1.216-2.168-1.216C270.043,463.959,269.106,465.292,269.106,466.713z"/>
			<path fill="#FFFFFF" d="M279.404,462.934v7.324h-1.201v-6.196h-1.157v-1.128H279.404z M277.661,460.414
				c0-0.527,0.425-0.996,0.996-0.996c0.557,0,0.996,0.469,0.996,0.996c0,0.513-0.439,0.996-0.996,0.996
				C278.085,461.41,277.661,460.927,277.661,460.414z"/>
			<path fill="#FFFFFF" d="M288.618,470.258h-1.201v-1.245c-0.513,0.776-1.406,1.465-2.52,1.465c-1.89,0-3.413-1.538-3.413-3.765
				c0-2.417,1.523-3.926,3.53-3.926c0.835,0,1.772,0.425,2.402,1.128v-4.204h1.201V470.258z M282.729,466.713
				c0,1.421,0.938,2.593,2.358,2.593c1.333,0,2.344-1.157,2.329-2.725l-0.015-1.406c-0.615-0.762-1.274-1.187-2.168-1.187
				C283.667,463.988,282.729,465.292,282.729,466.713z"/>
			<path fill="#FFFFFF" d="M302.783,461.688h-3.384v8.525h-1.318v-8.525h-3.384v-1.245h8.086V461.688z"/>
			<path fill="#FFFFFF" d="M311.586,466.64c0,2.08-1.597,3.838-3.823,3.838s-3.823-1.758-3.823-3.838s1.597-3.853,3.823-3.853
				S311.586,464.56,311.586,466.64z M305.185,466.64c0,1.421,1.011,2.666,2.578,2.666s2.578-1.245,2.578-2.666
				s-1.011-2.681-2.578-2.681S305.185,465.219,305.185,466.64z"/>
			<path fill="#FFFFFF" d="M312.905,463.769l1.318-3.94l1.201,0.41l-1.611,3.765L312.905,463.769z M315.542,463.769l1.318-3.94
				l1.201,0.41l-1.611,3.765L315.542,463.769z"/>
			<path fill="#FFFFFF" d="M321.005,460.15c1.201,1.245,2.373,3.999,2.373,6.519c0,2.666-1.172,5.273-2.373,6.519h-1.333
				c1.187-1.318,2.212-4.175,2.212-6.519c0-2.197-1.025-5.2-2.212-6.519H321.005z"/>
			<path fill="#FFFFFF" d="M337.177,466.64c0,2.08-1.597,3.838-3.823,3.838s-3.823-1.758-3.823-3.838s1.597-3.853,3.823-3.853
				S337.177,464.56,337.177,466.64z M330.776,466.64c0,1.421,1.011,2.666,2.578,2.666s2.578-1.245,2.578-2.666
				s-1.011-2.681-2.578-2.681S330.776,465.219,330.776,466.64z"/>
			<path fill="#FFFFFF" d="M340.81,462.128v0.806h2.139v1.128h-2.139v6.196h-1.201v-6.196h-1.157v-1.128h1.157v-0.938
				c0-1.714,1.172-2.505,2.271-2.505c0.498,0,0.923,0.146,1.216,0.396v1.055c-0.293-0.19-0.732-0.322-1.143-0.308
				C341.235,460.663,340.81,461.044,340.81,462.128z"/>
			<path fill="#FFFFFF" d="M346.201,462.128v0.806h2.139v1.128h-2.139v6.196H345v-6.196h-1.157v-1.128H345v-0.938
				c0-1.714,1.172-2.505,2.271-2.505c0.498,0,0.923,0.146,1.216,0.396v1.055c-0.293-0.19-0.732-0.322-1.143-0.308
				C346.625,460.663,346.201,461.044,346.201,462.128z"/>
			<path fill="#FFFFFF" d="M356.323,467.064h-5.625c0.176,1.23,1.143,2.241,2.549,2.241c1.055,0,1.714-0.483,2.197-0.835v1.216
				c-0.293,0.293-1.055,0.791-2.197,0.791c-2.227,0-3.823-1.758-3.823-3.838s1.465-3.853,3.53-3.853c2.256,0,3.369,1.553,3.369,3.56
				V467.064z M355.136,466.039c-0.146-1.421-1.157-2.08-2.183-2.08c-1.201,0-2.021,0.923-2.227,2.08H355.136z"/>
			<path fill="#FFFFFF" d="M362.651,462.992v1.436c-0.308-0.234-0.688-0.381-1.069-0.381c-0.996,0-1.538,0.806-2.08,1.787v4.424
				H358.3v-7.324h1.201v1.465c0.557-0.967,1.421-1.611,2.256-1.611C362.094,462.787,362.387,462.86,362.651,462.992z"/>
			<path fill="#FFFFFF" d="M368.378,463.344v1.289c-0.41-0.308-1.187-0.674-1.919-0.674c-0.923,0-1.377,0.527-1.377,0.996
				c0,0.366,0.22,0.791,0.894,1.025l1.23,0.439c0.952,0.337,1.421,0.981,1.421,1.816c0,1.245-1.128,2.241-2.695,2.241
				c-0.864,0-1.919-0.396-2.256-0.645v-1.289c0.41,0.308,1.436,0.762,2.168,0.762c0.923,0,1.494-0.454,1.494-1.069
				c0-0.469-0.366-0.703-1.055-0.952l-1.084-0.396c-1.143-0.425-1.406-1.099-1.406-1.934c0-1.245,1.011-2.168,2.578-2.168
				C367.236,462.787,368.042,463.095,368.378,463.344z"/>
			<path fill="#FFFFFF" d="M372.436,469.496c0,0.557-0.469,1.025-1.025,1.025c-0.571,0-1.025-0.469-1.025-1.025
				c0-0.571,0.454-1.025,1.025-1.025C371.967,468.471,372.436,468.925,372.436,469.496z"/>
		</g>
	</g>
	<path fill="#E0CEB1" d="M370.199,142.706"/>
	<g>
		<g>
			
				<line fill="none" stroke="#FFFFFF" stroke-width="2" stroke-miterlimit="10" x1="374.024" y1="296.818" x2="374.024" y2="295.318"/>
			
				<line fill="none" stroke="#FFFFFF" stroke-width="2" stroke-miterlimit="10" stroke-dasharray="2.9927,2.9927" x1="374.024" y1="292.326" x2="374.024" y2="245.938"/>
			<polyline fill="none" stroke="#FFFFFF" stroke-width="2" stroke-miterlimit="10" points="374.024,244.442 374.024,242.942 
				372.524,242.942 			"/>
			
				<line fill="none" stroke="#FFFFFF" stroke-width="2" stroke-miterlimit="10" stroke-dasharray="3.0079,3.0079" x1="369.516" y1="242.942" x2="118.356" y2="242.942"/>
			<polyline fill="none" stroke="#FFFFFF" stroke-width="2" stroke-miterlimit="10" points="116.852,242.942 115.352,242.942 
				115.352,244.442 			"/>
			
				<line fill="none" stroke="#FFFFFF" stroke-width="2" stroke-miterlimit="10" stroke-dasharray="2.9856,2.9856" x1="115.352" y1="247.428" x2="115.352" y2="293.706"/>
			
				<line fill="none" stroke="#FFFFFF" stroke-width="2" stroke-miterlimit="10" x1="115.352" y1="295.198" x2="115.352" y2="296.698"/>
		</g>
	</g>
	<g>
		<rect x="94.069" y="362.594" fill="#F2C897" width="27.413" height="16.038"/>
		<path fill="#F2C897" d="M135.069,310.122l4.591-1.527c0,0,3.75,7.564-4.698,11.408"/>
		<path fill="#F2C897" d="M138.51,324.056l4.449,1.895c0,0-2.197,8.154-11.072,5.439"/>
		<path fill="#F2C897" d="M137.726,331.575l4.178,4.271c0,0-3.6,4.866-8.812,0.732"/>
		<path fill="#F2C897" d="M121.512,364.979c0,0,8.345-11.552,4.95-22.899h-13.514l-0.563,22.899H121.512z"/>
		<path opacity="0.1" d="M116.927,344.911c0,0,1.873,6.118-4.541,20.068c0,0,10.937-9.855,9.731-23.511
			C122.118,341.469,116.56,343.452,116.927,344.911z"/>
		<path fill="#3A3A3A" d="M134.781,264.854h-33.239c-2.217,0-4.08,1.638-4.08,3.856l0.217,32.992v8.443v5.23v10.1v15.593
			c0,2.217,1.863,3.843,4.081,3.843h0.061h8.244h24.5c2.217,0,3.838-1.626,3.838-3.843l0.218-72.358
			C138.62,266.493,136.999,264.854,134.781,264.854"/>
		<rect x="100.917" y="275.035" fill="#FFFFFF" width="34.244" height="58.77"/>
		<rect x="100.917" y="275.035" fill="#8DC249" width="34.244" height="2.859"/>
		<rect x="103.354" y="292.64" fill="#E73B2F" width="6.565" height="2.276"/>
		<rect x="103.354" y="298.039" fill="#E73B2F" width="29.371" height="0.569"/>
		<rect x="103.354" y="300.788" fill="#BFBFBF" width="6.565" height="2.275"/>
		<rect x="103.354" y="306.187" fill="#BFBFBF" width="29.371" height="0.569"/>
		<rect x="103.354" y="308.936" fill="#BFBFBF" width="6.565" height="2.276"/>
		<rect x="103.354" y="314.335" fill="#BFBFBF" width="29.371" height="0.568"/>
		<rect x="103.354" y="317.083" fill="#BFBFBF" width="6.565" height="2.275"/>
		<rect x="103.354" y="322.481" fill="#BFBFBF" width="29.371" height="0.569"/>
		<rect x="100.917" y="329.231" fill="#BFBFBF" width="34.244" height="4.573"/>
		<g opacity="0.4">
			<g>
				<defs>
					<rect id="SVGID_1_" x="114.466" y="336.075" width="7.046" height="7.044"/>
				</defs>
				<clipPath id="SVGID_2_">
					<use xlink:href="#SVGID_1_"  overflow="visible"/>
				</clipPath>
				<g clip-path="url(#SVGID_2_)">
					<defs>
						<rect id="SVGID_3_" x="114.466" y="336.075" width="7.048" height="7.044"/>
					</defs>
					<clipPath id="SVGID_4_">
						<use xlink:href="#SVGID_3_"  overflow="visible"/>
					</clipPath>
					<path clip-path="url(#SVGID_4_)" fill="#383838" d="M114.466,339.598c0-1.946,1.578-3.523,3.523-3.523
						c1.946,0,3.522,1.577,3.522,3.523s-1.576,3.523-3.522,3.523C116.044,343.121,114.466,341.544,114.466,339.598"/>
				</g>
			</g>
		</g>
		<path fill="#262626" d="M115.101,339.598c0-1.595,1.293-2.888,2.889-2.888c1.597,0,2.89,1.293,2.89,2.888
			c0,1.597-1.293,2.89-2.89,2.89C116.394,342.487,115.101,341.194,115.101,339.598"/>
		<path fill="#262626" d="M121.536,271.992c0,0.162-0.133,0.294-0.293,0.294h-6.404c-0.162,0-0.293-0.133-0.293-0.294v-0.367
			c0-0.162,0.131-0.292,0.293-0.292h6.404c0.16,0,0.293,0.131,0.293,0.292V271.992z"/>
		<path fill="#262626" d="M117.194,269.035c0-0.468,0.379-0.847,0.846-0.847s0.846,0.378,0.846,0.847
			c0,0.467-0.379,0.845-0.846,0.845S117.194,269.502,117.194,269.035"/>
		<path fill="#262626" d="M112.513,271.824c0-0.308,0.249-0.559,0.559-0.559c0.308,0,0.557,0.251,0.557,0.559
			s-0.249,0.557-0.557,0.557C112.762,272.381,112.513,272.131,112.513,271.824"/>
		<path fill="#F2C897" d="M112.386,364.979H94.069l-6.323-19.128l3.674-24.482l6.198-4.98L97.679,328l3.238-5.837l18.914-5.553
			c0,0,9.049,8.668-8.854,14.908l-2.408,5.191c0,0,9.872,2.2,8.793,13.923C117.362,350.633,116.661,357.991,112.386,364.979"/>
		<polygon fill="#DB504A" points="92.462,368.154 123.518,368.154 121.948,378.614 93.604,378.614 		"/>
		<rect x="103.354" y="280.984" fill="#8DC249" width="29.371" height="8.671"/>
	</g>
	<g>
		<rect x="352.74" y="362.594" fill="#846535" width="27.412" height="16.038"/>
		<path fill="#846535" d="M393.74,310.122l4.59-1.527c0,0,3.752,7.564-4.695,11.408"/>
		<path fill="#846535" d="M397.18,324.056l4.449,1.895c0,0-2.196,8.154-11.071,5.439"/>
		<path fill="#846535" d="M396.398,331.575l4.177,4.271c0,0-3.6,4.866-8.813,0.732"/>
		<path fill="#846535" d="M380.184,364.979c0,0,8.343-11.552,4.948-22.899H371.62l-0.562,22.899H380.184z"/>
		<path opacity="0.1" d="M375.598,344.911c0,0,1.873,6.118-4.54,20.068c0,0,10.937-9.855,9.73-23.511
			C380.789,341.469,375.231,343.452,375.598,344.911z"/>
		<path fill="#3A3A3A" d="M393.452,264.854H360.21c-2.217,0-4.078,1.638-4.078,3.856l0.217,32.992v8.443v5.23v10.1v15.593
			c0,2.217,1.863,3.843,4.08,3.843h0.062h8.242h24.501c2.218,0,3.839-1.626,3.839-3.843l0.217-72.358
			C397.29,266.493,395.668,264.854,393.452,264.854"/>
		<rect x="359.588" y="275.035" fill="#FFFFFF" width="34.244" height="58.77"/>
		<rect x="359.588" y="275.035" fill="#8DC249" width="34.244" height="2.859"/>
		<rect x="362.025" y="292.64" fill="#E73B2F" width="6.565" height="2.276"/>
		<rect x="362.025" y="298.039" fill="#E73B2F" width="29.371" height="0.569"/>
		<rect x="362.025" y="300.788" fill="#BFBFBF" width="6.565" height="2.275"/>
		<rect x="362.025" y="306.187" fill="#BFBFBF" width="29.371" height="0.569"/>
		<rect x="362.025" y="308.936" fill="#BFBFBF" width="6.565" height="2.276"/>
		<rect x="362.025" y="314.335" fill="#BFBFBF" width="29.371" height="0.568"/>
		<rect x="362.025" y="317.083" fill="#BFBFBF" width="6.565" height="2.275"/>
		<rect x="362.025" y="322.481" fill="#BFBFBF" width="29.371" height="0.569"/>
		<rect x="359.588" y="329.231" fill="#BFBFBF" width="34.244" height="4.573"/>
		<g opacity="0.4">
			<g>
				<defs>
					<rect id="SVGID_5_" x="373.137" y="336.075" width="7.047" height="7.044"/>
				</defs>
				<clipPath id="SVGID_6_">
					<use xlink:href="#SVGID_5_"  overflow="visible"/>
				</clipPath>
				<g clip-path="url(#SVGID_6_)">
					<defs>
						<rect id="SVGID_7_" x="373.137" y="336.075" width="7.048" height="7.044"/>
					</defs>
					<clipPath id="SVGID_8_">
						<use xlink:href="#SVGID_7_"  overflow="visible"/>
					</clipPath>
					<path clip-path="url(#SVGID_8_)" fill="#383838" d="M373.137,339.598c0-1.946,1.579-3.523,3.523-3.523
						c1.946,0,3.523,1.577,3.523,3.523s-1.577,3.523-3.523,3.523C374.716,343.121,373.137,341.544,373.137,339.598"/>
				</g>
			</g>
		</g>
		<path fill="#262626" d="M373.771,339.598c0-1.595,1.293-2.888,2.89-2.888c1.596,0,2.888,1.293,2.888,2.888
			c0,1.597-1.292,2.89-2.888,2.89C375.064,342.487,373.771,341.194,373.771,339.598"/>
		<path fill="#262626" d="M380.205,271.992c0,0.162-0.131,0.294-0.292,0.294h-6.402c-0.163,0-0.294-0.133-0.294-0.294v-0.367
			c0-0.162,0.131-0.292,0.294-0.292h6.402c0.161,0,0.292,0.131,0.292,0.292V271.992z"/>
		<path fill="#262626" d="M375.865,269.035c0-0.468,0.379-0.847,0.846-0.847s0.846,0.378,0.846,0.847
			c0,0.467-0.379,0.845-0.846,0.845S375.865,269.502,375.865,269.035"/>
		<path fill="#262626" d="M371.184,271.824c0-0.308,0.249-0.559,0.558-0.559c0.308,0,0.558,0.251,0.558,0.559
			s-0.25,0.557-0.558,0.557C371.433,272.381,371.184,272.131,371.184,271.824"/>
		<path fill="#846535" d="M371.058,364.979H352.74l-6.323-19.128l3.674-24.482l6.197-4.98L356.349,328l3.239-5.837l18.912-5.553
			c0,0,9.053,8.668-8.854,14.908l-2.407,5.191c0,0,9.873,2.2,8.793,13.923C376.033,350.633,375.332,357.991,371.058,364.979"/>
		<polygon fill="#1B9AAA" points="351.131,368.154 382.19,368.154 380.619,378.614 352.275,378.614 		"/>
		<rect x="362.025" y="280.984" fill="#8DC249" width="29.371" height="8.671"/>
	</g>
	<polygon fill="#727272" points="183.774,205.644 181.042,204.948 181.447,217.274 183.774,217.274 	"/>
	<polygon fill="#727272" points="183.774,220.585 181.042,219.89 181.447,232.216 183.774,232.216 	"/>
	<polygon fill="#727272" points="298.341,191.048 300.784,190.094 300.424,207 298.341,207 	"/>
	<polygon opacity="0.2" points="297.547,191.006 298.575,190.605 298.575,207 297.503,207 	"/>
	<polygon fill="#727272" points="183.013,183.275 181.053,182.908 181.346,189.432 183.013,189.432 	"/>
	<g>
		<path fill="#808782" d="M202.199,378.632h16.542h68.008c6.159,0,11.562-4.515,11.562-10.671l0.603-200.854
			c0-6.157-5.402-10.705-11.558-10.705h-92.268c-6.155,0-12.232,4.548-12.232,10.705l0.605,91.58v23.438v14.518v28.037v43.28
			c0,6.156,6.074,10.671,12.229,10.671H202.199z"/>
	</g>
	<path fill="#3A3A3A" d="M286.833,157.659h-91.23c-6.084,0-11.198,4.497-11.198,10.584l0.598,90.545v23.172v14.355v27.719v42.79
		c0,6.088,5.112,10.55,11.198,10.55h0.169h22.622h67.241c6.086,0,10.533-4.462,10.533-10.55l0.6-198.582
		C297.366,162.155,292.917,157.659,286.833,157.659"/>
	<g opacity="0.4">
		<g>
			<defs>
				<rect id="SVGID_9_" x="231.08" y="355.448" width="19.339" height="19.326"/>
			</defs>
			<clipPath id="SVGID_10_">
				<use xlink:href="#SVGID_9_"  overflow="visible"/>
			</clipPath>
			<g clip-path="url(#SVGID_10_)">
				<defs>
					<rect id="SVGID_11_" x="231.08" y="355.448" width="19.339" height="19.326"/>
				</defs>
				<clipPath id="SVGID_12_">
					<use xlink:href="#SVGID_11_"  overflow="visible"/>
				</clipPath>
				<path clip-path="url(#SVGID_12_)" fill="#727272" d="M232.022,365.113c0-4.823,3.906-8.729,8.726-8.729s8.728,3.906,8.728,8.729
					c0,4.821-3.908,8.728-8.728,8.728S232.022,369.935,232.022,365.113"/>
			</g>
		</g>
	</g>
	<path fill="#111111" d="M233.253,365.113c0-4.14,3.354-7.492,7.494-7.492c4.143,0,7.496,3.353,7.496,7.492
		c0,4.139-3.354,7.492-7.496,7.492C236.607,372.605,233.253,369.252,233.253,365.113"/>
	<path fill="#3A3A3A" d="M233.253,365.113c0-4.14,3.354-7.492,7.494-7.492c4.143,0,7.496,3.353,7.496,7.492
		c0,4.139-3.354,7.492-7.496,7.492C236.607,372.605,233.253,369.252,233.253,365.113"/>
	<rect x="190.994" y="182.12" fill="#197278" width="99.783" height="168.835"/>
	<g>
		<circle fill="#C2E812" cx="240.885" cy="266.538" r="31.175"/>
		<g>
			<polygon fill="#FFFFFF" points="232.541,271.76 233.233,275.209 236.521,275.424 249.538,261.042 249.326,257.623 
				245.564,257.657 			"/>
			<polygon fill="#FFFFFF" points="237.247,264.315 228.25,274.638 228.87,278.913 234.179,279.6 243.416,269.95 244.379,275.947 
				236.315,284.496 224.614,283.515 223.119,271.641 231.833,262.711 			"/>
			<polygon fill="#FFFFFF" points="237.918,263.745 247.691,253.542 252.053,254.148 252.998,258.644 243.967,269.192 
				251.206,269.192 258.651,260.022 256.375,249.819 244.379,248.579 236.662,256.715 			"/>
		</g>
	</g>
	<polygon fill="#FFFFFF" points="216.884,230.714 213.769,244.488 200.049,245.284 214.102,247.681 215.347,262.156 218.256,247.64 
		231.292,245.832 218.202,243.727 	"/>
	<rect x="190.994" y="350.955" opacity="0.2" fill="#CECECE" width="99.783" height="1.219"/>
	<path fill="#262626" d="M250.478,173.253c0,0.445-0.361,0.806-0.807,0.806h-17.573c-0.442,0-0.806-0.361-0.806-0.806v-1.006
		c0-0.443,0.363-0.805,0.806-0.805h17.573c0.445,0,0.807,0.361,0.807,0.805V173.253z"/>
	<path fill="#262626" d="M239.297,165.229c0-0.875,0.712-1.587,1.586-1.587c0.878,0,1.586,0.711,1.586,1.587
		c0,0.876-0.708,1.583-1.586,1.583C240.009,166.812,239.297,166.105,239.297,165.229"/>
	<g>
		<path fill="#262626" d="M225.597,172.752c0-0.912,0.737-1.651,1.651-1.651c0.911,0,1.651,0.739,1.651,1.651
			s-0.74,1.649-1.651,1.649C226.334,174.401,225.597,173.664,225.597,172.752"/>
	</g>
	<path opacity="0.05" fill="#FFFFFF" d="M294.122,160.432c-1.854-1.737-4.381-2.773-7.288-2.773h-91.23
		c-6.084,0-11.198,4.497-11.198,10.584l0.598,90.545v23.172v14.355v27.719v42.79c0,4.042,2.26,7.356,5.556,9.137l103.499-214.919
		C294.078,160.831,294.1,160.638,294.122,160.432z"/>
	<g opacity="0.5">
		<rect x="148.802" y="202.433" fill="#FFFFFF" width="2.758" height="14.441"/>
		<rect x="142.959" y="208.275" fill="#FFFFFF" width="14.441" height="2.758"/>
	</g>
	<g opacity="0.3">
		<rect x="318.314" y="179.147" fill="#FFFFFF" width="1.438" height="7.521"/>
		<rect x="315.272" y="182.189" fill="#FFFFFF" width="7.521" height="1.437"/>
	</g>
	<g opacity="0.3">
		<rect x="390.017" y="223.494" fill="#FFFFFF" width="2.758" height="14.441"/>
		<rect x="384.175" y="229.335" fill="#FFFFFF" width="14.44" height="2.758"/>
	</g>
	<g opacity="0.3">
		<rect x="119.501" y="143.217" fill="#FFFFFF" width="2.758" height="14.441"/>
		<rect x="113.659" y="149.059" fill="#FFFFFF" width="14.441" height="2.758"/>
	</g>
	<g opacity="0.3">
		<rect x="335.675" y="215.254" fill="#FFFFFF" width="1.437" height="7.521"/>
		<rect x="332.633" y="218.297" fill="#FFFFFF" width="7.521" height="1.437"/>
	</g>
	<g opacity="0.3">
		<rect x="93.351" y="219.015" fill="#FFFFFF" width="1.437" height="7.521"/>
		<rect x="90.309" y="222.057" fill="#FFFFFF" width="7.521" height="1.437"/>
	</g>
	<g opacity="0.5">
		<rect x="322.075" y="259.015" fill="#FFFFFF" width="1.437" height="7.521"/>
		<rect x="319.032" y="262.058" fill="#FFFFFF" width="7.521" height="1.437"/>
	</g>
	<g opacity="0.5">
		<rect x="369.679" y="143.217" fill="#FFFFFF" width="2.758" height="14.441"/>
		<rect x="363.836" y="149.059" fill="#FFFFFF" width="14.441" height="2.758"/>
	</g>
	<path opacity="0.5" fill="#FFFFFF" d="M150.2,276.213c0,0.771-0.626,1.901-1.398,1.901s-1.398-1.13-1.398-1.901
		c0-0.773,0.626-1.399,1.398-1.399S150.2,275.44,150.2,276.213z"/>
	<path opacity="0.3" fill="#FFFFFF" d="M373.239,186.122c0,1.678-1.36,4.134-3.04,4.134c-1.679,0-3.04-2.456-3.04-4.134
		c0-1.679,1.361-3.041,3.04-3.041C371.878,183.082,373.239,184.443,373.239,186.122z"/>
	<path opacity="0.3" fill="#FFFFFF" d="M109.676,188.555c0,1.678-1.36,4.133-3.039,4.133s-3.04-2.456-3.04-4.133
		c0-1.679,1.361-3.041,3.04-3.041S109.676,186.875,109.676,188.555z"/>
	<path opacity="0.3" fill="#FFFFFF" d="M172.589,260.664c0,1.678-1.36,4.133-3.039,4.133s-3.04-2.456-3.04-4.133
		c0-1.679,1.361-3.041,3.04-3.041S172.589,258.985,172.589,260.664z"/>
	<path opacity="0.3" fill="#FFFFFF" d="M348.433,278.482c0,1.113-0.901,2.743-2.017,2.743c-1.113,0-2.017-1.629-2.017-2.743
		c0-1.114,0.903-2.018,2.017-2.018C347.532,276.465,348.433,277.368,348.433,278.482z"/>
	<g opacity="0.5">
		<rect x="194.036" y="143.968" fill="#FFFFFF" width="1.438" height="7.521"/>
		<rect x="190.994" y="147.01" fill="#FFFFFF" width="7.521" height="1.437"/>
	</g>
	<g>
		<rect x="182.804" y="497.937" fill="#FF9F03" width="115.4" height="45.63"/>
		<g>
			<g>
				<path fill="#FFFFFF" d="M221.996,529.445h-1.305l-10.126-10.459v10.332h-3.555v-17.262h1.304l10.127,10.611v-10.482h3.555
					V529.445z"/>
				<path fill="#FFFFFF" d="M230.669,515.254v3.887h7.57v2.889h-7.57v4.145h8.567v3.145h-12.122v-17.133h12.122v3.068H230.669z"/>
				<path fill="#FFFFFF" d="M252.437,520.854l6.111,8.465h-4.476l-4.143-5.984l-4.04,5.984h-4.348l5.958-8.592l-5.958-8.541h4.475
					l4.016,6.213l4.04-6.213h4.476L252.437,520.854z"/>
				<path fill="#FFFFFF" d="M273.999,515.381h-5.473v13.859h-3.529v-13.859h-5.473v-3.195h14.475V515.381z"/>
			</g>
		</g>
	</g>
	<g opacity="0.5">
		<polygon fill="#FFFFFF" points="467.532,19.579 469.098,19.579 469.098,23.955 457.322,23.955 457.322,8.265 469.098,8.265 
			469.098,12.694 467.568,12.694 467.568,9.866 458.905,9.866 458.905,22.354 467.532,22.354 		"/>
		<polygon fill="#FFFFFF" points="463.383,15.037 463.383,17.219 469.857,17.219 469.857,19.733 474.743,16.114 469.857,12.499 
			469.857,14.965 		"/>
	</g>
</g>
</svg>
