<?xml version="1.0" encoding="utf-8"?>
<!-- Generator: Adobe Illustrator 16.0.0, SVG Export Plug-In . SVG Version: 6.00 Build 0)  -->
<!DOCTYPE svg PUBLIC "-//W3C//DTD SVG 1.1//EN" "http://www.w3.org/Graphics/SVG/1.1/DTD/svg11.dtd">
<svg version="1.1" id="Layer_1" xmlns="http://www.w3.org/2000/svg" xmlns:xlink="http://www.w3.org/1999/xlink" x="0px" y="0px"
	 width="481.009px" height="579.844px" viewBox="0 0 481.009 579.844" enable-background="new 0 0 481.009 579.844"
	 xml:space="preserve">
<g>
	<rect x="0" fill="#8EC14C" width="481.009" height="579.844"/>
	<g>
		<g>
			<path fill="#FFFFFF" d="M86.4,43.778h-5.316v13.464h-3.428V43.778h-5.316v-3.105H86.4V43.778z"/>
			<path fill="#FFFFFF" d="M104.16,40.672v16.644h-3.428v-6.757h-7.725v6.757h-3.453V40.672h3.453v6.782h7.725v-6.782H104.16z"/>
			<path fill="#FFFFFF" d="M112.581,43.653v3.776h7.353v2.807h-7.353v4.024h8.321v3.055h-11.774V40.672h11.774v2.981H112.581z"/>
			<path fill="#FFFFFF" d="M149.32,57.316h-3.453V46.883l-4.248,4.72h-1.02l-4.322-4.72v10.433h-3.453V40.548h1.516l6.758,7.179
				l6.707-7.179h1.516V57.316z"/>
			<path fill="#FFFFFF" d="M170.333,48.994c0,5.142-3.926,8.694-8.695,8.694s-8.719-3.552-8.719-8.694s3.949-8.694,8.719-8.694
				S170.333,43.852,170.333,48.994z M156.447,48.994c0,3.105,2.211,5.416,5.191,5.416c2.981,0,5.168-2.31,5.168-5.416
				c0-3.105-2.187-5.44-5.168-5.44C158.658,43.554,156.447,45.889,156.447,48.994z"/>
			<path fill="#FFFFFF" d="M183.597,57.316l-6.211-6.832v6.832h-3.453V40.672h6.758c3.105,0,6.285,1.714,6.285,5.391
				c0,2.882-2.36,4.596-5.068,4.819l6.235,6.434H183.597z M177.387,43.901V48.1c0.819,0.249,1.813,0.422,2.808,0.422
				c1.986,0,3.254-0.845,3.254-2.335c0-1.615-1.416-2.285-3.205-2.285L177.387,43.901z"/>
			<path fill="#FFFFFF" d="M194.328,43.653v3.776h7.353v2.807h-7.353v4.024h8.321v3.055h-11.774V40.672h11.774v2.981H194.328z"/>
			<path fill="#FFFFFF" d="M222.322,51.031v6.285h-3.527v-6.111l-6.459-10.533h4.049l4.148,7.005l4.174-7.005h4.049L222.322,51.031z
				"/>
			<path fill="#FFFFFF" d="M246.789,48.994c0,5.142-3.926,8.694-8.694,8.694c-4.77,0-8.72-3.552-8.72-8.694s3.95-8.694,8.72-8.694
				C242.863,40.3,246.789,43.852,246.789,48.994z M232.902,48.994c0,3.105,2.211,5.416,5.192,5.416s5.167-2.31,5.167-5.416
				c0-3.105-2.186-5.44-5.167-5.44S232.902,45.889,232.902,48.994z"/>
			<path fill="#FFFFFF" d="M264.525,50.733c0,4.347-3.156,6.93-7.18,6.93c-4.025,0-7.205-2.583-7.205-6.93V40.623h3.453v9.912
				c0,2.534,1.516,3.826,3.752,3.801s3.75-1.267,3.75-3.801v-9.912h3.43V50.733z"/>
			<path fill="#FFFFFF" d="M286.359,54.211h-6.584l-1.266,3.105h-4.051l7.752-16.768h1.713l7.752,16.768h-4.051L286.359,54.211z
				 M285.166,51.279l-2.086-5.092l-2.088,5.092H285.166z"/>
			<path fill="#FFFFFF" d="M308.962,57.44h-1.266l-9.838-10.16v10.036h-3.453V40.548h1.268l9.836,10.309V40.672h3.453V57.44z"/>
			<path fill="#FFFFFF" d="M329.181,48.895c0,4.918-3.254,8.744-8.619,8.744c-2.285,0-4.621-0.273-6.633-0.67V40.672h6.037
				C324.81,40.672,329.181,43.529,329.181,48.895z M317.382,43.902v10.21c0.994,0.199,2.137,0.273,3.08,0.273
				c3.428,0,5.191-2.26,5.191-5.366c0-3.329-2.582-5.117-5.813-5.117H317.382z"/>
			<path fill="#FFFFFF" d="M347.986,51.031v6.285h-3.527v-6.111L338,40.672h4.049l4.148,7.005l4.174-7.005h4.049L347.986,51.031z"/>
			<path fill="#FFFFFF" d="M372.453,48.994c0,5.142-3.924,8.694-8.693,8.694s-8.721-3.552-8.721-8.694s3.951-8.694,8.721-8.694
				S372.453,43.852,372.453,48.994z M358.568,48.994c0,3.105,2.209,5.416,5.191,5.416c2.98,0,5.166-2.31,5.166-5.416
				c0-3.105-2.186-5.44-5.166-5.44C360.777,43.554,358.568,45.889,358.568,48.994z"/>
			<path fill="#FFFFFF" d="M390.189,50.733c0,4.347-3.154,6.93-7.18,6.93c-4.023,0-7.203-2.583-7.203-6.93V40.623h3.453v9.912
				c0,2.534,1.516,3.826,3.75,3.801c2.236-0.025,3.752-1.267,3.752-3.801v-9.912h3.428V50.733z"/>
			<path fill="#FFFFFF" d="M404.572,57.316l-6.211-6.832v6.832h-3.453V40.672h6.758c3.104,0,6.283,1.714,6.283,5.391
				c0,2.882-2.359,4.596-5.066,4.819l6.234,6.434H404.572z M398.361,43.901V48.1c0.82,0.249,1.814,0.422,2.807,0.422
				c1.988,0,3.254-0.845,3.254-2.335c0-1.615-1.416-2.285-3.203-2.285L398.361,43.901z"/>
			<path fill="#FFFFFF" d="M39.74,87.838l-6.211-6.831v6.831h-3.453V71.195h6.758c3.104,0,6.284,1.714,6.284,5.391
				c0,2.882-2.36,4.596-5.067,4.819l6.234,6.434H39.74z M33.529,74.423v4.198c0.82,0.249,1.814,0.423,2.807,0.423
				c1.988,0,3.255-0.845,3.255-2.335c0-1.614-1.416-2.285-3.204-2.285L33.529,74.423z"/>
			<path fill="#FFFFFF" d="M50.469,74.176v3.775h7.353v2.808h-7.353v4.023h8.321v3.056H47.016V71.195h11.774v2.981H50.469z"/>
			<path fill="#FFFFFF" d="M66.714,74.3v4.198h6.533v3.104h-6.533v6.235h-3.453V71.195h11.353V74.3H66.714z"/>
			<path fill="#FFFFFF" d="M82.488,74.176v3.775h7.353v2.808h-7.353v4.023h8.321v3.056H79.035V71.195h11.774v2.981H82.488z"/>
			<path fill="#FFFFFF" d="M104.943,87.838l-6.211-6.831v6.831h-3.453V71.195h6.758c3.105,0,6.285,1.714,6.285,5.391
				c0,2.882-2.36,4.596-5.068,4.819l6.235,6.434H104.943z M98.733,74.423v4.198c0.819,0.249,1.813,0.423,2.808,0.423
				c1.986,0,3.254-0.845,3.254-2.335c0-1.614-1.416-2.285-3.205-2.285L98.733,74.423z"/>
			<path fill="#FFFFFF" d="M121.883,87.838l-6.21-6.831v6.831h-3.453V71.195h6.756c3.105,0,6.285,1.714,6.285,5.391
				c0,2.882-2.359,4.596-5.067,4.819l6.235,6.434H121.883z M115.673,74.423v4.198c0.82,0.249,1.813,0.423,2.807,0.423
				c1.987,0,3.254-0.845,3.254-2.335c0-1.614-1.416-2.285-3.204-2.285L115.673,74.423z"/>
			<path fill="#FFFFFF" d="M138.824,84.733h-6.583l-1.267,3.105h-4.049l7.75-16.768h1.714l7.751,16.768h-4.049L138.824,84.733z
				 M137.63,81.802l-2.086-5.093l-2.087,5.093H137.63z"/>
			<path fill="#FFFFFF" d="M150.324,84.733h8.322v3.105h-11.775V71.195h3.453V84.733z"/>
			<path fill="#FFFFFF" d="M171.884,72.188v3.403c-1.192-0.745-2.509-1.49-4.223-1.49c-1.292,0-2.732,0.547-2.732,1.813
				c0,1.093,1.093,1.516,2.484,2.087l2.036,0.845c2.335,0.993,3.378,2.409,3.378,4.247c0,2.957-2.855,5.068-6.309,5.068
				c-1.938,0-3.801-0.795-5.143-1.739v-3.403c1.441,1.043,3.229,1.888,5.217,1.888c1.391,0,2.533-0.546,2.533-1.64
				c0-0.869-0.969-1.391-1.938-1.738l-2.559-0.994c-2.583-0.993-3.303-2.683-3.303-4.62c0-3.056,2.807-5.043,5.912-5.043
				C169.177,70.872,170.816,71.493,171.884,72.188z"/>
			<path fill="#FFFFFF" d="M187.21,84.733h8.322v3.105h-11.775V71.195h3.453V84.733z"/>
			<path fill="#FFFFFF" d="M203.033,74.176v3.775h7.354v2.808h-7.354v4.023h8.322v3.056H199.58V71.195h11.775v2.981H203.033z"/>
			<path fill="#FFFFFF" d="M223.054,87.962h-1.714l-7.751-16.768h4.049l4.547,11.005l4.57-11.005h4.049L223.054,87.962z"/>
			<path fill="#FFFFFF" d="M236.989,74.176v3.775h7.353v2.808h-7.353v4.023h8.321v3.056h-11.774V71.195h11.774v2.981H236.989z"/>
			<path fill="#FFFFFF" d="M253.234,84.733h8.322v3.105h-11.775V71.195h3.453V84.733z"/>
			<path fill="#FFFFFF" d="M287.191,81.255c0,4.348-3.154,6.931-7.18,6.931c-4.023,0-7.203-2.583-7.203-6.931v-10.11h3.453v9.912
				c0,2.533,1.516,3.825,3.75,3.8c2.236-0.024,3.752-1.267,3.752-3.8v-9.912h3.428V81.255z"/>
			<path fill="#FFFFFF" d="M304.951,77.132c0,3.403-2.881,5.738-6.209,5.738c-1.49,0-2.709-0.348-3.504-0.745v5.713h-3.451V71.195
				h6.881C301.771,71.195,304.951,73.456,304.951,77.132z M301.423,77.132c0-1.739-1.539-2.708-3.328-2.708h-2.857v4.919
				c0.746,0.298,1.84,0.546,2.932,0.546C300.158,79.889,301.423,78.672,301.423,77.132z"/>
			<path fill="#FFFFFF" d="M311.533,85.677l-2.482,6.26l-2.287-0.397l1.988-6.558L311.533,85.677z"/>
			<path fill="#FFFFFF" d="M335.181,74.3h-5.316v13.464h-3.428V74.3h-5.316v-3.105h14.061V74.3z"/>
			<path fill="#FFFFFF" d="M352.943,71.195v16.644h-3.43v-6.757h-7.725v6.757h-3.453V71.195h3.453v6.782h7.725v-6.782H352.943z"/>
			<path fill="#FFFFFF" d="M361.361,74.176v3.775h7.354v2.808h-7.354v4.023h8.322v3.056h-11.775V71.195h11.775v2.981H361.361z"/>
			<path fill="#FFFFFF" d="M398.101,87.838h-3.453V77.406l-4.248,4.72h-1.018l-4.322-4.72v10.433h-3.453V71.071h1.514l6.758,7.179
				l6.707-7.179h1.516V87.838z"/>
			<path fill="#FFFFFF" d="M419.115,79.517c0,5.142-3.926,8.694-8.695,8.694s-8.719-3.553-8.719-8.694
				c0-5.143,3.949-8.694,8.719-8.694S419.115,74.375,419.115,79.517z M405.228,79.517c0,3.104,2.211,5.415,5.191,5.415
				s5.168-2.311,5.168-5.415c0-3.105-2.188-5.44-5.168-5.44S405.228,76.412,405.228,79.517z"/>
			<path fill="#FFFFFF" d="M432.378,87.838l-6.209-6.831v6.831h-3.453V71.195h6.756c3.105,0,6.285,1.714,6.285,5.391
				c0,2.882-2.359,4.596-5.068,4.819l6.236,6.434H432.378z M426.169,74.423v4.198c0.818,0.249,1.813,0.423,2.807,0.423
				c1.986,0,3.254-0.845,3.254-2.335c0-1.614-1.416-2.285-3.205-2.285L426.169,74.423z"/>
			<path fill="#FFFFFF" d="M443.109,74.176v3.775h7.354v2.808h-7.354v4.023h8.322v3.056h-11.775V71.195h11.775v2.981H443.109z"/>
			<path fill="#FFFFFF" d="M180.492,112.078v6.284h-3.527v-6.11l-6.458-10.533h4.049l4.149,7.006l4.172-7.006h4.05L180.492,112.078z
				"/>
			<path fill="#FFFFFF" d="M204.959,110.041c0,5.142-3.925,8.694-8.694,8.694s-8.719-3.553-8.719-8.694
				c0-5.143,3.949-8.694,8.719-8.694S204.959,104.898,204.959,110.041z M191.074,110.041c0,3.104,2.211,5.415,5.191,5.415
				s5.167-2.311,5.167-5.415c0-3.105-2.187-5.44-5.167-5.44S191.074,106.935,191.074,110.041z"/>
			<path fill="#FFFFFF" d="M222.695,111.779c0,4.348-3.154,6.931-7.18,6.931c-4.023,0-7.203-2.583-7.203-6.931v-10.11h3.453v9.912
				c0,2.533,1.516,3.825,3.75,3.8c2.236-0.024,3.752-1.267,3.752-3.8v-9.912h3.428V111.779z"/>
			<path fill="#FFFFFF" d="M238.318,104.7v3.775h7.354v2.808h-7.354v4.023h8.322v3.056h-11.775v-16.644h11.775v2.981H238.318z"/>
			<path fill="#FFFFFF" d="M260.773,115.256h-6.582l-1.268,3.105h-4.049l7.75-16.768h1.715l7.75,16.768h-4.049L260.773,115.256z
				 M259.582,112.326l-2.088-5.093l-2.086,5.093H259.582z"/>
			<path fill="#FFFFFF" d="M278.484,118.362l-6.209-6.831v6.831h-3.453v-16.644h6.756c3.105,0,6.285,1.714,6.285,5.391
				c0,2.882-2.359,4.596-5.068,4.819l6.236,6.434H278.484z M272.275,104.947v4.198c0.818,0.249,1.813,0.423,2.807,0.423
				c1.986,0,3.254-0.845,3.254-2.335c0-1.614-1.416-2.285-3.205-2.285L272.275,104.947z"/>
			<path fill="#FFFFFF" d="M300.318,118.486h-1.266l-9.838-10.16v10.036h-3.453v-16.768h1.268l9.836,10.31v-10.186h3.453V118.486z"
				/>
			<path fill="#FFFFFF" d="M308.763,116.822c0,1.093-0.895,2.012-1.988,2.012c-1.092,0-1.986-0.919-1.986-2.012
				s0.895-1.987,1.986-1.987C307.869,114.834,308.763,115.729,308.763,116.822z M308.166,112.649h-2.781v-10.931h2.781V112.649z"/>
		</g>
	</g>
	<g>
		<g>
			<path fill="#FFFFFF" d="M37.154,407.688v2.915h4.775v1.245h-4.775v3.164h5.405v1.245h-6.724v-9.814h6.724v1.245H37.154z"/>
			<path fill="#FFFFFF" d="M47.994,416.258h-0.747l-3.296-7.324h1.436l2.212,5.391L50,408.934h1.436L47.994,416.258z"/>
			<path fill="#FFFFFF" d="M59.141,413.064h-5.625c0.176,1.23,1.143,2.241,2.549,2.241c1.055,0,1.714-0.483,2.197-0.835v1.216
				c-0.293,0.293-1.055,0.791-2.197,0.791c-2.227,0-3.823-1.758-3.823-3.838s1.465-3.853,3.53-3.853c2.256,0,3.369,1.553,3.369,3.56
				V413.064z M57.955,412.039c-0.146-1.421-1.157-2.08-2.183-2.08c-1.201,0-2.021,0.923-2.227,2.08H57.955z"/>
			<path fill="#FFFFFF" d="M65.469,408.992v1.436c-0.308-0.234-0.688-0.381-1.069-0.381c-0.996,0-1.538,0.806-2.08,1.787v4.424
				h-1.201v-7.324h1.201v1.465c0.557-0.967,1.421-1.611,2.256-1.611C64.913,408.787,65.206,408.86,65.469,408.992z"/>
			<path fill="#FFFFFF" d="M73.907,408.934l-5.391,10.84h-1.392l2.095-3.955l-3.237-6.885h1.436l2.563,5.391l2.49-5.391H73.907z"/>
			<path fill="#FFFFFF" d="M81.788,408.934h2.139v1.128h-2.139v4.292c0,0.615,0.308,0.981,0.952,0.981
				c0.586,0,0.952-0.176,1.245-0.352v0.981c-0.396,0.308-0.776,0.513-1.509,0.513c-1.245,0-1.89-0.82-1.89-2.065v-4.351H79.18
				v-0.352c0.952-0.425,1.567-1.436,2.051-2.886h0.557V408.934z"/>
			<path fill="#FFFFFF" d="M88.028,408.934v7.324h-1.201v-6.196h-1.157v-1.128H88.028z M86.285,406.414
				c0-0.527,0.425-0.996,0.996-0.996c0.557,0,0.996,0.469,0.996,0.996c0,0.513-0.439,0.996-0.996,0.996
				C86.709,407.41,86.285,406.927,86.285,406.414z"/>
			<path fill="#FFFFFF" d="M101.929,411.79v4.468h-1.201l-0.015-4.351c0-1.26-0.688-1.948-1.846-1.948
				c-0.85,0-1.436,0.615-1.992,1.318v4.98h-1.201l-0.015-4.351c0-1.26-0.688-1.948-1.846-1.948c-0.806,0-1.45,0.542-1.992,1.201
				v5.098h-1.201v-7.324h1.201v0.938c0.469-0.527,1.201-1.084,2.197-1.084c1.055,0,2.036,0.498,2.534,1.494
				c0.688-0.806,1.436-1.494,2.52-1.494C100.567,408.787,101.929,409.769,101.929,411.79z"/>
			<path fill="#FFFFFF" d="M110.586,413.064h-5.625c0.176,1.23,1.143,2.241,2.549,2.241c1.055,0,1.714-0.483,2.197-0.835v1.216
				c-0.293,0.293-1.055,0.791-2.197,0.791c-2.227,0-3.823-1.758-3.823-3.838s1.465-3.853,3.53-3.853c2.256,0,3.369,1.553,3.369,3.56
				V413.064z M109.4,412.039c-0.146-1.421-1.157-2.08-2.183-2.08c-1.201,0-2.021,0.923-2.227,2.08H109.4z"/>
			<path fill="#FFFFFF" d="M123.858,408.934l-5.391,10.84h-1.392l2.095-3.955l-3.237-6.885h1.436l2.563,5.391l2.49-5.391H123.858z"
				/>
			<path fill="#FFFFFF" d="M132.457,412.64c0,2.08-1.597,3.838-3.823,3.838s-3.823-1.758-3.823-3.838s1.597-3.853,3.823-3.853
				S132.457,410.56,132.457,412.64z M126.055,412.64c0,1.421,1.011,2.666,2.578,2.666s2.578-1.245,2.578-2.666
				s-1.011-2.681-2.578-2.681S126.055,411.219,126.055,412.64z"/>
			<path fill="#FFFFFF" d="M140.425,413.27c0,1.934-1.348,3.135-3.105,3.135s-3.105-1.201-3.105-3.135v-4.336h1.245v4.336
				c0,1.274,0.879,1.963,1.86,1.963s1.86-0.688,1.86-1.963v-4.336h1.245V413.27z"/>
			<path fill="#FFFFFF" d="M147.046,408.992v1.436c-0.308-0.234-0.688-0.381-1.069-0.381c-0.996,0-1.538,0.806-2.08,1.787v4.424
				h-1.201v-7.324h1.201v1.465c0.557-0.967,1.421-1.611,2.256-1.611C146.49,408.787,146.783,408.86,147.046,408.992z"/>
			<path fill="#FFFFFF" d="M157.33,408.992v1.436c-0.308-0.234-0.688-0.381-1.069-0.381c-0.996,0-1.538,0.806-2.08,1.787v4.424
				h-1.201v-7.324h1.201v1.465c0.557-0.967,1.421-1.611,2.256-1.611C156.773,408.787,157.066,408.86,157.33,408.992z"/>
			<path fill="#FFFFFF" d="M165.254,413.064h-5.625c0.176,1.23,1.143,2.241,2.549,2.241c1.055,0,1.714-0.483,2.197-0.835v1.216
				c-0.293,0.293-1.055,0.791-2.197,0.791c-2.227,0-3.823-1.758-3.823-3.838s1.465-3.853,3.53-3.853c2.256,0,3.369,1.553,3.369,3.56
				V413.064z M164.068,412.039c-0.146-1.421-1.157-2.08-2.183-2.08c-1.201,0-2.021,0.923-2.227,2.08H164.068z"/>
			<path fill="#FFFFFF" d="M168.887,408.128v0.806h2.139v1.128h-2.139v6.196h-1.201v-6.196h-1.157v-1.128h1.157v-0.938
				c0-1.714,1.172-2.505,2.271-2.505c0.498,0,0.923,0.146,1.216,0.396v1.055c-0.293-0.19-0.732-0.322-1.143-0.308
				C169.312,406.663,168.887,407.044,168.887,408.128z"/>
			<path fill="#FFFFFF" d="M179.009,413.064h-5.625c0.176,1.23,1.143,2.241,2.549,2.241c1.055,0,1.714-0.483,2.197-0.835v1.216
				c-0.293,0.293-1.055,0.791-2.197,0.791c-2.227,0-3.823-1.758-3.823-3.838s1.465-3.853,3.53-3.853c2.256,0,3.369,1.553,3.369,3.56
				V413.064z M177.823,412.039c-0.146-1.421-1.157-2.08-2.183-2.08c-1.201,0-2.021,0.923-2.227,2.08H177.823z"/>
			<path fill="#FFFFFF" d="M185.337,408.992v1.436c-0.308-0.234-0.688-0.381-1.069-0.381c-0.996,0-1.538,0.806-2.08,1.787v4.424
				h-1.201v-7.324h1.201v1.465c0.557-0.967,1.421-1.611,2.256-1.611C184.781,408.787,185.074,408.86,185.337,408.992z"/>
			<path fill="#FFFFFF" d="M191.226,408.992v1.436c-0.308-0.234-0.688-0.381-1.069-0.381c-0.996,0-1.538,0.806-2.08,1.787v4.424
				h-1.201v-7.324h1.201v1.465c0.557-0.967,1.421-1.611,2.256-1.611C190.669,408.787,190.962,408.86,191.226,408.992z"/>
			<path fill="#FFFFFF" d="M198.184,409.915v-0.981h1.201v7.324h-1.201v-1.244c-0.513,0.775-1.406,1.464-2.52,1.464
				c-1.89,0-3.413-1.538-3.413-3.765c0-2.417,1.523-3.926,3.53-3.926C196.617,408.787,197.554,409.212,198.184,409.915z
				 M193.497,412.713c0,1.421,0.938,2.593,2.358,2.593c1.333,0,2.344-1.157,2.329-2.725l-0.015-1.406
				c-0.615-0.762-1.274-1.216-2.168-1.216C194.434,409.959,193.497,411.292,193.497,412.713z"/>
			<path fill="#FFFFFF" d="M203.077,416.258h-1.201v-10.547h1.201V416.258z"/>
			<path fill="#FFFFFF" d="M209.756,409.344v1.289c-0.41-0.308-1.187-0.674-1.919-0.674c-0.923,0-1.377,0.527-1.377,0.996
				c0,0.366,0.22,0.791,0.894,1.025l1.23,0.439c0.952,0.337,1.421,0.981,1.421,1.816c0,1.245-1.128,2.241-2.695,2.241
				c-0.864,0-1.919-0.396-2.256-0.645v-1.289c0.41,0.308,1.436,0.762,2.168,0.762c0.923,0,1.494-0.454,1.494-1.069
				c0-0.469-0.366-0.703-1.055-0.952l-1.084-0.396c-1.143-0.425-1.406-1.099-1.406-1.934c0-1.245,1.011-2.168,2.578-2.168
				C208.614,408.787,209.419,409.095,209.756,409.344z"/>
			<path fill="#FFFFFF" d="M217.432,416.258h-1.201v-10.547h1.201V416.258z"/>
			<path fill="#FFFFFF" d="M226.309,413.064h-5.625c0.176,1.23,1.143,2.241,2.549,2.241c1.055,0,1.714-0.483,2.197-0.835v1.216
				c-0.293,0.293-1.055,0.791-2.197,0.791c-2.227,0-3.823-1.758-3.823-3.838s1.465-3.853,3.53-3.853c2.256,0,3.369,1.553,3.369,3.56
				V413.064z M225.123,412.039c-0.146-1.421-1.157-2.08-2.183-2.08c-1.201,0-2.021,0.923-2.227,2.08H225.123z"/>
			<path fill="#FFFFFF" d="M231.304,416.258h-0.747l-3.296-7.324h1.436l2.212,5.391l2.402-5.391h1.436L231.304,416.258z"/>
			<path fill="#FFFFFF" d="M242.452,413.064h-5.625c0.176,1.23,1.143,2.241,2.549,2.241c1.055,0,1.714-0.483,2.197-0.835v1.216
				c-0.293,0.293-1.055,0.791-2.197,0.791c-2.227,0-3.823-1.758-3.823-3.838s1.465-3.853,3.53-3.853c2.256,0,3.369,1.553,3.369,3.56
				V413.064z M241.265,412.039c-0.146-1.421-1.157-2.08-2.183-2.08c-1.201,0-2.021,0.923-2.227,2.08H241.265z"/>
			<path fill="#FFFFFF" d="M245.63,416.258h-1.201v-10.547h1.201V416.258z"/>
			<path fill="#FFFFFF" d="M258.506,413.27c0,1.934-1.348,3.135-3.105,3.135s-3.105-1.201-3.105-3.135v-4.336h1.245v4.336
				c0,1.274,0.879,1.963,1.86,1.963s1.86-0.688,1.86-1.963v-4.336h1.245V413.27z"/>
			<path fill="#FFFFFF" d="M267.911,412.479c0,2.417-1.523,3.999-3.53,3.999c-0.835,0-1.772-0.498-2.402-1.201v4.497h-1.201v-10.84
				h1.201v1.245c0.513-0.776,1.406-1.392,2.52-1.392C266.387,408.787,267.911,410.252,267.911,412.479z M261.978,412.61l0.015,1.406
				c0.615,0.762,1.274,1.289,2.168,1.289c1.567,0,2.505-1.406,2.505-2.827s-0.938-2.52-2.358-2.52
				C262.974,409.959,261.963,411.043,261.978,412.61z"/>
			<path fill="#FFFFFF" d="M271.602,414.939l-1.318,3.911l-0.908-0.234l1.025-4.087L271.602,414.939z"/>
			<path fill="#FFFFFF" d="M285.313,408.934l-5.391,10.84h-1.392l2.095-3.955l-3.237-6.885h1.436l2.563,5.391l2.49-5.391H285.313z"
				/>
			<path fill="#FFFFFF" d="M293.912,412.64c0,2.08-1.597,3.838-3.823,3.838s-3.823-1.758-3.823-3.838s1.597-3.853,3.823-3.853
				S293.912,410.56,293.912,412.64z M287.51,412.64c0,1.421,1.011,2.666,2.578,2.666s2.578-1.245,2.578-2.666
				s-1.011-2.681-2.578-2.681S287.51,411.219,287.51,412.64z"/>
			<path fill="#FFFFFF" d="M301.88,413.27c0,1.934-1.348,3.135-3.105,3.135s-3.105-1.201-3.105-3.135v-4.336h1.245v4.336
				c0,1.274,0.879,1.963,1.86,1.963s1.86-0.688,1.86-1.963v-4.336h1.245V413.27z"/>
			<path fill="#FFFFFF" d="M305.718,406.59l-1.611,3.765l-0.908-0.234l1.318-3.94L305.718,406.59z"/>
			<path fill="#FFFFFF" d="M308.458,416.258h-1.201v-10.547h1.201V416.258z"/>
			<path fill="#FFFFFF" d="M312.149,416.258h-1.201v-10.547h1.201V416.258z"/>
			<path fill="#FFFFFF" d="M320.235,410.179c0.513-0.776,1.406-1.392,2.52-1.392c1.89,0,3.413,1.465,3.413,3.691
				c0,2.417-1.523,3.999-3.53,3.999c-0.835,0-1.772-0.498-2.402-1.201v0.981h-1.201v-10.547h1.201V410.179z M320.235,412.61
				l0.015,1.406c0.615,0.762,1.274,1.289,2.168,1.289c1.567,0,2.505-1.406,2.505-2.827s-0.938-2.52-2.358-2.52
				C321.231,409.959,320.22,411.043,320.235,412.61z"/>
			<path fill="#FFFFFF" d="M334.532,413.064h-5.625c0.176,1.23,1.143,2.241,2.549,2.241c1.055,0,1.714-0.483,2.197-0.835v1.216
				c-0.293,0.293-1.055,0.791-2.197,0.791c-2.227,0-3.823-1.758-3.823-3.838s1.465-3.853,3.53-3.853c2.256,0,3.369,1.553,3.369,3.56
				V413.064z M333.345,412.039c-0.146-1.421-1.157-2.08-2.183-2.08c-1.201,0-2.021,0.923-2.227,2.08H333.345z"/>
			<path fill="#FFFFFF" d="M346.324,409.915v-0.981h1.201v7.324h-1.201v-1.244c-0.513,0.775-1.406,1.464-2.52,1.464
				c-1.89,0-3.413-1.538-3.413-3.765c0-2.417,1.523-3.926,3.53-3.926C344.756,408.787,345.694,409.212,346.324,409.915z
				 M341.636,412.713c0,1.421,0.938,2.593,2.358,2.593c1.333,0,2.344-1.157,2.329-2.725l-0.015-1.406
				c-0.615-0.762-1.274-1.216-2.168-1.216C342.574,409.959,341.636,411.292,341.636,412.713z"/>
			<path fill="#FFFFFF" d="M351.216,410.179c0.513-0.776,1.406-1.392,2.52-1.392c1.89,0,3.413,1.465,3.413,3.691
				c0,2.417-1.523,3.999-3.53,3.999c-0.835,0-1.772-0.498-2.402-1.201v0.981h-1.201v-10.547h1.201V410.179z M351.216,412.61
				l0.015,1.406c0.615,0.762,1.274,1.289,2.168,1.289c1.567,0,2.505-1.406,2.505-2.827s-0.938-2.52-2.358-2.52
				C352.212,409.959,351.202,411.043,351.216,412.61z"/>
			<path fill="#FFFFFF" d="M360.328,416.258h-1.201v-10.547h1.201V416.258z"/>
			<path fill="#FFFFFF" d="M369.205,413.064h-5.625c0.176,1.23,1.143,2.241,2.549,2.241c1.055,0,1.714-0.483,2.197-0.835v1.216
				c-0.293,0.293-1.055,0.791-2.197,0.791c-2.227,0-3.823-1.758-3.823-3.838s1.465-3.853,3.53-3.853c2.256,0,3.369,1.553,3.369,3.56
				V413.064z M368.018,412.039c-0.146-1.421-1.157-2.08-2.183-2.08c-1.201,0-2.021,0.923-2.227,2.08H368.018z"/>
			<path fill="#FFFFFF" d="M377.598,408.934h2.139v1.128h-2.139v4.292c0,0.615,0.308,0.981,0.952,0.981
				c0.586,0,0.952-0.176,1.245-0.352v0.981c-0.396,0.308-0.776,0.513-1.509,0.513c-1.245,0-1.89-0.82-1.89-2.065v-4.351h-1.406
				v-0.352c0.952-0.425,1.567-1.436,2.051-2.886h0.557V408.934z"/>
			<path fill="#FFFFFF" d="M389.053,412.64c0,2.08-1.597,3.838-3.823,3.838s-3.823-1.758-3.823-3.838s1.597-3.853,3.823-3.853
				S389.053,410.56,389.053,412.64z M382.652,412.64c0,1.421,1.011,2.666,2.578,2.666s2.578-1.245,2.578-2.666
				s-1.011-2.681-2.578-2.681S382.652,411.219,382.652,412.64z"/>
			<path fill="#FFFFFF" d="M399.776,408.992v1.436c-0.308-0.234-0.688-0.381-1.069-0.381c-0.996,0-1.538,0.806-2.08,1.787v4.424
				h-1.201v-7.324h1.201v1.465c0.557-0.967,1.421-1.611,2.256-1.611C399.219,408.787,399.512,408.86,399.776,408.992z"/>
			<path fill="#FFFFFF" d="M407.701,413.064h-5.625c0.176,1.23,1.143,2.241,2.549,2.241c1.055,0,1.714-0.483,2.197-0.835v1.216
				c-0.293,0.293-1.055,0.791-2.197,0.791c-2.227,0-3.823-1.758-3.823-3.838s1.465-3.853,3.53-3.853c2.256,0,3.369,1.553,3.369,3.56
				V413.064z M406.514,412.039c-0.146-1.421-1.157-2.08-2.183-2.08c-1.201,0-2.021,0.923-2.227,2.08H406.514z"/>
			<path fill="#FFFFFF" d="M415.098,409.916v-0.982h1.201v10.84h-1.201v-4.76c-0.513,0.775-1.406,1.464-2.52,1.464
				c-1.89,0-3.413-1.538-3.413-3.765c0-2.417,1.523-3.926,3.53-3.926C413.531,408.787,414.468,409.213,415.098,409.916z
				 M410.411,412.713c0,1.422,0.938,2.578,2.358,2.578c1.333,0,2.344-1.143,2.329-2.709l-0.015-1.406
				c-0.615-0.762-1.274-1.201-2.168-1.201C411.348,409.975,410.411,411.293,410.411,412.713z"/>
			<path fill="#FFFFFF" d="M424.781,413.27c0,1.934-1.348,3.135-3.105,3.135s-3.105-1.201-3.105-3.135v-4.336h1.245v4.336
				c0,1.274,0.879,1.963,1.86,1.963s1.86-0.688,1.86-1.963v-4.336h1.245V413.27z"/>
			<path fill="#FFFFFF" d="M433.438,413.064h-5.625c0.176,1.23,1.143,2.241,2.549,2.241c1.055,0,1.714-0.483,2.197-0.835v1.216
				c-0.293,0.293-1.055,0.791-2.197,0.791c-2.227,0-3.823-1.758-3.823-3.838s1.465-3.853,3.53-3.853c2.256,0,3.369,1.553,3.369,3.56
				V413.064z M432.251,412.039c-0.146-1.421-1.157-2.08-2.183-2.08c-1.201,0-2.021,0.923-2.227,2.08H432.251z"/>
			<path fill="#FFFFFF" d="M439.605,409.344v1.289c-0.41-0.308-1.187-0.674-1.919-0.674c-0.923,0-1.377,0.527-1.377,0.996
				c0,0.366,0.22,0.791,0.894,1.025l1.23,0.439c0.952,0.337,1.421,0.981,1.421,1.816c0,1.245-1.128,2.241-2.695,2.241
				c-0.864,0-1.919-0.396-2.256-0.645v-1.289c0.41,0.308,1.436,0.762,2.168,0.762c0.923,0,1.494-0.454,1.494-1.069
				c0-0.469-0.366-0.703-1.055-0.952l-1.084-0.396c-1.143-0.425-1.406-1.099-1.406-1.934c0-1.245,1.011-2.168,2.578-2.168
				C438.462,408.787,439.268,409.095,439.605,409.344z"/>
			<path fill="#FFFFFF" d="M443.707,408.934h2.139v1.128h-2.139v4.292c0,0.615,0.308,0.981,0.952,0.981
				c0.586,0,0.952-0.176,1.245-0.352v0.981c-0.396,0.308-0.776,0.513-1.509,0.513c-1.245,0-1.89-0.82-1.89-2.065v-4.351h-1.406
				v-0.352c0.952-0.425,1.567-1.436,2.051-2.886h0.557V408.934z"/>
			<path fill="#FFFFFF" d="M26.578,430.479c0,2.417-1.523,3.999-3.53,3.999c-0.835,0-1.772-0.498-2.402-1.201v4.497h-1.201v-10.84
				h1.201v1.245c0.513-0.776,1.406-1.392,2.52-1.392C25.054,426.787,26.578,428.252,26.578,430.479z M20.645,430.61l0.015,1.406
				c0.615,0.762,1.274,1.289,2.168,1.289c1.567,0,2.505-1.406,2.505-2.827s-0.938-2.52-2.358-2.52
				C21.641,427.959,20.63,429.043,20.645,430.61z"/>
			<path fill="#FFFFFF" d="M33.975,427.915v-0.981h1.201v7.324h-1.201v-1.245c-0.513,0.776-1.406,1.465-2.52,1.465
				c-1.89,0-3.413-1.538-3.413-3.765c0-2.417,1.523-3.926,3.53-3.926C32.408,426.787,33.345,427.212,33.975,427.915z
				 M29.288,430.713c0,1.421,0.938,2.593,2.358,2.593c1.333,0,2.344-1.157,2.329-2.725l-0.015-1.406
				c-0.615-0.762-1.274-1.216-2.168-1.216C30.225,427.959,29.288,429.292,29.288,430.713z"/>
			<path fill="#FFFFFF" d="M44.566,426.934l-5.391,10.84h-1.392l2.095-3.955l-3.237-6.885h1.436l2.563,5.391l2.49-5.391H44.566z"/>
			<path fill="#FFFFFF" d="M57.339,429.79v4.468h-1.201l-0.015-4.351c0-1.26-0.688-1.948-1.846-1.948
				c-0.85,0-1.436,0.615-1.992,1.318v4.98h-1.201l-0.015-4.351c0-1.26-0.688-1.948-1.846-1.948c-0.806,0-1.45,0.542-1.992,1.201
				v5.098h-1.201v-7.324h1.201v0.938c0.469-0.527,1.201-1.084,2.197-1.084c1.055,0,2.036,0.498,2.534,1.494
				c0.688-0.806,1.436-1.494,2.52-1.494C55.977,426.787,57.339,427.769,57.339,429.79z"/>
			<path fill="#FFFFFF" d="M65.997,431.064h-5.625c0.176,1.23,1.143,2.241,2.549,2.241c1.055,0,1.714-0.483,2.197-0.835v1.216
				c-0.293,0.293-1.055,0.791-2.197,0.791c-2.227,0-3.823-1.758-3.823-3.838s1.465-3.853,3.53-3.853c2.256,0,3.369,1.553,3.369,3.56
				V431.064z M64.81,430.039c-0.146-1.421-1.157-2.08-2.183-2.08c-1.201,0-2.021,0.923-2.227,2.08H64.81z"/>
			<path fill="#FFFFFF" d="M74.273,429.79v4.468h-1.201l-0.015-4.351c0-1.26-0.542-1.948-1.699-1.948
				c-0.776,0-1.597,0.674-2.183,1.436v4.863h-1.201v-7.324h1.201v1.157c0.454-0.571,1.392-1.304,2.388-1.304
				C73.057,426.787,74.273,427.769,74.273,429.79z"/>
			<path fill="#FFFFFF" d="M78.565,426.934h2.139v1.128h-2.139v4.292c0,0.615,0.308,0.981,0.952,0.981
				c0.586,0,0.952-0.176,1.245-0.352v0.981c-0.396,0.308-0.776,0.513-1.509,0.513c-1.245,0-1.89-0.82-1.89-2.065v-4.351h-1.406
				v-0.352c0.952-0.425,1.567-1.436,2.051-2.886h0.557V426.934z"/>
			<path fill="#FFFFFF" d="M88.936,426.128v0.806h2.139v1.128h-2.139v6.196h-1.201v-6.196h-1.157v-1.128h1.157v-0.938
				c0-1.714,1.172-2.505,2.271-2.505c0.498,0,0.923,0.146,1.216,0.396v1.055c-0.293-0.19-0.732-0.322-1.143-0.308
				C89.361,424.663,88.936,425.044,88.936,426.128z"/>
			<path fill="#FFFFFF" d="M99.805,430.64c0,2.08-1.597,3.838-3.823,3.838s-3.823-1.758-3.823-3.838s1.597-3.853,3.823-3.853
				S99.805,428.56,99.805,430.64z M93.404,430.64c0,1.421,1.011,2.666,2.578,2.666s2.578-1.245,2.578-2.666
				s-1.011-2.681-2.578-2.681S93.404,429.219,93.404,430.64z"/>
			<path fill="#FFFFFF" d="M106.133,426.992v1.436c-0.308-0.234-0.688-0.381-1.069-0.381c-0.996,0-1.538,0.806-2.08,1.787v4.424
				h-1.201v-7.324h1.201v1.465c0.557-0.967,1.421-1.611,2.256-1.611C105.577,426.787,105.87,426.86,106.133,426.992z"/>
			<path fill="#FFFFFF" d="M114.087,426.934h2.139v1.128h-2.139v4.292c0,0.615,0.308,0.981,0.952,0.981
				c0.586,0,0.952-0.176,1.245-0.352v0.981c-0.396,0.308-0.776,0.513-1.509,0.513c-1.245,0-1.89-0.82-1.89-2.065v-4.351h-1.406
				v-0.352c0.952-0.425,1.567-1.436,2.051-2.886h0.557V426.934z"/>
			<path fill="#FFFFFF" d="M124.708,429.79v4.468h-1.201l-0.015-4.351c0-1.26-0.542-1.948-1.699-1.948
				c-0.776,0-1.597,0.674-2.183,1.436v4.863h-1.201v-10.547h1.201v4.38c0.454-0.571,1.392-1.304,2.388-1.304
				C123.492,426.787,124.708,427.769,124.708,429.79z"/>
			<path fill="#FFFFFF" d="M133.365,431.064h-5.625c0.176,1.23,1.143,2.241,2.549,2.241c1.055,0,1.714-0.483,2.197-0.835v1.216
				c-0.293,0.293-1.055,0.791-2.197,0.791c-2.227,0-3.823-1.758-3.823-3.838s1.465-3.853,3.53-3.853c2.256,0,3.369,1.553,3.369,3.56
				V431.064z M132.178,430.039c-0.146-1.421-1.157-2.08-2.183-2.08c-1.201,0-2.021,0.923-2.227,2.08H132.178z"/>
			<path fill="#FFFFFF" d="M137.261,426.934v7.324h-1.201v-6.196h-1.157v-1.128H137.261z M135.518,424.414
				c0-0.527,0.425-0.996,0.996-0.996c0.557,0,0.996,0.469,0.996,0.996c0,0.513-0.439,0.996-0.996,0.996
				C135.943,425.41,135.518,424.927,135.518,424.414z"/>
			<path fill="#FFFFFF" d="M144.205,426.992v1.436c-0.308-0.234-0.688-0.381-1.069-0.381c-0.996,0-1.538,0.806-2.08,1.787v4.424
				h-1.201v-7.324h1.201v1.465c0.557-0.967,1.421-1.611,2.256-1.611C143.648,426.787,143.941,426.86,144.205,426.992z"/>
			<path fill="#FFFFFF" d="M155.645,427.505v1.216c-0.557-0.41-1.216-0.762-2.197-0.762c-1.567,0-2.578,1.26-2.578,2.681
				s1.011,2.666,2.578,2.666c0.981,0,1.641-0.352,2.197-0.762v1.216c-0.293,0.293-1.128,0.718-2.197,0.718
				c-2.227,0-3.823-1.758-3.823-3.838s1.597-3.853,3.823-3.853C154.517,426.787,155.352,427.227,155.645,427.505z"/>
			<path fill="#FFFFFF" d="M164.756,430.64c0,2.08-1.597,3.838-3.823,3.838s-3.823-1.758-3.823-3.838s1.597-3.853,3.823-3.853
				S164.756,428.56,164.756,430.64z M158.355,430.64c0,1.421,1.011,2.666,2.578,2.666s2.578-1.245,2.578-2.666
				s-1.011-2.681-2.578-2.681S158.355,429.219,158.355,430.64z"/>
			<path fill="#FFFFFF" d="M178.042,429.79v4.468h-1.201l-0.015-4.351c0-1.26-0.688-1.948-1.846-1.948
				c-0.85,0-1.436,0.615-1.992,1.318v4.98h-1.201l-0.015-4.351c0-1.26-0.688-1.948-1.846-1.948c-0.806,0-1.45,0.542-1.992,1.201
				v5.098h-1.201v-7.324h1.201v0.938c0.469-0.527,1.201-1.084,2.197-1.084c1.055,0,2.036,0.498,2.534,1.494
				c0.688-0.806,1.436-1.494,2.52-1.494C176.68,426.787,178.042,427.769,178.042,429.79z"/>
			<path fill="#FFFFFF" d="M187.447,430.479c0,2.417-1.523,3.999-3.53,3.999c-0.835,0-1.772-0.498-2.402-1.201v4.497h-1.201v-10.84
				h1.201v1.245c0.513-0.776,1.406-1.392,2.52-1.392C185.923,426.787,187.447,428.252,187.447,430.479z M181.514,430.61l0.015,1.406
				c0.615,0.762,1.274,1.289,2.168,1.289c1.567,0,2.505-1.406,2.505-2.827s-0.938-2.52-2.358-2.52
				C182.51,427.959,181.5,429.043,181.514,430.61z"/>
			<path fill="#FFFFFF" d="M190.625,434.258h-1.201v-10.547h1.201V434.258z"/>
			<path fill="#FFFFFF" d="M199.502,431.064h-5.625c0.176,1.23,1.143,2.241,2.549,2.241c1.055,0,1.714-0.483,2.197-0.835v1.216
				c-0.293,0.293-1.055,0.791-2.197,0.791c-2.227,0-3.823-1.758-3.823-3.838s1.465-3.853,3.53-3.853c2.256,0,3.369,1.553,3.369,3.56
				V431.064z M198.316,430.039c-0.146-1.421-1.157-2.08-2.183-2.08c-1.201,0-2.021,0.923-2.227,2.08H198.316z"/>
			<path fill="#FFFFFF" d="M203.501,426.934h2.139v1.128h-2.139v4.292c0,0.615,0.308,0.981,0.952,0.981
				c0.586,0,0.952-0.176,1.245-0.352v0.981c-0.396,0.308-0.776,0.513-1.509,0.513c-1.245,0-1.89-0.82-1.89-2.065v-4.351h-1.406
				v-0.352c0.952-0.425,1.567-1.436,2.051-2.886h0.557V426.934z"/>
			<path fill="#FFFFFF" d="M209.742,426.934v7.324h-1.201v-6.196h-1.157v-1.128H209.742z M207.999,424.414
				c0-0.527,0.425-0.996,0.996-0.996c0.557,0,0.996,0.469,0.996,0.996c0,0.513-0.439,0.996-0.996,0.996
				C208.423,425.41,207.999,424.927,207.999,424.414z"/>
			<path fill="#FFFFFF" d="M219.468,430.64c0,2.08-1.597,3.838-3.823,3.838s-3.823-1.758-3.823-3.838s1.597-3.853,3.823-3.853
				S219.468,428.56,219.468,430.64z M213.067,430.64c0,1.421,1.011,2.666,2.578,2.666s2.578-1.245,2.578-2.666
				s-1.011-2.681-2.578-2.681S213.067,429.219,213.067,430.64z"/>
			<path fill="#FFFFFF" d="M227.745,429.79v4.468h-1.201l-0.015-4.351c0-1.26-0.542-1.948-1.699-1.948
				c-0.776,0-1.597,0.674-2.183,1.436v4.863h-1.201v-7.324h1.201v1.157c0.454-0.571,1.392-1.304,2.388-1.304
				C226.529,426.787,227.745,427.769,227.745,429.79z"/>
			<path fill="#FFFFFF" d="M234.205,427.344v1.289c-0.41-0.308-1.187-0.674-1.919-0.674c-0.923,0-1.377,0.527-1.377,0.996
				c0,0.366,0.22,0.791,0.894,1.025l1.23,0.439c0.952,0.337,1.421,0.981,1.421,1.816c0,1.245-1.128,2.241-2.695,2.241
				c-0.864,0-1.919-0.396-2.256-0.645v-1.289c0.41,0.308,1.436,0.762,2.168,0.762c0.923,0,1.494-0.454,1.494-1.069
				c0-0.469-0.366-0.703-1.055-0.952l-1.084-0.396c-1.143-0.425-1.406-1.099-1.406-1.934c0-1.245,1.011-2.168,2.578-2.168
				C233.062,426.787,233.868,427.095,234.205,427.344z"/>
			<path fill="#FFFFFF" d="M246.099,427.915v-0.981h1.201v7.324h-1.201v-1.245c-0.513,0.776-1.406,1.465-2.52,1.465
				c-1.89,0-3.413-1.538-3.413-3.765c0-2.417,1.523-3.926,3.53-3.926C244.532,426.787,245.469,427.212,246.099,427.915z
				 M241.412,430.713c0,1.421,0.938,2.593,2.358,2.593c1.333,0,2.344-1.157,2.329-2.725l-0.015-1.406
				c-0.615-0.762-1.274-1.216-2.168-1.216C242.349,427.959,241.412,429.292,241.412,430.713z"/>
			<path fill="#FFFFFF" d="M253.98,427.344v1.289c-0.41-0.308-1.187-0.674-1.919-0.674c-0.923,0-1.377,0.527-1.377,0.996
				c0,0.366,0.22,0.791,0.894,1.025l1.23,0.439c0.952,0.337,1.421,0.981,1.421,1.816c0,1.245-1.128,2.241-2.695,2.241
				c-0.864,0-1.919-0.396-2.256-0.645v-1.289c0.41,0.308,1.436,0.762,2.168,0.762c0.923,0,1.494-0.454,1.494-1.069
				c0-0.469-0.366-0.703-1.055-0.952l-1.084-0.396c-1.143-0.425-1.406-1.099-1.406-1.934c0-1.245,1.011-2.168,2.578-2.168
				C252.837,426.787,253.643,427.095,253.98,427.344z"/>
			<path fill="#FFFFFF" d="M261.656,434.258h-1.201v-10.547h1.201V434.258z"/>
			<path fill="#FFFFFF" d="M271.28,430.64c0,2.08-1.597,3.838-3.823,3.838s-3.823-1.758-3.823-3.838s1.597-3.853,3.823-3.853
				S271.28,428.56,271.28,430.64z M264.878,430.64c0,1.421,1.011,2.666,2.578,2.666s2.578-1.245,2.578-2.666
				s-1.011-2.681-2.578-2.681S264.878,429.219,264.878,430.64z"/>
			<path fill="#FFFFFF" d="M279.556,429.79v4.468h-1.201l-0.015-4.351c0-1.26-0.542-1.948-1.699-1.948
				c-0.776,0-1.597,0.674-2.183,1.436v4.863h-1.201v-7.324h1.201v1.157c0.454-0.571,1.392-1.304,2.388-1.304
				C278.34,426.787,279.556,427.769,279.556,429.79z"/>
			<path fill="#FFFFFF" d="M287.247,427.915v-0.981h1.201v7.178c0,2.622-1.772,3.882-3.853,3.882c-1.362,0-2.168-0.469-2.681-0.791
				v-1.289c0.41,0.234,1.406,0.908,2.681,0.908c1.421,0,2.651-0.82,2.651-2.271v-1.538c-0.513,0.776-1.406,1.465-2.52,1.465
				c-1.89,0-3.413-1.538-3.413-3.765c0-2.417,1.523-3.926,3.53-3.926C285.679,426.787,286.617,427.212,287.247,427.915z
				 M282.559,430.713c0,1.421,0.938,2.578,2.358,2.578c1.333,0,2.344-1.143,2.329-2.71l-0.015-1.406
				c-0.615-0.762-1.274-1.201-2.168-1.201C283.497,427.974,282.559,429.292,282.559,430.713z"/>
			<path fill="#FFFFFF" d="M300.752,427.915v-0.981h1.201v7.324h-1.201v-1.245c-0.513,0.776-1.406,1.465-2.52,1.465
				c-1.89,0-3.413-1.538-3.413-3.765c0-2.417,1.523-3.926,3.53-3.926C299.185,426.787,300.123,427.212,300.752,427.915z
				 M296.065,430.713c0,1.421,0.938,2.593,2.358,2.593c1.333,0,2.344-1.157,2.329-2.725l-0.015-1.406
				c-0.615-0.762-1.274-1.216-2.168-1.216C297.002,427.959,296.065,429.292,296.065,430.713z"/>
			<path fill="#FFFFFF" d="M308.633,427.344v1.289c-0.41-0.308-1.187-0.674-1.919-0.674c-0.923,0-1.377,0.527-1.377,0.996
				c0,0.366,0.22,0.791,0.894,1.025l1.23,0.439c0.952,0.337,1.421,0.981,1.421,1.816c0,1.245-1.128,2.241-2.695,2.241
				c-0.864,0-1.919-0.396-2.256-0.645v-1.289c0.41,0.308,1.436,0.762,2.168,0.762c0.923,0,1.494-0.454,1.494-1.069
				c0-0.469-0.366-0.703-1.055-0.952l-1.084-0.396c-1.143-0.425-1.406-1.099-1.406-1.934c0-1.245,1.011-2.168,2.578-2.168
				C307.491,426.787,308.296,427.095,308.633,427.344z"/>
			<path fill="#FFFFFF" d="M317.129,426.934h2.139v1.128h-2.139v4.292c0,0.615,0.308,0.981,0.952,0.981
				c0.586,0,0.952-0.176,1.245-0.352v0.981c-0.396,0.308-0.776,0.513-1.509,0.513c-1.245,0-1.89-0.82-1.89-2.065v-4.351h-1.406
				v-0.352c0.952-0.425,1.567-1.436,2.051-2.886h0.557V426.934z"/>
			<path fill="#FFFFFF" d="M327.75,429.79v4.468h-1.201l-0.015-4.351c0-1.26-0.542-1.948-1.699-1.948
				c-0.776,0-1.597,0.674-2.183,1.436v4.863h-1.201v-10.547h1.201v4.38c0.454-0.571,1.392-1.304,2.388-1.304
				C326.534,426.787,327.75,427.769,327.75,429.79z"/>
			<path fill="#FFFFFF" d="M336.407,431.064h-5.625c0.176,1.23,1.143,2.241,2.549,2.241c1.055,0,1.714-0.483,2.197-0.835v1.216
				c-0.293,0.293-1.055,0.791-2.197,0.791c-2.227,0-3.823-1.758-3.823-3.838s1.465-3.853,3.53-3.853c2.256,0,3.369,1.553,3.369,3.56
				V431.064z M335.22,430.039c-0.146-1.421-1.157-2.08-2.183-2.08c-1.201,0-2.021,0.923-2.227,2.08H335.22z"/>
			<path fill="#FFFFFF" d="M345.284,426.934l-5.391,10.84h-1.392l2.095-3.955l-3.237-6.885h1.436l2.563,5.391l2.49-5.391H345.284z"
				/>
			<path fill="#FFFFFF" d="M356.563,427.915v-0.981h1.201v7.324h-1.201v-1.245c-0.513,0.776-1.406,1.465-2.52,1.465
				c-1.89,0-3.413-1.538-3.413-3.765c0-2.417,1.523-3.926,3.53-3.926C354.996,426.787,355.933,427.212,356.563,427.915z
				 M351.875,430.713c0,1.421,0.938,2.593,2.358,2.593c1.333,0,2.344-1.157,2.329-2.725l-0.015-1.406
				c-0.615-0.762-1.274-1.216-2.168-1.216C352.813,427.959,351.875,429.292,351.875,430.713z"/>
			<path fill="#FFFFFF" d="M364.605,426.992v1.436c-0.308-0.234-0.688-0.381-1.069-0.381c-0.996,0-1.538,0.806-2.08,1.787v4.424
				h-1.201v-7.324h1.201v1.465c0.557-0.967,1.421-1.611,2.256-1.611C364.048,426.787,364.341,426.86,364.605,426.992z"/>
			<path fill="#FFFFFF" d="M372.53,431.064h-5.625c0.176,1.23,1.143,2.241,2.549,2.241c1.055,0,1.714-0.483,2.197-0.835v1.216
				c-0.293,0.293-1.055,0.791-2.197,0.791c-2.227,0-3.823-1.758-3.823-3.838s1.465-3.853,3.53-3.853c2.256,0,3.369,1.553,3.369,3.56
				V431.064z M371.343,430.039c-0.146-1.421-1.157-2.08-2.183-2.08c-1.201,0-2.021,0.923-2.227,2.08H371.343z"/>
			<path fill="#FFFFFF" d="M385.201,429.79v4.468H384l-0.015-4.351c0-1.26-0.542-1.948-1.699-1.948
				c-0.776,0-1.597,0.674-2.183,1.436v4.863h-1.201v-7.324h1.201v1.157c0.454-0.571,1.392-1.304,2.388-1.304
				C383.985,426.787,385.201,427.769,385.201,429.79z"/>
			<path fill="#FFFFFF" d="M394.605,430.64c0,2.08-1.597,3.838-3.823,3.838s-3.823-1.758-3.823-3.838s1.597-3.853,3.823-3.853
				S394.605,428.56,394.605,430.64z M388.204,430.64c0,1.421,1.011,2.666,2.578,2.666s2.578-1.245,2.578-2.666
				s-1.011-2.681-2.578-2.681S388.204,429.219,388.204,430.64z"/>
			<path fill="#FFFFFF" d="M398.311,426.934h2.139v1.128h-2.139v4.292c0,0.615,0.308,0.981,0.952,0.981
				c0.586,0,0.952-0.176,1.245-0.352v0.981c-0.396,0.308-0.776,0.513-1.509,0.513c-1.245,0-1.89-0.82-1.89-2.065v-4.351h-1.406
				v-0.352c0.952-0.425,1.567-1.436,2.051-2.886h0.557V426.934z"/>
			<path fill="#FFFFFF" d="M408.228,428.179c0.513-0.776,1.406-1.392,2.52-1.392c1.89,0,3.413,1.465,3.413,3.691
				c0,2.417-1.523,3.999-3.53,3.999c-0.835,0-1.772-0.498-2.402-1.201v0.981h-1.201v-10.547h1.201V428.179z M408.228,430.61
				l0.015,1.406c0.615,0.762,1.274,1.289,2.168,1.289c1.567,0,2.505-1.406,2.505-2.827s-0.938-2.52-2.358-2.52
				C409.224,427.959,408.213,429.043,408.228,430.61z"/>
			<path fill="#FFFFFF" d="M422.525,431.064H416.9c0.176,1.23,1.143,2.241,2.549,2.241c1.055,0,1.714-0.483,2.197-0.835v1.216
				c-0.293,0.293-1.055,0.791-2.197,0.791c-2.227,0-3.823-1.758-3.823-3.838s1.465-3.853,3.53-3.853c2.256,0,3.369,1.553,3.369,3.56
				V431.064z M421.338,430.039c-0.146-1.421-1.157-2.08-2.183-2.08c-1.201,0-2.021,0.923-2.227,2.08H421.338z"/>
			<path fill="#FFFFFF" d="M431.402,426.934l-5.391,10.84h-1.392l2.095-3.955l-3.237-6.885h1.436l2.563,5.391l2.49-5.391H431.402z"
				/>
			<path fill="#FFFFFF" d="M440,430.64c0,2.08-1.597,3.838-3.823,3.838s-3.823-1.758-3.823-3.838s1.597-3.853,3.823-3.853
				S440,428.56,440,430.64z M433.599,430.64c0,1.421,1.011,2.666,2.578,2.666s2.578-1.245,2.578-2.666s-1.011-2.681-2.578-2.681
				S433.599,429.219,433.599,430.64z"/>
			<path fill="#FFFFFF" d="M448.277,429.79v4.468h-1.201l-0.015-4.351c0-1.26-0.542-1.948-1.699-1.948
				c-0.776,0-1.597,0.674-2.183,1.436v4.863h-1.201v-7.324h1.201v1.157c0.454-0.571,1.392-1.304,2.388-1.304
				C447.061,426.787,448.277,427.769,448.277,429.79z"/>
			<path fill="#FFFFFF" d="M457.168,434.258h-1.201v-1.245c-0.513,0.776-1.406,1.465-2.52,1.465c-1.89,0-3.413-1.538-3.413-3.765
				c0-2.417,1.523-3.926,3.53-3.926c0.835,0,1.772,0.425,2.402,1.128v-4.204h1.201V434.258z M451.28,430.713
				c0,1.421,0.938,2.593,2.358,2.593c1.333,0,2.344-1.157,2.329-2.725l-0.015-1.406c-0.615-0.762-1.274-1.187-2.168-1.187
				C452.217,427.988,451.28,429.292,451.28,430.713z"/>
			<path fill="#FFFFFF" d="M53.992,444.934l-5.391,10.84H47.21l2.094-3.955l-3.236-6.885h1.436l2.563,5.391l2.49-5.391H53.992z"/>
			<path fill="#FFFFFF" d="M62.591,448.64c0,2.08-1.598,3.838-3.824,3.838s-3.822-1.758-3.822-3.838s1.596-3.853,3.822-3.853
				S62.591,446.56,62.591,448.64z M56.189,448.64c0,1.421,1.012,2.666,2.578,2.666c1.568,0,2.578-1.245,2.578-2.666
				s-1.01-2.681-2.578-2.681C57.201,445.959,56.189,447.219,56.189,448.64z"/>
			<path fill="#FFFFFF" d="M70.56,449.27c0,1.934-1.348,3.135-3.105,3.135s-3.105-1.201-3.105-3.135v-4.336h1.244v4.336
				c0,1.274,0.879,1.963,1.861,1.963c0.98,0,1.859-0.688,1.859-1.963v-4.336h1.246V449.27z"/>
			<path fill="#FFFFFF" d="M77.181,444.992v1.436c-0.309-0.234-0.689-0.381-1.07-0.381c-0.996,0-1.537,0.806-2.08,1.787v4.424H72.83
				v-7.324h1.201v1.465c0.557-0.967,1.422-1.611,2.256-1.611C76.625,444.787,76.917,444.86,77.181,444.992z"/>
			<path fill="#FFFFFF" d="M84.314,452.258h-1.201v-10.547h1.201V452.258z"/>
			<path fill="#FFFFFF" d="M93.191,449.064h-5.625c0.176,1.23,1.143,2.241,2.549,2.241c1.055,0,1.715-0.483,2.197-0.835v1.216
				c-0.293,0.293-1.055,0.791-2.197,0.791c-2.227,0-3.822-1.758-3.822-3.838s1.465-3.853,3.529-3.853
				c2.256,0,3.369,1.553,3.369,3.56V449.064z M92.005,448.039c-0.146-1.421-1.158-2.08-2.184-2.08c-1.201,0-2.021,0.923-2.227,2.08
				H92.005z"/>
			<path fill="#FFFFFF" d="M98.187,452.258h-0.748l-3.295-7.324h1.436l2.211,5.391l2.402-5.391h1.436L98.187,452.258z"/>
			<path fill="#FFFFFF" d="M109.333,449.064h-5.625c0.176,1.23,1.143,2.241,2.549,2.241c1.055,0,1.715-0.483,2.197-0.835v1.216
				c-0.293,0.293-1.055,0.791-2.197,0.791c-2.227,0-3.822-1.758-3.822-3.838s1.465-3.853,3.529-3.853
				c2.256,0,3.369,1.553,3.369,3.56V449.064z M108.148,448.039c-0.146-1.421-1.158-2.08-2.184-2.08c-1.201,0-2.021,0.923-2.227,2.08
				H108.148z"/>
			<path fill="#FFFFFF" d="M112.513,452.258h-1.201v-10.547h1.201V452.258z"/>
			<path fill="#FFFFFF" d="M116.98,451.496c0,0.557-0.469,1.025-1.025,1.025c-0.57,0-1.025-0.469-1.025-1.025
				c0-0.571,0.455-1.025,1.025-1.025C116.511,450.471,116.98,450.925,116.98,451.496z M116.556,449.035h-1.201v-6.592h1.201V449.035
				z"/>
			<path fill="#FFFFFF" d="M131.644,449.489c0,1.641-1.539,2.915-3.912,2.915c-1.215,0-2.65-0.161-3.574-0.366v-9.595h3.926
				c1.744,0,3.092,1.055,3.092,2.651c0,0.806-0.426,1.743-1.436,2.124C130.603,447.395,131.644,448.068,131.644,449.489z
				 M125.476,443.688v3.076h2.301c1.23,0,2.051-0.63,2.051-1.523c0-1.04-0.82-1.553-2.051-1.553H125.476z M130.296,449.489
				c0-1.069-1.129-1.553-2.49-1.553h-2.33v3.047c0.703,0.132,1.686,0.176,2.227,0.176
				C129.167,451.159,130.296,450.515,130.296,449.489z"/>
			<path fill="#FFFFFF" d="M139.861,449.27c0,1.934-1.348,3.135-3.105,3.135s-3.105-1.201-3.105-3.135v-4.336h1.246v4.336
				c0,1.274,0.879,1.963,1.859,1.963c0.982,0,1.861-0.688,1.861-1.963v-4.336h1.244V449.27z"/>
			<path fill="#FFFFFF" d="M144.05,444.934v7.324h-1.201v-6.196h-1.156v-1.128H144.05z M142.308,442.414
				c0-0.527,0.424-0.996,0.996-0.996c0.557,0,0.996,0.469,0.996,0.996c0,0.513-0.439,0.996-0.996,0.996
				C142.732,443.41,142.308,442.927,142.308,442.414z"/>
			<path fill="#FFFFFF" d="M147.845,452.258h-1.201v-10.547h1.201V452.258z"/>
			<path fill="#FFFFFF" d="M156.957,452.258h-1.201v-1.245c-0.514,0.776-1.406,1.465-2.52,1.465c-1.891,0-3.414-1.538-3.414-3.765
				c0-2.417,1.523-3.926,3.531-3.926c0.834,0,1.771,0.425,2.402,1.128v-4.204h1.201V452.258z M151.068,448.713
				c0,1.421,0.938,2.593,2.357,2.593c1.334,0,2.344-1.157,2.33-2.725l-0.016-1.406c-0.615-0.762-1.273-1.187-2.168-1.187
				C152.005,445.988,151.068,447.292,151.068,448.713z"/>
			<path fill="#FFFFFF" d="M169.261,445.915v-0.981h1.201v7.324h-1.201v-1.245c-0.514,0.776-1.406,1.465-2.52,1.465
				c-1.891,0-3.414-1.538-3.414-3.765c0-2.417,1.523-3.926,3.531-3.926C167.693,444.787,168.63,445.212,169.261,445.915z
				 M164.574,448.713c0,1.421,0.938,2.593,2.357,2.593c1.334,0,2.344-1.157,2.33-2.725l-0.016-1.406
				c-0.615-0.762-1.273-1.216-2.168-1.216C165.511,445.959,164.574,447.292,164.574,448.713z"/>
			<path fill="#FFFFFF" d="M182.767,445.915v-0.981h1.201v7.178c0,2.622-1.773,3.882-3.854,3.882c-1.361,0-2.168-0.469-2.68-0.791
				v-1.289c0.41,0.234,1.406,0.908,2.68,0.908c1.422,0,2.652-0.82,2.652-2.271v-1.538c-0.514,0.776-1.406,1.465-2.52,1.465
				c-1.891,0-3.414-1.538-3.414-3.765c0-2.417,1.523-3.926,3.531-3.926C181.199,444.787,182.136,445.212,182.767,445.915z
				 M178.08,448.713c0,1.421,0.938,2.578,2.357,2.578c1.334,0,2.344-1.143,2.33-2.71l-0.016-1.406
				c-0.615-0.762-1.273-1.201-2.168-1.201C179.017,445.974,178.08,447.292,178.08,448.713z"/>
			<path fill="#FFFFFF" d="M193.591,448.64c0,2.08-1.596,3.838-3.822,3.838s-3.824-1.758-3.824-3.838s1.598-3.853,3.824-3.853
				S193.591,446.56,193.591,448.64z M187.191,448.64c0,1.421,1.01,2.666,2.578,2.666c1.566,0,2.578-1.245,2.578-2.666
				s-1.012-2.681-2.578-2.681C188.201,445.959,187.191,447.219,187.191,448.64z"/>
			<path fill="#FFFFFF" d="M202.703,448.64c0,2.08-1.596,3.838-3.822,3.838s-3.824-1.758-3.824-3.838s1.598-3.853,3.824-3.853
				S202.703,446.56,202.703,448.64z M196.302,448.64c0,1.421,1.01,2.666,2.578,2.666c1.566,0,2.578-1.245,2.578-2.666
				s-1.012-2.681-2.578-2.681C197.312,445.959,196.302,447.219,196.302,448.64z"/>
			<path fill="#FFFFFF" d="M211.302,452.258h-1.201v-1.245c-0.514,0.776-1.406,1.465-2.52,1.465c-1.891,0-3.414-1.538-3.414-3.765
				c0-2.417,1.523-3.926,3.531-3.926c0.834,0,1.771,0.425,2.402,1.128v-4.204h1.201V452.258z M205.414,448.713
				c0,1.421,0.938,2.593,2.357,2.593c1.334,0,2.344-1.157,2.33-2.725l-0.016-1.406c-0.615-0.762-1.273-1.187-2.168-1.187
				C206.351,445.988,205.414,447.292,205.414,448.713z"/>
			<path fill="#FFFFFF" d="M222.537,444.992v1.436c-0.307-0.234-0.688-0.381-1.068-0.381c-0.996,0-1.539,0.806-2.08,1.787v4.424
				h-1.201v-7.324h1.201v1.465c0.557-0.967,1.42-1.611,2.256-1.611C221.98,444.787,222.273,444.86,222.537,444.992z"/>
			<path fill="#FFFFFF" d="M230.462,449.064h-5.625c0.176,1.23,1.143,2.241,2.549,2.241c1.055,0,1.713-0.483,2.197-0.835v1.216
				c-0.293,0.293-1.055,0.791-2.197,0.791c-2.227,0-3.824-1.758-3.824-3.838s1.465-3.853,3.531-3.853
				c2.256,0,3.369,1.553,3.369,3.56V449.064z M229.275,448.039c-0.146-1.421-1.156-2.08-2.182-2.08c-1.201,0-2.021,0.923-2.227,2.08
				H229.275z"/>
			<path fill="#FFFFFF" d="M233.64,452.258h-1.201v-10.547h1.201V452.258z"/>
			<path fill="#FFFFFF" d="M241.55,445.915v-0.981h1.201v7.324h-1.201v-1.245c-0.513,0.776-1.406,1.465-2.52,1.465
				c-1.889,0-3.412-1.538-3.412-3.765c0-2.417,1.523-3.926,3.529-3.926C239.984,444.787,240.92,445.212,241.55,445.915z
				 M236.863,448.713c0,1.421,0.938,2.593,2.359,2.593c1.332,0,2.343-1.157,2.328-2.725l-0.015-1.406
				c-0.615-0.762-1.274-1.216-2.167-1.216C237.8,445.959,236.863,447.292,236.863,448.713z"/>
			<path fill="#FFFFFF" d="M247.264,444.934h2.139v1.128h-2.139v4.292c0,0.615,0.308,0.981,0.952,0.981
				c0.586,0,0.952-0.176,1.245-0.352v0.981c-0.396,0.308-0.776,0.513-1.509,0.513c-1.245,0-1.89-0.82-1.89-2.065v-4.351h-1.406
				v-0.352c0.952-0.425,1.567-1.436,2.051-2.886h0.557V444.934z"/>
			<path fill="#FFFFFF" d="M253.504,444.934v7.324h-1.201v-6.196h-1.157v-1.128H253.504z M251.761,442.414
				c0-0.527,0.425-0.996,0.996-0.996c0.557,0,0.996,0.469,0.996,0.996c0,0.513-0.439,0.996-0.996,0.996
				C252.186,443.41,251.761,442.927,251.761,442.414z"/>
			<path fill="#FFFFFF" d="M263.231,448.64c0,2.08-1.597,3.838-3.823,3.838s-3.823-1.758-3.823-3.838s1.597-3.853,3.823-3.853
				S263.231,446.56,263.231,448.64z M256.83,448.64c0,1.421,1.011,2.666,2.578,2.666s2.578-1.245,2.578-2.666
				s-1.011-2.681-2.578-2.681S256.83,447.219,256.83,448.64z"/>
			<path fill="#FFFFFF" d="M271.507,447.79v4.468h-1.201l-0.015-4.351c0-1.26-0.542-1.948-1.699-1.948
				c-0.776,0-1.597,0.674-2.183,1.436v4.863h-1.201v-7.324h1.201v1.157c0.454-0.571,1.392-1.304,2.388-1.304
				C270.292,444.787,271.507,445.769,271.507,447.79z"/>
			<path fill="#FFFFFF" d="M277.967,445.344v1.289c-0.41-0.308-1.187-0.674-1.919-0.674c-0.923,0-1.377,0.527-1.377,0.996
				c0,0.366,0.22,0.791,0.894,1.025l1.23,0.439c0.952,0.337,1.421,0.981,1.421,1.816c0,1.245-1.128,2.241-2.695,2.241
				c-0.864,0-1.919-0.396-2.256-0.645v-1.289c0.41,0.308,1.436,0.762,2.168,0.762c0.923,0,1.494-0.454,1.494-1.069
				c0-0.469-0.366-0.703-1.055-0.952l-1.084-0.396c-1.143-0.425-1.406-1.099-1.406-1.934c0-1.245,1.011-2.168,2.578-2.168
				C276.825,444.787,277.63,445.095,277.967,445.344z"/>
			<path fill="#FFFFFF" d="M286.346,447.79v4.468h-1.201l-0.015-4.351c0-1.26-0.542-1.948-1.699-1.948
				c-0.776,0-1.597,0.674-2.183,1.436v4.863h-1.201v-10.547h1.201v4.38c0.454-0.571,1.392-1.304,2.388-1.304
				C285.13,444.787,286.346,445.769,286.346,447.79z"/>
			<path fill="#FFFFFF" d="M290.536,444.934v7.324h-1.201v-6.196h-1.157v-1.128H290.536z M288.792,442.414
				c0-0.527,0.425-0.996,0.996-0.996c0.557,0,0.996,0.469,0.996,0.996c0,0.513-0.439,0.996-0.996,0.996
				C289.217,443.41,288.792,442.927,288.792,442.414z"/>
			<path fill="#FFFFFF" d="M300.262,448.479c0,2.417-1.523,3.999-3.53,3.999c-0.835,0-1.772-0.498-2.402-1.201v4.497h-1.201v-10.84
				h1.201v1.245c0.513-0.776,1.406-1.392,2.52-1.392C298.739,444.787,300.262,446.252,300.262,448.479z M294.33,448.61l0.015,1.406
				c0.615,0.762,1.274,1.289,2.168,1.289c1.567,0,2.505-1.406,2.505-2.827s-0.938-2.52-2.358-2.52
				C295.326,445.959,294.315,447.043,294.33,448.61z"/>
			<path fill="#FFFFFF" d="M313.68,452.258h-0.747l-2.007-5.171l-2.007,5.171h-0.747l-2.563-7.324h1.436l1.626,5.142l1.919-5.142
				h0.674l1.919,5.142l1.626-5.142h1.436L313.68,452.258z"/>
			<path fill="#FFFFFF" d="M319.627,444.934v7.324h-1.201v-6.196h-1.157v-1.128H319.627z M317.884,442.414
				c0-0.527,0.425-0.996,0.996-0.996c0.557,0,0.996,0.469,0.996,0.996c0,0.513-0.439,0.996-0.996,0.996
				C318.309,443.41,317.884,442.927,317.884,442.414z"/>
			<path fill="#FFFFFF" d="M324.242,444.934h2.139v1.128h-2.139v4.292c0,0.615,0.308,0.981,0.952,0.981
				c0.586,0,0.952-0.176,1.245-0.352v0.981c-0.396,0.308-0.776,0.513-1.509,0.513c-1.245,0-1.89-0.82-1.89-2.065v-4.351h-1.406
				v-0.352c0.952-0.425,1.567-1.436,2.051-2.886h0.557V444.934z"/>
			<path fill="#FFFFFF" d="M334.862,447.79v4.468h-1.201l-0.015-4.351c0-1.26-0.542-1.948-1.699-1.948
				c-0.776,0-1.597,0.674-2.183,1.436v4.863h-1.201v-10.547h1.201v4.38c0.454-0.571,1.392-1.304,2.388-1.304
				C333.646,444.787,334.862,445.769,334.862,447.79z"/>
			<path fill="#FFFFFF" d="M348.426,444.934l-5.391,10.84h-1.392l2.095-3.955l-3.237-6.885h1.436l2.563,5.391l2.49-5.391H348.426z"
				/>
			<path fill="#FFFFFF" d="M357.025,448.64c0,2.08-1.597,3.838-3.823,3.838s-3.823-1.758-3.823-3.838s1.597-3.853,3.823-3.853
				S357.025,446.56,357.025,448.64z M350.624,448.64c0,1.421,1.011,2.666,2.578,2.666s2.578-1.245,2.578-2.666
				s-1.011-2.681-2.578-2.681S350.624,447.219,350.624,448.64z"/>
			<path fill="#FFFFFF" d="M364.994,449.27c0,1.934-1.348,3.135-3.105,3.135s-3.105-1.201-3.105-3.135v-4.336h1.245v4.336
				c0,1.274,0.879,1.963,1.86,1.963s1.86-0.688,1.86-1.963v-4.336h1.245V449.27z"/>
			<path fill="#FFFFFF" d="M371.615,444.992v1.436c-0.308-0.234-0.688-0.381-1.069-0.381c-0.996,0-1.538,0.806-2.08,1.787v4.424
				h-1.201v-7.324h1.201v1.465c0.557-0.967,1.421-1.611,2.256-1.611C371.058,444.787,371.351,444.86,371.615,444.992z"/>
			<path fill="#FFFFFF" d="M381.898,444.992v1.436c-0.308-0.234-0.688-0.381-1.069-0.381c-0.996,0-1.538,0.806-2.08,1.787v4.424
				h-1.201v-7.324h1.201v1.465c0.557-0.967,1.421-1.611,2.256-1.611C381.341,444.787,381.634,444.86,381.898,444.992z"/>
			<path fill="#FFFFFF" d="M389.823,449.064h-5.625c0.176,1.23,1.143,2.241,2.549,2.241c1.055,0,1.714-0.483,2.197-0.835v1.216
				c-0.293,0.293-1.055,0.791-2.197,0.791c-2.227,0-3.823-1.758-3.823-3.838s1.465-3.853,3.53-3.853c2.256,0,3.369,1.553,3.369,3.56
				V449.064z M388.636,448.039c-0.146-1.421-1.157-2.08-2.183-2.08c-1.201,0-2.021,0.923-2.227,2.08H388.636z"/>
			<path fill="#FFFFFF" d="M393.456,444.128v0.806h2.139v1.128h-2.139v6.196h-1.201v-6.196h-1.157v-1.128h1.157v-0.938
				c0-1.714,1.172-2.505,2.271-2.505c0.498,0,0.923,0.146,1.216,0.396v1.055c-0.293-0.19-0.732-0.322-1.143-0.308
				C393.88,442.663,393.456,443.044,393.456,444.128z"/>
			<path fill="#FFFFFF" d="M403.578,449.064h-5.625c0.176,1.23,1.143,2.241,2.549,2.241c1.055,0,1.714-0.483,2.197-0.835v1.216
				c-0.293,0.293-1.055,0.791-2.197,0.791c-2.227,0-3.823-1.758-3.823-3.838s1.465-3.853,3.53-3.853c2.256,0,3.369,1.553,3.369,3.56
				V449.064z M402.391,448.039c-0.146-1.421-1.157-2.08-2.183-2.08c-1.201,0-2.021,0.923-2.227,2.08H402.391z"/>
			<path fill="#FFFFFF" d="M409.906,444.992v1.436c-0.308-0.234-0.688-0.381-1.069-0.381c-0.996,0-1.538,0.806-2.08,1.787v4.424
				h-1.201v-7.324h1.201v1.465c0.557-0.967,1.421-1.611,2.256-1.611C409.349,444.787,409.642,444.86,409.906,444.992z"/>
			<path fill="#FFFFFF" d="M415.794,444.992v1.436c-0.308-0.234-0.688-0.381-1.069-0.381c-0.996,0-1.538,0.806-2.08,1.787v4.424
				h-1.201v-7.324h1.201v1.465c0.557-0.967,1.421-1.611,2.256-1.611C415.238,444.787,415.531,444.86,415.794,444.992z"/>
			<path fill="#FFFFFF" d="M422.752,445.915v-0.981h1.201v7.324h-1.201v-1.245c-0.513,0.776-1.406,1.465-2.52,1.465
				c-1.89,0-3.413-1.538-3.413-3.765c0-2.417,1.523-3.926,3.53-3.926C421.185,444.787,422.123,445.212,422.752,445.915z
				 M418.065,448.713c0,1.421,0.938,2.593,2.358,2.593c1.333,0,2.344-1.157,2.329-2.725l-0.015-1.406
				c-0.615-0.762-1.274-1.216-2.168-1.216C419.002,445.959,418.065,447.292,418.065,448.713z"/>
			<path fill="#FFFFFF" d="M427.645,452.258h-1.201v-10.547h1.201V452.258z"/>
			<path fill="#FFFFFF" d="M434.325,445.344v1.289c-0.41-0.308-1.187-0.674-1.919-0.674c-0.923,0-1.377,0.527-1.377,0.996
				c0,0.366,0.22,0.791,0.894,1.025l1.23,0.439c0.952,0.337,1.421,0.981,1.421,1.816c0,1.245-1.128,2.241-2.695,2.241
				c-0.864,0-1.919-0.396-2.256-0.645v-1.289c0.41,0.308,1.436,0.762,2.168,0.762c0.923,0,1.494-0.454,1.494-1.069
				c0-0.469-0.366-0.703-1.055-0.952l-1.084-0.396c-1.143-0.425-1.406-1.099-1.406-1.934c0-1.245,1.011-2.168,2.578-2.168
				C433.182,444.787,433.988,445.095,434.325,445.344z"/>
			<path fill="#FFFFFF" d="M152.048,463.915v-0.981h1.201v7.324h-1.201v-1.245c-0.512,0.776-1.406,1.465-2.52,1.465
				c-1.889,0-3.412-1.538-3.412-3.765c0-2.417,1.523-3.926,3.529-3.926C150.482,462.787,151.419,463.212,152.048,463.915z
				 M147.361,466.713c0,1.421,0.938,2.593,2.359,2.593c1.332,0,2.344-1.157,2.328-2.725l-0.014-1.406
				c-0.615-0.762-1.275-1.216-2.168-1.216C148.298,463.959,147.361,465.292,147.361,466.713z"/>
			<path fill="#FFFFFF" d="M162.039,465.79v4.468h-1.201l-0.014-4.351c0-1.26-0.543-1.948-1.699-1.948
				c-0.777,0-1.598,0.674-2.184,1.436v4.863h-1.201v-7.324h1.201v1.157c0.455-0.571,1.393-1.304,2.389-1.304
				C160.824,462.787,162.039,463.769,162.039,465.79z"/>
			<path fill="#FFFFFF" d="M170.931,470.258h-1.201v-1.245c-0.514,0.776-1.406,1.465-2.52,1.465c-1.891,0-3.414-1.538-3.414-3.765
				c0-2.417,1.523-3.926,3.531-3.926c0.834,0,1.771,0.425,2.402,1.128v-4.204h1.201V470.258z M165.042,466.713
				c0,1.421,0.938,2.593,2.357,2.593c1.334,0,2.344-1.157,2.33-2.725l-0.016-1.406c-0.615-0.762-1.273-1.187-2.168-1.187
				C165.98,463.988,165.042,465.292,165.042,466.713z"/>
			<path fill="#FFFFFF" d="M184.714,462.934l-5.391,10.84h-1.391l2.094-3.955l-3.236-6.885h1.436l2.563,5.391l2.49-5.391H184.714z"
				/>
			<path fill="#FFFFFF" d="M193.314,466.64c0,2.08-1.598,3.838-3.824,3.838s-3.822-1.758-3.822-3.838s1.596-3.853,3.822-3.853
				S193.314,464.56,193.314,466.64z M186.912,466.64c0,1.421,1.012,2.666,2.578,2.666c1.568,0,2.578-1.245,2.578-2.666
				s-1.01-2.681-2.578-2.681C187.923,463.959,186.912,465.219,186.912,466.64z"/>
			<path fill="#FFFFFF" d="M201.283,467.27c0,1.934-1.348,3.135-3.105,3.135s-3.105-1.201-3.105-3.135v-4.336h1.244v4.336
				c0,1.274,0.879,1.963,1.861,1.963c0.98,0,1.859-0.688,1.859-1.963v-4.336h1.246V467.27z"/>
			<path fill="#FFFFFF" d="M205.121,460.59l-1.611,3.765l-0.908-0.234l1.318-3.94L205.121,460.59z"/>
			<path fill="#FFFFFF" d="M207.859,470.258h-1.201v-10.547h1.201V470.258z"/>
			<path fill="#FFFFFF" d="M211.55,470.258h-1.201v-10.547h1.201V470.258z"/>
			<path fill="#FFFFFF" d="M223.943,463.505v1.216c-0.557-0.41-1.215-0.762-2.197-0.762c-1.566,0-2.578,1.26-2.578,2.681
				s1.012,2.666,2.578,2.666c0.982,0,1.641-0.352,2.197-0.762v1.216c-0.293,0.293-1.127,0.718-2.197,0.718
				c-2.227,0-3.822-1.758-3.822-3.838s1.596-3.853,3.822-3.853C222.816,462.787,223.65,463.227,223.943,463.505z"/>
			<path fill="#FFFFFF" d="M233.054,466.64c0,2.08-1.596,3.838-3.822,3.838s-3.824-1.758-3.824-3.838s1.598-3.853,3.824-3.853
				S233.054,464.56,233.054,466.64z M226.654,466.64c0,1.421,1.01,2.666,2.578,2.666c1.566,0,2.578-1.245,2.578-2.666
				s-1.012-2.681-2.578-2.681C227.664,463.959,226.654,465.219,226.654,466.64z"/>
			<path fill="#FFFFFF" d="M241.331,465.79v4.468h-1.2l-0.016-4.351c0-1.26-0.541-1.948-1.699-1.948
				c-0.775,0-1.596,0.674-2.182,1.436v4.863h-1.201v-7.324h1.201v1.157c0.453-0.571,1.391-1.304,2.387-1.304
				C240.115,462.787,241.331,463.769,241.331,465.79z"/>
			<path fill="#FFFFFF" d="M245.624,462.934h2.139v1.128h-2.139v4.292c0,0.615,0.308,0.981,0.952,0.981
				c0.586,0,0.952-0.176,1.245-0.352v0.981c-0.396,0.308-0.776,0.513-1.509,0.513c-1.245,0-1.89-0.82-1.89-2.065v-4.351h-1.406
				v-0.352c0.952-0.425,1.567-1.436,2.051-2.886h0.557V462.934z"/>
			<path fill="#FFFFFF" d="M251.864,462.934v7.324h-1.201v-6.196h-1.157v-1.128H251.864z M250.121,460.414
				c0-0.527,0.425-0.996,0.996-0.996c0.557,0,0.996,0.469,0.996,0.996c0,0.513-0.439,0.996-0.996,0.996
				C250.545,461.41,250.121,460.927,250.121,460.414z"/>
			<path fill="#FFFFFF" d="M260.755,465.79v4.468h-1.201l-0.015-4.351c0-1.26-0.542-1.948-1.699-1.948
				c-0.776,0-1.597,0.674-2.183,1.436v4.863h-1.201v-7.324h1.201v1.157c0.454-0.571,1.392-1.304,2.388-1.304
				C259.54,462.787,260.755,463.769,260.755,465.79z"/>
			<path fill="#FFFFFF" d="M269.017,467.27c0,1.934-1.348,3.135-3.105,3.135s-3.105-1.201-3.105-3.135v-4.336h1.245v4.336
				c0,1.274,0.879,1.963,1.86,1.963s1.86-0.688,1.86-1.963v-4.336h1.245V467.27z"/>
			<path fill="#FFFFFF" d="M276.708,463.915v-0.981h1.201v7.324h-1.201v-1.245c-0.513,0.776-1.406,1.465-2.52,1.465
				c-1.89,0-3.413-1.538-3.413-3.765c0-2.417,1.523-3.926,3.53-3.926C275.14,462.787,276.078,463.212,276.708,463.915z
				 M272.02,466.713c0,1.421,0.938,2.593,2.358,2.593c1.333,0,2.344-1.157,2.329-2.725l-0.015-1.406
				c-0.615-0.762-1.274-1.216-2.168-1.216C272.958,463.959,272.02,465.292,272.02,466.713z"/>
			<path fill="#FFFFFF" d="M281.6,470.258h-1.201v-10.547h1.201V470.258z"/>
			<path fill="#FFFFFF" d="M285.292,470.258h-1.201v-10.547h1.201V470.258z"/>
			<path fill="#FFFFFF" d="M294.681,462.934l-5.391,10.84h-1.392l2.095-3.955l-3.237-6.885h1.436l2.563,5.391l2.49-5.391H294.681z"
				/>
			<path fill="#FFFFFF" d="M306.927,467.064h-5.625c0.176,1.23,1.143,2.241,2.549,2.241c1.055,0,1.714-0.483,2.197-0.835v1.216
				c-0.293,0.293-1.055,0.791-2.197,0.791c-2.227,0-3.823-1.758-3.823-3.838s1.465-3.853,3.53-3.853c2.256,0,3.369,1.553,3.369,3.56
				V467.064z M305.741,466.039c-0.146-1.421-1.157-2.08-2.183-2.08c-1.201,0-2.021,0.923-2.227,2.08H305.741z"/>
			<path fill="#FFFFFF" d="M314.325,463.915v-0.981h1.201v7.324h-1.201v-1.245c-0.513,0.776-1.406,1.465-2.52,1.465
				c-1.89,0-3.413-1.538-3.413-3.765c0-2.417,1.523-3.926,3.53-3.926C312.757,462.787,313.695,463.212,314.325,463.915z
				 M309.637,466.713c0,1.421,0.938,2.593,2.358,2.593c1.333,0,2.344-1.157,2.329-2.725l-0.015-1.406
				c-0.615-0.762-1.274-1.216-2.168-1.216C310.575,463.959,309.637,465.292,309.637,466.713z"/>
			<path fill="#FFFFFF" d="M322.367,462.992v1.436c-0.308-0.234-0.688-0.381-1.069-0.381c-0.996,0-1.538,0.806-2.08,1.787v4.424
				h-1.201v-7.324h1.201v1.465c0.557-0.967,1.421-1.611,2.256-1.611C321.81,462.787,322.103,462.86,322.367,462.992z"/>
			<path fill="#FFFFFF" d="M330.204,465.79v4.468h-1.201l-0.015-4.351c0-1.26-0.542-1.948-1.699-1.948
				c-0.776,0-1.597,0.674-2.183,1.436v4.863h-1.201v-7.324h1.201v1.157c0.454-0.571,1.392-1.304,2.388-1.304
				C328.988,462.787,330.204,463.769,330.204,465.79z"/>
			<path fill="#FFFFFF" d="M334.452,469.496c0,0.557-0.469,1.025-1.025,1.025c-0.571,0-1.025-0.469-1.025-1.025
				c0-0.571,0.454-1.025,1.025-1.025C333.983,468.471,334.452,468.925,334.452,469.496z M334.027,467.035h-1.201v-6.592h1.201
				V467.035z"/>
		</g>
	</g>
	<g>
		<polygon fill="#FFD195" points="168.03,194.53 226.528,196.667 202.833,264.512 164.291,264.512 136.833,255.53 113.539,255.53 
			113.539,212.025 135.167,212.025 		"/>
		<g>
			<path fill="#3A3A3A" d="M339.333,265.448v-71.336c0-4.758-3.517-8.757-8.276-8.757l-70.806,0.466h-18.118h-11.227h-21.675
				h-33.464c-4.758,0-8.25,3.999-8.25,8.757v0.132v17.692v52.58c0,4.758,3.492,8.237,8.25,8.237l155.289,0.469
				C335.816,273.688,339.333,270.208,339.333,265.448"/>
			<path opacity="0.5" d="M178.921,223.213c3.423,0,6.199,2.773,6.199,6.199c0,3.428-2.776,6.201-6.199,6.201
				c-3.425,0-6.201-2.773-6.201-6.201C172.72,225.987,175.497,223.213,178.921,223.213"/>
			<rect x="191.355" y="192.774" fill="#197278" width="126.129" height="73.492"/>
			<g opacity="0.4">
				<g>
					<defs>
						<rect id="SVGID_1_" x="171.365" y="221.851" width="15.115" height="15.123"/>
					</defs>
					<clipPath id="SVGID_2_">
						<use xlink:href="#SVGID_1_"  overflow="visible"/>
					</clipPath>
					<g clip-path="url(#SVGID_2_)">
						<defs>
							<rect id="SVGID_3_" x="171.365" y="221.851" width="15.115" height="15.125"/>
						</defs>
						<clipPath id="SVGID_4_">
							<use xlink:href="#SVGID_3_"  overflow="visible"/>
						</clipPath>
						<path clip-path="url(#SVGID_4_)" fill="#383838" d="M178.921,221.851c4.177,0,7.563,3.388,7.563,7.562
							c0,4.176-3.386,7.562-7.563,7.562c-4.175,0-7.561-3.386-7.561-7.562C171.361,225.239,174.747,221.851,178.921,221.851"/>
					</g>
				</g>
			</g>
			<path fill="#262626" d="M324.014,237.022c-0.347,0-0.632-0.285-0.632-0.63v-13.741c0-0.348,0.285-0.631,0.632-0.631h0.785
				c0.347,0,0.628,0.283,0.628,0.631v13.741c0,0.345-0.281,0.63-0.628,0.63H324.014z"/>
			<path fill="#262626" d="M330.36,227.705c1.005,0,1.817,0.813,1.817,1.815s-0.813,1.814-1.817,1.814
				c-1.002,0-1.813-0.813-1.813-1.814S329.358,227.705,330.36,227.705"/>
			<path fill="#262626" d="M324.375,217.658c0.662,0,1.2,0.536,1.2,1.198c0,0.663-0.538,1.196-1.2,1.196
				c-0.66,0-1.195-0.533-1.195-1.196C323.179,218.194,323.714,217.658,324.375,217.658"/>
		</g>
		<g>
			<circle fill="#FFFFFF" cx="213.582" cy="229.519" r="13.479"/>
			<path fill="#42352C" d="M207.917,219.225c0.007-0.009,0.015-0.018,0.022-0.025C207.939,219.199,207.929,219.207,207.917,219.225z
				"/>
			<path fill="#8E8E8E" d="M214.807,242.94c2.661-0.24,5.098-1.254,7.085-2.813l-3.709-1.357l-0.697-1.065l-0.933-0.016
				l-0.122-1.521l1.766-1.959l1.269-3.459l-0.019-0.596c1.378-0.236,1.143-1.74,1.143-1.74c0.011-1.46-0.759-1.716-1.244-1.732
				l-0.021-0.677l0.726-3.002c0,0-0.338-1.087-0.646-2.046c-0.103-0.321,0.702,0.02,0.702,0.02s-0.312-2.221-5.494-2.735
				c-5.181-0.515-6.622,2.122-6.622,2.122c-0.288-0.764-0.137-1.058-0.074-1.138c-1.014,1.077-0.788,2.528-0.788,2.528l-0.578-0.459
				l-0.163,3.174l0.639,1.986l0.046,0.285c-0.413,0.108-1.006,0.498-1.011,1.857c0,0-0.043,1.657,1.547,1.577l0.091,0.667
				l1.559,3.695l1.44,1.209l-0.086,1.769l-1.211,0.013l-0.484,1.227l-3.51,1.48c2.07,1.582,4.612,2.578,7.378,2.739
				C212.785,242.973,213.862,243.06,214.807,242.94z M208.348,225.538v-0.002l0.001-0.001L208.348,225.538z"/>
		</g>
		<path opacity="0.1" d="M198.535,217.558c0,0-3.111,21.07-31.535,6.764c0,0-0.166,3-6.063,6.694
			c-5.283,3.311-17.063,2.306-20.271-0.375c0,0,3.458-6.445-4.166-13.309l29.067-14L198.535,217.558z"/>
		<path opacity="0.1" fill="#FFFFFF" d="M331.056,185.355l-70.806,0.466h-18.118h-11.227h-21.675h-33.464
			c-4.758,0-8.25,3.999-8.25,8.757v0.132v17.692v52.58c0,2.381,0.875,4.442,2.346,5.907l167.653-82.296
			C336.031,186.629,333.742,185.355,331.056,185.355z"/>
		<path fill="#FFD195" d="M198.535,213.558c0,0-3.449,21.598-31.873,7.291c0,0-7.995,12.459-25.995,9.792
			c0,0-10.7-2.289-4.166-17.309l29.067-14L198.535,213.558z"/>
		<rect x="0" y="210.835" fill="#1B9AAA" width="103.334" height="47.244"/>
		<polygon fill="#25B6C1" points="119.539,261.697 103.513,261.697 102.513,208.217 120.539,207.217 		"/>
		<rect x="0" y="247.53" opacity="0.05" width="103.334" height="10.548"/>
		<polygon opacity="0.1" points="120.539,212.025 124.333,255.53 119.652,255.53 		"/>
		<polygon fill="#FFD195" points="310.479,295.632 251.981,297.768 275.675,365.613 314.218,365.613 341.675,356.632 
			364.97,356.632 364.97,313.126 343.342,313.126 		"/>
		<g>
			<polygon fill="#8EA604" points="308.479,288.632 304.175,378.632 162.412,378.632 155.912,286.298 			"/>
			<polygon fill="#AAD643" points="296.979,298.956 294.363,365.402 174.148,365.402 170.662,298.194 			"/>
			<ellipse fill="#83C736" cx="218.744" cy="331.798" rx="19.748" ry="18.349"/>
		</g>
		<polygon opacity="0.1" points="304.382,374.305 165.495,374.132 164.328,286.298 304.542,370.965 		"/>
		<g>
			<polygon fill="#8EA604" points="313.479,283.632 310.479,370.965 168.162,370.965 164.162,282.632 			"/>
			<polygon fill="#AAD643" points="301.979,293.956 299.363,360.402 179.148,360.402 175.662,293.194 			"/>
			<ellipse fill="#8EA604" cx="240.504" cy="326.798" rx="19.747" ry="18.349"/>
		</g>
		<path opacity="0.1" d="M279.974,318.659c0,0,3.111,21.071,31.535,6.764c0,0,0.166,3,6.063,6.695
			c5.283,3.311,17.063,2.305,20.271-0.375c0,0-3.458-6.445,4.166-13.309l-29.067-14L279.974,318.659z"/>
		<path fill="#FFD195" d="M279.974,314.659c0,0,3.449,21.598,31.873,7.291c0,0,7.995,12.46,25.995,9.793
			c0,0,10.7-2.289,4.166-17.309l-29.067-14L279.974,314.659z"/>
		<rect x="375.175" y="311.937" fill="#F8FCFF" width="103.334" height="47.243"/>
		<polygon fill="#F8FCFF" points="358.97,362.799 374.996,362.799 375.996,309.318 357.97,308.318 		"/>
		<rect x="375.175" y="348.632" opacity="0.05" width="103.334" height="10.548"/>
		<polygon fill="#808782" points="372.009,306.798 372.009,365.613 481.009,362.799 481.009,306.798 		"/>
		<ellipse fill="#6F7571" cx="392.447" cy="354.414" rx="6.063" ry="4.617"/>
		<polygon opacity="0.1" points="357.97,313.126 354.175,356.632 358.857,356.632 		"/>
		<g>
			<polygon fill="#8E8E8E" points="309.72,236.136 234.48,236.136 234.061,222.907 310.139,222.907 			"/>
			<polygon opacity="0.15" points="307.273,234.104 236.926,234.104 236.516,224.939 307.683,224.939 			"/>
			<polygon fill="#C2E812" points="307.273,234.104 236.926,234.104 236.516,224.939 307.683,224.939 			"/>
		</g>
		<polygon fill="#FFFFFF" points="308.972,214.268 308.293,222.019 300.864,223.472 308.713,223.736 310.468,231.546 
			310.978,223.406 317.959,221.451 310.658,221.273 		"/>
		<g opacity="0.3">
			<rect x="371.213" y="213.489" fill="#FFFFFF" width="1.593" height="8.336"/>
			<rect x="367.841" y="216.861" fill="#FFFFFF" width="8.337" height="1.592"/>
		</g>
		<g opacity="0.3">
			<rect x="194.727" y="162.44" fill="#FFFFFF" width="1.593" height="8.336"/>
			<rect x="191.355" y="165.813" fill="#FFFFFF" width="8.337" height="1.592"/>
		</g>
		<g opacity="0.5">
			<rect x="348.484" y="142.706" fill="#FFFFFF" width="3.057" height="16.007"/>
			<rect x="342.008" y="149.181" fill="#FFFFFF" width="16.007" height="3.057"/>
		</g>
		<g opacity="0.3">
			<rect x="135.705" y="274.092" fill="#FFFFFF" width="1.593" height="8.336"/>
			<rect x="132.333" y="277.464" fill="#FFFFFF" width="8.337" height="1.592"/>
		</g>
		<g opacity="0.3">
			<rect x="391.651" y="160.611" fill="#FFFFFF" width="1.593" height="8.336"/>
			<rect x="388.279" y="163.983" fill="#FFFFFF" width="8.337" height="1.592"/>
		</g>
		<g opacity="0.5">
			<rect x="118.966" y="170.348" fill="#FFFFFF" width="3.057" height="16.007"/>
			<rect x="112.491" y="176.823" fill="#FFFFFF" width="16.007" height="3.057"/>
		</g>
		<path opacity="0.3" fill="#FFFFFF" d="M289.584,168.15c0,1.859-1.508,4.582-3.369,4.582c-1.86,0-3.369-2.722-3.369-4.582
			c0-1.861,1.509-3.371,3.369-3.371C288.077,164.779,289.584,166.289,289.584,168.15z"/>
		<path opacity="0.3" fill="#FFFFFF" d="M179.458,146.077c0,1.859-1.508,4.582-3.369,4.582c-1.86,0-3.369-2.722-3.369-4.582
			c0-1.861,1.509-3.371,3.369-3.371C177.951,142.706,179.458,144.215,179.458,146.077z"/>
		<path opacity="0.3" fill="#FFFFFF" d="M146.054,302.456c0,0.855-0.693,2.107-1.55,2.107s-1.55-1.252-1.55-2.107
			c0-0.856,0.693-1.551,1.55-1.551S146.054,301.6,146.054,302.456z"/>
		<path opacity="0.5" fill="#FFFFFF" d="M95.794,153.789c0,0.855-0.693,2.108-1.55,2.108s-1.55-1.252-1.55-2.108
			c0-0.856,0.693-1.551,1.55-1.551S95.794,152.932,95.794,153.789z"/>
		<g opacity="0.5">
			<rect x="357.329" y="269.415" fill="#FFFFFF" width="3.057" height="16.007"/>
			<rect x="350.853" y="275.89" fill="#FFFFFF" width="16.007" height="3.057"/>
		</g>
		<g opacity="0.5">
			<rect x="94.266" y="310.271" fill="#FFFFFF" width="3.057" height="16.006"/>
			<rect x="87.791" y="316.745" fill="#FFFFFF" width="16.007" height="3.057"/>
		</g>
		<path opacity="0.3" fill="#FFFFFF" d="M395.816,242.398c0,1.859-1.508,4.582-3.369,4.582c-1.86,0-3.369-2.722-3.369-4.582
			c0-1.861,1.509-3.371,3.369-3.371C394.308,239.027,395.816,240.537,395.816,242.398z"/>
		<path opacity="0.3" fill="#FFFFFF" d="M141.399,353.301c0,1.859-1.508,4.581-3.369,4.581c-1.86,0-3.369-2.722-3.369-4.581
			c0-1.861,1.509-3.371,3.369-3.371C139.891,349.93,141.399,351.439,141.399,353.301z"/>
		<g opacity="0.3">
			<rect x="343.326" y="367.193" fill="#FFFFFF" width="1.593" height="8.337"/>
			<rect x="339.954" y="370.566" fill="#FFFFFF" width="8.337" height="1.592"/>
		</g>
	</g>
	<g opacity="0.5">
		<polygon fill="#FFFFFF" points="467.532,19.579 469.097,19.579 469.097,23.955 457.322,23.955 457.322,8.265 469.097,8.265 
			469.097,12.694 467.568,12.694 467.568,9.866 458.905,9.866 458.905,22.354 467.532,22.354 		"/>
		<polygon fill="#FFFFFF" points="463.382,15.037 463.382,17.219 469.857,17.219 469.857,19.733 474.743,16.114 469.857,12.499 
			469.857,14.965 		"/>
	</g>
	<g>
		<rect x="182.803" y="497.937" fill="#FF9F03" width="115.4" height="45.63"/>
		<g>
			<g>
				<path fill="#FFFFFF" d="M221.995,529.445h-1.305l-10.126-10.459v10.332h-3.555v-17.262h1.304l10.127,10.611v-10.482h3.555
					V529.445z"/>
				<path fill="#FFFFFF" d="M230.668,515.254v3.887h7.57v2.889h-7.57v4.145h8.567v3.145h-12.122v-17.133h12.122v3.068H230.668z"/>
				<path fill="#FFFFFF" d="M252.436,520.854l6.111,8.465h-4.476l-4.143-5.984l-4.04,5.984h-4.348l5.958-8.592l-5.958-8.541h4.475
					l4.016,6.213l4.04-6.213h4.476L252.436,520.854z"/>
				<path fill="#FFFFFF" d="M273.998,515.381h-5.473v13.859h-3.529v-13.859h-5.473v-3.195h14.475V515.381z"/>
			</g>
		</g>
	</g>
</g>
</svg>
