<?xml version="1.0" encoding="utf-8"?>
<!-- Generator: Adobe Illustrator 16.0.0, SVG Export Plug-In . SVG Version: 6.00 Build 0)  -->
<!DOCTYPE svg PUBLIC "-//W3C//DTD SVG 1.1//EN" "http://www.w3.org/Graphics/SVG/1.1/DTD/svg11.dtd">
<svg version="1.1" id="Layer_1" xmlns="http://www.w3.org/2000/svg" xmlns:xlink="http://www.w3.org/1999/xlink" x="0px" y="0px"
	 width="481.009px" height="579.844px" viewBox="0 0 481.009 579.844" enable-background="new 0 0 481.009 579.844"
	 xml:space="preserve">
<g>
	<rect fill="#8EC14C" width="481.009" height="579.844"/>
	<g>
		<g>
			<path fill="#FFFFFF" d="M59.859,73.152h-2.385l-3.701-10.707l-3.702,10.707h-2.385l-5.54-16.644h3.925l3.081,10.508l3.502-10.508
				h2.311l3.453,10.508l3.13-10.508h3.925L59.859,73.152z"/>
			<path fill="#FFFFFF" d="M71.658,59.489v3.776h7.353v2.807h-7.353v4.024h8.322v3.055H68.205V56.508h11.775v2.981H71.658z"/>
			<path fill="#FFFFFF" d="M87.903,70.047h8.322v3.105H84.45V56.508h3.453V70.047z"/>
			<path fill="#FFFFFF" d="M106.831,56.136c2.086,0,3.552,0.621,4.695,1.615v3.477c-1.217-0.919-2.385-1.838-4.596-1.838
				c-2.981,0-5.366,2.335-5.366,5.44c0,3.105,2.385,5.416,5.366,5.416c2.211,0,3.602-0.795,4.844-1.764v3.354
				c-1.143,1.019-2.857,1.689-4.943,1.689c-4.77,0-8.794-3.552-8.794-8.694S102.061,56.136,106.831,56.136L106.831,56.136z"/>
			<path fill="#FFFFFF" d="M131.422,64.83c0,5.142-3.925,8.694-8.694,8.694s-8.719-3.552-8.719-8.694s3.95-8.694,8.719-8.694
				S131.422,59.688,131.422,64.83z M117.536,64.83c0,3.105,2.211,5.416,5.192,5.416s5.167-2.31,5.167-5.416
				c0-3.105-2.186-5.44-5.167-5.44S117.536,61.725,117.536,64.83z"/>
			<path fill="#FFFFFF" d="M151.518,73.152h-3.453V62.719l-4.248,4.72h-1.019l-4.322-4.72v10.433h-3.453V56.384h1.516l6.757,7.179
				l6.707-7.179h1.516V73.152z"/>
			<path fill="#FFFFFF" d="M159.937,59.489v3.776h7.353v2.807h-7.353v4.024h8.322v3.055h-11.775V56.508h11.775v2.981H159.937z"/>
			<path fill="#FFFFFF" d="M192.452,59.614h-5.316v13.464h-3.428V59.614h-5.316v-3.105h14.06V59.614z"/>
			<path fill="#FFFFFF" d="M211.405,64.83c0,5.142-3.925,8.694-8.694,8.694s-8.719-3.552-8.719-8.694s3.95-8.694,8.719-8.694
				S211.405,59.688,211.405,64.83z M197.519,64.83c0,3.105,2.211,5.416,5.192,5.416s5.167-2.31,5.167-5.416
				c0-3.105-2.186-5.44-5.167-5.44S197.519,61.725,197.519,64.83z"/>
			<path fill="#FFFFFF" d="M225.911,70.047h8.322v3.105h-11.775V56.508h3.453V70.047z"/>
			<path fill="#FFFFFF" d="M241.733,59.489v3.776h7.353v2.807h-7.353v4.024h8.322v3.055H238.28V56.508h11.775v2.981H241.733z"/>
			<path fill="#FFFFFF" d="M261.754,73.276h-1.714l-7.75-16.768h4.049l4.546,11.005l4.571-11.005h4.049L261.754,73.276z"/>
			<path fill="#FFFFFF" d="M275.689,59.489v3.776h7.353v2.807h-7.353v4.024h8.322v3.055h-11.775V56.508h11.775v2.981H275.689z"/>
			<path fill="#FFFFFF" d="M291.934,70.047h8.322v3.105h-11.775V56.508h3.453V70.047z"/>
			<path fill="#FFFFFF" d="M321.419,73.152l-6.21-6.832v6.832h-3.453V56.508h6.757c3.105,0,6.285,1.714,6.285,5.391
				c0,2.882-2.36,4.596-5.068,4.819l6.235,6.434H321.419z M315.209,59.737v4.198c0.819,0.249,1.813,0.422,2.807,0.422
				c1.987,0,3.254-0.845,3.254-2.335c0-1.615-1.416-2.285-3.205-2.285L315.209,59.737z"/>
			<path fill="#FFFFFF" d="M332.149,59.489v3.776h7.353v2.807h-7.353v4.024h8.322v3.055h-11.775V56.508h11.775v2.981H332.149z"/>
			<path fill="#FFFFFF" d="M360.417,73.152h-2.385l-3.701-10.707l-3.702,10.707h-2.385l-5.54-16.644h3.925l3.081,10.508
				l3.502-10.508h2.311l3.453,10.508l3.13-10.508h3.925L360.417,73.152z"/>
			<path fill="#FFFFFF" d="M376.189,70.047h-6.583l-1.267,3.105h-4.049l7.75-16.768h1.714l7.75,16.768h-4.049L376.189,70.047z
				 M374.997,67.115l-2.086-5.092l-2.087,5.092H374.997z"/>
			<path fill="#FFFFFF" d="M393.9,73.152l-6.21-6.832v6.832h-3.453V56.508h6.757c3.105,0,6.285,1.714,6.285,5.391
				c0,2.882-2.36,4.596-5.068,4.819l6.235,6.434H393.9z M387.69,59.737v4.198c0.819,0.249,1.813,0.422,2.807,0.422
				c1.987,0,3.254-0.845,3.254-2.335c0-1.615-1.416-2.285-3.205-2.285L387.69,59.737z"/>
			<path fill="#FFFFFF" d="M416.43,64.731c0,4.918-3.254,8.744-8.62,8.744c-2.285,0-4.621-0.273-6.632-0.67V56.508h6.036
				C412.058,56.508,416.43,59.365,416.43,64.731z M404.63,59.738v10.21c0.994,0.199,2.136,0.273,3.081,0.273
				c3.428,0,5.191-2.26,5.191-5.366c0-3.329-2.583-5.117-5.813-5.117H404.63z"/>
			<path fill="#FFFFFF" d="M429.221,57.502v3.403c-1.192-0.746-2.509-1.491-4.223-1.491c-1.292,0-2.732,0.546-2.732,1.813
				c0,1.093,1.093,1.515,2.484,2.087l2.037,0.844c2.335,0.994,3.378,2.41,3.378,4.248c0,2.956-2.856,5.067-6.31,5.067
				c-1.938,0-3.801-0.795-5.142-1.739v-3.403c1.441,1.043,3.229,1.888,5.217,1.888c1.391,0,2.534-0.546,2.534-1.64
				c0-0.87-0.969-1.391-1.938-1.739l-2.559-0.994c-2.583-0.994-3.304-2.683-3.304-4.621c0-3.056,2.807-5.043,5.912-5.043
				C426.514,56.185,428.153,56.806,429.221,57.502z"/>
			<path fill="#FFFFFF" d="M437.12,71.612c0,1.093-0.894,2.012-1.987,2.012c-1.093,0-1.987-0.919-1.987-2.012
				c0-1.093,0.894-1.987,1.987-1.987C436.226,69.625,437.12,70.519,437.12,71.612z M436.524,67.438h-2.782v-10.93h2.782V67.438z"/>
			<path fill="#FFFFFF" d="M38.734,97.375h-3.158v7.957h-1.23v-7.957h-3.158v-1.162h7.547V97.375z"/>
			<path fill="#FFFFFF" d="M48.318,96.213v9.16h-1.23v-4.143h-5.223v4.143h-1.23v-9.16h1.23v3.855h5.223v-3.855H48.318z"/>
			<path fill="#FFFFFF" d="M52.557,97.375v2.721h4.457v1.162h-4.457v2.953h5.045v1.162h-6.275v-9.16h6.275v1.162H52.557z"/>
			<path fill="#FFFFFF" d="M70.754,97.375h-3.158v7.957h-1.23v-7.957h-3.158v-1.162h7.547V97.375z"/>
			<path fill="#FFFFFF" d="M81.486,100.793c0,2.625-2.064,4.785-4.826,4.785s-4.826-2.16-4.826-4.785s2.064-4.785,4.826-4.785
				S81.486,98.168,81.486,100.793z M73.092,100.793c0,2.051,1.518,3.582,3.568,3.582s3.568-1.531,3.568-3.582
				s-1.518-3.582-3.568-3.582S73.092,98.742,73.092,100.793z"/>
			<path fill="#FFFFFF" d="M90.51,99.303c0,1.613-1.504,2.939-3.391,2.939c-0.943,0-1.736-0.232-2.215-0.451v3.582h-1.23v-9.16h3.65
				C88.896,96.213,90.51,97.416,90.51,99.303z M89.252,99.303c0-1.162-1.094-1.928-2.27-1.928h-2.078v3.295
				c0.492,0.205,1.354,0.41,2.174,0.41C88.459,101.08,89.252,100.328,89.252,99.303z"/>
			<path fill="#FFFFFF" d="M98.029,97.375v3.063h3.938v1.162h-3.938v3.773h-1.23v-9.16h5.988v1.162H98.029z"/>
			<path fill="#FFFFFF" d="M111.059,105.373l-4.348-3.855v3.855h-1.23v-9.16h3.514c1.572,0,3.186,0.861,3.186,2.748
				c0,1.709-1.668,2.611-3.254,2.611c-0.123,0-0.273,0-0.451-0.014l4.471,3.814H111.059z M106.711,97.375v2.939
				c0.602,0.164,1.34,0.26,2.037,0.26c1.381,0,2.174-0.629,2.174-1.613c0-1.025-0.957-1.586-2.133-1.586H106.711z"/>
			<path fill="#FFFFFF" d="M115.816,97.375v2.721h4.457v1.162h-4.457v2.953h5.045v1.162h-6.275v-9.16h6.275v1.162H115.816z"/>
			<path fill="#FFFFFF" d="M124.689,97.375v2.721h4.457v1.162h-4.457v2.953h5.045v1.162h-6.275v-9.16h6.275v1.162H124.689z"/>
			<path fill="#FFFFFF" d="M139.318,102.789c0,1.531-1.436,2.721-3.65,2.721c-1.135,0-2.475-0.15-3.336-0.342v-8.955h3.664
				c1.627,0,2.885,0.984,2.885,2.475c0,0.752-0.396,1.627-1.34,1.982C138.348,100.834,139.318,101.463,139.318,102.789z
				 M133.563,97.375v2.871h2.146c1.148,0,1.914-0.588,1.914-1.422c0-0.971-0.766-1.449-1.914-1.449H133.563z M138.061,102.789
				c0-0.998-1.053-1.449-2.324-1.449h-2.174v2.844c0.656,0.123,1.572,0.164,2.078,0.164
				C137.008,104.348,138.061,103.746,138.061,102.789z"/>
			<path fill="#FFFFFF" d="M144.514,97.375v6.836h1.545v1.162h-4.32v-1.162h1.545v-6.836h-1.545v-1.162h4.32v1.162H144.514z"/>
			<path fill="#FFFFFF" d="M150.297,97.375v2.721h4.457v1.162h-4.457v2.953h5.045v1.162h-6.275v-9.16h6.275v1.162H150.297z"/>
			<path fill="#FFFFFF" d="M167.619,105.373l-4.348-3.855v3.855h-1.23v-9.16h3.514c1.572,0,3.186,0.861,3.186,2.748
				c0,1.709-1.668,2.611-3.254,2.611c-0.123,0-0.273,0-0.451-0.014l4.471,3.814H167.619z M163.271,97.375v2.939
				c0.602,0.164,1.34,0.26,2.037,0.26c1.381,0,2.174-0.629,2.174-1.613c0-1.025-0.957-1.586-2.133-1.586H163.271z"/>
			<path fill="#FFFFFF" d="M172.377,97.375v2.721h4.457v1.162h-4.457v2.953h5.045v1.162h-6.275v-9.16h6.275v1.162H172.377z"/>
			<path fill="#FFFFFF" d="M181.25,97.375v3.063h3.938v1.162h-3.938v3.773h-1.23v-9.16h5.988v1.162H181.25z"/>
			<path fill="#FFFFFF" d="M189.932,97.375v2.721h4.457v1.162h-4.457v2.953h5.045v1.162h-6.275v-9.16h6.275v1.162H189.932z"/>
			<path fill="#FFFFFF" d="M203.152,105.373l-4.348-3.855v3.855h-1.23v-9.16h3.514c1.572,0,3.186,0.861,3.186,2.748
				c0,1.709-1.668,2.611-3.254,2.611c-0.123,0-0.273,0-0.451-0.014l4.471,3.814H203.152z M198.805,97.375v2.939
				c0.602,0.164,1.34,0.26,2.037,0.26c1.381,0,2.174-0.629,2.174-1.613c0-1.025-0.957-1.586-2.133-1.586H198.805z"/>
			<path fill="#FFFFFF" d="M212.258,105.373l-4.348-3.855v3.855h-1.23v-9.16h3.514c1.572,0,3.186,0.861,3.186,2.748
				c0,1.709-1.668,2.611-3.254,2.611c-0.123,0-0.273,0-0.451-0.014l4.471,3.814H212.258z M207.91,97.375v2.939
				c0.602,0.164,1.34,0.26,2.037,0.26c1.381,0,2.174-0.629,2.174-1.613c0-1.025-0.957-1.586-2.133-1.586H207.91z"/>
			<path fill="#FFFFFF" d="M221.158,103.186h-4.293l-0.971,2.188h-1.477l4.279-9.16h0.615l4.279,9.16h-1.477L221.158,103.186z
				 M220.652,102.023l-1.627-3.732l-1.654,3.732H220.652z"/>
			<path fill="#FFFFFF" d="M226.463,104.211h5.045v1.162h-6.275v-9.16h1.23V104.211z"/>
			<path fill="#FFFFFF" d="M240.805,97.375v6.836h1.545v1.162h-4.32v-1.162h1.545v-6.836h-1.545v-1.162h4.32v1.162H240.805z"/>
			<path fill="#FFFFFF" d="M253,105.373h-0.492l-5.92-6.549v6.549h-1.23v-9.16h0.492l5.92,6.631v-6.631H253V105.373z"/>
			<path fill="#FFFFFF" d="M262.762,96.992v1.354c-0.615-0.424-1.354-1.135-2.748-1.135c-2.051,0-3.568,1.531-3.568,3.582
				s1.518,3.582,3.568,3.582c1.395,0,2.379-0.574,3.021-1.066v1.23c-0.643,0.574-1.695,1.039-3.021,1.039
				c-2.762,0-4.826-2.16-4.826-4.785s2.064-4.785,4.826-4.785C261.34,96.008,262.119,96.418,262.762,96.992z"/>
			<path fill="#FFFFFF" d="M266.453,97.375v2.721h4.457v1.162h-4.457v2.953h5.045v1.162h-6.275v-9.16h6.275v1.162H266.453z"/>
			<path fill="#FFFFFF" d="M281.738,105.373h-0.492l-5.92-6.549v6.549h-1.23v-9.16h0.492l5.92,6.631v-6.631h1.23V105.373z"/>
			<path fill="#FFFFFF" d="M291.199,97.375h-3.158v7.957h-1.23v-7.957h-3.158v-1.162h7.547V97.375z"/>
			<path fill="#FFFFFF" d="M295.875,97.375v6.836h1.545v1.162h-4.32v-1.162h1.545v-6.836H293.1v-1.162h4.32v1.162H295.875z"/>
			<path fill="#FFFFFF" d="M303.955,105.373h-0.615l-4.279-9.16h1.477l3.09,7.082l3.131-7.082h1.477L303.955,105.373z"/>
			<path fill="#FFFFFF" d="M311.105,97.375v2.721h4.457v1.162h-4.457v2.953h5.045v1.162h-6.275v-9.16h6.275v1.162H311.105z"/>
			<path fill="#FFFFFF" d="M327.32,96.801v1.271c-0.52-0.383-1.271-0.793-2.119-0.793c-0.834,0-1.9,0.424-1.9,1.408
				c0,0.738,0.602,1.039,1.354,1.381l1.258,0.574c1.258,0.574,1.9,1.176,1.9,2.324c0,1.49-1.463,2.543-3.145,2.543
				c-1.053,0-1.969-0.424-2.625-0.889v-1.271c0.711,0.492,1.627,0.957,2.789,0.957c0.916,0,1.723-0.479,1.723-1.285
				c0-0.684-0.752-1.066-1.313-1.313l-1.518-0.684c-1.313-0.588-1.695-1.354-1.695-2.379c0-1.449,1.408-2.57,3.035-2.57
				C326.145,96.076,326.787,96.459,327.32,96.801z"/>
			<path fill="#FFFFFF" d="M332.775,97.375v6.836h1.545v1.162H330v-1.162h1.545v-6.836H330v-1.162h4.32v1.162H332.775z"/>
			<path fill="#FFFFFF" d="M343.781,97.375h-3.158v7.957h-1.23v-7.957h-3.158v-1.162h7.547V97.375z"/>
			<path fill="#FFFFFF" d="M346.912,97.375v2.721h4.457v1.162h-4.457v2.953h5.045v1.162h-6.275v-9.16h6.275v1.162H346.912z"/>
			<path fill="#FFFFFF" d="M367.488,100.793c0,2.625-2.064,4.785-4.826,4.785s-4.826-2.16-4.826-4.785s2.064-4.785,4.826-4.785
				S367.488,98.168,367.488,100.793z M359.094,100.793c0,2.051,1.518,3.582,3.568,3.582s3.568-1.531,3.568-3.582
				s-1.518-3.582-3.568-3.582S359.094,98.742,359.094,100.793z"/>
			<path fill="#FFFFFF" d="M377.318,105.373h-0.492l-5.92-6.549v6.549h-1.23v-9.16h0.492l5.92,6.631v-6.631h1.23V105.373z"/>
			<path fill="#FFFFFF" d="M390.881,97.375h-3.158v7.957h-1.23v-7.957h-3.158v-1.162h7.547V97.375z"/>
			<path fill="#FFFFFF" d="M400.465,96.213v9.16h-1.23v-4.143h-5.223v4.143h-1.23v-9.16h1.23v3.855h5.223v-3.855H400.465z"/>
			<path fill="#FFFFFF" d="M404.703,97.375v2.721h4.457v1.162h-4.457v2.953h5.045v1.162h-6.275v-9.16h6.275v1.162H404.703z"/>
			<path fill="#FFFFFF" d="M424.5,105.373h-0.697l-2.461-6.932l-2.488,6.932h-0.697l-3.076-9.16h1.34l2.146,6.809l2.42-6.809
				l0.793,0.014l2.352,6.795l2.242-6.809h1.34L424.5,105.373z"/>
			<path fill="#FFFFFF" d="M430.584,97.375v2.721h4.457v1.162h-4.457v2.953h5.045v1.162h-6.275v-9.16h6.275v1.162H430.584z"/>
			<path fill="#FFFFFF" d="M445.213,102.789c0,1.531-1.436,2.721-3.65,2.721c-1.135,0-2.475-0.15-3.336-0.342v-8.955h3.664
				c1.627,0,2.885,0.984,2.885,2.475c0,0.752-0.396,1.627-1.34,1.982C444.242,100.834,445.213,101.463,445.213,102.789z
				 M439.457,97.375v2.871h2.146c1.148,0,1.914-0.588,1.914-1.422c0-0.971-0.766-1.449-1.914-1.449H439.457z M443.955,102.789
				c0-0.998-1.053-1.449-2.324-1.449h-2.174v2.844c0.656,0.123,1.572,0.164,2.078,0.164
				C442.902,104.348,443.955,103.746,443.955,102.789z"/>
			<path fill="#FFFFFF" d="M449.137,104.662c0,0.52-0.438,0.957-0.957,0.957c-0.533,0-0.957-0.438-0.957-0.957
				c0-0.533,0.424-0.957,0.957-0.957C448.699,103.705,449.137,104.129,449.137,104.662z M448.74,102.365h-1.121v-6.152h1.121
				V102.365z"/>
		</g>
	</g>
	<g>
		<g>
			<path fill="#FFFFFF" d="M62.563,434.278v1.45c-0.659-0.454-1.45-1.216-2.944-1.216c-2.197,0-3.823,1.641-3.823,3.838
				s1.626,3.838,3.823,3.838c1.494,0,2.549-0.615,3.237-1.143v1.318c-0.688,0.615-1.816,1.113-3.237,1.113
				c-2.959,0-5.171-2.314-5.171-5.127s2.212-5.127,5.171-5.127C61.039,433.224,61.874,433.663,62.563,434.278z"/>
			<path fill="#FFFFFF" d="M71.967,439.64c0,2.08-1.597,3.838-3.823,3.838s-3.823-1.758-3.823-3.838s1.597-3.853,3.823-3.853
				S71.967,437.56,71.967,439.64z M65.565,439.64c0,1.421,1.011,2.666,2.578,2.666s2.578-1.245,2.578-2.666
				s-1.011-2.681-2.578-2.681S65.565,438.219,65.565,439.64z"/>
			<path fill="#FFFFFF" d="M85.253,438.79v4.468h-1.201l-0.015-4.351c0-1.26-0.688-1.948-1.846-1.948
				c-0.85,0-1.436,0.615-1.992,1.318v4.98h-1.201l-0.015-4.351c0-1.26-0.688-1.948-1.846-1.948c-0.806,0-1.45,0.542-1.992,1.201
				v5.098h-1.201v-7.324h1.201v0.938c0.469-0.527,1.201-1.084,2.197-1.084c1.055,0,2.036,0.498,2.534,1.494
				c0.688-0.806,1.436-1.494,2.52-1.494C83.891,435.787,85.253,436.769,85.253,438.79z"/>
			<path fill="#FFFFFF" d="M94.657,439.479c0,2.417-1.523,3.999-3.53,3.999c-0.835,0-1.772-0.498-2.402-1.201v4.497h-1.201v-10.84
				h1.201v1.245c0.513-0.776,1.406-1.392,2.52-1.392C93.134,435.787,94.657,437.252,94.657,439.479z M88.725,439.61l0.015,1.406
				c0.615,0.762,1.274,1.289,2.168,1.289c1.567,0,2.505-1.406,2.505-2.827s-0.938-2.52-2.358-2.52
				C89.721,436.959,88.71,438.043,88.725,439.61z"/>
			<path fill="#FFFFFF" d="M97.836,443.258h-1.201v-10.547h1.201V443.258z"/>
			<path fill="#FFFFFF" d="M106.713,440.064h-5.625c0.176,1.23,1.143,2.241,2.549,2.241c1.055,0,1.714-0.483,2.197-0.835v1.216
				c-0.293,0.293-1.055,0.791-2.197,0.791c-2.227,0-3.823-1.758-3.823-3.838s1.465-3.853,3.53-3.853c2.256,0,3.369,1.553,3.369,3.56
				V440.064z M105.526,439.039c-0.146-1.421-1.157-2.08-2.183-2.08c-1.201,0-2.021,0.923-2.227,2.08H105.526z"/>
			<path fill="#FFFFFF" d="M110.712,435.934h2.139v1.128h-2.139v4.292c0,0.615,0.308,0.981,0.952,0.981
				c0.586,0,0.952-0.176,1.245-0.352v0.981c-0.396,0.308-0.776,0.513-1.509,0.513c-1.245,0-1.89-0.82-1.89-2.065v-4.351h-1.406
				v-0.352c0.952-0.425,1.567-1.436,2.051-2.886h0.557V435.934z"/>
			<path fill="#FFFFFF" d="M121.42,440.064h-5.625c0.176,1.23,1.143,2.241,2.549,2.241c1.055,0,1.714-0.483,2.197-0.835v1.216
				c-0.293,0.293-1.055,0.791-2.197,0.791c-2.227,0-3.823-1.758-3.823-3.838s1.465-3.853,3.53-3.853c2.256,0,3.369,1.553,3.369,3.56
				V440.064z M120.233,439.039c-0.146-1.421-1.157-2.08-2.183-2.08c-1.201,0-2.021,0.923-2.227,2.08H120.233z"/>
			<path fill="#FFFFFF" d="M137.621,438.351c0,2.813-2.212,5.127-5.171,5.127s-5.171-2.314-5.171-5.127s2.212-5.127,5.171-5.127
				S137.621,435.538,137.621,438.351z M128.627,438.351c0,2.197,1.626,3.838,3.823,3.838s3.823-1.641,3.823-3.838
				s-1.626-3.838-3.823-3.838S128.627,436.153,128.627,438.351z"/>
			<path fill="#FFFFFF" d="M141.254,435.128v0.806h2.139v1.128h-2.139v6.196h-1.201v-6.196h-1.157v-1.128h1.157v-0.938
				c0-1.714,1.172-2.505,2.271-2.505c0.498,0,0.923,0.146,1.216,0.396v1.055c-0.293-0.19-0.732-0.322-1.143-0.308
				C141.679,433.663,141.254,434.044,141.254,435.128z"/>
			<path fill="#FFFFFF" d="M146.645,435.128v0.806h2.139v1.128h-2.139v6.196h-1.201v-6.196h-1.157v-1.128h1.157v-0.938
				c0-1.714,1.172-2.505,2.271-2.505c0.498,0,0.923,0.146,1.216,0.396v1.055c-0.293-0.19-0.732-0.322-1.143-0.308
				C147.069,433.663,146.645,434.044,146.645,435.128z"/>
			<path fill="#FFFFFF" d="M156.767,440.064h-5.625c0.176,1.23,1.143,2.241,2.549,2.241c1.055,0,1.714-0.483,2.197-0.835v1.216
				c-0.293,0.293-1.055,0.791-2.197,0.791c-2.227,0-3.823-1.758-3.823-3.838s1.465-3.853,3.53-3.853c2.256,0,3.369,1.553,3.369,3.56
				V440.064z M155.58,439.039c-0.146-1.421-1.157-2.08-2.183-2.08c-1.201,0-2.021,0.923-2.227,2.08H155.58z"/>
			<path fill="#FFFFFF" d="M163.095,435.992v1.436c-0.308-0.234-0.688-0.381-1.069-0.381c-0.996,0-1.538,0.806-2.08,1.787v4.424
				h-1.201v-7.324h1.201v1.465c0.557-0.967,1.421-1.611,2.256-1.611C162.538,435.787,162.831,435.86,163.095,435.992z"/>
			<path fill="#FFFFFF" d="M168.822,436.344v1.289c-0.41-0.308-1.187-0.674-1.919-0.674c-0.923,0-1.377,0.527-1.377,0.996
				c0,0.366,0.22,0.791,0.894,1.025l1.23,0.439c0.952,0.337,1.421,0.981,1.421,1.816c0,1.245-1.128,2.241-2.695,2.241
				c-0.864,0-1.919-0.396-2.256-0.645v-1.289c0.41,0.308,1.436,0.762,2.168,0.762c0.923,0,1.494-0.454,1.494-1.069
				c0-0.469-0.366-0.703-1.055-0.952l-1.084-0.396c-1.143-0.425-1.406-1.099-1.406-1.934c0-1.245,1.011-2.168,2.578-2.168
				C167.68,435.787,168.485,436.095,168.822,436.344z"/>
			<path fill="#FFFFFF" d="M179.34,440.211h-4.409v-1.318h4.409V440.211z"/>
			<path fill="#FFFFFF" d="M187.543,442.013h5.405v1.245h-6.724v-9.814h1.318V442.013z"/>
			<path fill="#FFFFFF" d="M201.562,440.064h-5.625c0.176,1.23,1.143,2.241,2.549,2.241c1.055,0,1.714-0.483,2.197-0.835v1.216
				c-0.293,0.293-1.055,0.791-2.197,0.791c-2.227,0-3.823-1.758-3.823-3.838s1.465-3.853,3.53-3.853c2.256,0,3.369,1.553,3.369,3.56
				V440.064z M200.375,439.039c-0.146-1.421-1.157-2.08-2.183-2.08c-1.201,0-2.021,0.923-2.227,2.08H200.375z"/>
			<path fill="#FFFFFF" d="M206.557,443.258h-0.747l-3.296-7.324h1.436l2.212,5.391l2.402-5.391h1.436L206.557,443.258z"/>
			<path fill="#FFFFFF" d="M217.704,440.064h-5.625c0.176,1.23,1.143,2.241,2.549,2.241c1.055,0,1.714-0.483,2.197-0.835v1.216
				c-0.293,0.293-1.055,0.791-2.197,0.791c-2.227,0-3.823-1.758-3.823-3.838s1.465-3.853,3.53-3.853c2.256,0,3.369,1.553,3.369,3.56
				V440.064z M216.518,439.039c-0.146-1.421-1.157-2.08-2.183-2.08c-1.201,0-2.021,0.923-2.227,2.08H216.518z"/>
			<path fill="#FFFFFF" d="M220.883,443.258h-1.201v-10.547h1.201V443.258z"/>
			<path fill="#FFFFFF" d="M236.073,439.376c0,2.563-1.743,4.072-4.043,4.072s-4.043-1.509-4.043-4.072v-5.962h1.318v5.918
				c0,1.992,1.26,2.783,2.725,2.769s2.725-0.776,2.725-2.769v-5.918h1.318V439.376z"/>
			<path fill="#FFFFFF" d="M245.917,439.479c0,2.417-1.523,3.999-3.53,3.999c-0.835,0-1.772-0.498-2.402-1.201v4.497h-1.201v-10.84
				h1.201v1.245c0.513-0.776,1.406-1.392,2.52-1.392C244.394,435.787,245.917,437.252,245.917,439.479z M239.984,439.61l0.015,1.406
				c0.615,0.762,1.274,1.289,2.168,1.289c1.567,0,2.505-1.406,2.505-2.827s-0.938-2.52-2.358-2.52
				C240.98,436.959,239.97,438.043,239.984,439.61z"/>
			<path fill="#FFFFFF" d="M256.332,440.211h-4.409v-1.318h4.409V440.211z"/>
			<path fill="#FFFFFF" d="M269.193,443.258l-4.658-4.131v4.131h-1.318v-9.814h3.765c1.685,0,3.413,0.923,3.413,2.944
				c0,1.831-1.787,2.798-3.486,2.798c-0.132,0-0.293,0-0.483-0.015l4.79,4.087H269.193z M264.535,434.688v3.149
				c0.645,0.176,1.436,0.278,2.183,0.278c1.479,0,2.329-0.674,2.329-1.729c0-1.099-1.025-1.699-2.285-1.699H264.535z"/>
			<path fill="#FFFFFF" d="M278.554,440.064h-5.625c0.176,1.23,1.143,2.241,2.549,2.241c1.055,0,1.714-0.483,2.197-0.835v1.216
				c-0.293,0.293-1.055,0.791-2.197,0.791c-2.227,0-3.823-1.758-3.823-3.838s1.465-3.853,3.53-3.853c2.256,0,3.369,1.553,3.369,3.56
				V440.064z M277.367,439.039c-0.146-1.421-1.157-2.08-2.183-2.08c-1.201,0-2.021,0.923-2.227,2.08H277.367z"/>
			<path fill="#FFFFFF" d="M282.187,435.128v0.806h2.139v1.128h-2.139v6.196h-1.201v-6.196h-1.157v-1.128h1.157v-0.938
				c0-1.714,1.172-2.505,2.271-2.505c0.498,0,0.923,0.146,1.216,0.396v1.055c-0.293-0.19-0.732-0.322-1.143-0.308
				C282.611,433.663,282.187,434.044,282.187,435.128z"/>
			<path fill="#FFFFFF" d="M292.309,440.064h-5.625c0.176,1.23,1.143,2.241,2.549,2.241c1.055,0,1.714-0.483,2.197-0.835v1.216
				c-0.293,0.293-1.055,0.791-2.197,0.791c-2.227,0-3.823-1.758-3.823-3.838s1.465-3.853,3.53-3.853c2.256,0,3.369,1.553,3.369,3.56
				V440.064z M291.122,439.039c-0.146-1.421-1.157-2.08-2.183-2.08c-1.201,0-2.021,0.923-2.227,2.08H291.122z"/>
			<path fill="#FFFFFF" d="M298.637,435.992v1.436c-0.308-0.234-0.688-0.381-1.069-0.381c-0.996,0-1.538,0.806-2.08,1.787v4.424
				h-1.201v-7.324h1.201v1.465c0.557-0.967,1.421-1.611,2.256-1.611C298.08,435.787,298.373,435.86,298.637,435.992z"/>
			<path fill="#FFFFFF" d="M314.398,438.351c0,2.813-2.212,5.127-5.171,5.127s-5.171-2.314-5.171-5.127s2.212-5.127,5.171-5.127
				S314.398,435.538,314.398,438.351z M305.404,438.351c0,2.197,1.626,3.838,3.823,3.838s3.823-1.641,3.823-3.838
				s-1.626-3.838-3.823-3.838S305.404,436.153,305.404,438.351z"/>
			<path fill="#FFFFFF" d="M318.397,435.934h2.139v1.128h-2.139v4.292c0,0.615,0.308,0.981,0.952,0.981
				c0.586,0,0.952-0.176,1.245-0.352v0.981c-0.396,0.308-0.776,0.513-1.509,0.513c-1.245,0-1.89-0.82-1.89-2.065v-4.351h-1.406
				v-0.352c0.952-0.425,1.567-1.436,2.051-2.886h0.557V435.934z"/>
			<path fill="#FFFFFF" d="M329.018,438.79v4.468h-1.201l-0.015-4.351c0-1.26-0.542-1.948-1.699-1.948
				c-0.776,0-1.597,0.674-2.183,1.436v4.863h-1.201v-10.547h1.201v4.38c0.454-0.571,1.392-1.304,2.388-1.304
				C327.802,435.787,329.018,436.769,329.018,438.79z"/>
			<path fill="#FFFFFF" d="M337.675,440.064h-5.625c0.176,1.23,1.143,2.241,2.549,2.241c1.055,0,1.714-0.483,2.197-0.835v1.216
				c-0.293,0.293-1.055,0.791-2.197,0.791c-2.227,0-3.823-1.758-3.823-3.838s1.465-3.853,3.53-3.853c2.256,0,3.369,1.553,3.369,3.56
				V440.064z M336.488,439.039c-0.146-1.421-1.157-2.08-2.183-2.08c-1.201,0-2.021,0.923-2.227,2.08H336.488z"/>
			<path fill="#FFFFFF" d="M344.003,435.992v1.436c-0.308-0.234-0.688-0.381-1.069-0.381c-0.996,0-1.538,0.806-2.08,1.787v4.424
				h-1.201v-7.324h1.201v1.465c0.557-0.967,1.421-1.611,2.256-1.611C343.446,435.787,343.739,435.86,344.003,435.992z"/>
			<path fill="#FFFFFF" d="M349.73,436.344v1.289c-0.41-0.308-1.187-0.674-1.919-0.674c-0.923,0-1.377,0.527-1.377,0.996
				c0,0.366,0.22,0.791,0.894,1.025l1.23,0.439c0.952,0.337,1.421,0.981,1.421,1.816c0,1.245-1.128,2.241-2.695,2.241
				c-0.864,0-1.919-0.396-2.256-0.645v-1.289c0.41,0.308,1.436,0.762,2.168,0.762c0.923,0,1.494-0.454,1.494-1.069
				c0-0.469-0.366-0.703-1.055-0.952l-1.084-0.396c-1.143-0.425-1.406-1.099-1.406-1.934c0-1.245,1.011-2.168,2.578-2.168
				C348.588,435.787,349.394,436.095,349.73,436.344z"/>
			<path fill="#FFFFFF" d="M360.248,440.211h-4.409v-1.318h4.409V440.211z"/>
			<path fill="#FFFFFF" d="M375.204,441.925c-0.703,0.762-2.065,1.553-3.779,1.553c-2.959,0-5.171-2.314-5.171-5.127
				s2.212-5.127,5.171-5.127c1.421,0,2.256,0.439,2.944,1.055v1.45c-0.659-0.454-1.45-1.216-2.944-1.216
				c-2.197,0-3.823,1.641-3.823,3.838s1.626,3.838,3.823,3.838c1.479,0,2.007-0.557,2.344-0.835l0.015-2.285h-2.461v-1.172h3.882
				V441.925z"/>
			<path fill="#FFFFFF" d="M383.422,440.064h-5.625c0.176,1.23,1.143,2.241,2.549,2.241c1.055,0,1.714-0.483,2.197-0.835v1.216
				c-0.293,0.293-1.055,0.791-2.197,0.791c-2.227,0-3.823-1.758-3.823-3.838s1.465-3.853,3.53-3.853c2.256,0,3.369,1.553,3.369,3.56
				V440.064z M382.235,439.039c-0.146-1.421-1.157-2.08-2.183-2.08c-1.201,0-2.021,0.923-2.227,2.08H382.235z"/>
			<path fill="#FFFFFF" d="M387.421,435.934h2.139v1.128h-2.139v4.292c0,0.615,0.308,0.981,0.952,0.981
				c0.586,0,0.952-0.176,1.245-0.352v0.981c-0.396,0.308-0.776,0.513-1.509,0.513c-1.245,0-1.89-0.82-1.89-2.065v-4.351h-1.406
				v-0.352c0.952-0.425,1.567-1.436,2.051-2.886h0.557V435.934z"/>
			<path fill="#FFFFFF" d="M403.827,436.754c0,1.729-1.611,3.149-3.633,3.149c-1.011,0-1.86-0.249-2.373-0.483v3.838h-1.318v-9.814
				h3.911C402.099,433.443,403.827,434.732,403.827,436.754z M402.479,436.754c0-1.245-1.172-2.065-2.432-2.065h-2.227v3.53
				c0.527,0.22,1.45,0.439,2.329,0.439C401.63,438.658,402.479,437.853,402.479,436.754z"/>
			<path fill="#FFFFFF" d="M411.225,436.915v-0.981h1.201v7.324h-1.201v-1.245c-0.513,0.776-1.406,1.465-2.52,1.465
				c-1.89,0-3.413-1.538-3.413-3.765c0-2.417,1.523-3.926,3.53-3.926C409.657,435.787,410.595,436.212,411.225,436.915z
				 M406.537,439.713c0,1.421,0.938,2.593,2.358,2.593c1.333,0,2.344-1.157,2.329-2.725l-0.015-1.406
				c-0.615-0.762-1.274-1.216-2.168-1.216C407.475,436.959,406.537,438.292,406.537,439.713z"/>
			<path fill="#FFFFFF" d="M416.835,435.934v7.324h-1.201v-6.196h-1.157v-1.128H416.835z M415.092,433.414
				c0-0.527,0.425-0.996,0.996-0.996c0.557,0,0.996,0.469,0.996,0.996c0,0.513-0.439,0.996-0.996,0.996
				C415.517,434.41,415.092,433.927,415.092,433.414z"/>
			<path fill="#FFFFFF" d="M426.049,443.258h-1.201v-1.245c-0.513,0.776-1.406,1.465-2.52,1.465c-1.89,0-3.413-1.538-3.413-3.765
				c0-2.417,1.523-3.926,3.53-3.926c0.835,0,1.772,0.425,2.402,1.128v-4.204h1.201V443.258z M420.16,439.713
				c0,1.421,0.938,2.593,2.358,2.593c1.333,0,2.344-1.157,2.329-2.725l-0.015-1.406c-0.615-0.762-1.274-1.187-2.168-1.187
				C421.098,436.988,420.16,438.292,420.16,439.713z"/>
		</g>
	</g>
	<path fill="#42352C" d="M87.397,188.673c0.014-0.015,0.027-0.03,0.042-0.045C87.439,188.628,87.421,188.642,87.397,188.673z"/>
	<path fill="#197278" d="M134.565,272.055l-6.052-2.213l-1.33-2.332l-1.331-0.655l-0.199-1.261l2.881-3.195l2.07-5.645l-0.029-0.972
		c2.248-0.385,1.864-2.839,1.864-2.839c0.018-2.383-1.237-2.799-2.031-2.827l-0.033-1.104l1.185-4.899c0,0-0.553-1.774-1.055-3.339
		c-0.167-0.524,1.147,0.033,1.147,0.033s-0.51-3.623-8.965-4.463c-8.454-0.84-10.805,3.462-10.805,3.462
		c-0.471-1.246-0.224-1.726-0.123-1.857c-1.653,1.757-1.285,4.126-1.285,4.126l-0.944-0.75l-0.267,5.18l1.043,3.24l0.076,0.466
		c-0.674,0.176-1.643,0.812-1.649,3.03c0,0-0.071,2.704,2.523,2.573l0.148,1.089l2.542,6.031l2.351,1.973l-0.14,1.663l-1.208,0.327
		l-1.557,2.917l-5.728,2.416v4.707h26.9V272.055z M112.465,248.25v-0.004l0.001,0L112.465,248.25z"/>
	<path fill="#197278" d="M89.183,272.055l-6.052-2.213l-1.33-2.332l-1.331-0.655l-0.199-1.261l2.881-3.195l2.07-5.645l-0.029-0.972
		c2.247-0.385,1.864-2.839,1.864-2.839c0.018-2.383-1.238-2.799-2.031-2.827l-0.033-1.104l1.185-4.899c0,0-0.553-1.774-1.055-3.339
		c-0.166-0.524,1.147,0.033,1.147,0.033s-0.51-3.623-8.965-4.463c-8.454-0.84-10.805,3.462-10.805,3.462
		c-0.471-1.246-0.224-1.726-0.123-1.857c-1.652,1.757-1.285,4.126-1.285,4.126l-0.944-0.75l-0.266,5.18l1.042,3.24L65,250.211
		c-0.674,0.176-1.643,0.812-1.649,3.03c0,0-0.07,2.704,2.523,2.573l0.147,1.089l2.543,6.031l2.351,1.973l-0.14,1.663l-1.208,0.327
		l-1.557,2.917l-5.728,2.416v4.707h26.9V272.055z M67.083,248.25v-0.004l0,0L67.083,248.25z"/>
	<g>
		<path fill="#656565" d="M316.54,295.276c0,7.327,5.939,13.267,13.266,13.267h102.629c7.327,0,13.267-5.94,13.267-13.267l0,0
			c0-7.328-5.939-13.266-13.267-13.266H329.806C322.479,282.01,316.54,287.948,316.54,295.276L316.54,295.276z"/>
		<path fill="#808782" d="M319.198,295.276c0,5.089,4.126,9.216,9.216,9.216h102.968c5.089,0,9.216-4.127,9.216-9.216l0,0
			c0-5.09-4.126-9.216-9.216-9.216H328.414C323.325,286.06,319.198,290.186,319.198,295.276L319.198,295.276z"/>
		<rect x="415.493" y="308.543" fill="#6F7571" width="8.036" height="58.635"/>
		<path fill="#656565" d="M377.055,295.276c0,3.025,2.146,6.233,5.171,6.233c3.023,0,5.782-3.208,5.782-6.233
			c0-3.023-2.165-5.814-5.188-5.814C379.794,289.462,377.055,292.252,377.055,295.276z"/>
		<path fill="#656565" d="M414.035,295.276c0,3.025,2.609,5.845,5.634,5.845c3.023,0,5.318-2.82,5.318-5.845
			c0-3.023-2.808-5.655-5.832-5.655C416.131,289.621,414.035,292.252,414.035,295.276z"/>
		<path fill="#656565" d="M340.074,295.276c0,3.025,2.451,5.914,5.476,5.914c3.023,0,5.476-2.889,5.476-5.914
			c0-3.023-2.741-5.814-5.765-5.814C342.237,289.462,340.074,292.252,340.074,295.276z"/>
		<polygon fill="#808782" points="424.58,308.543 424.394,311.573 414.537,311.573 414.035,308.543 		"/>
		<polygon fill="#808782" points="424.58,364.148 424.394,367.178 414.537,367.178 414.035,364.148 		"/>
		<rect x="415.493" y="311.573" opacity="0.05" width="8.036" height="5.315"/>
	</g>
	<g>
		<polygon fill="#8EA604" points="361.654,240.25 360.519,273.298 306.663,273.298 305.149,239.872 		"/>
		<polygon fill="#C2E812" points="357.302,244.157 356.312,269.302 310.82,269.302 309.5,243.869 		"/>
		<ellipse fill="#8EA604" cx="334.039" cy="256.585" rx="7.473" ry="6.943"/>
	</g>
	<rect x="316.54" y="225.073" fill="#6F7571" width="12.438" height="90.653"/>
	<path fill="#656565" d="M171.022,295.276c0,7.327-5.939,13.267-13.266,13.267H55.127c-7.327,0-13.267-5.94-13.267-13.267l0,0
		c0-7.328,5.939-13.266,13.267-13.266h102.629C165.083,282.01,171.022,287.948,171.022,295.276L171.022,295.276z"/>
	<path fill="#808782" d="M168.364,295.276c0,5.089-4.126,9.216-9.216,9.216H56.181c-5.089,0-9.216-4.127-9.216-9.216l0,0
		c0-5.09,4.126-9.216,9.216-9.216h102.968C164.238,286.06,168.364,290.186,168.364,295.276L168.364,295.276z"/>
	<rect x="158.585" y="225.073" fill="#6F7571" width="12.438" height="90.653"/>
	<polygon fill="#808782" points="316.54,321.256 171.022,321.256 169.364,205.173 318.198,205.173 	"/>
	<rect x="180.558" y="213.989" fill="#6F7571" width="126.447" height="98.451"/>
	<rect x="287.547" y="152.52" fill="#C4C6CC" width="5.536" height="52.653"/>
	<circle fill="#6F7571" cx="290.314" cy="152.52" r="8.812"/>
	<path fill="#D3D3D3" d="M176.706,210.298c0,0.878-0.711,1.744-1.589,1.744s-1.589-0.866-1.589-1.744
		c0-0.877,0.884-1.754,1.762-1.754C176.167,208.544,176.706,209.42,176.706,210.298z"/>
	<path fill="#D3D3D3" d="M313.984,210.298c0,0.878-0.712,1.744-1.589,1.744c-0.878,0-1.59-0.866-1.59-1.744
		c0-0.877,0.884-1.754,1.762-1.754C313.445,208.544,313.984,209.42,313.984,210.298z"/>
	<path fill="#D3D3D3" d="M177.587,316.626c0,0.878-0.712,1.744-1.589,1.744s-1.589-0.865-1.589-1.744
		c0-0.877,0.884-1.755,1.762-1.755C177.048,314.872,177.587,315.749,177.587,316.626z"/>
	<path fill="#D3D3D3" d="M313.223,316.626c0,0.878-0.712,1.744-1.589,1.744s-1.589-0.865-1.589-1.744
		c0-0.877,0.884-1.755,1.762-1.755C312.684,314.872,313.223,315.749,313.223,316.626z"/>
	<g>
		<polygon fill="#DB504A" points="272.918,263.022 271.978,279.178 259.292,279.178 258.822,262.647 		"/>
		<polygon opacity="0.15" points="259.801,280.344 259.292,279.178 271.961,279.178 271.343,280.344 		"/>
	</g>
	<g>
		<polygon fill="#DB504A" points="291.706,263.022 290.767,279.178 278.081,279.178 277.611,262.647 		"/>
		<polygon opacity="0.15" points="278.593,280.344 278.082,279.178 290.754,279.178 290.135,280.344 		"/>
	</g>
	<g>
		<polygon fill="#DB504A" points="254.128,263.022 253.188,279.178 240.502,279.178 240.032,262.647 		"/>
		<polygon opacity="0.15" points="241.034,280.344 240.525,279.178 253.197,279.178 252.577,280.344 		"/>
	</g>
	<g>
		<polygon fill="#DB504A" points="272.918,287.899 271.978,304.055 259.292,304.055 258.822,287.524 		"/>
		<polygon opacity="0.15" points="259.801,305.221 259.292,304.055 271.961,304.055 271.343,305.221 		"/>
	</g>
	<g>
		<polygon fill="#DB504A" points="291.706,287.899 290.767,304.055 278.081,304.055 277.611,287.524 		"/>
		<polygon opacity="0.15" points="278.593,305.221 278.082,304.055 290.754,304.055 290.135,305.221 		"/>
	</g>
	<g>
		<polygon fill="#DB504A" points="254.128,287.899 253.188,304.055 240.502,304.055 240.032,287.524 		"/>
		<polygon opacity="0.15" points="241.034,305.221 240.525,304.055 253.197,304.055 252.577,305.221 		"/>
	</g>
	<g>
		<path fill="#656565" d="M298.559,236.783c0,7.674-6.655,14.517-14.331,14.517s-13.466-6.843-13.466-14.517
			c0-7.676,7.458-14.391,15.134-14.391C293.571,222.392,298.559,229.106,298.559,236.783z"/>
		<path fill="#FAFEFF" d="M295.271,236.797c0,5.86-5.081,11.084-10.94,11.084c-5.86,0-10.28-5.224-10.28-11.084
			c0-5.86,5.693-10.984,11.553-10.984C291.463,225.813,295.271,230.938,295.271,236.797z"/>
		<polygon fill="#5D5D5D" points="282.917,237.658 280.968,225.987 284.661,236.846 		"/>
	</g>
	<g>
		<path fill="#656565" d="M263.625,236.783c0,7.674-6.655,14.517-14.331,14.517s-13.465-6.843-13.465-14.517
			c0-7.676,7.457-14.391,15.133-14.391S263.625,229.106,263.625,236.783z"/>
		<path fill="#FAFEFF" d="M260.337,236.797c0,5.86-5.08,11.084-10.94,11.084c-5.86,0-10.28-5.224-10.28-11.084
			c0-5.86,5.693-10.984,11.554-10.984C256.53,225.813,260.337,230.938,260.337,236.797z"/>
		<polygon fill="#5D5D5D" points="247.984,237.658 246.037,225.987 249.728,236.846 		"/>
	</g>
	<g>
		<polygon fill="#9B9B9B" points="203.583,222.854 203.583,305.765 189.005,306.226 189.005,222.392 		"/>
		<polygon opacity="0.15" points="201.344,225.55 201.344,303.07 191.245,303.521 191.245,225.098 		"/>
		<polygon fill="#C2E812" points="201.344,225.55 201.344,303.07 191.245,303.521 191.245,225.098 		"/>
		<polygon opacity="0.15" fill="#FFFFFF" points="201.344,303.07 202.067,302.781 201.344,225.55 		"/>
	</g>
	<g>
		<polygon fill="#9B9B9B" points="226.19,222.854 226.19,305.765 211.612,306.226 211.612,222.392 		"/>
		<polygon fill="#656565" points="223.951,225.55 223.951,303.07 213.852,303.521 213.852,225.098 		"/>
		<polygon fill="#C2E812" points="223.951,271.495 223.951,303.07 213.852,303.521 213.852,271.495 		"/>
		<polygon opacity="0.15" fill="#FFFFFF" points="223.951,303.07 224.674,302.781 223.951,225.55 		"/>
		<polygon opacity="0.15" fill="#FFFFFF" points="215.917,266.193 221.888,266.193 218.901,262.617 		"/>
		<polygon opacity="0.15" fill="#FFFFFF" points="215.917,261.351 221.888,261.351 218.901,257.775 		"/>
		<polygon opacity="0.15" fill="#FFFFFF" points="215.917,256.51 221.888,256.51 218.901,252.932 		"/>
	</g>
	<polygon opacity="0.3" fill="#FFFFFF" points="180.558,312.439 180.558,313.559 307.005,312.439 	"/>
	<rect x="180.558" y="213.989" opacity="0.15" width="126.447" height="2.3"/>
	<polygon fill="#808782" points="445.702,367.178 41.86,367.178 44.456,377.63 443.106,377.63 	"/>
	<rect x="183.012" y="321.256" fill="#6F7571" width="121.539" height="45.922"/>
	<g>
		<polygon fill="#808782" points="294.535,359.481 193.028,359.481 192.793,332.495 294.77,332.495 		"/>
		<rect x="194.696" y="334.829" opacity="0.2" width="98.172" height="22.323"/>
		<g>
			<rect x="194.682" y="353.577" fill="#808782" width="98.199" height="1.998"/>
		</g>
		<g>
			<rect x="194.682" y="350.143" fill="#808782" width="98.199" height="1.997"/>
		</g>
		<g>
			<rect x="194.682" y="346.707" fill="#808782" width="98.199" height="2"/>
		</g>
		<g>
			<rect x="194.682" y="343.273" fill="#808782" width="98.199" height="1.998"/>
		</g>
		<g>
			<rect x="194.682" y="339.842" fill="#808782" width="98.199" height="1.998"/>
		</g>
		<g>
			<rect x="194.682" y="336.406" fill="#808782" width="98.199" height="1.998"/>
		</g>
		<ellipse fill="#5D5D5D" cx="194.045" cy="358.099" rx="0.276" ry="0.354"/>
		<ellipse fill="#5D5D5D" cx="194.045" cy="333.997" rx="0.276" ry="0.356"/>
		<ellipse fill="#5D5D5D" cx="293.449" cy="358.099" rx="0.276" ry="0.354"/>
		<ellipse fill="#5D5D5D" cx="293.449" cy="333.997" rx="0.276" ry="0.356"/>
		<polygon opacity="0.15" points="193.028,359.481 193.247,360.318 294.238,360.318 294.535,359.481 		"/>
		<rect x="194.696" y="356.821" opacity="0.3" fill="#FFFFFF" width="98.172" height="0.331"/>
	</g>
	<rect x="64.034" y="308.543" fill="#6F7571" width="8.036" height="58.635"/>
	<path fill="#656565" d="M110.508,295.276c0,3.025-2.146,6.233-5.171,6.233c-3.023,0-5.782-3.208-5.782-6.233
		c0-3.023,2.165-5.814,5.188-5.814C107.769,289.462,110.508,292.252,110.508,295.276z"/>
	<path fill="#656565" d="M73.527,295.276c0,3.025-2.609,5.845-5.634,5.845c-3.023,0-5.318-2.82-5.318-5.845
		c0-3.023,2.808-5.655,5.832-5.655C71.432,289.621,73.527,292.252,73.527,295.276z"/>
	<path fill="#656565" d="M147.488,295.276c0,3.025-2.451,5.914-5.476,5.914c-3.023,0-5.476-2.889-5.476-5.914
		c0-3.023,2.741-5.814,5.765-5.814C145.326,289.462,147.488,292.252,147.488,295.276z"/>
	<g>
		<g>
			<path fill="#6F7571" d="M183.012,333.245h-37.783c0,0-14.699,0-14.696,12.799v21.134h7.075v-20.685c0,0-0.639-6.53,7.642-6.655
				h37.762V333.245z"/>
			<polygon fill="#808782" points="128.871,364.147 129.056,367.178 138.913,367.178 139.416,364.147 			"/>
		</g>
		<polygon fill="#808782" points="152.972,331.257 149.942,331.443 149.942,341.301 152.972,341.802 		"/>
		<polygon fill="#808782" points="183.011,331.257 179.98,331.443 179.98,341.301 183.011,341.802 		"/>
	</g>
	<g>
		<g>
			<path fill="#6F7571" d="M304.551,333.245h37.783c0,0,14.699,0,14.696,12.799v21.134h-7.075v-20.685c0,0,0.639-6.53-7.642-6.655
				h-37.762V333.245z"/>
			<polygon fill="#808782" points="358.692,364.147 358.506,367.178 348.649,367.178 348.147,364.147 			"/>
		</g>
		<polygon fill="#808782" points="334.59,331.257 337.621,331.443 337.621,341.301 334.59,341.802 		"/>
		<polygon fill="#808782" points="304.552,331.257 307.582,331.443 307.582,341.301 304.552,341.802 		"/>
	</g>
	<polygon fill="#808782" points="62.983,308.543 63.169,311.573 73.026,311.573 73.527,308.543 	"/>
	<polygon fill="#808782" points="62.983,364.148 63.169,367.178 73.026,367.178 73.527,364.148 	"/>
	<rect x="64.034" y="311.573" opacity="0.05" width="8.036" height="5.315"/>
	<rect x="183.012" y="321.256" opacity="0.05" width="121.539" height="5.315"/>
	<polygon fill="#656565" points="189.005,205.173 187.91,189.202 227.286,189.202 226.19,205.173 	"/>
	<path opacity="0.3" fill="#FFFFFF" d="M132.231,173.8c0,0.937-0.76,2.309-1.698,2.309c-0.938,0-1.697-1.372-1.697-2.309
		c0-0.938,0.76-1.698,1.697-1.698C131.471,172.102,132.231,172.862,132.231,173.8z"/>
	<g>
		<polygon fill="#8EA604" points="429.568,240.25 428.432,273.298 374.576,273.298 373.063,239.872 		"/>
		<polygon fill="#C2E812" points="425.216,244.157 424.226,269.302 378.733,269.302 377.414,243.869 		"/>
		<ellipse fill="#8EA604" cx="401.952" cy="256.585" rx="7.473" ry="6.943"/>
	</g>
	<polygon opacity="0.3" fill="#FFFFFF" points="169.364,205.173 169.364,206.224 318.198,205.173 	"/>
	<polygon opacity="0.3" fill="#FFFFFF" points="41.86,367.178 42.319,369.025 445.702,367.178 	"/>
	<polygon opacity="0.3" fill="#FFFFFF" points="187.91,189.202 188.042,191.127 227.286,189.202 	"/>
	<g opacity="0.3">
		<rect x="147.488" y="192.137" fill="#FFFFFF" width="1.929" height="10.1"/>
		<rect x="143.403" y="196.223" fill="#FFFFFF" width="10.1" height="1.928"/>
	</g>
	<g opacity="0.5">
		<rect x="74.059" y="152.567" fill="#FFFFFF" width="3.348" height="17.531"/>
		<rect x="66.967" y="159.659" fill="#FFFFFF" width="17.531" height="3.348"/>
	</g>
	<g opacity="0.5">
		<rect x="351.746" y="202.84" fill="#FFFFFF" width="3.348" height="17.531"/>
		<rect x="344.654" y="209.932" fill="#FFFFFF" width="17.531" height="3.348"/>
	</g>
	<g opacity="0.3">
		<rect x="400.988" y="159.659" fill="#FFFFFF" width="1.928" height="10.1"/>
		<rect x="396.902" y="163.745" fill="#FFFFFF" width="10.1" height="1.928"/>
	</g>
	<g opacity="0.3">
		<rect x="434.583" y="209.903" fill="#FFFFFF" width="1.928" height="10.1"/>
		<rect x="430.498" y="213.989" fill="#FFFFFF" width="10.1" height="1.928"/>
	</g>
	<path opacity="0.3" fill="#FFFFFF" d="M332.488,168.829c0,0.937-0.76,2.309-1.698,2.309c-0.938,0-1.698-1.372-1.698-2.309
		c0-0.938,0.76-1.698,1.698-1.698C331.728,167.131,332.488,167.891,332.488,168.829z"/>
	<path opacity="0.3" fill="#FFFFFF" d="M391.697,196.524c0,2.036-1.652,5.018-3.69,5.018c-2.038,0-3.69-2.981-3.69-5.018
		c0-2.039,1.652-3.692,3.69-3.692C390.045,192.833,391.697,194.486,391.697,196.524z"/>
	<path opacity="0.3" fill="#FFFFFF" d="M96.563,215.792c0,2.036-1.652,5.018-3.691,5.018c-2.038,0-3.689-2.981-3.689-5.018
		c0-2.039,1.652-3.692,3.689-3.692C94.911,212.101,96.563,213.754,96.563,215.792z"/>
	<g opacity="0.5">
		<rect x="186.946" y="165.048" fill="#FFFFFF" width="1.928" height="10.1"/>
		<rect x="182.86" y="169.134" fill="#FFFFFF" width="10.1" height="1.928"/>
	</g>
	<g>
		<rect x="182.805" y="497.937" fill="#FF9F03" width="115.399" height="45.63"/>
		<g>
			<g>
				<path fill="#FFFFFF" d="M221.996,529.445h-1.304l-10.126-10.459v10.332h-3.555v-17.262h1.304l10.127,10.611v-10.482h3.554
					V529.445z"/>
				<path fill="#FFFFFF" d="M230.669,515.254v3.887h7.57v2.889h-7.57v4.145h8.567v3.145h-12.122v-17.133h12.122v3.068H230.669z"/>
				<path fill="#FFFFFF" d="M252.437,520.854l6.111,8.465h-4.475l-4.143-5.984l-4.041,5.984h-4.347l5.958-8.592l-5.958-8.541h4.475
					l4.015,6.213l4.041-6.213h4.475L252.437,520.854z"/>
				<path fill="#FFFFFF" d="M273.999,515.381h-5.473v13.859h-3.529v-13.859h-5.473v-3.195h14.475V515.381z"/>
			</g>
		</g>
	</g>
	<g opacity="0.5">
		<polygon fill="#FFFFFF" points="467.533,19.579 469.098,19.579 469.098,23.955 457.323,23.955 457.323,8.265 469.098,8.265 
			469.098,12.694 467.569,12.694 467.569,9.866 458.906,9.866 458.906,22.354 467.533,22.354 		"/>
		<polygon fill="#FFFFFF" points="463.383,15.037 463.383,17.219 469.858,17.219 469.858,19.733 474.744,16.114 469.858,12.499 
			469.858,14.965 		"/>
	</g>
</g>
</svg>
