<?xml version="1.0" encoding="utf-8"?>
<!-- Generator: Adobe Illustrator 16.0.0, SVG Export Plug-In . SVG Version: 6.00 Build 0)  -->
<!DOCTYPE svg PUBLIC "-//W3C//DTD SVG 1.1//EN" "http://www.w3.org/Graphics/SVG/1.1/DTD/svg11.dtd">
<svg version="1.1" id="Layer_1" xmlns="http://www.w3.org/2000/svg" xmlns:xlink="http://www.w3.org/1999/xlink" x="0px" y="0px"
	 width="481.009px" height="579.844px" viewBox="0 0 481.009 579.844" enable-background="new 0 0 481.009 579.844"
	 xml:space="preserve">
<g>
	<rect x="0" fill="#8EC14C" width="481.008" height="579.844"/>
	<g>
		<g>
			<path fill="#FFFFFF" d="M54.928,56.927v3.403c-1.191-0.746-2.508-1.491-4.223-1.491c-1.291,0-2.732,0.546-2.732,1.813
				c0,1.093,1.094,1.515,2.484,2.087l2.037,0.844c2.335,0.994,3.378,2.41,3.378,4.248c0,2.956-2.856,5.067-6.31,5.067
				c-1.938,0-3.801-0.795-5.143-1.739v-3.403c1.441,1.043,3.23,1.888,5.217,1.888c1.392,0,2.534-0.546,2.534-1.64
				c0-0.87-0.968-1.391-1.938-1.739l-2.559-0.994c-2.583-0.994-3.304-2.683-3.304-4.621c0-3.056,2.807-5.043,5.912-5.043
				C52.221,55.61,53.861,56.231,54.928,56.927z"/>
			<path fill="#FFFFFF" d="M71.622,59.039h-5.316v13.464h-3.428V59.039h-5.316v-3.105h14.061V59.039z"/>
			<path fill="#FFFFFF" d="M82.7,69.472h-6.582l-1.268,3.105h-4.049l7.75-16.768h1.715l7.75,16.768h-4.049L82.7,69.472z
				 M81.507,66.541l-2.087-5.092l-2.086,5.092H81.507z"/>
			<path fill="#FFFFFF" d="M100.411,72.577L94.2,65.746v6.832h-3.453V55.934h6.758c3.105,0,6.285,1.714,6.285,5.391
				c0,2.882-2.36,4.596-5.068,4.819l6.235,6.434H100.411z M94.201,59.163v4.198c0.819,0.249,1.813,0.422,2.808,0.422
				c1.986,0,3.254-0.845,3.254-2.335c0-1.615-1.416-2.285-3.205-2.285L94.201,59.163z"/>
			<path fill="#FFFFFF" d="M119.959,59.039h-5.316v13.464h-3.428V59.039h-5.316v-3.105h14.061V59.039z"/>
			<path fill="#FFFFFF" d="M134.018,69.472h8.321v3.105h-11.774V55.934h3.453V69.472z"/>
			<path fill="#FFFFFF" d="M149.84,58.915v3.776h7.354v2.807h-7.354v4.024h8.322v3.055h-11.775V55.934h11.775v2.981H149.84z"/>
			<path fill="#FFFFFF" d="M169.862,72.701h-1.715l-7.75-16.768h4.049l4.547,11.005l4.57-11.005h4.049L169.862,72.701z"/>
			<path fill="#FFFFFF" d="M183.795,58.915v3.776h7.354v2.807h-7.354v4.024h8.322v3.055h-11.775V55.934h11.775v2.981H183.795z"/>
			<path fill="#FFFFFF" d="M200.042,69.472h8.321v3.105h-11.774V55.934h3.453V69.472z"/>
			<path fill="#FFFFFF" d="M218.546,59.039v10.433h2.808v3.105h-9.067v-3.105h2.808V59.039h-2.808v-3.105h9.067v3.105H218.546z"/>
			<path fill="#FFFFFF" d="M240.754,72.701h-1.268l-9.837-10.16v10.036h-3.452V55.81h1.266l9.838,10.309V55.934h3.453V72.701z"/>
			<path fill="#FFFFFF" d="M259.657,70.341c-1.391,1.441-3.801,2.608-6.508,2.608c-4.77,0-8.795-3.552-8.795-8.694
				s4.025-8.694,8.795-8.694c2.086,0,3.551,0.621,4.693,1.615v3.478c-1.217-0.919-2.385-1.838-4.596-1.838
				c-2.98,0-5.365,2.335-5.365,5.44s2.385,5.416,5.365,5.416c1.789,0,2.684-0.621,3.18-1.068l0.025-2.385h-2.086v-2.484h5.291
				V70.341z"/>
			<path fill="#FFFFFF" d="M285.018,65.995c0,4.347-3.154,6.93-7.18,6.93c-4.023,0-7.203-2.583-7.203-6.93V55.884h3.453v9.912
				c0,2.534,1.516,3.826,3.75,3.801c2.236-0.025,3.752-1.267,3.752-3.801v-9.912h3.428V65.995z"/>
			<path fill="#FFFFFF" d="M302.778,61.871c0,3.403-2.881,5.739-6.209,5.739c-1.49,0-2.709-0.348-3.504-0.746v5.713h-3.451V55.934
				h6.881C299.598,55.934,302.778,58.194,302.778,61.871z M299.25,61.871c0-1.739-1.539-2.708-3.328-2.708h-2.857v4.918
				c0.746,0.298,1.84,0.546,2.932,0.546C297.985,64.628,299.25,63.411,299.25,61.871z"/>
			<path fill="#FFFFFF" d="M328.264,72.701h-1.266l-9.838-10.16v10.036h-3.453V55.81h1.268l9.836,10.309V55.934h3.453V72.701z"/>
			<path fill="#FFFFFF" d="M349.278,64.255c0,5.142-3.924,8.694-8.693,8.694s-8.721-3.552-8.721-8.694s3.951-8.694,8.721-8.694
				S349.278,59.113,349.278,64.255z M335.393,64.255c0,3.105,2.209,5.416,5.191,5.416c2.98,0,5.166-2.31,5.166-5.416
				c0-3.105-2.186-5.44-5.166-5.44C337.602,58.815,335.393,61.15,335.393,64.255z"/>
			<path fill="#FFFFFF" d="M368.356,72.577h-2.385l-3.701-10.707l-3.701,10.707h-2.385l-5.541-16.644h3.926l3.08,10.508
				l3.502-10.508h2.311l3.453,10.508l3.131-10.508h3.924L368.356,72.577z"/>
			<path fill="#FFFFFF" d="M393.817,69.472h-6.584l-1.266,3.105h-4.051l7.752-16.768h1.713l7.752,16.768h-4.051L393.817,69.472z
				 M392.624,66.541l-2.086-5.092l-2.088,5.092H392.624z"/>
			<path fill="#FFFFFF" d="M416.42,72.701h-1.266l-9.838-10.16v10.036h-3.453V55.81h1.268l9.836,10.309V55.934h3.453V72.701z"/>
			<path fill="#FFFFFF" d="M436.639,64.156c0,4.918-3.254,8.744-8.619,8.744c-2.285,0-4.621-0.273-6.633-0.67V55.934h6.037
				C432.268,55.934,436.639,58.791,436.639,64.156z M424.84,59.163v10.21c0.994,0.199,2.137,0.273,3.08,0.273
				c3.428,0,5.191-2.26,5.191-5.366c0-3.329-2.582-5.117-5.813-5.117H424.84z"/>
			<path fill="#FFFFFF" d="M62.456,89.562h-5.316v13.464h-3.428V89.562h-5.316v-3.105h14.061V89.562z"/>
			<path fill="#FFFFFF" d="M80.215,86.456V103.1h-3.428v-6.757h-7.725v6.757H65.61V86.456h3.453v6.782h7.725v-6.782H80.215z"/>
			<path fill="#FFFFFF" d="M88.636,89.438v3.775h7.353v2.808h-7.353v4.023h8.321v3.056H85.183V86.456h11.774v2.981H88.636z"/>
			<path fill="#FFFFFF" d="M115.985,103.224h-1.266l-9.838-10.16V103.1h-3.453V86.332h1.268l9.837,10.31V86.456h3.452V103.224z"/>
			<path fill="#FFFFFF" d="M132.254,102.081c0,4.198-2.509,6.385-6.061,7.354l-1.342-3.081c2.633-0.77,3.949-2.161,3.949-4.123
				V86.406h3.453V102.081z"/>
			<path fill="#FFFFFF" d="M153.145,94.778c0,5.142-3.925,8.694-8.694,8.694s-8.72-3.553-8.72-8.694c0-5.143,3.95-8.694,8.72-8.694
				S153.145,89.636,153.145,94.778z M139.258,94.778c0,3.104,2.211,5.415,5.192,5.415s5.167-2.311,5.167-5.415
				c0-3.105-2.186-5.44-5.167-5.44S139.258,91.673,139.258,94.778z"/>
			<path fill="#FFFFFF" d="M162.881,89.562v10.434h2.807v3.104h-9.066v-3.104h2.807V89.562h-2.807v-3.105h9.066v3.105H162.881z"/>
			<path fill="#FFFFFF" d="M185.088,103.224h-1.266l-9.838-10.16V103.1h-3.453V86.332h1.268l9.837,10.31V86.456h3.452V103.224z"/>
			<path fill="#FFFFFF" d="M211.642,96.517c0,4.348-3.155,6.931-7.179,6.931c-4.024,0-7.204-2.583-7.204-6.931v-10.11h3.452v9.912
				c0,2.533,1.516,3.825,3.752,3.8c2.235-0.024,3.751-1.267,3.751-3.8v-9.912h3.428V96.517z"/>
			<path fill="#FFFFFF" d="M225.551,87.449v3.403c-1.192-0.745-2.509-1.49-4.223-1.49c-1.292,0-2.732,0.547-2.732,1.813
				c0,1.093,1.093,1.516,2.484,2.087l2.036,0.845c2.335,0.993,3.378,2.409,3.378,4.247c0,2.957-2.855,5.068-6.309,5.068
				c-1.938,0-3.801-0.795-5.143-1.739V98.28c1.441,1.043,3.229,1.888,5.217,1.888c1.391,0,2.533-0.546,2.533-1.64
				c0-0.869-0.969-1.391-1.938-1.738l-2.559-0.994c-2.583-0.993-3.303-2.683-3.303-4.62c0-3.056,2.807-5.043,5.912-5.043
				C222.844,86.133,224.483,86.754,225.551,87.449z"/>
			<path fill="#FFFFFF" d="M243.561,89.562v10.434h2.807v3.104H237.3v-3.104h2.808V89.562H237.3v-3.105h9.067v3.105H243.561z"/>
			<path fill="#FFFFFF" d="M265.768,103.224H264.5l-9.836-10.16V103.1h-3.453V86.332h1.266l9.838,10.31V86.456h3.453V103.224z"/>
			<path fill="#FFFFFF" d="M294.233,94.778c0,5.142-3.924,8.694-8.693,8.694s-8.721-3.553-8.721-8.694
				c0-5.143,3.951-8.694,8.721-8.694S294.233,89.636,294.233,94.778z M280.348,94.778c0,3.104,2.209,5.415,5.191,5.415
				c2.98,0,5.166-2.311,5.166-5.415c0-3.105-2.186-5.44-5.166-5.44C282.557,89.338,280.348,91.673,280.348,94.778z"/>
			<path fill="#FFFFFF" d="M311.969,96.517c0,4.348-3.154,6.931-7.18,6.931c-4.023,0-7.203-2.583-7.203-6.931v-10.11h3.453v9.912
				c0,2.533,1.516,3.825,3.75,3.8c2.236-0.024,3.752-1.267,3.752-3.8v-9.912h3.428V96.517z"/>
			<path fill="#FFFFFF" d="M326.352,103.1l-6.211-6.831v6.831h-3.453V86.456h6.758c3.104,0,6.283,1.714,6.283,5.391
				c0,2.882-2.359,4.596-5.066,4.819l6.234,6.434H326.352z M320.141,89.685v4.198c0.82,0.249,1.814,0.423,2.807,0.423
				c1.988,0,3.254-0.845,3.254-2.335c0-1.614-1.416-2.285-3.203-2.285L320.141,89.685z"/>
			<path fill="#FFFFFF" d="M355.016,100.864c-1.391,1.44-3.801,2.608-6.508,2.608c-4.77,0-8.793-3.553-8.793-8.694
				c0-5.143,4.023-8.694,8.793-8.694c2.086,0,3.553,0.62,4.695,1.614v3.478c-1.217-0.919-2.385-1.838-4.596-1.838
				c-2.98,0-5.365,2.335-5.365,5.439c0,3.105,2.385,5.416,5.365,5.416c1.789,0,2.684-0.621,3.18-1.068l0.025-2.385h-2.088v-2.483
				h5.291V100.864z"/>
			<path fill="#FFFFFF" d="M368.456,103.1l-6.211-6.831v6.831h-3.453V86.456h6.758c3.104,0,6.283,1.714,6.283,5.391
				c0,2.882-2.359,4.596-5.066,4.819L373,103.1H368.456z M362.245,89.685v4.198c0.82,0.249,1.814,0.423,2.807,0.423
				c1.988,0,3.254-0.845,3.254-2.335c0-1.614-1.416-2.285-3.203-2.285L362.245,89.685z"/>
			<path fill="#FFFFFF" d="M390.661,94.778c0,5.142-3.924,8.694-8.693,8.694s-8.721-3.553-8.721-8.694
				c0-5.143,3.951-8.694,8.721-8.694S390.661,89.636,390.661,94.778z M376.776,94.778c0,3.104,2.209,5.415,5.191,5.415
				c2.98,0,5.166-2.311,5.166-5.415c0-3.105-2.186-5.44-5.166-5.44C378.985,89.338,376.776,91.673,376.776,94.778z"/>
			<path fill="#FFFFFF" d="M408.397,96.517c0,4.348-3.154,6.931-7.18,6.931c-4.023,0-7.203-2.583-7.203-6.931v-10.11h3.453v9.912
				c0,2.533,1.516,3.825,3.75,3.8c2.236-0.024,3.752-1.267,3.752-3.8v-9.912h3.428V96.517z"/>
			<path fill="#FFFFFF" d="M426.157,92.394c0,3.403-2.881,5.738-6.209,5.738c-1.49,0-2.709-0.348-3.504-0.745v5.713h-3.451V86.456
				h6.881C422.977,86.456,426.157,88.717,426.157,92.394z M422.629,92.394c0-1.739-1.539-2.708-3.328-2.708h-2.857v4.919
				c0.746,0.298,1.84,0.546,2.932,0.546C421.364,95.15,422.629,93.934,422.629,92.394z"/>
			<path fill="#FFFFFF" d="M438.825,87.449v3.403c-1.191-0.745-2.508-1.49-4.223-1.49c-1.291,0-2.732,0.547-2.732,1.813
				c0,1.093,1.094,1.516,2.484,2.087l2.037,0.845c2.334,0.993,3.379,2.409,3.379,4.247c0,2.957-2.857,5.068-6.311,5.068
				c-1.938,0-3.801-0.795-5.143-1.739V98.28c1.441,1.043,3.23,1.888,5.217,1.888c1.391,0,2.535-0.546,2.535-1.64
				c0-0.869-0.969-1.391-1.938-1.738l-2.559-0.994c-2.584-0.993-3.305-2.683-3.305-4.62c0-3.056,2.807-5.043,5.912-5.043
				C436.118,86.133,437.756,86.754,438.825,87.449z"/>
			<path fill="#FFFFFF" d="M116.444,130.518h-6.582l-1.268,3.105h-4.049l7.751-16.768h1.714l7.75,16.768h-4.049L116.444,130.518z
				 M115.252,127.587l-2.087-5.093l-2.087,5.093H115.252z"/>
			<path fill="#FFFFFF" d="M139.049,133.747h-1.268l-9.837-10.16v10.036h-3.452v-16.768h1.266l9.838,10.31v-10.186h3.453V133.747z"
				/>
			<path fill="#FFFFFF" d="M159.268,125.202c0,4.919-3.254,8.744-8.619,8.744c-2.285,0-4.621-0.273-6.633-0.671v-16.296h6.036
				C154.897,116.979,159.268,119.836,159.268,125.202z M147.469,120.209v10.21c0.993,0.198,2.136,0.273,3.08,0.273
				c3.428,0,5.191-2.261,5.191-5.366c0-3.329-2.584-5.117-5.813-5.117H147.469z"/>
			<path fill="#FFFFFF" d="M182.592,120.085h-5.316v13.464h-3.428v-13.464h-5.316v-3.105h14.061V120.085z"/>
			<path fill="#FFFFFF" d="M195.409,133.623l-6.21-6.831v6.831h-3.452v-16.644h6.756c3.105,0,6.285,1.714,6.285,5.391
				c0,2.882-2.359,4.596-5.068,4.819l6.236,6.434H195.409z M189.2,120.208v4.198c0.818,0.249,1.813,0.423,2.807,0.423
				c1.986,0,3.254-0.845,3.254-2.335c0-1.614-1.416-2.285-3.205-2.285L189.2,120.208z"/>
			<path fill="#FFFFFF" d="M212.349,130.518h-6.583l-1.267,3.105h-4.049l7.751-16.768h1.713l7.751,16.768h-4.05L212.349,130.518z
				 M211.157,127.587l-2.086-5.093l-2.088,5.093H211.157z"/>
			<path fill="#FFFFFF" d="M226.532,120.085v10.434h2.808v3.104h-9.067v-3.104h2.807v-10.434h-2.807v-3.105h9.067v3.105H226.532z"/>
			<path fill="#FFFFFF" d="M248.741,133.747h-1.268l-9.838-10.16v10.036h-3.453v-16.768h1.268l9.838,10.31v-10.186h3.453V133.747z"
				/>
			<path fill="#FFFFFF" d="M259.842,120.085v10.434h2.807v3.104h-9.066v-3.104h2.807v-10.434h-2.807v-3.105h9.066v3.105H259.842z"/>
			<path fill="#FFFFFF" d="M282.049,133.747h-1.266l-9.838-10.16v10.036h-3.453v-16.768h1.268l9.836,10.31v-10.186h3.453V133.747z"
				/>
			<path fill="#FFFFFF" d="M300.952,131.388c-1.391,1.44-3.801,2.608-6.508,2.608c-4.77,0-8.793-3.553-8.793-8.694
				c0-5.143,4.023-8.694,8.793-8.694c2.086,0,3.553,0.62,4.695,1.614v3.478c-1.217-0.919-2.385-1.838-4.596-1.838
				c-2.98,0-5.365,2.335-5.365,5.439c0,3.105,2.385,5.416,5.365,5.416c1.789,0,2.684-0.621,3.18-1.068l0.025-2.385h-2.088v-2.483
				h5.291V131.388z"/>
			<path fill="#FFFFFF" d="M321.37,117.973v3.403c-1.191-0.745-2.508-1.49-4.223-1.49c-1.291,0-2.732,0.547-2.732,1.813
				c0,1.093,1.094,1.516,2.484,2.087l2.037,0.845c2.334,0.993,3.379,2.409,3.379,4.247c0,2.957-2.857,5.068-6.311,5.068
				c-1.938,0-3.801-0.795-5.143-1.739v-3.403c1.441,1.043,3.23,1.888,5.217,1.888c1.391,0,2.535-0.546,2.535-1.64
				c0-0.869-0.969-1.391-1.938-1.738l-2.559-0.994c-2.584-0.993-3.305-2.683-3.305-4.62c0-3.056,2.807-5.043,5.912-5.043
				C318.663,116.656,320.301,117.277,321.37,117.973z"/>
			<path fill="#FFFFFF" d="M331.928,120.085v10.434h2.807v3.104h-9.068v-3.104h2.809v-10.434h-2.809v-3.105h9.068v3.105H331.928z"/>
			<path fill="#FFFFFF" d="M351.85,120.085h-5.316v13.464h-3.428v-13.464h-5.316v-3.105h14.061V120.085z"/>
			<path fill="#FFFFFF" d="M358.456,119.961v3.775h7.354v2.808h-7.354v4.023h8.322v3.056h-11.775v-16.644h11.775v2.981H358.456z"/>
			<path fill="#FFFFFF" d="M374.727,132.083c0,1.093-0.895,2.012-1.988,2.012c-1.092,0-1.986-0.919-1.986-2.012
				s0.895-1.987,1.986-1.987C373.833,130.096,374.727,130.99,374.727,132.083z M374.129,127.91h-2.781v-10.931h2.781V127.91z"/>
		</g>
	</g>
	<g>
		<g>
			<path fill="#FFFFFF" d="M37.895,411.351c0,2.813-2.213,5.127-5.172,5.127s-5.17-2.314-5.17-5.127s2.211-5.127,5.17-5.127
				S37.895,408.538,37.895,411.351z M28.901,411.351c0,2.197,1.625,3.838,3.822,3.838s3.824-1.641,3.824-3.838
				s-1.627-3.838-3.824-3.838S28.901,409.153,28.901,411.351z"/>
			<path fill="#FFFFFF" d="M46.17,411.79v4.468h-1.201l-0.014-4.35c0-1.26-0.543-1.949-1.699-1.949
				c-0.777,0-1.598,0.674-2.184,1.436v4.863h-1.201v-7.324h1.201v1.157c0.455-0.571,1.393-1.304,2.389-1.304
				C44.956,408.787,46.17,409.769,46.17,411.79z"/>
			<path fill="#FFFFFF" d="M53.95,409.505v1.216c-0.557-0.41-1.217-0.762-2.197-0.762c-1.568,0-2.578,1.26-2.578,2.681
				s1.01,2.666,2.578,2.666c0.98,0,1.641-0.352,2.197-0.762v1.216c-0.293,0.293-1.129,0.718-2.197,0.718
				c-2.227,0-3.824-1.758-3.824-3.838s1.598-3.853,3.824-3.853C52.821,408.787,53.657,409.227,53.95,409.505z"/>
			<path fill="#FFFFFF" d="M62.313,413.064h-5.625c0.176,1.23,1.143,2.241,2.549,2.241c1.055,0,1.715-0.483,2.197-0.835v1.216
				c-0.293,0.293-1.055,0.791-2.197,0.791c-2.227,0-3.822-1.758-3.822-3.838s1.465-3.853,3.529-3.853
				c2.256,0,3.369,1.553,3.369,3.56V413.064z M61.127,412.039c-0.146-1.421-1.158-2.08-2.184-2.08c-1.201,0-2.021,0.923-2.227,2.08
				H61.127z"/>
			<path fill="#FFFFFF" d="M75.584,408.934l-5.391,10.84h-1.391l2.094-3.955l-3.236-6.885h1.436l2.563,5.391l2.49-5.391H75.584z"/>
			<path fill="#FFFFFF" d="M84.184,412.64c0,2.08-1.598,3.838-3.824,3.838s-3.822-1.758-3.822-3.838s1.596-3.853,3.822-3.853
				S84.184,410.56,84.184,412.64z M77.782,412.64c0,1.421,1.012,2.666,2.578,2.666c1.568,0,2.578-1.245,2.578-2.666
				s-1.01-2.681-2.578-2.681C78.793,409.959,77.782,411.219,77.782,412.64z"/>
			<path fill="#FFFFFF" d="M92.153,413.27c0,1.934-1.348,3.135-3.105,3.135s-3.105-1.201-3.105-3.135v-4.336h1.244v4.336
				c0,1.274,0.879,1.963,1.861,1.963c0.98,0,1.859-0.688,1.859-1.963v-4.336h1.246V413.27z"/>
			<path fill="#FFFFFF" d="M100.502,415.013h5.404v1.245h-6.723v-9.814h1.318V415.013z"/>
			<path fill="#FFFFFF" d="M114.52,413.064h-5.625c0.176,1.23,1.143,2.241,2.549,2.241c1.055,0,1.715-0.483,2.197-0.835v1.216
				c-0.293,0.293-1.055,0.791-2.197,0.791c-2.227,0-3.822-1.758-3.822-3.838s1.465-3.853,3.529-3.853
				c2.256,0,3.369,1.553,3.369,3.56V413.064z M113.334,412.039c-0.146-1.421-1.158-2.08-2.184-2.08c-1.201,0-2.021,0.923-2.227,2.08
				H113.334z"/>
			<path fill="#FFFFFF" d="M119.516,416.258h-0.748l-3.295-7.324h1.436l2.211,5.391l2.402-5.391h1.436L119.516,416.258z"/>
			<path fill="#FFFFFF" d="M130.663,413.064h-5.625c0.176,1.23,1.143,2.241,2.549,2.241c1.055,0,1.715-0.483,2.197-0.835v1.216
				c-0.293,0.293-1.055,0.791-2.197,0.791c-2.227,0-3.822-1.758-3.822-3.838s1.465-3.853,3.529-3.853
				c2.256,0,3.369,1.553,3.369,3.56V413.064z M129.477,412.039c-0.146-1.421-1.158-2.08-2.184-2.08c-1.201,0-2.021,0.923-2.227,2.08
				H129.477z"/>
			<path fill="#FFFFFF" d="M133.842,416.258h-1.201v-10.547h1.201V416.258z"/>
			<path fill="#FFFFFF" d="M149.032,412.376c0,2.563-1.742,4.072-4.043,4.072c-2.299,0-4.043-1.509-4.043-4.072v-5.962h1.318v5.918
				c0,1.992,1.26,2.783,2.725,2.769s2.725-0.776,2.725-2.769v-5.918h1.318V412.376z"/>
			<path fill="#FFFFFF" d="M158.875,412.479c0,2.417-1.523,3.999-3.529,3.999c-0.836,0-1.773-0.498-2.402-1.201v4.497h-1.201v-10.84
				h1.201v1.245c0.512-0.776,1.406-1.392,2.52-1.392C157.352,408.787,158.875,410.252,158.875,412.479z M152.944,412.61l0.014,1.406
				c0.615,0.762,1.275,1.289,2.168,1.289c1.568,0,2.506-1.406,2.506-2.827s-0.938-2.52-2.359-2.52
				C153.94,409.959,152.928,411.043,152.944,412.61z"/>
			<path fill="#FFFFFF" d="M162.567,414.939l-1.318,3.911l-0.908-0.234l1.025-4.087L162.567,414.939z"/>
			<path fill="#FFFFFF" d="M176.424,416.258h-0.746l-2.008-5.171l-2.006,5.171h-0.748l-2.563-7.324h1.436l1.625,5.142l1.92-5.142
				h0.674l1.918,5.142l1.627-5.142h1.436L176.424,416.258z"/>
			<path fill="#FFFFFF" d="M186.84,413.064h-5.625c0.176,1.23,1.143,2.241,2.549,2.241c1.055,0,1.713-0.483,2.197-0.835v1.216
				c-0.293,0.293-1.055,0.791-2.197,0.791c-2.227,0-3.824-1.758-3.824-3.838s1.465-3.853,3.531-3.853
				c2.256,0,3.369,1.553,3.369,3.56V413.064z M185.653,412.039c-0.146-1.421-1.156-2.08-2.182-2.08c-1.201,0-2.021,0.923-2.227,2.08
				H185.653z"/>
			<path fill="#FFFFFF" d="M199.51,411.79v4.468h-1.201l-0.014-4.351c0-1.26-0.543-1.948-1.699-1.948
				c-0.777,0-1.598,0.674-2.184,1.436v4.863h-1.201v-10.547h1.201v4.38c0.455-0.571,1.393-1.304,2.389-1.304
				C198.295,408.787,199.51,409.769,199.51,411.79z"/>
			<path fill="#FFFFFF" d="M207.202,409.915v-0.981h1.201v7.324h-1.201v-1.244c-0.514,0.775-1.406,1.464-2.52,1.464
				c-1.891,0-3.414-1.538-3.414-3.765c0-2.417,1.523-3.926,3.531-3.926C205.633,408.787,206.571,409.212,207.202,409.915z
				 M202.514,412.713c0,1.421,0.938,2.593,2.357,2.593c1.334,0,2.344-1.157,2.33-2.725l-0.016-1.406
				c-0.615-0.762-1.273-1.216-2.168-1.216C203.452,409.959,202.514,411.292,202.514,412.713z"/>
			<path fill="#FFFFFF" d="M213.764,416.258h-0.748l-3.295-7.324h1.436l2.211,5.391l2.402-5.391h1.436L213.764,416.258z"/>
			<path fill="#FFFFFF" d="M224.911,413.064h-5.625c0.176,1.23,1.143,2.241,2.549,2.241c1.055,0,1.715-0.483,2.197-0.835v1.216
				c-0.293,0.293-1.055,0.791-2.197,0.791c-2.227,0-3.822-1.758-3.822-3.838s1.465-3.853,3.529-3.853
				c2.256,0,3.369,1.553,3.369,3.56V413.064z M223.725,412.039c-0.146-1.421-1.158-2.08-2.184-2.08c-1.201,0-2.021,0.923-2.227,2.08
				H223.725z"/>
			<path fill="#FFFFFF" d="M236.792,409.505v1.216c-0.557-0.41-1.217-0.762-2.197-0.762c-1.568,0-2.578,1.26-2.578,2.681
				s1.01,2.666,2.578,2.666c0.98,0,1.641-0.352,2.197-0.762v1.216c-0.293,0.293-1.129,0.718-2.197,0.718
				c-2.227,0-3.824-1.758-3.824-3.838s1.598-3.853,3.824-3.853C235.663,408.787,236.499,409.227,236.792,409.505z"/>
			<path fill="#FFFFFF" d="M245.903,412.64c0,2.08-1.598,3.838-3.824,3.838s-3.822-1.758-3.822-3.838s1.596-3.853,3.822-3.853
				S245.903,410.56,245.903,412.64z M239.5,412.64c0,1.421,1.012,2.666,2.578,2.666c1.568,0,2.578-1.245,2.578-2.666
				s-1.01-2.681-2.578-2.681C240.512,409.959,239.5,411.219,239.5,412.64z"/>
			<path fill="#FFFFFF" d="M259.189,411.79v4.468h-1.201l-0.015-4.351c0-1.26-0.688-1.948-1.846-1.948
				c-0.85,0-1.436,0.615-1.992,1.318v4.98h-1.201l-0.015-4.351c0-1.26-0.688-1.948-1.846-1.948c-0.806,0-1.45,0.542-1.992,1.201
				v5.098h-1.201v-7.324h1.201v0.938c0.469-0.527,1.201-1.084,2.197-1.084c1.055,0,2.036,0.498,2.534,1.494
				c0.688-0.806,1.436-1.494,2.52-1.494C257.827,408.787,259.189,409.769,259.189,411.79z"/>
			<path fill="#FFFFFF" d="M272.768,411.79v4.468h-1.201l-0.015-4.351c0-1.26-0.688-1.948-1.846-1.948
				c-0.85,0-1.436,0.615-1.992,1.318v4.98h-1.201l-0.015-4.351c0-1.26-0.688-1.948-1.846-1.948c-0.806,0-1.45,0.542-1.992,1.201
				v5.098h-1.201v-7.324h1.201v0.938c0.469-0.527,1.201-1.084,2.197-1.084c1.055,0,2.036,0.498,2.534,1.494
				c0.688-0.806,1.436-1.494,2.52-1.494C271.406,408.787,272.768,409.769,272.768,411.79z"/>
			<path fill="#FFFFFF" d="M281.03,413.27c0,1.934-1.348,3.135-3.105,3.135s-3.105-1.201-3.105-3.135v-4.336h1.245v4.336
				c0,1.274,0.879,1.963,1.86,1.963s1.86-0.688,1.86-1.963v-4.336h1.245V413.27z"/>
			<path fill="#FFFFFF" d="M289.599,411.79v4.468h-1.201l-0.015-4.35c0-1.26-0.542-1.949-1.699-1.949
				c-0.776,0-1.597,0.674-2.183,1.436v4.863H283.3v-7.324h1.201v1.157c0.454-0.571,1.392-1.304,2.388-1.304
				C288.383,408.787,289.599,409.769,289.599,411.79z"/>
			<path fill="#FFFFFF" d="M293.789,408.934v7.324h-1.201v-6.196h-1.157v-1.128H293.789z M292.045,406.414
				c0-0.527,0.425-0.996,0.996-0.996c0.557,0,0.996,0.469,0.996,0.996c0,0.513-0.439,0.996-0.996,0.996
				C292.47,407.41,292.045,406.927,292.045,406.414z"/>
			<path fill="#FFFFFF" d="M298.403,408.934h2.139v1.128h-2.139v4.292c0,0.615,0.308,0.981,0.952,0.981
				c0.586,0,0.952-0.176,1.245-0.352v0.981c-0.396,0.308-0.776,0.513-1.509,0.513c-1.245,0-1.89-0.82-1.89-2.065v-4.351h-1.406
				v-0.352c0.952-0.425,1.567-1.436,2.051-2.886h0.557V408.934z"/>
			<path fill="#FFFFFF" d="M309.624,408.934l-5.391,10.84h-1.392l2.095-3.955l-3.237-6.885h1.436l2.563,5.391l2.49-5.391H309.624z"
				/>
			<path fill="#FFFFFF" d="M320.903,409.916v-0.982h1.201v7.178c0,2.622-1.772,3.882-3.853,3.882c-1.362,0-2.168-0.469-2.681-0.791
				v-1.289c0.41,0.234,1.406,0.908,2.681,0.908c1.421,0,2.651-0.82,2.651-2.271v-1.537c-0.513,0.775-1.406,1.464-2.52,1.464
				c-1.89,0-3.413-1.538-3.413-3.765c0-2.417,1.523-3.926,3.53-3.926C319.335,408.787,320.273,409.213,320.903,409.916z
				 M316.215,412.713c0,1.422,0.938,2.578,2.358,2.578c1.333,0,2.344-1.143,2.329-2.709l-0.015-1.406
				c-0.615-0.762-1.274-1.201-2.168-1.201C317.153,409.975,316.215,411.293,316.215,412.713z"/>
			<path fill="#FFFFFF" d="M328.945,408.992v1.436c-0.308-0.234-0.688-0.381-1.069-0.381c-0.996,0-1.538,0.806-2.08,1.787v4.424
				h-1.201v-7.324h1.201v1.465c0.557-0.967,1.421-1.611,2.256-1.611C328.388,408.787,328.681,408.86,328.945,408.992z"/>
			<path fill="#FFFFFF" d="M337.617,412.64c0,2.08-1.597,3.838-3.823,3.838s-3.823-1.758-3.823-3.838s1.597-3.853,3.823-3.853
				S337.617,410.56,337.617,412.64z M331.215,412.64c0,1.421,1.011,2.666,2.578,2.666s2.578-1.245,2.578-2.666
				s-1.011-2.681-2.578-2.681S331.215,411.219,331.215,412.64z"/>
			<path fill="#FFFFFF" d="M345.585,413.27c0,1.934-1.348,3.135-3.105,3.135s-3.105-1.201-3.105-3.135v-4.336h1.245v4.336
				c0,1.274,0.879,1.963,1.86,1.963s1.86-0.688,1.86-1.963v-4.336h1.245V413.27z"/>
			<path fill="#FFFFFF" d="M354.99,412.479c0,2.417-1.523,3.999-3.53,3.999c-0.835,0-1.772-0.498-2.402-1.201v4.497h-1.201v-10.84
				h1.201v1.245c0.513-0.776,1.406-1.392,2.52-1.392C353.466,408.787,354.99,410.252,354.99,412.479z M349.057,412.61l0.015,1.406
				c0.615,0.762,1.274,1.289,2.168,1.289c1.567,0,2.505-1.406,2.505-2.827s-0.938-2.52-2.358-2.52
				C350.053,409.959,349.042,411.043,349.057,412.61z"/>
			<path fill="#FFFFFF" d="M361.157,409.344v1.289c-0.41-0.308-1.187-0.674-1.919-0.674c-0.923,0-1.377,0.527-1.377,0.996
				c0,0.366,0.22,0.791,0.894,1.025l1.23,0.439c0.952,0.337,1.421,0.981,1.421,1.816c0,1.245-1.128,2.241-2.695,2.241
				c-0.864,0-1.919-0.396-2.256-0.645v-1.289c0.41,0.308,1.436,0.762,2.168,0.762c0.923,0,1.494-0.454,1.494-1.069
				c0-0.469-0.366-0.703-1.055-0.952l-1.084-0.396c-1.143-0.425-1.406-1.099-1.406-1.934c0-1.245,1.011-2.168,2.578-2.168
				C360.014,408.787,360.82,409.095,361.157,409.344z"/>
			<path fill="#FFFFFF" d="M373.051,409.915v-0.981h1.201v7.324h-1.201v-1.244c-0.513,0.775-1.406,1.464-2.52,1.464
				c-1.89,0-3.413-1.538-3.413-3.765c0-2.417,1.523-3.926,3.53-3.926C371.484,408.787,372.421,409.212,373.051,409.915z
				 M368.364,412.713c0,1.421,0.938,2.593,2.358,2.593c1.333,0,2.344-1.157,2.329-2.725l-0.015-1.406
				c-0.615-0.762-1.274-1.216-2.168-1.216C369.301,409.959,368.364,411.292,368.364,412.713z"/>
			<path fill="#FFFFFF" d="M383.042,411.79v4.468h-1.201l-0.015-4.35c0-1.26-0.542-1.949-1.699-1.949
				c-0.776,0-1.597,0.674-2.183,1.436v4.863h-1.201v-7.324h1.201v1.157c0.454-0.571,1.392-1.304,2.388-1.304
				C381.826,408.787,383.042,409.769,383.042,411.79z"/>
			<path fill="#FFFFFF" d="M391.933,416.258h-1.201v-1.244c-0.513,0.775-1.406,1.464-2.52,1.464c-1.89,0-3.413-1.538-3.413-3.765
				c0-2.417,1.523-3.926,3.53-3.926c0.835,0,1.772,0.425,2.402,1.128v-4.204h1.201V416.258z M386.044,412.713
				c0,1.422,0.938,2.594,2.358,2.594c1.333,0,2.344-1.158,2.329-2.725l-0.015-1.406c-0.615-0.762-1.274-1.188-2.168-1.188
				C386.982,409.988,386.044,411.293,386.044,412.713z"/>
			<path fill="#FFFFFF" d="M400.839,408.934h2.139v1.128h-2.139v4.292c0,0.615,0.308,0.981,0.952,0.981
				c0.586,0,0.952-0.176,1.245-0.352v0.981c-0.396,0.308-0.776,0.513-1.509,0.513c-1.245,0-1.89-0.82-1.89-2.065v-4.351h-1.406
				v-0.352c0.952-0.425,1.567-1.436,2.051-2.886h0.557V408.934z"/>
			<path fill="#FFFFFF" d="M409.511,408.992v1.436c-0.308-0.234-0.688-0.381-1.069-0.381c-0.996,0-1.538,0.806-2.08,1.787v4.424
				h-1.201v-7.324h1.201v1.465c0.557-0.967,1.421-1.611,2.256-1.611C408.955,408.787,409.248,408.86,409.511,408.992z"/>
			<path fill="#FFFFFF" d="M416.469,409.915v-0.981h1.201v7.324h-1.201v-1.244c-0.513,0.775-1.406,1.464-2.52,1.464
				c-1.89,0-3.413-1.538-3.413-3.765c0-2.417,1.523-3.926,3.53-3.926C414.902,408.787,415.839,409.212,416.469,409.915z
				 M411.782,412.713c0,1.421,0.938,2.593,2.358,2.593c1.333,0,2.344-1.157,2.329-2.725l-0.015-1.406
				c-0.615-0.762-1.274-1.216-2.168-1.216C412.719,409.959,411.782,411.292,411.782,412.713z"/>
			<path fill="#FFFFFF" d="M422.08,408.934v7.324h-1.201v-6.196h-1.157v-1.128H422.08z M420.336,406.414
				c0-0.527,0.425-0.996,0.996-0.996c0.557,0,0.996,0.469,0.996,0.996c0,0.513-0.439,0.996-0.996,0.996
				C420.761,407.41,420.336,406.927,420.336,406.414z"/>
			<path fill="#FFFFFF" d="M430.971,411.79v4.468h-1.201l-0.015-4.35c0-1.26-0.542-1.949-1.699-1.949
				c-0.776,0-1.597,0.674-2.183,1.436v4.863h-1.201v-7.324h1.201v1.157c0.454-0.571,1.392-1.304,2.388-1.304
				C429.755,408.787,430.971,409.769,430.971,411.79z"/>
			<path fill="#FFFFFF" d="M435.161,408.934v7.324h-1.201v-6.196h-1.157v-1.128H435.161z M433.417,406.414
				c0-0.527,0.425-0.996,0.996-0.996c0.557,0,0.996,0.469,0.996,0.996c0,0.513-0.439,0.996-0.996,0.996
				C433.842,407.41,433.417,406.927,433.417,406.414z"/>
			<path fill="#FFFFFF" d="M444.052,411.79v4.468h-1.201l-0.015-4.35c0-1.26-0.542-1.949-1.699-1.949
				c-0.776,0-1.597,0.674-2.183,1.436v4.863h-1.201v-7.324h1.201v1.157c0.454-0.571,1.392-1.304,2.388-1.304
				C442.836,408.787,444.052,409.769,444.052,411.79z"/>
			<path fill="#FFFFFF" d="M451.743,409.916v-0.982h1.201v7.178c0,2.622-1.772,3.882-3.853,3.882c-1.362,0-2.168-0.469-2.681-0.791
				v-1.289c0.41,0.234,1.406,0.908,2.681,0.908c1.421,0,2.651-0.82,2.651-2.271v-1.537c-0.513,0.775-1.406,1.464-2.52,1.464
				c-1.89,0-3.413-1.538-3.413-3.765c0-2.417,1.523-3.926,3.53-3.926C450.175,408.787,451.113,409.213,451.743,409.916z
				 M447.055,412.713c0,1.422,0.938,2.578,2.358,2.578c1.333,0,2.344-1.143,2.329-2.709l-0.015-1.406
				c-0.615-0.762-1.274-1.201-2.168-1.201C447.993,409.975,447.055,411.293,447.055,412.713z"/>
			<path fill="#FFFFFF" d="M69.682,429.79v4.468h-1.201l-0.016-4.351c0-1.26-0.688-1.948-1.846-1.948
				c-0.85,0-1.436,0.615-1.992,1.318v4.98h-1.201l-0.014-4.351c0-1.26-0.689-1.948-1.846-1.948c-0.807,0-1.451,0.542-1.992,1.201
				v5.098h-1.201v-7.324h1.201v0.938c0.469-0.527,1.201-1.084,2.197-1.084c1.055,0,2.035,0.498,2.533,1.494
				c0.689-0.806,1.436-1.494,2.52-1.494C68.319,426.787,69.682,427.769,69.682,429.79z"/>
			<path fill="#FFFFFF" d="M77.372,427.915v-0.981h1.201v7.324h-1.201v-1.245c-0.512,0.776-1.406,1.465-2.52,1.465
				c-1.889,0-3.412-1.538-3.412-3.765c0-2.417,1.523-3.926,3.529-3.926C75.805,426.787,76.743,427.212,77.372,427.915z
				 M72.684,430.713c0,1.421,0.938,2.593,2.359,2.593c1.332,0,2.344-1.157,2.328-2.725l-0.014-1.406
				c-0.615-0.762-1.275-1.216-2.168-1.216C73.622,427.959,72.684,429.292,72.684,430.713z"/>
			<path fill="#FFFFFF" d="M83.084,426.934h2.139v1.128h-2.139v4.292c0,0.615,0.309,0.981,0.953,0.981
				c0.586,0,0.951-0.176,1.244-0.352v0.981c-0.395,0.308-0.775,0.513-1.508,0.513c-1.246,0-1.891-0.82-1.891-2.065v-4.351h-1.406
				v-0.352c0.953-0.425,1.568-1.436,2.051-2.886h0.557V426.934z"/>
			<path fill="#FFFFFF" d="M93.793,431.064h-5.625c0.176,1.23,1.143,2.241,2.549,2.241c1.055,0,1.713-0.483,2.197-0.835v1.216
				c-0.293,0.293-1.055,0.791-2.197,0.791c-2.227,0-3.824-1.758-3.824-3.838s1.465-3.853,3.531-3.853
				c2.256,0,3.369,1.553,3.369,3.56V431.064z M92.606,430.039c-0.146-1.421-1.156-2.08-2.182-2.08c-1.201,0-2.021,0.923-2.227,2.08
				H92.606z"/>
			<path fill="#FFFFFF" d="M100.122,426.992v1.436c-0.309-0.234-0.689-0.381-1.07-0.381c-0.996,0-1.537,0.806-2.08,1.787v4.424
				H95.77v-7.324h1.201v1.465c0.557-0.967,1.422-1.611,2.256-1.611C99.565,426.787,99.858,426.86,100.122,426.992z"/>
			<path fill="#FFFFFF" d="M103.579,426.934v7.324h-1.201v-6.196h-1.158v-1.128H103.579z M101.834,424.414
				c0-0.527,0.426-0.996,0.996-0.996c0.557,0,0.996,0.469,0.996,0.996c0,0.513-0.439,0.996-0.996,0.996
				C102.26,425.41,101.834,424.927,101.834,424.414z"/>
			<path fill="#FFFFFF" d="M111.59,427.915v-0.981h1.201v7.324h-1.201v-1.245c-0.512,0.776-1.406,1.465-2.52,1.465
				c-1.889,0-3.412-1.538-3.412-3.765c0-2.417,1.523-3.926,3.529-3.926C110.024,426.787,110.961,427.212,111.59,427.915z
				 M106.903,430.713c0,1.421,0.938,2.593,2.359,2.593c1.332,0,2.344-1.157,2.328-2.725l-0.014-1.406
				c-0.615-0.762-1.275-1.216-2.168-1.216C107.84,427.959,106.903,429.292,106.903,430.713z"/>
			<path fill="#FFFFFF" d="M116.483,434.258h-1.201v-10.547h1.201V434.258z"/>
			<path fill="#FFFFFF" d="M125.288,426.934v7.324h-1.201v-6.196h-1.158v-1.128H125.288z M123.543,424.414
				c0-0.527,0.426-0.996,0.996-0.996c0.557,0,0.996,0.469,0.996,0.996c0,0.513-0.439,0.996-0.996,0.996
				C123.969,425.41,123.543,424.927,123.543,424.414z"/>
			<path fill="#FFFFFF" d="M134.178,429.79v4.468h-1.201l-0.014-4.351c0-1.26-0.543-1.948-1.699-1.948
				c-0.777,0-1.598,0.674-2.184,1.436v4.863h-1.201v-7.324h1.201v1.157c0.455-0.571,1.393-1.304,2.389-1.304
				C132.963,426.787,134.178,427.769,134.178,429.79z"/>
			<path fill="#FFFFFF" d="M147.977,430.479c0,2.417-1.523,3.999-3.529,3.999c-0.836,0-1.773-0.498-2.402-1.201v4.497h-1.201v-10.84
				h1.201v1.245c0.512-0.776,1.406-1.392,2.52-1.392C146.454,426.787,147.977,428.252,147.977,430.479z M142.045,430.61l0.014,1.406
				c0.615,0.762,1.275,1.289,2.168,1.289c1.568,0,2.506-1.406,2.506-2.827s-0.938-2.52-2.359-2.52
				C143.042,427.959,142.03,429.043,142.045,430.61z"/>
			<path fill="#FFFFFF" d="M151.157,434.258h-1.201v-10.547h1.201V434.258z"/>
			<path fill="#FFFFFF" d="M159.067,427.915v-0.981h1.201v7.324h-1.201v-1.245c-0.514,0.776-1.406,1.465-2.52,1.465
				c-1.891,0-3.414-1.538-3.414-3.765c0-2.417,1.523-3.926,3.531-3.926C157.499,426.787,158.436,427.212,159.067,427.915z
				 M154.379,430.713c0,1.421,0.938,2.593,2.357,2.593c1.334,0,2.344-1.157,2.33-2.725l-0.016-1.406
				c-0.615-0.762-1.273-1.216-2.168-1.216C155.317,427.959,154.379,429.292,154.379,430.713z"/>
			<path fill="#FFFFFF" d="M168.266,427.505v1.216c-0.557-0.41-1.217-0.762-2.197-0.762c-1.568,0-2.578,1.26-2.578,2.681
				s1.01,2.666,2.578,2.666c0.98,0,1.641-0.352,2.197-0.762v1.216c-0.293,0.293-1.129,0.718-2.197,0.718
				c-2.227,0-3.824-1.758-3.824-3.838s1.598-3.853,3.824-3.853C167.137,426.787,167.973,427.227,168.266,427.505z"/>
			<path fill="#FFFFFF" d="M176.629,431.064h-5.625c0.176,1.23,1.143,2.241,2.549,2.241c1.055,0,1.715-0.483,2.197-0.835v1.216
				c-0.293,0.293-1.055,0.791-2.197,0.791c-2.227,0-3.822-1.758-3.822-3.838s1.465-3.853,3.529-3.853
				c2.256,0,3.369,1.553,3.369,3.56V431.064z M175.444,430.039c-0.146-1.421-1.158-2.08-2.184-2.08c-1.201,0-2.021,0.923-2.227,2.08
				H175.444z"/>
			<path fill="#FFFFFF" d="M185.024,426.934h2.139v1.128h-2.139v4.292c0,0.615,0.307,0.981,0.951,0.981
				c0.586,0,0.953-0.176,1.246-0.352v0.981c-0.396,0.308-0.777,0.513-1.51,0.513c-1.244,0-1.889-0.82-1.889-2.065v-4.351h-1.406
				v-0.352c0.951-0.425,1.566-1.436,2.051-2.886h0.557V426.934z"/>
			<path fill="#FFFFFF" d="M196.479,430.64c0,2.08-1.598,3.838-3.824,3.838s-3.822-1.758-3.822-3.838s1.596-3.853,3.822-3.853
				S196.479,428.56,196.479,430.64z M190.077,430.64c0,1.421,1.012,2.666,2.578,2.666c1.568,0,2.578-1.245,2.578-2.666
				s-1.01-2.681-2.578-2.681C191.088,427.959,190.077,429.219,190.077,430.64z"/>
			<path fill="#FFFFFF" d="M209.149,429.79v4.468h-1.201l-0.014-4.351c0-1.26-0.543-1.948-1.699-1.948
				c-0.777,0-1.598,0.674-2.184,1.436v4.863h-1.201v-10.547h1.201v4.38c0.455-0.571,1.393-1.304,2.389-1.304
				C207.934,426.787,209.149,427.769,209.149,429.79z"/>
			<path fill="#FFFFFF" d="M217.807,431.064h-5.625c0.176,1.23,1.143,2.241,2.549,2.241c1.055,0,1.713-0.483,2.197-0.835v1.216
				c-0.293,0.293-1.055,0.791-2.197,0.791c-2.227,0-3.824-1.758-3.824-3.838s1.465-3.853,3.531-3.853
				c2.256,0,3.369,1.553,3.369,3.56V431.064z M216.62,430.039c-0.146-1.421-1.156-2.08-2.182-2.08c-1.201,0-2.021,0.923-2.227,2.08
				H216.62z"/>
			<path fill="#FFFFFF" d="M220.985,434.258h-1.201v-10.547h1.201V434.258z"/>
			<path fill="#FFFFFF" d="M230.61,430.479c0,2.417-1.523,3.999-3.531,3.999c-0.834,0-1.771-0.498-2.402-1.201v4.497h-1.201v-10.84
				h1.201v1.245c0.514-0.776,1.406-1.392,2.52-1.392C229.086,426.787,230.61,428.252,230.61,430.479z M224.676,430.61l0.016,1.406
				c0.615,0.762,1.273,1.289,2.168,1.289c1.566,0,2.504-1.406,2.504-2.827s-0.938-2.52-2.357-2.52
				C225.672,427.959,224.663,429.043,224.676,430.61z"/>
			<path fill="#FFFFFF" d="M243.881,426.934l-5.391,10.84h-1.393l2.096-3.955l-3.238-6.885h1.436l2.564,5.391l2.489-5.391H243.881z"
				/>
			<path fill="#FFFFFF" d="M252.479,430.64c0,2.08-1.597,3.838-3.823,3.838s-3.823-1.758-3.823-3.838s1.597-3.853,3.823-3.853
				S252.479,428.56,252.479,430.64z M246.078,430.64c0,1.421,1.011,2.666,2.578,2.666s2.578-1.245,2.578-2.666
				s-1.011-2.681-2.578-2.681S246.078,429.219,246.078,430.64z"/>
			<path fill="#FFFFFF" d="M260.448,431.27c0,1.934-1.348,3.135-3.105,3.135s-3.105-1.201-3.105-3.135v-4.336h1.245v4.336
				c0,1.274,0.879,1.963,1.86,1.963s1.86-0.688,1.86-1.963v-4.336h1.245V431.27z"/>
			<path fill="#FFFFFF" d="M269.134,426.934h2.139v1.128h-2.139v4.292c0,0.615,0.308,0.981,0.952,0.981
				c0.586,0,0.952-0.176,1.245-0.352v0.981c-0.396,0.308-0.776,0.513-1.509,0.513c-1.245,0-1.89-0.82-1.89-2.065v-4.351h-1.406
				v-0.352c0.952-0.425,1.567-1.436,2.051-2.886h0.557V426.934z"/>
			<path fill="#FFFFFF" d="M280.589,430.64c0,2.08-1.597,3.838-3.823,3.838s-3.823-1.758-3.823-3.838s1.597-3.853,3.823-3.853
				S280.589,428.56,280.589,430.64z M274.188,430.64c0,1.421,1.011,2.666,2.578,2.666s2.578-1.245,2.578-2.666
				s-1.011-2.681-2.578-2.681S274.188,429.219,274.188,430.64z"/>
			<path fill="#FFFFFF" d="M292.381,427.915v-0.981h1.201v7.178c0,2.622-1.772,3.882-3.853,3.882c-1.362,0-2.168-0.469-2.681-0.791
				v-1.289c0.41,0.234,1.406,0.908,2.681,0.908c1.421,0,2.651-0.82,2.651-2.271v-1.538c-0.513,0.776-1.406,1.465-2.52,1.465
				c-1.89,0-3.413-1.538-3.413-3.765c0-2.417,1.523-3.926,3.53-3.926C290.814,426.787,291.751,427.212,292.381,427.915z
				 M287.694,430.713c0,1.421,0.938,2.578,2.358,2.578c1.333,0,2.344-1.143,2.329-2.71l-0.015-1.406
				c-0.615-0.762-1.274-1.201-2.168-1.201C288.631,427.974,287.694,429.292,287.694,430.713z"/>
			<path fill="#FFFFFF" d="M302.459,431.064h-5.625c0.176,1.23,1.143,2.241,2.549,2.241c1.055,0,1.714-0.483,2.197-0.835v1.216
				c-0.293,0.293-1.055,0.791-2.197,0.791c-2.227,0-3.823-1.758-3.823-3.838s1.465-3.853,3.53-3.853c2.256,0,3.369,1.553,3.369,3.56
				V431.064z M301.273,430.039c-0.146-1.421-1.157-2.08-2.183-2.08c-1.201,0-2.021,0.923-2.227,2.08H301.273z"/>
			<path fill="#FFFFFF" d="M306.458,426.934h2.139v1.128h-2.139v4.292c0,0.615,0.308,0.981,0.952,0.981
				c0.586,0,0.952-0.176,1.245-0.352v0.981c-0.396,0.308-0.776,0.513-1.509,0.513c-1.245,0-1.89-0.82-1.89-2.065v-4.351h-1.406
				v-0.352c0.952-0.425,1.567-1.436,2.051-2.886h0.557V426.934z"/>
			<path fill="#FFFFFF" d="M319.364,427.344v1.289c-0.41-0.308-1.187-0.674-1.919-0.674c-0.923,0-1.377,0.527-1.377,0.996
				c0,0.366,0.22,0.791,0.894,1.025l1.23,0.439c0.952,0.337,1.421,0.981,1.421,1.816c0,1.245-1.128,2.241-2.695,2.241
				c-0.864,0-1.919-0.396-2.256-0.645v-1.289c0.41,0.308,1.436,0.762,2.168,0.762c0.923,0,1.494-0.454,1.494-1.069
				c0-0.469-0.366-0.703-1.055-0.952l-1.084-0.396c-1.143-0.425-1.406-1.099-1.406-1.934c0-1.245,1.011-2.168,2.578-2.168
				C318.221,426.787,319.027,427.095,319.364,427.344z"/>
			<path fill="#FFFFFF" d="M323.465,426.934h2.139v1.128h-2.139v4.292c0,0.615,0.308,0.981,0.952,0.981
				c0.586,0,0.952-0.176,1.245-0.352v0.981c-0.396,0.308-0.776,0.513-1.509,0.513c-1.245,0-1.89-0.82-1.89-2.065v-4.351h-1.406
				v-0.352c0.952-0.425,1.567-1.436,2.051-2.886h0.557V426.934z"/>
			<path fill="#FFFFFF" d="M333.207,427.915v-0.981h1.201v7.324h-1.201v-1.245c-0.513,0.776-1.406,1.465-2.52,1.465
				c-1.89,0-3.413-1.538-3.413-3.765c0-2.417,1.523-3.926,3.53-3.926C331.639,426.787,332.577,427.212,333.207,427.915z
				 M328.519,430.713c0,1.421,0.938,2.593,2.358,2.593c1.333,0,2.344-1.157,2.329-2.725l-0.015-1.406
				c-0.615-0.762-1.274-1.216-2.168-1.216C329.457,427.959,328.519,429.292,328.519,430.713z"/>
			<path fill="#FFFFFF" d="M341.249,426.992v1.436c-0.308-0.234-0.688-0.381-1.069-0.381c-0.996,0-1.538,0.806-2.08,1.787v4.424
				h-1.201v-7.324h1.201v1.465c0.557-0.967,1.421-1.611,2.256-1.611C340.692,426.787,340.985,426.86,341.249,426.992z"/>
			<path fill="#FFFFFF" d="M344.808,426.934h2.139v1.128h-2.139v4.292c0,0.615,0.308,0.981,0.952,0.981
				c0.586,0,0.952-0.176,1.245-0.352v0.981c-0.396,0.308-0.776,0.513-1.509,0.513c-1.245,0-1.89-0.82-1.89-2.065v-4.351h-1.406
				v-0.352c0.952-0.425,1.567-1.436,2.051-2.886h0.557V426.934z"/>
			<path fill="#FFFFFF" d="M355.516,431.064h-5.625c0.176,1.23,1.143,2.241,2.549,2.241c1.055,0,1.714-0.483,2.197-0.835v1.216
				c-0.293,0.293-1.055,0.791-2.197,0.791c-2.227,0-3.823-1.758-3.823-3.838s1.465-3.853,3.53-3.853c2.256,0,3.369,1.553,3.369,3.56
				V431.064z M354.33,430.039c-0.146-1.421-1.157-2.08-2.183-2.08c-1.201,0-2.021,0.923-2.227,2.08H354.33z"/>
			<path fill="#FFFFFF" d="M364.115,434.258h-1.201v-1.245c-0.513,0.776-1.406,1.465-2.52,1.465c-1.89,0-3.413-1.538-3.413-3.765
				c0-2.417,1.523-3.926,3.53-3.926c0.835,0,1.772,0.425,2.402,1.128v-4.204h1.201V434.258z M358.226,430.713
				c0,1.421,0.938,2.593,2.358,2.593c1.333,0,2.344-1.157,2.329-2.725l-0.015-1.406c-0.615-0.762-1.274-1.187-2.168-1.187
				C359.164,427.988,358.226,429.292,358.226,430.713z"/>
			<path fill="#FFFFFF" d="M377.386,431.064h-5.625c0.176,1.23,1.143,2.241,2.549,2.241c1.055,0,1.714-0.483,2.197-0.835v1.216
				c-0.293,0.293-1.055,0.791-2.197,0.791c-2.227,0-3.823-1.758-3.823-3.838s1.465-3.853,3.53-3.853c2.256,0,3.369,1.553,3.369,3.56
				V431.064z M376.2,430.039c-0.146-1.421-1.157-2.08-2.183-2.08c-1.201,0-2.021,0.923-2.227,2.08H376.2z"/>
			<path fill="#FFFFFF" d="M384.784,427.915v-0.981h1.201v7.324h-1.201v-1.245c-0.513,0.776-1.406,1.465-2.52,1.465
				c-1.89,0-3.413-1.538-3.413-3.765c0-2.417,1.523-3.926,3.53-3.926C383.216,426.787,384.154,427.212,384.784,427.915z
				 M380.096,430.713c0,1.421,0.938,2.593,2.358,2.593c1.333,0,2.344-1.157,2.329-2.725l-0.015-1.406
				c-0.615-0.762-1.274-1.216-2.168-1.216C381.034,427.959,380.096,429.292,380.096,430.713z"/>
			<path fill="#FFFFFF" d="M392.826,426.992v1.436c-0.308-0.234-0.688-0.381-1.069-0.381c-0.996,0-1.538,0.806-2.08,1.787v4.424
				h-1.201v-7.324h1.201v1.465c0.557-0.967,1.421-1.611,2.256-1.611C392.269,426.787,392.562,426.86,392.826,426.992z"/>
			<path fill="#FFFFFF" d="M400.663,429.79v4.468h-1.201l-0.015-4.351c0-1.26-0.542-1.948-1.699-1.948
				c-0.776,0-1.597,0.674-2.183,1.436v4.863h-1.201v-7.324h1.201v1.157c0.454-0.571,1.392-1.304,2.388-1.304
				C399.447,426.787,400.663,427.769,400.663,429.79z"/>
			<path fill="#FFFFFF" d="M404.852,426.934v7.324h-1.201v-6.196h-1.157v-1.128H404.852z M403.109,424.414
				c0-0.527,0.425-0.996,0.996-0.996c0.557,0,0.996,0.469,0.996,0.996c0,0.513-0.439,0.996-0.996,0.996
				C403.534,425.41,403.109,424.927,403.109,424.414z"/>
			<path fill="#FFFFFF" d="M413.744,429.79v4.468h-1.201l-0.015-4.351c0-1.26-0.542-1.948-1.699-1.948
				c-0.776,0-1.597,0.674-2.183,1.436v4.863h-1.201v-7.324h1.201v1.157c0.454-0.571,1.392-1.304,2.388-1.304
				C412.528,426.787,413.744,427.769,413.744,429.79z"/>
			<path fill="#FFFFFF" d="M421.434,427.915v-0.981h1.201v7.178c0,2.622-1.772,3.882-3.853,3.882c-1.362,0-2.168-0.469-2.681-0.791
				v-1.289c0.41,0.234,1.406,0.908,2.681,0.908c1.421,0,2.651-0.82,2.651-2.271v-1.538c-0.513,0.776-1.406,1.465-2.52,1.465
				c-1.89,0-3.413-1.538-3.413-3.765c0-2.417,1.523-3.926,3.53-3.926C419.867,426.787,420.804,427.212,421.434,427.915z
				 M416.747,430.713c0,1.421,0.938,2.578,2.358,2.578c1.333,0,2.344-1.143,2.329-2.71l-0.015-1.406
				c-0.615-0.762-1.274-1.201-2.168-1.201C417.684,427.974,416.747,429.292,416.747,430.713z"/>
			<path fill="#FFFFFF" d="M203.26,447.79v4.468h-1.201l-0.014-4.351c0-1.26-0.689-1.948-1.846-1.948
				c-0.85,0-1.436,0.615-1.992,1.318v4.98h-1.201l-0.016-4.351c0-1.26-0.688-1.948-1.846-1.948c-0.805,0-1.449,0.542-1.992,1.201
				v5.098h-1.201v-7.324h1.201v0.938c0.469-0.527,1.201-1.084,2.197-1.084c1.055,0,2.037,0.498,2.535,1.494
				c0.688-0.806,1.436-1.494,2.52-1.494C201.899,444.787,203.26,445.769,203.26,447.79z"/>
			<path fill="#FFFFFF" d="M212.665,448.64c0,2.08-1.596,3.838-3.822,3.838s-3.824-1.758-3.824-3.838s1.598-3.853,3.824-3.853
				S212.665,446.56,212.665,448.64z M206.264,448.64c0,1.421,1.01,2.666,2.578,2.666c1.566,0,2.578-1.245,2.578-2.666
				s-1.012-2.681-2.578-2.681C207.274,445.959,206.264,447.219,206.264,448.64z"/>
			<path fill="#FFFFFF" d="M220.942,447.79v4.468h-1.201l-0.016-4.351c0-1.26-0.541-1.948-1.699-1.948
				c-0.775,0-1.596,0.674-2.182,1.436v4.863h-1.201v-7.324h1.201v1.157c0.453-0.571,1.391-1.304,2.387-1.304
				C219.725,444.787,220.942,445.769,220.942,447.79z"/>
			<path fill="#FFFFFF" d="M229.598,449.064h-5.625c0.176,1.23,1.143,2.241,2.549,2.241c1.055,0,1.715-0.483,2.197-0.835v1.216
				c-0.293,0.293-1.055,0.791-2.197,0.791c-2.227,0-3.822-1.758-3.822-3.838s1.465-3.853,3.529-3.853
				c2.256,0,3.369,1.553,3.369,3.56V449.064z M228.413,448.039c-0.146-1.421-1.158-2.08-2.184-2.08c-1.201,0-2.021,0.923-2.227,2.08
				H228.413z"/>
			<path fill="#FFFFFF" d="M238.475,444.934l-5.391,10.84h-1.391l2.094-3.955l-3.236-6.885h1.436l2.563,5.391l2.49-5.391H238.475z"
				/>
			<path fill="#FFFFFF" d="M251.469,448.64c0,2.08-1.597,3.838-3.823,3.838s-3.823-1.758-3.823-3.838s1.597-3.853,3.823-3.853
				S251.469,446.56,251.469,448.64z M245.068,448.64c0,1.421,1.011,2.666,2.578,2.666s2.578-1.245,2.578-2.666
				s-1.011-2.681-2.578-2.681S245.068,447.219,245.068,448.64z"/>
			<path fill="#FFFFFF" d="M259.746,447.79v4.468h-1.201l-0.015-4.351c0-1.26-0.542-1.948-1.699-1.948
				c-0.776,0-1.597,0.674-2.183,1.436v4.863h-1.201v-7.324h1.201v1.157c0.454-0.571,1.392-1.304,2.388-1.304
				C258.53,444.787,259.746,445.769,259.746,447.79z"/>
			<path fill="#FFFFFF" d="M263.217,452.258h-1.201v-10.547h1.201V452.258z"/>
			<path fill="#FFFFFF" d="M267.626,444.934v7.324h-1.201v-6.196h-1.157v-1.128H267.626z M265.883,442.414
				c0-0.527,0.425-0.996,0.996-0.996c0.557,0,0.996,0.469,0.996,0.996c0,0.513-0.439,0.996-0.996,0.996
				C266.308,443.41,265.883,442.927,265.883,442.414z"/>
			<path fill="#FFFFFF" d="M276.518,447.79v4.468h-1.201l-0.015-4.351c0-1.26-0.542-1.948-1.699-1.948
				c-0.776,0-1.597,0.674-2.183,1.436v4.863h-1.201v-7.324h1.201v1.157c0.454-0.571,1.392-1.304,2.388-1.304
				C275.302,444.787,276.518,445.769,276.518,447.79z"/>
			<path fill="#FFFFFF" d="M285.175,449.064h-5.625c0.176,1.23,1.143,2.241,2.549,2.241c1.055,0,1.714-0.483,2.197-0.835v1.216
				c-0.293,0.293-1.055,0.791-2.197,0.791c-2.227,0-3.823-1.758-3.823-3.838s1.465-3.853,3.53-3.853c2.256,0,3.369,1.553,3.369,3.56
				V449.064z M283.989,448.039c-0.146-1.421-1.157-2.08-2.183-2.08c-1.201,0-2.021,0.923-2.227,2.08H283.989z"/>
			<path fill="#FFFFFF" d="M289.13,451.496c0,0.557-0.469,1.025-1.025,1.025c-0.571,0-1.025-0.469-1.025-1.025
				c0-0.571,0.454-1.025,1.025-1.025C288.662,450.471,289.13,450.925,289.13,451.496z M288.706,449.035h-1.201v-6.592h1.201V449.035
				z"/>
		</g>
	</g>
	<g opacity="0.5">
		<polygon fill="#FFFFFF" points="467.532,19.579 469.098,19.579 469.098,23.955 457.323,23.955 457.323,8.265 469.098,8.265 
			469.098,12.694 467.569,12.694 467.569,9.866 458.905,9.866 458.905,22.354 467.532,22.354 		"/>
		<polygon fill="#FFFFFF" points="463.383,15.037 463.383,17.219 469.858,17.219 469.858,19.733 474.743,16.114 469.858,12.499 
			469.858,14.965 		"/>
	</g>
	<rect x="182.804" y="497.937" fill="#FF9F03" width="115.4" height="45.63"/>
	<g>
		<polygon fill="#AFAFAF" points="302.362,368.92 253.786,368.92 259.948,346.346 296.182,346.346 		"/>
		<path fill="#C9C9C9" d="M320.493,373.696h-84.842v-2.75c0-0.521,0.248-1.038,0.758-1.434c0.502-0.395,1.17-0.594,1.826-0.594
			h79.67c0.662,0,1.322,0.199,1.83,0.594c0.508,0.396,0.758,0.913,0.758,1.434V373.696z"/>
		<path fill="#2B2B2B" d="M369.391,328.938V222.524c0-2.216-2.047-4.038-4.547-4.038H191.297c-2.484,0-4.523,1.822-4.523,4.038
			v106.414H369.391z"/>
		<rect x="196.198" y="226.87" fill="#197278" width="163.768" height="93.682"/>
		<g>
			<g>
				<polygon fill="#FFFFFF" points="314.471,271.258 317.057,267.774 318.204,262.49 317.247,257.584 314.471,250.616 
					240.278,250.616 240.278,272.033 				"/>
				<path fill="#8EC14C" d="M315.715,249.015c0,0,7.273,13.86,0,24.694h-78.5l1.244-4.131h75.98c0,0,4.436-3.522,0.227-16.767
					h-76.781l-0.67-3.796H315.715z"/>
				<polygon opacity="0.15" points="240.278,262.225 307.293,261.044 240.278,260.424 				"/>
			</g>
			<g>
				<polygon fill="#FFFFFF" points="229.045,276.158 225.563,279.645 224.018,284.937 225.305,289.835 229.045,296.804 
					329.028,296.804 329.028,275.387 				"/>
				<path fill="#FF9F03" d="M227.368,298.407c0,0-9.803-13.862,0-24.697h105.785l-1.678,4.129H229.09c0,0-5.977,3.525-0.303,16.773
					h103.461l0.904,3.795H227.368z"/>
				<polygon opacity="0.15" points="329.028,285.157 245.266,286.339 329.028,286.961 				"/>
			</g>
		</g>
		<path opacity="0.1" fill="#FFFFFF" d="M364.844,218.486H191.297c-2.484,0-4.523,1.822-4.523,4.038v106.414L367.889,219.54
			C367.081,218.888,366.016,218.486,364.844,218.486z"/>
		<path fill="#C9C9C9" d="M369.391,342.305v-13.366H186.774v13.366c0,2.224,2.039,4.041,4.523,4.041h173.547
			C367.344,346.346,369.391,344.528,369.391,342.305z"/>
		<path fill="#9D9D9D" d="M281.096,337.642c0,1.663-1.35,3.015-3.014,3.015c-1.662,0-3.016-1.352-3.016-3.015
			c0-1.664,1.354-3.013,3.016-3.013C279.747,334.629,281.096,335.978,281.096,337.642z"/>
		<polygon opacity="0.1" points="259.948,346.346 257.684,354.641 298.454,354.641 296.182,346.346 		"/>
	</g>
	<g opacity="0.5">
		<rect x="89.706" y="166.536" fill="#FFFFFF" width="3.057" height="16.007"/>
		<rect x="83.229" y="173.011" fill="#FFFFFF" width="16.008" height="3.057"/>
	</g>
	<path opacity="0.3" fill="#FFFFFF" d="M67.446,196.532c0,1.124-0.912,2.769-2.035,2.769c-1.125,0-2.037-1.645-2.037-2.769
		c0-1.125,0.912-2.037,2.037-2.037C66.534,194.496,67.446,195.408,67.446,196.532z"/>
	<g opacity="0.5">
		<rect x="395.463" y="267.206" fill="#FFFFFF" width="2.484" height="13.008"/>
		<rect x="390.202" y="272.467" fill="#FFFFFF" width="13.008" height="2.483"/>
	</g>
	<g opacity="0.3">
		<rect x="272.989" y="178.565" fill="#FFFFFF" width="1.594" height="8.336"/>
		<rect x="269.618" y="181.937" fill="#FFFFFF" width="8.336" height="1.592"/>
	</g>
	<path opacity="0.3" fill="#FFFFFF" d="M402.641,190.221c0,1.24-1.006,3.055-2.246,3.055s-2.246-1.815-2.246-3.055
		c0-1.241,1.006-2.248,2.246-2.248S402.641,188.979,402.641,190.221z"/>
	<g opacity="0.5">
		<rect x="88.043" y="259.712" fill="#FFFFFF" width="1.795" height="9.398"/>
		<rect x="84.241" y="263.514" fill="#FFFFFF" width="9.398" height="1.795"/>
	</g>
	<g opacity="0.5">
		<rect x="317.106" y="193.547" fill="#FFFFFF" width="2.197" height="11.507"/>
		<rect x="312.45" y="198.202" fill="#FFFFFF" width="11.508" height="2.197"/>
	</g>
	<g opacity="0.3">
		<rect x="70.817" y="315.372" fill="#FFFFFF" width="1.594" height="8.336"/>
		<rect x="67.446" y="318.743" fill="#FFFFFF" width="8.336" height="1.592"/>
	</g>
	<g opacity="0.3">
		<rect x="388.426" y="218.486" fill="#FFFFFF" width="1.594" height="8.336"/>
		<rect x="385.055" y="221.858" fill="#FFFFFF" width="8.336" height="1.592"/>
	</g>
	<g>
		<g>
			<rect x="100.381" y="353.313" fill="#F2C897" width="45.133" height="26.404"/>
			<path fill="#F2C897" d="M167.883,266.926l7.557-2.515c0,0,6.174,12.454-7.734,18.782"/>
			<path fill="#F2C897" d="M173.547,289.865l7.326,3.119c0,0-3.619,13.424-18.229,8.956"/>
			<path fill="#F2C897" d="M172.256,302.245l6.879,7.034c0,0-5.926,8.01-14.508,1.203"/>
			<path fill="#F2C897" d="M145.563,357.24c0,0,13.738-19.018,8.15-37.7h-22.248l-0.926,37.7H145.563z"/>
			<path opacity="0.1" d="M138.014,324.2c0,0,3.084,10.072-7.475,33.04c0,0,18.004-16.226,16.02-38.707
				C146.559,318.533,137.411,321.798,138.014,324.2z"/>
			<path fill="#3A3A3A" d="M167.407,192.399h-54.723c-3.648,0-6.717,2.697-6.717,6.348l0.357,54.317v13.9v8.611v16.627v25.671
				c0,3.649,3.066,6.326,6.719,6.326h0.1h13.572h40.336c3.648,0,6.318-2.677,6.318-6.326l0.357-119.126
				C173.727,195.096,171.059,192.399,167.407,192.399"/>
			<rect x="111.657" y="209.159" fill="#197278" width="56.379" height="96.757"/>
			<g>
				<polygon fill="#354578" points="118.018,237.777 121.729,270 143.668,270 150.909,277.299 148.836,270 157.797,270 
					161.672,237.777 				"/>
				<g>
					<path fill="#9BAAC9" d="M150.456,251.801c-0.059-1.449-1.1-1.276-1.105-1.274l-0.035-0.473l0.502-2
						c0,0-0.236-0.724-0.447-1.364c-0.07-0.212,0.484,0.014,0.484,0.014s-0.215-1.479-3.791-1.822
						c-3.578-0.344-4.574,1.413-4.574,1.413c-0.199-0.509-0.096-0.704-0.053-0.757c-0.701,0.717-0.543,1.683-0.543,1.683
						l-0.398-0.306l-0.113,2.116l0.441,1.322l0.02,0.171c-0.311,0.034-0.852,0.238-0.895,1.276c0,0-0.078,1.194,1.092,1.14
						l-0.006,0.467l1.02,2.574l0.979,0.706l1.283,0.989l0,0v0.886l0,0l0,0l-4.918,0.855l-0.01,4.064h12v-4.214l-4.883-0.754l0,0l0,0
						l-0.018-0.842l0,0l2.049-1.653l0.074-0.236l0.9-2.145l-0.02-0.692C150.53,252.91,150.456,251.801,150.456,251.801z"/>
					<path fill="#FEFEFE" d="M139.02,251.801c-0.059-1.449-1.098-1.276-1.105-1.274l-0.035-0.473l0.502-2
						c0,0-0.234-0.724-0.449-1.364c-0.068-0.212,0.488,0.014,0.488,0.014s-0.215-1.479-3.793-1.822
						c-3.58-0.344-4.572,1.413-4.572,1.413c-0.199-0.509-0.096-0.704-0.055-0.759c-0.697,0.719-0.541,1.687-0.541,1.687l-0.4-0.308
						l-0.111,2.116l0.441,1.322l0.02,0.173c-0.311,0.032-0.854,0.236-0.896,1.274c0,0-0.076,1.194,1.092,1.14l-0.002,0.467
						l1.016,2.574l0.979,0.706l1.283,0.989l0,0v0.886l0,0l0,0l-4.916,0.855l-0.012,4.066h12.002v-4.216l-4.887-0.755l0,0l0,0
						l-0.016-0.842l0,0l2.047-1.651l0.076-0.236l0.9-2.145l-0.018-0.691C139.096,252.91,139.02,251.801,139.02,251.801z"/>
				</g>
			</g>
			<g opacity="0.4">
				<g>
					<defs>
						<rect id="SVGID_1_" x="133.963" y="309.655" width="11.6" height="11.596"/>
					</defs>
					<clipPath id="SVGID_2_">
						<use xlink:href="#SVGID_1_"  overflow="visible"/>
					</clipPath>
					<g clip-path="url(#SVGID_2_)">
						<defs>
							<rect id="SVGID_3_" x="133.963" y="309.655" width="11.604" height="11.596"/>
						</defs>
						<clipPath id="SVGID_4_">
							<use xlink:href="#SVGID_3_"  overflow="visible"/>
						</clipPath>
						<path clip-path="url(#SVGID_4_)" fill="#383838" d="M133.963,315.453c0-3.203,2.598-5.801,5.801-5.801
							c3.205,0,5.799,2.598,5.799,5.801c0,3.205-2.594,5.801-5.799,5.801C136.561,321.254,133.963,318.657,133.963,315.453"/>
					</g>
				</g>
			</g>
			<path opacity="0.5" fill="#262626" d="M135.008,314.613c0-2.625,2.129-4.755,4.756-4.755c2.629,0,4.758,2.13,4.758,4.755
				c0,2.629-2.129,4.757-4.758,4.757C137.137,319.37,135.008,317.242,135.008,314.613"/>
			<path fill="#262626" d="M145.602,204.15c0,0.266-0.219,0.485-0.482,0.485h-10.545c-0.266,0-0.48-0.219-0.48-0.485v-0.604
				c0-0.266,0.215-0.481,0.48-0.481h10.545c0.264,0,0.482,0.215,0.482,0.481V204.15z"/>
			<path fill="#262626" d="M138.454,199.282c0-0.771,0.623-1.394,1.393-1.394c0.768,0,1.393,0.623,1.393,1.394
				c0,0.769-0.625,1.391-1.393,1.391C139.077,200.673,138.454,200.051,138.454,199.282"/>
			<path fill="#262626" d="M130.749,203.873c0-0.506,0.41-0.919,0.918-0.919s0.916,0.413,0.916,0.919s-0.408,0.917-0.916,0.917
				S130.749,204.379,130.749,203.873"/>
			<path fill="#F2C897" d="M130.54,357.24h-30.158l-10.41-31.491l6.049-40.307l10.205-8.2l0.102,19.116l5.33-9.609l31.139-9.142
				c0,0,14.898,14.271-14.576,24.545l-3.965,8.545c0,0,16.252,3.624,14.477,22.923C138.731,333.62,137.577,345.735,130.54,357.24"/>
			<polygon fill="#DB504A" points="97.737,362.467 148.866,362.467 146.28,379.688 99.618,379.688 			"/>
		</g>
		<polygon fill="#FFFFFF" points="120.272,232.886 118.016,237.648 112.954,236.821 117.877,238.837 117.153,244.211 
			119.393,239.161 124.29,239.563 119.694,237.731 		"/>
	</g>
	<g opacity="0.5">
		<rect x="228.272" y="187.992" fill="#FFFFFF" width="2.484" height="13.008"/>
		<rect x="223.01" y="193.253" fill="#FFFFFF" width="13.008" height="2.483"/>
	</g>
	<path opacity="0.3" fill="#FFFFFF" d="M384.258,360.763c0,1.124-0.912,2.769-2.035,2.769c-1.125,0-2.037-1.645-2.037-2.769
		s0.912-2.036,2.037-2.036C383.346,358.727,384.258,359.639,384.258,360.763z"/>
	<g opacity="0.3">
		<rect x="412.672" y="315.891" fill="#FFFFFF" width="1.592" height="8.336"/>
		<rect x="409.299" y="319.263" fill="#FFFFFF" width="8.338" height="1.593"/>
	</g>
	<polygon fill="#FFFFFF" points="239.178,242.746 236.493,248.417 230.467,247.433 236.329,249.833 235.467,256.231 
		238.133,250.218 243.963,250.697 238.491,248.516 	"/>
	<g>
		<g>
			<path fill="#FFFFFF" d="M214.212,524.379c0,2.781-2.783,5.018-6.807,5.018c-2.187,0-5.143-0.348-6.707-0.695V512.43h7.303
				c2.856,0,5.416,1.789,5.416,4.596c0,1.516-0.771,2.855-2.311,3.502C212.597,520.949,214.212,521.969,214.212,524.379z
				 M204.151,515.535v3.975h3.13c1.59,0,2.733-0.746,2.733-1.963c0-1.316-1.144-2.012-2.733-2.012H204.151z M210.61,524.006
				c0-1.391-1.565-1.938-3.403-1.938h-3.056v3.9c0.944,0.223,2.335,0.297,3.056,0.297C209.12,526.266,210.61,525.422,210.61,524.006
				z"/>
			<path fill="#FFFFFF" d="M221.464,515.41v3.775h7.354v2.809h-7.354v4.023h8.322v3.055h-11.775V512.43h11.775v2.98H221.464z"/>
			<path fill="#FFFFFF" d="M248.193,526.838c-1.391,1.439-3.801,2.607-6.508,2.607c-4.77,0-8.794-3.553-8.794-8.693
				c0-5.143,4.024-8.695,8.794-8.695c2.086,0,3.552,0.621,4.694,1.615v3.477c-1.217-0.918-2.385-1.838-4.596-1.838
				c-2.98,0-5.365,2.336-5.365,5.439c0,3.105,2.385,5.416,5.365,5.416c1.789,0,2.684-0.621,3.18-1.068l0.025-2.385h-2.087v-2.482
				h5.291V526.838z"/>
			<path fill="#FFFFFF" d="M258.103,515.535v10.434h2.807v3.104h-9.067v-3.104h2.808v-10.434h-2.808v-3.105h9.067v3.105H258.103z"/>
			<path fill="#FFFFFF" d="M280.31,529.197h-1.267l-9.837-10.16v10.035h-3.453v-16.768h1.267l9.837,10.311V512.43h3.453V529.197z"/>
		</g>
	</g>
</g>
</svg>
