<?xml version="1.0" encoding="utf-8"?>
<!-- Generator: Adobe Illustrator 16.0.0, SVG Export Plug-In . SVG Version: 6.00 Build 0)  -->
<!DOCTYPE svg PUBLIC "-//W3C//DTD SVG 1.1//EN" "http://www.w3.org/Graphics/SVG/1.1/DTD/svg11.dtd">
<svg version="1.1" id="Layer_1" xmlns="http://www.w3.org/2000/svg" xmlns:xlink="http://www.w3.org/1999/xlink" x="0px" y="0px"
	 width="481.009px" height="579.844px" viewBox="0 0 481.009 579.844" enable-background="new 0 0 481.009 579.844"
	 xml:space="preserve">
<g>
	<rect fill="#8EC14C" width="481.009" height="579.844"/>
	<g>
		<g>
			<path fill="#FFFFFF" d="M91.679,58.915v3.776h7.353v2.807h-7.353v4.024h8.322v3.055H88.226V55.934h11.775v2.981H91.679z"/>
			<path fill="#FFFFFF" d="M114.134,69.473h-6.583l-1.267,3.105h-4.049l7.75-16.768h1.714l7.75,16.768h-4.049L114.134,69.473z
				 M112.942,66.541l-2.086-5.092l-2.087,5.092H112.942z"/>
			<path fill="#FFFFFF" d="M129.237,55.562c2.086,0,3.552,0.621,4.695,1.615v3.477c-1.217-0.919-2.385-1.838-4.596-1.838
				c-2.981,0-5.366,2.335-5.366,5.44c0,3.105,2.385,5.416,5.366,5.416c2.211,0,3.602-0.795,4.844-1.764v3.354
				c-1.143,1.019-2.857,1.689-4.943,1.689c-4.77,0-8.794-3.552-8.794-8.694S124.467,55.562,129.237,55.562L129.237,55.562z"/>
			<path fill="#FFFFFF" d="M152.388,55.934v16.644h-3.428v-6.757h-7.726v6.757h-3.453V55.934h3.453v6.782h7.726v-6.782H152.388z"/>
			<path fill="#FFFFFF" d="M168.259,69.473h8.322v3.105h-11.775V55.934h3.453V69.473z"/>
			<path fill="#FFFFFF" d="M184.082,58.915v3.776h7.353v2.807h-7.353v4.024h8.322v3.055h-11.775V55.934h11.775v2.981H184.082z"/>
			<path fill="#FFFFFF" d="M204.103,72.702h-1.714l-7.75-16.768h4.049l4.546,11.005l4.571-11.005h4.049L204.103,72.702z"/>
			<path fill="#FFFFFF" d="M218.038,58.915v3.776h7.353v2.807h-7.353v4.024h8.322v3.055h-11.775V55.934h11.775v2.981H218.038z"/>
			<path fill="#FFFFFF" d="M234.283,69.473h8.322v3.105H230.83V55.934h3.453V69.473z"/>
			<path fill="#FFFFFF" d="M260.24,59.04v10.433h2.807v3.105h-9.067v-3.105h2.808V59.04h-2.808v-3.105h9.067v3.105H260.24z"/>
			<path fill="#FFFFFF" d="M282.447,72.702h-1.267l-9.837-10.16v10.036h-3.453V55.81h1.267l9.837,10.309V55.934h3.453V72.702z"/>
			<path fill="#FFFFFF" d="M294.841,55.562c2.087,0,3.553,0.621,4.695,1.615v3.477c-1.217-0.919-2.385-1.838-4.596-1.838
				c-2.98,0-5.365,2.335-5.365,5.44c0,3.105,2.385,5.416,5.365,5.416c2.211,0,3.602-0.795,4.844-1.764v3.354
				c-1.143,1.019-2.856,1.689-4.943,1.689c-4.77,0-8.794-3.552-8.794-8.694S290.071,55.562,294.841,55.562L294.841,55.562z"/>
			<path fill="#FFFFFF" d="M313.049,72.578l-6.21-6.832v6.832h-3.453V55.934h6.757c3.104,0,6.284,1.714,6.284,5.391
				c0,2.882-2.359,4.596-5.067,4.819l6.235,6.434H313.049z M306.839,59.163v4.198c0.819,0.249,1.813,0.422,2.807,0.422
				c1.987,0,3.254-0.845,3.254-2.335c0-1.615-1.416-2.285-3.204-2.285L306.839,59.163z"/>
			<path fill="#FFFFFF" d="M323.778,58.915v3.776h7.354v2.807h-7.354v4.024h8.322v3.055h-11.775V55.934h11.775v2.981H323.778z"/>
			<path fill="#FFFFFF" d="M346.234,69.473h-6.583l-1.267,3.105h-4.05l7.751-16.768h1.714l7.751,16.768h-4.05L346.234,69.473z
				 M345.042,66.541l-2.087-5.092l-2.087,5.092H345.042z"/>
			<path fill="#FFFFFF" d="M358.827,55.611c1.938,0,3.577,0.621,4.646,1.317v3.403c-1.192-0.746-2.509-1.491-4.223-1.491
				c-1.292,0-2.732,0.546-2.732,1.813c0,1.093,1.093,1.515,2.483,2.087l2.037,0.844c2.335,0.994,3.379,2.41,3.379,4.248
				c0,2.956-2.857,5.067-6.31,5.067c-1.938,0-3.801-0.795-5.143-1.739v-3.403c1.44,1.043,3.229,1.888,5.217,1.888
				c1.391,0,2.534-0.546,2.534-1.64c0-0.87-0.969-1.391-1.938-1.739l-2.559-0.994c-2.584-0.994-3.305-2.683-3.305-4.621
				C352.915,57.598,355.723,55.611,358.827,55.611L358.827,55.611z"/>
			<path fill="#FFFFFF" d="M371.347,58.915v3.776h7.354v2.807h-7.354v4.024h8.322v3.055h-11.775V55.934h11.775v2.981H371.347z"/>
			<path fill="#FFFFFF" d="M388.685,55.611c1.938,0,3.577,0.621,4.646,1.317v3.403c-1.192-0.746-2.509-1.491-4.223-1.491
				c-1.292,0-2.732,0.546-2.732,1.813c0,1.093,1.093,1.515,2.483,2.087l2.037,0.844c2.335,0.994,3.379,2.41,3.379,4.248
				c0,2.956-2.857,5.067-6.31,5.067c-1.938,0-3.801-0.795-5.143-1.739v-3.403c1.44,1.043,3.229,1.888,5.217,1.888
				c1.391,0,2.534-0.546,2.534-1.64c0-0.87-0.969-1.391-1.938-1.739l-2.559-0.994c-2.584-0.994-3.305-2.683-3.305-4.621
				C382.772,57.598,385.58,55.611,388.685,55.611L388.685,55.611z"/>
			<path fill="#FFFFFF" d="M71.957,96.816v6.284h-3.528v-6.11l-6.458-10.533h4.049l4.148,7.006l4.174-7.006h4.049L71.957,96.816z"/>
			<path fill="#FFFFFF" d="M96.424,94.779c0,5.142-3.925,8.694-8.694,8.694s-8.719-3.553-8.719-8.694
				c0-5.143,3.95-8.694,8.719-8.694S96.424,89.636,96.424,94.779z M82.538,94.779c0,3.104,2.211,5.415,5.192,5.415
				s5.167-2.311,5.167-5.415c0-3.105-2.186-5.44-5.167-5.44S82.538,91.673,82.538,94.779z"/>
			<path fill="#FFFFFF" d="M114.159,96.517c0,4.348-3.155,6.931-7.179,6.931c-4.024,0-7.204-2.583-7.204-6.931v-10.11h3.453v9.912
				c0,2.533,1.516,3.825,3.751,3.8c2.235-0.024,3.751-1.267,3.751-3.8v-9.912h3.428V96.517z"/>
			<path fill="#FFFFFF" d="M128.541,103.1l-6.21-6.831v6.831h-3.453V86.457h6.757c3.105,0,6.285,1.714,6.285,5.391
				c0,2.882-2.36,4.596-5.068,4.819l6.235,6.434H128.541z M122.331,89.685v4.198c0.819,0.249,1.813,0.423,2.807,0.423
				c1.987,0,3.254-0.845,3.254-2.335c0-1.614-1.416-2.285-3.205-2.285L122.331,89.685z"/>
			<path fill="#FFFFFF" d="M146.723,89.438v3.775h7.353v2.808h-7.353v4.023h8.322v3.056H143.27V86.457h11.775v2.981H146.723z"/>
			<path fill="#FFFFFF" d="M169.178,99.995h-6.583l-1.267,3.105h-4.049l7.75-16.768h1.714l7.75,16.768h-4.049L169.178,99.995z
				 M167.985,97.064l-2.086-5.093l-2.087,5.093H167.985z"/>
			<path fill="#FFFFFF" d="M186.889,103.1l-6.21-6.831v6.831h-3.453V86.457h6.757c3.105,0,6.285,1.714,6.285,5.391
				c0,2.882-2.36,4.596-5.068,4.819l6.235,6.434H186.889z M180.679,89.685v4.198c0.819,0.249,1.813,0.423,2.807,0.423
				c1.987,0,3.254-0.845,3.254-2.335c0-1.614-1.416-2.285-3.205-2.285L180.679,89.685z"/>
			<path fill="#FFFFFF" d="M208.723,103.224h-1.267l-9.837-10.16V103.1h-3.453V86.333h1.267l9.837,10.31V86.457h3.453V103.224z"/>
			<path fill="#FFFFFF" d="M219.825,89.562v10.434h2.807v3.104h-9.067v-3.104h2.807V89.562h-2.807v-3.105h9.067v3.105H219.825z"/>
			<path fill="#FFFFFF" d="M242.033,103.224h-1.268l-9.837-10.16V103.1h-3.453V86.333h1.267l9.837,10.31V86.457h3.453V103.224z"/>
			<path fill="#FFFFFF" d="M260.936,100.865c-1.391,1.44-3.801,2.608-6.508,2.608c-4.77,0-8.794-3.553-8.794-8.694
				c0-5.143,4.024-8.694,8.794-8.694c2.086,0,3.552,0.62,4.694,1.614v3.478c-1.217-0.919-2.385-1.838-4.596-1.838
				c-2.98,0-5.365,2.335-5.365,5.439c0,3.105,2.385,5.416,5.365,5.416c1.789,0,2.684-0.621,3.18-1.068l0.025-2.385h-2.087v-2.483
				h5.291V100.865z"/>
			<path fill="#FFFFFF" d="M285.204,92.394c0,3.403-2.881,5.738-6.21,5.738c-1.49,0-2.708-0.348-3.503-0.745v5.713h-3.452V86.457
				h6.881C282.024,86.457,285.204,88.717,285.204,92.394z M281.677,92.394c0-1.739-1.54-2.708-3.328-2.708h-2.857v4.919
				c0.746,0.298,1.839,0.546,2.932,0.546C280.41,95.151,281.677,93.934,281.677,92.394z"/>
			<path fill="#FFFFFF" d="M304.729,94.779c0,5.142-3.925,8.694-8.694,8.694s-8.72-3.553-8.72-8.694c0-5.143,3.95-8.694,8.72-8.694
				S304.729,89.636,304.729,94.779z M290.843,94.779c0,3.104,2.211,5.415,5.191,5.415s5.167-2.311,5.167-5.415
				c0-3.105-2.187-5.44-5.167-5.44S290.843,91.673,290.843,94.779z"/>
			<path fill="#FFFFFF" d="M320.104,89.562h-5.316v13.464h-3.428V89.562h-5.316v-3.105h14.061V89.562z"/>
			<path fill="#FFFFFF" d="M326.711,89.438v3.775h7.354v2.808h-7.354v4.023h8.322v3.056h-11.774V86.457h11.774v2.981H326.711z"/>
			<path fill="#FFFFFF" d="M354.061,103.224h-1.267l-9.837-10.16V103.1h-3.453V86.333h1.267l9.837,10.31V86.457h3.453V103.224z"/>
			<path fill="#FFFFFF" d="M371.299,89.562h-5.316v13.464h-3.428V89.562h-5.316v-3.105h14.061V89.562z"/>
			<path fill="#FFFFFF" d="M380.589,89.562v10.434h2.807v3.104h-9.067v-3.104h2.808V89.562h-2.808v-3.105h9.067v3.105H380.589z"/>
			<path fill="#FFFFFF" d="M397.902,99.995h-6.583l-1.267,3.105h-4.05l7.751-16.768h1.714l7.751,16.768h-4.05L397.902,99.995z
				 M396.71,97.064l-2.087-5.093l-2.087,5.093H396.71z"/>
			<path fill="#FFFFFF" d="M409.402,99.995h8.322v3.105H405.95V86.457h3.452V99.995z"/>
		</g>
	</g>
	<g>
		<g>
			<path fill="#FFFFFF" d="M41.798,430.229v4.028h-1.421v-3.838l-3.765-5.977h1.582l2.871,4.629l2.915-4.629h1.582L41.798,430.229z"
				/>
			<path fill="#FFFFFF" d="M54.088,430.64c0,2.08-1.597,3.838-3.823,3.838s-3.823-1.758-3.823-3.838s1.597-3.853,3.823-3.853
				S54.088,428.56,54.088,430.64z M47.687,430.64c0,1.421,1.011,2.666,2.578,2.666s2.578-1.245,2.578-2.666
				s-1.011-2.681-2.578-2.681S47.687,429.219,47.687,430.64z"/>
			<path fill="#FFFFFF" d="M62.057,431.27c0,1.934-1.348,3.135-3.105,3.135s-3.105-1.201-3.105-3.135v-4.336h1.245v4.336
				c0,1.274,0.879,1.963,1.86,1.963s1.86-0.688,1.86-1.963v-4.336h1.245V431.27z"/>
			<path fill="#FFFFFF" d="M65.895,424.59l-1.611,3.765l-0.908-0.234l1.318-3.94L65.895,424.59z"/>
			<path fill="#FFFFFF" d="M68.634,434.258h-1.201v-10.547h1.201V434.258z"/>
			<path fill="#FFFFFF" d="M72.325,434.258h-1.201v-10.547h1.201V434.258z"/>
			<path fill="#FFFFFF" d="M85.597,431.064h-5.625c0.176,1.23,1.143,2.241,2.549,2.241c1.055,0,1.714-0.483,2.197-0.835v1.216
				c-0.293,0.293-1.055,0.791-2.197,0.791c-2.227,0-3.823-1.758-3.823-3.838s1.465-3.853,3.53-3.853c2.256,0,3.369,1.553,3.369,3.56
				V431.064z M84.41,430.039c-0.146-1.421-1.157-2.08-2.183-2.08c-1.201,0-2.021,0.923-2.227,2.08H84.41z"/>
			<path fill="#FFFFFF" d="M92.994,427.915v-0.981h1.201v7.324h-1.201v-1.244c-0.513,0.775-1.406,1.464-2.52,1.464
				c-1.89,0-3.413-1.538-3.413-3.765c0-2.417,1.523-3.926,3.53-3.926C91.427,426.787,92.364,427.212,92.994,427.915z
				 M88.307,430.713c0,1.421,0.938,2.593,2.358,2.593c1.333,0,2.344-1.157,2.329-2.725l-0.015-1.406
				c-0.615-0.762-1.274-1.216-2.168-1.216C89.244,427.959,88.307,429.292,88.307,430.713z"/>
			<path fill="#FFFFFF" d="M101.036,426.992v1.436c-0.308-0.234-0.688-0.381-1.069-0.381c-0.996,0-1.538,0.806-2.08,1.787v4.424
				h-1.201v-7.324h1.201v1.465c0.557-0.967,1.421-1.611,2.256-1.611C100.479,426.787,100.772,426.86,101.036,426.992z"/>
			<path fill="#FFFFFF" d="M108.873,429.79v4.468h-1.201l-0.015-4.35c0-1.26-0.542-1.949-1.699-1.949
				c-0.776,0-1.597,0.674-2.183,1.436v4.863h-1.201v-7.324h1.201v1.157c0.454-0.571,1.392-1.304,2.388-1.304
				C107.657,426.787,108.873,427.769,108.873,429.79z"/>
			<path fill="#FFFFFF" d="M118.761,433.906v1.23h-1.055v-1.216c-0.835-0.088-1.567-0.454-2.124-0.835v-1.245
				c0.688,0.483,1.582,0.938,2.725,0.938c0.894,0,1.67-0.469,1.67-1.26c0-0.659-0.732-1.055-1.274-1.274l-1.626-0.674
				c-1.289-0.542-1.655-1.318-1.655-2.314c0-1.201,1.011-2.183,2.285-2.432v-0.967h1.055v0.908c0.864,0.073,1.509,0.41,1.963,0.703
				v1.23c-0.498-0.366-1.377-0.776-2.212-0.776c-0.806,0-1.846,0.425-1.846,1.377c0,0.718,0.571,1.04,1.318,1.348l1.362,0.557
				c1.245,0.513,1.86,1.143,1.86,2.271C121.207,432.734,120.123,433.687,118.761,433.906z"/>
			<path fill="#FFFFFF" d="M129.132,425.659h-3.867v2.622c0.293-0.117,0.645-0.205,1.245-0.205c1.626,0,3.018,1.289,3.018,3.003
				c0,1.992-1.538,3.398-3.618,3.398c-1.069,0-2.124-0.542-2.637-1.011v-1.45c0.557,0.454,1.479,1.274,2.637,1.274
				c1.318,0,2.373-0.835,2.373-2.095c0-1.187-1.143-1.948-2.446-1.948c-0.747,0-1.348,0.234-1.89,0.439v-5.244h5.186V425.659z"/>
			<path fill="#FFFFFF" d="M143.18,430.479c0,2.417-1.523,3.999-3.53,3.999c-0.835,0-1.772-0.498-2.402-1.201v4.497h-1.201v-10.84
				h1.201v1.245c0.513-0.776,1.406-1.392,2.52-1.392C141.656,426.787,143.18,428.252,143.18,430.479z M137.247,430.61l0.015,1.406
				c0.615,0.762,1.274,1.289,2.168,1.289c1.567,0,2.505-1.406,2.505-2.827s-0.938-2.52-2.358-2.52
				C138.243,427.959,137.232,429.043,137.247,430.61z"/>
			<path fill="#FFFFFF" d="M151.544,431.064h-5.625c0.176,1.23,1.143,2.241,2.549,2.241c1.055,0,1.714-0.483,2.197-0.835v1.216
				c-0.293,0.293-1.055,0.791-2.197,0.791c-2.227,0-3.823-1.758-3.823-3.838s1.465-3.853,3.53-3.853c2.256,0,3.369,1.553,3.369,3.56
				V431.064z M150.357,430.039c-0.146-1.421-1.157-2.08-2.183-2.08c-1.201,0-2.021,0.923-2.227,2.08H150.357z"/>
			<path fill="#FFFFFF" d="M157.872,426.992v1.436c-0.308-0.234-0.688-0.381-1.069-0.381c-0.996,0-1.538,0.806-2.08,1.787v4.424
				h-1.201v-7.324h1.201v1.465c0.557-0.967,1.421-1.611,2.256-1.611C157.315,426.787,157.608,426.86,157.872,426.992z"/>
			<path fill="#FFFFFF" d="M165.489,433.013h5.405v1.245h-6.724v-9.814h1.318V433.013z"/>
			<path fill="#FFFFFF" d="M179.508,431.064h-5.625c0.176,1.23,1.143,2.241,2.549,2.241c1.055,0,1.714-0.483,2.197-0.835v1.216
				c-0.293,0.293-1.055,0.791-2.197,0.791c-2.227,0-3.823-1.758-3.823-3.838s1.465-3.853,3.53-3.853c2.256,0,3.369,1.553,3.369,3.56
				V431.064z M178.321,430.039c-0.146-1.421-1.157-2.08-2.183-2.08c-1.201,0-2.021,0.923-2.227,2.08H178.321z"/>
			<path fill="#FFFFFF" d="M184.503,434.258h-0.747l-3.296-7.324h1.436l2.212,5.391l2.402-5.391h1.436L184.503,434.258z"/>
			<path fill="#FFFFFF" d="M195.65,431.064h-5.625c0.176,1.23,1.143,2.241,2.549,2.241c1.055,0,1.714-0.483,2.197-0.835v1.216
				c-0.293,0.293-1.055,0.791-2.197,0.791c-2.227,0-3.823-1.758-3.823-3.838s1.465-3.853,3.53-3.853c2.256,0,3.369,1.553,3.369,3.56
				V431.064z M194.464,430.039c-0.146-1.421-1.157-2.08-2.183-2.08c-1.201,0-2.021,0.923-2.227,2.08H194.464z"/>
			<path fill="#FFFFFF" d="M198.829,434.258h-1.201v-10.547h1.201V434.258z"/>
			<path fill="#FFFFFF" d="M212.613,426.934l-5.391,10.84h-1.392l2.095-3.955l-3.237-6.885h1.436l2.563,5.391l2.49-5.391H212.613z"
				/>
			<path fill="#FFFFFF" d="M221.212,430.64c0,2.08-1.597,3.838-3.823,3.838s-3.823-1.758-3.823-3.838s1.597-3.853,3.823-3.853
				S221.212,428.56,221.212,430.64z M214.811,430.64c0,1.421,1.011,2.666,2.578,2.666s2.578-1.245,2.578-2.666
				s-1.011-2.681-2.578-2.681S214.811,429.219,214.811,430.64z"/>
			<path fill="#FFFFFF" d="M229.181,431.27c0,1.934-1.348,3.135-3.105,3.135s-3.105-1.201-3.105-3.135v-4.336h1.245v4.336
				c0,1.274,0.879,1.963,1.86,1.963s1.86-0.688,1.86-1.963v-4.336h1.245V431.27z"/>
			<path fill="#FFFFFF" d="M235.802,426.992v1.436c-0.308-0.234-0.688-0.381-1.069-0.381c-0.996,0-1.538,0.806-2.08,1.787v4.424
				h-1.201v-7.324h1.201v1.465c0.557-0.967,1.421-1.611,2.256-1.611C235.245,426.787,235.538,426.86,235.802,426.992z"/>
			<path fill="#FFFFFF" d="M246.085,426.992v1.436c-0.308-0.234-0.688-0.381-1.069-0.381c-0.996,0-1.538,0.806-2.08,1.787v4.424
				h-1.201v-7.324h1.201v1.465c0.557-0.967,1.421-1.611,2.256-1.611C245.528,426.787,245.821,426.86,246.085,426.992z"/>
			<path fill="#FFFFFF" d="M254.01,431.064h-5.625c0.176,1.23,1.143,2.241,2.549,2.241c1.055,0,1.714-0.483,2.197-0.835v1.216
				c-0.293,0.293-1.055,0.791-2.197,0.791c-2.227,0-3.823-1.758-3.823-3.838s1.465-3.853,3.53-3.853c2.256,0,3.369,1.553,3.369,3.56
				V431.064z M252.823,430.039c-0.146-1.421-1.157-2.08-2.183-2.08c-1.201,0-2.021,0.923-2.227,2.08H252.823z"/>
			<path fill="#FFFFFF" d="M257.643,426.128v0.806h2.139v1.128h-2.139v6.196h-1.201v-6.196h-1.157v-1.128h1.157v-0.938
				c0-1.714,1.172-2.505,2.271-2.505c0.498,0,0.923,0.146,1.216,0.396v1.055c-0.293-0.19-0.732-0.322-1.143-0.308
				C258.067,424.663,257.643,425.044,257.643,426.128z"/>
			<path fill="#FFFFFF" d="M267.765,431.064h-5.625c0.176,1.23,1.143,2.241,2.549,2.241c1.055,0,1.714-0.483,2.197-0.835v1.216
				c-0.293,0.293-1.055,0.791-2.197,0.791c-2.227,0-3.823-1.758-3.823-3.838s1.465-3.853,3.53-3.853c2.256,0,3.369,1.553,3.369,3.56
				V431.064z M266.578,430.039c-0.146-1.421-1.157-2.08-2.183-2.08c-1.201,0-2.021,0.923-2.227,2.08H266.578z"/>
			<path fill="#FFFFFF" d="M274.093,426.992v1.436c-0.308-0.234-0.688-0.381-1.069-0.381c-0.996,0-1.538,0.806-2.08,1.787v4.424
				h-1.201v-7.324h1.201v1.465c0.557-0.967,1.421-1.611,2.256-1.611C273.536,426.787,273.829,426.86,274.093,426.992z"/>
			<path fill="#FFFFFF" d="M279.981,426.992v1.436c-0.308-0.234-0.688-0.381-1.069-0.381c-0.996,0-1.538,0.806-2.08,1.787v4.424
				h-1.201v-7.324h1.201v1.465c0.557-0.967,1.421-1.611,2.256-1.611C279.425,426.787,279.718,426.86,279.981,426.992z"/>
			<path fill="#FFFFFF" d="M286.939,427.915v-0.981h1.201v7.324h-1.201v-1.244c-0.513,0.775-1.406,1.464-2.52,1.464
				c-1.89,0-3.413-1.538-3.413-3.765c0-2.417,1.523-3.926,3.53-3.926C285.372,426.787,286.31,427.212,286.939,427.915z
				 M282.252,430.713c0,1.421,0.938,2.593,2.358,2.593c1.333,0,2.344-1.157,2.329-2.725l-0.015-1.406
				c-0.615-0.762-1.274-1.216-2.168-1.216C283.189,427.959,282.252,429.292,282.252,430.713z"/>
			<path fill="#FFFFFF" d="M291.832,434.258h-1.201v-10.547h1.201V434.258z"/>
			<path fill="#FFFFFF" d="M298.512,427.344v1.289c-0.41-0.308-1.187-0.674-1.919-0.674c-0.923,0-1.377,0.527-1.377,0.996
				c0,0.366,0.22,0.791,0.894,1.025l1.23,0.439c0.952,0.337,1.421,0.981,1.421,1.816c0,1.245-1.128,2.241-2.695,2.241
				c-0.864,0-1.919-0.396-2.256-0.645v-1.289c0.41,0.308,1.436,0.762,2.168,0.762c0.923,0,1.494-0.454,1.494-1.069
				c0-0.469-0.366-0.703-1.055-0.952l-1.084-0.396c-1.143-0.425-1.406-1.099-1.406-1.934c0-1.245,1.011-2.168,2.578-2.168
				C297.369,426.787,298.175,427.095,298.512,427.344z"/>
			<path fill="#FFFFFF" d="M309.337,426.992v1.436c-0.308-0.234-0.688-0.381-1.069-0.381c-0.996,0-1.538,0.806-2.08,1.787v4.424
				h-1.201v-7.324h1.201v1.465c0.557-0.967,1.421-1.611,2.256-1.611C308.78,426.787,309.073,426.86,309.337,426.992z"/>
			<path fill="#FFFFFF" d="M317.262,431.064h-5.625c0.176,1.23,1.143,2.241,2.549,2.241c1.055,0,1.714-0.483,2.197-0.835v1.216
				c-0.293,0.293-1.055,0.791-2.197,0.791c-2.227,0-3.823-1.758-3.823-3.838s1.465-3.853,3.53-3.853c2.256,0,3.369,1.553,3.369,3.56
				V431.064z M316.075,430.039c-0.146-1.421-1.157-2.08-2.183-2.08c-1.201,0-2.021,0.923-2.227,2.08H316.075z"/>
			<path fill="#FFFFFF" d="M324.659,427.915v-0.981h1.201v7.324h-1.201v-1.244c-0.513,0.775-1.406,1.464-2.52,1.464
				c-1.89,0-3.413-1.538-3.413-3.765c0-2.417,1.523-3.926,3.53-3.926C323.092,426.787,324.029,427.212,324.659,427.915z
				 M319.972,430.713c0,1.421,0.938,2.593,2.358,2.593c1.333,0,2.344-1.157,2.329-2.725l-0.015-1.406
				c-0.615-0.762-1.274-1.216-2.168-1.216C320.909,427.959,319.972,429.292,319.972,430.713z"/>
			<path fill="#FFFFFF" d="M333.858,427.505v1.216c-0.557-0.41-1.216-0.762-2.197-0.762c-1.567,0-2.578,1.26-2.578,2.681
				s1.011,2.666,2.578,2.666c0.981,0,1.641-0.352,2.197-0.762v1.216c-0.293,0.293-1.128,0.718-2.197,0.718
				c-2.227,0-3.823-1.758-3.823-3.838s1.597-3.853,3.823-3.853C332.73,426.787,333.565,427.227,333.858,427.505z"/>
			<path fill="#FFFFFF" d="M342.135,429.79v4.468h-1.201l-0.015-4.351c0-1.26-0.542-1.948-1.699-1.948
				c-0.776,0-1.597,0.674-2.183,1.436v4.863h-1.201v-10.547h1.201v4.38c0.454-0.571,1.392-1.304,2.388-1.304
				C340.919,426.787,342.135,427.769,342.135,429.79z"/>
			<path fill="#FFFFFF" d="M346.119,432.939l-1.318,3.911l-0.908-0.234l1.025-4.087L346.119,432.939z"/>
			<path fill="#FFFFFF" d="M354.132,428.179c0.513-0.776,1.406-1.392,2.52-1.392c1.89,0,3.413,1.465,3.413,3.691
				c0,2.417-1.523,3.999-3.53,3.999c-0.835,0-1.772-0.498-2.402-1.201v0.981h-1.201v-10.547h1.201V428.179z M354.132,430.61
				l0.015,1.406c0.615,0.762,1.274,1.289,2.168,1.289c1.567,0,2.505-1.406,2.505-2.827s-0.938-2.52-2.358-2.52
				C355.128,427.959,354.117,429.043,354.132,430.61z"/>
			<path fill="#FFFFFF" d="M368.033,431.27c0,1.934-1.348,3.135-3.105,3.135s-3.105-1.201-3.105-3.135v-4.336h1.245v4.336
				c0,1.274,0.879,1.963,1.86,1.963s1.86-0.688,1.86-1.963v-4.336h1.245V431.27z"/>
			<path fill="#FFFFFF" d="M372.325,426.934h2.139v1.128h-2.139v4.292c0,0.615,0.308,0.981,0.952,0.981
				c0.586,0,0.952-0.176,1.245-0.352v0.981c-0.396,0.308-0.776,0.513-1.509,0.513c-1.245,0-1.89-0.82-1.89-2.065v-4.351h-1.406
				v-0.352c0.952-0.425,1.567-1.436,2.051-2.886h0.557V426.934z"/>
			<path fill="#FFFFFF" d="M387.94,426.934l-5.391,10.84h-1.392l2.095-3.955l-3.237-6.885h1.436l2.563,5.391l2.49-5.391H387.94z"/>
			<path fill="#FFFFFF" d="M396.539,430.64c0,2.08-1.597,3.838-3.823,3.838s-3.823-1.758-3.823-3.838s1.597-3.853,3.823-3.853
				S396.539,428.56,396.539,430.64z M390.138,430.64c0,1.421,1.011,2.666,2.578,2.666s2.578-1.245,2.578-2.666
				s-1.011-2.681-2.578-2.681S390.138,429.219,390.138,430.64z"/>
			<path fill="#FFFFFF" d="M404.508,431.27c0,1.934-1.348,3.135-3.105,3.135s-3.105-1.201-3.105-3.135v-4.336h1.245v4.336
				c0,1.274,0.879,1.963,1.86,1.963s1.86-0.688,1.86-1.963v-4.336h1.245V431.27z"/>
			<path fill="#FFFFFF" d="M416.681,427.505v1.216c-0.557-0.41-1.216-0.762-2.197-0.762c-1.567,0-2.578,1.26-2.578,2.681
				s1.011,2.666,2.578,2.666c0.981,0,1.641-0.352,2.197-0.762v1.216c-0.293,0.293-1.128,0.718-2.197,0.718
				c-2.227,0-3.823-1.758-3.823-3.838s1.597-3.853,3.823-3.853C415.553,426.787,416.388,427.227,416.681,427.505z"/>
			<path fill="#FFFFFF" d="M424.078,427.915v-0.981h1.201v7.324h-1.201v-1.244c-0.513,0.775-1.406,1.464-2.52,1.464
				c-1.89,0-3.413-1.538-3.413-3.765c0-2.417,1.523-3.926,3.53-3.926C422.511,426.787,423.448,427.212,424.078,427.915z
				 M419.391,430.713c0,1.421,0.938,2.593,2.358,2.593c1.333,0,2.344-1.157,2.329-2.725l-0.015-1.406
				c-0.615-0.762-1.274-1.216-2.168-1.216C420.328,427.959,419.391,429.292,419.391,430.713z"/>
			<path fill="#FFFFFF" d="M434.068,429.79v4.468h-1.201l-0.015-4.35c0-1.26-0.542-1.949-1.699-1.949
				c-0.776,0-1.597,0.674-2.183,1.436v4.863h-1.201v-7.324h1.201v1.157c0.454-0.571,1.392-1.304,2.388-1.304
				C432.853,426.787,434.068,427.769,434.068,429.79z"/>
			<path fill="#FFFFFF" d="M437.906,424.59l-1.611,3.765l-0.908-0.234l1.318-3.94L437.906,424.59z"/>
			<path fill="#FFFFFF" d="M441.466,426.934h2.139v1.128h-2.139v4.292c0,0.615,0.308,0.981,0.952,0.981
				c0.586,0,0.952-0.176,1.245-0.352v0.981c-0.396,0.308-0.776,0.513-1.509,0.513c-1.245,0-1.89-0.82-1.89-2.065v-4.351h-1.406
				v-0.352c0.952-0.425,1.567-1.436,2.051-2.886h0.557V426.934z"/>
			<path fill="#FFFFFF" d="M148.116,449.064h-5.625c0.176,1.23,1.143,2.241,2.549,2.241c1.055,0,1.714-0.483,2.197-0.835v1.216
				c-0.293,0.293-1.055,0.791-2.197,0.791c-2.227,0-3.823-1.758-3.823-3.838s1.465-3.853,3.53-3.853c2.256,0,3.369,1.553,3.369,3.56
				V449.064z M146.93,448.039c-0.146-1.421-1.157-2.08-2.183-2.08c-1.201,0-2.021,0.923-2.227,2.08H146.93z"/>
			<path fill="#FFFFFF" d="M155.514,445.915v-0.981h1.201v7.324h-1.201v-1.245c-0.513,0.776-1.406,1.465-2.52,1.465
				c-1.89,0-3.413-1.538-3.413-3.765c0-2.417,1.523-3.926,3.53-3.926C153.946,444.787,154.884,445.212,155.514,445.915z
				 M150.826,448.713c0,1.421,0.938,2.593,2.358,2.593c1.333,0,2.344-1.157,2.329-2.725l-0.015-1.406
				c-0.615-0.762-1.274-1.216-2.168-1.216C151.764,445.959,150.826,447.292,150.826,448.713z"/>
			<path fill="#FFFFFF" d="M163.556,444.992v1.436c-0.308-0.234-0.688-0.381-1.069-0.381c-0.996,0-1.538,0.806-2.08,1.787v4.424
				h-1.201v-7.324h1.201v1.465c0.557-0.967,1.421-1.611,2.256-1.611C162.999,444.787,163.292,444.86,163.556,444.992z"/>
			<path fill="#FFFFFF" d="M171.393,447.79v4.468h-1.201l-0.015-4.351c0-1.26-0.542-1.948-1.699-1.948
				c-0.776,0-1.597,0.674-2.183,1.436v4.863h-1.201v-7.324h1.201v1.157c0.454-0.571,1.392-1.304,2.388-1.304
				C170.177,444.787,171.393,445.769,171.393,447.79z"/>
			<path fill="#FFFFFF" d="M179.259,446.179c0.513-0.776,1.406-1.392,2.52-1.392c1.89,0,3.413,1.465,3.413,3.691
				c0,2.417-1.523,3.999-3.53,3.999c-0.835,0-1.772-0.498-2.402-1.201v0.981h-1.201v-10.547h1.201V446.179z M179.259,448.61
				l0.015,1.406c0.615,0.762,1.274,1.289,2.168,1.289c1.567,0,2.505-1.406,2.505-2.827s-0.938-2.52-2.358-2.52
				C180.255,445.959,179.244,447.043,179.259,448.61z"/>
			<path fill="#FFFFFF" d="M193.556,449.064h-5.625c0.176,1.23,1.143,2.241,2.549,2.241c1.055,0,1.714-0.483,2.197-0.835v1.216
				c-0.293,0.293-1.055,0.791-2.197,0.791c-2.227,0-3.823-1.758-3.823-3.838s1.465-3.853,3.53-3.853c2.256,0,3.369,1.553,3.369,3.56
				V449.064z M192.369,448.039c-0.146-1.421-1.157-2.08-2.183-2.08c-1.201,0-2.021,0.923-2.227,2.08H192.369z"/>
			<path fill="#FFFFFF" d="M202.433,444.934l-5.391,10.84h-1.392l2.095-3.955l-3.237-6.885h1.436l2.563,5.391l2.49-5.391H202.433z"
				/>
			<path fill="#FFFFFF" d="M211.031,448.64c0,2.08-1.597,3.838-3.823,3.838s-3.823-1.758-3.823-3.838s1.597-3.853,3.823-3.853
				S211.031,446.56,211.031,448.64z M204.63,448.64c0,1.421,1.011,2.666,2.578,2.666s2.578-1.245,2.578-2.666
				s-1.011-2.681-2.578-2.681S204.63,447.219,204.63,448.64z"/>
			<path fill="#FFFFFF" d="M219.308,447.79v4.468h-1.201l-0.015-4.351c0-1.26-0.542-1.948-1.699-1.948
				c-0.776,0-1.597,0.674-2.183,1.436v4.863h-1.201v-7.324h1.201v1.157c0.454-0.571,1.392-1.304,2.388-1.304
				C218.092,444.787,219.308,445.769,219.308,447.79z"/>
			<path fill="#FFFFFF" d="M228.199,452.258h-1.201v-1.245c-0.513,0.776-1.406,1.465-2.52,1.465c-1.89,0-3.413-1.538-3.413-3.765
				c0-2.417,1.523-3.926,3.53-3.926c0.835,0,1.772,0.425,2.402,1.128v-4.204h1.201V452.258z M222.311,448.713
				c0,1.421,0.938,2.593,2.358,2.593c1.333,0,2.344-1.157,2.329-2.725l-0.015-1.406c-0.615-0.762-1.274-1.187-2.168-1.187
				C223.248,445.988,222.311,447.292,222.311,448.713z"/>
			<path fill="#FFFFFF" d="M241.983,444.934l-5.391,10.84h-1.392l2.095-3.955l-3.237-6.885h1.436l2.563,5.391l2.49-5.391H241.983z"
				/>
			<path fill="#FFFFFF" d="M250.582,448.64c0,2.08-1.597,3.838-3.823,3.838s-3.823-1.758-3.823-3.838s1.597-3.853,3.823-3.853
				S250.582,446.56,250.582,448.64z M244.181,448.64c0,1.421,1.011,2.666,2.578,2.666s2.578-1.245,2.578-2.666
				s-1.011-2.681-2.578-2.681S244.181,447.219,244.181,448.64z"/>
			<path fill="#FFFFFF" d="M258.551,449.27c0,1.934-1.348,3.135-3.105,3.135s-3.105-1.201-3.105-3.135v-4.336h1.245v4.336
				c0,1.274,0.879,1.963,1.86,1.963s1.86-0.688,1.86-1.963v-4.336h1.245V449.27z"/>
			<path fill="#FFFFFF" d="M265.172,444.992v1.436c-0.308-0.234-0.688-0.381-1.069-0.381c-0.996,0-1.538,0.806-2.08,1.787v4.424
				h-1.201v-7.324h1.201v1.465c0.557-0.967,1.421-1.611,2.256-1.611C264.615,444.787,264.908,444.86,265.172,444.992z"/>
			<path fill="#FFFFFF" d="M278.238,448.64c0,2.08-1.597,3.838-3.823,3.838s-3.823-1.758-3.823-3.838s1.597-3.853,3.823-3.853
				S278.238,446.56,278.238,448.64z M271.837,448.64c0,1.421,1.011,2.666,2.578,2.666s2.578-1.245,2.578-2.666
				s-1.011-2.681-2.578-2.681S271.837,447.219,271.837,448.64z"/>
			<path fill="#FFFFFF" d="M287.262,452.258h-0.747l-2.007-5.171l-2.007,5.171h-0.747l-2.563-7.324h1.436l1.626,5.142l1.919-5.142
				h0.674l1.919,5.142l1.626-5.142h1.436L287.262,452.258z"/>
			<path fill="#FFFFFF" d="M297.589,447.79v4.468h-1.201l-0.015-4.351c0-1.26-0.542-1.948-1.699-1.948
				c-0.776,0-1.597,0.674-2.183,1.436v4.863h-1.201v-7.324h1.201v1.157c0.454-0.571,1.392-1.304,2.388-1.304
				C296.373,444.787,297.589,445.769,297.589,447.79z"/>
			<path fill="#FFFFFF" d="M305.938,451.013h5.405v1.245h-6.724v-9.814h1.318V451.013z"/>
			<path fill="#FFFFFF" d="M319.957,449.064h-5.625c0.176,1.23,1.143,2.241,2.549,2.241c1.055,0,1.714-0.483,2.197-0.835v1.216
				c-0.293,0.293-1.055,0.791-2.197,0.791c-2.227,0-3.823-1.758-3.823-3.838s1.465-3.853,3.53-3.853c2.256,0,3.369,1.553,3.369,3.56
				V449.064z M318.771,448.039c-0.146-1.421-1.157-2.08-2.183-2.08c-1.201,0-2.021,0.923-2.227,2.08H318.771z"/>
			<path fill="#FFFFFF" d="M324.952,452.258h-0.747l-3.296-7.324h1.436l2.212,5.391l2.402-5.391h1.436L324.952,452.258z"/>
			<path fill="#FFFFFF" d="M336.1,449.064h-5.625c0.176,1.23,1.143,2.241,2.549,2.241c1.055,0,1.714-0.483,2.197-0.835v1.216
				c-0.293,0.293-1.055,0.791-2.197,0.791c-2.227,0-3.823-1.758-3.823-3.838s1.465-3.853,3.53-3.853c2.256,0,3.369,1.553,3.369,3.56
				V449.064z M334.913,448.039c-0.146-1.421-1.157-2.08-2.183-2.08c-1.201,0-2.021,0.923-2.227,2.08H334.913z"/>
			<path fill="#FFFFFF" d="M339.278,452.258h-1.201v-10.547h1.201V452.258z"/>
		</g>
	</g>
	<g>
		<rect x="182.805" y="497.937" fill="#FF9F03" width="115.399" height="45.63"/>
		<g>
			<g>
				<path fill="#FFFFFF" d="M221.995,529.445h-1.304l-10.127-10.459v10.332h-3.555v-17.262h1.305l10.127,10.611v-10.482h3.554
					V529.445z"/>
				<path fill="#FFFFFF" d="M230.669,515.254v3.887h7.57v2.889h-7.57v4.145h8.567v3.145h-12.122v-17.133h12.122v3.068H230.669z"/>
				<path fill="#FFFFFF" d="M252.437,520.854l6.111,8.465h-4.476l-4.143-5.984l-4.04,5.984h-4.348l5.958-8.592l-5.958-8.541h4.475
					l4.016,6.213l4.04-6.213h4.476L252.437,520.854z"/>
				<path fill="#FFFFFF" d="M273.998,515.381h-5.473v13.859h-3.529v-13.859h-5.473v-3.195h14.475V515.381z"/>
			</g>
		</g>
	</g>
	<g>
		<polygon fill="#8E8E8E" points="92.44,237.322 91.245,382.894 67.128,382.894 65.935,237.322 		"/>
		<polygon opacity="0.15" points="88.552,242.02 87.358,378.194 71.017,378.194 69.823,242.02 		"/>
		<polygon opacity="0.15" fill="#FFFFFF" points="87.358,378.194 71.017,378.194 71.601,379.22 		"/>
		<polygon opacity="0.15" fill="#FFFFFF" points="65.933,238.642 92.44,237.322 65.935,237.322 		"/>
	</g>
	<polygon fill="#8E8E8E" points="228.94,237.322 227.745,382.894 203.628,382.894 202.435,237.322 	"/>
	<polygon opacity="0.15" points="225.052,242.02 223.858,378.194 207.517,378.194 206.323,242.02 	"/>
	<polygon opacity="0.15" fill="#FFFFFF" points="223.858,378.194 207.517,378.194 208.101,379.22 	"/>
	<polygon opacity="0.15" fill="#FFFFFF" points="202.433,238.642 228.94,237.322 202.435,237.322 	"/>
	<polygon fill="#C2E812" points="207.517,378.194 206.993,350.961 224.382,350.961 223.858,378.194 	"/>
	<g>
		<polygon fill="#8E8E8E" points="362.286,237.322 361.093,382.894 336.974,382.894 335.78,237.322 		"/>
		<polygon opacity="0.15" points="358.397,242.02 357.204,378.194 340.864,378.194 339.669,242.02 		"/>
		<polygon opacity="0.15" fill="#FFFFFF" points="357.204,378.194 340.864,378.194 341.446,379.22 		"/>
		<polygon opacity="0.15" fill="#FFFFFF" points="335.778,238.642 362.286,237.322 335.78,237.322 		"/>
	</g>
	<polygon fill="#C2E812" points="340.864,378.194 340.157,297.597 357.911,297.597 357.204,378.194 	"/>
	<g>
		<path fill="#EDAF94" d="M118.038,215.923l0.451-7.016l9.518-7.597l1.563,14.05C129.569,215.361,124.788,240.173,118.038,215.923z"
			/>
		<path fill="#3A3A3A" d="M114.761,375.048v2.398c0,0-6.475,2.901-6.391,5.424c0,0,7.779,0.505,9.041-3.279v-4.543H114.761z"/>
		<rect x="114.761" y="375.048" fill="#3A3A3A" width="2.65" height="2.398"/>
		<path fill="#3A3A3A" d="M134.628,375.048v2.398c0,0,6.475,2.901,6.391,5.424c0,0-7.779,0.505-9.041-3.279v-4.543H134.628z"/>
		<rect x="131.978" y="375.048" fill="#3A3A3A" width="2.65" height="2.398"/>
		<path fill="#E2E2BF" d="M108.37,276.997l3.867,98.809h7.318l3.531-79.728l5.551,79.728h8.578V275.568
			C137.216,275.568,121.911,262.532,108.37,276.997z"/>
		<path fill="#DB504A" d="M139.726,281.236l-1.029-30.125l3.852-32.415l-12.979-3.335c0.188,1.438-2.094,4.25-6.031,4.25
			s-5.5-3.766-5.5-3.766l-15.123,2.558l4.486,32.458l-0.566,30.432C106.835,281.293,120.726,287.069,139.726,281.236z"/>
		<path fill="#EDAF94" d="M103.896,174.901c0,0-5.119-0.877-5.412,6.236c0,0-0.416,6.227,5.885,5.548L103.896,174.901z"/>
		<path fill="#EDAF94" d="M141.603,175.548c0,0,4.682-1.084,5.355,6.004c0,0,0.746,6.195-5.584,5.854L141.603,175.548z"/>
		<polygon fill="#FFBD9C" points="105.979,158.867 105.249,189.361 110.673,202.236 117.794,210.621 129.581,210.583 
			136.915,202.236 141.968,189.986 141.968,161.111 128.94,152.444 		"/>
		<g>
			<polygon fill="#847767" points="107.136,175.294 116.79,171.175 118.22,173.585 108.987,178.559 			"/>
			<polygon fill="#847767" points="138.171,174.242 127.196,171.711 126.116,174.297 136.2,178.023 			"/>
		</g>
		<g>
			
				<ellipse transform="matrix(0.9925 0.1219 -0.1219 0.9925 23.2209 -12.7156)" fill="#25221D" cx="115.55" cy="183.455" rx="1.841" ry="2.415"/>
			
				<ellipse transform="matrix(-0.9925 -0.1219 0.1219 -0.9925 237.8265 381.4531)" fill="#25221D" cx="130.58" cy="183.453" rx="1.841" ry="2.417"/>
		</g>
		<polygon opacity="0.3" fill="#25221D" points="119.884,190.571 127.333,190.853 123.495,193.51 		"/>
		<path fill="#847767" d="M99.487,156.958c0,0,2.719-1.111,2.373-0.064c-1.037,3.125-1.363,7.217-1.363,7.217l2.188,11l0.688,14.375
			l3.209,0.625l-0.715-18.458l2.404-4.269l-1.391-6.413c0,0,6.256-3.968,14.955-4.359l-0.895,1.452c0,0,10.494-2.979,17.094,3.243
			l-1.199,6.308l2.359,4.202l0.721,17.128l2.832,0.083l0.334-5.166l0.578-9.055l2.16-6.469l-0.553-10.344l-1.953,1.497
			c0,0,0.762-4.729-2.658-8.24c0.211,0.262,0.719,1.22-0.254,3.708c0,0-4.865-8.592-22.361-6.913
			C100.544,149.723,99.487,156.958,99.487,156.958z"/>
		<polygon opacity="0.3" fill="#25221D" points="118.605,200.567 128.611,200.111 128.611,200.986 118.877,201.493 		"/>
		<path fill="#FFBD9C" d="M96.501,278.86L96.501,278.86l2.813-25.083l6.412-25.333c0,0-0.154-6.875-2.5-7.333
			s-5.822,4.561-6.156,6.03s-5.738,25.462-5.738,25.462l-0.596,25.174c0.5,3.188-3.322,8.333-3.322,8.333
			c-0.938,1.917-1.447,5.084-1.447,5.084c1.193,0.319,3.426,7.729,3.426,7.729c3.426-1.036,9.084,0,9.084,0
			c0.158-4.303-6.934-3.666-6.934-3.666L90.347,290l2.553-0.973c1.25,6.917,5.258,4.798,5.258,4.798
			c-1.754-2.55-2.227-7.798-2.227-7.798l0.529-6.443C96.485,279.323,96.497,279.086,96.501,278.86z"/>
		<polygon opacity="0.15" fill="#25221D" points="93.44,243.236 95.845,240.778 101.896,243.574 100.925,247.413 92.933,245.493 		
			"/>
		<path fill="#F3F5CD" d="M134.476,287.548l14.621,6.579c0,0,3.602,1.008,1.492,1.434c-2.088,0.421-13.738,2.737-13.738,2.737
			S134.476,295.298,134.476,287.548z"/>
		<path fill="#F3F5CD" d="M112.052,287.548l-13.746,6.277c0,0-3.186,0.71-1.588,2.149s12.959,2.324,12.959,2.324
			S112.052,295.298,112.052,287.548z"/>
		<path fill="#DB504A" d="M96.069,227.141l-4.844,15.47l12.35,3.488l3.826-22.155l-4.486-5.542
			C102.915,218.403,99.536,220.13,96.069,227.141z"/>
		<path fill="#FFBD9C" d="M149.503,278.86L149.503,278.86l-2.359-26.083l-6.867-24.333c0,0,0.154-6.875,2.5-7.333
			s4.615,3.977,4.949,5.446s6.906,24.388,6.906,24.388l0.637,26.833c-0.5,3.188,3.32,8.333,3.32,8.333
			c0.938,1.917,1.449,5.084,1.449,5.084c-1.195,0.319-3.426,7.729-3.426,7.729c-3.428-1.036-9.084,0-9.084,0
			c-0.16-4.303,6.932-3.666,6.932-3.666l1.195-5.259l-2.551-0.973c-1.25,6.917-5.258,4.798-5.258,4.798
			c1.754-2.55,2.225-7.798,2.225-7.798l-0.529-6.443C149.517,279.323,149.507,279.086,149.503,278.86z"/>
		<path opacity="0.15" fill="#25221D" d="M153.228,246.038l-7.443,1.921l-2.035-7.208c0.998-1.622,2.311-2.64,2.311-2.64
			l6.377,5.161L153.228,246.038z"/>
		<path fill="#DB504A" d="M148.157,224.611l6.619,18l-12.35,3.488l-6.586-21.488l6.707-5.915
			C142.548,218.696,145.101,219.527,148.157,224.611z"/>
		<polygon fill="#847767" points="122.839,194.861 122.839,197.898 115.161,200.111 116.478,196.736 		"/>
		<polygon fill="#847767" points="124.378,194.861 124.378,197.898 132.054,200.111 130.737,196.736 		"/>
	</g>
	<g opacity="0.5">
		<rect x="216.001" y="155.645" fill="#FFFFFF" width="1.938" height="10.142"/>
		<rect x="211.899" y="159.747" fill="#FFFFFF" width="10.141" height="1.937"/>
	</g>
	<g>
		<path fill="#C2E812" d="M321.593,200.139h-2.732v-2.099h2.732v-2.702h2.145v2.702h2.732v2.099h-2.732v2.717h-2.145V200.139z"/>
		<path fill="#C2E812" d="M331.724,204.366c-0.654-0.08-1.287-0.244-1.896-0.491c-0.607-0.246-1.164-0.561-1.668-0.943l1.178-1.721
			c0.414,0.312,0.813,0.571,1.201,0.778c0.387,0.206,0.807,0.354,1.26,0.445v-2.4c-0.543-0.151-1.02-0.317-1.426-0.499
			c-0.408-0.181-0.746-0.397-1.012-0.649c-0.268-0.251-0.469-0.546-0.604-0.883c-0.137-0.337-0.205-0.727-0.205-1.17v-0.03
			c0-0.423,0.076-0.805,0.227-1.147c0.152-0.342,0.365-0.639,0.643-0.891c0.275-0.251,0.611-0.456,1.004-0.611
			c0.393-0.156,0.824-0.259,1.299-0.31v-0.876h1.568v0.906c0.545,0.081,1.045,0.214,1.504,0.4c0.457,0.187,0.893,0.425,1.305,0.717
			l-1.012,1.766c-0.301-0.201-0.609-0.38-0.92-0.536c-0.313-0.156-0.629-0.274-0.951-0.354v2.28c1.146,0.312,1.98,0.72,2.498,1.223
			c0.518,0.503,0.777,1.178,0.777,2.023v0.03c0,0.423-0.078,0.805-0.234,1.147s-0.371,0.639-0.648,0.891
			c-0.277,0.252-0.611,0.458-1.004,0.619s-0.83,0.267-1.314,0.317v1.495h-1.568V204.366z M331.798,195.731
			c-0.361,0.05-0.627,0.158-0.793,0.324s-0.248,0.37-0.248,0.612v0.03c0,0.232,0.07,0.431,0.211,0.597s0.418,0.324,0.83,0.476
			V195.731z M333.218,202.509c0.715-0.11,1.072-0.433,1.072-0.966v-0.03c0-0.262-0.076-0.476-0.227-0.642
			c-0.152-0.167-0.434-0.325-0.846-0.476V202.509z"/>
		<path fill="#C2E812" d="M339.937,196.124l-1.842,0.453l-0.484-1.902l3.035-0.906h1.586v10.644h-2.295V196.124z"/>
		<path fill="#C2E812" d="M348.224,204.593c-0.855,0-1.6-0.14-2.234-0.419c-0.633-0.28-1.207-0.665-1.721-1.154l1.404-1.672
			c0.402,0.363,0.805,0.645,1.207,0.846s0.842,0.302,1.314,0.302c0.543,0,0.973-0.126,1.291-0.379
			c0.316-0.252,0.475-0.617,0.475-1.092v-0.031c0-0.455-0.174-0.809-0.52-1.062c-0.348-0.253-0.799-0.379-1.352-0.379
			c-0.332,0-0.646,0.038-0.943,0.113s-0.572,0.168-0.824,0.279l-1.344-0.891l0.303-5.208h6.504v2.038h-4.512l-0.119,1.84
			c0.211-0.05,0.422-0.092,0.633-0.127c0.211-0.035,0.463-0.052,0.756-0.052c0.512,0,0.994,0.065,1.443,0.196
			c0.449,0.131,0.844,0.332,1.184,0.603c0.34,0.271,0.605,0.62,0.797,1.047c0.193,0.427,0.289,0.937,0.289,1.529v0.03
			c0,0.562-0.096,1.067-0.289,1.514c-0.191,0.447-0.463,0.829-0.813,1.145c-0.35,0.317-0.773,0.56-1.273,0.731
			C349.38,204.507,348.829,204.593,348.224,204.593z"/>
		<path fill="#C2E812" d="M358.626,204.593c-0.705,0-1.346-0.139-1.926-0.415c-0.578-0.277-1.07-0.659-1.479-1.147
			s-0.723-1.064-0.943-1.729c-0.223-0.665-0.332-1.379-0.332-2.144v-0.03c0-0.765,0.113-1.479,0.34-2.144
			c0.227-0.665,0.545-1.243,0.957-1.736c0.414-0.493,0.908-0.88,1.488-1.163c0.578-0.281,1.221-0.422,1.924-0.422
			c0.695,0,1.332,0.138,1.91,0.415s1.072,0.659,1.48,1.147c0.406,0.488,0.725,1.064,0.951,1.729s0.34,1.379,0.34,2.144v0.03
			c0,0.765-0.113,1.479-0.34,2.144c-0.227,0.664-0.547,1.243-0.959,1.736c-0.414,0.493-0.908,0.88-1.488,1.162
			C359.972,204.452,359.331,204.593,358.626,204.593z M358.655,202.494c0.354,0,0.67-0.083,0.951-0.249
			c0.283-0.166,0.523-0.397,0.725-0.694s0.355-0.649,0.461-1.057c0.105-0.408,0.158-0.853,0.158-1.336v-0.03
			c0-0.483-0.055-0.928-0.166-1.336s-0.27-0.762-0.475-1.064c-0.207-0.302-0.453-0.538-0.74-0.709
			c-0.287-0.171-0.602-0.257-0.943-0.257c-0.354,0-0.67,0.083-0.951,0.25s-0.521,0.397-0.717,0.694
			c-0.197,0.297-0.35,0.649-0.461,1.057s-0.166,0.853-0.166,1.336v0.03c0,0.483,0.055,0.931,0.166,1.344
			c0.111,0.413,0.266,0.768,0.469,1.064c0.201,0.297,0.445,0.531,0.73,0.702C357.983,202.409,358.304,202.494,358.655,202.494z"/>
	</g>
	<g opacity="0.5">
		<rect x="431.325" y="203.501" fill="#FFFFFF" width="1.936" height="10.142"/>
		<rect x="427.222" y="207.604" fill="#FFFFFF" width="10.143" height="1.937"/>
	</g>
	<g opacity="0.3">
		<rect x="186.139" y="176.282" fill="#FFFFFF" width="0.869" height="4.553"/>
		<rect x="184.297" y="178.124" fill="#FFFFFF" width="4.553" height="0.87"/>
	</g>
	<g opacity="0.3">
		<rect x="343.507" y="168.822" fill="#FFFFFF" width="1.592" height="8.336"/>
		<rect x="340.134" y="172.194" fill="#FFFFFF" width="8.338" height="1.592"/>
	</g>
	<g>
		<path fill="#C2E812" d="M189.306,204.692h-2.732v-2.099h2.732v-2.702h2.145v2.702h2.732v2.099h-2.732v2.717h-2.145V204.692z"/>
		<path fill="#C2E812" d="M199.437,208.919c-0.654-0.08-1.287-0.244-1.896-0.491c-0.607-0.246-1.164-0.561-1.668-0.943l1.178-1.721
			c0.414,0.312,0.813,0.571,1.201,0.778c0.387,0.206,0.807,0.354,1.26,0.445v-2.4c-0.543-0.151-1.02-0.317-1.426-0.499
			c-0.408-0.181-0.746-0.397-1.012-0.649c-0.268-0.251-0.469-0.546-0.604-0.883c-0.137-0.337-0.205-0.727-0.205-1.17v-0.03
			c0-0.423,0.076-0.805,0.227-1.147c0.152-0.342,0.365-0.639,0.643-0.891c0.275-0.251,0.611-0.456,1.004-0.611
			c0.393-0.156,0.824-0.259,1.299-0.31v-0.876h1.568v0.906c0.545,0.081,1.045,0.214,1.504,0.4c0.457,0.187,0.893,0.425,1.305,0.717
			l-1.012,1.766c-0.301-0.201-0.609-0.38-0.92-0.536c-0.313-0.156-0.629-0.274-0.951-0.354v2.28c1.146,0.312,1.98,0.72,2.498,1.223
			c0.518,0.503,0.777,1.178,0.777,2.023v0.03c0,0.423-0.078,0.805-0.234,1.147s-0.371,0.639-0.648,0.891
			c-0.277,0.252-0.611,0.458-1.004,0.619s-0.83,0.267-1.314,0.317v1.495h-1.568V208.919z M199.511,200.284
			c-0.361,0.05-0.627,0.158-0.793,0.324s-0.248,0.37-0.248,0.612v0.03c0,0.232,0.07,0.431,0.211,0.597s0.418,0.324,0.83,0.476
			V200.284z M200.931,207.062c0.715-0.11,1.072-0.433,1.072-0.966v-0.03c0-0.262-0.076-0.476-0.227-0.642
			c-0.152-0.167-0.434-0.325-0.846-0.476V207.062z"/>
		<path fill="#C2E812" d="M219.831,209.146c-0.703,0-1.346-0.139-1.924-0.415c-0.58-0.277-1.072-0.659-1.48-1.147
			c-0.406-0.488-0.723-1.064-0.943-1.729c-0.221-0.665-0.332-1.379-0.332-2.144v-0.03c0-0.765,0.113-1.479,0.34-2.144
			c0.227-0.665,0.547-1.243,0.959-1.736c0.412-0.493,0.908-0.88,1.486-1.163c0.58-0.281,1.221-0.422,1.926-0.422
			c0.693,0,1.33,0.138,1.91,0.415c0.578,0.277,1.07,0.659,1.479,1.147s0.725,1.064,0.951,1.729s0.34,1.379,0.34,2.144v0.03
			c0,0.765-0.113,1.479-0.34,2.144c-0.227,0.664-0.545,1.243-0.959,1.736c-0.412,0.493-0.908,0.88-1.486,1.162
			S220.536,209.146,219.831,209.146z M219.862,207.047c0.352,0,0.668-0.083,0.951-0.249c0.281-0.166,0.523-0.397,0.725-0.694
			s0.354-0.649,0.461-1.057c0.105-0.408,0.158-0.853,0.158-1.336v-0.03c0-0.483-0.057-0.928-0.166-1.336
			c-0.111-0.408-0.27-0.762-0.477-1.064c-0.205-0.302-0.453-0.538-0.74-0.709c-0.285-0.171-0.602-0.257-0.943-0.257
			c-0.352,0-0.668,0.083-0.951,0.25c-0.281,0.166-0.52,0.397-0.717,0.694c-0.195,0.297-0.35,0.649-0.461,1.057
			c-0.109,0.408-0.166,0.853-0.166,1.336v0.03c0,0.483,0.057,0.931,0.166,1.344c0.111,0.413,0.268,0.768,0.469,1.064
			s0.445,0.531,0.732,0.702C219.19,206.961,219.509,207.047,219.862,207.047z"/>
		<path fill="#C2E812" d="M209.468,209.146c-0.855,0-1.602-0.14-2.234-0.419c-0.635-0.28-1.209-0.665-1.721-1.154l1.402-1.672
			c0.404,0.363,0.807,0.645,1.209,0.846s0.84,0.302,1.313,0.302c0.545,0,0.975-0.126,1.291-0.379
			c0.318-0.252,0.477-0.617,0.477-1.092v-0.031c0-0.455-0.174-0.809-0.521-1.062s-0.797-0.379-1.352-0.379
			c-0.332,0-0.646,0.038-0.943,0.113s-0.57,0.168-0.822,0.279l-1.344-0.891l0.303-5.208h6.502v2.038h-4.51l-0.121,1.84
			c0.211-0.05,0.422-0.092,0.635-0.127c0.211-0.035,0.463-0.052,0.754-0.052c0.514,0,0.994,0.065,1.443,0.196
			c0.449,0.131,0.844,0.332,1.184,0.603c0.34,0.271,0.605,0.62,0.799,1.047c0.191,0.427,0.289,0.937,0.289,1.529v0.03
			c0,0.562-0.098,1.067-0.289,1.514c-0.193,0.447-0.465,0.829-0.813,1.145c-0.35,0.317-0.775,0.56-1.275,0.731
			C210.624,209.06,210.071,209.146,209.468,209.146z"/>
	</g>
	<g>
		<polygon fill="#FFFFFF" points="329.528,268.007 319.918,266.757 319.918,269.257 		"/>
		<polygon fill="#FFFFFF" points="329.528,242.02 319.918,240.77 319.918,243.27 		"/>
		<polygon fill="#FFFFFF" points="329.528,323.726 319.918,322.476 319.918,324.976 		"/>
		<polygon fill="#FFFFFF" points="329.528,323.726 319.918,322.476 319.918,324.976 		"/>
		<polygon fill="#FFFFFF" points="329.528,350.961 319.918,349.711 319.918,352.211 		"/>
		<polygon fill="#FFFFFF" points="329.528,296.347 319.918,295.097 319.918,297.597 		"/>
		<g>
			<g opacity="0.7">
				<path fill="#FFFFFF" d="M308.176,348.296l-1.195,0.407l-0.124-0.361l1.416-0.523h0.354v6.241h-0.451V348.296z"/>
				<path fill="#FFFFFF" d="M310.131,350.979v-0.018c0-1.707,1-3.204,2.576-3.204c1.575,0,2.558,1.479,2.558,3.188v0.017
					c0,1.707-1,3.204-2.576,3.204S310.131,352.688,310.131,350.979z M314.786,350.979v-0.018c0-1.442-0.814-2.788-2.098-2.788
					c-1.284,0-2.08,1.327-2.08,2.771v0.017c0,1.434,0.814,2.788,2.098,2.788S314.786,352.413,314.786,350.979z"/>
			</g>
			<g opacity="0.7">
				<path fill="#FFFFFF" d="M305.809,326.479l2.31-2.09c1.017-0.93,1.371-1.459,1.371-2.115c0-0.805-0.654-1.327-1.398-1.327
					c-0.788,0-1.301,0.407-1.814,1.151l-0.345-0.23c0.54-0.823,1.115-1.328,2.203-1.328c1.053,0,1.841,0.734,1.841,1.699v0.018
					c0,0.85-0.46,1.416-1.549,2.408l-1.894,1.717h3.504v0.441h-4.23V326.479z"/>
				<path fill="#FFFFFF" d="M311.179,323.744v-0.019c0-1.707,1-3.203,2.575-3.203s2.558,1.479,2.558,3.187v0.017
					c0,1.709-1,3.205-2.576,3.205C312.161,326.931,311.179,325.452,311.179,323.744z M315.834,323.744v-0.019
					c0-1.441-0.815-2.787-2.098-2.787s-2.08,1.328-2.08,2.771v0.017c0,1.434,0.814,2.789,2.098,2.789
					C315.038,326.515,315.834,325.179,315.834,323.744z"/>
			</g>
			<g opacity="0.7">
				<path fill="#FFFFFF" d="M305.747,298.437l0.354-0.292c0.495,0.628,1.115,0.992,1.929,0.992c0.832,0,1.531-0.558,1.531-1.372
					c0-0.009,0-0.018,0-0.018c0-0.867-0.814-1.345-1.929-1.345h-0.336l-0.115-0.256l2.133-2.461h-3.248v-0.434h3.876v0.327
					l-2.097,2.399c1.177,0.071,2.195,0.619,2.195,1.752c0,0,0,0.01,0,0.018c0,1.08-0.947,1.806-2.018,1.806
					C307.013,299.551,306.251,299.091,305.747,298.437z"/>
				<path fill="#FFFFFF" d="M311.241,296.365v-0.018c0-1.708,1-3.204,2.576-3.204c1.575,0,2.557,1.479,2.557,3.187v0.017
					c0,1.708-1,3.204-2.575,3.204S311.241,298.073,311.241,296.365z M315.896,296.365v-0.018c0-1.442-0.814-2.788-2.098-2.788
					s-2.08,1.328-2.08,2.771v0.017c0,1.434,0.814,2.789,2.098,2.789C315.1,299.136,315.896,297.799,315.896,296.365z"/>
			</g>
			<g opacity="0.7">
				<path fill="#FFFFFF" d="M308.995,269.592h-3.354l-0.159-0.345l3.54-4.38h0.416v4.327h1.009v0.398h-1.009v1.513h-0.442V269.592z
					 M308.995,269.193v-3.664l-2.956,3.664H308.995z"/>
				<path fill="#FFFFFF" d="M311.506,268.025v-0.018c0-1.708,1-3.204,2.576-3.204c1.575,0,2.557,1.479,2.557,3.187v0.017
					c0,1.708-1,3.204-2.575,3.204C312.488,271.211,311.506,269.733,311.506,268.025z M316.162,268.025v-0.018
					c0-1.442-0.814-2.788-2.098-2.788s-2.08,1.328-2.08,2.771v0.017c0,1.434,0.814,2.789,2.098,2.789
					C315.365,270.796,316.162,269.459,316.162,268.025z"/>
			</g>
			<g opacity="0.7">
				<path fill="#FFFFFF" d="M305.783,244.224l0.328-0.327c0.558,0.557,1.204,0.912,1.858,0.912c0.982,0,1.664-0.691,1.664-1.558
					v-0.018c0-0.858-0.699-1.468-1.699-1.468c-0.576,0-1.009,0.176-1.399,0.389l-0.354-0.229l0.177-3.001h3.478v0.443h-3.071
					l-0.15,2.319c0.398-0.195,0.796-0.336,1.372-0.336c1.195,0,2.124,0.761,2.124,1.867v0.018c0,1.168-0.911,1.992-2.159,1.992
					C307.11,245.224,306.322,244.772,305.783,244.224z"/>
				<path fill="#FFFFFF" d="M311.206,242.038v-0.018c0-1.708,1-3.204,2.576-3.204c1.575,0,2.557,1.479,2.557,3.187v0.017
					c0,1.708-1,3.204-2.575,3.204S311.206,243.746,311.206,242.038z M315.861,242.038v-0.018c0-1.442-0.814-2.788-2.098-2.788
					s-2.08,1.328-2.08,2.771v0.017c0,1.434,0.814,2.789,2.098,2.789C315.064,244.808,315.861,243.471,315.861,242.038z"/>
			</g>
		</g>
	</g>
	<polygon fill="#FFFFE1" points="348.06,253.736 354.86,243.849 357.179,246.059 350.56,256.486 	"/>
	<polygon opacity="0.1" points="348.351,250.32 353.56,245.739 349.571,251.537 	"/>
	<path fill="#E8A17E" d="M412.755,174.525c0,0,4.684-1.084,5.355,6.004c0,0,0.748,6.195-5.582,5.854L412.755,174.525z"/>
	<path fill="#F7AE83" d="M337.257,227.694h-5.182c0,0,1.049,5.286,5.799,4.286L337.257,227.694z"/>
	<g>
		<path fill="#F7AE83" d="M337.257,227.694c0,0,2.887,4.618,4.736,7.646l17.051,15.33l7.934-13.458l9.588,5.026l-16.914,19.341
			l-21.078-22.344l-4.484,1.487l-5.465-13.029c0,0-0.092,0.415,6.816,3.762C335.44,231.456,335.071,228.451,337.257,227.694z"/>
		<polygon fill="#F3F5CD" points="376.565,242.239 382.456,220.168 373.038,219.125 368.31,230.294 359.278,249.404 
			356.562,247.031 351.462,255.065 359.651,263.229 374.757,246.198 		"/>
		<path fill="#E8A17E" d="M388.458,215.845v-6.938l9.52-7.597l2.396,12.769C400.374,214.079,392.647,227.325,388.458,215.845z"/>
		<path fill="#3A3A3A" d="M384.731,375.048v2.398c0,0-6.477,2.901-6.393,5.424c0,0,7.779,0.505,9.041-3.279v-4.543H384.731z"/>
		<rect x="384.731" y="375.048" fill="#3A3A3A" width="2.648" height="2.398"/>
		<path fill="#3A3A3A" d="M404.597,375.048v2.398c0,0,6.475,2.901,6.391,5.424c0,0-7.777,0.505-9.039-3.279v-4.543H404.597z"/>
		<rect x="401.948" y="375.048" fill="#3A3A3A" width="2.648" height="2.398"/>
		<path fill="#444444" d="M378.339,276.997l3.869,98.809h7.316l3.533-79.728l5.551,79.728h8.578V275.568
			C407.187,275.568,391.88,262.532,378.339,276.997z"/>
		<path fill="#3A3A3A" d="M377.646,276.235l0.338,3.354c0,0,14.211,3.68,29.568-0.357l0.293-3.094L377.646,276.235z"/>
		<path fill="#F3F5CD" d="M388.458,215.845l-15.42,3.28l4.207,41.445l-1.682,12.79l2.082,2.874c0,0,12.537,4.191,30.199-0.098
			l1.449-3.481l-1.068-11.075l6.207-43.177l-14.059-4.324C400.374,214.079,395.606,219.928,388.458,215.845z"/>
		<polygon fill="#1B9AAA" points="391.938,223.146 388.458,261.707 392.763,271.672 397.489,261.202 394.415,222.389 		"/>
		<g>
			<polygon fill="#7D8906" points="399.028,265.498 398.2,266.668 388.397,267.82 389.345,262.483 393.464,261.008 			"/>
			<polygon fill="#AAD643" points="388.175,244.943 386.497,246.472 388.397,267.82 389.616,266.538 391.38,258.019 			"/>
			<g>
				<polygon fill="#8EA604" points="388.175,244.943 397.53,244.658 399.028,265.498 389.616,266.538 				"/>
				<polygon fill="#AAD643" points="389.358,246.101 396.479,245.919 397.823,264.398 390.665,265.236 				"/>
				
					<ellipse transform="matrix(0.0646 0.9979 -0.9979 0.0646 622.9218 -154.0931)" fill="#8EA604" cx="393.659" cy="255.24" rx="2.115" ry="1.965"/>
			</g>
		</g>
		<polygon fill="#1B9AAA" points="389.573,222.473 393.452,225.501 397.489,222.389 394.407,217.243 391.854,217.243 		"/>
		<path fill="#F7AE83" d="M396.063,264.361l4.063-0.375l2.357-2.406l10.42,0.198l-0.846-8.371l-8.934,0.303l-2.186-1.371
			l-0.625-5.309c0,0-2.65,0.159-2.25,5.309l-4.326,0.521l-6.947-2l-2.5,3.417l3,8.25L396.063,264.361z"/>
		<path fill="#F3F5CD" d="M423.063,237.982c0,0-3.334-19.625-8.631-19.579c0,0-9.961,5.252-1.953,22.07l4.521,12.138l-2.045,0.311
			l1.049,8.833l6.621-0.269l6.375-2.063L423.063,237.982z"/>
		<polygon fill="#FFFFE1" points="387.563,214.528 386.729,217.243 389.079,224.492 393.452,217.291 		"/>
		<polygon fill="#FFFFE1" points="393.452,217.291 397.489,224.492 401.063,216.277 400.374,213.475 		"/>
		<polygon fill="#FFFFE1" points="411.948,252.34 412.903,262.923 416.081,262.408 414.886,252.34 		"/>
		<path fill="#E8A17E" d="M372.511,175.651c0,0-5.119-0.877-5.412,6.236c0,0-0.416,6.227,5.885,5.548L372.511,175.651z"/>
		<polygon fill="#F7AE83" points="375.72,158.867 373.656,189.102 378.537,202.469 387.535,210.621 400.304,210.587 
			409.095,202.509 412.732,190.849 409.464,152.728 		"/>
		<polygon fill="#6F7571" points="377.382,174.47 387.037,170.351 388.466,172.761 379.234,177.734 		"/>
		<polygon fill="#6F7571" points="408.417,173.655 397.443,171.124 396.363,173.709 406.447,177.436 		"/>
		<g>
			
				<ellipse transform="matrix(0.9926 0.1218 -0.1218 0.9926 24.7994 -45.5529)" fill="#25221D" cx="384.957" cy="180.047" rx="1.842" ry="2.415"/>
			
				<ellipse transform="matrix(-0.9925 -0.1219 0.1219 -0.9925 775.581 407.5301)" fill="#25221D" cx="400.254" cy="180.045" rx="1.841" ry="2.417"/>
		</g>
		<polygon fill="#6F7571" points="372.462,184.317 372.433,189.745 377.408,202.331 377.173,197.341 375.101,189.535 
			375.541,183.95 		"/>
		<polygon fill="#6F7571" points="413.669,183.377 413.873,190.864 409.464,201.364 410.562,190.581 410.208,183.95 		"/>
		<polygon fill="#6F7571" points="377.173,197.341 386.556,190.942 400.011,191.52 410.962,196.734 409.095,202.509 
			400.304,211.548 387.177,211.534 377.408,202.331 		"/>
		<polygon fill="#FFFEFF" points="386.745,197.327 393.362,201.532 399.643,197.67 		"/>
		<polygon opacity="0.3" fill="#25221D" points="389.468,187.631 396.919,187.914 393.08,190.571 		"/>
		<path fill="#6F7571" d="M415.56,156.958c0,0-2.721-1.111-2.375-0.064c1.039,3.125,2.182,6.666,2.182,6.666l-2.451,9.784
			l0.754,10.034l-3.461,0.573l-1.027-12.298l-2.404-4.269l1.391-6.413c0,0-6.256-3.968-14.957-4.359l0.895,1.452
			c0,0-10.494-2.979-17.094,3.243l1.199,6.308l-2.359,4.202l-0.311,12.134l-3.078,0.367l0,0l-1.076-9.51l-2.158-6.469l0.551-10.344
			l1.953,1.497c0,0-0.762-4.729,2.658-8.24c-0.209,0.262-0.719,1.22,0.256,3.708c0,0,4.863-8.592,22.361-6.913
			C414.501,149.723,415.56,156.958,415.56,156.958z"/>
		<polygon opacity="0.1" points="412.046,253.408 410.854,261.755 412.798,261.752 		"/>
		<g>
			<polygon fill="#7D8906" points="338.573,241.609 337.874,242.861 328.249,245.048 328.624,239.642 332.562,237.736 			"/>
			<polygon fill="#AAD643" points="325.595,222.325 324.089,224.024 328.249,245.048 329.323,243.645 330.173,234.986 			"/>
			<g>
				<polygon fill="#8EA604" points="325.595,222.325 334.866,221.047 338.573,241.609 329.323,243.645 				"/>
				<polygon fill="#AAD643" points="326.894,223.35 333.954,222.413 337.257,240.643 330.228,242.238 				"/>
				
					<ellipse transform="matrix(0.1703 0.9854 -0.9854 0.1703 504.1528 -134.8248)" fill="#8EA604" cx="332.143" cy="231.98" rx="2.115" ry="1.965"/>
			</g>
		</g>
		<path fill="#F7AE83" d="M323.651,228.313h4.809c0,0,1.178,4.135-4.15,3.503l-1.061-1.915L323.651,228.313z"/>
		<path fill="#F7AE83" d="M324.872,231.5h4.809c0,0,1.178,4.135-4.15,3.503l-1.061-1.915L324.872,231.5z"/>
		<path fill="#F7AE83" d="M325.882,234.944h3.434c0,0,0.842,2.953-2.963,2.501l-0.758-1.368L325.882,234.944z"/>
		<path fill="#F7AE83" d="M326.489,237.388h3.436c0,0,0.84,2.953-2.965,2.501l-0.758-1.368L326.489,237.388z"/>
	</g>
	<g opacity="0.3">
		<rect x="418.747" y="138.444" fill="#FFFFFF" width="0.871" height="4.553"/>
		<rect x="416.905" y="140.286" fill="#FFFFFF" width="4.555" height="0.87"/>
	</g>
	<g opacity="0.3">
		<rect x="292.47" y="199.832" fill="#FFFFFF" width="0.871" height="4.553"/>
		<rect x="290.628" y="201.674" fill="#FFFFFF" width="4.555" height="0.87"/>
	</g>
	<g opacity="0.3">
		<rect x="80.044" y="209.271" fill="#FFFFFF" width="0.871" height="4.553"/>
		<rect x="78.202" y="211.113" fill="#FFFFFF" width="4.555" height="0.87"/>
	</g>
	<g opacity="0.5">
		<rect x="73.925" y="147.657" fill="#FFFFFF" width="1.938" height="10.142"/>
		<rect x="69.823" y="151.759" fill="#FFFFFF" width="10.141" height="1.937"/>
	</g>
	<g opacity="0.3">
		<rect x="164.505" y="139.838" fill="#FFFFFF" width="1.592" height="8.336"/>
		<rect x="161.132" y="143.21" fill="#FFFFFF" width="8.338" height="1.592"/>
	</g>
	<path opacity="0.3" fill="#FFFFFF" d="M322.229,147.051c0,1.859-1.508,4.582-3.369,4.582s-3.369-2.722-3.369-4.582
		c0-1.861,1.508-3.371,3.369-3.371S322.229,145.19,322.229,147.051z"/>
	<path opacity="0.3" fill="#FFFFFF" d="M57.188,194.255c0,1.859-1.508,4.582-3.369,4.582s-3.369-2.722-3.369-4.582
		c0-1.861,1.508-3.371,3.369-3.371S57.188,192.394,57.188,194.255z"/>
	<path opacity="0.3" fill="#FFFFFF" d="M80.479,180.199c0,0.713-0.578,1.757-1.293,1.757c-0.713,0-1.291-1.044-1.291-1.757
		c0-0.714,0.578-1.292,1.291-1.292C79.901,178.906,80.479,179.485,80.479,180.199z"/>
	<path opacity="0.3" fill="#FFFFFF" d="M165.797,197.983c0,0.713-0.578,1.757-1.293,1.757c-0.713,0-1.291-1.044-1.291-1.757
		c0-0.714,0.578-1.292,1.291-1.292C165.219,196.691,165.797,197.27,165.797,197.983z"/>
	<path opacity="0.3" fill="#FFFFFF" d="M431.585,171.962c0,0.713-0.578,1.757-1.291,1.757c-0.715,0-1.293-1.044-1.293-1.757
		c0-0.714,0.578-1.292,1.293-1.292C431.007,170.67,431.585,171.249,431.585,171.962z"/>
	<path opacity="0.3" fill="#FFFFFF" d="M306.208,174.047c0,0.713-0.578,1.757-1.293,1.757c-0.713,0-1.291-1.044-1.291-1.757
		c0-0.714,0.578-1.292,1.291-1.292C305.63,172.755,306.208,173.333,306.208,174.047z"/>
	<g opacity="0.5">
		<polygon fill="#FFFFFF" points="467.533,19.579 469.098,19.579 469.098,23.955 457.323,23.955 457.323,8.265 469.098,8.265 
			469.098,12.694 467.569,12.694 467.569,9.866 458.906,9.866 458.906,22.354 467.533,22.354 		"/>
		<polygon fill="#FFFFFF" points="463.383,15.037 463.383,17.219 469.858,17.219 469.858,19.733 474.744,16.114 469.858,12.499 
			469.858,14.965 		"/>
	</g>
	<g>
		<polygon fill="#FFFFFF" points="196.183,268.007 186.573,266.757 186.573,269.257 		"/>
		<polygon fill="#FFFFFF" points="196.183,242.02 186.573,240.77 186.573,243.27 		"/>
		<polygon fill="#FFFFFF" points="196.183,323.726 186.573,322.476 186.573,324.976 		"/>
		<polygon fill="#FFFFFF" points="196.183,323.726 186.573,322.476 186.573,324.976 		"/>
		<polygon fill="#FFFFFF" points="196.183,350.961 186.573,349.711 186.573,352.211 		"/>
		<polygon fill="#FFFFFF" points="196.183,296.347 186.573,295.097 186.573,297.597 		"/>
		<g>
			<g opacity="0.7">
				<path fill="#FFFFFF" d="M174.831,348.296l-1.195,0.407l-0.124-0.361l1.416-0.523h0.354v6.241h-0.451V348.296z"/>
				<path fill="#FFFFFF" d="M176.786,350.979v-0.018c0-1.707,1-3.204,2.576-3.204c1.575,0,2.558,1.479,2.558,3.188v0.017
					c0,1.707-1,3.204-2.576,3.204S176.786,352.688,176.786,350.979z M181.441,350.979v-0.018c0-1.442-0.814-2.788-2.098-2.788
					c-1.284,0-2.08,1.327-2.08,2.771v0.017c0,1.434,0.814,2.788,2.098,2.788S181.441,352.413,181.441,350.979z"/>
			</g>
			<g opacity="0.7">
				<path fill="#FFFFFF" d="M172.464,326.479l2.31-2.09c1.017-0.93,1.371-1.459,1.371-2.115c0-0.805-0.654-1.327-1.398-1.327
					c-0.788,0-1.301,0.407-1.814,1.151l-0.345-0.23c0.54-0.823,1.115-1.328,2.203-1.328c1.053,0,1.841,0.734,1.841,1.699v0.018
					c0,0.85-0.46,1.416-1.549,2.408l-1.894,1.717h3.504v0.441h-4.23V326.479z"/>
				<path fill="#FFFFFF" d="M177.834,323.744v-0.019c0-1.707,1-3.203,2.575-3.203s2.558,1.479,2.558,3.187v0.017
					c0,1.709-1,3.205-2.576,3.205C178.816,326.931,177.834,325.452,177.834,323.744z M182.489,323.744v-0.019
					c0-1.441-0.815-2.787-2.098-2.787s-2.08,1.328-2.08,2.771v0.017c0,1.434,0.814,2.789,2.098,2.789
					C181.692,326.515,182.489,325.179,182.489,323.744z"/>
			</g>
			<g opacity="0.7">
				<path fill="#FFFFFF" d="M172.402,298.437l0.354-0.292c0.495,0.628,1.115,0.992,1.929,0.992c0.832,0,1.531-0.558,1.531-1.372
					c0-0.009,0-0.018,0-0.018c0-0.867-0.814-1.345-1.929-1.345h-0.336l-0.115-0.256l2.133-2.461h-3.248v-0.434h3.876v0.327
					l-2.097,2.399c1.177,0.071,2.195,0.619,2.195,1.752c0,0,0,0.01,0,0.018c0,1.08-0.947,1.806-2.018,1.806
					C173.667,299.551,172.906,299.091,172.402,298.437z"/>
				<path fill="#FFFFFF" d="M177.896,296.365v-0.018c0-1.708,1-3.204,2.576-3.204c1.575,0,2.557,1.479,2.557,3.187v0.017
					c0,1.708-1,3.204-2.575,3.204S177.896,298.073,177.896,296.365z M182.551,296.365v-0.018c0-1.442-0.814-2.788-2.098-2.788
					s-2.08,1.328-2.08,2.771v0.017c0,1.434,0.814,2.789,2.098,2.789C181.755,299.136,182.551,297.799,182.551,296.365z"/>
			</g>
			<g opacity="0.7">
				<path fill="#FFFFFF" d="M175.65,269.592h-3.354l-0.159-0.345l3.54-4.38h0.416v4.327h1.009v0.398h-1.009v1.513h-0.442V269.592z
					 M175.65,269.193v-3.664l-2.956,3.664H175.65z"/>
				<path fill="#FFFFFF" d="M178.161,268.025v-0.018c0-1.708,1-3.204,2.576-3.204c1.575,0,2.557,1.479,2.557,3.187v0.017
					c0,1.708-1,3.204-2.575,3.204C179.143,271.211,178.161,269.733,178.161,268.025z M182.816,268.025v-0.018
					c0-1.442-0.814-2.788-2.098-2.788s-2.08,1.328-2.08,2.771v0.017c0,1.434,0.814,2.789,2.098,2.789
					C182.02,270.796,182.816,269.459,182.816,268.025z"/>
			</g>
			<g opacity="0.7">
				<path fill="#FFFFFF" d="M172.438,244.224l0.328-0.327c0.558,0.557,1.204,0.912,1.858,0.912c0.982,0,1.664-0.691,1.664-1.558
					v-0.018c0-0.858-0.699-1.468-1.699-1.468c-0.576,0-1.009,0.176-1.399,0.389l-0.354-0.229l0.177-3.001h3.478v0.443h-3.071
					l-0.15,2.319c0.398-0.195,0.796-0.336,1.372-0.336c1.195,0,2.124,0.761,2.124,1.867v0.018c0,1.168-0.911,1.992-2.159,1.992
					C173.765,245.224,172.977,244.772,172.438,244.224z"/>
				<path fill="#FFFFFF" d="M177.86,242.038v-0.018c0-1.708,1-3.204,2.576-3.204c1.575,0,2.557,1.479,2.557,3.187v0.017
					c0,1.708-1,3.204-2.575,3.204S177.86,243.746,177.86,242.038z M182.516,242.038v-0.018c0-1.442-0.814-2.788-2.098-2.788
					s-2.08,1.328-2.08,2.771v0.017c0,1.434,0.814,2.789,2.098,2.789C181.719,244.808,182.516,243.471,182.516,242.038z"/>
			</g>
		</g>
	</g>
	<g>
		<polygon fill="#FFFFFF" points="59.685,268.007 50.075,266.757 50.075,269.257 		"/>
		<polygon fill="#FFFFFF" points="59.685,242.02 50.075,240.77 50.075,243.27 		"/>
		<polygon fill="#FFFFFF" points="59.685,323.726 50.075,322.476 50.075,324.976 		"/>
		<polygon fill="#FFFFFF" points="59.685,323.726 50.075,322.476 50.075,324.976 		"/>
		<polygon fill="#FFFFFF" points="59.685,350.961 50.075,349.711 50.075,352.211 		"/>
		<polygon fill="#FFFFFF" points="59.685,296.347 50.075,295.097 50.075,297.597 		"/>
		<g>
			<g opacity="0.7">
				<path fill="#FFFFFF" d="M38.333,348.296l-1.195,0.407l-0.124-0.361l1.416-0.523h0.354v6.241h-0.451V348.296z"/>
				<path fill="#FFFFFF" d="M40.288,350.979v-0.018c0-1.707,1-3.204,2.576-3.204c1.575,0,2.558,1.479,2.558,3.188v0.017
					c0,1.707-1,3.204-2.576,3.204S40.288,352.688,40.288,350.979z M44.943,350.979v-0.018c0-1.442-0.814-2.788-2.098-2.788
					c-1.284,0-2.08,1.327-2.08,2.771v0.017c0,1.434,0.814,2.788,2.098,2.788S44.943,352.413,44.943,350.979z"/>
			</g>
			<g opacity="0.7">
				<path fill="#FFFFFF" d="M35.966,326.479l2.31-2.09c1.017-0.93,1.371-1.459,1.371-2.115c0-0.805-0.654-1.327-1.398-1.327
					c-0.788,0-1.301,0.407-1.814,1.151l-0.345-0.23c0.54-0.823,1.115-1.328,2.203-1.328c1.053,0,1.841,0.734,1.841,1.699v0.018
					c0,0.85-0.46,1.416-1.549,2.408l-1.894,1.717h3.504v0.441h-4.23V326.479z"/>
				<path fill="#FFFFFF" d="M41.336,323.744v-0.019c0-1.707,1-3.203,2.575-3.203s2.558,1.479,2.558,3.187v0.017
					c0,1.709-1,3.205-2.576,3.205C42.318,326.931,41.336,325.452,41.336,323.744z M45.991,323.744v-0.019
					c0-1.441-0.815-2.787-2.098-2.787s-2.08,1.328-2.08,2.771v0.017c0,1.434,0.814,2.789,2.098,2.789
					C45.194,326.515,45.991,325.179,45.991,323.744z"/>
			</g>
			<g opacity="0.7">
				<path fill="#FFFFFF" d="M35.904,298.437l0.354-0.292c0.495,0.628,1.115,0.992,1.929,0.992c0.832,0,1.531-0.558,1.531-1.372
					c0-0.009,0-0.018,0-0.018c0-0.867-0.814-1.345-1.929-1.345h-0.336l-0.115-0.256l2.133-2.461h-3.248v-0.434h3.876v0.327
					l-2.097,2.399c1.177,0.071,2.195,0.619,2.195,1.752c0,0,0,0.01,0,0.018c0,1.08-0.947,1.806-2.018,1.806
					C37.169,299.551,36.408,299.091,35.904,298.437z"/>
				<path fill="#FFFFFF" d="M41.398,296.365v-0.018c0-1.708,1-3.204,2.576-3.204c1.575,0,2.557,1.479,2.557,3.187v0.017
					c0,1.708-1,3.204-2.575,3.204S41.398,298.073,41.398,296.365z M46.053,296.365v-0.018c0-1.442-0.814-2.788-2.098-2.788
					s-2.08,1.328-2.08,2.771v0.017c0,1.434,0.814,2.789,2.098,2.789C45.257,299.136,46.053,297.799,46.053,296.365z"/>
			</g>
			<g opacity="0.7">
				<path fill="#FFFFFF" d="M39.152,269.592h-3.354l-0.159-0.345l3.54-4.38h0.416v4.327h1.009v0.398h-1.009v1.513h-0.442V269.592z
					 M39.152,269.193v-3.664l-2.956,3.664H39.152z"/>
				<path fill="#FFFFFF" d="M41.663,268.025v-0.018c0-1.708,1-3.204,2.576-3.204c1.575,0,2.557,1.479,2.557,3.187v0.017
					c0,1.708-1,3.204-2.575,3.204C42.645,271.211,41.663,269.733,41.663,268.025z M46.318,268.025v-0.018
					c0-1.442-0.814-2.788-2.098-2.788s-2.08,1.328-2.08,2.771v0.017c0,1.434,0.814,2.789,2.098,2.789
					C45.522,270.796,46.318,269.459,46.318,268.025z"/>
			</g>
			<g opacity="0.7">
				<path fill="#FFFFFF" d="M35.939,244.224l0.328-0.327c0.558,0.557,1.204,0.912,1.858,0.912c0.982,0,1.664-0.691,1.664-1.558
					v-0.018c0-0.858-0.699-1.468-1.699-1.468c-0.576,0-1.009,0.176-1.399,0.389l-0.354-0.229l0.177-3.001h3.478v0.443h-3.071
					l-0.15,2.319c0.398-0.195,0.796-0.336,1.372-0.336c1.195,0,2.124,0.761,2.124,1.867v0.018c0,1.168-0.911,1.992-2.159,1.992
					C37.267,245.224,36.479,244.772,35.939,244.224z"/>
				<path fill="#FFFFFF" d="M41.362,242.038v-0.018c0-1.708,1-3.204,2.576-3.204c1.575,0,2.557,1.479,2.557,3.187v0.017
					c0,1.708-1,3.204-2.575,3.204S41.362,243.746,41.362,242.038z M46.018,242.038v-0.018c0-1.442-0.814-2.788-2.098-2.788
					s-2.08,1.328-2.08,2.771v0.017c0,1.434,0.814,2.789,2.098,2.789C45.221,244.808,46.018,243.471,46.018,242.038z"/>
			</g>
		</g>
	</g>
	<g>
		<path fill="#3A3A3A" d="M251.751,375.048v2.398c0,0-6.475,2.901-6.391,5.424c0,0,7.779,0.505,9.041-3.279v-4.543H251.751z"/>
		<rect x="251.751" y="375.048" fill="#3A3A3A" width="2.65" height="2.398"/>
		<path fill="#3A3A3A" d="M271.618,375.048v2.398c0,0,6.475,2.901,6.391,5.424c0,0-7.779,0.505-9.041-3.279v-4.543H271.618z"/>
		<rect x="268.968" y="375.048" fill="#3A3A3A" width="2.65" height="2.398"/>
		<polygon fill="#E59F7C" points="256.878,217.653 264.802,218.861 267.085,215.798 265.222,201.311 255.704,208.907 
			255.878,217.069 		"/>
		<path fill="#686868" d="M245.36,276.997l3.869,98.809h7.316l3.531-79.728l5.551,79.728h8.578V275.568
			C274.206,275.568,258.901,262.532,245.36,276.997z"/>
		<path fill="#3A3A3A" d="M244.665,276.235l0.338,3.354c0,0,14.211,3.68,29.57-0.357l0.346-3.658L244.665,276.235z"/>
		<path fill="#1B9AAA" d="M255.479,215.845l-15.602,2.558l4.389,42.168l-1.598,13.29l1.418,2.343c0,0,13.17,3.658,30.832-0.631
			l1.5-1.878l-1.172-12.114l6.207-43.177l-14.807-4.104C266.647,214.298,262.626,219.928,255.479,215.845z"/>
		<g>
			<polygon fill="#8EA604" points="257.966,244.83 267.854,247.296 263.841,266.757 253.642,265.224 			"/>
			<polygon fill="#AAD643" points="258.821,246.646 266.335,248.568 262.944,265.007 255.171,263.9 			"/>
			
				<ellipse transform="matrix(-0.2022 0.9793 -0.9793 -0.2022 564.1286 52.1155)" fill="#8EA604" cx="260.838" cy="255.825" rx="2.757" ry="2.139"/>
		</g>
		<path fill="#F7AE83" d="M261.394,253.861l-4.373-1.75c1.277-7.274-1.939-7.438-1.939-7.438l-1.529,6.875l-3.844,2.5l-7.455-0.641
			l-4.943-0.797l2.568-11.833c8.008-16.818-0.625-17.333-0.625-17.333c-5.299-0.046-9.045,16-9.045,16l-4.898,19.979l6.375,2.063
			l9.723,0.292l10.42-0.198l2.357,2.406l7.209,1l5.939-7l-0.625-5.375L261.394,253.861z"/>
		<polygon fill="#E59F7C" points="259.642,217.283 260.519,227.694 261.394,217.276 		"/>
		<path fill="#F7AE83" d="M286.501,285.029l5.598-31.424l-1.791-15.512c0,0-0.984-20.079-7.729-18.919c0,0-9.961,5.252-1.953,22.07
			l2,12.404l-0.471,31.112l-3.57,4.102l-1.416,5.5c0,0,3.705-0.185,3.895-4.439l0.154,5.14l-1.467,5.716c0,0,7.426-0.058,8.5-4.583
			l-0.416-7.167L286.501,285.029z"/>
		<path fill="#E59F7C" d="M241.325,175.651c0,0-5.117-0.877-5.41,6.236c0,0-0.416,6.227,5.885,5.548L241.325,175.651z"/>
		<path fill="#E59F7C" d="M279.321,174.525c0,0,4.682-1.084,5.355,6.004c0,0,0.746,6.195-5.584,5.854L279.321,174.525z"/>
		<path fill="#F7AE83" d="M279.046,164.111l1.127,24.991l-3.637,13.408l-8.793,8.078l-12.768,0.034l-8.998-8.152l-4.881-13.368
			v-24.991c0,0,0.699-12.27,19.537-12.333C280.173,151.712,279.046,164.111,279.046,164.111z"/>
		
			<ellipse transform="matrix(0.9925 0.1219 -0.1219 0.9925 23.7039 -29.4272)" fill="#25221D" cx="252.396" cy="179.047" rx="1.841" ry="2.415"/>
		<g>
			<polygon fill="#444444" points="244.369,172.158 254.688,170.235 255.561,172.898 245.469,175.747 			"/>
			<polygon fill="#444444" points="276.9,172.393 265.936,169.816 264.846,172.397 274.914,176.166 			"/>
		</g>
		
			<ellipse transform="matrix(-0.9925 -0.1219 0.1219 -0.9925 511.5729 389.3812)" fill="#25221D" cx="267.695" cy="179.045" rx="1.841" ry="2.417"/>
		<polygon fill="#444444" points="241.097,189.102 246.462,197.327 253.712,192.041 267.452,191.52 275.856,197.327 
			280.173,189.102 276.536,202.509 267.743,211.548 254.618,211.534 244.849,202.331 		"/>
		<polygon opacity="0.3" fill="#25221D" points="256.91,187.631 264.359,187.914 260.521,190.571 		"/>
		<path fill="#F7AE83" d="M254.249,195.444v9.542c0,0,6.443,3.125,12.836,0v-9.542H254.249z"/>
		<path opacity="0.3" fill="#25221D" d="M255.606,197.111c0,0,5.891,2.333,10.057-0.667
			C265.663,196.444,261.122,201.527,255.606,197.111z"/>
		<polygon fill="#444444" points="259.528,200.379 259.528,207.694 261.741,207.694 261.741,200.271 		"/>
		<polygon fill="#25B4BF" points="254.999,214.298 254.167,217.276 256.101,224.492 259.642,217.283 		"/>
		<polygon fill="#25B4BF" points="261.394,217.276 264.509,224.492 268.005,216.056 267.583,213.527 		"/>
		<path fill="#1B9AAA" d="M281.454,218.403c0,0-12.053-0.853-2.369,26.042l13.5-3.333
			C292.585,241.111,289.321,217.028,281.454,218.403z"/>
		<path fill="#1B9AAA" d="M239.878,218.403c0,0-7.836,4.313-11.336,22.979l12.832,3.063
			C241.374,244.444,252.216,226.528,239.878,218.403z"/>
		<polygon opacity="0.15" fill="#25221D" points="229.185,243.619 238.749,245.978 239.195,243.924 229.667,241.65 		"/>
		<polygon opacity="0.15" fill="#25221D" points="281.063,243.956 281.389,245.978 290.939,243.566 290.709,241.574 		"/>
	</g>
</g>
</svg>
