<svg xmlns="http://www.w3.org/2000/svg" xmlns:xlink="http://www.w3.org/1999/xlink" viewBox="0 0 245.04 154.32"><defs><style>.cls-1{fill:none;}.cls-2{clip-path:url(#clip-path);}.cls-3{fill:#090607;}.cls-4,.cls-7{fill:#fff;}.cls-4,.cls-6{fill-rule:evenodd;}.cls-5,.cls-6{fill:#f8981d;}</style><clipPath id="clip-path"><path class="cls-1" d="M10.14,1s-9,0-9,9V144.32s0,9,9,9h225s9,0,9-9V10s0-9-9-9Z"/></clipPath></defs><title>amazon-gift-card</title><g id="Layer_2" data-name="Layer 2"><g id="drawing"><g class="cls-2"><polygon class="cls-3" points="245.04 154.32 0 154.32 0 0 245.04 0 245.04 154.32 245.04 154.32"/></g><path class="cls-4" d="M93.56,54a1.12,1.12,0,1,1,1.12,1.07A1.09,1.09,0,0,1,93.56,54Z"/><path class="cls-5" d="M79.6,65.18c0-1.93-.9-4.09-3.17-4.09s-3.25,2-3.25,4.09,1,3.92,3.25,3.92,3.17-1.91,3.17-3.92Zm1.2,4.24c0,2.95-1.15,4.74-4.38,4.74-2,0-3.92-.88-4.09-3h1.2c.27,1.45,1.55,2,2.89,2,2.22,0,3.17-1.32,3.17-3.73V68.09h0a3.42,3.42,0,0,1-3.14,2C73.27,70.11,72,67.86,72,65s1.61-5,4.46-5a3.47,3.47,0,0,1,3.14,2h0v-1.7h1.2v9.06Z"/><path class="cls-5" d="M82.84,60.36H84v9.87h-1.2V60.36Zm0-3.79H84v1.93h-1.2V56.58Z"/><path class="cls-5" d="M89.68,61.38H87.73v8.85h-1.2V61.38H84.84v-1h1.68v-.9c0-1.7.46-2.89,2.39-2.89a6.43,6.43,0,0,1,1,.08v1a4.91,4.91,0,0,0-.88-.1c-1.34,0-1.3.84-1.32,1.91v.86h1.95v1Z"/><path class="cls-5" d="M91.88,60.36h2v1h-2V68c0,.78.11,1.24,1,1.3a9.36,9.36,0,0,0,1-.06v1c-.36,0-.71,0-1.07,0-1.61,0-2.16-.54-2.14-2.22V61.38H89v-1h1.72v-3h1.2v3Z"/><path class="cls-5" d="M106,63.46a2.68,2.68,0,0,0-2.79-2.37c-2.31,0-3.46,2.1-3.46,4.21s1.15,4.21,3.46,4.21a2.94,2.94,0,0,0,2.87-2.81h1.21a4,4,0,0,1-4.07,3.82c-3,0-4.67-2.39-4.67-5.22s1.64-5.22,4.67-5.22a3.69,3.69,0,0,1,4,3.38Z"/><path class="cls-5" d="M114.79,64.84h0c-.15.29-.69.38-1,.44-2,.36-4.59.34-4.59,2.28a2.05,2.05,0,0,0,2.2,2,3.17,3.17,0,0,0,3.44-3.1V64.84Zm-6.42-1.45c.11-2.31,1.74-3.31,4-3.31,1.74,0,3.63.54,3.63,3.17v5.24a.64.64,0,0,0,.71.73,1.13,1.13,0,0,0,.38-.08v1a3.24,3.24,0,0,1-.78.08c-1.22,0-1.41-.69-1.41-1.72h0a3.76,3.76,0,0,1-3.59,2c-1.82,0-3.31-.9-3.31-2.89,0-2.77,2.7-2.87,5.3-3.17,1-.11,1.55-.25,1.55-1.34,0-1.62-1.17-2-2.58-2s-2.6.69-2.64,2.29Z"/><path class="cls-5" d="M117.93,60.36H119v2.31h0a3.64,3.64,0,0,1,3.73-2.45v1.2A3.4,3.4,0,0,0,119.13,65v5.26h-1.2V60.36Z"/><path class="cls-5" d="M127.15,69.5c2.56,0,3.46-2.16,3.46-4.21s-.9-4.21-3.46-4.21c-2.29,0-3.23,2.16-3.23,4.21s.94,4.21,3.23,4.21Zm4.66.73H130.7V68.35h0a3.91,3.91,0,0,1-3.52,2.16c-3,0-4.43-2.43-4.43-5.22s1.43-5.22,4.43-5.22a3.52,3.52,0,0,1,3.42,2.16h0V56.58h1.2V70.23Z"/><path class="cls-6" d="M64.21,59.4c-4.27,3.15-10.47,4.83-15.8,4.83a28.57,28.57,0,0,1-19.3-7.37c-.4-.36,0-.85.43-.57a38.84,38.84,0,0,0,19.31,5.13,38.38,38.38,0,0,0,14.74-3c.72-.31,1.33.48.62,1Z"/><path class="cls-6" d="M66,57.37c-.55-.7-3.62-.33-5-.17-.42,0-.48-.32-.11-.58,2.45-1.72,6.46-1.22,6.92-.65s-.12,4.6-2.41,6.52c-.36.29-.69.14-.53-.25.51-1.29,1.67-4.18,1.12-4.87Z"/><path class="cls-4" d="M61.1,44.49V42.82a.41.41,0,0,1,.42-.42H69a.42.42,0,0,1,.43.42v1.43c0,.24-.21.55-.56,1.05L65,50.83a8.31,8.31,0,0,1,4.26.92.77.77,0,0,1,.4.66v1.78c0,.25-.27.53-.56.38a8.61,8.61,0,0,0-7.9,0c-.26.14-.53-.14-.53-.39V52.5A2,2,0,0,1,61,51.35l4.49-6.44H61.53a.41.41,0,0,1-.43-.42Z"/><path class="cls-4" d="M33.8,54.91H31.53a.43.43,0,0,1-.41-.38V42.85a.43.43,0,0,1,.44-.42h2.12a.44.44,0,0,1,.42.39v1.53h0a3.13,3.13,0,0,1,6,0,3.36,3.36,0,0,1,5.77-.89c.72,1,.58,2.41.58,3.66V54.5a.43.43,0,0,1-.44.42H43.73a.43.43,0,0,1-.41-.42V48.3a14.51,14.51,0,0,0-.07-2.19,1.19,1.19,0,0,0-1.34-1,1.5,1.5,0,0,0-1.36,1,7,7,0,0,0-.22,2.24v6.2a.43.43,0,0,1-.44.42H37.64a.43.43,0,0,1-.41-.42V48.3c0-1.3.21-3.22-1.41-3.22S34.25,47,34.25,48.3v6.2a.43.43,0,0,1-.44.42Z"/><path class="cls-4" d="M75.9,44.56c-1.68,0-1.79,2.29-1.79,3.71s0,4.48,1.76,4.48,1.85-2.46,1.85-4a10.92,10.92,0,0,0-.34-3.1,1.43,1.43,0,0,0-1.49-1.13Zm0-2.38c3.38,0,5.21,2.9,5.21,6.59s-2,6.39-5.21,6.39-5.12-2.9-5.12-6.52,1.83-6.46,5.12-6.46Z"/><path class="cls-4" d="M85.47,54.91H83.2a.43.43,0,0,1-.41-.42V42.81a.43.43,0,0,1,.44-.38h2.11a.44.44,0,0,1,.41.33v1.79h0c.64-1.6,1.53-2.36,3.11-2.36a3,3,0,0,1,2.66,1.38,7.46,7.46,0,0,1,.59,3.64v7.35a.43.43,0,0,1-.44.37H89.42a.43.43,0,0,1-.41-.37V48.2c0-1.28.14-3.15-1.43-3.15a1.5,1.5,0,0,0-1.32.94,5.19,5.19,0,0,0-.36,2.21V54.5a.43.43,0,0,1-.44.42Z"/><path class="cls-7" d="M117.68,54.92a.43.43,0,0,1-.43-.42V42.81a.43.43,0,0,1,.41-.38h.83a.43.43,0,0,1,.44.38v1.71a3.57,3.57,0,0,1,3.1-2.41h.17a3.16,3.16,0,0,1,3,2.69,3.77,3.77,0,0,1,3.37-2.69h.18a3.15,3.15,0,0,1,2.72,1.79,8.07,8.07,0,0,1,.51,3.57v7a.43.43,0,0,1-.4.42h-1a.44.44,0,0,1-.42-.36V47.47a6.05,6.05,0,0,0-.3-2.48,2.07,2.07,0,0,0-1.72-1.3,2.64,2.64,0,0,0-2,1.4,5.35,5.35,0,0,0-.6,3.1v6.38a.42.42,0,0,1-.4.36h-1a.42.42,0,0,1-.42-.42V47a4.78,4.78,0,0,0-.36-2.12,2.13,2.13,0,0,0-1.71-1.2,2.67,2.67,0,0,0-1.87,1.23,5,5,0,0,0-.65,2.85V54.5a.43.43,0,0,1-.41.42Z"/><path class="cls-7" d="M111.06,53.56a2.73,2.73,0,0,0,2.4-1.79,7.83,7.83,0,0,0,.53-3.2,7.16,7.16,0,0,0-.68-3.42,2.46,2.46,0,0,0-4.61.29,8.14,8.14,0,0,0-.53,3.13,8.31,8.31,0,0,0,.61,3.42,2.7,2.7,0,0,0,2.27,1.57Zm-.24,1.6c-3.23,0-4.68-3.29-4.68-6.59,0-3.47,1.7-6.46,5-6.46h.17c3.17,0,4.74,3.2,4.74,6.49,0,3.49-1.74,6.56-5,6.56h-.17Z"/><path class="cls-7" d="M100.73,53.52c1.45,0,2.21-1.21,2.53-2.71a.43.43,0,0,1,.41-.33h1a.42.42,0,0,1,.42.4c-.45,2.56-2,4.3-4.2,4.3h-.17c-3.2,0-4.59-3.22-4.59-6.49s1.4-6.56,4.61-6.56h.17c2.23,0,3.82,1.71,4.16,4.29a.42.42,0,0,1-.38.38h-1a.48.48,0,0,1-.38-.42c-.24-1.42-1.06-2.56-2.43-2.61-2.19.07-2.8,2.76-2.8,4.82s.52,4.89,2.7,5Z"/><path class="cls-4" d="M57.43,54.89a.48.48,0,0,1-.55.05,5.63,5.63,0,0,1-1.3-1.52,4.51,4.51,0,0,1-3.75,1.66,3.23,3.23,0,0,1-3.41-3.55,3.86,3.86,0,0,1,2.43-3.72A15.61,15.61,0,0,1,55.13,47v-.29a2.92,2.92,0,0,0-.27-1.65,1.52,1.52,0,0,0-1.28-.59,1.73,1.73,0,0,0-1.83,1.36c0,.2-.19.41-.39.42L49.15,46a.4.4,0,0,1-.34-.47c.51-2.68,2.93-3.48,5.09-3.48a5.14,5.14,0,0,1,3.43,1.14c1.11,1,1,2.41,1,3.91v3.55a3.1,3.1,0,0,0,.86,2.11.43.43,0,0,1,0,.6c-.47.39-1.29,1.1-1.75,1.51Zm-2.3-5.55a4.46,4.46,0,0,1-.42,2.41,1.86,1.86,0,0,1-1.58,1c-.87,0-1.39-.66-1.39-1.65,0-1.94,1.74-2.29,3.39-2.29v.5Z"/><path class="cls-4" d="M27.59,54.89a.47.47,0,0,1-.54.05,5.47,5.47,0,0,1-1.31-1.52A4.51,4.51,0,0,1,22,55.08a3.23,3.23,0,0,1-3.41-3.55A3.87,3.87,0,0,1,21,47.81,15.67,15.67,0,0,1,25.29,47v-.29A3,3,0,0,0,25,45.07a1.52,1.52,0,0,0-1.28-.59,1.74,1.74,0,0,0-1.83,1.36.47.47,0,0,1-.39.42L19.31,46a.39.39,0,0,1-.34-.47c.5-2.68,2.92-3.48,5.09-3.48a5.14,5.14,0,0,1,3.43,1.14c1.11,1,1,2.41,1,3.91v3.55a3.1,3.1,0,0,0,.86,2.11.43.43,0,0,1,0,.6c-.46.39-1.29,1.1-1.75,1.51Zm-2.29-5.55a4.43,4.43,0,0,1-.43,2.41,1.84,1.84,0,0,1-1.57,1c-.87,0-1.38-.66-1.38-1.65,0-1.94,1.74-2.29,3.39-2.29v.5Z"/><path class="cls-7" d="M170,83.87c0,6.85,3.6,11.44,9.74,11.44,4.47,0,8.52-2.7,11.06-7.16,3.15-5.48,3-10.58,3-16.74V68C182.19,68,170,70.44,170,83.87ZM151.68,48.49a2.81,2.81,0,0,1-2.38-3.33C152.86,26.63,169.87,21,185.09,21c7.78,0,18,2.06,24.08,7.84,7.79,7.2,7.06,16.75,7.06,27.16v24.6c0,7.39,3.1,10.65,6,14.62,1,1.44,1.26,3.15,0,4.19-3.27,2.7-9.11,7.71-12.28,10.48l-.09.09a3.16,3.16,0,0,1-3.71.26c-5.35-4.35-6.29-6.37-9.18-10.52-8.8,8.84-15,11.48-26.4,11.48-13.47,0-24-8.19-24-24.6,0-12.82,7.05-21.51,17.07-25.8,8.7-3.76,20.81-4.45,30.1-5.48V53.29c0-3.74.27-8.19-2-11.44-2-2.88-5.69-4.08-9-4.08-6.1,0-11.56,3.08-12.89,9.45a3.36,3.36,0,0,1-2.76,2.92l-15.53-1.65Z"/><path class="cls-6" d="M218.66,123c-9.16,6.77-22.44,10.36-33.87,10.36a61.34,61.34,0,0,1-41.39-15.79c-.85-.77-.09-1.83.94-1.23a83.3,83.3,0,0,0,41.4,11,82.29,82.29,0,0,0,31.59-6.46c1.54-.66,2.84,1,1.33,2.14Z"/><path class="cls-6" d="M222.47,118.64c-1.17-1.51-7.75-.71-10.7-.36-.89.11-1-.67-.23-1.24,5.24-3.68,13.84-2.62,14.84-1.38s-.26,9.85-5.18,14c-.76.63-1.48.29-1.14-.54,1.11-2.77,3.59-8.95,2.42-10.44Z"/></g></g></svg>