<?xml version="1.0" encoding="utf-8"?>
<!-- Generator: Adobe Illustrator 16.0.0, SVG Export Plug-In . SVG Version: 6.00 Build 0)  -->
<!DOCTYPE svg PUBLIC "-//W3C//DTD SVG 1.1//EN" "http://www.w3.org/Graphics/SVG/1.1/DTD/svg11.dtd">
<svg version="1.1" id="Layer_1" xmlns="http://www.w3.org/2000/svg" xmlns:xlink="http://www.w3.org/1999/xlink" x="0px" y="0px"
	 width="116.441px" height="99.666px" viewBox="0 0 116.441 99.666" enable-background="new 0 0 116.441 99.666"
	 xml:space="preserve">
<g>
	<path fill="#221F1F" d="M31.938,26.996l12.471,1.424c0,0,1.504,0.114,2.051-1.829c0,0,0.621-7.543,10.107-7.914
		s8.514,10.828,8.5,13.854c0,0-36.287-2.248-36.646,24.646c-0.357,26.894,32.219,21.983,39.113,10.338c0,0,3.986,6.194,6.598,7.837
		c0,0,1.748,1.723,4.016-0.269l9.012-7.795c0,0,1.461-1.392,0.053-3.306c0,0-5.092-4.321-4.688-12.488L82.516,26.91
		c0,0,1.412-21.433-25.463-21.423c0,0-22.129-1.033-26.314,17.924C30.738,23.411,29.664,26.187,31.938,26.996z"/>
	<path fill="#FF9900" d="M25.139,81.632c0,0,7.785,11.837,32.121,12.558c0,0,19.125,0.022,27.779-8.231
		c0.717-0.684,0.684-1.199,0.504-1.543c-0.137-0.263-0.428-0.531-1.021-0.276c0,0-10.344,4.979-27.094,5.413
		c0,0-14.994-0.206-31.541-8.898c-0.248-0.131-0.816-0.301-1.029-0.104C24.691,80.704,24.789,81.139,25.139,81.632z"/>
	<path fill="#FF9900" d="M79.385,82.21c0,0,6.73-1.061,8.686,0.279c0,0,0.293,0.242,0.336,0.63c0.104,0.911-0.236,3.068-2.314,7.937
		c0,0,0.113,0.909,0.969,0.18c2.004-1.708,4.732-6.846,4.598-9.95c-0.023-0.516,0.004-0.825-0.475-1.167
		c0,0-5.131-2.688-11.805,1.104C79.057,81.405,78.553,81.994,79.385,82.21z"/>
	<path fill="#FFFFFF" d="M65.066,42.501c0,0-18.373-1.862-18.506,12.523C46.43,69.41,67.539,68.425,65.066,42.501z"/>
</g>
</svg>
