<svg xmlns="http://www.w3.org/2000/svg" viewBox="0 0 349.57 245.23"><defs><style>.cls-1{fill:#fff;}</style></defs><title>Bank Check</title><g id="Layer_2" data-name="Layer 2"><g id="Layer_1-2" data-name="Layer 1"><path d="M0,105.48a6,6,0,0,0,.68-1.09C3.53,96.49,9,92.58,17.43,92.55c11.24-.05,22.49,0,33.73,0h153c5.83,0,8.53,1.77,8.45,5.55s-2.7,5.36-8.3,5.36H19.63c-7.35,0-8.72,1.37-8.72,8.74q0,56.91,0,113.81c0,6.83,1.51,8.32,8.46,8.32H269.82c6.72,0,8.29-1.54,8.29-8.15q0-56.74,0-113.47c0-.8,0-1.59,0-2.39.07-4.29,2.12-6.83,5.49-6.81S289,106,289,110.37q0,58.78,0,117.56c0,10.42-6.9,17.27-17.37,17.27q-127.1,0-254.2,0c-9.11,0-14.37-4.94-17.43-13Q0,168.88,0,105.48Z"/><path d="M349.57,17.08c-1.27,2.81-2.61,6.11-4.27,9.24a16.58,16.58,0,0,1-3.19,3.51Q277.66,94.3,213.16,158.71a21.46,21.46,0,0,1-6.09,4.14c-7.72,3.56-15.57,6.85-23.33,10.33-2.68,1.2-5.25,1.77-7.56-.51s-1.76-4.85-.56-7.54c3.54-8,6.91-16,10.51-24a17.25,17.25,0,0,1,3.47-5q65-65.12,130-130.21c10-10,23.39-6.37,27.81,3.42C348.38,11.51,348.71,13.92,349.57,17.08ZM319,21.46a33.52,33.52,0,0,1-2.35,2.93Q258.91,82.22,201,139.91c-5.19,5.15-7.18,11.5-9.9,17.85,5.94-2.7,12.16-4.27,17.05-9.2q58-58.37,116.26-116.39a26.94,26.94,0,0,1,3.06-2.3ZM328,13.38l7.07,8c3.55-3.59,3.9-6.79,1.15-9.21S330.53,10.43,328,13.38Z"/><path d="M60.12,206.84c-.66,4.26,1.57,10.93-5.7,10.84-6.94-.08-4.92-6.51-5.33-9.82-5.31-2.89-10.3-5-14.63-8.14-4.62-3.3-6.93-8.34-7.13-14.11a5.42,5.42,0,0,1,4.76-5.72c2.59-.33,5.46,1.37,5.79,4.15.95,8,6.62,10.63,13.35,11.8a19.57,19.57,0,0,0,15.51-3.53c5.52-4.11,5.71-10.47-.15-14a29.72,29.72,0,0,0-12.07-3.78c-7.53-.79-14.6-2.31-20.31-7.59-10.35-9.57-8.86-23.83,3.39-31.28C41,133.52,45,132.29,49,130.51c.58-3.86-1.64-10.52,5.63-10.44,6.94.08,4.92,6.5,5.33,9.82,5.29,2.89,10.28,5.05,14.61,8.13,4.63,3.29,6.94,8.33,7.15,14.1A5.43,5.43,0,0,1,77,157.87c-2.59.34-5.47-1.36-5.8-4.14-.95-8-6.6-10.66-13.33-11.81a19.34,19.34,0,0,0-16,3.95c-4.84,3.94-4.79,9.36,0,13.35,3.66,3,8,4.05,12.68,4.22,7.58.26,14.62,2.16,20.33,7.43,11.46,10.6,8.1,26.76-6.91,33.3C65.47,205.23,62.83,205.92,60.12,206.84Z"/><path d="M174.55,218H101a20.26,20.26,0,0,1-3.4-.1c-2.94-.5-4.77-2.3-4.8-5.29s1.76-4.83,4.7-5.38a18.67,18.67,0,0,1,3.39-.12H248c5.57,0,8.21,1.73,8.25,5.4s-2.62,5.5-8.15,5.5Z"/><path d="M166.32,196.14c-13.06,0-26.13.05-39.19-.06-1.72,0-3.83-.38-5-1.43s-2.17-3.32-1.81-4.68c.44-1.68,2.16-3.26,3.71-4.33,1-.67,2.63-.4,4-.4q38.34,0,76.68,0c.57,0,1.14,0,1.7,0,3.78.15,6.19,2.22,6.25,5.36s-2.41,5.5-6.42,5.52C192.9,196.17,179.61,196.14,166.32,196.14Z"/><path d="M136.35,130.7q-17.86,0-35.72,0a15,15,0,0,1-3.71-.26,5.32,5.32,0,0,1,0-10.36,14.66,14.66,0,0,1,3.71-.27q35.72,0,71.44,0c.79,0,1.59,0,2.38,0,3.24.29,5.48,2.5,5.49,5.4s-2.22,5.15-5.45,5.43c-1.13.1-2.27,0-3.4,0Z"/><path d="M139.08,163.43c4.2,0,8.41-.05,12.61,0,4,.06,6.47,2.27,6.39,5.55s-2.48,5.29-6.28,5.32q-12.78.1-25.56,0c-3.78,0-6.19-2.22-6.23-5.37s2.36-5.41,6.11-5.49C130.45,163.36,134.77,163.43,139.08,163.43Z"/><path d="M240.27,163.43c3.18,0,6.36,0,9.54,0,4,.08,6.48,2.24,6.43,5.52s-2.46,5.31-6.24,5.35q-10.05.11-20.11,0c-3.79,0-6.2-2.19-6.26-5.34s2.4-5.46,6.41-5.53C233.45,163.38,236.86,163.43,240.27,163.43Z"/><path d="M239.84,185.24c3.41,0,6.82-.07,10.22,0,3.76.09,6.17,2.27,6.18,5.42s-2.4,5.39-6.15,5.44c-6.82.08-13.63.09-20.45,0-3.69-.05-6.11-2.44-6-5.58s2.42-5.16,6-5.27C233,185.16,236.43,185.24,239.84,185.24Z"/><path class="cls-1" d="M319,21.46l8.45,8.42a26.94,26.94,0,0,0-3.06,2.3Q266.23,90.32,208.16,148.57c-4.89,4.92-11.11,6.5-17.05,9.2,2.71-6.35,4.7-12.71,9.9-17.85Q259.08,82.38,316.68,24.39A33.52,33.52,0,0,0,319,21.46Z"/><path class="cls-1" d="M328,13.38c2.55-2.95,5.57-3.55,8.22-1.21s2.4,5.62-1.15,9.21Z"/></g></g></svg>