<?xml version="1.0" encoding="utf-8"?>
<!-- Generator: Adobe Illustrator 16.0.0, SVG Export Plug-In . SVG Version: 6.00 Build 0)  -->
<!DOCTYPE svg PUBLIC "-//W3C//DTD SVG 1.1//EN" "http://www.w3.org/Graphics/SVG/1.1/DTD/svg11.dtd">
<svg version="1.1" id="Layer_1" xmlns="http://www.w3.org/2000/svg" xmlns:xlink="http://www.w3.org/1999/xlink" x="0px" y="0px"
	 width="116.441px" height="99.666px" viewBox="0 0 116.441 99.666" enable-background="new 0 0 116.441 99.666"
	 xml:space="preserve">
<g>
	<rect x="57.117" y="43.449" fill="#E2E2E2" width="13.32" height="37.71"/>
	<rect x="57.117" y="43.449" opacity="0.1" width="13.32" height="4.706"/>
	<g>
		<rect x="27.473" y="43.449" fill="#E2E2E2" width="13.322" height="37.71"/>
		<rect x="27.473" y="43.449" opacity="0.1" width="13.322" height="4.706"/>
	</g>
	<g>
		<rect x="86.762" y="43.449" fill="#E2E2E2" width="13.32" height="37.71"/>
		<rect x="86.762" y="43.449" opacity="0.1" width="13.32" height="4.706"/>
	</g>
	<rect x="18.68" y="81.159" fill="#E2E2E2" width="90.195" height="5.597"/>
	<rect x="21.861" y="78.543" fill="#D8D8D8" width="83.832" height="2.616"/>
	<path fill="#E2E2E2" d="M63.779,5.818l-45.1,27.067v10.563h90.195V32.886L63.779,5.818z"/>
	<rect x="21.861" y="43.449" fill="#D8D8D8" width="83.832" height="2.616"/>
	<g>
		<path fill="#FF9F03" d="M35.808,25.1v6.471l14.035-13.817L35.808,6.131v6.139c0,0-30.706,0.439-30.706,35.969
			C5.102,48.238,11.571,20.714,35.808,25.1z"/>
		<path fill="#FFFFFF" d="M4.148,56.467v-8.229c0-18.804,8.604-27.85,15.819-32.128c6.314-3.744,12.559-4.565,14.885-4.744V4.101
			l16.412,13.593L34.853,33.849v-7.94c-1.411-0.217-2.794-0.327-4.124-0.327c-19.097,0-24.645,22.646-24.697,22.876L4.148,56.467z
			 M36.761,8.159v5.051l-0.938,0.016c-0.075,0.001-7.577,0.171-14.949,4.566C12.589,22.733,7.744,30.785,6.427,41.779
			c3.253-7.215,10.46-18.107,24.302-18.107c1.69,0,3.454,0.164,5.247,0.49l0.785,0.141v4.988l11.66-11.478L36.761,8.159z"/>
	</g>
	<g>
		<path fill="#FF9F03" d="M80.636,74.565v-6.471L66.599,81.913l14.037,11.622v-6.141c0,0,30.704-0.438,30.704-35.967
			C111.34,51.428,104.87,78.952,80.636,74.565z"/>
		<path fill="#FFFFFF" d="M81.589,95.565L65.177,81.973l16.412-16.156v7.941c1.411,0.216,2.796,0.326,4.126,0.326
			c19.095,0,24.641-22.646,24.695-22.875l1.883-8.01v8.229c0,18.804-8.604,27.85-15.819,32.127
			c-6.314,3.744-12.559,4.564-14.885,4.744V95.565z M68.022,81.852l11.658,9.655v-5.052l0.94-0.016
			c0.075-0.001,7.575-0.17,14.947-4.566c8.284-4.94,13.129-12.993,14.446-23.985c-3.255,7.214-10.46,18.106-24.3,18.106
			c-1.69,0-3.458-0.164-5.251-0.49l-0.783-0.142v-4.988L68.022,81.852z"/>
	</g>
	<circle fill="#FFFFFF" cx="63.777" cy="28.626" r="10.938"/>
	<g>
		<path fill="#8DC249" d="M63.145,34.545c-0.89-0.097-1.751-0.294-2.587-0.596c-0.837-0.3-1.6-0.697-2.284-1.19l1.625-2.4
			c0.576,0.408,1.14,0.733,1.688,0.974c0.547,0.242,1.103,0.41,1.668,0.505v-2.165c-0.723-0.168-1.357-0.359-1.904-0.575
			c-0.547-0.219-1.005-0.479-1.371-0.787c-0.367-0.307-0.644-0.663-0.83-1.073c-0.187-0.408-0.28-0.896-0.28-1.462v-0.036
			c0-0.529,0.097-1.017,0.289-1.461c0.194-0.445,0.473-0.833,0.838-1.165c0.368-0.33,0.82-0.598,1.354-0.802
			c0.536-0.205,1.147-0.331,1.833-0.379v-1.029h1.876v1.082c0.744,0.086,1.431,0.248,2.058,0.487
			c0.624,0.241,1.21,0.549,1.749,0.921l-1.478,2.418c-0.374-0.264-0.767-0.487-1.185-0.667c-0.413-0.182-0.824-0.319-1.234-0.415
			v2.093c0.721,0.169,1.35,0.363,1.887,0.587c0.533,0.223,0.982,0.487,1.344,0.794c0.359,0.307,0.632,0.67,0.813,1.091
			c0.18,0.422,0.27,0.908,0.27,1.461v0.038c0,0.553-0.103,1.05-0.306,1.488c-0.205,0.439-0.496,0.82-0.867,1.146
			c-0.373,0.323-0.821,0.583-1.345,0.775c-0.521,0.192-1.104,0.319-1.74,0.379v1.769h-1.879V34.545z M63.272,24.565
			c-0.446,0.035-0.761,0.136-0.948,0.298c-0.187,0.162-0.279,0.364-0.279,0.604v0.036c0,0.24,0.082,0.436,0.243,0.587
			c0.163,0.149,0.49,0.291,0.984,0.424V24.565z M64.95,31.946c0.807-0.084,1.21-0.39,1.21-0.921v-0.036
			c0-0.24-0.085-0.438-0.253-0.596c-0.169-0.155-0.487-0.3-0.957-0.433V31.946z"/>
	</g>
</g>
</svg>
