<?xml version="1.0" encoding="utf-8"?>
<!-- Generator: Adobe Illustrator 21.0.2, SVG Export Plug-In . SVG Version: 6.00 Build 0)  -->
<svg version="1.1" id="_xB9_Ã_xBC_h_x5F_1" xmlns="http://www.w3.org/2000/svg" xmlns:xlink="http://www.w3.org/1999/xlink"
	 x="0px" y="0px" viewBox="0 0 124 73.9" style="enable-background:new 0 0 124 73.9;" xml:space="preserve">
<style type="text/css">
	.st0{fill:#8BC34A;}
</style>
<path class="st0" d="M107.4,27.1c-0.8,0.1-1.5-0.5-1.6-1.3l-0.5-6.2c-0.1-0.8,0.5-1.5,1.3-1.6s1.5,0.5,1.6,1.3l0.5,6.2
	C108.8,26.4,108.2,27.1,107.4,27.1z"/>
<path class="st0" d="M108.5,65.9L8.7,74.3c-2,0.2-3.8-1.3-4-3.3L0.2,18.2c-0.2-2,1.3-3.8,3.3-4l99.8-8.4c1.1-0.1,2.1,0.3,2.9,1
	c0.6,0.6,0.6,1.5,0,2c-0.6,0.6-1.5,0.6-2,0c-0.1-0.1-0.3-0.2-0.6-0.2L3.8,17.2c-0.4,0-0.7,0.4-0.7,0.8l4.4,52.8
	c0,0.4,0.4,0.7,0.8,0.7l99.8-8.4c0.4,0,0.7-0.4,0.7-0.8l-2.6-31.1c-0.1-0.8,0.5-1.5,1.3-1.6s1.5,0.5,1.6,1.3l2.6,31.1
	C112,64,110.5,65.8,108.5,65.9z"/>
<path class="st0" d="M113.6,11.4L107,5.9c-0.3-0.3-0.9-0.2-1.2,0.1L78.1,38.8c-0.1,0.2-0.2,0.4-0.2,0.6c0,0.2,0.1,0.4,0.3,0.6
	l6.6,5.5c0.2,0.2,0.4,0.2,0.6,0.2s0.4-0.1,0.6-0.3l27.7-32.8C114,12.2,113.9,11.7,113.6,11.4z"/>
<path class="st0" d="M77.5,49.8c-0.4,0-0.7-0.1-1-0.3c-0.4-0.3-0.6-0.8-0.6-1.4l1.3-9c0.1-0.5,0.4-1,0.9-1.1c0.5-0.2,1-0.1,1.4,0.2
	l6.6,5.5c0.4,0.3,0.6,0.8,0.5,1.3s-0.4,0.9-0.8,1.1L78,49.7C77.8,49.8,77.7,49.8,77.5,49.8z M79.8,42.1L79.2,46l3.4-1.5L79.8,42.1z"
	/>
<path class="st0" d="M113.1,13.5L113.1,13.5c-0.4,0-0.8-0.1-1.1-0.3l-6.6-5.5c-0.6-0.5-0.7-1.4-0.2-2l3.4-4.1
	c0.7-0.8,1.6-1.3,2.6-1.4s2,0.2,2.8,0.9l2.9,2.4c1.6,1.4,1.8,3.8,0.5,5.5l-3.4,4.1C113.9,13.3,113.5,13.5,113.1,13.5z M108.5,6.3
	l4.4,3.7l2.5-3c0.3-0.4,0.3-1-0.1-1.4l-2.9-2.4c-0.2-0.2-0.5-0.3-0.7-0.2c-0.3,0-0.5,0.1-0.7,0.3L108.5,6.3z"/>
<path class="st0" d="M117.2,15.5c-0.4,0-0.8-0.1-1.1-0.3l-3.4-2.9c-0.6-0.5-0.7-1.4-0.2-2l2.4-2.8c0.2-0.3,0.6-0.5,1-0.5l0,0
	c0.4,0,0.8,0.1,1.1,0.3l3.4,2.9c0.6,0.5,0.7,1.4,0.2,2l-2.4,2.8C118,15.3,117.6,15.5,117.2,15.5z M115.7,11.1l1.2,1l0.5-0.6l-1.2-1
	L115.7,11.1z"/>
<path class="st0" d="M107,33.4c-0.4,0-0.8-0.1-1.1-0.3c-1.1-0.9-1.7-2.1-1.8-3.5c-0.1-1.4,0.3-2.7,1.2-3.8l13-15.4
	c0.5-0.6,1.4-0.7,2-0.2l2.9,2.4c0.3,0.2,0.5,0.6,0.5,1s-0.1,0.8-0.3,1.1L108,32.9C107.8,33.2,107.4,33.4,107,33.4z M119.6,13.3
	l-12.1,14.3c-0.4,0.5-0.6,1.1-0.5,1.7c0,0.1,0,0.2,0,0.2l13.2-15.7L119.6,13.3z"/>
<path class="st0" d="M77.2,21l-64.5,5.4c-0.5,0-0.9-0.3-0.9-0.8s0.3-0.9,0.8-0.9L77,19.3c0.5,0,0.9,0.3,0.9,0.8
	C78,20.5,77.6,20.9,77.2,21z"/>
<path class="st0" d="M72.1,30.8l-58.7,4.9c-0.5,0-0.9-0.3-0.9-0.8s0.3-0.9,0.8-0.9L72,29.2c0.5,0,0.9,0.3,0.9,0.8
	C72.9,30.4,72.6,30.8,72.1,30.8z"/>
<path class="st0" d="M67.7,40.7l-53.5,4.5c-0.5,0-0.9-0.3-0.9-0.8s0.3-0.9,0.8-0.9L67.6,39c0.5,0,0.9,0.3,0.9,0.8
	C68.5,40.2,68.2,40.6,67.7,40.7z"/>
<path class="st0" d="M49.9,61.1c-3.5,0.3-8.5-1.2-14.5-5.4c-0.4-0.3-1.1-0.2-1.4,0.2c-0.9,1.2-1.1,2-1.2,2.5c-0.1,0.4-0.2,0.8-0.8,1
	c-0.6,0.2-0.9-0.2-1.5-0.7c-0.4-0.4-1.1-1-2.3-2c-0.2-0.1-0.3-0.3-0.5-0.4c-1.9-1.5-5.9-4.6-8.2-4c-0.7,0.2-1.2,0.7-1.6,1.6
	c-0.4,0.9,0.5,3.2,1.1,4.8c0.4,1,0.7,1.9,0.9,2.6c0.1,0.5-0.2,0.9-0.7,1s-0.9-0.2-1-0.7c-0.1-0.6-0.4-1.4-0.8-2.4
	c-0.8-2.1-1.8-4.6-1.1-6.1c0.6-1.4,1.5-2.2,2.7-2.5c3.2-0.8,7.2,2.4,9.7,4.3c0.2,0.1,0.3,0.3,0.5,0.4c1,0.8,1.7,1.4,2.1,1.8
	c0.2-0.6,0.6-1.3,1.2-2.3c0.9-1.2,2.5-1.5,3.7-0.6c8.6,6,14.7,6.1,16.8,3.6c0.1-0.1,0.2-0.3,0.3-0.4c-0.3,0-0.6,0.1-0.8,0.1
	c-1.9,0.1-3.5-0.3-4.5-1.3c-1.8-1.7-1.5-3.3-0.7-4.2c1.3-1.4,4.3-1.6,6.3,0.2c0.9,0.9,1.5,1.9,1.7,3c1.9-0.6,3.7-1.7,4.8-2.9
	c1.3-1.5,3.4-2.1,5.3-1.4c0.1,0,0.2,0.1,0.4,0.1c1.8,0.7,6.5,2.6,10.7-2.7c0.3-0.4,0.8-0.4,1.2-0.1c0.4,0.3,0.4,0.8,0.1,1.2
	c-2.1,2.7-4.6,4.1-7.5,4.3c-2.3,0.1-4.2-0.6-5.1-1c-0.1-0.1-0.2-0.1-0.3-0.1c-1.2-0.4-2.6-0.1-3.5,0.9c-1.4,1.6-3.7,2.9-6.1,3.6
	c-0.1,0.7-0.4,1.3-0.9,1.9C53.5,60.1,52,60.9,49.9,61.1z M50,52.7c-0.6,0-1.1,0.2-1.3,0.5c-0.5,0.5,0.2,1.3,0.6,1.8
	c0.9,0.8,2.3,0.9,3.3,0.9c0.4,0,0.8-0.1,1.2-0.1c-0.1-0.7-0.5-1.5-1.3-2.2C51.8,52.8,50.8,52.6,50,52.7z"/>
<path class="st0" d="M113.6,11.4L107,5.9c-0.3-0.3-0.9-0.2-1.2,0.1L78.1,38.8c-0.1,0.2-0.2,0.4-0.2,0.6c0,0.2,0.1,0.4,0.3,0.6
	l6.6,5.5c0.2,0.2,0.4,0.2,0.6,0.2s0.4-0.1,0.6-0.3l27.7-32.8C114,12.2,113.9,11.7,113.6,11.4z"/>
<path class="st0" d="M77.5,49.8c-0.4,0-0.7-0.1-1-0.3c-0.4-0.3-0.6-0.8-0.6-1.4l1.3-9c0.1-0.5,0.4-1,0.9-1.1c0.5-0.2,1-0.1,1.4,0.2
	l6.6,5.5c0.4,0.3,0.6,0.8,0.5,1.3s-0.4,0.9-0.8,1.1L78,49.7C77.8,49.8,77.7,49.8,77.5,49.8z M79.8,42.1L79.2,46l3.4-1.5L79.8,42.1z"
	/>
<path class="st0" d="M113.1,13.5L113.1,13.5c-0.4,0-0.8-0.1-1.1-0.3l-6.6-5.5c-0.6-0.5-0.7-1.4-0.2-2l3.4-4.1
	c0.7-0.8,1.6-1.3,2.6-1.4s2,0.2,2.8,0.9l2.9,2.4c1.6,1.4,1.8,3.8,0.5,5.5l-3.4,4.1C113.9,13.3,113.5,13.5,113.1,13.5z M108.5,6.3
	l4.4,3.7l2.5-3c0.3-0.4,0.3-1-0.1-1.4l-2.9-2.4c-0.2-0.2-0.5-0.3-0.7-0.2c-0.3,0-0.5,0.1-0.7,0.3L108.5,6.3z"/>
<path class="st0" d="M117.2,15.5c-0.4,0-0.8-0.1-1.1-0.3l-3.4-2.9c-0.6-0.5-0.7-1.4-0.2-2l2.4-2.8c0.2-0.3,0.6-0.5,1-0.5l0,0
	c0.4,0,0.8,0.1,1.1,0.3l3.4,2.9c0.6,0.5,0.7,1.4,0.2,2l-2.4,2.8C118,15.3,117.6,15.5,117.2,15.5z M115.7,11.1l1.2,1l0.5-0.6l-1.2-1
	L115.7,11.1z"/>
<path class="st0" d="M107,33.4c-0.4,0-0.8-0.1-1.1-0.3c-1.1-0.9-1.7-2.1-1.8-3.5c-0.1-1.4,0.3-2.7,1.2-3.8l13-15.4
	c0.5-0.6,1.4-0.7,2-0.2l2.9,2.4c0.3,0.2,0.5,0.6,0.5,1s-0.1,0.8-0.3,1.1L108,32.9C107.8,33.2,107.4,33.4,107,33.4z M119.6,13.3
	l-12.1,14.3c-0.4,0.5-0.6,1.1-0.5,1.7c0,0.1,0,0.2,0,0.2l13.2-15.7L119.6,13.3z"/>
</svg>
