<svg xmlns="http://www.w3.org/2000/svg" viewBox="0 0 548.8 78.93"><defs><style>.cls-1{fill:#fcb216;}</style></defs><title>complete-free</title><g id="Layer_2" data-name="Layer 2"><g id="Layer_1-2" data-name="Layer 1"><path class="cls-1" d="M25.59,20.66a11.08,11.08,0,0,1-1.72,5.64,10.41,10.41,0,0,1-4.42,3.79A15.1,15.1,0,0,1,13,31.43a12,12,0,0,1-9.49-3.92Q0,23.58,0,16.42V14.91A18.58,18.58,0,0,1,1.56,7a11.9,11.9,0,0,1,4.51-5.2A12.5,12.5,0,0,1,12.87,0a13.22,13.22,0,0,1,9,2.93A11.58,11.58,0,0,1,25.66,11H18.31A5.5,5.5,0,0,0,16.9,7a5.78,5.78,0,0,0-4-1.22,4.41,4.41,0,0,0-4,2.06Q7.57,9.88,7.5,14.4v2.17q0,4.89,1.22,7A4.5,4.5,0,0,0,13,25.66a5.66,5.66,0,0,0,3.89-1.2,5.11,5.11,0,0,0,1.43-3.8Z"/><path class="cls-1" d="M55,16.36a17.93,17.93,0,0,1-1.66,7.91,12.26,12.26,0,0,1-4.72,5.3,13.07,13.07,0,0,1-7,1.86,13.35,13.35,0,0,1-6.93-1.79A12.25,12.25,0,0,1,30,24.5a17.5,17.5,0,0,1-1.77-7.66V15.12a18.1,18.1,0,0,1,1.65-7.93,12.24,12.24,0,0,1,4.72-5.3,13.19,13.19,0,0,1,7-1.87,13.11,13.11,0,0,1,6.93,1.85,12.44,12.44,0,0,1,4.74,5.26A17.74,17.74,0,0,1,55,15Zm-7.5-1.28q0-4.56-1.52-6.92a4.89,4.89,0,0,0-4.36-2.37q-5.54,0-5.85,8.32l0,2.25a13.14,13.14,0,0,0,1.5,6.9,5.18,5.18,0,0,0,8.73,0,12.84,12.84,0,0,0,1.53-6.83Z"/><path class="cls-1" d="M68.45.44l6.82,21.27L82.07.44h9.7V31H84.38V23.87L85.1,9.26,77.71,31H72.83L65.42,9.24l.72,14.63V31H58.77V.44Z"/><path class="cls-1" d="M103.83,20.64V31H96.46V.44h12.2a14.23,14.23,0,0,1,6.2,1.29A9.75,9.75,0,0,1,119,5.41a10.09,10.09,0,0,1,1.48,5.4,8.86,8.86,0,0,1-3.2,7.15q-3.21,2.68-8.79,2.68Zm0-5.69h4.83a4.57,4.57,0,0,0,3.26-1.07,4,4,0,0,0,1.12-3,4.94,4.94,0,0,0-1.15-3.43,4.12,4.12,0,0,0-3.15-1.3h-4.91Z"/><path class="cls-1" d="M131.81,25.34h12.83V31h-20.2V.44h7.37Z"/><path class="cls-1" d="M166.71,18H155.12v7.3h13.69V31H147.75V.44h21.1V6.13H155.12v6.45h11.59Z"/><path class="cls-1" d="M196.23,6.13h-9.18V31h-7.37V6.13h-9V.44h25.55Z"/><path class="cls-1" d="M218.3,18H206.71v7.3H220.4V31H199.34V.44h21.1V6.13H206.71v6.45H218.3Z"/><path class="cls-1" d="M253.36,18.83H241.48V31h-7.37V.44h20.45V6.13H241.48v7h11.88Z"/><path class="cls-1" d="M269,20.2h-4V31h-7.37V.44h12c3.63,0,6.46.81,8.51,2.41a8.18,8.18,0,0,1,3.06,6.82A10,10,0,0,1,279.93,15a9.17,9.17,0,0,1-4,3.39l6.38,12.35V31h-7.89Zm-4-5.67h4.66a4.16,4.16,0,0,0,3.16-1.11,4.24,4.24,0,0,0,1.06-3.08,4.28,4.28,0,0,0-1.07-3.1,4.14,4.14,0,0,0-3.15-1.13H265Z"/><path class="cls-1" d="M304.63,18H293v7.3h13.69V31H285.67V.44h21.1V6.13H293v6.45h11.59Z"/><path class="cls-1" d="M328.69,18H317.1v7.3h13.69V31H309.73V.44h21.1V6.13H317.1v6.45h11.59Z"/><path class="cls-1" d="M370.39,16.36a17.93,17.93,0,0,1-1.66,7.91,12.17,12.17,0,0,1-4.71,5.3,13.13,13.13,0,0,1-7,1.86,13.4,13.4,0,0,1-6.93-1.79,12.23,12.23,0,0,1-4.71-5.14,17.5,17.5,0,0,1-1.78-7.66V15.12a18.1,18.1,0,0,1,1.65-7.93A12.2,12.2,0,0,1,350,1.89a14,14,0,0,1,13.93,0,12.42,12.42,0,0,1,4.73,5.26A17.47,17.47,0,0,1,370.39,15Zm-7.49-1.28q0-4.56-1.53-6.92A4.86,4.86,0,0,0,357,5.79q-5.55,0-5.86,8.32l0,2.25a13.24,13.24,0,0,0,1.49,6.9,4.87,4.87,0,0,0,4.43,2.42,4.8,4.8,0,0,0,4.3-2.37,12.93,12.93,0,0,0,1.54-6.83Z"/><path class="cls-1" d="M385.55,20.2h-4V31h-7.37V.44h12c3.63,0,6.46.81,8.51,2.41a8.18,8.18,0,0,1,3.06,6.82A10,10,0,0,1,396.5,15a9.17,9.17,0,0,1-4,3.39l6.38,12.35V31H391Zm-4-5.67h4.66a4.16,4.16,0,0,0,3.16-1.11,4.24,4.24,0,0,0,1.06-3.08,4.28,4.28,0,0,0-1.07-3.1,4.14,4.14,0,0,0-3.15-1.13h-4.66Z"/><path class="cls-1" d="M437.68,20.66A11.08,11.08,0,0,1,436,26.3a10.41,10.41,0,0,1-4.42,3.79,15.1,15.1,0,0,1-6.5,1.34,12,12,0,0,1-9.49-3.92q-3.45-3.93-3.46-11.09V14.91A18.58,18.58,0,0,1,413.65,7a11.9,11.9,0,0,1,4.51-5.2A12.53,12.53,0,0,1,425,0a13.22,13.22,0,0,1,9,2.93A11.58,11.58,0,0,1,437.75,11H430.4A5.5,5.5,0,0,0,429,7a5.78,5.78,0,0,0-4-1.22,4.41,4.41,0,0,0-4,2.06q-1.28,2.05-1.34,6.57v2.17q0,4.89,1.22,7a4.5,4.5,0,0,0,4.23,2.1,5.66,5.66,0,0,0,3.89-1.2,5.08,5.08,0,0,0,1.43-3.8Z"/><path class="cls-1" d="M466.72,31h-7.33V18.25H448.54V31h-7.37V.44h7.37V12.58h10.85V.44h7.33Z"/><path class="cls-1" d="M490.34,18H478.75v7.3h13.69V31H471.38V.44h21.1V6.13H478.75v6.45h11.59Z"/><path class="cls-1" d="M512.81,25.3h-10.1L501,31h-7.88L504.28.44h6.93L522.51,31h-7.92Zm-8.34-5.69H511L507.75,9Z"/><path class="cls-1" d="M532.1,20.64V31h-7.37V.44h12.2a14.24,14.24,0,0,1,6.21,1.29,9.75,9.75,0,0,1,4.18,3.68,10.09,10.09,0,0,1,1.48,5.4A8.83,8.83,0,0,1,545.59,18q-3.2,2.68-8.78,2.68Zm0-5.69h4.83a4.58,4.58,0,0,0,3.27-1.07,4,4,0,0,0,1.12-3,4.94,4.94,0,0,0-1.15-3.43A4.12,4.12,0,0,0,537,6.13H532.1Z"/><path class="cls-1" d="M85.49,63.86a18.07,18.07,0,0,1-1.66,7.91,12.26,12.26,0,0,1-4.72,5.3,13.08,13.08,0,0,1-7,1.86,13.4,13.4,0,0,1-6.93-1.79A12.3,12.3,0,0,1,60.51,72a17.36,17.36,0,0,1-1.77-7.66V62.62a18.24,18.24,0,0,1,1.64-7.93,12.21,12.21,0,0,1,4.73-5.3,14,14,0,0,1,13.93,0,12.35,12.35,0,0,1,4.73,5.26,17.61,17.61,0,0,1,1.72,7.82ZM78,62.58q0-4.56-1.52-6.92a4.89,4.89,0,0,0-4.36-2.37q-5.53,0-5.86,8.32l0,2.25a13.24,13.24,0,0,0,1.49,6.9,4.89,4.89,0,0,0,4.43,2.42,4.83,4.83,0,0,0,4.31-2.37A12.84,12.84,0,0,0,78,64Z"/><path class="cls-1" d="M108.54,66.33H96.66V78.51H89.29V47.94h20.45v5.69H96.66v7h11.88Z"/><path class="cls-1" d="M132.06,66.33H120.17V78.51H112.8V47.94h20.45v5.69H120.17v7h11.89Z"/><path class="cls-1" d="M155.28,65.54H143.69v7.3h13.69v5.67H136.32V47.94h21.1v5.69H143.69v6.45h11.59Z"/><path class="cls-1" d="M171.74,67.7h-4V78.51h-7.37V47.94h12c3.62,0,6.46.8,8.5,2.41A8.16,8.16,0,0,1,184,57.17a9.91,9.91,0,0,1-1.29,5.28,9.12,9.12,0,0,1-4,3.4L185,78.2v.31h-7.9Zm-4-5.67h4.66a4.18,4.18,0,0,0,3.16-1.11,4.24,4.24,0,0,0,1.06-3.08,4.32,4.32,0,0,0-1.07-3.1,4.15,4.15,0,0,0-3.15-1.13h-4.66Z"/><path class="cls-1" d="M204.2,70.39a3,3,0,0,0-1.15-2.52A13.81,13.81,0,0,0,199,66a39.82,39.82,0,0,1-4.7-1.87q-5.94-2.92-5.94-8a7.14,7.14,0,0,1,1.48-4.48,9.48,9.48,0,0,1,4.19-3,16.28,16.28,0,0,1,6.09-1.08,14.21,14.21,0,0,1,5.91,1.18A9.41,9.41,0,0,1,210.12,52a8.81,8.81,0,0,1,1.45,5h-7.35a3.68,3.68,0,0,0-1.15-2.9,4.47,4.47,0,0,0-3.09-1,5,5,0,0,0-3.12.88A2.56,2.56,0,0,0,197,58.3a15.71,15.71,0,0,0,4.43,2,27.55,27.55,0,0,1,5.2,2.19q5,2.85,5,7.87a7.45,7.45,0,0,1-3,6.3c-2,1.53-4.78,2.29-8.29,2.29a16.43,16.43,0,0,1-6.73-1.33A10.09,10.09,0,0,1,189,73.94a9.45,9.45,0,0,1-1.53-5.34h7.39a4.66,4.66,0,0,0,1.28,3.62,6,6,0,0,0,4.12,1.17,4.72,4.72,0,0,0,2.89-.79A2.6,2.6,0,0,0,204.2,70.39Z"/><path class="cls-1" d="M248.79,53.63h-9.17V78.51h-7.37V53.63h-9V47.94h25.55Z"/><path class="cls-1" d="M277.2,63.86a17.93,17.93,0,0,1-1.66,7.91,12.17,12.17,0,0,1-4.71,5.3,13.13,13.13,0,0,1-7,1.86,13.37,13.37,0,0,1-6.93-1.79A12.17,12.17,0,0,1,252.23,72a17.5,17.5,0,0,1-1.78-7.66V62.62a18.1,18.1,0,0,1,1.65-7.93,12.15,12.15,0,0,1,4.73-5.3,14,14,0,0,1,13.92,0,12.44,12.44,0,0,1,4.74,5.26,17.47,17.47,0,0,1,1.71,7.82Zm-7.49-1.28q0-4.56-1.53-6.92a4.86,4.86,0,0,0-4.35-2.37q-5.55,0-5.86,8.32l0,2.25a13.15,13.15,0,0,0,1.49,6.9,4.87,4.87,0,0,0,4.43,2.42,4.8,4.8,0,0,0,4.3-2.37A12.93,12.93,0,0,0,269.71,64Z"/><path class="cls-1" d="M299.08,72.84h12.83v5.67h-20.2V47.94h7.37Z"/><path class="cls-1" d="M334,65.54H322.38v7.3h13.69v5.67H315V47.94h21.11v5.69H322.38v6.45H334Z"/><path class="cls-1" d="M350.94,70.2,357,47.94h8.23L355,78.51h-8.06L336.7,47.94h8.17Z"/><path class="cls-1" d="M386.44,65.54H374.85v7.3h13.69v5.67H367.48V47.94h21.1v5.69H374.85v6.45h11.59Z"/><path class="cls-1" d="M398.92,72.84h12.82v5.67H391.55V47.94h7.37Z"/><path class="cls-1" d="M449.54,47.94V68a11.56,11.56,0,0,1-1.45,5.89,9.4,9.4,0,0,1-4.16,3.79,14.59,14.59,0,0,1-6.4,1.3q-5.59,0-8.8-2.9a10.35,10.35,0,0,1-3.28-7.93V47.94h7.42v20.3q.12,5,4.66,5A4.5,4.5,0,0,0,441,72a5.84,5.84,0,0,0,1.18-4.09v-20Z"/><path class="cls-1" d="M461.5,68.14V78.51h-7.36V47.94h12.19a14.24,14.24,0,0,1,6.21,1.29,9.75,9.75,0,0,1,4.18,3.68,10.09,10.09,0,0,1,1.48,5.4,8.86,8.86,0,0,1-3.2,7.15q-3.21,2.69-8.79,2.68Zm0-5.69h4.83a4.58,4.58,0,0,0,3.27-1.07,4,4,0,0,0,1.12-3,4.93,4.93,0,0,0-1.15-3.42,4.09,4.09,0,0,0-3.15-1.3H461.5Z"/><path class="cls-1" d="M482,75.34a3.24,3.24,0,0,1,1.12-2.55,4.43,4.43,0,0,1,5.61,0,3.46,3.46,0,0,1,0,5.1,4.43,4.43,0,0,1-5.61,0A3.24,3.24,0,0,1,482,75.34Zm6.84-6.51h-5.73l-.9-20.89h7.53Z"/></g></g></svg>