<svg xmlns="http://www.w3.org/2000/svg" viewBox="0 0 36.33 36.34"><defs><style>.cls-1{fill:#fcc916;}.cls-2{fill:#fff;}</style></defs><title>credits-symbol</title><g id="Layer_2" data-name="Layer 2"><g id="Layer_1-2" data-name="Layer 1"><circle class="cls-1" cx="18.17" cy="18.17" r="18.17"/><path class="cls-2" d="M18.53,28.52a10.44,10.44,0,0,1-4.09-.8,10.07,10.07,0,0,1-3.26-2.19A9.94,9.94,0,0,1,9,22.25a10.57,10.57,0,0,1-.77-4v-.05a10.48,10.48,0,0,1,.77-4,10.28,10.28,0,0,1,2.14-3.29,10,10,0,0,1,3.29-2.23,10.67,10.67,0,0,1,4.23-.81A13.11,13.11,0,0,1,21.26,8a10.8,10.8,0,0,1,2.1.63,9,9,0,0,1,1.74,1,12.21,12.21,0,0,1,1.49,1.26l-2.8,3.23a10.53,10.53,0,0,0-2.39-1.66,6.05,6.05,0,0,0-2.73-.6,5.63,5.63,0,0,0-2.33.49A5.53,5.53,0,0,0,14.5,13.7a6.29,6.29,0,0,0-1.2,2,6.7,6.7,0,0,0-.43,2.42v.06a6.82,6.82,0,0,0,.43,2.43,6.35,6.35,0,0,0,1.19,2A5.64,5.64,0,0,0,16.31,24a5.54,5.54,0,0,0,2.36.5,6,6,0,0,0,2.9-.63,11.16,11.16,0,0,0,2.36-1.71l2.8,2.83a14.08,14.08,0,0,1-1.6,1.48,9.09,9.09,0,0,1-1.81,1.13,9.53,9.53,0,0,1-2.16.72A13.14,13.14,0,0,1,18.53,28.52Z"/></g></g></svg>