<svg xmlns="http://www.w3.org/2000/svg" viewBox="0 0 547.16 78.93"><defs><style>.cls-1{fill:#fcb216;}</style></defs><title>each-level</title><g id="Layer_2" data-name="Layer 2"><g id="Layer_1-2" data-name="Layer 1"><path class="cls-1" d="M52,18H40.4v7.3H54.09V31H33V.44h21.1V6.13H40.4v6.45H52Z"/><path class="cls-1" d="M74.45,25.3H64.35L62.59,31H54.72L65.93.44h6.93L84.15,31H76.24Zm-8.33-5.69h6.57L69.39,9Z"/><path class="cls-1" d="M110.67,20.66A11.18,11.18,0,0,1,109,26.3a10.41,10.41,0,0,1-4.42,3.79A15.13,15.13,0,0,1,98,31.43a12,12,0,0,1-9.49-3.93q-3.47-3.91-3.46-11.08V14.91A18.58,18.58,0,0,1,86.64,7a11.82,11.82,0,0,1,4.5-5.2A12.54,12.54,0,0,1,98,0a13.17,13.17,0,0,1,8.94,2.93A11.54,11.54,0,0,1,110.73,11h-7.35A5.46,5.46,0,0,0,102,7a5.8,5.8,0,0,0-4-1.22,4.39,4.39,0,0,0-4,2.06q-1.29,2.05-1.35,6.57v2.17q0,4.89,1.23,7A4.5,4.5,0,0,0,98,25.66a5.68,5.68,0,0,0,3.89-1.2,5.07,5.07,0,0,0,1.42-3.8Z"/><path class="cls-1" d="M139.71,31h-7.33V18.25H121.53V31h-7.37V.44h7.37V12.58h10.85V.44h7.33Z"/><path class="cls-1" d="M162.45,25.34h12.83V31h-20.2V.44h7.37Z"/><path class="cls-1" d="M197.34,18H185.75v7.3h13.69V31H178.38V.44h21.1V6.13H185.75v6.45h11.59Z"/><path class="cls-1" d="M214.31,22.7,220.4.44h8.23L218.34,31h-8.06L200.07.44h8.17Z"/><path class="cls-1" d="M249.81,18H238.22v7.3h13.69V31H230.85V.44H252V6.13H238.22v6.45h11.59Z"/><path class="cls-1" d="M262.28,25.34h12.83V31h-20.2V.44h7.37Z"/><path class="cls-1" d="M296.78,31h-7.35V.44h7.35Z"/><path class="cls-1" d="M327.43,31h-7.32L309.27,12V31H301.9V.44h7.37l10.82,19V.44h7.34Z"/><path class="cls-1" d="M356.83,20.66a11.18,11.18,0,0,1-1.72,5.64,10.47,10.47,0,0,1-4.42,3.79,15.13,15.13,0,0,1-6.5,1.34,12,12,0,0,1-9.49-3.93q-3.46-3.91-3.47-11.08V14.91A18.58,18.58,0,0,1,332.8,7a11.82,11.82,0,0,1,4.5-5.2A12.54,12.54,0,0,1,344.11,0a13.21,13.21,0,0,1,8.94,2.93A11.58,11.58,0,0,1,356.89,11h-7.35a5.46,5.46,0,0,0-1.4-4,5.81,5.81,0,0,0-4-1.22,4.42,4.42,0,0,0-4,2.06q-1.27,2.05-1.34,6.57v2.17q0,4.89,1.23,7a4.5,4.5,0,0,0,4.23,2.1,5.63,5.63,0,0,0,3.88-1.2,5,5,0,0,0,1.43-3.8Z"/><path class="cls-1" d="M371.67,20.2h-4V31h-7.37V.44h12c3.63,0,6.46.8,8.51,2.41a8.18,8.18,0,0,1,3.06,6.82A9.91,9.91,0,0,1,382.62,15a9.12,9.12,0,0,1-4,3.4L385,30.7V31h-7.89Zm-4-5.67h4.66a4.16,4.16,0,0,0,3.16-1.11,4.24,4.24,0,0,0,1.06-3.08,4.28,4.28,0,0,0-1.07-3.1,4.1,4.1,0,0,0-3.15-1.13h-4.66Z"/><path class="cls-1" d="M407.32,18H395.73v7.3h13.69V31H388.37V.44h21.09V6.13H395.73v6.45h11.59Z"/><path class="cls-1" d="M429.79,25.3h-10.1L417.93,31h-7.88L421.27.44h6.93L439.49,31h-7.92Zm-8.33-5.69H428L424.73,9Z"/><path class="cls-1" d="M457.48,22.88a3,3,0,0,0-1.14-2.51,13.81,13.81,0,0,0-4-1.87,39.12,39.12,0,0,1-4.7-1.87q-6-2.92-5.95-8a7.2,7.2,0,0,1,1.48-4.48,9.59,9.59,0,0,1,4.19-3A16.35,16.35,0,0,1,453.43,0a14.14,14.14,0,0,1,5.91,1.18,9.35,9.35,0,0,1,4.06,3.34,8.74,8.74,0,0,1,1.45,5H457.5a3.72,3.72,0,0,0-1.14-2.9,4.5,4.5,0,0,0-3.1-1,5.07,5.07,0,0,0-3.12.88A2.67,2.67,0,0,0,449,8.67a2.67,2.67,0,0,0,1.26,2.13,15.85,15.85,0,0,0,4.43,2A27.68,27.68,0,0,1,459.9,15q5,2.85,5,7.87a7.44,7.44,0,0,1-3,6.3q-3,2.3-8.29,2.29a16.4,16.4,0,0,1-6.73-1.33,10.18,10.18,0,0,1-4.54-3.66,9.52,9.52,0,0,1-1.52-5.34h7.39a4.66,4.66,0,0,0,1.27,3.62,6,6,0,0,0,4.13,1.17,4.69,4.69,0,0,0,2.88-.79A2.58,2.58,0,0,0,457.48,22.88Z"/><path class="cls-1" d="M487.59,18H476v7.3h13.69V31H468.63V.44h21.1V6.13H476v6.45h11.59Z"/><path class="cls-1" d="M508.46,22.88a3,3,0,0,0-1.14-2.51,14.08,14.08,0,0,0-4-1.87,40.05,40.05,0,0,1-4.71-1.87q-5.94-2.92-5.94-8a7.14,7.14,0,0,1,1.48-4.48,9.59,9.59,0,0,1,4.19-3A16.35,16.35,0,0,1,504.41,0a14.14,14.14,0,0,1,5.91,1.18,9.35,9.35,0,0,1,4.06,3.34,8.74,8.74,0,0,1,1.45,5h-7.35a3.72,3.72,0,0,0-1.14-2.9,4.5,4.5,0,0,0-3.1-1,5.07,5.07,0,0,0-3.12.88A2.67,2.67,0,0,0,500,8.67a2.67,2.67,0,0,0,1.26,2.13,15.85,15.85,0,0,0,4.43,2A27.68,27.68,0,0,1,510.88,15q4.95,2.85,5,7.87a7.46,7.46,0,0,1-3,6.3q-3,2.3-8.29,2.29a16.4,16.4,0,0,1-6.73-1.33,10.18,10.18,0,0,1-4.54-3.66,9.44,9.44,0,0,1-1.52-5.34h7.39a4.66,4.66,0,0,0,1.27,3.62,6,6,0,0,0,4.13,1.17,4.69,4.69,0,0,0,2.88-.79A2.58,2.58,0,0,0,508.46,22.88Z"/><path class="cls-1" d="M13.56,61.21l5.63-13.27h8L17.3,67.53v11H9.83v-11L0,47.94H7.92Z"/><path class="cls-1" d="M54.65,63.85A18,18,0,0,1,53,71.77a12.17,12.17,0,0,1-4.71,5.3,13.13,13.13,0,0,1-7,1.86,13.31,13.31,0,0,1-6.93-1.8A12.15,12.15,0,0,1,29.68,72a17.5,17.5,0,0,1-1.78-7.66V62.62a18.1,18.1,0,0,1,1.65-7.93,12.21,12.21,0,0,1,4.73-5.3,13.16,13.16,0,0,1,7-1.87,13.11,13.11,0,0,1,6.93,1.85,12.42,12.42,0,0,1,4.73,5.26,17.47,17.47,0,0,1,1.71,7.82Zm-7.49-1.28c0-3-.51-5.34-1.53-6.91a4.86,4.86,0,0,0-4.35-2.37q-5.55,0-5.86,8.32l0,2.24a13.26,13.26,0,0,0,1.49,6.91,4.87,4.87,0,0,0,4.43,2.42,4.82,4.82,0,0,0,4.31-2.38A13,13,0,0,0,47.16,64Z"/><path class="cls-1" d="M82.43,47.94V68A11.46,11.46,0,0,1,81,73.84a9.34,9.34,0,0,1-4.16,3.79,14.59,14.59,0,0,1-6.4,1.3q-5.58,0-8.8-2.9a10.31,10.31,0,0,1-3.27-7.93V47.94h7.41v20.3c.08,3.35,1.64,5,4.66,5A4.49,4.49,0,0,0,73.88,72a5.84,5.84,0,0,0,1.18-4.09v-20Z"/><path class="cls-1" d="M98.39,67.7h-4V78.51H87V47.94h12c3.62,0,6.46.8,8.5,2.41a8.16,8.16,0,0,1,3.07,6.82,9.93,9.93,0,0,1-1.29,5.28,9.16,9.16,0,0,1-4,3.4l6.39,12.34v.32h-7.9ZM94.4,62h4.66a4.18,4.18,0,0,0,3.16-1.11,4.24,4.24,0,0,0,1.06-3.08,4.37,4.37,0,0,0-1.07-3.11,4.13,4.13,0,0,0-3.15-1.12H94.4Z"/><path class="cls-1" d="M144.75,65.53H133.16v7.31h13.69v5.67H125.79V47.94h21.1v5.69H133.16v6.45h11.59Z"/><path class="cls-1" d="M167.21,72.8h-10.1l-1.76,5.71h-7.87l11.21-30.57h6.93l11.29,30.57H169Zm-8.33-5.69h6.57l-3.3-10.6Z"/><path class="cls-1" d="M190.5,67.7h-4V78.51h-7.37V47.94h12c3.62,0,6.46.8,8.5,2.41a8.16,8.16,0,0,1,3.07,6.82,9.93,9.93,0,0,1-1.29,5.28,9.19,9.19,0,0,1-4,3.4l6.38,12.34v.32h-7.9Zm-4-5.67h4.66a4.18,4.18,0,0,0,3.16-1.11,4.24,4.24,0,0,0,1.06-3.08,4.37,4.37,0,0,0-1.07-3.11,4.15,4.15,0,0,0-3.15-1.12h-4.66Z"/><path class="cls-1" d="M232.72,78.51h-7.33l-10.83-19v19h-7.37V47.94h7.37l10.81,19v-19h7.35Z"/><path class="cls-1" d="M245.23,78.51h-7.34V47.94h7.34Z"/><path class="cls-1" d="M275.89,78.51h-7.33l-10.83-19v19h-7.37V47.94h7.37l10.81,19v-19h7.35Z"/><path class="cls-1" d="M305.58,74.73a12,12,0,0,1-5,3,21.71,21.71,0,0,1-7.18,1.15,12.83,12.83,0,0,1-9.6-3.67Q280.24,71.59,280,65l0-2.65a18.17,18.17,0,0,1,1.6-7.88,11.86,11.86,0,0,1,4.56-5.19A12.94,12.94,0,0,1,293,47.5c3.81,0,6.76.87,8.87,2.61s3.34,4.35,3.69,7.8h-7.1a5.8,5.8,0,0,0-1.64-3.65,5.27,5.27,0,0,0-3.57-1.09A4.8,4.8,0,0,0,289,55.52a12.51,12.51,0,0,0-1.53,6.72v1.85q0,4.57,1.56,6.87a5.53,5.53,0,0,0,4.92,2.3A6.23,6.23,0,0,0,298.21,72V67.23h-5.13V62.17h12.5Z"/><path class="cls-1" d="M327.94,68.14V78.51h-7.37V47.94h12.2a14.2,14.2,0,0,1,6.2,1.29,9.75,9.75,0,0,1,4.18,3.68,10,10,0,0,1,1.48,5.4,8.86,8.86,0,0,1-3.2,7.15c-2.14,1.79-5.06,2.68-8.79,2.68Zm0-5.69h4.83A4.56,4.56,0,0,0,336,61.38a4,4,0,0,0,1.13-3A4.94,4.94,0,0,0,336,54.93a4.09,4.09,0,0,0-3.15-1.3h-4.91Z"/><path class="cls-1" d="M374.44,63.85a18.12,18.12,0,0,1-1.65,7.92,12.26,12.26,0,0,1-4.72,5.3,13.11,13.11,0,0,1-7,1.86,13.31,13.31,0,0,1-6.93-1.8A12.21,12.21,0,0,1,349.47,72a17.36,17.36,0,0,1-1.77-7.66V62.62a18.1,18.1,0,0,1,1.64-7.93,12.21,12.21,0,0,1,4.73-5.3,14,14,0,0,1,13.93,0,12.35,12.35,0,0,1,4.73,5.26,17.47,17.47,0,0,1,1.71,7.82ZM367,62.57c0-3-.51-5.34-1.52-6.91a4.89,4.89,0,0,0-4.36-2.37q-5.54,0-5.86,8.32l0,2.24a13.26,13.26,0,0,0,1.49,6.91,4.89,4.89,0,0,0,4.43,2.42,4.82,4.82,0,0,0,4.31-2.38A12.87,12.87,0,0,0,367,64Z"/><path class="cls-1" d="M400.46,53.63h-9.18V78.51h-7.37V53.63h-9V47.94h25.55Z"/><path class="cls-1" d="M422.53,65.53H410.94v7.31h13.69v5.67H403.57V47.94h21.1v5.69H410.94v6.45h11.59Z"/><path class="cls-1" d="M453.16,78.51h-7.33L435,59.49v19h-7.37V47.94H435l10.81,19v-19h7.35Z"/><path class="cls-1" d="M481.21,53.63H472V78.51h-7.37V53.63h-9V47.94h25.55Z"/><path class="cls-1" d="M492.17,78.51h-7.35V47.94h7.35Z"/><path class="cls-1" d="M515,72.8h-10.1l-1.77,5.71H495.3l11.21-30.57h6.93l11.29,30.57h-7.91Zm-8.34-5.69h6.57L510,56.51Z"/><path class="cls-1" d="M534.33,72.84h12.83v5.67H527V47.94h7.37Z"/></g></g></svg>