<svg xmlns="http://www.w3.org/2000/svg" viewBox="0 0 36.33 36.34"><defs><style>.cls-1{fill:#fcc916;}.cls-2{fill:#fff;}</style></defs><title>earnings-symbol</title><g id="Layer_2" data-name="Layer 2"><g id="Layer_1-2" data-name="Layer 1"><circle class="cls-1" cx="18.17" cy="18.17" r="18.17"/><path class="cls-2" d="M17,27.51a14,14,0,0,1-3.59-.93,13.62,13.62,0,0,1-3.16-1.78l2.23-3.26A17.58,17.58,0,0,0,14.78,23a8.54,8.54,0,0,0,2.39.84V19.31a19.37,19.37,0,0,1-2.71-.94,6.61,6.61,0,0,1-1.91-1.22,4.65,4.65,0,0,1-1.15-1.68A5.84,5.84,0,0,1,11,13.25v-.06A5.28,5.28,0,0,1,11.45,11a4.91,4.91,0,0,1,1.21-1.69,6.33,6.33,0,0,1,1.91-1.16A9.2,9.2,0,0,1,17,7.59V5.93h3V7.64a12.59,12.59,0,0,1,2.85.76,12.3,12.3,0,0,1,2.47,1.36L23.4,13.1a16.94,16.94,0,0,0-1.75-1,9.17,9.17,0,0,0-1.8-.67v4.31a10.85,10.85,0,0,1,4.73,2.32,5.08,5.08,0,0,1,1.48,3.83v.06a5.2,5.2,0,0,1-.45,2.17,5.08,5.08,0,0,1-1.23,1.69A6.32,6.32,0,0,1,22.48,27a8.8,8.8,0,0,1-2.49.6V30.4H17Zm.14-16.36a2.6,2.6,0,0,0-1.51.62,1.57,1.57,0,0,0-.47,1.15V13a1.63,1.63,0,0,0,.4,1.12,3.75,3.75,0,0,0,1.57.91ZM19.85,24c1.35-.21,2-.82,2-1.83v-.06a1.75,1.75,0,0,0-.43-1.22,4.12,4.12,0,0,0-1.6-.89Z"/></g></g></svg>