<svg xmlns="http://www.w3.org/2000/svg" viewBox="0 0 71.75 21.06"><defs><style>.cls-1{fill:#ffce27;}.cls-2{fill:#f9af2c;}.cls-3{fill:#fcb216;}.cls-4{fill:#fff;}</style></defs><title>featured-offer-element2</title><g id="Layer_2" data-name="Layer 2"><g id="Layer_1_copy" data-name="Layer 1 copy"><polygon class="cls-1" points="46.65 19.39 67.22 21.05 67.22 4.4 46.65 7.82 46.65 19.39"/><polygon class="cls-2" points="46.65 19.39 71.75 16.65 71.75 0 46.65 7.82 46.65 19.39"/><polygon class="cls-3" points="0 13.96 71.75 16.65 71.75 0 0 2.39 0 13.96"/><path class="cls-4" d="M27.37,7.45h1.56v1.1H27.37v3.18H26.16V4h3.2v1.1h-2Z"/><path class="cls-4" d="M31.15,7.27h1.66v1.1H31.15v2.26h2.09v1.1h-3.3V4h3.3v1.1H31.15Z"/><path class="cls-4" d="M37.91,11.73H36.68l-.21-1.4H35l-.21,1.4H33.67L34.9,4h1.77ZM35.14,9.29h1.17l-.58-3.89Z"/><path class="cls-4" d="M38.11,4h3.74v1.1H40.59v6.6H39.38V5.13H38.11Z"/><path class="cls-4" d="M43.54,4V10c0,.56.24.75.63.75s.63-.19.63-.75V4h1.14V9.89c0,1.24-.62,1.94-1.8,1.94s-1.8-.69-1.8-1.94V4Z"/><path class="cls-4" d="M49.29,11.73c0-.05,0-.1,0-.14a1.19,1.19,0,0,1-.05-.42,3.83,3.83,0,0,1,0-.39V9.57c0-.71-.23-1-.79-1H48v3.13H46.76V4h1.83c1.27,0,1.79.58,1.79,1.77V6.4A1.55,1.55,0,0,1,49.59,8c.62.25.8.84.8,1.64v1.19a2.26,2.26,0,0,0,.13.93ZM48,5.13V7.49h.47c.45,0,.73-.2.73-.81V5.92c0-.56-.19-.79-.62-.79Z"/><path class="cls-4" d="M52.39,7.27h1.66v1.1H52.39v2.26h2.09v1.1h-3.3V4h3.3v1.1H52.39Z"/><path class="cls-4" d="M55.23,4h1.91c1.22,0,1.8.66,1.8,1.9V9.83c0,1.24-.58,1.9-1.8,1.9H55.23Zm1.21,1.1v5.5h.68c.38,0,.62-.19.62-.75v-4c0-.56-.23-.75-.62-.75Z"/></g></g></svg>