<svg xmlns="http://www.w3.org/2000/svg" viewBox="0 0 554.36 44.29"><defs><style>.cls-1{fill:#8bc34a;}</style></defs><title>get-started-now</title><g id="Layer_2" data-name="Layer 2"><g id="Layer_1-2" data-name="Layer 1"><path class="cls-1" d="M36.1,38.38a16.85,16.85,0,0,1-7,4.29A30.38,30.38,0,0,1,19,44.29q-8.46,0-13.53-5.17T0,24.71L0,21A25.68,25.68,0,0,1,2.25,9.87,16.7,16.7,0,0,1,8.68,2.56,18.22,18.22,0,0,1,18.38,0q8,0,12.5,3.68t5.19,11h-10q-.54-3.61-2.31-5.15a7.42,7.42,0,0,0-5-1.54,6.78,6.78,0,0,0-6,3.31q-2.13,3.31-2.16,9.47v2.61c0,4.3.74,7.52,2.21,9.68s3.78,3.24,6.94,3.24q4,0,6-1.8V27.81H18.49V20.68H36.1Z"/><path class="cls-1" d="M68.85,25.42H52.52V35.71H71.81v8H42.13V.62H71.87v8H52.52v9.08H68.85Z"/><path class="cls-1" d="M110.46,8.64H97.53V43.7H87.14V8.64H74.45v-8h36Z"/><path class="cls-1" d="M150.37,32.25a4.25,4.25,0,0,0-1.61-3.55,19.66,19.66,0,0,0-5.67-2.63,54,54,0,0,1-6.62-2.64q-8.39-4.11-8.38-11.3a10.16,10.16,0,0,1,2.09-6.32,13.57,13.57,0,0,1,5.9-4.26A23.13,23.13,0,0,1,144.66,0,20,20,0,0,1,153,1.69a13.13,13.13,0,0,1,5.73,4.71,12.37,12.37,0,0,1,2,7H150.4a5.2,5.2,0,0,0-1.61-4.08,6.27,6.27,0,0,0-4.36-1.45A7.1,7.1,0,0,0,140,9.1a3.78,3.78,0,0,0-1.61,3.12,3.77,3.77,0,0,0,1.78,3A22,22,0,0,0,146.44,18a38.25,38.25,0,0,1,7.34,3.1q7,4,7,11.09a10.52,10.52,0,0,1-4.26,8.88q-4.26,3.23-11.69,3.22a23.22,23.22,0,0,1-9.48-1.87,14.35,14.35,0,0,1-6.39-5.15,13.42,13.42,0,0,1-2.15-7.53h10.42c0,2.3.59,4,1.79,5.1s3.13,1.64,5.81,1.64a6.69,6.69,0,0,0,4.07-1.11A3.65,3.65,0,0,0,150.37,32.25Z"/><path class="cls-1" d="M199.91,8.64H187V43.7H176.59V8.64H163.9v-8h36Z"/><path class="cls-1" d="M225.21,35.65H211l-2.48,8.05h-11.1L213.19.62H223L238.88,43.7H227.72Zm-11.75-8h9.26l-4.65-14.94Z"/><path class="cls-1" d="M258,28.46H252.4V43.7H242V.62h17q7.65,0,12,3.4t4.32,9.61a14,14,0,0,1-1.82,7.44,12.87,12.87,0,0,1-5.7,4.79l9,17.4v.44H265.62Zm-5.62-8H259a5.89,5.89,0,0,0,4.45-1.55,6,6,0,0,0,1.49-4.35,6,6,0,0,0-1.51-4.37A5.81,5.81,0,0,0,259,8.61H252.4Z"/><path class="cls-1" d="M313.88,8.64H301V43.7H290.57V8.64h-12.7v-8h36Z"/><path class="cls-1" d="M345,25.42H328.65V35.71h19.29v8H318.26V.62H348v8H328.65v9.08H345Z"/><path class="cls-1" d="M352.17,43.7V.62h13.88a20.38,20.38,0,0,1,10.27,2.59,18.14,18.14,0,0,1,7.11,7.31A22,22,0,0,1,386,21.1v2a22.19,22.19,0,0,1-2.5,10.61,18.29,18.29,0,0,1-7,7.34,20,20,0,0,1-10.13,2.67ZM362.56,8.64V35.71h3.61A8.06,8.06,0,0,0,373,32.53q2.4-3.18,2.4-9.45V21.21c0-4.16-.8-7.29-2.4-9.41a8.22,8.22,0,0,0-7-3.16Z"/><path class="cls-1" d="M442.42,43.7H432.09L416.83,16.89V43.7H406.44V.62h10.39l15.23,26.81V.62h10.36Z"/><path class="cls-1" d="M485.47,23.05a25.42,25.42,0,0,1-2.34,11.16,17.27,17.27,0,0,1-6.64,7.47,19.91,19.91,0,0,1-19.57.08,17.12,17.12,0,0,1-6.64-7.23,24.55,24.55,0,0,1-2.5-10.8V21.3a25.52,25.52,0,0,1,2.32-11.17,17.3,17.3,0,0,1,6.66-7.47,19.73,19.73,0,0,1,19.63,0A17.61,17.61,0,0,1,483.06,10a24.79,24.79,0,0,1,2.41,11Zm-10.56-1.81q0-6.42-2.15-9.75a6.88,6.88,0,0,0-6.13-3.32q-7.81,0-8.26,11.71l0,3.17c0,4.22.7,7.47,2.1,9.73a6.87,6.87,0,0,0,6.24,3.41,6.79,6.79,0,0,0,6.07-3.35c1.42-2.22,2.14-5.43,2.16-9.61Z"/><path class="cls-1" d="M524.21,27.63l4.94-27h10.29L530.3,43.7H519.53l-5.77-24.56L508.11,43.7H497.37L488.2.62h10.32l4.94,27,5.92-27h8.82Z"/><path class="cls-1" d="M543.29,39.23a4.61,4.61,0,0,1,1.58-3.59,6.24,6.24,0,0,1,7.9,0,4.86,4.86,0,0,1,0,7.19,6.27,6.27,0,0,1-7.9,0A4.61,4.61,0,0,1,543.29,39.23Zm9.65-9.17h-8.08L543.59.62h10.62Z"/></g></g></svg>