<svg xmlns="http://www.w3.org/2000/svg" viewBox="0 0 435.49 301.92"><defs><style>.cls-1{fill:#ff9f03;}.cls-2{fill:#ffc306;}.cls-3{fill:#ffa017;}.cls-13,.cls-14,.cls-16,.cls-4,.cls-9{fill:#fff;}.cls-4{opacity:0.2;}.cls-18,.cls-5{fill:#fcb216;}.cls-13,.cls-17,.cls-5{opacity:0.3;}.cls-6{fill:#8e8e8e;}.cls-7,.cls-9{opacity:0.15;}.cls-8{fill:#c2e812;}.cls-10{fill:#3a3a3a;}.cls-11{fill:#197278;}.cls-12{fill:#d2d5dd;}.cls-15{fill:#aa8f66;}.cls-16{opacity:0.1;}</style></defs><title>i-agree-img</title><g id="Layer_2" data-name="Layer 2"><g id="Layer_1-2" data-name="Layer 1"><path class="cls-1" d="M50.17,48.92a17.31,17.31,0,1,1-22-10.83A17.32,17.32,0,0,1,50.17,48.92Z"/><path class="cls-2" d="M47.13,50a14.1,14.1,0,1,1-17.89-8.82A14.11,14.11,0,0,1,47.13,50Z"/><path class="cls-3" d="M35.08,60.74a9.22,9.22,0,0,1-2.51.19,8.8,8.8,0,0,1-2.42-.46l.72-2.58a11.33,11.33,0,0,0,1.78.45,5.82,5.82,0,0,0,1.72,0l-1-2.92a13.66,13.66,0,0,1-1.94,0,4.78,4.78,0,0,1-1.51-.37,3.41,3.41,0,0,1-1.1-.82,4.33,4.33,0,0,1-.73-1.35v0a3.8,3.8,0,0,1-.2-1.5A3.39,3.39,0,0,1,28.31,50a4.15,4.15,0,0,1,1-1.16,6.26,6.26,0,0,1,1.46-.92l-.36-1.06,1.91-.65.37,1.1a8.62,8.62,0,0,1,2-.13,8.72,8.72,0,0,1,1.88.33L36,50.09a11,11,0,0,0-1.34-.27,5.78,5.78,0,0,0-1.31,0l.94,2.77a7.42,7.42,0,0,1,3.55.46,3.47,3.47,0,0,1,1.79,2.14v0a3.71,3.71,0,0,1,.19,1.49A3.65,3.65,0,0,1,39.44,58a4.38,4.38,0,0,1-1,1.16,6,6,0,0,1-1.47.93L37.62,62l-1.91.65ZM31.6,50.2a1.73,1.73,0,0,0-.83.72,1.09,1.09,0,0,0-.05.85v0a1.19,1.19,0,0,0,.5.64,2.65,2.65,0,0,0,1.21.23Zm4.53,7.67c.82-.43,1.13-1,.91-1.62l0,0a1.2,1.2,0,0,0-.54-.69,2.9,2.9,0,0,0-1.23-.23Z"/><path class="cls-4" d="M34,37.19a17.06,17.06,0,0,0-5.78.9,17.31,17.31,0,0,0,6.13,33.7Z"/><path class="cls-3" d="M388,20.35A17.31,17.31,0,1,1,374,.27,17.31,17.31,0,0,1,388,20.35Z"/><path class="cls-2" d="M384.84,19.79A14.1,14.1,0,1,1,373.43,3.43,14.1,14.1,0,0,1,384.84,19.79Z"/><path class="cls-3" d="M369.08,23.43a9.59,9.59,0,0,1-4.19-2.62l1.88-1.91a11,11,0,0,0,1.35,1.25,5.89,5.89,0,0,0,1.49.85l.54-3a12.9,12.9,0,0,1-1.69-.95A4.48,4.48,0,0,1,367.32,16a3.28,3.28,0,0,1-.56-1.25,3.76,3.76,0,0,1,0-1.53v0a3.64,3.64,0,0,1,.55-1.4,3.15,3.15,0,0,1,1-1,4.2,4.2,0,0,1,1.41-.55,6.36,6.36,0,0,1,1.71-.1l.2-1.11,2,.35-.2,1.15a8.4,8.4,0,0,1,1.81.85,7.77,7.77,0,0,1,1.49,1.2l-1.68,2a10.87,10.87,0,0,0-1-.89,5.38,5.38,0,0,0-1.13-.66l-.5,2.88A7.53,7.53,0,0,1,375.26,18a3.49,3.49,0,0,1,.53,2.74v0a3.54,3.54,0,0,1-.55,1.4,3.66,3.66,0,0,1-1,1,4.63,4.63,0,0,1-1.42.56,6.09,6.09,0,0,1-1.73.1l-.34,1.89-2-.35Zm2-10.91a1.71,1.71,0,0,0-1.08.23,1.1,1.1,0,0,0-.45.72v0a1.19,1.19,0,0,0,.14.81,2.53,2.53,0,0,0,.94.78Zm.27,8.89c.93,0,1.46-.3,1.57-1v0a1.21,1.21,0,0,0-.14-.87,3,3,0,0,0-1-.79Z"/><path class="cls-4" d="M379.49,2.27a17.56,17.56,0,0,0-5.5-2,17.31,17.31,0,0,0-10.88,32.48Z"/><path class="cls-1" d="M57.5,100.54A7.6,7.6,0,1,1,48,95.47,7.6,7.6,0,0,1,57.5,100.54Z"/><path class="cls-2" d="M56.15,101a6.18,6.18,0,1,1-7.71-4.13A6.18,6.18,0,0,1,56.15,101Z"/><path class="cls-3" d="M50.71,105.5a4.07,4.07,0,0,1-2.16-.19l.36-1.12a5.37,5.37,0,0,0,.77.22,2.66,2.66,0,0,0,.75,0l-.39-1.3a5.67,5.67,0,0,1-.85,0,2.27,2.27,0,0,1-.65-.19,1.34,1.34,0,0,1-.47-.38,1.69,1.69,0,0,1-.3-.6h0a1.51,1.51,0,0,1-.06-.66,1.34,1.34,0,0,1,.2-.58,1.72,1.72,0,0,1,.44-.5,2.92,2.92,0,0,1,.65-.38l-.14-.47.85-.26.14.49a4.39,4.39,0,0,1,.88,0,3.88,3.88,0,0,1,.82.18l-.25,1.12a4.56,4.56,0,0,0-.59-.14,2.22,2.22,0,0,0-.57,0l.37,1.23a3.32,3.32,0,0,1,1.55.25,1.54,1.54,0,0,1,.75,1v0a1.46,1.46,0,0,1,.06.65,1.38,1.38,0,0,1-.2.59,2.06,2.06,0,0,1-.44.5,2.65,2.65,0,0,1-.66.38l.24.81-.84.26Zm-1.37-4.67a.81.81,0,0,0-.38.3.48.48,0,0,0,0,.37v0a.5.5,0,0,0,.22.29,1.16,1.16,0,0,0,.52.12Zm1.87,3.43c.37-.18.51-.41.42-.7v0a.5.5,0,0,0-.23-.3,1.12,1.12,0,0,0-.53-.12Z"/><path class="cls-4" d="M50.58,95.16a7.47,7.47,0,0,0-2.55.31,7.59,7.59,0,0,0,2.19,14.86Z"/><path class="cls-5" d="M431.69,77.09a3.17,3.17,0,1,1-3.16-3.17A3.16,3.16,0,0,1,431.69,77.09Z"/><path class="cls-5" d="M367.21,60.68A3.17,3.17,0,1,1,364,57.51,3.17,3.17,0,0,1,367.21,60.68Z"/><path class="cls-3" d="M78.2,15.64a7.6,7.6,0,1,1-9-5.85A7.59,7.59,0,0,1,78.2,15.64Z"/><path class="cls-2" d="M76.82,15.93a6.18,6.18,0,1,1-7.34-4.77A6.19,6.19,0,0,1,76.82,15.93Z"/><path class="cls-3" d="M71,20a4.06,4.06,0,0,1-1.1-.05,4,4,0,0,1-1-.32l.45-1.09a5.47,5.47,0,0,0,.75.29,2.34,2.34,0,0,0,.75.09l-.28-1.32a5,5,0,0,1-.85-.11,2,2,0,0,1-.64-.24,1.3,1.3,0,0,1-.43-.41,1.83,1.83,0,0,1-.25-.62v0a1.48,1.48,0,0,1,0-.66,1.38,1.38,0,0,1,.25-.57,1.73,1.73,0,0,1,.48-.45,2.87,2.87,0,0,1,.68-.33l-.1-.48.86-.18.11.5a3.53,3.53,0,0,1,.87,0,3.78,3.78,0,0,1,.81.24L72,15.42a4.23,4.23,0,0,0-.57-.19,2.24,2.24,0,0,0-.57-.08l.27,1.25a3.2,3.2,0,0,1,1.52.39,1.46,1.46,0,0,1,.66,1v0a1.47,1.47,0,0,1,0,.66,1.49,1.49,0,0,1-.25.56,1.76,1.76,0,0,1-.48.46,2.45,2.45,0,0,1-.69.33l.18.83-.87.18Zm-1-4.77a.78.78,0,0,0-.4.27.47.47,0,0,0-.06.37h0a.53.53,0,0,0,.19.31,1.17,1.17,0,0,0,.51.16Zm1.58,3.57c.38-.15.54-.36.48-.66v0a.47.47,0,0,0-.2-.32,1.16,1.16,0,0,0-.52-.17Z"/><path class="cls-4" d="M71.75,9.69a7.38,7.38,0,0,0-2.56.1,7.59,7.59,0,0,0,.93,15Z"/><circle class="cls-5" cx="78.36" cy="54.41" r="3.16"/><path class="cls-3" d="M399,110.86a7.59,7.59,0,1,1-9.82-4.35A7.6,7.6,0,0,1,399,110.86Z"/><path class="cls-2" d="M397.65,111.36a6.19,6.19,0,1,1-8-3.54A6.18,6.18,0,0,1,397.65,111.36Z"/><path class="cls-3" d="M392.57,116.31a4.53,4.53,0,0,1-1.1.13,4.19,4.19,0,0,1-1.07-.16l.27-1.14a5,5,0,0,0,.79.16,2.36,2.36,0,0,0,.75,0l-.48-1.26a5,5,0,0,1-.85,0,1.9,1.9,0,0,1-.67-.13,1.53,1.53,0,0,1-.5-.34,1.71,1.71,0,0,1-.34-.58h0a1.71,1.71,0,0,1-.11-.65,1.41,1.41,0,0,1,.16-.6,1.76,1.76,0,0,1,.4-.53,2.59,2.59,0,0,1,.62-.42l-.18-.46.83-.33.18.48a3.78,3.78,0,0,1,.87-.09,3.46,3.46,0,0,1,.84.11l-.18,1.14a4.28,4.28,0,0,0-.59-.1,2.16,2.16,0,0,0-.57,0l.46,1.2a3.21,3.21,0,0,1,1.56.13,1.49,1.49,0,0,1,.82.91h0a1.76,1.76,0,0,1,.11.66,1.57,1.57,0,0,1-.16.6,2.17,2.17,0,0,1-.4.53,2.91,2.91,0,0,1-.63.43l.3.79-.82.31Zm-1.72-4.56a.8.8,0,0,0-.35.33.5.5,0,0,0,0,.38h0a.48.48,0,0,0,.23.27,1.19,1.19,0,0,0,.54.09ZM393,115c.35-.2.47-.44.37-.72v0a.52.52,0,0,0-.25-.29,1.11,1.11,0,0,0-.54-.08Z"/><path class="cls-4" d="M391.67,106a7.39,7.39,0,0,0-2.52.5,7.59,7.59,0,0,0,3.29,14.65Z"/><polygon class="cls-6" points="328.46 56.58 107.7 56.58 106.47 17.76 329.69 17.76 328.46 56.58"/><polygon class="cls-7" points="321.29 50.61 114.88 50.61 113.68 23.72 322.49 23.72 321.29 50.61"/><polygon class="cls-8" points="148.88 50.61 114.88 50.61 113.68 23.72 148.88 23.72 148.88 50.61"/><polygon class="cls-9" points="114.88 50.61 115.65 52.54 321.29 50.61 114.88 50.61"/><polygon class="cls-9" points="106.47 17.76 106.55 20.18 329.69 17.76 106.47 17.76"/><polygon class="cls-9" points="161.57 29.22 161.57 45.12 171.09 37.17 161.57 29.22"/><polygon class="cls-9" points="174.46 29.22 174.46 45.12 183.98 37.17 174.46 29.22"/><polygon class="cls-9" points="187.35 29.22 187.35 45.12 196.87 37.17 187.35 29.22"/><polygon class="cls-10" points="359.67 77.09 218.08 77.09 76.5 77.09 70.77 81.04 74.2 269.12 74.2 275.85 218.08 275.85 361.96 275.85 361.96 269.12 365.4 81.04 359.67 77.09"/><polygon class="cls-11" points="343.16 91.78 218.08 91.78 93.01 91.78 87.96 96.12 91.4 253.21 91.4 258.87 218.08 258.87 344.76 258.87 344.76 253.21 348.2 96.12 343.16 91.78"/><polygon class="cls-12" points="247.89 269.12 245.03 273.42 218.08 273.42 191.14 273.42 188.28 269.12 50.23 269.12 50.23 272.56 58.63 282.59 218.08 282.59 377.53 282.59 385.94 272.56 385.94 269.12 247.89 269.12"/><polygon class="cls-13" points="50.23 269.12 50.23 272.56 190.57 272.56 188.28 269.12 50.23 269.12"/><polygon class="cls-13" points="385.94 269.12 385.94 272.56 245.6 272.56 247.89 269.12 385.94 269.12"/><polygon class="cls-9" points="70.77 81.04 365.4 81.04 359.67 77.09 76.5 77.09 70.77 81.04"/><rect class="cls-8" x="138.22" y="153.65" width="159.72" height="46.95"/><polygon class="cls-14" points="289.59 195.73 297.31 216.29 301.77 212.03 311.39 223.63 318.42 217.06 305.98 208.55 311.2 204.1 289.59 195.73"/><polygon class="cls-14" points="143.25 137.36 136.71 151.18 122.02 148.78 136.31 154.63 134.21 170.22 140.71 155.56 154.91 156.74 141.57 151.42 143.25 137.36"/><polygon class="cls-15" points="426.2 301.92 12.23 301.92 1.9 282.59 435.49 282.59 426.2 301.92"/><polygon class="cls-4" points="1.9 282.59 4.8 288.01 435.49 282.59 1.9 282.59"/><path class="cls-14" d="M159.72,167.17h6.65v19.9h-6.65Z"/><path class="cls-14" d="M182.86,167h6.6l8.38,20h-7.22l-1.05-2.67h-7l-1,2.67h-7.1Zm5.06,12.65-1.82-4.83-1.82,4.83Z"/><path class="cls-14" d="M209.38,187.5a12.75,12.75,0,0,1-4.36-.74,11,11,0,0,1-3.56-2.11,9.81,9.81,0,0,1-2.38-3.26,10,10,0,0,1-.87-4.21v-.06A10.25,10.25,0,0,1,199,173a10,10,0,0,1,2.3-3.3,10.51,10.51,0,0,1,3.48-2.17,11.94,11.94,0,0,1,4.36-.79,12.81,12.81,0,0,1,4.65.8,12.06,12.06,0,0,1,3.68,2.22l-3.72,4.49a8,8,0,0,0-2.08-1.28,6,6,0,0,0-2.33-.45,4.35,4.35,0,0,0-3.21,1.33,4.25,4.25,0,0,0-.92,1.48,5.15,5.15,0,0,0-.33,1.88v0a5.11,5.11,0,0,0,.36,1.94,4.29,4.29,0,0,0,1,1.5,4.23,4.23,0,0,0,1.49,1,5.16,5.16,0,0,0,1.92.34,6.94,6.94,0,0,0,1.36-.11,3.37,3.37,0,0,0,.91-.34v-2h-3.41v-4.24h9.64v9.19a13,13,0,0,1-3.84,2.15A14.12,14.12,0,0,1,209.38,187.5Z"/><path class="cls-14" d="M220.1,167.17h9.72a13.44,13.44,0,0,1,4.39.61,7.24,7.24,0,0,1,2.78,1.67,6.08,6.08,0,0,1,1.36,2,7.25,7.25,0,0,1,.45,2.67v.06a6.32,6.32,0,0,1-1,3.7,7.29,7.29,0,0,1-2.88,2.38l4.64,6.77h-7.59l-3.76-5.68h-1.42v5.68H220.1Zm9.53,9.47a3.05,3.05,0,0,0,1.87-.51,1.67,1.67,0,0,0,.68-1.43v0a1.61,1.61,0,0,0-.68-1.44,3.23,3.23,0,0,0-1.85-.47h-2.9v3.9Z"/><path class="cls-14" d="M240.43,167.17h17v5.46H247v2h9.73v4.8H247v2.16h10.58v5.46H240.43Z"/><path class="cls-14" d="M259.33,167.17h17v5.46H265.87v2h9.72v4.8h-9.72v2.16h10.57v5.46H259.33Z"/><polygon class="cls-16" points="74.2 269.12 359.67 77.09 76.5 77.09 70.77 81.04 74.2 269.12"/><g class="cls-17"><rect class="cls-18" x="7.96" y="114.08" width="3.76" height="19.67"/><rect class="cls-18" y="122.04" width="19.67" height="3.76"/></g><g class="cls-17"><rect class="cls-18" x="50.01" y="158.89" width="2.16" height="11.33"/><rect class="cls-18" x="45.42" y="163.47" width="11.33" height="2.16"/></g><g class="cls-17"><rect class="cls-18" x="408.78" y="34.36" width="2.16" height="11.33"/><rect class="cls-18" x="404.2" y="38.94" width="11.33" height="2.16"/></g><g class="cls-17"><rect class="cls-18" x="413.65" y="144.43" width="3.76" height="19.67"/><rect class="cls-18" x="405.69" y="152.39" width="19.67" height="3.76"/></g><path class="cls-5" d="M48.51,20.51c0,1-.85,2.59-1.9,2.59s-1.91-1.54-1.91-2.59a1.91,1.91,0,1,1,3.81,0Z"/></g></g></svg>