<svg xmlns="http://www.w3.org/2000/svg" viewBox="0 0 526.9 614.06"><defs><style>.cls-1{fill:#fcd33e;}.cls-2{fill:#fece3b;}.cls-3{fill:#efcb3e;}.cls-4{fill:#fed53f;}.cls-5{fill:#fdd440;}.cls-6{fill:#f5ce3d;}.cls-7{fill:#f9d13f;}.cls-8{fill:#fefefe;}.cls-9{fill:#f8d03e;}.cls-10{fill:#fcd340;}.cls-11{fill:#fed43f;}.cls-12{fill:#f6ce3d;}.cls-13{fill:#f4c93b;}.cls-14{fill:#fbd23f;}.cls-15{fill:#f9cb3a;}.cls-16{fill:#f0cd3f;}.cls-17{fill:#fdd43f;}.cls-18{fill:#fdd33f;}.cls-19{fill:#f1d03f;}.cls-20{fill:#eec83b;}.cls-21{fill:#f4cc3d;}.cls-22{fill:#f4cd3d;}.cls-23{fill:#f7cf3e;}.cls-24{fill:#fad23e;}.cls-25{fill:#fad340;}.cls-26{fill:#fad23f;}.cls-27{fill:#f8d23f;}.cls-28{fill:#f8d13e;}.cls-29{fill:#fbd340;}.cls-30{fill:#f6cf3e;}.cls-31{fill:#fcd23e;}.cls-32{fill:#eeca3c;}.cls-33{fill:#f2d141;}.cls-34{fill:#f5cf3e;}.cls-35{fill:#f9d23f;}</style></defs><title>intro-back</title><g id="Layer_2" data-name="Layer 2"><g id="Layer_1-2" data-name="Layer 1"><path class="cls-1" d="M.38,304.68v-1.14a2.42,2.42,0,0,1,2.36.17c2.58,1,5.26,1.82,7.81,3s2.82,1,4.62-1c4.66-5.09,9.29-10.21,14.08-15.17,1.05-1.09.65-1.46-.49-1.94-2.34-1-4.74-1.76-7.11-2.64-4.68-1.74-9.33-3.55-14-5.24a2.59,2.59,0,0,0-3.21.72,21,21,0,0,1-2,2c-.56.48-1.1,1.12-2,.73q0-141,0-282C.33.56.73.34,2.22.34q262.3.06,524.6,0A4,4,0,0,1,527,2.43q0,304.7,0,609.4c0,2.27,0,2.28-2.23,2.28H410.7c-1.06,0-1.06-.6-.86-1.4.87-3.42,2.08-6.74,3.16-10.1,1.22-3.83,2.38-7.68,3.65-11.5,1.2-3.64,2.5-7.25,3.52-10.95a1.26,1.26,0,0,1,1.87-1c1.67.57,3.26,1.33,4.87,2,5.72,2.47,11.47,4.88,16.13,6.85-2.81-1.34-6.84-2.82-10.76-4.55-3.39-1.5-6.78-3-10.23-4.34-1-.38-1-1.12-.81-2,.68-2.63,1.53-5.21,2.43-7.77,1.5-4.27,2.67-8.65,4.12-12.94,1.38-4.07,2.54-8.2,4-12.24.5-1.34,1-1.43,2.23-.94,6.94,2.8,13.81,5.77,19.42,8-3.93-1.7-9.29-3.69-14.5-6-1.49-.67-3.07-1.11-4.56-1.79-1.78-.81-2-1.28-1.41-3.09,2.62-8,5.09-16.12,7.75-24.14.79-2.38,1.12-4.94,2.81-7.11.66-.84.62-2.58,1-3.91,1.72-6.38,4-12.58,6-18.89,2-6.62,4.22-13.19,6.37-19.77q3.47-10.58,6.87-21.18c1.28-4,2.59-8,3.8-12,1-3.42,2.26-6.78,3.33-10.18,2.17-6.91,4.54-13.75,6-18.81-1,3-2.49,7.9-4.11,12.77-1.33,4-2.61,8-3.91,12s-2.55,8-3.78,12c-1.14,3.73-2.32,7.45-3.57,11.15-1.32,3.87-2.56,7.77-3.81,11.66-1.19,3.71-2.26,7.46-3.59,11.11a22.12,22.12,0,0,0-1.36,4.33,28.6,28.6,0,0,1-1.54,4.67c-1.43,4.22-2.63,8.52-4.12,12.73-1.17,3.31-2.1,6.72-3.19,10.07-.59,1.82-1,2.14-2.89,1.44-2.06-.78-4.07-1.71-6.17-2.43a7.53,7.53,0,0,0-1.8-.57,1.43,1.43,0,0,1-.55-.18c-2.58-1.66-5.57-2.37-8.37-3.52-6.71-2.78-13.52-5.32-20.25-8.06-1.3-.53-1.91-1.1-1.36-2.7,2-5.67,4-11.32,6.11-16.91,1.27-3.3,2.4-6.65,3.75-9.92.79-1.92,1.06-2.1,3.07-1.3,4.55,1.83,9.16,3.53,13.72,5.34,1.22.49,2.58.66,3.32,1.19-3.56-1.2-7.4-2.88-11.34-4.28-2.26-.8-4.4-1.9-6.71-2.56-.89-.26-1-.9-.71-1.81.87-2.43,1.78-4.85,2.66-7.27,2-5.37,3.91-10.74,5.92-16.09,1.6-4.24,3.11-8.51,4.68-12.76s3.23-8.73,4.86-13.09c2.06-5.54,4.15-11.07,6.18-16.62,1.92-5.26,3.9-10.51,5.79-15.79,1.48-4.12,3.12-8.19,4.42-12.38.09-.29.39-.49.48-.81-1.11,2.38-1.91,4.89-2.8,7.35-1.48,4.13-3,8.24-4.54,12.36q-3.19,8.78-6.39,17.56-2.27,6.2-4.61,12.39c-2,5.29-3.91,10.62-5.87,15.93-.45,1.23-1,1.63-2.21,1.14-2.8-1.09-5.7-1.92-7.88-2.87,2,1,4.85,1.67,7.51,2.78,1.61.68,1.91,1.13,1.3,2.68-3.32,8.36-6.24,16.86-9.42,25.27-.45,1.18-1.13,1.6-2.33,1.18-2.38-.84-4.71-1.82-7-2.76a7.74,7.74,0,0,0-2.55-.68,1.59,1.59,0,0,1-.54-.17c-2-1.64-4.64-1.92-6.95-2.9-5.69-2.42-11.55-4.41-17.33-6.64-2.53-1-2.65-1.42-1.67-3.91,3.09-7.85,6.45-15.59,9.65-23.39,3-7.21,5.89-14.44,9-21.59.75-1.72,1.4-3.48,2.1-5.22.6-1.49,1.38-1.61,2.45-.85-1.75-.52-1.31-1.73-.81-3.09,1-2.77,2.61-5.31,3.14-7.54-1.31,3.54-3.13,7.6-4.86,11.7-2.44,5.8-4.68,11.67-7.26,17.41-1,2.33-2.24,4.68-3.08,7-1.32,3.66-2.8,7.26-4.28,10.85-2.1,5.12-4.2,10.24-6.34,15.34-.64,1.54-1.53,1.81-3,1.28-5-1.84-10-3.85-15-5.75-4.42-1.67-8.87-3.26-13.25-5-1-.41-1.78-.94-1.86-2.13.23-3.64,1.66-7,2.57-10.47q2.73-10.46,5.72-20.85c3-10.51,5.7-21.12,8.67-31.64,2.77-9.8,5.4-19.63,8.13-29.44,1.22-4.38,2.41-8.78,3.64-13.16.59-2.11.41-2.34-1.66-3-6.17-1.89-12.26-4-18.39-6a5,5,0,0,1-2.31-1.26c-.75-1.16-.06-2.06.61-2.91,1.21-1.55,2.47-3.05,3.76-4.54,5.48-6.31,10.59-12.93,16-19.32C377.89,280,386.91,269,396,258c1.8-2.15,2.58-2.15,4.61-.13,7.41,7.37,14.78,14.79,22.2,22.15.51.51,1,1.78,2.08.58,1.83-5.2,4.4-10.08,6.32-15.23.93-2.48.49-5.26.73-7.9.59-6.54.84-13.11,1.47-19.65.43-4.46.45-9,.89-13.43.56-5.72.78-11.47,1.38-17.19.3-2.82.27-5.68.48-8.52.47-6.3,1-12.59,1.43-18.89.2-3.15.58-6.3.57-9.46.07-.7.47-1.31.53-2a1.27,1.27,0,0,0-.29-.95c-2.78.48-5.15,2-7.61,3.15-8.11,3.87-16.31,7.58-24.41,11.48-7.13,3.43-14.31,6.75-21.48,10.1-7.4,3.45-14.78,6.94-22.19,10.37q-9.3,4.31-18.56,8.72a4.17,4.17,0,0,0-1.94,1.74c-2.28,4-4.69,8-7.1,11.91-1.16,1.9-1.07,2.06,1,2.71q10.93,3.53,21.88,7c2.17.69,4.35,1.37,6.49,2.15,2.42.89,2.77,1.89,1.31,4-4.85,6.88-9.84,13.67-14.71,20.53-4.14,5.84-8.43,11.57-12.54,17.42q-3.65,5.21-7.45,10.32c-1.72,2.31-2.44,2.63-5.15,1.75-9.33-3-18.52-6.48-27.84-9.55-7.15-2.35-14.3-4.7-21.4-7.19-7.83-2.74-15.73-5.25-23.53-8.07-4.3-1.56-4.21-1.53-6.85,2.27-5.86,8.43-11.12,17.23-16.45,26-5.1,8.38-10.24,16.73-15.3,25.13-1.71,2.83-2,3-5.18,1.81-6-2.16-11.81-4.57-17.77-6.73-8.38-3-16.64-6.41-25-9.45-3.86-1.4-7.72-2.85-11.51-4.45-2.91-1.23-3.3-1.12-5.2,1.37-5.75,7.56-11.45,15.15-17.33,22.62-2.27,2.88-4.43,5.85-6.73,8.72-1.43,1.78-2.3,2-4.47,1.32-10.64-3.48-21.2-7.21-31.8-10.81-4.31-1.46-8.6-3-13-4.37a2.62,2.62,0,0,0-2.76.6c-6.17,5.16-12.21,10.46-18.29,15.74-4,3.46-4.09,3.54-8.74,1-11.13-6-22.28-12.05-33.51-17.9-1.63-.85-3.22-1.76-4.81-2.68-.6-.34-1.26-.64-1.42-1.42.5-1.6,2-2.35,3-3.54,1.19-1.43,1.15-1.56-.62-2.21-2.54-.93-5-2-7.55-3A2.71,2.71,0,0,1,.38,304.68Z" transform="translate(-0.33 -0.34)"/><path class="cls-2" d="M7.23,314.57Q21.08,322,34.93,329.47c5.18,2.77,10.38,5.49,15.57,8.24a1.32,1.32,0,0,0,1.7-.21Q60.57,330.23,69,323c1.72-1.49,3.47-2.94,5.19-4.43a1.59,1.59,0,0,1,1.74-.32c3.46,1.19,6.93,2.35,10.4,3.53,7,2.39,14,4.67,21,7.21,3.49,1.28,7.17,2,10.54,3.62,1.55.74,3.31.78,4.87,1.56,1,.5,1.67-.27,2.22-1q7.17-9.31,14.32-18.63,5.65-7.38,11.25-14.79a2,2,0,0,1,2.61-.81c4,1.56,8,3,12,4.55q6.71,2.53,13.41,5.09l24.94,9.56c2.65,1,5.32,2,8,3a1,1,0,0,0,1.39-.51q4-6.63,8.08-13.25c2.52-4.13,5.07-8.26,7.57-12.41,2.25-3.73,4.39-7.53,6.69-11.22,2.4-3.86,4.92-7.65,7.42-11.44,1.6-2.43,3.3-4.78,4.84-7.25.72-1.15,1.32-1.52,2.74-1,5.66,2,11.39,3.83,17.07,5.79,4.94,1.7,9.84,3.54,14.78,5.23,4.59,1.56,9.25,3,13.84,4.51,6.28,2.12,12.52,4.34,18.79,6.5,4.24,1.46,8.49,2.85,12.73,4.31a1.88,1.88,0,0,0,2.4-.91q9.75-13.54,19.54-27c4.28-5.94,8.38-12,12.86-17.8,1.23-1.6,2.3-3.33,3.48-5,.73-1,.46-1.56-.69-1.92-3.91-1.25-7.81-2.55-11.71-3.81-5.35-1.73-10.71-3.42-16-5.2a19.45,19.45,0,0,1-3.26-1c-.88-.47-1-.79-.49-1.69,2.26-3.66,4.8-7.21,6.55-11.11s5.41-5.2,8.82-6.81c7.71-3.64,15.49-7.13,23.2-10.77,9.64-4.55,19.23-9.22,28.88-13.75,8.23-3.86,16.58-7.46,24.74-11.47,4.08-2,8.33-3.65,12.33-5.81.78-.42,1.34-.51,1.34.64-1.62,5.22-4.61,9.83-6.66,14.86a13.13,13.13,0,0,0-.89,4.24c-.43,7.18-.86,14.36-1.42,21.54-.2,2.58-.33,5.17-.46,7.75-.25,5.11-.8,10.19-1.07,15.3-.16,3-.09,6.06-.45,9.09-.79,6.65-.61,13.37-1.46,20-.3,2.38-.21,4.79-.32,7.19-.24,4.86-.79,9.69-1.34,14.51-.22,1.06-.73,1.29-1.56.52-.37-.34-.72-.71-1.08-1.07-7.62-7.62-15.26-15.21-22.82-22.87-1.25-1.27-1.81-1.27-3,.19-6.32,7.8-12.81,15.46-19.22,23.19-4.6,5.54-9.14,11.12-13.73,16.66s-9.3,11.15-14,16.72a5.88,5.88,0,0,0-1.46,2.4c0,1.51-1.26,2.3-2.08,3.28q-5.3,6.32-10.52,12.71c-1.74,2.13-2.49,2.33-5.08,1.39-12.42-4.49-24.76-9.21-37.19-13.67-.66-.24-1.22-.68-1.89-.87-6.37-2.1-12.6-4.56-18.89-6.89-6.76-2.5-13.6-4.81-20.26-7.57-1.81-.75-2.35-.46-3.64,1.58-1.85,2.94-3.64,5.93-5.56,8.84C238.1,324,233.13,332,228,340a7.77,7.77,0,0,0-.5,1c-4,5.57-7.39,11.5-11.24,17.15-1.56,2.29-1.92,2.47-4.55,1.49-8.37-3.11-16.71-6.29-25.06-9.45-3.19-1-6.33-2.14-9.46-3.26s-6.4-2.69-9.65-3.92c-4.9-1.87-9.8-3.77-14.72-5.59a2.21,2.21,0,0,0-2.82.73c-2.82,3.41-5.63,6.83-8.49,10.22a15.73,15.73,0,0,0-1.58,1.88q-6.57,7.51-12.83,15.26c-.32.39-.65.77-1,1.15-1.64,1.79-2.14,1.88-4.49,1-6.19-2.24-12.4-4.42-18.62-6.6-8.11-3-16.29-5.72-24.35-8.81-2.05-.79-3.83-1.09-5.4.84-.35.43-1,.55-1.38,1C66,358.75,60,363.27,54.16,367.86a3.72,3.72,0,0,1-4.53.43c-3.94-2.16-7.92-4.24-11.87-6.38-.83-.45-1.68-.88-2.55-1.25C29.22,357.29,23,354.32,17,351c-4.32-2.34-8.59-4.77-12.95-7-1.43-.66-3-1.11-3.65-2.81v-30c.1-.08.19-.19.31-.2C2.4,310.76,6.45,313,7.23,314.57Z" transform="translate(-0.33 -0.34)"/><path class="cls-3" d="M103.08,360.6a10.88,10.88,0,0,1,4,1.06q7.94,2.86,15.87,5.76c.93.34,1.42.08,2-.68,4.46-5.41,9-10.75,13.49-16.12a1.64,1.64,0,0,1,1.09-.67,3.22,3.22,0,0,1,2.57.21c8.55,3.33,17.15,6.52,25.72,9.77,1.08.41,2.1,1,2.29,2.29.07,11.5,0,23,0,34.5a12.19,12.19,0,0,0,.27,3.39c-.09,14.36.52,28.71.34,43.06-.51,12.16-.13,24.32-.19,36.48A10,10,0,0,1,169,485.2c-3.66,5.62-7.12,11.37-10.3,17.25-1.4,2.6-3.34,4.76-4.68,7.34-1.22,2.36-2.86,4.47-4.17,6.79a6.9,6.9,0,0,1-2.11,2.16,1.62,1.62,0,0,1-.92.11c-5.42-1.91-10.53-4.53-15.76-6.88-4.72-2.12-9.43-4.29-14.19-6.31-3.6-1.52-7-3.46-10.67-4.79-2.27-.82-3.75-2.32-3.79-4.86-.06-3.69-1.27-7.23-1.35-10.91a9.11,9.11,0,0,0-.46-3.57c0-.18,0-.37,0-.55-.76-5.23-1.31-10.49-2-15.74-.81,0-1,.59-1.23,1-1.72,2.35-3.3,4.8-5,7.19-.62.9-.85,1.67.36,2.33.55.3,1.11.86.78,1.55s-1.24.67-1.86.4c-1.61-.7-2.41.19-3.25,1.34-2.13,2.91-4,6-6.43,8.68a1.59,1.59,0,0,1-.73.58,1.08,1.08,0,0,1-.84-.18c-1.18-1.82-1.3-4-1.62-6-1.53-9.8-3.26-19.56-4.81-29.36-1.17-7.42-2.6-14.8-3.83-22.22s-2.58-15.06-3.69-22.63a28.66,28.66,0,0,0-.79-3.9c-1.05-3.58.46-6.29,2.62-8.83,2.34-2.75,4.25-5.83,6.53-8.63.93-1.14.64-2.79,1.85-3.76-.76.16-.74.82-.95,1.31-.57,1.32-1.16,1.55-2.24.58a7,7,0,0,0-5.85-1.55c-4.17.51-8.31-.07-12.46-.23-1.87-.07-3.56-1-5.29-1.16-4.58-.55-8.8-2.54-13.45-2.88A15.65,15.65,0,0,1,29,375.79c-3.12-2.15-3.19-2-6.08.43a2.57,2.57,0,0,1-.48.3c-2.26.12-3.4,1.7-4.29,3.47a7.83,7.83,0,0,1-2.83,3c-1,.63-1.72.3-2.05-.78a3.52,3.52,0,0,1,.25-3.13c1.31-1.84,1-3.47-.53-5.43-.41,3.79-.51,7.57-4.65,9.47a1.56,1.56,0,0,0,1.45.1c.36-.13.7-.3,1.06-.43,1.16-.4,2.22-.27,2.71,1s-.15,2.06-1.3,2.54c-.32.13-.72,0-.89.52-1,3.31-3.87,5.39-5.69,8.17a4.54,4.54,0,0,1-.52.56,7,7,0,0,0-1.76,7.54c3,10.12,5.43,20.42,8.27,30.59,2.19,7.86,4,15.82,6.35,23.64.22.72.2,1.49.41,2.22-.59,1.23-1.59.87-2.44.51-4.64-2-9.14-4.25-13.8-6.18a6.08,6.08,0,0,1-1.84-1.6V352.61a3.08,3.08,0,0,1,.45-.34,2.78,2.78,0,0,1,2,.3c6.79,2.64,13.49,5.5,20.25,8.22,2.17.87,4.39,1.64,6.51,2.66a2.1,2.1,0,0,0,2.67-.62c1-.93,1.45-2.48,3.1-2.6,2.34.26,4.09,1.84,6.09,2.83,3.26,1.63,6.46,3.4,9.67,5.14,1.09.59,1.67-.31,2.3-.79,4.57-3.47,9.06-7,13.64-10.49,1.44-1.09,2.66-2.53,4.43-3.15a5.35,5.35,0,0,1,3.46.68c6,2.49,12.14,4.61,18.15,7.06a3.92,3.92,0,0,1,2.63,3.18c.18,1.1.36,2.2.62,3.48a69.65,69.65,0,0,0,4.86-6A3.29,3.29,0,0,1,103.08,360.6Z" transform="translate(-0.33 -0.34)"/><path class="cls-4" d="M.38,613.92V602.13c1.22-3.39,3.74-6,5.66-8.91,3.38-5.18,7.27-10,10.54-15.27,1.1-1.78,1.86-2,3.75-1.13,6.37,2.9,12.46,6.33,18.69,9.48q6.31,3.19,12.72,6.21c1,.46,1.86,1.08,2.79,1.61a1.7,1.7,0,0,1,.66,2.71c-3.44,5.36-6.87,10.72-10.42,16a2.36,2.36,0,0,1-2.16,1.27H2.43A4,4,0,0,1,.38,613.92Z" transform="translate(-0.33 -0.34)"/><path class="cls-5" d="M.38,566.38V532.14c1.42-2.92,3.61-5.31,5.48-7.93a2.41,2.41,0,0,1,3.44-.87c4,2.08,8.25,3.76,12.15,6.09,1.1.66,2.44.67,3.46,1.47,3.75,2.08,7.75,3.65,11.56,5.62q2.43,1.26,4.88,2.49c1.28.64,1.55,1.53.69,2.77-2.76,3.92-5.42,7.9-8.14,11.84-3.23,4.68-6.5,9.32-9.74,14a78.73,78.73,0,0,1-5,7.1,1.69,1.69,0,0,1-2.34.5c-4-2.19-8.2-3.9-12.12-6.2C3.21,568.17,1.38,567.94.38,566.38Z" transform="translate(-0.33 -0.34)"/><path class="cls-6" d="M80.64,488h.76c4.05-2.23,7.61-5.16,11.29-7.94a6.28,6.28,0,0,1,8.49,1.09c.33,1.25.16,2.61.76,3.8q.78,6.48,1.55,13c.09.77.66,1,1.26,1.24,2.81,1.28,5.59,2.62,8.4,3.89,5.06,2.28,10.16,4.49,15.22,6.77,5.41,2.43,10.81,4.88,16.17,7.4.76.36,1.82.26,2.28,1.21-1,1.79-2.54,1.08-3.82.58-3.23-1.27-6.39-2.74-9.55-4.2-5.63-2.6-11.31-5.07-17-7.56-1.31-.57-2.09,0-3.3,2.27-2.38,3.73-4.87,7.39-7.28,11.1-1.28,2-1.21,2.22.93,3.2,9.36,4.3,18.72,8.6,28,13.06.88.42,2,.63,2.24,1.83a1,1,0,0,1-.81.8,4.9,4.9,0,0,1-3.66-1.13q-6.28-2.86-12.56-5.76c-5-2.3-10-4.64-15-7a2,2,0,0,0-3,.84c-1.73,2.63-3.43,5.28-5.28,7.83-1.56,2.9-3.53,5.54-5.31,8.3A1.93,1.93,0,0,1,90,543.71a1,1,0,0,1-.76-.83c-.16-1.44.72-2.4,1.54-3.4,3.11-4.84,6.26-9.66,9.37-14.5.64-1,.25-1.44-.66-1.86-3.4-1.55-6.75-3.2-10.12-4.79-1.37-.65-2.75-1.26-4.08-2a1.64,1.64,0,0,1-1.09-.92.9.9,0,0,1,.41-1,1.68,1.68,0,0,1,1.42,0,8.32,8.32,0,0,0,2.19.93,6.61,6.61,0,0,1,1.15.54,6.82,6.82,0,0,0,1.36.64c.24.12.45.27.68.4,3.18,1.08,6.12,2.73,9.22,4a1.89,1.89,0,0,0,2.72-.78c2.49-4,5.11-8,7.72-12,.68-1,.53-1.78-.71-2.16-1.9-.58-3.45-1.85-5.23-2.67a5.71,5.71,0,0,1-2.91-3.14,45.39,45.39,0,0,1-1.73-4.21c-.72-2.4-2.69-3.78-4.22-5.53a2.18,2.18,0,0,0-1.41-.51c-3-.4-6-1.14-9-.14a6.55,6.55,0,0,1-3.95-.08,2.45,2.45,0,0,0-3.29,1.35c-2.89,4.16-5.79,8.32-8.74,12.43-.58.81-1.11,1.74-2.29,1.82a.9.9,0,0,1-.67-.82c.16-1.53,1.24-2.61,2-3.78,2.26-3.28,4.61-6.5,6.86-9.79,1.28-1.87,1.25-2.18-.79-3.1Q60.89,481.37,46.72,475a2.23,2.23,0,0,0-3.1.69c-3.37,4.19-6.37,8.66-9.67,12.91-.62.8-.43,1.31.46,1.77,1.81.92,3.71,1.61,5.54,2.47,1,.47,2.21.77,2.44,2.15a.94.94,0,0,1-.76.73c-2.4-.16-4.39-1.48-6.5-2.42-4-1.76-3.33-1.84-5.83,1.56-.83,1.14-1.45,2.58-3.09,2.89a.84.84,0,0,1-.63-.46c-.36-1.47.72-2.33,1.49-3.27,3.26-4,2.17-3.51-1.16-5.05-1-.46-2.4-.64-2.51-2.19a1,1,0,0,1,.82-.68,14.08,14.08,0,0,1,5.14,1.84,1.77,1.77,0,0,0,2.57-.62c3.19-4.18,6.24-8.46,9.39-12.67.48-.64,1.15-1.76-.13-1.92-2.25-.29-3.46-1.86-4.66-3.31-3-3.61-6.9-5.18-11.36-5.84a38.92,38.92,0,0,1-4.09-.87,10.65,10.65,0,0,0-5.6-.25,6.83,6.83,0,0,1-4.47-.5c-1.41-.61-2.23-.1-3.05,1-1.75,2.33-3.56,4.61-5.38,6.89-.53.66-1.06,1.5-2.17,1.11v-1.52c1.22-2.9,3.45-5.1,5.27-7.59,1.2-1.64,1.23-1.61-.72-2.41a9.94,9.94,0,0,1-4.55-2.94v-4.18c3.42,1.36,6.8,2.79,10.1,4.45,2.25,1.13,4.61,2,6.93,3a.8.8,0,0,0,.85-.26,1.52,1.52,0,0,1,.49-1.71c2.28-2.54,4.21-5.36,6.32-8,1.12-1.42,2.32-2.13,3.83-1.23a1.28,1.28,0,0,1-1-1.82,12,12,0,0,1,4-5.13,1,1,0,0,1,1.08,0c1.44,1.31,1.49,3.22,1.84,4.88,1.11,5.26,2.55,10.43,3.77,15.66.39,1.66.64,3.35,1,5a3.6,3.6,0,0,0,2,2.6c4.4,2.23,9,4,13.48,6.08,7.73,3.61,15.62,6.88,23.32,10.55A4.86,4.86,0,0,1,80.64,488Z" transform="translate(-0.33 -0.34)"/><path class="cls-7" d="M.38,470.9c2.68-2.44,4.53-5.56,6.79-8.34,1.16-1.43,2.1-2.61,4.14-1.34a3.83,3.83,0,0,0,2.94.52c4.32-1.29,8.27.78,12.39,1.28,5.31.63,9.08,3.74,12.14,7.86.55.74,1.24.72,2,.8,2.29.26,2.75,1.22,1.43,3-3.36,4.58-6.76,9.14-10.14,13.71-.58.78-1.24,1.31-2.23.63-1.69-1.16-3.75-1.51-5.49-2.55-3.53-.41-6.41-2.47-9.54-3.86-4.31-1.91-8.58-3.9-12.84-5.92a2.75,2.75,0,0,1-1.58-1.25Z" transform="translate(-0.33 -0.34)"/><path class="cls-4" d="M.38,284.14c1.37-1.31,2.79-2.58,4.1-3.95a2,2,0,0,1,2.35-.62c4,1.53,8,3.06,12,4.56,2.53.94,5.06,1.89,7.64,2.69,1.45.45,2.75,1.24,4.24,1.62,1.3.33.52,1.12,0,1.67-1.68,1.8-3.45,3.52-5.08,5.38-3.32,3.81-6.91,7.39-10.27,11.17-1.27,1.42-2.44,1.87-4.26,1.1C7.57,306.27,4,304.94.38,303.54Q.38,293.84.38,284.14Z" transform="translate(-0.33 -0.34)"/><path class="cls-7" d="M23.58,486.88c1.73,1.31,3.87,1.77,5.74,2.8,1.14.63,1,1,.43,2-1,1.57-2.28,2.84-3.3,4.36a10.8,10.8,0,0,0-.59,1.15c-1.26,3-3.65,5.33-5.48,8-.14.21-.44.2-.7.19-6-3.06-12.11-5.81-18.14-8.76a4.91,4.91,0,0,1-1.17-.94v-19c.58-.58,1.16-.27,1.73,0C9,479.83,16,483,22.93,486.22A1.59,1.59,0,0,1,23.58,486.88Z" transform="translate(-0.33 -0.34)"/><path class="cls-8" d="M.38,613.92l43-.06a4.79,4.79,0,0,1,1.39-.48,30.32,30.32,0,0,1,5.1-.3c11.88,0,23.75,0,35.63,0,2.09,0,4.15.32,6.24.28a9.66,9.66,0,0,0,2.46-.16,4.56,4.56,0,0,1,1.75.07,10.28,10.28,0,0,0,1.07.06,47.4,47.4,0,0,1,6.24-.22h41.13a29.2,29.2,0,0,1,3.41.09,7.11,7.11,0,0,0,1.48.11,32,32,0,0,1,4-.21q17.77,0,35.55,0c1.78,0,3.54.27,5.31.29a7.19,7.19,0,0,0,2.47-.29c1.17,0,2.34,0,3.5.11a12.37,12.37,0,0,0,1.43.08,71.7,71.7,0,0,1,7.39-.16h40a26.72,26.72,0,0,1,3.41.12c.37,0,.74,0,1.11,0,3.67-.14,7.34-.12,11-.11,1.25.5,2.51,0,3.76,0,7.92,0,15.85-.16,23.77.09,4.18.13,8.35-.37,12.52,0a5.13,5.13,0,0,0,1.48.09,19.43,19.43,0,0,1,2.65-.15h45.7a20.46,20.46,0,0,1,2.65.13c.37,0,.75,0,1.12,0,7-.32,14-.12,21-.13,6.69,0,13.37-.2,20.05.26a6.59,6.59,0,0,0,2.15-.26c2.6.11,5.22-.27,7.8.26a2.18,2.18,0,0,1,.93.5c.7,0,1.39.06,2.09.06H524.32c2.84,0,2.49.35,2.49-2.56q0-305.49,0-611c.12.08.4-.19.38.19s0,1,0,1.52q0,305.2,0,610.4c0,1.53-.28,1.86-1.84,1.86q-261.65-.07-523.31-.07C1.54,614.28.8,614.72.38,613.92Z" transform="translate(-0.33 -0.34)"/><path class="cls-9" d="M44.51,613.86H43.38q5.6-8.56,11.21-17.12c.66-1,.55-1.62-.57-2.26-4.57-2.59-9.38-4.69-14-7.09q-7.91-4.09-15.86-8.11c-1.41-.71-2.89-1.28-4.26-2.06a1.67,1.67,0,0,0-2.54.66Q9.51,589.21,1.7,600.52c-.39.57-.88,1.08-1.32,1.61v-1.52a14.82,14.82,0,0,1,2.55-4.76c4.31-6,8.25-12.25,12.6-18.22.88-1.22.18-1.63-.75-2.11-4.2-2.18-8.44-4.28-12.6-6.54a3.9,3.9,0,0,1-1.8-1.84v-.76c5.25,2.61,10.52,5.18,15.73,7.87,1.32.68,2.12.85,3.09-.57,3.16-4.65,6.48-9.19,9.71-13.8,2.68-3.83,5.33-7.68,8-11.53,1.57-2.28,3.06-4.62,4.7-6.85,1-1.4-.08-1.82-.92-2.24-3-1.5-6-2.88-9-4.39a58.33,58.33,0,0,1-6.91-3.49,1.1,1.1,0,0,1,.8-.75c2,0,3.59,1.12,5.27,1.93,3.48,1.66,7,3.3,10.37,5.09,1.1.58,1.82.52,2.55-.54,1.23-1.76,2.48-3.5,3.65-5.3.5-.77.93-1.71,2.09-1.69a1.23,1.23,0,0,1,.68.85c.14,1.33-.68,2.25-1.37,3.23-.91,1.29-1.9,2.53-2.81,3.82-.72,1-.57,1.61.58,2.19,3.68,1.83,7.4,3.57,11.1,5.35,6.55,3.15,13.06,6.39,19.62,9.52,2.5,1.2,2.52,1.15,4.1-1.2a7.61,7.61,0,0,1,1.2-1.47,1.35,1.35,0,0,1,1.1-.3,1.06,1.06,0,0,1,.62.58,3.49,3.49,0,0,1-.82,2.64c-1.26,2.1-1.27,2.12,1,3.24,7.55,3.71,15.2,7.21,22.71,11,2.11,1.06,4.56,1.64,6.12,3.65a1.2,1.2,0,0,1-.14,1.11c-.88.65-1.71.16-2.48-.2-3.94-1.82-7.83-3.75-11.72-5.68-4.51-2.23-9.12-4.28-13.54-6.69a3.2,3.2,0,0,0-1.65-.78c-3.12-1.32-3.05-1.28-5,1.66-5.15,8-10.41,15.87-15.49,23.88-1.36,2.14-2.7,4.28-4.2,6.32-.87,1.18-.63,1.89.61,2.51,3.74,1.85,7.44,3.78,11.14,5.7,7.35,3.82,14.86,7.33,22.2,11.18.64.34,1.46.62,1.26,1.64H92c-4.94-1.17-9.06-4.14-13.58-6.23-6.49-3-12.83-6.34-19.16-9.7-2.26-1.2-2.68-1.1-4.15,1.12-2.8,4.22-5.49,8.52-8.24,12.77A4.53,4.53,0,0,1,44.51,613.86Z" transform="translate(-0.33 -0.34)"/><path class="cls-10" d="M.38,495.63a4,4,0,0,1,2.17.51c5.11,2.7,10.54,4.74,15.57,7.6.63.36,1.48.49,1.66,1.39.37.68-.18,1-.5,1.48-3.33,4.67-6.77,9.27-10.18,13.89-1.66,2.24-1.74,2.22-4.31,1-1.58-.73-3.43-1-4.41-2.71Z" transform="translate(-0.33 -0.34)"/><path class="cls-11" d="M.38,567.14c5.25,2.74,10.48,5.53,15.78,8.19,1.19.6,1.33.89.54,2-4.18,5.94-8.25,12-12.39,17.93-1.26,1.82-2.62,3.56-3.94,5.34Q.38,583.87.38,567.14Z" transform="translate(-0.33 -0.34)"/><path class="cls-4" d="M7.23,314.57.38,311.15v-6.47C4,305.74,7.31,307.58,11,308.57c1,.28,1.66.82.63,2C10.25,312,9.15,313.73,7.23,314.57Z" transform="translate(-0.33 -0.34)"/><path class="cls-12" d="M.38,518.83c1.87.91,3.77,1.76,5.61,2.74,1.13.6,1.63-.1,2.17-.81q4.79-6.45,9.56-12.92c.67-.91,1.38-1.8,2.06-2.7,2-2.67,3.75-5.56,6.09-8l.38.38c.5.91-.08,1.57-.55,2.23-1.29,1.8-2.63,3.57-3.93,5.35-3.78,5.07-7.59,10.13-11.31,15.24-1.29,1.77-1.26,1.82.76,2.83,4.07,2,8.23,3.91,12.29,6,.82.42,1.82.69,2,1.83l-.76.38c-4.92-2-9.55-4.53-14.28-6.88-2.79-1.39-2.81-1.41-4.8,1-1.81,2.18-3,4.81-5.27,6.65V531c.64-2.17,2.12-3.82,3.42-5.57,1.72-2.32,1.74-2.34-.93-3.67a4.56,4.56,0,0,1-2.49-2.16Z" transform="translate(-0.33 -0.34)"/><path class="cls-7" d="M.38,456.45c2.3.7,4.21,2.27,6.54,2.91.72.2,1.14.81.55,1.44-2.55,2.71-4.26,6.11-7.09,8.58Z" transform="translate(-0.33 -0.34)"/><path class="cls-5" d="M.38,519.59,5.25,522c.6.31,1.48.6.83,1.49A66.8,66.8,0,0,1,.38,531Q.38,525.3.38,519.59Z" transform="translate(-0.33 -0.34)"/><path class="cls-12" d="M23.58,486.88c-3.91-1.42-7.5-3.52-11.32-5.12-4-1.67-7.76-3.81-11.88-5.15v-1.14q9.64,4.09,19,8.73c1.63.8,3.43,1.24,4.94,2.3Z" transform="translate(-0.33 -0.34)"/><path class="cls-13" d="M.76,352.61H.38V341.19l3.8,2.28c.12.22.32.46.25.69C3.6,347.15,3,350.25.76,352.61Z" transform="translate(-0.33 -0.34)"/><path class="cls-3" d="M291.75,319.52c4.15,1.47,8.31,2.9,12.45,4.4,4.79,1.75,9.55,3.57,14.33,5.35,4.32,1.6,8.68,3.11,12.95,4.83,1.63.66,2.51.21,3.51-1,3.87-4.81,7.82-9.56,11.76-14.32a15.45,15.45,0,0,1,1.68-1.52c7.38,2.44,14.75,4.91,22.16,7.28,1.52.49,1.71,1.1,1.29,2.59q-4.49,15.76-8.78,31.57c-2.67,9.75-5.24,19.52-7.91,29.27q-5.45,19.92-11,39.8a50.64,50.64,0,0,0-1.44,5.87c-.44.57,0,1.14,0,1.72-1.16,5.64-3,11.1-4.44,16.68-1,3.92-2,7.83-3.19,11.71-.26.86-.65,1.68-.84,2.57-1.65,7-3.75,13.87-5.62,20.81-.9,3.35-1.75,6.71-2.71,10a8.87,8.87,0,0,0-.83,2.86c-2.84,10.62-5.78,21.21-8.64,31.82-1,2.89-1.51,6-2.65,8.81a112.6,112.6,0,0,1-6.23,15.64c-1.54,3.4-2.94,6.86-4.45,10.27a4.82,4.82,0,0,0-.71,2.71,1.19,1.19,0,0,1-.21.91c-2.84,3.51-3.85,7.91-5.8,11.86a7.19,7.19,0,0,1-2.29,3c-1.22.26-2.19-.46-3.21-.89-6.13-2.63-12.2-5.4-18.29-8.09-5.63-2.49-11.21-5.1-16.82-7.63-3.45-1.55-6.94-3-10.31-4.77-.58-.3-1.14-.54-1.37-1.21a16.2,16.2,0,0,1,.39-6.72c.56-2.84.53-5.77,1.24-8.58.09-.85.69-1.61.52-2.52-.31-1.75.38-3.38.61-5.06.93-6.69,1.66-13.43,3.11-20a34.53,34.53,0,0,0,.61-6.38c1.36-8.21,2.51-16.45,3.72-24.69,1-6.48,1.88-13,2.71-19.47,1.14-7.18,2.07-14.38,3.17-21.57,1-6.3,1.82-12.62,2.76-18.93,1.28-8.62,2.69-17.23,3.71-25.89.16-1.37.81-2.68.43-4.11,1.21-4.59,1.5-9.34,2.24-14,1.23-7.67,2.23-15.38,3.41-23.06.59-3.88,1.06-7.76,1.58-11.65.39-2.9,2.2-5.23,3.61-7.69q5.95-10.38,12-20.7A3.22,3.22,0,0,1,291.75,319.52Z" transform="translate(-0.33 -0.34)"/><path class="cls-14" d="M342.33,435.15a2,2,0,0,1,.38-1.52c0,.78.45,1.08,1.1,1.33q10,3.81,20,7.65c2.59,1,5.19,2,7.77,3,2.35.92,2.95.68,3.8-1.75,2.4-6.8,5.49-13.31,8.2-20,.29-.7.56-1.41.85-2.11.6-1.41,1.37-2.87-1.35-3.45,3.46.64,3.58-2,4.35-3.82,2.11-4.86,4.19-9.75,6-14.71.86-2.29,2.6-4.36,2.17-7.06,0-.14.1-.41.2-.44,1.79-.5,1.65-2.24,2.21-3.49,1.34-3,2.57-6.12,4-9.49.3,1.49-.23,3.32-1.38,5.75q-1.34,2.82-2.55,5.69c-.5,1.18-.55,2.23,1.07,2.61.53.12,1.13.24,1.4.85-.44.44-.92.12-1.2-.08-1.73-1.24-2.54-.33-3.18,1.24-3,7.48-6.09,15-9.22,22.4-.44,1,0,1.42,1.36,2-2.21.07-2.69,1.19-3.22,2.48-3,7.24-6,14.45-9.05,21.67-1.21,2.88-.94,3.16,2,4.23,5.87,2.13,11.7,4.4,17.5,6.72,1.52.61,3.19.78,4.62,1.66.53.33,1.17.49-17.3,9.94-18.9,9.79-18.15,10-17.52,10.23,3.94,1.72,8,3.18,12,4.8q8.79,3.56,17.6,7.05c1.53.61,3.1,1.1,4.59,1.81,1.29.61,1.91.15,2.4-1.13,2.28-6,4.45-12,6.59-18,.8-2.27,1.67-4.51,2.53-6.75.54-1.41.14-2.1-1.19-2.58-2.08-.76-4.15-1.54-6.2-2.38-.82-.34-1.74-.57-2-1.54-.09-.33,0-.22-.24-.09-1,.61-2,.1-2.89-.26-7.31-2.8-14.62-5.62-22-8.35-1.16-.43-1.78-.17-2.22.93q-4.92,12.13-10,24.2c-.12.29-.25.58,18.51-7.94,21.81-8.79,24.24-7,27-6.15a13,13,0,0,1,1.58.64c1.11.49,1.6.19,2-1,3-8.23,6.11-16.43,9.22-24.63.45-1.18.54-2-.91-2.51-2.91-1-5.78-2.15-8.66-3.24-.39-.15-.9-.13-1.12-.66.87-.42,1.6.08,2.33.35,2.31.85,4.61,1.72,6.88,2.64,1.68.68,2.56.52,3.26-1.51,2.64-7.64,5.55-15.18,8.35-22.76q5.25-14.21,10.48-28.42,2.68-7.26,5.37-14.53c.13-.34.11-.77.68-1,.55,1.52-.54,2.61-1,3.81-1.46,4.29-3,8.57-4.54,12.81-1.39,3.77-2.89,7.51-4.3,11.28-1.63,4.38-3.17,8.8-4.87,13.16-.45,1.15.36,1.39,1.35,2.21-2.1-.46-2.43.61-2.87,1.87-1.37,4-2.91,7.95-4.37,11.92-1.31,3.56-2.59,7.14-3.95,10.68-.39,1-.2,1.7,1.27,2.42-2.55,0-2.8,1.69-3.32,3.09-2.83,7.65-5.61,15.33-8.44,23-.45,1.23-.58,1.9,1,2.48,6.28,2.26,12.48,4.75,18.7,7.17.39.15.89.21,1,.8-.74.41-1.36-.07-2-.3q-8.91-3.43-17.79-6.92c-1.22-.48-1.88-.56-2.46,1.08-2.83,8-6,15.84-8.7,23.88a26.78,26.78,0,0,1-1.14,3c-.6,1.26,0,1.53,1,1.89,7.29,2.88,14.59,5.72,21.83,8.7a36.31,36.31,0,0,1,11.29,5.93c4.32,1.93,3.71,1.64,3,1.38q-2.75-1-5.46-2.21c-.82-.35-1.74-.59-1.91-1.62-.06-.33,0-.22-.19-.08-1,.66-2,.2-2.89-.18-8.07-3.33-16.26-6.36-24.31-9.75-2.42-1-2.83-.79-3.72,1.72q-4.34,12.26-9,24.42c-.07.18-.12.36-.18.54-.89,2.74-.89,2.74,1.82,3.87,11.8,4.91,23.64,9.71,35.43,14.63,1.67.7,1.92.57,2.59-1.5,2.68-8.31,5.29-16.64,8-24.93.38-1.14.92-2.23-3.3-6.27-1.63-2.4.76-1.22,3.19-.21,2.61,1.08,2.71,1.12,3.59-1.57,2-6.06,3.86-12.15,5.78-18.23.78-2.47,1.52-5,2.4-7.38s.89-2.38-1.36-3.58l-.49-.27c.21-.24.3-.4.36-.39,2.61.37,2.7.4,3.59-2.33q3.29-10.08,6.41-20.22c.64-2.06,1-4.37,1.8-6.2,1.48-3.48,2.46-7.09,3.61-10.64,1.83-5.63,3.76-11.22,5.46-16.9,1.24-4.16,2.66-8.31,4.09-12.42.65-1.85,1.21-3.72,1.79-5.59.17-.53.22-1.12.88-1.51.42.56.1,1.06-.07,1.55-3.1,9.08-5.76,18.3-8.91,27.36-2,5.65-3.72,11.38-5.33,17.15-.93,3.34-2.31,6.52-3.27,9.85s-2.31,6.69-3.24,10.09c-1,3.64-2.29,7.19-3.27,10.84-.78,2.87-2,5.68-2.93,8.55-2,6.13-3.92,12.27-5.88,18.41a15.46,15.46,0,0,1-.54,1.62c-.74,1.66-1.29,3.25,1.22,4.36-3-.84-3.09,1.35-3.6,2.92-2.72,8.48-5.38,17-8.06,25.46,0,.12,0,.25-.08.37-1.3,4.19-1.27,4.1,2.91,5.64,4,1.48,8,3.2,11.93,4.8,2.45,1,4.92,1.95,7.37,2.94.39.16.74.4,1.51.82-2.17.3-3.52-.78-4.93-1.34-6.39-2.53-12.71-5.22-19-7.87-1-.41-1.38-.21-1.72.87-2.25,7-4.63,14.05-6.72,21.15-1,3.57-2.36,7.06-3.54,10.58-.44,1.3-.78,2.2,1.16,3,7.21,2.88,14.29,6.08,21.43,9.15a3.39,3.39,0,0,1,1.72,1.31c-2.67-.49-4.64-1.81-6.77-2.67-5.67-2.32-11.27-4.79-16.9-7.2-1-.42-1.65-.52-2.08.88-1.61,5.25-3.43,10.43-5.09,15.66s-3.21,10.49-4.82,15.74c-.18.6-.43,1.19-.65,1.78h-.76c-.82-.85-.41-1.78-.14-2.68,1.91-6.3,4-12.56,6-18.81,1.23-3.73,2.33-7.5,3.62-11.2.5-1.43.11-2.19-1.31-2.77-9.91-4-19.68-8.37-29.53-12.53-2.74-1.16-5.5-2.27-8.2-3.51-1.36-.63-2-.4-2.54,1q-4,11.28-8.21,22.48c-1,2.67-2,5.35-3,8s-.85,2.68,1.6,3.82c8.5,3.94,17.16,7.52,25.65,11.49,2.12,1,4.35,1.75,6.43,2.83.75.39,1.74.63,1.59,1.83h-1.9c-5.71-1.12-10.64-4.21-15.89-6.46-5.74-2.46-11.5-4.9-17.15-7.57-2-1-2.25-.79-3,1.32-1.17,3.34-2.4,6.65-3.6,10-.38,1-.55,2.26-1.8,2.74h-.77c-.92-1-.4-2,0-3,1.29-3.49,2.5-7,3.8-10.5.94-2.52.92-2.57-1.53-3.62q-10.09-4.32-20.12-8.8a9.86,9.86,0,0,1-3.58-2.06c-.26-.59-.73-1.17-.09-1.81.89-.35,1.59.17,2.33.49,7.56,3.24,15,6.72,22.55,10,2.16.95,2.21,1,3-1.15,3.84-10.25,7.52-20.56,11.4-30.79.58-1.52.25-2.17-1.28-2.83-11.62-5-23.3-9.88-35-14.77-2.53-1.06-2.52-1.08-4.41.81-1.53,1.12-1.85,3-2.5,4.54-2.46,5.81-4.86,11.65-7.35,17.44-1.07,2.49-2,5-3.11,7.5-1.26,2.8-2.23,2.58-4.28,1.57-3.51-1.72-7.1-3.26-10.63-4.94a2.32,2.32,0,0,1-1.49-2.71,15,15,0,0,1,1.15-4c2.08-4.88,4.11-9.78,5.72-14.85.95-3,.94-6.09,1.11-9.18a1,1,0,0,1,.19-.71l2.66-8.75c5.27,2.88,10.86,5.06,16.33,7.53,2,.89,2.23.76,3.06-1.31,3.6-9,7.42-17.84,11.09-26.78.88-2.14.89-2.23-1.19-3.05-5.16-2-10.23-4.32-15.44-6.26a11.77,11.77,0,0,1-2.22-1.07,5.78,5.78,0,0,0-1.8-.94c-.31-.87-.75.21-1.1-.08a6.1,6.1,0,0,1,.76-2.66c7,3,14.11,5.55,21,8.7,1.65.75,2.26.5,2.9-1.17,3.23-8.45,6.9-16.72,10.33-25.09.83-2,.76-2.22-1.27-3.06-6.67-2.75-13.48-5.13-20.08-8.06-1.59-.71-3.5-.8-4.52-2.52l.76-2.28c2,2.13,4.87,2.57,7.39,3.62,5.89,2.46,11.86,4.73,17.78,7.14,1.37.56,2.07.31,2.61-1.08,3.1-8,6.5-15.93,9.89-23.83.58-1.34.24-1.95-1-2.45-4.1-1.66-8.29-3.1-12.4-4.73-4.76-1.89-9.61-3.55-14.35-5.51C343.44,436.48,342.59,436.15,342.33,435.15Z" transform="translate(-0.33 -0.34)"/><path class="cls-15" d="M425.26,281.48a5.8,5.8,0,0,1-.33-3.9c1-8,.87-16,1.75-24,.34-3.05.29-6.18.49-9.27.47-7.37,1-14.73,1.47-22.09.28-4.22.49-8.44.82-12.66.54-6.79.69-13.61,1.42-20.39.3-2.81-.12-5.69,1.22-8.37,2.14-4.29,4.18-8.64,6.29-12.95.18-.37.62-.61.94-.91v1.14c-.46.57.08,1.33-.38,1.9-.15,7.32-.87,14.6-1.46,21.9q-.49,6-.82,12.08c-.36,6.36-.87,12.7-1.44,19-.37,4.15-.55,8.31-.85,12.46-.47,6.54-1,13.08-1.47,19.62a58.3,58.3,0,0,0-.32,5.85,19.54,19.54,0,0,1-2.24,8.88C428.6,273.71,427,277.6,425.26,281.48Z" transform="translate(-0.33 -0.34)"/><path class="cls-2" d="M439,170c0-.65-.14-1.35.38-1.9C439.29,168.78,439.47,169.47,439,170Z" transform="translate(-0.33 -0.34)"/><path class="cls-11" d="M291.75,319.52c-2.9,5.1-5.78,10.22-8.69,15.31-2.1,3.68-4.18,7.37-6.39,11a16.26,16.26,0,0,0-2,7.43c-.41,5-1.47,9.86-2.12,14.8-1.13,8.57-2.43,17.11-3.62,25.67a26.14,26.14,0,0,1-1.15,4.54,19.28,19.28,0,0,1-2.15,5c-1,1.64-1.63,1.64-3.43,1.09-2.28-.7-4.28-2.06-6.64-2.57s-2.84-1.49-2.5-3.94a34.48,34.48,0,0,0,.09-4c0-.61,0-1.22,0-1.83a2,2,0,0,1,0-.61,23.51,23.51,0,0,0,.66-5.57,3.27,3.27,0,0,1,0-.89,8.86,8.86,0,0,0,.46-2.84,1.91,1.91,0,0,1,0-.59,18.09,18.09,0,0,0,.55-5,8.11,8.11,0,0,1,.1-1.26,29,29,0,0,0,1.1-8.44,3.46,3.46,0,0,1,0-1,16.35,16.35,0,0,0,.76-5.1,3.33,3.33,0,0,1,0-.91,7.84,7.84,0,0,0,.38-2.28,2,2,0,0,1,0-.59c.07-.38.27-.71.34-1.08.49-2.34.15-3.17-2.13-4-6.4-2.36-12.83-4.63-19.24-7q-3.3-1.2-6.61-2.36c-1-.35-2.1-.6-2.56-1.77,0-2.17,1.76-3.44,2.73-5.09,2.7-4.57,5.6-9,8.46-13.48,3.5-5.47,7.08-10.88,10.54-16.37,1-1.55,2.09-1.88,3.66-1.16,5.4,2.48,11.1,4.17,16.63,6.31,5.23,2,10.55,3.84,15.82,5.78C287.21,317.66,289.47,318.61,291.75,319.52Z" transform="translate(-0.33 -0.34)"/><path class="cls-16" d="M227.08,340.81c3.39,1.2,6.77,2.42,10.18,3.59,5.73,2,11.3,4.37,17.14,6,1.06.3,2,1,3.14,1.27.57.15,1.19.6,1,1.2-.4,1.4.06,2.92-.67,4.26-.82-.5-.29-1.26-.37-1.77a4.4,4.4,0,0,1-.8,2.14Q246,374.15,236.49,391.48a27.34,27.34,0,0,1-2.08,4c-.55.69-1.08,1.44-2.11,1.44-5.75-2.47-11.69-4.48-17.51-6.77-6.88-2.71-13.82-5.28-20.74-7.9-6.68-2.53-13.35-5.11-20-7.7-1.08-.42-2.36-.69-2.88-2a2.05,2.05,0,0,1,.54-1.92,5.74,5.74,0,0,0,1.27-2.07c3.85-5.87,7.9-11.61,11.76-17.47a3.16,3.16,0,0,1,2-1.58c4.21,1.53,8.43,3,12.62,4.61q7,2.6,14,5.29a1,1,0,0,0,1.4-.45c2.87-4.52,5.68-9.08,8.7-13.5C224.57,343.89,225.2,341.85,227.08,340.81Z" transform="translate(-0.33 -0.34)"/><path class="cls-5" d="M186.76,349.56,173.45,369c-.74,1.2-1.77.62-2.67.36s-.94-1-1-1.83c-.06-1.92.24-3.85-.18-5.76-3.09-1.76-6.52-2.64-9.79-3.94-6.73-2.68-13.6-5-20.26-7.85.62-1.87,2.17-3.07,3.32-4.54,2.22-2.82,4.66-5.47,6.93-8.25a1.92,1.92,0,0,1,2.68-.66c5.73,2.28,11.58,4.22,17.29,6.54,2.53,1,5.09,2.09,7.59,3.21,1.7.77,3.78,1.22,5.66,1.89C184.31,348.58,185.53,349.09,186.76,349.56Z" transform="translate(-0.33 -0.34)"/><path class="cls-17" d="M.76,352.61l3.42-9.13a57.82,57.82,0,0,1,8.09,4.1c4.86,2.64,9.78,5.17,14.68,7.73,2.4,1.26,4.81,2.49,7.21,3.74a2.79,2.79,0,0,1,1.21,1.17,25.23,25.23,0,0,0-2.34,3c-1.18,2-2.51,1.56-4.3.82C19.44,360.11,10.09,356.38.76,352.61Z" transform="translate(-0.33 -0.34)"/><path class="cls-18" d="M103.08,360.6c-1.74,3.33-4.49,5.92-6.63,9-.15.21-.36.38-.64.24s-.29-.52-.33-.83c-.17-1.44-.36-2.88-.51-4.32a2.86,2.86,0,0,0-2.23-2.49c-6.9-2.61-13.76-5.29-20.64-8a2.71,2.71,0,0,1-.6-.46c1.07-1,2.13-2,3.23-2.9a1.51,1.51,0,0,1,1.6-.21q13.07,4.77,26.15,9.5A2.54,2.54,0,0,1,103.08,360.6Z" transform="translate(-0.33 -0.34)"/><path class="cls-19" d="M80.64,488c-4.7-1.55-9-4-13.54-5.91-5.46-2.31-10.85-4.78-16.24-7.26C47.49,473.3,44,472,40.73,470.19A3.13,3.13,0,0,1,39,467.92c-1.22-5.36-2.49-10.71-3.76-16.05-.82-3.42-1.67-6.84-2.51-10.26a2.36,2.36,0,0,1-1.14-1.67c-2-8-3.89-16.11-5.71-24.19-1.35-6-3.09-11.87-4.37-17.87-.58-2.72-1.4-5.38-1.79-8.15a5.42,5.42,0,0,0-.76-3.36c-.39-1.58-1.1-3.09-1.07-4.77a13.47,13.47,0,0,1,.55-2c1-1.37,1.7-3,3.63-3.38.5-.57,1-1.16,1.52-1.7,1.56-1.59,3.34-1.51,5.06-.12a16.48,16.48,0,0,0,4.67,2.71c3.2,1.19,6.51,1.42,9.81,1.86.86.11,1.24.93,2.12,1.13a71.19,71.19,0,0,1,7.61,1.77c2.73.93,5.95.34,8.94.61,3.8.34,7.63-.67,11.4.4.69.2.54.76.76,1.17s.31.76.77.73c.62,0,.55-.58.59-1,0-.25,0-.51,0-.76,0-.71.13-1.73.77-1.77a3.09,3.09,0,0,1,2.25,1c.53.63-.15,1.35-.87,1.51-1,.23-1.37.67-1.14,1.72.15.67-.45,1.17-.81,1.66q-4.24,5.7-8.55,11.35a4.18,4.18,0,0,0-.72,3.42c.78,4.67,1.66,9.33,2.42,14,1.49,9.08,2.77,18.2,4.44,27.25,1.12,6.07,2.08,12.16,3.13,18.24q2.2,12.77,4.36,25.55A8.17,8.17,0,0,1,80.64,488Z" transform="translate(-0.33 -0.34)"/><path class="cls-20" d="M20.54,389.5c1,4.43,1.92,8.87,3,13.29q4.5,19,9.08,37.89a9.33,9.33,0,0,1,.13.94c-1.72,1.33-2.79,3.21-4.11,4.88-.54.69-.3,1.25.47,1.68a6.59,6.59,0,0,1,2.23,1.32c-.1.11-.2.27-.23.26-3.9-1.53-3.85-1.49-6.42,1.83a92.39,92.39,0,0,1-6.39,7.91c-1.19-1.26-1.35-3-1.76-4.5-1.67-6.16-3-12.4-4.8-18.52-2.11-7.22-3.89-14.53-5.9-21.78-1.22-4.39-2.21-8.85-3.6-13.18-.94-2.91.91-4.53,2.31-6.38,1.79-2.36,3.75-4.59,5.6-6.9.5-.62,1.07-1.28.33-2.18a.82.82,0,0,1,.28-1.17c.34-.23.62,0,.76.29s.3,1.09,1,.44c.5-.49,1.1-1,.6-1.78-.37-.58-.93-1-1.6-.51a8.26,8.26,0,0,1-2.62,1.05c-.8.21-1.46.06-1.71-.72s.47-1,1-1.33c2.11-1.25,3.9-2.73,3.67-5.56a5.86,5.86,0,0,1,1.14-4.12c.27-.35.65-.68,1.14-.41a.77.77,0,0,1,.26,1,1.47,1.47,0,0,0,.42,1.87c1.28.92.88,2,.2,3-.79,1.18-1.47,2.36-1,3.87.09.27-.09.66.27.82s.52-.22.77-.39a13.92,13.92,0,0,0,4-4.75,2.73,2.73,0,0,1,3.09-1.45c-1.34.85-2,2.31-3,3.42-.38.58-.86,1.15-.38,1.9a16.67,16.67,0,0,0,1.14,4.57A22.33,22.33,0,0,0,20.54,389.5Z" transform="translate(-0.33 -0.34)"/><path class="cls-21" d="M147.58,518.45q3.62-5.32,6.83-10.91c.45-.79.66-2,2.09-1.84a.4.4,0,0,0,.43-.62c-.75-1.42.49-2.28,1-3.19,3.77-6.48,7.65-12.89,11.53-19.31a5.34,5.34,0,0,0,.54-2.94q0-18.07,0-36.13c1.36.23.93,1.33.93,2.11,0,7.77,0,15.54,0,23.31,0,.88-.13,1.79.7,2.44a1.29,1.29,0,0,1,.15,1,3.28,3.28,0,0,0-.86,2.54,33,33,0,0,1,0,4.31,3.7,3.7,0,0,0,1.17,3.18,27.46,27.46,0,0,1,.1,7.28,6.94,6.94,0,0,0-1.41,4.94c.06,3.28,0,6.56,0,9.85a5.72,5.72,0,0,1-.35,2.23c-.29.69-1.38,1.09-1.08,1.86a5.33,5.33,0,0,0,2,2.23,1.83,1.83,0,0,1,.28.25,1,1,0,0,1,.12.85c-.85,1.19-2,.85-3.06.51-.65-.21-1.26-.52-1.94-.69-4.27-1.09-7-.2-9.52,3.49-1.22,1.75-2.34,3.56-3.48,5.37q-2.38,4-4.87,8c-.43.69-.87,1.4-1.82,1.47a1,1,0,0,1-.75-.81c.23-2.22,1.79-3.82,2.71-5.72a12.08,12.08,0,0,1,1.79-2.65c.45-.83.94-1.63,1.4-2.57C150.66,518.45,149.15,520,147.58,518.45Z" transform="translate(-0.33 -0.34)"/><path class="cls-22" d="M101.18,481.17c-1-.37-2-.71-3-1.11-2.81-1.16-4.8.25-6.85,2-2.39,2-4.65,4.2-7.6,5.42a5,5,0,0,1-2.34.58c1.26-2.78,3.4-5,5-7.49.14-.21.34-.38.48-.59,1.47-2.23,2.58-5.28,6.44-2.15A1.93,1.93,0,0,0,91.72,476c-1.1-.43-1.27-1.09-.61-2,2.17-3.17,4.32-6.36,6.5-9.52.24-.35.51-.85,1-.79s.67.73.74,1.19q.52,3.64.92,7.29C100.59,475.16,100.87,478.17,101.18,481.17Z" transform="translate(-0.33 -0.34)"/><path class="cls-23" d="M147.58,518.45a8.58,8.58,0,0,0,4.83-1.26c.35-.18.78-.61,1.14-.07a.86.86,0,0,1-.23,1c-.83.87-1,2.17-1.94,3-3.79-.13-7.54.64-11.34.4a11.64,11.64,0,0,1-4-1c-4.48-2-8.94-4.08-13.52-5.83-3.26-1.24-6.47-2.5-9.21-4.72-.24-.2-.54-.32-.7-.61a12.34,12.34,0,0,1,.66-1.34c1.57-2.42,1.63-2.37,4.2-1.19,4.24,1.95,8.53,3.79,12.79,5.7,4.09,1.83,8.16,3.67,12.24,5.51,1.39.62,2.79,1.26,4.34.46Z" transform="translate(-0.33 -0.34)"/><path class="cls-24" d="M171.55,471.66c-1.36-.25-1.13-1.33-1.13-2.25,0-7.84,0-15.68,0-23.52,0-.8.21-1.66-.37-2.38,0-7.28.09-14.55,0-21.83-.1-6.12-.46-12.23-.36-18.35a11.34,11.34,0,0,1,.39-3.19l.09-.35c.23-8.08,0-16.16.1-24.24,0-.63,0-1.26,0-1.89s.07-1.31,1-1.31A7,7,0,0,1,172,376c0,5.83-.1,11.66,0,17.49.5,24.87.33,49.75.34,74.63C172.37,469.34,172.79,470.71,171.55,471.66Z" transform="translate(-0.33 -0.34)"/><path class="cls-24" d="M169.65,361.73c.76,1.42.32,2.95.36,4.42.08,2.65.76,3.25,3.45,2.81a3.78,3.78,0,0,1-1.14,1.9c-1.89,0-1.87,1.4-1.88,2.64,0,4.11,0,8.22,0,12.33s0,8.09,0,12.14c0,.74.18,1.53-.37,2.18h0c-.58-.72-.37-1.58-.37-2.38Q169.64,379.75,169.65,361.73Z" transform="translate(-0.33 -0.34)"/><path class="cls-22" d="M101.94,485c-.9-1.14-.75-2.49-.76-3.8A12.07,12.07,0,0,1,101.94,485Z" transform="translate(-0.33 -0.34)"/><path class="cls-25" d="M82.92,552.68c-.71,1.25-1.4,2.52-2.14,3.76-.37.62-.86.73-1.6.37-6.57-3.2-13.16-6.35-19.75-9.53-4.66-2.25-9.28-4.56-14-6.73-1.29-.6-1.41-1.08-.67-2.23,1.6-2.5,3.8-4.58,5-7.32a3.31,3.31,0,0,1,1-2.55C55.55,522,60,515.32,64.56,508.79c1.71-2.43,1.95-2.49,4.58-1.26,4.45,2.08,9,4,13.38,6.15a4,4,0,0,1,1.92,1.73l1.14.38c1.36,1.58,1.51,3.6,1.84,5.5.92,5.34,2.26,10.6,3.09,16,.14.9.78,1.59.77,2.51-.4,1.07-1.38,1.84-1.52,3a34.5,34.5,0,0,1-5.53,8.74C83.49,551.56,82.83,551.69,82.92,552.68Z" transform="translate(-0.33 -0.34)"/><path class="cls-26" d="M113,573.22l-20.08-9.7c-3.35-1.62-6.67-3.27-10.06-4.81-1.39-.63-1.92-1.23-.83-2.63a32.66,32.66,0,0,0,2.06-3.4c.59-2.13,2.14-3.7,3.25-5.53.79-1.3,1.2-2.95,2.84-3.6L96.23,534c.48-.26,1-.8,1.53-.35s.41,1.17.2,1.77a30.94,30.94,0,0,1-2.06,4,2.35,2.35,0,0,0,0,2.49c.74,1.24,1.73,1.29,2.39,0,1.65-3.31,4.09-6.07,6.06-9.16a6.85,6.85,0,0,1,1-1.18c1.87-1.86,3.58-1.5,4.39,1s.88,5.1,1.3,7.65a4.2,4.2,0,0,0,5.83,3.24,8.41,8.41,0,0,1,3.85-.77,13.62,13.62,0,0,0,8.76-2.41A3.93,3.93,0,0,0,131,539a1.67,1.67,0,0,1,1.8-1.11c1.22.16,2.13,1.2,3.42,1.14.31.28.7.19,1.07.26,2.18.4,2.92,1.82,1.77,3.68-3.08,5-6.08,10.1-9.11,15.15a51.77,51.77,0,0,0-2.82,5.08c-2.48,3.82-4.84,7.71-7.17,11.62-.79,1.34-1.53,1.81-3,.92C115.56,574.91,113.9,574.65,113,573.22Z" transform="translate(-0.33 -0.34)"/><path class="cls-27" d="M42.22,494.87c-2.8-1.74-6-2.65-8.9-4.15-1-.53-1.33-.88-.52-1.93q5.59-7.27,11-14.66c.62-.83,1.2-.67,2-.33,4.91,2.17,9.85,4.28,14.74,6.48,5.23,2.36,10.44,4.79,15.64,7.23,2,.94,2.1,1.23.83,3.09-2.43,3.54-4.94,7-7.41,10.54l-2.26,3.23c-.53,2.05-.85,2.27-2.67,1.42-7.08-3.29-14.12-6.64-21.24-9.83C42.88,495.73,42.38,495.49,42.22,494.87Z" transform="translate(-0.33 -0.34)"/><path class="cls-28" d="M112.59,509.32a1.24,1.24,0,0,1,1.7.17c2.73,2.88,6.67,3.37,10,5,2.5,1.26,5.21,2,7.72,3.33,4.63,2.43,9.53,3.82,14.89,2.46a4.94,4.94,0,0,1,4.48.78l-4.56,8c-.74,2.93-2.71,5.2-4.11,7.77-.3.55-.72,1-1,1.58-1.36,2.28-1.77,2.38-4,1a2.3,2.3,0,0,1-.78-.81l-17.85-8.23c-4.47-2.06-8.93-4.14-13.41-6.18-2-.89-2.21-1.35-1-3.1C107.29,517.17,109.7,513.08,112.59,509.32Z" transform="translate(-0.33 -0.34)"/><path class="cls-27" d="M21.3,504.75c1.3-2.65,3.56-4.64,4.94-7.23,1.4-1.86,2.86-3.68,4.18-5.59.64-.92,1.1-1.21,2.26-.63,2.86,1.43,5.84,2.64,8.77,3.94.34.41,1.22-.15,1.29.74a.55.55,0,0,1,0,.18c-1.88,3-1.81,3,.32,5.92,1.73,2.39,3.11,5,5,7.54-.82-3.31-1.51-6.45-2.45-9.54a2.39,2.39,0,0,1,.36-2.66c2.89.3,5.23,2,7.81,3.12,3.46,1.48,6.8,3.21,10.24,4.72,2.24,1,2.37,1.2,1,3.16-4.28,6.23-8.53,12.49-12.93,18.65a5.33,5.33,0,0,1-1.31,1.34c-1.12.2-2.35,1.09-3.3-.21s0-2.28.56-3.33A28,28,0,0,0,50,521c.27-.82.21-1.57-.8-1.34-2.78.61-5.35-.48-8-.85-1.74-.24-2.76-1.82-4.05-2.85a6.81,6.81,0,0,1-1.45-1.74,9.88,9.88,0,0,0-6.14-4.73A21.4,21.4,0,0,1,21.3,504.75Z" transform="translate(-0.33 -0.34)"/><path class="cls-28" d="M78,490.68c1.11-1.58,2.2-2.83,4.49-1.65a4.6,4.6,0,0,0,3.35,0c3.37-1.29,6.76-.54,9.87.34,2.55.72,4.22,3.24,5.36,5.76.75,1.66,1.37,3.39,2.05,5.09a3.54,3.54,0,0,0,1.85,2.08c2.08.89,3.82,2.4,6,3,2,.58,2.14,1,1.06,2.76-2.69,4.27-5.45,8.5-8.17,12.76-.92,1.45-1.94,1.59-3.5.79-3.09-1.58-6.3-2.91-9.46-4.35a2.31,2.31,0,0,0-1.68-1.86A6.07,6.07,0,0,1,85,510.33a107.22,107.22,0,0,0-3.79-15.57C80.55,492.94,79.19,491.92,78,490.68Z" transform="translate(-0.33 -0.34)"/><path class="cls-28" d="M132.75,537.85c-.24.21-.58.37-.69.64-1.54,3.52-4.85,4.4-8,4.87-2.88.42-5.76.64-8.64,1.25s-4.63-1.13-5.11-4.15c-.43-2.67-.5-5.41-1.4-8-.56-1.64-1.41-2-2.51-.66a70.36,70.36,0,0,0-6.66,9.42,7.66,7.66,0,0,1-.61,1.18c-.63.74-.66,2.48-2.41,1.46s-2.52-2.79-1.78-4.15,1.59-2.88,2.36-4.33c.6-1.13.29-1.62-1-1.32,2-3,3.92-6,5.9-9a1.5,1.5,0,0,1,2.13-.58q8.3,3.91,16.62,7.76c3.6,1.66,7.23,3.26,10.85,4.86A1.93,1.93,0,0,1,132.75,537.85Z" transform="translate(-0.33 -0.34)"/><path class="cls-27" d="M78,490.68a3.3,3.3,0,0,1,3.4,2.5,66.46,66.46,0,0,1,3.45,12.71c.3,2.12,1.14,4.12,1.27,6.3.08,1.27,1.54,1.78,2.57,2.3a15,15,0,0,0,2,1c1.51.48.93,1.07.26,1.77l-.38-.38c-.45-.35-.88-.8-1.52-.38l-.76-.76A4.18,4.18,0,0,0,86,515l-1.14-.38c-.88.14-1.53-.42-2.25-.76-4.74-2.26-9.59-4.27-14.29-6.61-.87-.43-2.06-1-.58-2.14Z" transform="translate(-0.33 -0.34)"/><path class="cls-28" d="M91.29,539.75c-1.28-.29-1.4-1.21-1.61-2.36C88.51,531,87.2,524.59,85.9,518.2a9.52,9.52,0,0,1-.32-2.42c5.16,2.38,10.31,4.77,15.48,7.13.77.35.94.73.48,1.44q-4.83,7.47-9.66,14.94C91.76,539.49,91.49,539.6,91.29,539.75Z" transform="translate(-0.33 -0.34)"/><path class="cls-12" d="M136.93,538.61c3.09,1.29,3.11,1.31,5-1.64,1.67-2.6,3.26-5.24,4.88-7.86l.38.76c.55,1-.11,1.7-.53,2.44-1.15,2-2.38,4-3.6,6-.77,1.27-.68,1.93.74,2.6q9.87,4.63,19.78,9.19c2.24,1,4.48,2,6.65,3.2a2.15,2.15,0,0,1,1.56,1.61,1,1,0,0,1-.18.54c-1.17.8-2.17.11-3.18-.37-8.36-3.9-16.75-7.72-25.1-11.64-2.46-1.15-2.53-1.14-3.89,1.09-3.46,5.66-6.83,11.37-10.37,17-.5.79-.9,1.7-1.95,1.95-.32,0-.55-.14-.47-.52,1.59-3.85,4.07-7.2,6.1-10.79,1.86-3.29,3.88-6.48,5.86-9.69.78-1.27.29-2-.9-2.5-.57-.24-1.24-.33-1.55-1Z" transform="translate(-0.33 -0.34)"/><path class="cls-12" d="M67.71,505.14c-.54.95,0,1.37.8,1.73,3.29,1.56,6.54,3.21,9.88,4.65a59.3,59.3,0,0,1,6.44,3.13l-.38.76c-5.44-2.94-11.2-5.18-16.74-7.9-1.33-.65-1.72.27-2.23,1-2.84,4.08-5.63,8.2-8.46,12.29-2.37,3.42-4.79,6.81-7.19,10.21l-.38-.76c-.63-1.27.51-1.65,1.14-2.28A17.62,17.62,0,0,0,54,523.71c3.69-5.28,7.25-10.65,11-15.93.77-1.1.49-1.44-.56-1.92C59.21,503.49,54,501,48.82,498.65c-.91-.42-1.87-.75-2.8-1.12A2.77,2.77,0,0,1,42.6,496l-1.14-.76.76-.38c7.53,3.18,14.9,6.72,22.27,10.24,1.38.66,2.16.58,2.84-.73Z" transform="translate(-0.33 -0.34)"/><path class="cls-12" d="M90.15,543.55l-6.09,9.13-.38-.38c-.46-.58,0-.86.38-1.14,2.12-2.64,3.39-5.86,5.7-8.37Z" transform="translate(-0.33 -0.34)"/><path class="cls-28" d="M86,515c.93-.26,1.79-.29,2.28.76A4.73,4.73,0,0,1,86,515Z" transform="translate(-0.33 -0.34)"/><path class="cls-28" d="M89,516.55c.66-.5,1.21-.54,1.52.38Z" transform="translate(-0.33 -0.34)"/><path class="cls-1" d="M401.28,613.86c-1.46-1.27-3.34-1.76-5-2.53-8.71-3.91-17.47-7.69-26.21-11.53-1-.46-2-1.1-3.07-1.47-2.67-.93-3-1.38-2-4,2.14-5.81,4.39-11.59,6.54-17.4,1.73-4.69,3.38-9.4,5.07-14.1.85-2.36.89-2.35,3.2-1.37,7,3,14,5.87,20.91,8.85,5.86,2.51,11.62,5.27,17.61,7.48,1.51.55,2.11,1.31,1.5,3.14-3.45,10.39-6.75,20.83-10.09,31.26-.17.54-.26,1.1-.39,1.66Z" transform="translate(-0.33 -0.34)"/><path class="cls-5" d="M94.32,613.86c-2.33-1.24-4.63-2.53-7-3.71-8-4-16-8-24-12-1.69-.85-3.26-1.94-5-2.68-1.38-.59-1.09-1.18-.48-2.12q6.24-9.49,12.43-19c2.93-4.5,5.84-9,8.77-13.5,1.52-2.34,1.58-2.34,4-1a10.28,10.28,0,0,0,1,.45c.42.43,1,.48,1.52.76L113,574.36c1.31-.2,4.39,1.16,4.86,2.15s-.08,1.87-.56,2.66c-2.56,4.19-5,8.45-7.5,12.68-3.46,5.87-7.17,11.58-10.51,17.53-.9,1.6-1.72,3.41-3.4,4.47Z" transform="translate(-0.33 -0.34)"/><path class="cls-29" d="M200.09,613.86h-3.45c-3.06-.48-5.56-2.26-8.29-3.53-7.65-3.56-15.16-7.41-22.82-11a5,5,0,0,1-1.62-1c-1-1.91-3.23-3.05-3.51-5.45,0-2.17,1.53-3.69,2.46-5.43,2.15-4.07,4.51-8,6.74-12,.47-.86.79-1.89,2-2.11,1.73,1,.32,2.51.59,3.81,1.29.29,2.37-.61,3.62-.7,2.78-.2,5.57,0,8.32-.23,4-.33,8.12-.91,11.79-2.92a8.87,8.87,0,0,1,4.35-1.16c.38,0,.81.15,1.12-.07,1.64-1.18,3.42-.91,5.22-.6,1.84,0,3.27,1.2,4.85,1.89s3.29,1.5,4.9,2.32c2.79,1.23,2.94,1.82,1.5,4.48a22.6,22.6,0,0,0-2.42,5.25c-3,5.68-6,11.39-8.76,17.24-1.83,3.19-3.48,6.47-5.19,9.72A2.69,2.69,0,0,1,200.09,613.86Z" transform="translate(-0.33 -0.34)"/><path class="cls-5" d="M148,613.86l-38,.06c-4.44,0-8.87,0-13.31-.06.54-2.32,2.11-4.1,3.29-6.06,6-9.9,12-19.76,17.84-29.71a1.75,1.75,0,0,1,2.68-.79c4.45,2.51,9.19,4.47,13.78,6.68,5,2.4,9.88,5,15,7.18a76.45,76.45,0,0,1,6.93,3.41c2.18,1.23,2.28,1.61,1,3.86-2.12,3.74-4.1,7.55-6.32,11.23C149.92,611.1,149.42,612.8,148,613.86Z" transform="translate(-0.33 -0.34)"/><path class="cls-14" d="M252.57,613.86l-39.55.06c-3.93,0-7.86,0-11.79-.06-.46-1.61.8-2.74,1.39-3.93,1.21-2.46,2.51-4.89,3.86-7.28,1.27-3.38,3.2-6.43,4.77-9.65,1.29-2.65,2.61-5.29,4.06-7.87.88-2.17,2.09-4.17,3.12-6.27.64-1.3,1.64-1.37,2.87-.83,3.57,1.58,7.09,3.29,10.67,4.85,8.09,3.52,15.88,7.68,24,11.19.92.4,1.77,1,2.69,1.36,1.86.82,2.22,1.78,1.27,3.62-1.61,3.14-2.92,6.41-4.47,9.57C254.56,610.42,254.06,612.4,252.57,613.86Z" transform="translate(-0.33 -0.34)"/><path class="cls-1" d="M335.87,585.39c6.06,3,12.34,5.5,18.51,8.26,2.24,1,4.46,2.07,6.75,2.94,1.55.59,1.59,1.37,1.07,2.76-1.7,4.49-3.27,9-4.88,13.57a5.08,5.08,0,0,0-.15.93l-44.15.06c-2.4,0-4.8,0-7.2-.06a1.47,1.47,0,0,1-.23-1.9c2.68-5.91,5-12,7.55-17.95,2-4.62,3.88-9.3,5.8-14,.85-2.06,1.4-2.23,3.47-1.33,3.65,1.58,7.26,3.24,10.93,4.76A5.39,5.39,0,0,1,335.87,585.39Z" transform="translate(-0.33 -0.34)"/><path class="cls-1" d="M304.69,613.86H264.37c-.12-1.72,1.17-2.5,2.39-3,2.41-1,4.56-2.79,7.4-2.5a.81.81,0,0,0,.68-.28c1.5-1.86,3.69-1.93,5.79-2.24,3,1.13,5.83,2.63,8.78,3.88,1.57.67,3,1.54,4.07,1.83-2-.69-4.44-2.11-7-3.16a3,3,0,0,0-1.56-.76c-2.55-1.18-5.26-2.06-7.55-3.75-.68-1.22-.11-2.06.87-2.72,4.5-3,8-7.16,12.14-10.66a12.76,12.76,0,0,1,5.68-2.86c2.09-.43,3.56-1.27,4.41-3.32,1.36-3.3,4.48-5.05,6.91-7.41a20.43,20.43,0,0,0,1.84-1.63c.91-1.13,2-1.07,3.26-.64,2.16.68,4.07,2,6.23,2.64,1,.32,1.18,1,.78,1.93-2.46,5.94-4.85,11.91-7.35,17.84-2.17,5.15-4.26,10.34-6.47,15.47C305.42,613.07,305.34,613.66,304.69,613.86Z" transform="translate(-0.33 -0.34)"/><path class="cls-11" d="M44.51,613.86l8.17-12.5c.66-1,1.26-2.05,2-3,1.91-2.64,2.07-2.74,4.88-1.2,9.27,5.06,18.85,9.52,28.26,14.3,1.45.74,2.83,1.62,4.24,2.43Z" transform="translate(-0.33 -0.34)"/><path class="cls-29" d="M194.36,613.86H149.11c-.44-.46-.25-.91,0-1.38,2.77-5,5.66-9.85,8.35-14.86.8-1.48,1.74-1.81,3.33-.93,2.81,1.56,5.68,3,8.59,4.33,6.47,3,12.79,6.29,19.26,9.29,1.66.77,3.28,1.62,4.91,2.44C194,613,194.52,613.18,194.36,613.86Z" transform="translate(-0.33 -0.34)"/><path class="cls-1" d="M357.94,613.86c1.65-4.63,3.34-9.24,4.93-13.88.53-1.54,1.09-2.14,2.84-1.32,6.16,2.88,12.39,5.61,18.61,8.37,4.48,2,9,3.95,13.46,5.91.57.25,1.25.3,1.6.92Z" transform="translate(-0.33 -0.34)"/><path class="cls-12" d="M304.69,613.86q3-7.33,6.09-14.65,3.72-9,7.41-18c.26-.64.47-1.31.8-1.92.5-.94.09-1.38-.76-1.72-2-.79-4-1.61-5.95-2.42s-4.16-.88-6.05-1.95c-1-.58-1.46.09-1.74,1a22.08,22.08,0,0,1-4.52,8.64c-1.42,1.58-3.05,2.61-5.28,2.35a1,1,0,0,1-.66-.53c2.51-4.19,3.69-9,6.25-13.13,1-1.56,1.08-3.15,1.76-4.66,3.41-7.6,6.71-15.25,10-22.9.47-1.09.29-2.39,1-3.43a25.25,25.25,0,0,1-2.15,14.92c-1.56,3.45-2.49,7.15-4.28,10.5a15.61,15.61,0,0,0-1.07,3.82,1.2,1.2,0,0,0,.76,1.53c3.78,1.75,7.54,3.53,11.32,5.27,1.47.68,2.42.29,3.07-1.31q5.11-12.54,10.37-25a32,32,0,0,0,1.9-4.53c.11-.45.4-1.32,1-.24a2,2,0,0,1-.08,2c-3.38,8.67-6.94,17.27-10.59,25.84a3.31,3.31,0,0,0-.78,1.59,3.15,3.15,0,0,1-.25.73,1.53,1.53,0,0,0-.32,1.4c1,1.4,2.66,1.62,4.07,2.25,2.61,1.15,5.2,2.32,7.75,3.6.66.33,1.43.59,1.72,1.4.08.4.73.6.38,1.14-4.6-2-9.23-4-13.79-6.17-1.33-.62-2-.56-2.55.9-3.17,7.89-6.31,15.8-9.71,23.6a91.22,91.22,0,0,1-3.66,8.49,5.47,5.47,0,0,0-.33,1.65Z" transform="translate(-0.33 -0.34)"/><path class="cls-26" d="M280.72,606.31c-2,.73-4.35.67-5.71,2.73-.13.19-.57.24-.87.25-3.93.08-7.05,1.88-9.76,4.57h-11c.39-2.51,1.74-4.66,2.77-6.9,1.37-3,2.8-5.93,4.08-9a1.46,1.46,0,0,1,2.24-.92c2.68,1.1,5.27,2.4,7.89,3.62,3.08,1.43,6.24,2.72,9.2,4.41C280,605.4,280.83,605.41,280.72,606.31Z" transform="translate(-0.33 -0.34)"/><path class="cls-12" d="M280.72,606.31c-2.4-1.65-5.22-2.45-7.79-3.76-3-1.54-6.16-2.84-9.22-4.29-2.32-1.1-2.3-1.13-3.4,1.17-1.86,3.92-3.75,7.82-5.58,11.76a11.25,11.25,0,0,1-1.39,2.67h-.77c1.28-3.48,3-6.78,4.53-10.15.79-1.71,1.58-3.43,2.38-5.14a1.68,1.68,0,0,0-.94-2.59q-18.29-8.49-36.57-17c-2.3-1.07-2.35-1-3.58,1.23-.94,1.72-1.82,3.48-2.72,5.22a.51.51,0,0,1-.76,0c.27-2.06,1.49-3.7,2.41-5.47,1.26-2.43,1.26-2.62-1.27-3.66a.71.71,0,0,1-.16-.75,1,1,0,0,1,1.17-.43c1.73.65,2.21-.6,2.82-1.73.53-1,.74-2.2,2-2.68a1.12,1.12,0,0,1,1.24.34c.44,1.47-.64,2.48-1.16,3.64-.82,1.8-.81,2.06,1,2.84,2.53,1.09,4.81,2.71,7.47,3.53,3.67,1.58,7.17,3.52,10.88,5,5.64,2.55,11.25,5.17,16.88,7.75,2.14,1,2.06,1,3.07-1,2.48-4.84,4.17-10,6.79-14.82.73-1.89.72-2.13-1.31-3-5.86-2.39-11.5-5.3-17.38-7.65a11.5,11.5,0,0,1-3.85-2c-.75-.71-1.69-1.46-.92-2.73,5.76,2.25,11.29,5,16.94,7.54,5,2.21,9.9,4.56,14.9,6.71,5.9,2.54,11.58,5.56,17.61,7.81h.76c0,.91-.67.9-1.29,1-6.79-1-12.62-4.54-18.83-7.09-.29-.12-.57-.26-.87-.38-2.45-1-2.88-.8-3.94,1.72-2,4.57-4.1,9.09-6.14,13.64-1.05,2.36-1,2.63,1.44,3.62,3.57,1.46,6.93,3.38,10.51,4.8.87.35,1.34,1.14,2,1.71a52.29,52.29,0,0,0,7.61,3.42c.49.28,1.1.34,1.52.76a33.33,33.33,0,0,0,6,2.94,14.4,14.4,0,0,1,3.45,2.14A151.47,151.47,0,0,1,280.72,606.31Z" transform="translate(-0.33 -0.34)"/><path class="cls-30" d="M194.36,613.86c-2.9-2.07-6.27-3.22-9.42-4.81q-8.64-4.35-17.41-8.42c-2.35-1.09-4.7-2.17-7-3.42-1.27-.7-2.12-.31-2.8.92-2.67,4.79-5.39,9.56-8.07,14.34a13.09,13.09,0,0,0-.59,1.39H148c1.71-3.82,4.06-7.29,6-11,.93-1.8,2-3.55,3-5.3.57-1,.63-1.64-.61-2.21-3.43-1.58-6.81-3.26-10.2-4.93-6-2.92-11.88-5.91-17.86-8.78-2.67-1.28-5.46-2.32-8-3.83-.88-.52-1.48-.34-2,.57-5.05,8.47-10,17-15.27,25.34-2.11,3.37-4,6.88-6.29,10.14h-.77q3.48-5.85,7-11.7,7-11.7,14-23.39c.89-1.48.66-2.47-.94-3.14-1-.41-2-.85-2.94-1.28v-1.14c1.48.69,3,1.27,4.41,2.09,1,.6,1.39.27,1.89-.59,2.11-3.57,4.29-7.09,6.43-10.64a2.6,2.6,0,0,1,1-1.13l.38.38c.55.95,0,1.72-.44,2.47-1.57,2.82-3.38,5.5-4.9,8.35-1,1.81-.93,2,.85,2.86,6.49,3,12.86,6.27,19.32,9.35,4.74,2.26,9.57,4.35,14.17,6.89,1.36.75,2.1.57,2.88-.76,3.21-5.46,6.24-11,9.21-16.61.72-1.34,1.56-2.6,2.28-3.95a2,2,0,0,1,1.38-1.21,1.15,1.15,0,0,1,1,.5,2,2,0,0,1-1.25,2.39c-2.61,3.7-4.44,7.86-6.79,11.71-1.14,1.87-2.13,3.84-3.22,5.75a3.69,3.69,0,0,0-.64,1.94c-.45,1.48-.36,2.7,1.36,3.32.84.3,1.3,1.17,2.06,1.63a97,97,0,0,0,8.94,4.45q10.43,5.08,20.84,10.22l2.53,1.25Z" transform="translate(-0.33 -0.34)"/><path class="cls-23" d="M206.92,602.89l-5.69,11h-1.14c1.92-3.84,3.79-7.7,6.07-11.35A.87.87,0,0,1,206.92,602.89Z" transform="translate(-0.33 -0.34)"/><path class="cls-5" d="M44.09,541c.92.43,2,.93,3.08,1.45q12.59,6.16,25.17,12.32,2.72,1.33,5.51,2.52c1.3.56,1.68,1.12.78,2.51-6.23,9.52-12.37,19.11-18.54,28.67-1,1.59-2.1,3.16-3.14,4.74a1.51,1.51,0,0,1-2.26.54c-9.5-4.86-19.14-9.44-28.51-14.55-1.94-1.06-3.92-2-5.94-2.94-1.19-.53-1.06-1.07-.42-2,2.68-3.76,5.32-7.55,8-11.33l14.43-20.69C42.63,541.64,42.93,540.84,44.09,541Z" transform="translate(-0.33 -0.34)"/><path class="cls-31" d="M50.59,528l-1.14,2.28c-1.8,2.58-3.67,5.12-5.38,7.77-.82,1.27-1.57,1.27-2.79.64-5.19-2.7-10.42-5.32-15.8-7.64-5.23-2.55-10.45-5.14-15.71-7.63-1.49-.71-1.81-1.1-.62-2.62,3.79-4.83,7.33-9.84,11-14.79a3.66,3.66,0,0,1,1.19-1.2,19.87,19.87,0,0,1,6.3,3,6.63,6.63,0,0,0,4.19,1.56c1.51-.09,2.19,1,2.93,2.08,1.09,1.55,2.31,3,3.34,4.6.71,1.09,1.57.18,2.44.32-.47,1.45-.6,2.59,1.39,1.47,2.75,1.48,5.69,1,8.62,1,.9,0,.81,1,.53,1.84a45.13,45.13,0,0,1-2.74,5.41c-.29.59-1,1.12-.4,1.86s1.29.26,2,.11A6.53,6.53,0,0,1,50.59,528Z" transform="translate(-0.33 -0.34)"/><path class="cls-26" d="M84.06,551.16l-.38,1.14-.76.38c-.3-.73-1.75-1.09-1.19-1.92C82.41,549.75,83.22,551.21,84.06,551.16Z" transform="translate(-0.33 -0.34)"/><path class="cls-26" d="M85.58,561.05a1.48,1.48,0,0,1-1.52-.76A2.33,2.33,0,0,1,85.58,561.05Z" transform="translate(-0.33 -0.34)"/><path class="cls-1" d="M342.33,435.15c7.55,3.05,15.14,6,22.82,8.71,2.32.82,4.53,1.94,6.86,2.72,1.52.5,1.67,1.26,1.1,2.55-1.48,3.35-3.06,6.67-4.36,10.1-1.88,5-4.34,9.68-6,14.74-.57,1.76-1.41,2.13-3,1.49-4.68-1.89-9.39-3.72-14.06-5.65-3.14-1.3-6.29-2.59-9.51-3.69-1.14-.39-2.1-1-1.89-2.44,1.37-5.18,2.73-10.36,4.11-15.53,1-3.59,2-7.18,2.95-10.76C341.62,436.6,341.64,435.73,342.33,435.15Z" transform="translate(-0.33 -0.34)"/><path class="cls-1" d="M333.59,466q7.37,2.93,14.75,5.85c3.46,1.37,6.92,2.76,10.42,4,2.66,1,2.73,1.19,1.65,3.72-2.89,6.79-5.86,13.54-8.48,20.44-.74,1.94-1.71,3.78-2.35,5.77-.58,1.8-1.95,1.73-3.34,1-6.36-3.1-13-5.41-19.55-8.13-.77-.32-1.33-.68-1.47-1.54.81-3.23,1.56-6.48,2.43-9.7C329.6,480.28,331.61,473.12,333.59,466Z" transform="translate(-0.33 -0.34)"/><path class="cls-5" d="M327.5,500.19q9.26,3.76,18.52,7.52c2.17.89,2.09,1,1.17,3.13-2.31,5.45-4.52,10.94-6.77,16.41q-2.59,6.29-5.18,12.58c-.39,1-.86,1.29-2,.8-5.58-2.36-11.11-4.83-16.62-7.36a1.45,1.45,0,0,1-.89-1.51c1.06-4.1,2.09-8.21,3.17-12.3,1-3.6,2-7.19,3-10.77.84-3,1.74-5.92,2.61-8.88.33-.27.62-.69,1.14-.38S327,499.65,327.5,500.19Z" transform="translate(-0.33 -0.34)"/><path class="cls-1" d="M253.71,393.68a28.8,28.8,0,0,1-.25,5.29c-.29,1.25.78,1.69,1.66,1.93,2.74.75,5.22,2.12,7.84,3.13,1,.38,1.38,0,1.77-.78a25.64,25.64,0,0,1,3.06-5c.08,5-1.06,9.9-1.73,14.83-1,7.5-2.13,15-3.23,22.47-.92,6.29-1.87,12.57-2.8,18.85q-1.08,7.3-2.13,14.6a1.53,1.53,0,0,1-2.34,1.09c-1.51-.64-2.94-1.45-4.5-2a1.33,1.33,0,0,1-.77-2.13c.24-.39.52-.77.05-1.17-1.12-1-1.16-2.31-1.3-3.64-.11-1.07-.37-2.06-1.69-2.45a2.24,2.24,0,0,1-1.42-2.45,22.82,22.82,0,0,0-.29-4c.54-5.88,1.12-11.78,2.16-17.57.48-2.69.1-5.4.85-8,.17-.6.15-1.26.65-1.72.71-.15.53-.44.11-.78-.69-1.63.21-3.2.15-4.81.19-.87.49-1.71.69-2.57a1.2,1.2,0,0,1,.38-.41.9.9,0,0,1,.53,0c1.94.13,1.65-1.34,1.65-2.44s0-2,1-2.71c.55-.39,1.47-.64,1.56.15.19,1.69,1.59,3.09,1.18,4.64,1.56-2.78,3.28-5.79,5-8.78.7-1.21.57-1.75-.73-2.18s-2.35-.93-3.53-1.37c-1.58-.6-3.2-1.19-5-.62-.39-.52-.26-1.16-.42-1.74a2.35,2.35,0,0,1,0-.63,54.55,54.55,0,0,0,.88-6.14,1.22,1.22,0,0,1,.36-.86A.46.46,0,0,1,253.71,393.68Z" transform="translate(-0.33 -0.34)"/><path class="cls-14" d="M246.48,452.64c0,1.14-.08,2.28,0,3.41.12,1.28.25,2.73,2.24,2,.45-.17.82,0,.71.49-.27,1.3.68,2.41.46,3.71a1.89,1.89,0,0,0,1,2.05,3.67,3.67,0,0,1,1.46,1.58c-.31.45-.62.26-.92.23-.49,0-.92.06-1,.62a.69.69,0,0,0,.69.76c1.82.14,3.21,1.23,4.71,2.07a1.48,1.48,0,0,0,2-.5q-2.49,17.49-5,35c-.44,3.06-1,6.1-1.48,9.14a31.25,31.25,0,0,1-1.48,4.09c-.52.7-.73,1.64-1.64,2-1.37.35-2.28-.46-3.15-1.31-2.11-2.08-3.35-4.88-5.64-6.82-.58-.49-.47-1.27-.33-2a10.28,10.28,0,0,0,0-3.94q1.69-13.52,3.28-27.05c.84-7.08,1.89-14.13,2.49-21.24.08-1,.34-2,.44-3C245.43,453.28,245.63,452.63,246.48,452.64Z" transform="translate(-0.33 -0.34)"/><path class="cls-22" d="M248.38,518.83l1.14-1.9c.18-.25.37-.58.74-.35s.33.79.2,1.2a34.85,34.85,0,0,1-2.28,5.38c-2.68,5.14-5.23,10.35-7.86,15.51-1,2-.91,2.09,1.13,3,1.86.87,4,1.32,5.41,3-.07.77.21,1.6-.38,2.28-2.07-1.48-4.47-2.3-6.71-3.45-1.2-.61-1.8-.2-2.43.83-1.2,1.94-2,4.08-3,6.09s-2.11,4-3.19,6c-2,4.53-4.58,8.74-6.65,13.23a1.82,1.82,0,0,1-1.55,1.25c-.25.09-.51.26-.76,0-.69-.79-.27-1.58.09-2.3,1.88-3.81,3.74-7.62,5.71-11.38,1.69-2.66,2.86-5.6,4.32-8.38,1-1.89,1.58-4,2.89-5.48a4.58,4.58,0,0,1-3.18,2,10.56,10.56,0,0,0-5.25,2.42,15.63,15.63,0,0,1-4.62,2.91,5.09,5.09,0,0,1-3.86.14,1.14,1.14,0,0,1-.25-.81,1.56,1.56,0,0,1,.35-.79c1.54-1.93,2.35-4.28,3.57-6.39s2.41-4.39,3.74-6.53,2-4.43,3.1-6.63c2.74-5.54,5.91-10.86,8.53-16.47.38-.81.77-2,2.16-1.62,1.21,2.09.27,4.24,0,6.28-1,6.62-1.79,13.27-2.77,19.9a1.73,1.73,0,0,0,.11,1.1c.65.13.76-.38.94-.75,2.7-5.44,5.65-10.76,8.28-16.23A6.63,6.63,0,0,1,248.38,518.83Z" transform="translate(-0.33 -0.34)"/><path class="cls-23" d="M230.51,556.11c2.22-4.32,4.48-8.62,6.62-13,.53-1.09,1.09-1.21,2.07-.74,2,1,4.1,2,6.19,2.86a1.52,1.52,0,0,1,1.09,1.73c-.56,4-1.07,8-1.7,12a30.39,30.39,0,0,0-.2,3.55c.27,1.84,1.7,2.65,3.15,3.23,5.73,2.3,11.31,4.92,16.9,7.51,1.07.5,2.26.76,3.32,1.32,2,1.08,2.16,1.66.59,3.54-1.06.86-2.06.2-3-.18-6-2.3-11.7-5.14-17.78-7.12-3.51-1.14-4.25-4-4.43-7.19a4.39,4.39,0,0,0-.56-1.95,14.15,14.15,0,0,1-1.25-3.57c-.63-2.62-1.55-5.11-4.19-6.44-1-.51-1.76-.49-2.09.87a14.79,14.79,0,0,1-1.32,3.35C232.82,558,231.76,558,230.51,556.11Z" transform="translate(-0.33 -0.34)"/><path class="cls-23" d="M246.86,544.69c-2.68-.57-5-2.06-7.5-3-1.2-.46-.76-1.39-.34-2.22q3.51-6.92,7-13.85,1.95-3.89,3.81-7.82c.11-.22,1.07-1-.31-.85l1.9-3.8c-.53,5.9-1.68,11.71-2.5,17.57C248.27,535.36,247.55,540,246.86,544.69Z" transform="translate(-0.33 -0.34)"/><path class="cls-1" d="M321.8,575.5v-.76c.43-.42.48-1,.76-1.52L334,545.45c1.45-2.74,1.43-2.69,4.37-1.45q15.89,6.7,31.81,13.35c1.69.71,3.36,1.46,5.06,2.16,1,.4,1.39.87,1,2q-4.84,12.77-9.57,25.59c-1,2.6-1.91,5.22-2.77,7.86-.41,1.25-1,1.58-2.23,1-8-3.62-16-7.17-24.06-10.76-.69-.31-1.36-.66-2-1-2.79-.82-5.25-2.39-7.92-3.48-1.87-.76-3.72-1.54-5.56-2.37-.54-.24-1.52-.32-1-1.38C321.32,576.53,321.37,575.93,321.8,575.5Z" transform="translate(-0.33 -0.34)"/><path class="cls-1" d="M431.66,543.26a19.32,19.32,0,0,1-.47,2.34c-2.29,6.89-4.72,13.74-6.89,20.67-1.05,3.37-2.06,6.75-3.19,10.1-.46,1.34-1,1.53-2.39.94-8.22-3.58-16.5-7-24.76-10.52-5.06-2.14-10.1-4.31-15.17-6.43-.81-.34-1.05-.7-.73-1.57q5.06-13.48,10.05-27a30.9,30.9,0,0,0,1.29-4c.39-1.76,1.36-1.92,2.8-1.31q3.58,1.5,7.18,3,9.13,3.72,18.26,7.42c4.38,1.79,8.75,3.6,13.12,5.39C431.29,542.5,431.71,542.73,431.66,543.26Z" transform="translate(-0.33 -0.34)"/><path class="cls-1" d="M376.23,559c-.74-.25-1.55-.46-2.3-.79-6.2-2.67-12.39-5.39-18.59-8.06-5.92-2.55-11.83-5.11-17.79-7.55-1.52-.62-1.72-1.39-1.13-2.75,2.23-5.22,4.58-10.4,6.57-15.71,1.75-4.66,4-9.12,5.58-13.84.36-1.06,1-1.37,2-.93q9.18,3.81,18.37,7.58c5.71,2.35,11.42,4.74,17.15,7,3.43,1.37,3.5,1.32,2.21,4.69-3.65,9.56-7.24,19.15-10.62,28.81C377.45,558.15,377.32,559,376.23,559Z" transform="translate(-0.33 -0.34)"/><path class="cls-1" d="M442.59,509.24a27.87,27.87,0,0,1-.68,3c-3.34,9.33-6.1,18.86-9.21,28.27-.43,1.29-.93,1.51-2.19,1q-8.6-3.73-17.28-7.29-9.7-4-19.45-7.9c-3-1.21-3.18-1.2-2.14-4.12,2.24-6.31,4.63-12.57,6.94-18.85,1.11-3,2-6.13,3.31-9.08.42-.94.74-1,1.67-.63,6.28,2.46,12.53,5,18.83,7.45,3.39,1.3,6.78,2.67,10.23,3.86a77.1,77.1,0,0,1,9,3.75C442,508.88,442.62,509,442.59,509.24Z" transform="translate(-0.33 -0.34)"/><path class="cls-1" d="M401.19,493.37c-.78,2.23-1.56,4.56-2.41,6.87-2.76,7.47-5.59,14.92-8.29,22.42-.57,1.59-1.11,1.86-2.7,1.17-5.73-2.47-11.56-4.72-17.32-7.11-6.58-2.74-13.13-5.56-19.72-8.29-1-.43-.93-1-.61-1.76q4.17-10,8.32-20.09c1-2.44,2-4.89,3-7.35.48-1.26,1.09-1.91,2.55-1.31,4,1.66,8.09,3.26,12.15,4.86q7.3,2.88,14.62,5.73,4.77,1.86,9.56,3.69A1.11,1.11,0,0,1,401.19,493.37Z" transform="translate(-0.33 -0.34)"/><path class="cls-1" d="M412.54,462.57c-.6,1.7-1.12,3.25-1.69,4.79-1.38,3.73-2.8,7.45-4.18,11.18q-2.17,5.87-4.29,11.75c-.44,1.24-1,1.69-2.41,1.09-7-3-14.19-5.59-21.21-8.57-4.69-2-9.47-3.81-14.26-5.56-1.6-.58-1.7-1.35-1.14-2.69q4.31-10.3,8.57-20.63c.72-1.74,1.48-3.47,2.16-5.22.37-.95.93-1,1.78-.68,5.16,2,10.26,4.22,15.51,6,3.4,1.13,6.67,2.57,10.06,3.72s6.94,2.56,10.33,4.06C412.2,462,412.57,462.18,412.54,462.57Z" transform="translate(-0.33 -0.34)"/><path class="cls-1" d="M327.5,500.19a4.1,4.1,0,0,1-1.9-.76C326.34,499.42,327.08,499.4,327.5,500.19Z" transform="translate(-0.33 -0.34)"/><path class="cls-32" d="M239.25,511.6c-2.32,3.33-3.64,7.19-5.67,10.68s-4,7.32-5.83,11c-.44.88-1.32,1.79-.61,3,.27.45,0,.69-.48.79-1.29.29-1.7,1.42-2.22,2.42-1.46,2.8-2.88,5.61-4.31,8.43a3.47,3.47,0,0,1-1.43,1.71c-1.19-.91-.79-2.18-.72-3.34.35-5.67,1.12-11.29,1.52-17,.36-5.15.91-10.31,1.49-15.46.45-4,.58-8.06,1.07-12.08.93-7.59,1.24-15.23,2.08-22.83.57-5.14,1.06-10.31,1.29-15.48.12-2.73.64-5.39.88-8.1.33-3.84.6-7.68,1-11.52.56-6,1.17-12.07,1.69-18.11.44-2.36,1.07-4.7.75-7.14a5.16,5.16,0,0,1,.06-1.28,6.87,6.87,0,0,0,.32-2.36,5.46,5.46,0,0,1,.09-1.21c.43-1.3.43-2.76,1.35-3.9a.93.93,0,0,0,0-1.22c-.6-.82-.4-1.83-.65-2.73a4,4,0,0,1,.18-1.46,3.43,3.43,0,0,0,.29-2.9,3.32,3.32,0,0,1,0-.88,24.82,24.82,0,0,0,.6-3.53,1,1,0,0,1,.43-.42,14.42,14.42,0,0,0,2.9-4.59c2.47-5.41,5.74-10.38,8.74-15.5,3.68-6.25,7.54-12.4,11.31-18.6.7-1.16,2-2,2.15-3.52.59.85.3,1.78.39,2.65q0,.19,0,.38c-.49.7.11,1.58-.38,2.28v.76c-.35,1.76-.46,3.56-.76,5.33q0,.38,0,.76c-.74,2.87-.45,5.87-1.14,8.75v1.14c-.66,1.72-.43,3.56-.76,5.33h0c-.52,1,.13,2.08-.38,3v.76c-.48,2-.46,4.06-.76,6.09-.47.57.09,1.34-.38,1.9v.76a61.62,61.62,0,0,0-.76,6.47q0,.19,0,.38a2.91,2.91,0,0,0,.11,2.46,1.63,1.63,0,0,1,.08.56,14.08,14.08,0,0,0-.37,2.47,2.13,2.13,0,0,1,0,.57,6,6,0,0,0-.27,2.82,2.38,2.38,0,0,1-.05.62,11.45,11.45,0,0,0-.83,4.19,1.91,1.91,0,0,1-.56,1.53c-.51.83.12,1.83-.38,2.66l-.38,5.32q.15.13.1.25t-.1.13c-.66.81-.49,1.85-.54,2.74-.48,8.4-2.39,16.63-2.88,25-.83,2.8-.72,5.72-1.11,8.58-1.07,7.8-2,15.62-3,23.44-.72,5.94-1.34,11.9-2,17.85-.11,1-.25,2-.37,3C239.71,507.54,239.76,509.6,239.25,511.6Z" transform="translate(-0.33 -0.34)"/><path class="cls-16" d="M255.61,375.43c.41-2.91-.06-5.94,1.14-8.75C256.49,369.61,256.55,372.59,255.61,375.43Z" transform="translate(-0.33 -0.34)"/><path class="cls-16" d="M253.71,391.78a15.19,15.19,0,0,1,.76-6.09A24.77,24.77,0,0,1,253.71,391.78Z" transform="translate(-0.33 -0.34)"/><path class="cls-16" d="M254.85,381.89c0-1.81-.24-3.66.76-5.33A27.71,27.71,0,0,1,254.85,381.89Z" transform="translate(-0.33 -0.34)"/><path class="cls-16" d="M256.75,365.92a13.37,13.37,0,0,1,.76-5.33A16.46,16.46,0,0,1,256.75,365.92Z" transform="translate(-0.33 -0.34)"/><path class="cls-16" d="M254.47,384.94c.12-1-.3-2.1.38-3C254.73,382.91,255.15,384,254.47,384.94Z" transform="translate(-0.33 -0.34)"/><path class="cls-16" d="M257.51,359.83c.07-.77-.21-1.6.38-2.28C257.83,358.32,258.1,359.15,257.51,359.83Z" transform="translate(-0.33 -0.34)"/><path class="cls-16" d="M253.33,393.69c0-.65-.14-1.35.38-1.9q0,1,0,1.9Z" transform="translate(-0.33 -0.34)"/><path class="cls-33" d="M231.65,404.34v1.52a1.43,1.43,0,0,0-.17,1.26c.69,2.33-.59,4.47-.59,6.72V415c-.49.7.11,1.58-.38,2.28v1.14c-.31,2.4-.45,4.82-.76,7.23q-.7,7.73-1.39,15.45c-.3,3.33-.58,6.66-.89,10-.59,6.34-1.3,12.68-1.77,19-.35,4.72-.8,9.43-1.24,14.14-.51,5.46-.94,10.93-1.42,16.4-.31,3.58-.76,7.15-1,10.75-.31,5.41-.89,10.82-1.62,16.19-.3,2.21-.25,4.42-.37,6.61-.18,3.28-1.09,6.48-1,9.77.05,1.9-.61,3.75-.38,5.67l-.38.38c-.71.77-1.48.48-2.25.11-5.76-2.74-11.61-5.28-17.42-7.89-6.08-2.73-12.12-5.58-18.26-8.18-2.66-1.12-5.27-2.4-7.9-3.6a2.47,2.47,0,0,1-1.15-2,84.57,84.57,0,0,1-.25-9.08,32.06,32.06,0,0,0-.23-4.53,2.9,2.9,0,0,1,.68-2.82v-.76c-1-.81-.87-1.93-.75-3A113.8,113.8,0,0,0,171,493a6,6,0,0,1,.58-3.13q0-3.8,0-7.61a3.45,3.45,0,0,1-.58-2.14c0-1.95,0-3.89,0-5.84a2.26,2.26,0,0,1,.57-1.91q0-.38,0-.76c.22-33.09-.35-66.18-.38-99.28a.23.23,0,0,1,.38,0c1.63,1.36,3.67,1.89,5.58,2.59,8.47,3.1,16.81,6.55,25.27,9.67,4.13,1.52,8.29,3,12.36,4.65,5.44,2.2,11,4,16.41,6.33a2.48,2.48,0,0,1,1.24,1.11v.38c-.53,1.23.15,2.58-.38,3.8v.76C231.49,402.5,232.43,403.54,231.65,404.34Z" transform="translate(-0.33 -0.34)"/><path class="cls-5" d="M171.55,372.38h-.38c-.55.65-.37,1.44-.37,2.18,0,7.83,0,15.65,0,23.48,0,.75.36,1.71-.74,2.11q0-14.32,0-28.63c0-.59-.35-1.52.31-1.71a1.6,1.6,0,0,1,2,1C172,371.37,171.57,371.76,171.55,372.38Z" transform="translate(-0.33 -0.34)"/><path class="cls-3" d="M20.54,389.5a5,5,0,0,1-.76-3.42A8.67,8.67,0,0,1,20.54,389.5Z" transform="translate(-0.33 -0.34)"/><path class="cls-3" d="M18.64,381.51c-.62-.78-.38-1.4.38-1.9Z" transform="translate(-0.33 -0.34)"/><path class="cls-28" d="M170,553.82c-7.3-3.09-14.41-6.57-21.6-9.9-1.88-.87-3.71-1.86-5.63-2.61-1.63-.63-1.62-1.38-.82-2.69,1.79-2.89,3.49-5.84,5.22-8.77s3.43-5.58,5.13-8.37a2.62,2.62,0,0,1,1-1.14c.82-.84,1.78-.45,2.69-.26a45.49,45.49,0,0,1,7.14,1.8,10.8,10.8,0,0,1,6,4.67c.15.28.4.72.63.65,2.26-.67,1.77,1,2.16,2.23.46,1.46,2.06,1.71,3.37,2.18a10.92,10.92,0,0,0,1.71.76,19.05,19.05,0,0,0,3.17,1.59l.46.19a14.28,14.28,0,0,0,3.18,1.32,12.8,12.8,0,0,0,1.82.74,2.87,2.87,0,0,0,1.5.76,2,2,0,0,1,.44.25c.59.55,1.44.68,2,1.28A4.43,4.43,0,0,1,187.1,543c-1-.39-1.86-.57-2.72.39s-1.82.7-2.85.55c-.47-.07-1.11-.5-1.32.49-.29,1.38-1.36,1.23-2.23.77a27.57,27.57,0,0,1-5-3.45c-1-.87-1.11-2.22-1.12-3.51a8.65,8.65,0,0,0-.68-4.32c0,5.58,0,11,0,16.46C171.17,551.65,171.28,553,170,553.82Z" transform="translate(-0.33 -0.34)"/><path class="cls-23" d="M175.35,532.14c-2.9-.55-3.61-1.34-3.91-4.39-1.77,1.18-2,1.21-2.91-.59-1.75-3.39-4.92-4.47-8.27-5.28-2.31-.56-4.64-1-7-1.53,2-4.07,4.16-8.09,8.77-9.89a5.56,5.56,0,0,1,3.82.07c1.86.55,3.57,1.81,5.67,1.45.61,5.21.34,10.44.36,15.66a2.73,2.73,0,0,0,1.16,2.6C173.73,531,175.2,530.77,175.35,532.14Z" transform="translate(-0.33 -0.34)"/><path class="cls-23" d="M171.55,489.92a135.36,135.36,0,0,1,0,21.3c-1.94.07-2.45-2-3.93-2.69-.51-.24.21-1,.8-1.08,1.36-.26,1.62-1.2,1.61-2.39q0-5.51,0-11C170,492.49,170.22,491,171.55,489.92Z" transform="translate(-0.33 -0.34)"/><path class="cls-24" d="M171.55,472.42v9.89a1.66,1.66,0,0,1-1.15-1.74c0-2.26,0-4.53,0-6.79C170.4,473,170.62,472.42,171.55,472.42Z" transform="translate(-0.33 -0.34)"/><path class="cls-31" d="M42.6,496A18,18,0,0,1,46,497.53c-.11,2.65,1.23,5,1.72,7.5a14,14,0,0,0,1.32,4.71c.27.46.4,1-.22,1.29s-1-.07-1.26-.52c-1-1.46-2-2.89-2.93-4.41a29.63,29.63,0,0,0-3.59-5.31C39.42,499,39.86,497.53,42.6,496Z" transform="translate(-0.33 -0.34)"/><path class="cls-31" d="M54,513.48c.84.13,2.2-.11,2.08,1s-1.65.83-2.57,1.06c-.7.18-1.59-.18-1.56-1C52,513.34,53.14,513.63,54,513.48Z" transform="translate(-0.33 -0.34)"/><path class="cls-31" d="M50.51,516.55c0,.58-.23,1-.77.91-.69-.16-.88-.82-1-1.43,0-.39.15-.77.63-.7C50.15,515.44,50.34,516,50.51,516.55Z" transform="translate(-0.33 -0.34)"/><path class="cls-26" d="M171.93,570.94q-3.61,6.45-7.21,12.9c-1.92,3.42-3.86,6.83-5.77,10.25-.62,1.11-1.44.83-2.26.38-6.51-3.51-13.29-6.46-19.91-9.73q-8-3.95-16-7.79c-1.16-.55-1.06-1.05-.48-2,2.3-3.84,4.52-7.74,6.77-11.61l10.82-17.83c.26-.43.55-.85.84-1.26,2-2.83,2-2.87,5.26-1.36,8.48,3.94,16.93,7.91,25.4,11.87a5.16,5.16,0,0,0,2.18.59c2.45.39,4.48,1.8,6.65,2.84a1.08,1.08,0,0,1,.42,1.5c-2.05,3.8-3.83,7.75-6.51,11.18C172.07,570.91,172,570.92,171.93,570.94Z" transform="translate(-0.33 -0.34)"/><path class="cls-26" d="M170,553.82c1-7.33-.27-14.77,1-22.14a9.18,9.18,0,0,1,1.61,4.56,21.68,21.68,0,0,1,0,2.47,3.44,3.44,0,0,0,2.09,3.48,29.41,29.41,0,0,1,3.58,2.46c.34.23.81.58,1.2.18s-.06-.68-.28-1-.65-.88-.24-1.36c.6-.68.92.14,1.4.3,1.38.48,2.73,1.16,4-.48s1.63-1.36,2.69.46c.85,1.58-.55,2.64-1.11,3.72-1.72,3.33-3.75,6.5-5.48,9.83-1,1.94-1.81,2.25-3.64,1.31a51.07,51.07,0,0,1-5.37-2.69Z" transform="translate(-0.33 -0.34)"/><path class="cls-34" d="M171.55,555c1.88.17,3.4,1.21,5,2.05,1.38.72,2.54.87,3.44-.82,2.21-4.14,4.52-8.23,6.78-12.34a6.39,6.39,0,0,0,.36-1.06c1.09-1.19,2.06-2.43,1.9-4.18-.53-.56-1.35-.63-1.9-1.14-.49-.28-1.1-.34-1.52-.76a2.39,2.39,0,0,1-1.9-.76c-1.14-.51-2.3-1-3.42-1.52s-2.28-1-3.42-1.52a2.33,2.33,0,0,1-1.52-.76c-.65-.77-1.74-1-2.28-1.9,3.28.83,6.15,2.62,9.22,3.92,6,2.57,12,5.4,18,8.11,5.13,2.33,10.26,4.64,15.39,7a5.2,5.2,0,0,0,2.7.77v.76c-.81,1-1.72.53-2.57.14-4.88-2.21-9.68-4.59-14.59-6.74-3.06-1.34-6.11-2.69-9.19-4-.55-.23-1-.26-1.29.28-2.83,5-5.61,10.06-8.43,15.09-1.35,2.4-1.32,2.48,1.11,3.62,10.26,4.8,20.56,9.52,30.82,14.34.85.4,2,.59,1.87,2v.76c-3.19-1.35-6.12-3.3-9.51-4.18-7.33-2.41-14.14-6-21.12-9.22-1.38-.63-2.79-1.19-4.14-1.88s-1.94-.16-2.56,1c-1.45,2.59-2.76,5.25-4.32,7.78-.42.69-.74,1.51-1.71,1.61l-.76-.38c1.91-3.55,3.77-7.13,5.75-10.65.6-1.07.64-1.48-.6-2.1-1.85-.92-3.94-1.41-5.53-2.85Z" transform="translate(-0.33 -0.34)"/><path class="cls-26" d="M172.69,571.32l5.71-10.46c.64-1.18,1.33-1.51,2.74-.84,7.86,3.71,15.79,7.28,23.68,10.93a13.55,13.55,0,0,1,1.73,1.13,5.46,5.46,0,0,0-4.86.85c-.84.65-1.92-.07-2.94.08-1.92.29-3.42,1.48-5.1,2.17-2.79,1.15-5.67,1.32-8.49,1.76-3.12.49-6.4-.15-9.56.4a7.51,7.51,0,0,0-4.11,1.55c-1-1.8.65-3.54.06-5.3A5.49,5.49,0,0,1,172.69,571.32Z" transform="translate(-0.33 -0.34)"/><path class="cls-34" d="M206.92,602.89l-.76-.38a160,160,0,0,1,8.75-17.12h.76q-4,7.77-8.06,15.55A14.63,14.63,0,0,0,206.92,602.89Z" transform="translate(-0.33 -0.34)"/><path class="cls-26" d="M164.32,597.95c-1-.43-2-.83-2.94-1.29-2.38-1.13-2.43-1.59-.48-3.66C161.61,594.94,163.34,596.19,164.32,597.95Z" transform="translate(-0.33 -0.34)"/><path class="cls-7" d="M293.27,585c.54,0,1.09.06,1.52-.38,4.63-.41,6.1-4.15,7.85-7.53a22.35,22.35,0,0,0,1.29-3.94c.33-1.13.91-1.6,2.08-1,2.06,1,4.34,1.65,6.28,3a2.4,2.4,0,0,0-2.86,1,21.46,21.46,0,0,1-4,3.49,14.57,14.57,0,0,0-4.89,6.13,3.48,3.48,0,0,1-2.79,2.27,33,33,0,0,0-4.21,1.42c-2.89.91-4,3.71-6.38,5.1-3.35,2-5.07,5.92-8.83,7.41-.86.34-.9.94-.69,1.68l-10.12-4.6c-1.6-.73-3.18-1.5-4.8-2.2-.68-.29-1.12-.61-.75-1.4,2.48-5.23,4.52-10.67,7.29-15.76,1.1-1.37,2.33-1,3.72-.43a121.56,121.56,0,0,0,15.42,5.62A8.25,8.25,0,0,0,293.27,585Z" transform="translate(-0.33 -0.34)"/><path class="cls-26" d="M286.8,607.84a2.33,2.33,0,0,1-1.52-.76A1.48,1.48,0,0,1,286.8,607.84Z" transform="translate(-0.33 -0.34)"/><path class="cls-14" d="M321.8,575.5A2.33,2.33,0,0,1,321,577,1.48,1.48,0,0,1,321.8,575.5Z" transform="translate(-0.33 -0.34)"/><path class="cls-14" d="M322.56,573.22a1.48,1.48,0,0,1-.76,1.52A2.33,2.33,0,0,1,322.56,573.22Z" transform="translate(-0.33 -0.34)"/><path class="cls-35" d="M216.05,575.5c-1.2-1.21-2.88-1.49-4.34-2.18q-8.55-4-17.1-8.06c-4.22-2-8.44-4-12.71-5.85-1.59-.7-2.09-1.3-1-3,3.26-5.33,5.88-11,9.33-16.26.77-.52,1.44-.09,2.14.2,7.69,3.21,15.22,6.77,22.78,10.26.4.19.8.51,1.23.46,2.3-.28,3.88,1.32,5.71,2.2a34.57,34.57,0,0,0,5.2,2.28c1,.29,2,.67,1.37,2.1-2.12,4.45-4.59,8.74-6.47,13.31-1.07.82-1.19,2.17-1.78,3.24-1.23,2.22-1.27,2.28-3.56,1.42A3.28,3.28,0,0,0,216.05,575.5Z" transform="translate(-0.33 -0.34)"/><path class="cls-7" d="M230.51,556.11c2.16.84,2.15.84,3.17-1.69a13.37,13.37,0,0,0,1-3.23c.13-1,.61-1.19,1.61-.85,3.7,1.24,5.13,4.19,6,7.63,0,.06,0,.14,0,.19,1.67,3.09,1.38,6.76,2.89,9.89a4,4,0,0,0,2.6,2c6.18,2,12,4.78,18,7.24.87.36,1.8.58,2.71.86-2.06,4.74-3.92,9.57-6.32,14.16-.58,1.1-.32,3.07-2,3.12-1.13,0-2.3-.93-3.44-1.45q-7.49-3.4-15-6.82c-.27-.12-.45-.42-.68-.64a2.11,2.11,0,0,1-.67-2.07c.64-3.42.75-6.9,1.22-10.34a39.53,39.53,0,0,0,.54-7c-.09-2.21-.54-4.21-2.41-5.72A35.34,35.34,0,0,0,236.7,559c-1.5-1-2-.82-2.3.86-.56,3.23-1.13,6.47-1.6,9.72s-.88,6.76-1.6,10.1a2.94,2.94,0,0,1-1.07,1.94c-3.15-1-5.9-2.82-8.95-4-1-.4-.86-1.29-.49-2.08.71-1.54,1.47-3,2.21-4.57Z" transform="translate(-0.33 -0.34)"/><path class="cls-14" d="M230.13,581.59c-.68-1.07.31-1.91.45-2.86.9-6.36,2-12.71,3-19.06A7.63,7.63,0,0,1,234,558c.43-1.05,1.14-1.27,2.1-.6a31,31,0,0,1,5.88,5c1.07,1.24,1,2.85,1,4.32a66.65,66.65,0,0,1-.88,10.54c-.36,3.06-.66,6.14-1,9.2-3.23-.66-5.93-2.56-8.9-3.82A4.71,4.71,0,0,1,230.13,581.59Z" transform="translate(-0.33 -0.34)"/><path class="cls-23" d="M293.27,585a3.35,3.35,0,0,1-3.62,1,91.26,91.26,0,0,1-17.43-6.3,4.14,4.14,0,0,0-2.92,0c.23-.58.42-1.19.7-1.74.66-1.3,1.42-1.75,3-1,5.38,2.46,10.86,4.68,16.26,7.07C290.57,584.56,292,584.45,293.27,585Z" transform="translate(-0.33 -0.34)"/><path class="cls-11" d="M251.43,410.42q0-.19,0-.38c.51-1-.14-2.08.38-3h0c.5-.83-.12-1.83.38-2.66q0-.19,0-.38c.26-.19.1-.58.38-.76.36-1.69,1.11-1.52,2.59-1,2.25.81,4.44,1.79,6.74,2.46,1.36.39,1.57,1,.87,2.2-2,3.35-3.92,6.74-5.88,10.11a7.47,7.47,0,0,1-.5.8c-.2.26-.51.46-.81.27a2.39,2.39,0,0,1-.56-.68c2.39-2.06-1.22-3.92.25-6.33-1.28.76-1.89,1.2-1.81,2.29.12,1.56,1.06,3.48-1.53,4.08-.2,0-.27.64-.48,1.19-.58-.75-.31-1.45-.4-2.08C250.49,414.44,251.14,412.44,251.43,410.42Z" transform="translate(-0.33 -0.34)"/><path class="cls-16" d="M251.43,410.42c.13,2-.62,4-.38,6.08h-.38C250.69,414.45,250.48,412.36,251.43,410.42Z" transform="translate(-0.33 -0.34)"/><path class="cls-16" d="M252.57,400.91c0-2.19-.1-4.38.76-6.47A29.27,29.27,0,0,1,252.57,400.91Z" transform="translate(-0.33 -0.34)"/><path class="cls-11" d="M249.9,424.87q0-.19,0-.38c1.08.43.83,1.11.42,1.94C249.66,426,250,425.36,249.9,424.87Z" transform="translate(-0.33 -0.34)"/><path class="cls-11" d="M254.84,420.31c-.36,0-.35-.31-.34-.55s0-.7.42-.72a.49.49,0,0,1,.52.62A.78.78,0,0,1,254.84,420.31Z" transform="translate(-0.33 -0.34)"/><path class="cls-16" d="M252.57,403.2l-.38.76c.09-.89-.26-1.85.38-2.66Z" transform="translate(-0.33 -0.34)"/><path class="cls-16" d="M250.29,419.17c.09-.89-.26-1.85.38-2.66C250.57,417.4,250.92,418.36,250.29,419.17Z" transform="translate(-0.33 -0.34)"/><path class="cls-11" d="M251.13,419.65c0,.31.11.49.06.62s-.23.23-.35.35a1.26,1.26,0,0,1-.11-.49C250.76,420,250.93,419.89,251.13,419.65Z" transform="translate(-0.33 -0.34)"/><path class="cls-23" d="M239.25,511.6a24.84,24.84,0,0,1,.76-6.08,15.34,15.34,0,0,1-.27,4.13.92.92,0,0,0,.36,1.17c2.58,1.31,3.23,4.25,5.2,6.09.92.86,1.64,1.94,3.08,1.93-2.1,5-4.93,9.66-7.3,14.55-.91,1.87-1.85,3.72-2.79,5.58-.37.73-.73,1.66-1.75,1.39s-1-1.17-.82-2.15c1.21-8.29,2.36-16.59,3.5-24.89A13.39,13.39,0,0,0,239.25,511.6Z" transform="translate(-0.33 -0.34)"/><path class="cls-1" d="M245.46,464.73a2.83,2.83,0,0,1-.1-.58c0-.13,0-.44.26-.25.1.07.07.35.06.54S245.57,464.6,245.46,464.73Z" transform="translate(-0.33 -0.34)"/><path class="cls-23" d="M228.6,557.63c0-.8-.45-1-1.15-1.23a25.53,25.53,0,0,1-8.89-4.38,1.63,1.63,0,0,0-.84-.4c-3.84-.09-6.9-2.35-10.19-3.84q-8.65-3.9-17.35-7.64c.18-1.09.77-1.08,1.64-.71,7.9,3.33,15.69,6.93,23.43,10.6a5.7,5.7,0,0,0,3.07.76c3.63-.18,6.3-2.22,9-4.39a7,7,0,0,1,4.53-1.73,3.26,3.26,0,0,0,2.76-1.75c.24-.37.42-.78.68-1.14a.9.9,0,0,1,1.17-.36c.62.34.15.77-.06,1.1-1.76,2.85-3,6-4.52,8.93A48.24,48.24,0,0,1,228.6,557.63Z" transform="translate(-0.33 -0.34)"/><path class="cls-16" d="M230.89,413.85a37.48,37.48,0,0,1,.76-8,4.55,4.55,0,0,0,.5,2.73,1.19,1.19,0,0,1,.13,1.05C231.26,410.88,231.47,412.49,230.89,413.85Z" transform="translate(-0.33 -0.34)"/><path class="cls-16" d="M229.75,425.64a26.7,26.7,0,0,1,.76-7.23A26.69,26.69,0,0,1,229.75,425.64Z" transform="translate(-0.33 -0.34)"/><path class="cls-16" d="M231.65,404.34c.1-.89-.26-1.85.38-2.66C231.9,402.56,233,403.62,231.65,404.34Z" transform="translate(-0.33 -0.34)"/><path class="cls-16" d="M232,400.91c.15-1.27-.36-2.6.38-3.8C232.25,398.37,232.77,399.71,232,400.91Z" transform="translate(-0.33 -0.34)"/><path class="cls-16" d="M251.81,407c-.12,1,.3,2.1-.38,3C251.54,409,251.12,407.94,251.81,407Z" transform="translate(-0.33 -0.34)"/><path class="cls-16" d="M252.19,404.34c-.09.89.26,1.85-.38,2.66C251.9,406.11,251.55,405.15,252.19,404.34Z" transform="translate(-0.33 -0.34)"/><path class="cls-16" d="M230.51,417.27c.07-.77-.21-1.6.38-2.28C230.82,415.76,231.09,416.59,230.51,417.27Z" transform="translate(-0.33 -0.34)"/><path class="cls-23" d="M176.87,532.9a5.49,5.49,0,0,1,3.42,1.52A6.25,6.25,0,0,1,176.87,532.9Z" transform="translate(-0.33 -0.34)"/><path class="cls-23" d="M180.3,534.42a6.25,6.25,0,0,1,3.42,1.52A5.49,5.49,0,0,1,180.3,534.42Z" transform="translate(-0.33 -0.34)"/><path class="cls-23" d="M187.14,537.47c.72.24,1.62.17,1.9,1.14A2.52,2.52,0,0,1,187.14,537.47Z" transform="translate(-0.33 -0.34)"/><path class="cls-23" d="M185.62,536.71a2.33,2.33,0,0,1,1.52.76A1.48,1.48,0,0,1,185.62,536.71Z" transform="translate(-0.33 -0.34)"/><path class="cls-14" d="M228.36,579.53c-.07.17-.11.37-.15.36a2.31,2.31,0,0,1-.48-.12c0-.11.07-.29.13-.3A1.94,1.94,0,0,1,228.36,579.53Z" transform="translate(-0.33 -0.34)"/></g></g></svg>