<svg xmlns="http://www.w3.org/2000/svg" viewBox="0 0 497.62 78.55"><defs><style>.cls-1{fill:#f3f4f5;}.cls-2{fill:#fff;}</style></defs><title>Asset 1</title><g id="Layer_2" data-name="Layer 2"><g id="Rewards-words_copy" data-name="Rewards-words copy"><path class="cls-1" d="M268.31,42.86h-12V63.56H249.5V12.37h16.95q8.65,0,13.31,3.94t4.66,11.46a13.78,13.78,0,0,1-2.58,8.33,15.42,15.42,0,0,1-7.19,5.31l12,21.73v.42h-7.24Zm-12-5.52h10.37a11.7,11.7,0,0,0,8-2.61,8.81,8.81,0,0,0,3-7q0-4.75-2.83-7.29t-8.17-2.57H256.29Z"/><path class="cls-1" d="M305.25,64.27a16.62,16.62,0,0,1-12.59-5.08q-4.85-5.08-4.85-13.59V44.4A22.83,22.83,0,0,1,290,34.29a16.87,16.87,0,0,1,6-7,15.21,15.21,0,0,1,8.42-2.51q7.42,0,11.53,4.89t4.11,14v2.71H294.32a13.52,13.52,0,0,0,3.29,9.09,10.33,10.33,0,0,0,8,3.46,11.33,11.33,0,0,0,5.84-1.41,14.66,14.66,0,0,0,4.18-3.73l4,3.09Q314.81,64.27,305.25,64.27Zm-.81-34.1A8.68,8.68,0,0,0,297.83,33a13.93,13.93,0,0,0-3.3,8h19.05v-.49q-.28-5-2.67-7.68A8.17,8.17,0,0,0,304.44,30.16Z"/><path class="cls-1" d="M357.79,54.6l7.31-29.07h6.5l-11.07,38h-5.27L346,34.73l-9,28.83h-5.27l-11-38h6.47L334.66,54l8.86-28.48h5.24Z"/><path class="cls-1" d="M397.7,63.56a13.63,13.63,0,0,1-.91-4A14.51,14.51,0,0,1,386,64.27a13.43,13.43,0,0,1-9.23-3.18,10.29,10.29,0,0,1-3.6-8.07,10.75,10.75,0,0,1,4.52-9.23q4.52-3.29,12.71-3.29h6.33v-3a7.31,7.31,0,0,0-2-5.43q-2-2-6-2a9.48,9.48,0,0,0-5.84,1.76,5.18,5.18,0,0,0-2.36,4.25H373.9a9,9,0,0,1,2-5.5,13.8,13.8,0,0,1,5.48-4.2A18.45,18.45,0,0,1,389,24.82q6.57,0,10.3,3.29a11.86,11.86,0,0,1,3.87,9.05V54.67A21.39,21.39,0,0,0,404.52,63v.56Zm-10.79-5a11.43,11.43,0,0,0,5.8-1.58,9.57,9.57,0,0,0,4-4.11v-7.8h-5.1q-12,0-12,7a5.92,5.92,0,0,0,2,4.78A7.84,7.84,0,0,0,386.91,58.61Z"/><path class="cls-1" d="M428.77,31.36a19.55,19.55,0,0,0-3.2-.25q-6.4,0-8.68,5.45v27h-6.5v-38h6.33l.11,4.39a10.13,10.13,0,0,1,9.07-5.1,6.64,6.64,0,0,1,2.88.49Z"/><path class="cls-1" d="M430.08,44.23q0-8.75,4.15-14.08a14.11,14.11,0,0,1,21.45-.76V9.56h6.5v54h-6l-.32-4.08Q452,64.27,445,64.27a13,13,0,0,1-10.78-5.41q-4.17-5.41-4.17-14.13Zm6.5.74q0,6.47,2.67,10.13a8.64,8.64,0,0,0,7.38,3.66,9.49,9.49,0,0,0,9-5.55V35.72a9.56,9.56,0,0,0-9-5.38A8.68,8.68,0,0,0,439.26,34Q436.58,37.72,436.58,45Z"/><path class="cls-1" d="M491.11,53.47a4.79,4.79,0,0,0-2-4.1q-2-1.46-6.93-2.51a32.74,32.74,0,0,1-7.84-2.53,11.15,11.15,0,0,1-4.29-3.52A8.41,8.41,0,0,1,468.68,36a9.87,9.87,0,0,1,4-7.91,15.45,15.45,0,0,1,10.11-3.23q6.47,0,10.49,3.34a10.61,10.61,0,0,1,4,8.54h-6.54a5.87,5.87,0,0,0-2.27-4.61,8.5,8.5,0,0,0-5.71-1.93,8.89,8.89,0,0,0-5.55,1.55,4.87,4.87,0,0,0-2,4A3.94,3.94,0,0,0,477,39.3a22.91,22.91,0,0,0,6.73,2.29,35.08,35.08,0,0,1,7.89,2.6,11.51,11.51,0,0,1,4.48,3.64A9,9,0,0,1,497.62,53a9.74,9.74,0,0,1-4.08,8.17q-4.08,3.08-10.58,3.08a19.17,19.17,0,0,1-8.09-1.62,13.15,13.15,0,0,1-5.5-4.52,10.89,10.89,0,0,1-2-6.28h6.5A6.73,6.73,0,0,0,476.5,57,10.16,10.16,0,0,0,483,59a10.49,10.49,0,0,0,5.92-1.49A4.59,4.59,0,0,0,491.11,53.47Z"/></g><g id="Level-words_copy_2" data-name="Level-words copy 2"><path class="cls-1" d="M6.79,58H31v5.52H0V12.37H6.79Z"/><path class="cls-1" d="M50.15,64.26a16.62,16.62,0,0,1-12.59-5.08Q32.71,54.1,32.71,45.6V44.4a22.83,22.83,0,0,1,2.16-10.11,16.87,16.87,0,0,1,6-7,15.21,15.21,0,0,1,8.42-2.51q7.42,0,11.53,4.89T65,43.7v2.71H39.21a13.52,13.52,0,0,0,3.29,9.09,10.33,10.33,0,0,0,8,3.46,11.33,11.33,0,0,0,5.84-1.41,14.65,14.65,0,0,0,4.18-3.73l4,3.09Q59.71,64.27,50.15,64.26Zm-.81-34.1A8.67,8.67,0,0,0,42.73,33a13.93,13.93,0,0,0-3.3,8H58.48v-.49q-.28-5-2.67-7.68A8.17,8.17,0,0,0,49.34,30.16Z"/><path class="cls-1" d="M81.44,54.74l9.42-29.21h6.64l-13.64,38h-5l-13.78-38h6.64Z"/><path class="cls-1" d="M115.19,64.26a16.62,16.62,0,0,1-12.59-5.08Q97.76,54.1,97.76,45.6V44.4a22.83,22.83,0,0,1,2.16-10.11,16.87,16.87,0,0,1,6-7,15.21,15.21,0,0,1,8.42-2.51q7.42,0,11.53,4.89t4.11,14v2.71H104.26a13.52,13.52,0,0,0,3.29,9.09,10.33,10.33,0,0,0,8,3.46,11.33,11.33,0,0,0,5.84-1.41,14.65,14.65,0,0,0,4.18-3.73l4,3.09Q124.76,64.27,115.19,64.26Zm-.81-34.1A8.67,8.67,0,0,0,107.78,33a13.93,13.93,0,0,0-3.3,8h19.05v-.49q-.28-5-2.67-7.68A8.17,8.17,0,0,0,114.39,30.16Z"/><path class="cls-1" d="M142,63.56h-6.5v-54H142Z"/></g><g id="Up_sign" data-name="Up sign"><path class="cls-2" d="M199.36,11.63h-4.55V46.06q0,8.39-5.36,13.28t-14.29,4.9q-9,0-14.35-4.82T155.5,46V10.91h9.11V46q0,5.27,2.67,8t7.88,2.78q10.55,0,10.55-11.11V11.63h-4.44L190.14,0Z"/><path class="cls-2" d="M237.64,44.37q0,9.07-4.12,14.47A14.31,14.31,0,0,1,212.17,60V78.55h-8.78V24.42h8.09l.36,4a12.9,12.9,0,0,1,10.51-4.7A13.33,13.33,0,0,1,233.57,29q4.06,5.33,4.06,14.8Zm-8.74-.76q0-5.85-2.33-9.29a7.58,7.58,0,0,0-6.67-3.43,8.08,8.08,0,0,0-7.73,4.44V52.68a8.15,8.15,0,0,0,7.8,4.55,7.57,7.57,0,0,0,6.56-3.38Q228.89,50.47,228.9,43.61Z"/><path class="cls-2" d="M188,11"/><path class="cls-2" d="M188,6.27"/><path class="cls-2" d="M185.66,11"/><path class="cls-2" d="M185.66,6.27"/></g></g></svg>