<svg xmlns="http://www.w3.org/2000/svg" viewBox="0 0 435.49 265"><defs><style>.cls-1,.cls-15,.cls-4{opacity:0.3;}.cls-2,.cls-4{fill:#fcb216;}.cls-3{fill:#c2e812;}.cls-5{fill:#8e8e8e;}.cls-16,.cls-6,.cls-7{opacity:0.15;}.cls-7{fill:#fff;}.cls-8{fill:#efc9ac;}.cls-9{fill:#3a3a3a;}.cls-10{fill:#dbdab6;}.cls-11{fill:#db504a;}.cls-12{fill:#ffd7b6;}.cls-13{fill:#cea713;}.cls-14,.cls-15,.cls-16{fill:#25221d;}.cls-17{fill:#f3f5cd;}.cls-18{opacity:0.7;}.cls-19{opacity:0.1;}.cls-20{fill:#efc8ab;}.cls-21{fill:#e8d78e;}.cls-22{fill:#ddcc83;}.cls-23{fill:#444;}.cls-24{fill:#1b9aaa;}.cls-25{fill:#7d8906;}.cls-26{fill:#aad643;}.cls-27{fill:#8ea604;}.cls-28{fill:#a5723a;}.cls-29{fill:#fffeff;}.cls-30{fill:#efbba5;}.cls-31{fill:#686868;}.cls-32{fill:#ffc9ae;}.cls-33{fill:#ce9959;}.cls-34{fill:#25b4bf;}</style></defs><title>level-example</title><g id="Layer_2" data-name="Layer 2"><g id="Layer_1-2" data-name="Layer 1"><g class="cls-1"><rect class="cls-2" x="195.52" y="18.65" width="2.1" height="10.99"/><rect class="cls-2" x="191.07" y="23.09" width="10.99" height="2.1"/></g><path class="cls-3" d="M310,66.88h-3V64.6h3V61.68h2.32V64.6h3v2.28h-3v3H310Z"/><path class="cls-3" d="M321,71.46a7.55,7.55,0,0,1-2.05-.53,8,8,0,0,1-1.81-1L318.38,68a10.7,10.7,0,0,0,1.31.85,5.11,5.11,0,0,0,1.36.48v-2.6a12.92,12.92,0,0,1-1.54-.54,3.94,3.94,0,0,1-1.1-.71,2.56,2.56,0,0,1-.65-1,3.34,3.34,0,0,1-.23-1.27v0a3.08,3.08,0,0,1,.25-1.24,3,3,0,0,1,.69-1,3.69,3.69,0,0,1,1.09-.66,5.6,5.6,0,0,1,1.41-.34v-.94h1.7v1a7.34,7.34,0,0,1,1.63.43,6.79,6.79,0,0,1,1.42.78l-1.1,1.91a11.25,11.25,0,0,0-1-.58,5.13,5.13,0,0,0-1-.38v2.47A6.33,6.33,0,0,1,325.3,66a2.94,2.94,0,0,1,.84,2.2v0a3,3,0,0,1-.25,1.25,3,3,0,0,1-.7,1,3.85,3.85,0,0,1-1.09.67,4.84,4.84,0,0,1-1.43.34v1.63H321Zm.08-9.36a1.52,1.52,0,0,0-.86.35.9.9,0,0,0-.27.67v0a1,1,0,0,0,.23.64,2,2,0,0,0,.9.52Zm1.54,7.35c.78-.12,1.16-.47,1.16-1v0a1,1,0,0,0-.24-.7,2.37,2.37,0,0,0-.92-.51Z"/><path class="cls-3" d="M329.88,62.53l-2,.49L327.35,61l3.29-1h1.72V71.51h-2.48Z"/><path class="cls-3" d="M338.86,71.71a5.81,5.81,0,0,1-2.42-.46A6.45,6.45,0,0,1,334.57,70l1.52-1.81a6.41,6.41,0,0,0,1.31.92,3.26,3.26,0,0,0,1.43.32,2.13,2.13,0,0,0,1.39-.41,1.4,1.4,0,0,0,.52-1.18v0a1.36,1.36,0,0,0-.56-1.15,2.48,2.48,0,0,0-1.47-.41,3.75,3.75,0,0,0-1,.13,5.94,5.94,0,0,0-.9.3l-1.45-1,.33-5.65h7.05v2.22h-4.89l-.13,2,.68-.14a4.93,4.93,0,0,1,.82-.05,5.67,5.67,0,0,1,1.57.21,3.78,3.78,0,0,1,1.28.65,2.9,2.9,0,0,1,.86,1.14,3.8,3.8,0,0,1,.32,1.65v0a4,4,0,0,1-.32,1.65,3.51,3.51,0,0,1-.88,1.24,3.81,3.81,0,0,1-1.38.79A5.38,5.38,0,0,1,338.86,71.71Z"/><path class="cls-3" d="M350.13,71.71a4.77,4.77,0,0,1-2.08-.45,4.66,4.66,0,0,1-1.6-1.25,5.47,5.47,0,0,1-1-1.87,7.28,7.28,0,0,1-.36-2.32v0a7,7,0,0,1,.37-2.32,5.81,5.81,0,0,1,1-1.88,4.7,4.7,0,0,1,1.61-1.26,4.65,4.65,0,0,1,2.09-.46,4.69,4.69,0,0,1,3.67,1.69,5.79,5.79,0,0,1,1,1.88,7,7,0,0,1,.37,2.32v0a7.07,7.07,0,0,1-.37,2.33,5.63,5.63,0,0,1-1,1.88,4.7,4.7,0,0,1-1.61,1.26A4.78,4.78,0,0,1,350.13,71.71Zm0-2.28a2,2,0,0,0,1-.27,2.52,2.52,0,0,0,.78-.75,3.45,3.45,0,0,0,.5-1.15,5.47,5.47,0,0,0,.17-1.44v0a5.59,5.59,0,0,0-.18-1.45,3.9,3.9,0,0,0-.51-1.15,2.55,2.55,0,0,0-.8-.77,2.07,2.07,0,0,0-2.06,0,2.33,2.33,0,0,0-.77.76,3.72,3.72,0,0,0-.5,1.14,5.59,5.59,0,0,0-.18,1.45v0a5.61,5.61,0,0,0,.18,1.46,3.92,3.92,0,0,0,.5,1.15,2.55,2.55,0,0,0,.8.77A2,2,0,0,0,350.17,69.43Z"/><g class="cls-1"><rect class="cls-2" x="428.95" y="70.53" width="2.1" height="10.99"/><rect class="cls-2" x="424.5" y="74.97" width="10.99" height="2.1"/></g><g class="cls-1"><rect class="cls-2" x="333.74" y="32.93" width="1.73" height="9.04"/><rect class="cls-2" x="330.09" y="36.59" width="9.04" height="1.73"/></g><path class="cls-3" d="M166.58,71.82h-3V69.54h3V66.61h2.33v2.93h3v2.28h-3v2.94h-2.33Z"/><path class="cls-3" d="M177.56,76.4a8.16,8.16,0,0,1-2.05-.54,7.48,7.48,0,0,1-1.81-1L175,73a9.45,9.45,0,0,0,1.3.84,4.78,4.78,0,0,0,1.36.48V71.7a10.54,10.54,0,0,1-1.54-.54,4.08,4.08,0,0,1-1.1-.7,2.6,2.6,0,0,1-.65-1,3.35,3.35,0,0,1-.22-1.27v0a3.08,3.08,0,0,1,.24-1.24,2.84,2.84,0,0,1,.7-1,3.56,3.56,0,0,1,1.09-.66,5.42,5.42,0,0,1,1.4-.34V64h1.71v1a6.84,6.84,0,0,1,1.63.43,7,7,0,0,1,1.41.78l-1.1,1.91a8.37,8.37,0,0,0-1-.58,5,5,0,0,0-1-.39v2.47A6.27,6.27,0,0,1,181.89,71a2.93,2.93,0,0,1,.84,2.19v0a2.92,2.92,0,0,1-.25,1.24,3,3,0,0,1-.7,1,3.79,3.79,0,0,1-1.09.67,5.1,5.1,0,0,1-1.42.34v1.62h-1.71Zm.08-9.36a1.43,1.43,0,0,0-.85.35.9.9,0,0,0-.27.66v0a.93.93,0,0,0,.23.65,2.24,2.24,0,0,0,.89.52Zm1.54,7.34c.78-.11,1.17-.46,1.17-1v0a1,1,0,0,0-.25-.7,2.41,2.41,0,0,0-.92-.52Z"/><path class="cls-3" d="M199.67,76.64A4.73,4.73,0,0,1,196,75a5.72,5.72,0,0,1-1-1.87,7.38,7.38,0,0,1-.36-2.33v0a7.11,7.11,0,0,1,.37-2.33,5.73,5.73,0,0,1,1-1.88,5,5,0,0,1,1.61-1.26,4.77,4.77,0,0,1,5.76,1.24,5.74,5.74,0,0,1,1,1.87,7.07,7.07,0,0,1,.37,2.33v0a7,7,0,0,1-.37,2.32,5.63,5.63,0,0,1-1,1.88,4.72,4.72,0,0,1-3.7,1.72Zm0-2.27a2,2,0,0,0,1-.27,2.45,2.45,0,0,0,.78-.76,3.49,3.49,0,0,0,.5-1.14,5.48,5.48,0,0,0,.18-1.45v0a6,6,0,0,0-.18-1.45,4.06,4.06,0,0,0-.52-1.15,2.44,2.44,0,0,0-.8-.77,1.94,1.94,0,0,0-1-.28,2,2,0,0,0-1,.27,2.39,2.39,0,0,0-.77.75,3.78,3.78,0,0,0-.5,1.15,5.48,5.48,0,0,0-.18,1.45v0a5.54,5.54,0,0,0,.18,1.45,3.74,3.74,0,0,0,.51,1.16,2.49,2.49,0,0,0,.79.76A1.93,1.93,0,0,0,199.71,74.37Z"/><path class="cls-3" d="M188.44,76.64a6,6,0,0,1-2.42-.45,6.45,6.45,0,0,1-1.87-1.25l1.52-1.81A6.34,6.34,0,0,0,187,74a3.12,3.12,0,0,0,1.42.33,2.18,2.18,0,0,0,1.4-.41,1.42,1.42,0,0,0,.52-1.19v0a1.35,1.35,0,0,0-.56-1.15,2.48,2.48,0,0,0-1.47-.41,4.19,4.19,0,0,0-1,.12,5.46,5.46,0,0,0-.89.3l-1.46-1,.33-5.65h7.05V67.2h-4.89l-.13,2c.23-.06.45-.1.68-.14a4.91,4.91,0,0,1,.82-.06,5.67,5.67,0,0,1,1.57.21,3.62,3.62,0,0,1,1.28.66A3,3,0,0,1,192.5,71a4.17,4.17,0,0,1,.31,1.66v0a4.24,4.24,0,0,1-.31,1.64,3.59,3.59,0,0,1-.88,1.24,3.87,3.87,0,0,1-1.39.8A5.65,5.65,0,0,1,188.44,76.64Z"/><g class="cls-1"><rect class="cls-2" x="415.31" width="0.94" height="4.94"/><rect class="cls-2" x="413.31" y="2" width="4.94" height="0.94"/></g><g class="cls-1"><rect class="cls-2" x="278.42" y="66.55" width="0.94" height="4.94"/><rect class="cls-2" x="276.42" y="68.54" width="4.94" height="0.94"/></g><g class="cls-1"><rect class="cls-2" x="48.14" y="76.78" width="0.95" height="4.94"/><rect class="cls-2" x="46.14" y="78.78" width="4.94" height="0.94"/></g><g class="cls-1"><rect class="cls-2" x="41.5" y="9.99" width="2.1" height="11"/><rect class="cls-2" x="37.06" y="14.43" width="10.99" height="2.1"/></g><g class="cls-1"><rect class="cls-2" x="139.7" y="1.51" width="1.72" height="9.04"/><rect class="cls-2" x="136.04" y="5.17" width="9.04" height="1.72"/></g><path class="cls-4" d="M23.36,60.5c0,2-1.63,5-3.65,5s-3.65-2.95-3.65-5a3.65,3.65,0,1,1,7.3,0Z"/><path class="cls-4" d="M141.1,64.54c0,.78-.63,1.91-1.4,1.91s-1.41-1.13-1.41-1.91a1.41,1.41,0,0,1,2.81,0Z"/><path class="cls-4" d="M304.53,23.89c0,.77-.63,1.9-1.4,1.9s-1.4-1.13-1.4-1.9a1.4,1.4,0,1,1,2.8,0Z"/><polygon class="cls-5" points="61.58 107.19 60.28 265 34.13 265 32.84 107.19 61.58 107.19"/><polygon class="cls-6" points="57.36 112.28 56.07 259.9 38.35 259.9 37.06 112.28 57.36 112.28"/><polygon class="cls-7" points="56.07 259.9 38.35 259.9 38.98 261.01 56.07 259.9"/><polygon class="cls-7" points="32.84 108.62 61.58 107.19 32.84 107.19 32.84 108.62"/><polygon class="cls-5" points="209.55 107.19 208.25 265 182.11 265 180.81 107.19 209.55 107.19"/><polygon class="cls-6" points="205.33 112.28 204.04 259.9 186.32 259.9 185.03 112.28 205.33 112.28"/><polygon class="cls-7" points="204.04 259.9 186.32 259.9 186.96 261.01 204.04 259.9"/><polygon class="cls-7" points="180.81 108.62 209.55 107.19 180.81 107.19 180.81 108.62"/><polygon class="cls-3" points="186.32 259.9 185.76 230.38 204.61 230.38 204.04 259.9 186.32 259.9"/><polygon class="cls-5" points="354.1 107.19 352.81 265 326.66 265 325.37 107.19 354.1 107.19"/><polygon class="cls-6" points="349.89 112.28 348.59 259.9 330.88 259.9 329.58 112.28 349.89 112.28"/><polygon class="cls-7" points="348.59 259.9 330.88 259.9 331.51 261.01 348.59 259.9"/><polygon class="cls-7" points="325.37 108.62 354.1 107.19 325.37 107.19 325.37 108.62"/><polygon class="cls-3" points="330.88 259.9 330.11 172.53 349.36 172.53 348.59 259.9 330.88 259.9"/><path class="cls-8" d="M89.32,84l.49-7.61,10.32-8.23,1.7,15.23S96.64,110.28,89.32,84Z"/><path class="cls-9" d="M85.77,256.49v2.6s-7,3.14-6.92,5.88c0,0,8.43.55,9.79-3.55v-4.93Z"/><rect class="cls-9" x="85.77" y="256.49" width="2.87" height="2.6"/><path class="cls-9" d="M107.31,256.49v2.6s7,3.14,6.93,5.88c0,0-8.44.55-9.8-3.55v-4.93Z"/><rect class="cls-9" x="104.44" y="256.49" width="2.87" height="2.6"/><path class="cls-10" d="M78.85,150.2,83,257.31H91l3.83-86.43,6,86.43h9.31V148.65S93.52,134.52,78.85,150.2Z"/><path class="cls-11" d="M112.84,154.79l-1.12-32.65L115.89,87l-14.06-3.62C102,84.94,99.56,88,95.29,88s-6-4.08-6-4.08L72.93,86.68l4.86,35.19-.61,33S92.24,161.12,112.84,154.79Z"/><path class="cls-8" d="M74,39.52s-5.55-1-5.86,6.76c0,0-.45,6.75,6.38,6Z"/><path class="cls-8" d="M114.87,40.22s5.08-1.17,5.81,6.51c0,0,.8,6.72-6.06,6.35Z"/><polygon class="cls-12" points="76.25 22.14 75.46 55.2 81.34 69.15 89.06 78.24 101.84 78.2 109.79 69.15 115.27 55.87 115.27 24.57 101.14 15.18 76.25 22.14"/><polygon class="cls-13" points="77.51 39.95 87.97 35.48 89.52 38.09 79.51 43.48 77.51 39.95"/><polygon class="cls-13" points="111.15 38.81 99.25 36.06 98.08 38.87 109.01 42.9 111.15 38.81"/><path class="cls-14" d="M88.61,49c-.18,1.43-1.21,2.49-2.3,2.35s-1.84-1.4-1.66-2.84,1.2-2.49,2.3-2.36A2.38,2.38,0,0,1,88.61,49Z"/><path class="cls-14" d="M100.94,48.55c-.18,1.43.57,2.71,1.66,2.84s2.12-.92,2.3-2.35-.57-2.71-1.66-2.84S101.12,47.12,100.94,48.55Z"/><polygon class="cls-15" points="91.33 56.51 99.4 56.81 95.24 59.69 91.33 56.51"/><path class="cls-13" d="M69.21,20.07s3-1.2,2.58-.07a39.21,39.21,0,0,0-1.48,7.82l2.37,11.93.75,15.58L76.9,56l-.77-20,2.61-4.63-1.51-6.95a36.15,36.15,0,0,1,16.21-4.73l-1,1.58S103.85,18,111,24.78l-1.3,6.84,2.56,4.56L113,54.75l3.07.08.36-5.59.63-9.82,2.34-7-.6-11.22-2.12,1.63a11.23,11.23,0,0,0-2.88-8.94c.23.29.78,1.33-.27,4,0,0-5.28-9.31-24.24-7.49S69.21,20.07,69.21,20.07Z"/><polygon class="cls-15" points="89.94 67.34 100.78 66.85 100.78 67.8 90.23 68.35 89.94 67.34"/><path class="cls-12" d="M66,152.22h0L69,125l7-27.47s-.17-7.45-2.71-7.94S67,94.56,66.59,96.15l-6.22,27.6L59.73,151c.54,3.46-3.6,9-3.6,9a24.34,24.34,0,0,0-1.57,5.51c1.29.34,3.71,8.38,3.71,8.38,3.71-1.12,9.85,0,9.85,0,.17-4.67-7.52-4-7.52-4l-1.29-5.71,2.76-1c1.36,7.5,5.7,5.2,5.7,5.2-1.9-2.76-2.41-8.45-2.41-8.45l.57-7C66,152.72,66,152.46,66,152.22Z"/><polygon class="cls-16" points="62.66 113.6 65.27 110.94 71.83 113.97 70.77 118.13 62.11 116.05 62.66 113.6"/><path class="cls-17" d="M107.14,161.64,123,168.77s3.91,1.09,1.62,1.55l-14.89,3S107.14,170,107.14,161.64Z"/><path class="cls-17" d="M82.84,161.64l-14.9,6.8s-3.46.77-1.73,2.33,14.05,2.52,14.05,2.52S82.84,170,82.84,161.64Z"/><path class="cls-11" d="M65.51,96.15l-5.25,16.77,13.39,3.78,4.14-24-4.86-6S69.27,88.55,65.51,96.15Z"/><path class="cls-12" d="M123.44,152.22h0l-2.56-28.28-7.45-26.38s.17-7.45,2.71-7.94,5,4.3,5.37,5.9S129,122,129,122l.7,29.08c-.55,3.46,3.59,9,3.59,9a24.6,24.6,0,0,1,1.58,5.51c-1.3.34-3.72,8.38-3.72,8.38-3.71-1.12-9.85,0-9.85,0-.17-4.67,7.52-4,7.52-4l1.29-5.71-2.76-1c-1.36,7.5-5.7,5.2-5.7,5.2,1.9-2.76,2.41-8.45,2.41-8.45l-.57-7A7.28,7.28,0,0,1,123.44,152.22Z"/><path class="cls-16" d="M127.47,116.64l-8.07,2.08-2.2-7.81a12,12,0,0,1,2.5-2.87l6.91,5.6Z"/><path class="cls-11" d="M122,93.41l7.17,19.51-13.39,3.78-7.14-23.29L115.89,87S118.66,87.9,122,93.41Z"/><polygon class="cls-13" points="94.53 61.16 94.53 64.45 86.21 66.85 87.63 63.19 94.53 61.16"/><polygon class="cls-13" points="96.2 61.16 96.2 64.45 104.52 66.85 103.09 63.19 96.2 61.16"/><polygon class="cls-5" points="318.59 140.45 308.17 139.1 308.17 141.81 318.59 140.45"/><polygon class="cls-5" points="318.59 112.28 308.17 110.93 308.17 113.64 318.59 112.28"/><polygon class="cls-5" points="318.59 200.85 308.17 199.5 308.17 202.21 318.59 200.85"/><polygon class="cls-5" points="318.59 200.85 308.17 199.5 308.17 202.21 318.59 200.85"/><polygon class="cls-5" points="318.59 230.38 308.17 229.02 308.17 231.73 318.59 230.38"/><polygon class="cls-5" points="318.59 171.18 308.17 169.82 308.17 172.53 318.59 171.18"/><g class="cls-18"><path class="cls-5" d="M295.44,227.49l-1.29.44-.14-.39,1.54-.57h.38v6.77h-.49Z"/><path class="cls-5" d="M297.56,230.4v0c0-1.85,1.09-3.47,2.8-3.47s2.77,1.6,2.77,3.45v0c0,1.85-1.09,3.47-2.79,3.47S297.56,232.25,297.56,230.4Zm5.05,0v0c0-1.56-.88-3-2.27-3s-2.26,1.43-2.26,3v0c0,1.55.88,3,2.28,3S302.61,232,302.61,230.4Z"/></g><g class="cls-18"><path class="cls-5" d="M292.88,203.84l2.5-2.26c1.1-1,1.49-1.59,1.49-2.3a1.45,1.45,0,0,0-1.52-1.44,2.29,2.29,0,0,0-2,1.25l-.38-.25a2.63,2.63,0,0,1,2.39-1.44,1.89,1.89,0,0,1,2,1.84v0c0,.92-.5,1.54-1.68,2.61l-2.06,1.86h3.8v.48h-4.58Z"/><path class="cls-5" d="M298.7,200.87v0c0-1.85,1.08-3.47,2.79-3.47s2.77,1.6,2.77,3.46h0c0,1.86-1.08,3.48-2.79,3.48S298.7,202.73,298.7,200.87Zm5.05,0v0c0-1.56-.89-3-2.28-3s-2.25,1.44-2.25,3h0c0,1.56.88,3,2.27,3S303.75,202.43,303.75,200.87Z"/></g><g class="cls-18"><path class="cls-5" d="M292.81,173.44l.38-.32a2.57,2.57,0,0,0,2.1,1.08,1.56,1.56,0,0,0,1.66-1.49v0c0-.94-.89-1.46-2.09-1.46h-.37l-.12-.28,2.31-2.66h-3.52v-.47h4.2v.35l-2.27,2.6c1.27.08,2.37.67,2.37,1.9v0a2,2,0,0,1-2.18,2A3,3,0,0,1,292.81,173.44Z"/><path class="cls-5" d="M298.77,171.19v0c0-1.85,1.08-3.47,2.79-3.47s2.77,1.6,2.77,3.45v0c0,1.86-1.08,3.48-2.79,3.48S298.77,173.05,298.77,171.19Zm5,0v0c0-1.56-.88-3-2.27-3s-2.25,1.44-2.25,3v0c0,1.56.88,3,2.27,3S303.81,172.75,303.81,171.19Z"/></g><g class="cls-18"><path class="cls-5" d="M296.33,142.17H292.7l-.18-.37,3.84-4.75h.45v4.69h1.1v.43h-1.1v1.64h-.48Zm0-.43v-4l-3.2,4Z"/><path class="cls-5" d="M299.05,140.47v0c0-1.85,1.09-3.47,2.8-3.47s2.77,1.6,2.77,3.45v0c0,1.85-1.08,3.48-2.79,3.48S299.05,142.32,299.05,140.47Zm5.05,0v0c0-1.56-.88-3-2.27-3s-2.26,1.44-2.26,3v0c0,1.56.89,3,2.28,3S304.1,142,304.1,140.47Z"/></g><g class="cls-18"><path class="cls-5" d="M292.85,114.67l.36-.36a2.91,2.91,0,0,0,2,1,1.7,1.7,0,0,0,1.8-1.69v0a1.66,1.66,0,0,0-1.84-1.59,3.09,3.09,0,0,0-1.52.42l-.38-.24.19-3.26h3.77v.48h-3.32l-.17,2.52a3.07,3.07,0,0,1,1.49-.37,2.12,2.12,0,0,1,2.3,2h0a2.17,2.17,0,0,1-2.34,2.16A3.43,3.43,0,0,1,292.85,114.67Z"/><path class="cls-5" d="M298.73,112.3v0c0-1.85,1.08-3.47,2.79-3.47s2.77,1.6,2.77,3.45v0c0,1.85-1.08,3.47-2.79,3.47S298.73,114.15,298.73,112.3Zm5,0v0c0-1.56-.89-3-2.28-3s-2.25,1.44-2.25,3v0c0,1.55.88,3,2.27,3S303.78,113.86,303.78,112.3Z"/></g><line class="cls-19" x1="344.64" y1="116.31" x2="340.32" y2="122.6"/><path class="cls-20" d="M408.81,39.11s5.08-1.17,5.81,6.51c0,0,.81,6.72-6.05,6.35Z"/><path class="cls-12" d="M327,96.75s3.13,5,5.13,8.29l18.49,16.62,8.6-14.59,10.39,5.45-18.33,21L328.4,109.26l-4.86,1.62-5.93-14.13s-.1.45,7.39,4.08C325,100.83,324.6,97.57,327,96.75Z"/><polyline class="cls-19" points="340.6 122.19 339.4 120.93 344.64 116.31"/><polygon class="cls-21" points="338.68 124.98 346.05 114.26 348.57 116.66 341.39 127.96 338.68 124.98"/><polygon class="cls-22" points="369.58 112.52 375.97 88.59 365.76 87.46 360.63 99.57 350.84 120.29 347.9 117.72 342.37 126.42 351.25 135.27 367.62 116.81 369.58 112.52"/><path class="cls-20" d="M382.47,83.91V76.38l10.32-8.23L395.39,82S387,96.35,382.47,83.91Z"/><path class="cls-9" d="M378.43,256.49v2.6s-7,3.14-6.93,5.88c0,0,8.44.55,9.8-3.55v-4.93Z"/><rect class="cls-9" x="378.43" y="256.49" width="2.87" height="2.6"/><path class="cls-9" d="M400,256.49v2.6s7,3.14,6.93,5.88c0,0-8.43.55-9.8-3.55v-4.93Z"/><rect class="cls-9" x="397.1" y="256.49" width="2.87" height="2.6"/><path class="cls-23" d="M371.5,150.2l4.2,107.11h7.93l3.83-86.43,6,86.43h9.3V148.65S386.18,134.52,371.5,150.2Z"/><path class="cls-9" d="M370.75,149.37l.37,3.64a70.52,70.52,0,0,0,32.05-.39l.32-3.36Z"/><path class="cls-22" d="M382.47,83.91l-16.71,3.55,4.56,44.93-1.82,13.87,2.25,3.11s13.59,4.55,32.74-.11l1.57-3.77-1.16-12,6.73-46.8L395.39,82A10,10,0,0,1,382.47,83.91Z"/><polygon class="cls-24" points="386.25 91.82 382.48 133.62 387.14 144.43 392.26 133.07 388.93 91 386.25 91.82"/><polygon class="cls-25" points="393.93 137.73 393.04 139 382.41 140.25 383.44 134.47 387.9 132.86 393.93 137.73"/><polygon class="cls-26" points="382.17 115.45 380.35 117.11 382.41 140.25 383.73 138.86 385.64 129.63 382.17 115.45"/><polygon class="cls-27" points="382.17 115.45 392.31 115.14 393.93 137.73 383.73 138.86 382.17 115.45"/><polygon class="cls-26" points="383.45 116.7 391.17 116.51 392.63 136.54 384.87 137.45 383.45 116.7"/><path class="cls-27" d="M388.26,128.9a2.3,2.3,0,1,0-2.27-2.15A2.21,2.21,0,0,0,388.26,128.9Z"/><polygon class="cls-24" points="383.68 91.09 387.89 94.37 392.26 91 388.92 85.42 386.16 85.42 383.68 91.09"/><path class="cls-12" d="M390.72,136.5l4.4-.41,2.56-2.61,11.29.22-.91-9.07-9.69.32L396,123.47l-.67-5.76s-2.88.17-2.44,5.76l-4.69.56-7.53-2.16-2.71,3.7,3.25,8.94Z"/><path class="cls-22" d="M420,107.9s-3.61-21.27-9.36-21.22c0,0-10.8,5.69-2.11,23.92l4.9,13.16-2.22.34,1.14,9.58,7.17-.3,6.92-2.23Z"/><polygon class="cls-21" points="381.5 82.48 380.6 85.42 383.15 93.28 387.89 85.47 381.5 82.48"/><polygon class="cls-21" points="387.89 85.47 392.26 93.28 396.14 84.37 395.39 81.34 387.89 85.47"/><polygon class="cls-21" points="407.94 123.47 408.98 134.94 412.42 134.38 411.12 123.47 407.94 123.47"/><path class="cls-20" d="M365.19,40.33s-5.55-.95-5.87,6.76c0,0-.45,6.75,6.38,6Z"/><polygon class="cls-12" points="368.67 22.14 366.43 54.91 371.72 69.41 381.47 78.24 395.32 78.21 404.85 69.45 408.79 56.81 405.25 15.48 368.67 22.14"/><polygon class="cls-28" points="370.47 39.05 380.93 34.59 382.48 37.2 372.48 42.59 370.47 39.05"/><polygon class="cls-28" points="404.11 38.17 392.21 35.43 391.04 38.23 401.98 42.27 404.11 38.17"/><path class="cls-14" d="M380.66,45.34c-.18,1.44-1.21,2.49-2.3,2.36a2.37,2.37,0,0,1-1.66-2.84c.17-1.44,1.2-2.49,2.3-2.36S380.84,43.91,380.66,45.34Z"/><path class="cls-14" d="M393.28,44.85a2.38,2.38,0,0,0,1.66,2.85c1.1.13,2.13-.92,2.3-2.36s-.57-2.71-1.66-2.84S393.46,43.42,393.28,44.85Z"/><polygon class="cls-28" points="365.13 49.73 365.1 55.61 370.5 69.26 370.24 63.85 367.99 55.38 368.47 49.33 365.13 49.73"/><polygon class="cls-28" points="409.81 48.71 410.02 56.83 405.25 68.21 406.44 56.52 406.05 49.33 409.81 48.71"/><polygon class="cls-28" points="370.24 63.85 380.41 56.91 395 57.54 406.87 63.19 404.85 69.45 395.32 79.25 381.09 79.23 370.5 69.26 370.24 63.85"/><polygon class="cls-29" points="380.62 63.83 387.79 68.39 394.6 64.2 380.62 63.83"/><polygon class="cls-15" points="383.57 53.32 391.65 53.63 387.48 56.51 383.57 53.32"/><path class="cls-28" d="M411.85,20.07s-3-1.2-2.57-.07c1.13,3.39,2.36,7.23,2.36,7.23L409,37.83l.81,10.88-3.75.62L404.94,36l-2.61-4.63,1.51-6.95a36.15,36.15,0,0,0-16.21-4.73l1,1.58S377.22,18,370.06,24.78l1.3,6.84-2.55,4.56-.34,13.15-3.34.4h0L364,39.42l-2.34-7,.59-11.22,2.12,1.63a11.27,11.27,0,0,1,2.88-8.94c-.22.29-.78,1.33.28,4,0,0,5.27-9.31,24.24-7.49S411.85,20.07,411.85,20.07Z"/><polygon class="cls-19" points="408.05 124.63 406.75 133.68 408.86 133.67 408.05 124.63"/><polygon class="cls-25" points="328.4 111.84 327.64 113.19 317.2 115.56 317.61 109.7 321.88 107.64 328.4 111.84"/><polygon class="cls-26" points="314.33 90.93 312.69 92.77 317.2 115.56 318.37 114.04 319.29 104.66 314.33 90.93"/><polygon class="cls-27" points="314.33 90.93 324.38 89.55 328.4 111.84 318.37 114.04 314.33 90.93"/><polygon class="cls-26" points="315.74 92.04 323.39 91.03 326.97 110.79 319.35 112.52 315.74 92.04"/><path class="cls-27" d="M321.82,103.66a2.3,2.3,0,1,0-2.5-1.9A2.21,2.21,0,0,0,321.82,103.66Z"/><path class="cls-12" d="M312.22,97.42h5.21s1.28,4.48-4.5,3.8l-1.14-2.08Z"/><path class="cls-12" d="M313.54,100.88h5.22s1.27,4.48-4.5,3.79l-1.15-2.07Z"/><path class="cls-12" d="M314.64,104.61h3.72s.91,3.2-3.21,2.71l-.82-1.48Z"/><path class="cls-12" d="M315.3,107.26H319s.91,3.2-3.21,2.71l-.82-1.48Z"/><path class="cls-12" d="M327,96.75h-5.62s1.14,5.73,6.29,4.65Z"/><polygon class="cls-5" points="174.04 140.45 163.62 139.1 163.62 141.81 174.04 140.45"/><polygon class="cls-5" points="174.04 112.28 163.62 110.93 163.62 113.64 174.04 112.28"/><polygon class="cls-5" points="174.04 200.85 163.62 199.5 163.62 202.21 174.04 200.85"/><polygon class="cls-5" points="174.04 200.85 163.62 199.5 163.62 202.21 174.04 200.85"/><polygon class="cls-5" points="174.04 230.38 163.62 229.02 163.62 231.73 174.04 230.38"/><polygon class="cls-5" points="174.04 171.18 163.62 169.82 163.62 172.53 174.04 171.18"/><g class="cls-18"><path class="cls-5" d="M150.89,227.49l-1.29.44-.14-.39L151,227h.39v6.77h-.49Z"/><path class="cls-5" d="M153,230.4v0c0-1.85,1.08-3.47,2.79-3.47s2.78,1.6,2.78,3.45v0c0,1.85-1.09,3.47-2.8,3.47S153,232.25,153,230.4Zm5.05,0v0c0-1.56-.89-3-2.28-3s-2.25,1.43-2.25,3v0c0,1.55.88,3,2.27,3S158.06,232,158.06,230.4Z"/></g><g class="cls-18"><path class="cls-5" d="M148.33,203.84l2.5-2.26c1.1-1,1.48-1.59,1.48-2.3a1.44,1.44,0,0,0-1.51-1.44,2.31,2.31,0,0,0-2,1.25l-.37-.25a2.62,2.62,0,0,1,2.39-1.44,1.88,1.88,0,0,1,2,1.84v0c0,.92-.5,1.54-1.68,2.61l-2,1.86h3.8v.48h-4.58Z"/><path class="cls-5" d="M154.15,200.87v0c0-1.85,1.08-3.47,2.79-3.47s2.77,1.6,2.77,3.46h0c0,1.86-1.08,3.48-2.79,3.48S154.15,202.73,154.15,200.87Zm5,0v0c0-1.56-.88-3-2.27-3s-2.26,1.44-2.26,3h0c0,1.56.89,3,2.28,3S159.19,202.43,159.19,200.87Z"/></g><g class="cls-18"><path class="cls-5" d="M148.26,173.44l.38-.32a2.57,2.57,0,0,0,2.09,1.08,1.56,1.56,0,0,0,1.66-1.49v0c0-.94-.88-1.46-2.09-1.46h-.36l-.13-.28,2.32-2.66H148.6v-.47h4.2v.35l-2.27,2.6c1.28.08,2.38.67,2.38,1.9v0a2.06,2.06,0,0,1-2.19,2A3,3,0,0,1,148.26,173.44Z"/><path class="cls-5" d="M154.21,171.19v0c0-1.85,1.09-3.47,2.8-3.47s2.77,1.6,2.77,3.45v0c0,1.86-1.09,3.48-2.79,3.48S154.21,173.05,154.21,171.19Zm5,0v0c0-1.56-.88-3-2.27-3s-2.26,1.44-2.26,3v0c0,1.56.88,3,2.28,3S159.26,172.75,159.26,171.19Z"/></g><g class="cls-18"><path class="cls-5" d="M151.78,142.17h-3.64l-.17-.37,3.84-4.75h.45v4.69h1.09v.43h-1.09v1.64h-.48Zm0-.43v-4l-3.21,4Z"/><path class="cls-5" d="M154.5,140.47v0c0-1.85,1.09-3.47,2.79-3.47s2.78,1.6,2.78,3.45v0c0,1.85-1.09,3.48-2.8,3.48S154.5,142.32,154.5,140.47Zm5.05,0v0c0-1.56-.89-3-2.28-3s-2.25,1.44-2.25,3v0c0,1.56.88,3,2.27,3S159.55,142,159.55,140.47Z"/></g><g class="cls-18"><path class="cls-5" d="M148.3,114.67l.35-.36a3,3,0,0,0,2,1,1.7,1.7,0,0,0,1.8-1.69v0a1.66,1.66,0,0,0-1.84-1.59,3,3,0,0,0-1.52.42l-.38-.24.19-3.26h3.77v.48h-3.33l-.16,2.52a3,3,0,0,1,1.49-.37,2.12,2.12,0,0,1,2.3,2h0a2.17,2.17,0,0,1-2.34,2.16A3.41,3.41,0,0,1,148.3,114.67Z"/><path class="cls-5" d="M154.18,112.3v0c0-1.85,1.08-3.47,2.79-3.47s2.77,1.6,2.77,3.45v0c0,1.85-1.08,3.47-2.79,3.47S154.18,114.15,154.18,112.3Zm5,0v0c0-1.56-.88-3-2.27-3s-2.26,1.44-2.26,3v0c0,1.55.88,3,2.28,3S159.22,113.86,159.22,112.3Z"/></g><polygon class="cls-5" points="26.07 140.45 15.65 139.1 15.65 141.81 26.07 140.45"/><polygon class="cls-5" points="26.07 112.28 15.65 110.93 15.65 113.64 26.07 112.28"/><polygon class="cls-5" points="26.07 200.85 15.65 199.5 15.65 202.21 26.07 200.85"/><polygon class="cls-5" points="26.07 200.85 15.65 199.5 15.65 202.21 26.07 200.85"/><polygon class="cls-5" points="26.07 230.38 15.65 229.02 15.65 231.73 26.07 230.38"/><polygon class="cls-5" points="26.07 171.18 15.65 169.82 15.65 172.53 26.07 171.18"/><g class="cls-18"><path class="cls-5" d="M2.92,227.49l-1.29.44-.14-.39L3,227h.39v6.77H2.92Z"/><path class="cls-5" d="M5,230.4v0c0-1.85,1.08-3.47,2.79-3.47s2.77,1.6,2.77,3.45v0c0,1.85-1.08,3.47-2.79,3.47S5,232.25,5,230.4Zm5,0v0c0-1.56-.88-3-2.27-3s-2.25,1.43-2.25,3v0c0,1.55.88,3,2.27,3S10.08,232,10.08,230.4Z"/></g><g class="cls-18"><path class="cls-5" d="M.35,203.84l2.51-2.26c1.1-1,1.48-1.59,1.48-2.3a1.45,1.45,0,0,0-1.51-1.44,2.3,2.3,0,0,0-2,1.25l-.37-.25a2.62,2.62,0,0,1,2.39-1.44,1.88,1.88,0,0,1,2,1.84v0c0,.92-.5,1.54-1.68,2.61l-2,1.86h3.8v.48H.35Z"/><path class="cls-5" d="M6.18,200.87v0c0-1.85,1.08-3.47,2.79-3.47s2.77,1.6,2.77,3.46h0c0,1.86-1.09,3.48-2.79,3.48S6.18,202.73,6.18,200.87Zm5,0v0c0-1.56-.88-3-2.27-3s-2.26,1.44-2.26,3h0c0,1.56.89,3,2.28,3S11.22,202.43,11.22,200.87Z"/></g><g class="cls-18"><path class="cls-5" d="M.29,173.44l.38-.32a2.57,2.57,0,0,0,2.09,1.08,1.56,1.56,0,0,0,1.66-1.49v0c0-.94-.88-1.46-2.09-1.46H2L1.84,171l2.31-2.66H.63v-.47h4.2v.35l-2.27,2.6c1.28.08,2.38.67,2.38,1.9v0a2.06,2.06,0,0,1-2.19,2A3,3,0,0,1,.29,173.44Z"/><path class="cls-5" d="M6.24,171.19v0c0-1.85,1.09-3.47,2.8-3.47s2.77,1.6,2.77,3.45v0c0,1.86-1.09,3.48-2.79,3.48S6.24,173.05,6.24,171.19Zm5,0v0c0-1.56-.88-3-2.27-3s-2.26,1.44-2.26,3v0c0,1.56.88,3,2.28,3S11.29,172.75,11.29,171.19Z"/></g><g class="cls-18"><path class="cls-5" d="M3.81,142.17H.17L0,141.8l3.84-4.75h.45v4.69H5.38v.43H4.29v1.64H3.81Zm0-.43v-4l-3.21,4Z"/><path class="cls-5" d="M6.53,140.47v0c0-1.85,1.09-3.47,2.79-3.47s2.78,1.6,2.78,3.45v0c0,1.85-1.09,3.48-2.8,3.48S6.53,142.32,6.53,140.47Zm5.05,0v0c0-1.56-.89-3-2.28-3s-2.25,1.44-2.25,3v0c0,1.56.88,3,2.27,3S11.58,142,11.58,140.47Z"/></g><g class="cls-18"><path class="cls-5" d="M.33,114.67l.35-.36a2.93,2.93,0,0,0,2,1,1.7,1.7,0,0,0,1.8-1.69v0A1.66,1.66,0,0,0,2.66,112a3,3,0,0,0-1.52.42l-.38-.24L1,108.92H4.72v.48H1.39l-.16,2.52a3,3,0,0,1,1.48-.37,2.12,2.12,0,0,1,2.31,2H5a2.17,2.17,0,0,1-2.34,2.16A3.43,3.43,0,0,1,.33,114.67Z"/><path class="cls-5" d="M6.21,112.3v0c0-1.85,1.08-3.47,2.79-3.47s2.77,1.6,2.77,3.45v0c0,1.85-1.09,3.47-2.79,3.47S6.21,114.15,6.21,112.3Zm5,0v0c0-1.56-.88-3-2.27-3s-2.26,1.44-2.26,3v0c0,1.55.88,3,2.28,3S11.25,113.86,11.25,112.3Z"/></g><path class="cls-9" d="M234.28,256.49v2.6s-7,3.14-6.93,5.88c0,0,8.43.55,9.8-3.55v-4.93Z"/><rect class="cls-9" x="234.28" y="256.49" width="2.87" height="2.6"/><path class="cls-9" d="M255.81,256.49v2.6s7,3.14,6.93,5.88c0,0-8.43.55-9.8-3.55v-4.93Z"/><rect class="cls-9" x="252.94" y="256.49" width="2.87" height="2.6"/><polygon class="cls-30" points="239.83 85.87 248.42 87.17 250.9 83.86 248.88 68.15 238.56 76.39 238.75 85.23 239.83 85.87"/><path class="cls-31" d="M227.35,150.2l4.19,107.11h7.93l3.83-86.43,6,86.43h9.3V148.65S242,134.52,227.35,150.2Z"/><path class="cls-9" d="M226.6,149.37,227,153a70.57,70.57,0,0,0,32.06-.39l.37-4Z"/><path class="cls-24" d="M238.32,83.91l-16.91,2.77,4.75,45.71-1.73,14.41,1.54,2.54s14.28,4,33.42-.69l1.63-2-1.27-13.14,6.72-46.8-16-4.45S246.07,88.33,238.32,83.91Z"/><polygon class="cls-27" points="241.01 115.33 251.73 118 247.38 139.1 236.33 137.44 241.01 115.33"/><polygon class="cls-26" points="241.94 117.3 250.09 119.38 246.41 137.2 237.98 136 241.94 117.3"/><path class="cls-27" d="M243.52,130.17c1.26.26,2.55-.84,2.88-2.46s-.42-3.13-1.67-3.39-2.54.84-2.87,2.46S242.27,129.92,243.52,130.17Z"/><path class="cls-32" d="M244.73,125.12l-4.74-1.9c1.38-7.89-2.1-8.06-2.1-8.06l-1.66,7.45-4.17,2.71-8.08-.69-5.36-.87,2.79-12.83c8.68-18.23-.68-18.78-.68-18.78-5.75-.06-9.81,17.34-9.81,17.34l-5.31,21.66,6.91,2.23,10.54.32,11.3-.22,2.55,2.61,7.82,1.09,6.44-7.59-.68-5.83Z"/><polygon class="cls-30" points="242.83 85.46 243.78 96.75 244.73 85.46 242.83 85.46"/><path class="cls-32" d="M272,158.9,278,124.84,276.07,108S275,86.26,267.7,87.51c0,0-10.8,5.7-2.12,23.93l2.17,13.45-.51,33.72-3.87,4.45-1.54,6a4.63,4.63,0,0,0,4.22-4.81l.17,5.57-1.59,6.2s8.05-.06,9.22-5l-.46-7.77Z"/><path class="cls-30" d="M223,40.33s-5.54-.95-5.86,6.76c0,0-.45,6.75,6.38,6Z"/><path class="cls-30" d="M264.16,39.11s5.08-1.17,5.81,6.51c0,0,.81,6.72-6.05,6.35Z"/><path class="cls-32" d="M263.87,27.82l1.22,27.09-3.95,14.54-9.53,8.76-13.84,0L228,69.41l-5.29-14.5V27.82s.76-13.3,21.18-13.37C265.09,14.38,263.87,27.82,263.87,27.82Z"/><path class="cls-14" d="M237,44.26c-.18,1.43-1.21,2.49-2.3,2.35s-1.84-1.4-1.66-2.84,1.2-2.49,2.29-2.35S237.13,42.82,237,44.26Z"/><polygon class="cls-33" points="226.27 36.55 237.46 34.46 238.4 37.35 227.47 40.44 226.27 36.55"/><polygon class="cls-33" points="261.54 36.8 249.65 34.01 248.47 36.81 259.39 40.89 261.54 36.8"/><path class="cls-14" d="M249.58,43.77c-.18,1.44.57,2.71,1.66,2.84s2.12-.92,2.3-2.35-.57-2.71-1.66-2.84S249.76,42.34,249.58,43.77Z"/><polygon class="cls-33" points="222.73 54.91 228.54 63.83 236.4 58.1 251.3 57.54 260.41 63.83 265.09 54.91 261.14 69.45 251.61 79.25 237.38 79.23 226.79 69.26 222.73 54.91"/><polygon class="cls-15" points="239.87 53.32 247.94 53.63 243.78 56.51 239.87 53.32"/><path class="cls-32" d="M237,61.79V72.13s7,3.39,13.92,0V61.79Z"/><path class="cls-15" d="M238.46,63.6s6.38,2.53,10.9-.72C249.36,62.88,244.44,68.38,238.46,63.6Z"/><polygon class="cls-33" points="242.71 67.14 242.71 75.07 245.1 75.07 245.1 67.02 242.71 67.14"/><polygon class="cls-34" points="237.8 82.23 236.9 85.46 238.99 93.28 242.83 85.46 237.8 82.23"/><polygon class="cls-34" points="244.73 85.46 248.11 93.28 251.9 84.14 251.44 81.39 244.73 85.46"/><path class="cls-24" d="M266.47,86.68s-13.06-.93-2.56,28.23l14.63-3.61S275,85.19,266.47,86.68Z"/><path class="cls-24" d="M221.41,86.68s-8.5,4.67-12.29,24.91L223,114.91S234.78,95.49,221.41,86.68Z"/><polygon class="cls-16" points="209.81 114.02 220.18 116.57 220.66 114.35 210.34 111.88 209.81 114.02"/><polygon class="cls-16" points="266.05 114.38 266.41 116.57 276.76 113.96 276.51 111.8 266.05 114.38"/></g></g></svg>