<svg xmlns="http://www.w3.org/2000/svg" viewBox="0 0 506.82 79.08"><defs><style>.cls-1{fill:#f3f4f5;}.cls-2{fill:#f6f7f7;}.cls-3{fill:#fff;}</style></defs><title>levelup-rewards-logo</title><g id="Layer_2" data-name="Layer 2"><g id="Layer_7_copy_2" data-name="Layer 7 copy 2"><path class="cls-1" d="M283.37,43.34h-12V64h-6.79V12.86H281.5q8.65,0,13.31,3.94t4.66,11.46a13.78,13.78,0,0,1-2.58,8.33,15.42,15.42,0,0,1-7.19,5.31l12,21.73V64h-7.24Zm-12-5.52h10.37a11.7,11.7,0,0,0,8-2.61,8.81,8.81,0,0,0,3-7q0-4.75-2.83-7.29t-8.17-2.57H271.34Z"/><path class="cls-1" d="M319.85,64.75a16.51,16.51,0,0,1-8.77-2.39A16.29,16.29,0,0,1,305,55.7a20.76,20.76,0,0,1-2.18-9.58V44.6a22.37,22.37,0,0,1,2.13-9.88,16.92,16.92,0,0,1,5.92-6.91,14.62,14.62,0,0,1,8.23-2.51,13.74,13.74,0,0,1,11,4.73q4.06,4.73,4.06,12.92v2.36H307v.81a15.92,15.92,0,0,0,3.71,10.78A11.8,11.8,0,0,0,320,61.2,13.7,13.7,0,0,0,326,60,13.21,13.21,0,0,0,330.68,56l2.64,2Q328.68,64.75,319.85,64.75Zm-.77-35.86a10.52,10.52,0,0,0-8,3.48,16.08,16.08,0,0,0-4,9.35h22.82v-.46a14,14,0,0,0-3.13-8.93A9.7,9.7,0,0,0,319.08,28.89Z"/><path class="cls-1" d="M347.57,55.29l.63,3.27.84-3.45L358.19,26h3.59l9,28.86,1,4,.81-3.69L380.4,26h4.36L373.69,64H370.1l-9.77-30.16-.46-2.07-.46,2.11L349.82,64h-3.59l-11-38h4.32Z"/><path class="cls-1" d="M412.38,64a19.9,19.9,0,0,1-.81-5.31,14.67,14.67,0,0,1-5.64,4.45,17.29,17.29,0,0,1-7.26,1.56,12.75,12.75,0,0,1-8.88-3.06A10,10,0,0,1,386.4,54,10.18,10.18,0,0,1,391,45.17q4.62-3.23,12.88-3.23h7.63V37.61A8.34,8.34,0,0,0,409,31.19q-2.51-2.34-7.33-2.34a11.47,11.47,0,0,0-7.28,2.25,6.69,6.69,0,0,0-2.88,5.41l-4.22,0q0-4.54,4.22-7.86A16.24,16.24,0,0,1,401.9,25.3q6.36,0,10,3.18a11.42,11.42,0,0,1,3.78,8.88v18a22.33,22.33,0,0,0,1.16,8.26V64Zm-13.22-3a14.12,14.12,0,0,0,7.54-2,12,12,0,0,0,4.83-5.45V45.17H404q-6.29.07-9.84,2.3a6.91,6.91,0,0,0-3.55,6.13A6.8,6.8,0,0,0,393,58.91,8.94,8.94,0,0,0,399.16,61Z"/><path class="cls-1" d="M440.91,29.59a15.76,15.76,0,0,0-2.85-.25,10.28,10.28,0,0,0-6.66,2.2,12,12,0,0,0-3.88,6.38V64h-4.18V26h4.11l.07,6a11.19,11.19,0,0,1,10.72-6.75,6.93,6.93,0,0,1,2.78.46Z"/><path class="cls-1" d="M441.82,44.67q0-8.86,4-14.12a12.73,12.73,0,0,1,10.74-5.26,13.23,13.23,0,0,1,11.74,6.08V10h4.18V64h-3.94L468.33,59q-4,5.77-11.88,5.77a12.68,12.68,0,0,1-10.6-5.29q-4-5.29-4-14.29Zm4.25.74q0,7.28,2.92,11.48a9.44,9.44,0,0,0,8.23,4.2q7.77,0,11-6.86V36.38Q465,29,457.29,29A9.55,9.55,0,0,0,449,33.13Q446.08,37.29,446.08,45.41Z"/><path class="cls-1" d="M502.61,54.38a6,6,0,0,0-2.51-5,19.39,19.39,0,0,0-7.58-3,34.16,34.16,0,0,1-7.86-2.46,10.47,10.47,0,0,1-4.15-3.39,8.46,8.46,0,0,1-1.35-4.85,9.05,9.05,0,0,1,3.76-7.44,15.2,15.2,0,0,1,9.63-2.94q6.36,0,10.21,3.15a10.1,10.1,0,0,1,3.85,8.21H502.4a6.81,6.81,0,0,0-2.79-5.55,12.62,12.62,0,0,0-13.71-.37,5.7,5.7,0,0,0-2.51,4.8,5.19,5.19,0,0,0,2.09,4.41q2.09,1.56,7.63,2.87a35.86,35.86,0,0,1,8.3,2.78,10.75,10.75,0,0,1,4.1,3.55,9.76,9.76,0,0,1-2.55,12.73q-3.88,2.88-10.14,2.88-6.64,0-10.78-3.22a9.9,9.9,0,0,1-4.13-8.14h4.22a7.32,7.32,0,0,0,3.11,5.75,12.72,12.72,0,0,0,7.58,2.06,12,12,0,0,0,7.1-1.93A5.8,5.8,0,0,0,502.61,54.38Z"/><path class="cls-2" d="M9.14,56.67H33V64H0V11.44H9.14Z"/><path class="cls-2" d="M54.73,64.77q-8.35,0-13.53-5.26T36,45.51V44.43A23.45,23.45,0,0,1,38.27,34a17.19,17.19,0,0,1,6.34-7.17,16.77,16.77,0,0,1,9.11-2.57q8,0,12.34,5.09t4.35,14.42v3.54H44.87a11.74,11.74,0,0,0,3.23,7.66,9.71,9.71,0,0,0,7.14,2.82,11.89,11.89,0,0,0,9.83-4.88L69.8,57.4a15.81,15.81,0,0,1-6.27,5.44A19.63,19.63,0,0,1,54.73,64.77Zm-1-33.5a7.39,7.39,0,0,0-5.84,2.53,13.11,13.11,0,0,0-2.84,7H61.74V40.2q-.29-4.41-2.35-6.67A7.34,7.34,0,0,0,53.68,31.27Z"/><path class="cls-2" d="M88.85,52.92l8.27-28h9.07L92.65,64H85L71.37,24.95h9.11Z"/><path class="cls-2" d="M126,64.77q-8.35,0-13.53-5.26t-5.19-14V44.43A23.45,23.45,0,0,1,109.5,34a17.19,17.19,0,0,1,6.34-7.17,16.77,16.77,0,0,1,9.11-2.57q8,0,12.34,5.09t4.35,14.42v3.54H116.1a11.74,11.74,0,0,0,3.23,7.66,9.71,9.71,0,0,0,7.14,2.82,11.89,11.89,0,0,0,9.83-4.88L141,57.4a15.81,15.81,0,0,1-6.27,5.44A19.63,19.63,0,0,1,126,64.77Zm-1-33.5a7.39,7.39,0,0,0-5.84,2.53,13.11,13.11,0,0,0-2.84,7H133V40.2q-.29-4.41-2.35-6.67A7.34,7.34,0,0,0,124.91,31.27Z"/><path class="cls-2" d="M156.73,64h-8.78V8.55h8.78Z"/><path class="cls-3" d="M213.27,17.44h-7.74V46.09q0,8.63-5.4,13.66t-14.76,5q-9.23,0-14.64-4.88t-5.52-13.41v-35h10.84V46.16c0,3.44.82,6,2.47,7.53a9.49,9.49,0,0,0,6.85,2.37q9.13,0,9.28-9.61v-29h-8L199.8,0Z"/><path class="cls-3" d="M248.57,44.86q0,9-4.1,14.47a13.15,13.15,0,0,1-11.08,5.44,12.18,12.18,0,0,1-9.58-4.12V79.08H213.38V24.95h9.68l.36,3.83a12.27,12.27,0,0,1,9.9-4.55,13.24,13.24,0,0,1,11.24,5.35q4,5.35,4,14.74Zm-10.44-.8q0-5.47-1.93-8.45a6.29,6.29,0,0,0-5.62-3q-4.91,0-6.76,3.77V52.47q1.91,3.88,6.83,3.88Q238.13,56.35,238.13,44.06Z"/></g></g></svg>