<svg xmlns="http://www.w3.org/2000/svg" viewBox="0 0 422.79 54.7"><defs><style>.cls-1{fill:#fff;}</style></defs><title>levelrewards</title><g id="Layer_2" data-name="Layer 2"><g id="Layer_23" data-name="Layer 23"><path class="cls-1" d="M1.93,52.1H28.2V54H0V2.81H1.93Z"/><path class="cls-1" d="M49.85,54.7a15.3,15.3,0,0,1-8.46-2.48,17,17,0,0,1-6-6.8,21,21,0,0,1-2.18-9.6V34.24a22.05,22.05,0,0,1,2.11-9.67,16.71,16.71,0,0,1,5.8-6.86,14.23,14.23,0,0,1,8.05-2.46,13.31,13.31,0,0,1,10.41,4.54q4,4.54,4,11.92v2H35.09v2.07a19.1,19.1,0,0,0,2,8.58,15.36,15.36,0,0,0,5.38,6.19,13.3,13.3,0,0,0,7.44,2.25,15.14,15.14,0,0,0,6.52-1.27,13.27,13.27,0,0,0,4.76-3.93l1.34.95Q58.22,54.7,49.85,54.7Zm-.7-37.55a12.42,12.42,0,0,0-9.42,4.13,17.59,17.59,0,0,0-4.54,10.53H61.7v-.46a16.06,16.06,0,0,0-1.63-7.19A12.6,12.6,0,0,0,55.56,19,11.6,11.6,0,0,0,49.15,17.16Z"/><path class="cls-1" d="M83.18,51,96.86,16h2L84.09,54H82.23L67.46,16h2Z"/><path class="cls-1" d="M119.6,54.7a15.3,15.3,0,0,1-8.46-2.48,17,17,0,0,1-6-6.8,21,21,0,0,1-2.18-9.6V34.24A22.05,22.05,0,0,1,105,24.57a16.71,16.71,0,0,1,5.8-6.86,14.23,14.23,0,0,1,8.05-2.46,13.31,13.31,0,0,1,10.41,4.54q4,4.54,4,11.92v2H104.84v2.07a19.1,19.1,0,0,0,2,8.58,15.36,15.36,0,0,0,5.38,6.19,13.3,13.3,0,0,0,7.44,2.25,15.14,15.14,0,0,0,6.52-1.27,13.27,13.27,0,0,0,4.76-3.93l1.34.95Q128,54.7,119.6,54.7Zm-.7-37.55a12.42,12.42,0,0,0-9.42,4.13,17.59,17.59,0,0,0-4.54,10.53h26.51v-.46a16.06,16.06,0,0,0-1.63-7.19,12.6,12.6,0,0,0-4.5-5.17A11.6,11.6,0,0,0,118.9,17.16Z"/><path class="cls-1" d="M144.56,54h-1.9V0h1.9Z"/><path class="cls-1" d="M176.59,32.66H161.72V54h-4.36V2.81H174q8.19,0,12.8,4t4.61,11.1a13.86,13.86,0,0,1-2.88,8.67,14.74,14.74,0,0,1-7.73,5.2l12.8,21.8V54H189ZM161.72,29H175a12.28,12.28,0,0,0,8.75-3.1,10.51,10.51,0,0,0,3.3-8q0-5.42-3.45-8.42t-9.67-3h-12.2Z"/><path class="cls-1" d="M216.91,54.7a16.51,16.51,0,0,1-8.77-2.39,16.29,16.29,0,0,1-6.1-6.66,20.76,20.76,0,0,1-2.18-9.58V34.56A22.38,22.38,0,0,1,202,24.68a16.92,16.92,0,0,1,5.92-6.91,14.62,14.62,0,0,1,8.23-2.51,13.74,13.74,0,0,1,11,4.73q4.06,4.73,4.06,12.92v2.36H204v.81a15.93,15.93,0,0,0,3.71,10.78,11.8,11.8,0,0,0,9.33,4.31,13.7,13.7,0,0,0,6-1.23A13.21,13.21,0,0,0,227.74,46l2.64,2Q225.74,54.7,216.91,54.7Zm-.77-35.86a10.52,10.52,0,0,0-8,3.48,16.08,16.08,0,0,0-4,9.35H227v-.46a14,14,0,0,0-3.13-8.93A9.7,9.7,0,0,0,216.14,18.84Z"/><path class="cls-1" d="M248.48,45.25l.63,3.27.84-3.45L259.1,16h3.59l9,28.86,1,4,.81-3.69L281.32,16h4.36L274.61,54H271l-9.77-30.16-.46-2.07-.46,2.11L250.73,54h-3.59l-11-38h4.32Z"/><path class="cls-1" d="M317.67,54a19.9,19.9,0,0,1-.81-5.31,14.67,14.67,0,0,1-5.64,4.45A17.29,17.29,0,0,1,304,54.7a12.75,12.75,0,0,1-8.88-3.06,10,10,0,0,1-3.39-7.73,10.18,10.18,0,0,1,4.62-8.79q4.62-3.23,12.88-3.23h7.63V27.56a8.33,8.33,0,0,0-2.51-6.42q-2.51-2.34-7.33-2.34a11.47,11.47,0,0,0-7.28,2.25,6.69,6.69,0,0,0-2.88,5.41l-4.22,0q0-4.54,4.22-7.86a16.24,16.24,0,0,1,10.37-3.32q6.36,0,10,3.18A11.42,11.42,0,0,1,321,27.32v18a22.33,22.33,0,0,0,1.16,8.26V54Zm-13.22-3a14.12,14.12,0,0,0,7.54-2,12,12,0,0,0,4.83-5.45V35.12H309.3q-6.29.07-9.84,2.3a6.91,6.91,0,0,0-3.55,6.13,6.8,6.8,0,0,0,2.37,5.31A8.94,8.94,0,0,0,304.45,51Z"/><path class="cls-1" d="M349.8,19.55A15.76,15.76,0,0,0,347,19.3a10.28,10.28,0,0,0-6.66,2.2,12,12,0,0,0-3.88,6.38V54h-4.18V16h4.11l.07,6a11.19,11.19,0,0,1,10.72-6.75,6.93,6.93,0,0,1,2.78.46Z"/><path class="cls-1" d="M354.09,34.63q0-8.86,4-14.12a12.73,12.73,0,0,1,10.74-5.26,13.23,13.23,0,0,1,11.74,6.08V0h4.18V54h-3.94l-.18-5.06q-4,5.77-11.88,5.77a12.68,12.68,0,0,1-10.6-5.29q-4-5.29-4-14.29Zm4.25.74q0,7.28,2.92,11.48a9.44,9.44,0,0,0,8.23,4.2q7.77,0,11-6.86V26.33q-3.27-7.42-11-7.42a9.55,9.55,0,0,0-8.26,4.17Q358.35,27.25,358.35,35.37Z"/><path class="cls-1" d="M418.57,44.33a6,6,0,0,0-2.51-5,19.39,19.39,0,0,0-7.58-3,34.16,34.16,0,0,1-7.86-2.46,10.47,10.47,0,0,1-4.15-3.39,8.46,8.46,0,0,1-1.35-4.85,9.05,9.05,0,0,1,3.76-7.44,15.2,15.2,0,0,1,9.63-2.94q6.36,0,10.21,3.15a10.1,10.1,0,0,1,3.85,8.21h-4.22a6.81,6.81,0,0,0-2.79-5.55,12.62,12.62,0,0,0-13.71-.37,5.7,5.7,0,0,0-2.51,4.8,5.19,5.19,0,0,0,2.09,4.41q2.09,1.56,7.63,2.87a35.86,35.86,0,0,1,8.3,2.78,10.75,10.75,0,0,1,4.1,3.55,9.09,9.09,0,0,1,1.34,5,9.11,9.11,0,0,1-3.88,7.7Q415,54.7,408.76,54.7q-6.64,0-10.78-3.22a9.9,9.9,0,0,1-4.13-8.14h4.22a7.32,7.32,0,0,0,3.11,5.75,12.72,12.72,0,0,0,7.58,2.06,12,12,0,0,0,7.1-1.93A5.8,5.8,0,0,0,418.57,44.33Z"/></g></g></svg>