<svg xmlns="http://www.w3.org/2000/svg" viewBox="0 0 499.82 76.54"><defs><style>.cls-1{fill:#f6f7f7;}.cls-2{fill:#fff;}.cls-3{fill:#f3f4f5;}</style></defs><title>levelup-rewards-logo-v6</title><g id="Layer_2" data-name="Layer 2"><g id="LevelUp_copy_7" data-name="LevelUp copy 7"><path class="cls-1" d="M4.48,57.69h26v3.76H0V8.84H4.48Z"/><path class="cls-1" d="M50.6,62.17a17,17,0,0,1-9-2.46,16.74,16.74,0,0,1-6.27-6.85A21.35,21.35,0,0,1,33.07,43V41.47a23,23,0,0,1,2.19-10.15,17.39,17.39,0,0,1,6.09-7.1,15,15,0,0,1,8.46-2.58A14.12,14.12,0,0,1,61.1,26.49q4.17,4.86,4.17,13.28v2.42H37.37V43A16.37,16.37,0,0,0,41.19,54.1a12.12,12.12,0,0,0,9.59,4.43,14.08,14.08,0,0,0,6.12-1.26,13.57,13.57,0,0,0,4.82-4l2.71,2.06Q59.67,62.17,50.6,62.17ZM49.8,25.32a10.81,10.81,0,0,0-8.22,3.58,16.52,16.52,0,0,0-4.06,9.61H61V38a14.35,14.35,0,0,0-3.22-9.18A10,10,0,0,0,49.8,25.32Z"/><path class="cls-1" d="M83.47,55.49,95.35,22.36H99.8L85.2,61.45H81.7L67,22.36h4.44Z"/><path class="cls-1" d="M119,62.17a17,17,0,0,1-9-2.46,16.74,16.74,0,0,1-6.27-6.85A21.35,21.35,0,0,1,101.43,43V41.47a23,23,0,0,1,2.19-10.15,17.39,17.39,0,0,1,6.09-7.1,15,15,0,0,1,8.46-2.58,14.12,14.12,0,0,1,11.29,4.86q4.17,4.86,4.17,13.28v2.42H105.73V43a16.37,16.37,0,0,0,3.81,11.08,12.12,12.12,0,0,0,9.59,4.43,14.08,14.08,0,0,0,6.12-1.26,13.57,13.57,0,0,0,4.82-4l2.71,2.06Q128,62.17,119,62.17Zm-.79-36.85a10.81,10.81,0,0,0-8.22,3.58,16.52,16.52,0,0,0-4.06,9.61h23.45V38a14.35,14.35,0,0,0-3.22-9.18A10,10,0,0,0,118.16,25.32Z"/><path class="cls-1" d="M145,61.45h-4.34V6H145Z"/><path class="cls-2" d="M192.82,9"/><path class="cls-2" d="M192.82,4.27"/></g><g id="Rewards_copy_3" data-name="Rewards copy 3"><path class="cls-3" d="M276.85,40.22H262V61.56h-4.36V10.37h16.63q8.19,0,12.8,4t4.61,11.1a13.86,13.86,0,0,1-2.88,8.67A14.74,14.74,0,0,1,281,39.3l12.8,21.79v.46h-4.61ZM262,36.56h13.25a12.28,12.28,0,0,0,8.75-3.1,10.5,10.5,0,0,0,3.3-8q0-5.42-3.45-8.42t-9.67-3H262Z"/><path class="cls-3" d="M312.84,62.26a16.51,16.51,0,0,1-8.77-2.39,16.29,16.29,0,0,1-6.1-6.66,20.76,20.76,0,0,1-2.18-9.58V42.12a22.37,22.37,0,0,1,2.13-9.88,16.92,16.92,0,0,1,5.92-6.91,14.62,14.62,0,0,1,8.23-2.51,13.74,13.74,0,0,1,11,4.73q4.06,4.73,4.06,12.92v2.36H300v.81a15.92,15.92,0,0,0,3.71,10.78A11.8,11.8,0,0,0,313,58.71a13.71,13.71,0,0,0,6-1.23,13.22,13.22,0,0,0,4.69-3.94l2.64,2Q321.67,62.26,312.84,62.26Zm-.77-35.86a10.52,10.52,0,0,0-8,3.48,16.08,16.08,0,0,0-4,9.35h22.82v-.46a14,14,0,0,0-3.13-8.93A9.7,9.7,0,0,0,312.07,26.4Z"/><path class="cls-3" d="M340.56,52.8l.63,3.27.84-3.45,9.14-29.11h3.59l9,28.86,1,4,.81-3.69,7.8-29.18h4.36l-11.07,38H363.1l-9.77-30.16-.46-2.07-.46,2.11-9.6,30.13h-3.59l-11-38h4.32Z"/><path class="cls-3" d="M405.37,61.56a19.9,19.9,0,0,1-.81-5.31,14.67,14.67,0,0,1-5.64,4.45,17.3,17.3,0,0,1-7.26,1.56,12.75,12.75,0,0,1-8.88-3.06,10,10,0,0,1-3.39-7.73A10.18,10.18,0,0,1,384,42.68q4.62-3.23,12.88-3.23h7.63V35.12A8.34,8.34,0,0,0,402,28.7q-2.51-2.34-7.33-2.34a11.47,11.47,0,0,0-7.28,2.25A6.69,6.69,0,0,0,384.53,34l-4.22,0q0-4.54,4.22-7.86a16.24,16.24,0,0,1,10.37-3.32q6.36,0,10,3.18a11.42,11.42,0,0,1,3.78,8.88v18a22.33,22.33,0,0,0,1.16,8.26v.42Zm-13.22-3a14.12,14.12,0,0,0,7.54-2A12,12,0,0,0,404.53,51V42.68H397q-6.29.07-9.84,2.3a6.91,6.91,0,0,0-3.55,6.13A6.8,6.8,0,0,0,386,56.43,8.94,8.94,0,0,0,392.15,58.53Z"/><path class="cls-3" d="M433.91,27.1a15.76,15.76,0,0,0-2.85-.25,10.28,10.28,0,0,0-6.66,2.2,12,12,0,0,0-3.88,6.38V61.56h-4.18v-38h4.11l.07,6a11.19,11.19,0,0,1,10.72-6.75,6.93,6.93,0,0,1,2.78.46Z"/><path class="cls-3" d="M434.82,42.19q0-8.86,4-14.12a12.73,12.73,0,0,1,10.74-5.26,13.23,13.23,0,0,1,11.74,6.08V7.56h4.18v54H461.5l-.18-5.06q-4,5.77-11.88,5.77A12.68,12.68,0,0,1,438.84,57q-4-5.29-4-14.29Zm4.25.74q0,7.28,2.92,11.48a9.44,9.44,0,0,0,8.23,4.2q7.77,0,11-6.86V33.89q-3.27-7.42-11-7.42A9.55,9.55,0,0,0,442,30.64Q439.07,34.8,439.07,42.93Z"/><path class="cls-3" d="M495.6,51.89a6,6,0,0,0-2.51-5,19.39,19.39,0,0,0-7.58-3,34.18,34.18,0,0,1-7.86-2.46A10.47,10.47,0,0,1,473.5,38a8.47,8.47,0,0,1-1.35-4.85,9.05,9.05,0,0,1,3.76-7.44,15.2,15.2,0,0,1,9.63-2.94q6.36,0,10.21,3.15a10.1,10.1,0,0,1,3.85,8.21h-4.22a6.81,6.81,0,0,0-2.79-5.55,12.62,12.62,0,0,0-13.71-.37,5.7,5.7,0,0,0-2.51,4.8,5.19,5.19,0,0,0,2.09,4.41q2.09,1.57,7.63,2.87a35.86,35.86,0,0,1,8.3,2.78,10.75,10.75,0,0,1,4.1,3.55,9.76,9.76,0,0,1-2.55,12.73q-3.88,2.88-10.14,2.88-6.64,0-10.78-3.22a9.9,9.9,0,0,1-4.13-8.14h4.22a7.32,7.32,0,0,0,3.11,5.75,12.72,12.72,0,0,0,7.58,2.06,12,12,0,0,0,7.1-1.93A5.8,5.8,0,0,0,495.6,51.89Z"/></g><g id="LevelUp_copy_9" data-name="LevelUp copy 9"><path class="cls-2" d="M202,8.9V44.06q0,8.38-5.37,13.28t-14.29,4.9q-9,0-14.34-4.82T162.67,44V8.9h9.11V44q0,5.27,2.67,8t7.88,2.78q10.55,0,10.55-11.11V8.9Z"/><path class="cls-2" d="M244.81,42.36q0,9.07-4.12,14.47A14.31,14.31,0,0,1,219.33,58V76.54h-8.78V22.42h8.09l.36,4a12.9,12.9,0,0,1,10.51-4.7A13.33,13.33,0,0,1,240.74,27q4.06,5.33,4.06,14.8Zm-8.74-.76q0-5.85-2.33-9.29a7.58,7.58,0,0,0-6.67-3.43,8.08,8.08,0,0,0-7.73,4.44V50.67a8.15,8.15,0,0,0,7.8,4.55,7.57,7.57,0,0,0,6.56-3.38Q236.06,48.47,236.06,41.6Z"/><path class="cls-2" d="M195.12,9"/><path class="cls-2" d="M195.12,4.27"/><polygon class="cls-2" points="192.96 14.31 192.96 11.63 188.44 11.63 197.31 0 206.53 11.63 201.93 11.63 201.94 14.31 192.96 14.31"/></g></g></svg>