<svg xmlns="http://www.w3.org/2000/svg" viewBox="0 0 405.58 49.04"><defs><style>.cls-1{fill:#fff;}</style></defs><title>ir-logo-rev5</title><g id="Layer_2" data-name="Layer 2"><g id="Layer_3" data-name="Layer 3"><path class="cls-1" d="M28.3,48H0V0H6.12V42.77H28.3Z"/><path class="cls-1" d="M62.57,38.52C60.27,45.08,54.72,49,47.52,49c-9.72,0-16.27-7.42-16.27-18.51S38,11.59,47.74,11.59A14.38,14.38,0,0,1,61.13,19.8c1.44,3.1,2,6,2.09,10.95H37.37c0,4.18.36,6,1.44,8.28a10.2,10.2,0,0,0,9.07,5.4,9.74,9.74,0,0,0,7.42-3.24,12.16,12.16,0,0,0,2.16-3.74Zm-5.4-11.88c-.07-3.31-.58-5-2-7.06a8.44,8.44,0,0,0-7.34-3.74,9.55,9.55,0,0,0-7.63,3.67c-1.58,2-2.16,3.74-2.52,7.13Z"/><path class="cls-1" d="M84,48H78.19L65.52,12.53h6.12L81.51,41.4,91.3,12.53h4.9Z"/><path class="cls-1" d="M130,38.52C127.73,45.08,122.19,49,115,49c-9.72,0-16.27-7.42-16.27-18.51s6.77-18.87,16.49-18.87a14.38,14.38,0,0,1,13.39,8.21c1.44,3.1,2,6,2.09,10.95H104.83c0,4.18.36,6,1.44,8.28a10.2,10.2,0,0,0,9.07,5.4,9.74,9.74,0,0,0,7.42-3.24,12.16,12.16,0,0,0,2.16-3.74Zm-5.4-11.88c-.07-3.31-.58-5-2-7.06a8.44,8.44,0,0,0-7.34-3.74,9.55,9.55,0,0,0-7.63,3.67c-1.58,2-2.16,3.74-2.52,7.13Z"/><path class="cls-1" d="M138.17,48V0h5.54V48Z"/><path class="cls-1" d="M183.39,48l-8.86-20.81H160.78V48h-5.62V0H174c9,0,15.19,5.47,15.19,13.47a13.86,13.86,0,0,1-3.31,8.86c-1.44,1.66-2.81,2.45-5.62,3.46L189.72,48ZM173.31,22.32c3.46,0,5.69-.79,7.49-2.66a9.05,9.05,0,0,0,2.45-6.34c0-5-3.53-8.06-9.22-8.06H160.78V22.32Z"/><path class="cls-1" d="M226,38.52C223.71,45.08,218.16,49,211,49c-9.72,0-16.27-7.42-16.27-18.51s6.77-18.87,16.49-18.87a14.38,14.38,0,0,1,13.39,8.21c1.44,3.1,2,6,2.09,10.95H200.81c0,4.18.36,6,1.44,8.28a10.2,10.2,0,0,0,9.07,5.4,9.74,9.74,0,0,0,7.42-3.24,12.16,12.16,0,0,0,2.16-3.74Zm-5.4-11.88c-.07-3.31-.58-5-2-7.06a8.44,8.44,0,0,0-7.34-3.74,9.55,9.55,0,0,0-7.63,3.67c-1.58,2-2.16,3.74-2.52,7.13Z"/><path class="cls-1" d="M264.31,48h-4.46l-7.92-26.35L244.66,48h-4.54l-10.66-35.5H235L242.71,39l7.42-26.43h4l7.92,26.57,8-26.57h4.46Z"/><path class="cls-1" d="M303,48a42.35,42.35,0,0,1-.65-6.41C299.52,46.88,296,49,289.94,49c-7.34,0-12.38-4.39-12.38-10.73a11,11,0,0,1,6-9.72c3.24-1.73,8.06-2.59,14.26-2.59,1.3,0,2.38,0,4.61.14V24.91c0-6.7-2.52-9.15-9.29-9.15-5.33,0-8.57,2.23-9.5,6.48l-5.11-.86a9.18,9.18,0,0,1,2.66-5.54c2.81-2.88,7.27-4.32,13.18-4.32,5.33,0,8.93,1.37,11,4.18,1.73,2.38,2.38,5.18,2.38,10.37v15a28.94,28.94,0,0,0,.79,6.91ZM297.72,30.1c-9.22,0-14.26,2.88-14.26,8.28,0,3.82,3,6.34,7.56,6.34,6.48,0,11.45-5.33,11.45-12.17,0-.65,0-1.37-.07-2.3C300.46,30.17,298.58,30.1,297.72,30.1Z"/><path class="cls-1" d="M318.81,48V12.53h4.82v8.28a26.94,26.94,0,0,1,3.67-6.19,9.34,9.34,0,0,1,7-3.1c.43,0,1.22.07,2,.14v5.26c-6.7-.58-11.81,4.75-12,12.31V48Z"/><path class="cls-1" d="M368.93,48h-5V42c-3,5-6.12,7.06-11.23,7.06C344.3,49,338.4,41.4,338.4,30.6c0-11.23,6-19,14.55-19,4.46,0,7.27,1.58,10.44,5.76V0h5.54Zm-5.54-21.82c-.29-3.31-.72-4.82-2.09-6.55A9.71,9.71,0,0,0,353.81,16c-5.69,0-9.36,5.47-9.36,13.9,0,9.22,3.38,14.62,9.14,14.62a9.74,9.74,0,0,0,7.2-3.6c1.73-2.09,2.3-3.74,2.59-7.27Z"/><path class="cls-1" d="M380.45,37.73a7.06,7.06,0,0,0,2.3,4,14.41,14.41,0,0,0,8.71,2.66c5,0,8.35-2.3,8.35-5.76,0-2.88-2.09-4.68-6.12-5.47l-7.49-1.37c-6-1.15-9.58-4.75-9.58-9.79,0-6.26,5.33-10.44,13.39-10.44,7.42,0,12.24,3.1,14,9l-5,1.08c-1.66-3.82-4.54-5.54-9.07-5.54s-7.63,2.09-7.63,5.26c0,2.66,1.8,4.25,5.54,5l7,1.22c7.27,1.3,10.8,4.75,10.8,10.51C405.58,44.57,399.74,49,391,49c-5,0-9.07-1.3-12.1-4-1.87-1.58-2.81-3.1-3.67-6.19Z"/></g></g></svg>