<svg xmlns="http://www.w3.org/2000/svg" viewBox="0 0 201.34 28.75"><defs><style>.cls-1{fill:#8bc34a;}</style></defs><title>lr-logo-primary-color</title><g id="Layer_2" data-name="Layer 2"><g id="Layer_1-2" data-name="Layer 1"><g id="Layer_2-2" data-name="Layer 2"><g id="Layer_1-2-2" data-name="Layer 1-2"><path class="cls-1" d="M2.4,21.77H9V23.7H0V9.3H2.4Z"/><path class="cls-1" d="M21.68,17.22h-6.3v4.55h7.31V23.7H13V9.3h9.64v1.93H15.39v4.06h6.3Z"/><path class="cls-1" d="M31.32,19.93l.26,1h.06l.25-1L35.32,9.3h2.56L32.74,23.7H30.46L25.32,9.3h2.56Z"/><path class="cls-1" d="M50.33,17.22H44v4.55h7.31V23.7H41.63V9.3h9.64v1.93H44v4.06h6.3Z"/><path class="cls-1" d="M57.79,21.77h6.62V23.7h-9V9.3h2.4Z"/><path class="cls-1" d="M99,17.72v6H96.6V9.3H102a5.73,5.73,0,0,1,3.73,1.09,3.8,3.8,0,0,1,1.27,3.1,3.2,3.2,0,0,1-.58,1.92,4.06,4.06,0,0,1-1.69,1.29A3,3,0,0,1,106.5,18a4,4,0,0,1,.53,2.15v1.2a4.69,4.69,0,0,0,.16,1.24,1.75,1.75,0,0,0,.53.92v.23h-2.47a1.62,1.62,0,0,1-.51-1,8.94,8.94,0,0,1-.11-1.37V20.14a2.42,2.42,0,0,0-.63-1.76,2.29,2.29,0,0,0-1.74-.65Zm0-1.93h2.79a3.28,3.28,0,0,0,2.11-.55,2.07,2.07,0,0,0,.66-1.69,2.22,2.22,0,0,0-.65-1.71,2.79,2.79,0,0,0-2-.62H99Z"/><path class="cls-1" d="M120.78,17.22h-6.3v4.55h7.31V23.7h-9.71V9.3h9.64v1.93h-7.24v4.06h6.3Z"/><path class="cls-1" d="M129.34,19.86h0L132.22,9.3h1.92L137,19.86h0L139.34,9.3h2.36l-3.42,14.4H136.1l-2.88-10.33h-.06L130.28,23.7h-2.2L124.67,9.3H127Z"/><path class="cls-1" d="M153,20.33h-5.6l-1.15,3.36h-2.43l5.29-14.4h2.27l5.23,14.4h-2.44Zm-4.94-2h4.26l-2.09-6.15h-.06Z"/><path class="cls-1" d="M162.72,17.72v6h-2.4V9.3h5.32a5.73,5.73,0,0,1,3.73,1.09,3.8,3.8,0,0,1,1.32,3.11,3.2,3.2,0,0,1-.58,1.92,4.06,4.06,0,0,1-1.69,1.29A3,3,0,0,1,170.17,18a4,4,0,0,1,.53,2.15v1.2a4.69,4.69,0,0,0,.16,1.24,1.75,1.75,0,0,0,.53.92v.23h-2.47a1.62,1.62,0,0,1-.51-1,8.94,8.94,0,0,1-.11-1.37V20.14a2.42,2.42,0,0,0-.63-1.76,2.29,2.29,0,0,0-1.74-.65Zm0-1.93h2.79a3.28,3.28,0,0,0,2.11-.55,2.07,2.07,0,0,0,.66-1.69,2.22,2.22,0,0,0-.65-1.71,2.79,2.79,0,0,0-2-.62h-2.92Z"/><path class="cls-1" d="M175.75,23.7V9.3h4.67a5.86,5.86,0,0,1,6.17,6.1v2.2a5.94,5.94,0,0,1-1.72,4.4,6.05,6.05,0,0,1-4.46,1.7Zm2.4-12.47V21.77h2.2a3.56,3.56,0,0,0,2.81-1.17,4.41,4.41,0,0,0,1-3V15.4a4.36,4.36,0,0,0-1-3,3.56,3.56,0,0,0-2.81-1.17Z"/><path class="cls-1" d="M198.89,20a1.82,1.82,0,0,0-.67-1.47,6.34,6.34,0,0,0-2.36-1,10,10,0,0,1-3.71-1.68,3.34,3.34,0,0,1-1.3-2.73,3.51,3.51,0,0,1,1.44-2.87A5.83,5.83,0,0,1,196,9.09a5.5,5.5,0,0,1,3.81,1.28,3.83,3.83,0,0,1,1.39,3.07v.06h-2.3a2.33,2.33,0,0,0-.75-1.79A3.06,3.06,0,0,0,196,11a3.17,3.17,0,0,0-2,.57,1.81,1.81,0,0,0-.71,1.48,1.63,1.63,0,0,0,.77,1.36,8.31,8.31,0,0,0,2.54,1,8.5,8.5,0,0,1,3.53,1.72,3.6,3.6,0,0,1,1.21,2.8,3.39,3.39,0,0,1-1.44,2.86,6.26,6.26,0,0,1-3.78,1.06,6.64,6.64,0,0,1-4-1.2,3.7,3.7,0,0,1-1.65-3.28v-.06h2.31a2.26,2.26,0,0,0,.91,2,3.94,3.94,0,0,0,2.36.65,3.55,3.55,0,0,0,2.08-.54A1.7,1.7,0,0,0,198.89,20Z"/><path class="cls-1" d="M80.59,4.13l-.12.07a1.56,1.56,0,0,1-.37.1,3.11,3.11,0,0,1-.61,0,3,3,0,0,1-.81-.08,8.43,8.43,0,0,1-1-.2,5.05,5.05,0,0,1-.55-.18l-.25-.09-.29-.14a3,3,0,0,1-1.07-.9,1.9,1.9,0,0,1-.38-.94A1.58,1.58,0,0,1,75.28,1a1.33,1.33,0,0,1,.23-.38,2,2,0,0,1,.3-.28l.1-.06h0L76,.2a1.66,1.66,0,0,1,.37-.14h.5a2.66,2.66,0,0,1,.79.12A3.57,3.57,0,0,1,78.83.8a5.37,5.37,0,0,1,.84.81,7.7,7.7,0,0,1,.6.81,2.6,2.6,0,0,1,.51,1.33.54.54,0,0,1-.14.36Zm0,0,.1-.09a.49.49,0,0,0,.11-.35,1.49,1.49,0,0,0-.8-1,3.42,3.42,0,0,0-.81-.35,5.69,5.69,0,0,0-.93-.2,6.8,6.8,0,0,0-.9-.06L77,2.1h.1l.08-.05a.28.28,0,0,0,.1-.09.64.64,0,0,0,.08-.14.41.41,0,0,0,0-.22v.11a3,3,0,0,0,.35.74l.12.19.16.21a3.51,3.51,0,0,0,.29.36A3.78,3.78,0,0,0,79,3.8a2.26,2.26,0,0,0,1.25.45.94.94,0,0,0,.37-.07Z"/><path class="cls-1" d="M81,4.13l.12.06a.94.94,0,0,0,.37.07,2.26,2.26,0,0,0,1.25-.45,3.78,3.78,0,0,0,.67-.59,3.51,3.51,0,0,0,.29-.36l.16-.21L84,2.47a3,3,0,0,0,.35-.74V1.62a.41.41,0,0,0,0,.22.64.64,0,0,0,.08.14V2h0l.1.06h-.06a.17.17,0,0,0,.1,0h-.3a6.8,6.8,0,0,0-.9.06,5.69,5.69,0,0,0-.93.2,3.42,3.42,0,0,0-.81.35,1.49,1.49,0,0,0-.8,1,.49.49,0,0,0,.11.35Zm0,0L80.93,4a.54.54,0,0,1-.14-.36,2.6,2.6,0,0,1,.51-1.33,7.7,7.7,0,0,1,.6-.81,5.37,5.37,0,0,1,.84-.81A3.64,3.64,0,0,1,83.91.12,2.66,2.66,0,0,1,84.7,0h.5a1.66,1.66,0,0,1,.37.14h.11l.09.06h0L86,.46l.15.15a1.33,1.33,0,0,1,.23.38,1.49,1.49,0,0,1,.12.78,1.9,1.9,0,0,1-.38.94,3,3,0,0,1-1.07.9l-.29.14-.25.09A5.05,5.05,0,0,1,84,4a8.43,8.43,0,0,1-1,.2c-.3,0-.57.07-.81.08a3.11,3.11,0,0,1-.61,0,1.56,1.56,0,0,1-.37-.1Z"/><path class="cls-1" d="M88.46,28.75H73.16a4.54,4.54,0,0,1-4.52-4.52V8.93a4.54,4.54,0,0,1,4.52-4.52h15.3A4.53,4.53,0,0,1,93,8.93h0v15.3a4.53,4.53,0,0,1-4.54,4.52ZM73.16,6.55a2.39,2.39,0,0,0-2.39,2.39V24.23a2.39,2.39,0,0,0,2.39,2.39h15.3a2.39,2.39,0,0,0,2.39-2.39V8.93a2.39,2.39,0,0,0-2.39-2.39Z"/><rect class="cls-1" x="73.1" y="18.74" width="2.14" height="5"/><rect class="cls-1" x="76.42" y="16.41" width="2.14" height="7.33"/><rect class="cls-1" x="79.74" y="14.01" width="2.14" height="9.73"/><rect class="cls-1" x="83.06" y="11.92" width="2.14" height="11.81"/><rect class="cls-1" x="86.38" y="9.42" width="2.14" height="14.31"/></g></g></g></g></svg>