<svg xmlns="http://www.w3.org/2000/svg" viewBox="0 0 213.73 27.35"><defs><style>.cls-1{fill:#fff;}</style></defs><title>lr-logo-rev4</title><g id="Layer_2" data-name="Layer 2"><g id="drawing"><path class="cls-1" d="M3.39,24.24H15.52V27H0V1.41H3.39Z"/><path class="cls-1" d="M26.51,27.35a8.26,8.26,0,0,1-4.39-1.2,8.15,8.15,0,0,1-3-3.33A10.39,10.39,0,0,1,18,18v-.76A11.19,11.19,0,0,1,19,12.34a8.46,8.46,0,0,1,3-3.45,7.31,7.31,0,0,1,4.11-1.26A6.87,6.87,0,0,1,31.61,10a9.59,9.59,0,0,1,2,6.46v1.18H20.07V18a8,8,0,0,0,1.85,5.39,5.9,5.9,0,0,0,4.67,2.15,6.85,6.85,0,0,0,3-.62,6.61,6.61,0,0,0,2.35-2l1.32,1A7.67,7.67,0,0,1,26.51,27.35ZM26.12,9.42a5.26,5.26,0,0,0-4,1.74,8,8,0,0,0-2,4.68H31.55v-.23A7,7,0,0,0,30,11.14,4.85,4.85,0,0,0,26.12,9.42Z"/><path class="cls-1" d="M43.44,24.1,49.22,8h2.16l-7.1,19H42.57L35.44,8H37.6Z"/><path class="cls-1" d="M62,27.35a8.26,8.26,0,0,1-4.39-1.2,8.15,8.15,0,0,1-3-3.33A10.39,10.39,0,0,1,53.44,18v-.76a11.19,11.19,0,0,1,1.06-4.94,8.46,8.46,0,0,1,3-3.45,7.31,7.31,0,0,1,4.11-1.26A6.87,6.87,0,0,1,67.07,10a9.59,9.59,0,0,1,2,6.46v1.18H55.53V18a8,8,0,0,0,1.85,5.39,5.9,5.9,0,0,0,4.67,2.15A6.85,6.85,0,0,0,65,25a6.61,6.61,0,0,0,2.35-2l1.32,1A7.67,7.67,0,0,1,62,27.35ZM61.58,9.42a5.26,5.26,0,0,0-4,1.74,8,8,0,0,0-2,4.68H67v-.23a7,7,0,0,0-1.56-4.46A4.85,4.85,0,0,0,61.58,9.42Z"/><path class="cls-1" d="M75.55,27H73.44V0h2.11Z"/><path class="cls-1" d="M90.88,16.65h-6V27H81.47V1.41h8.47q4.32,0,6.65,2a7.08,7.08,0,0,1,2.33,5.73,6.89,6.89,0,0,1-1.29,4.17A7.71,7.71,0,0,1,94,15.93l6,10.86V27H96.43Zm-6-2.76h5.19a5.85,5.85,0,0,0,4-1.3A4.41,4.41,0,0,0,95.54,9.1a4.64,4.64,0,0,0-1.42-3.65A6,6,0,0,0,90,4.17H84.87Z"/><path class="cls-1" d="M110.79,27.35a8.26,8.26,0,0,1-4.39-1.2,8.15,8.15,0,0,1-3-3.33A10.39,10.39,0,0,1,102.27,18v-.76a11.19,11.19,0,0,1,1.06-4.94,8.46,8.46,0,0,1,3-3.45,7.31,7.31,0,0,1,4.11-1.26A6.87,6.87,0,0,1,115.9,10a9.59,9.59,0,0,1,2,6.46v1.18H104.36V18a8,8,0,0,0,1.85,5.39,5.9,5.9,0,0,0,4.67,2.15,6.85,6.85,0,0,0,3-.62,6.61,6.61,0,0,0,2.35-2l1.32,1A7.67,7.67,0,0,1,110.79,27.35Zm-.39-17.93a5.26,5.26,0,0,0-4,1.74,8,8,0,0,0-2,4.68h11.41v-.23a7,7,0,0,0-1.56-4.46A4.85,4.85,0,0,0,110.41,9.42Z"/><path class="cls-1" d="M126.58,22.62l.32,1.63.42-1.72L131.89,8h1.79l4.52,14.43.49,2,.4-1.85L143,8h2.18l-5.54,19h-1.79L133,11.92l-.23-1-.23,1.05L127.71,27h-1.79L120.39,8h2.16Z"/><path class="cls-1" d="M161.17,27a10,10,0,0,1-.4-2.65,7.34,7.34,0,0,1-2.82,2.22,8.64,8.64,0,0,1-3.63.78,6.38,6.38,0,0,1-4.44-1.53,5,5,0,0,1-1.7-3.87,5.09,5.09,0,0,1,2.31-4.39,11.11,11.11,0,0,1,6.44-1.62h3.81V13.78a4.17,4.17,0,0,0-1.26-3.21,5.2,5.2,0,0,0-3.67-1.17,5.74,5.74,0,0,0-3.64,1.13,3.34,3.34,0,0,0-1.44,2.71l-2.11,0a4.89,4.89,0,0,1,2.11-3.93,8.12,8.12,0,0,1,5.19-1.66,7.41,7.41,0,0,1,5,1.59,5.71,5.71,0,0,1,1.89,4.44v9a11.16,11.16,0,0,0,.58,4.13V27Zm-6.61-1.51a7.06,7.06,0,0,0,3.77-1,6,6,0,0,0,2.42-2.72V17.56H157a9.43,9.43,0,0,0-4.92,1.15,3.46,3.46,0,0,0-1.78,3.07,3.4,3.4,0,0,0,1.19,2.65A4.47,4.47,0,0,0,154.56,25.49Z"/><path class="cls-1" d="M177.24,9.77a7.86,7.86,0,0,0-1.42-.12,5.14,5.14,0,0,0-3.33,1.1,6,6,0,0,0-1.94,3.19V27h-2.09V8h2.06l0,3a5.59,5.59,0,0,1,5.36-3.37,3.46,3.46,0,0,1,1.39.23Z"/><path class="cls-1" d="M179.38,17.31a11.46,11.46,0,0,1,2-7.06,6.36,6.36,0,0,1,5.37-2.63,6.61,6.61,0,0,1,5.87,3V0h2.09V27h-2l-.09-2.53a6.79,6.79,0,0,1-5.94,2.88,6.34,6.34,0,0,1-5.3-2.65,11.52,11.52,0,0,1-2-7.15Zm2.13.37A9.92,9.92,0,0,0,183,23.42a4.72,4.72,0,0,0,4.11,2.1,5.66,5.66,0,0,0,5.52-3.43V13.17a5.62,5.62,0,0,0-5.48-3.71A4.78,4.78,0,0,0,183,11.54,10.6,10.6,0,0,0,181.51,17.68Z"/><path class="cls-1" d="M211.62,22.17a3,3,0,0,0-1.26-2.51,9.69,9.69,0,0,0-3.79-1.49,17.09,17.09,0,0,1-3.93-1.23,5.23,5.23,0,0,1-2.07-1.7,4.23,4.23,0,0,1-.68-2.43,4.53,4.53,0,0,1,1.88-3.72,7.6,7.6,0,0,1,4.82-1.47A7.82,7.82,0,0,1,211.7,9.2a5,5,0,0,1,1.92,4.1h-2.11a3.41,3.41,0,0,0-1.4-2.78,6.31,6.31,0,0,0-6.86-.18,2.85,2.85,0,0,0-1.26,2.4,2.59,2.59,0,0,0,1,2.21,11.06,11.06,0,0,0,3.81,1.43A17.93,17.93,0,0,1,211,17.77a5.37,5.37,0,0,1,2,1.78,4.54,4.54,0,0,1,.67,2.51,4.56,4.56,0,0,1-1.94,3.85,8.3,8.3,0,0,1-5.07,1.44,8.52,8.52,0,0,1-5.39-1.61,5,5,0,0,1-2.07-4.07h2.11a3.66,3.66,0,0,0,1.56,2.87,6.36,6.36,0,0,0,3.79,1,6,6,0,0,0,3.55-1A2.9,2.9,0,0,0,211.62,22.17Z"/></g></g></svg>