<svg xmlns="http://www.w3.org/2000/svg" viewBox="0 0 201.29 28.75"><defs><style>.cls-1{fill:#fff;}</style></defs><title>lr-new-logo-1</title><g id="Layer_2" data-name="Layer 2"><g id="Layer_1-2" data-name="Layer 1"><path class="cls-1" d="M2.4,21.77H9V23.7H0V9.3H2.4Z"/><path class="cls-1" d="M21.68,17.22h-6.3v4.55h7.31V23.7H13V9.3h9.64v1.93H15.39v4.06h6.3Z"/><path class="cls-1" d="M31.32,19.93l.26,1h.06l.25-1L35.32,9.3h2.56L32.74,23.7H30.46L25.32,9.3h2.56Z"/><path class="cls-1" d="M50.33,17.22H44v4.55h7.31V23.7H41.63V9.3h9.64v1.93H44v4.06h6.3Z"/><path class="cls-1" d="M57.79,21.77h6.62V23.7h-9V9.3h2.4Z"/><path class="cls-1" d="M99,17.72v6h-2.4V9.3H102a5.7,5.7,0,0,1,3.73,1.09A3.8,3.8,0,0,1,107,13.49a3.21,3.21,0,0,1-.58,1.92,4,4,0,0,1-1.69,1.29A3,3,0,0,1,106.5,18a4.06,4.06,0,0,1,.53,2.15v1.2a4.86,4.86,0,0,0,.16,1.24,1.73,1.73,0,0,0,.53.92v.23h-2.47a1.61,1.61,0,0,1-.51-1,8.55,8.55,0,0,1-.11-1.37V20.14a2.42,2.42,0,0,0-.63-1.76,2.31,2.31,0,0,0-1.74-.65Zm0-1.93h2.79a3.26,3.26,0,0,0,2.11-.55,2.08,2.08,0,0,0,.66-1.69,2.24,2.24,0,0,0-.65-1.71,2.8,2.8,0,0,0-2-.62H99Z"/><path class="cls-1" d="M120.78,17.22h-6.3v4.55h7.31V23.7h-9.71V9.3h9.64v1.93h-7.24v4.06h6.3Z"/><path class="cls-1" d="M129.34,19.86v0L132.22,9.3h1.92L137,19.86v0L139.34,9.3h2.36l-3.42,14.4H136.1l-2.88-10.33h-.06L130.28,23.7h-2.2L124.67,9.3H127Z"/><path class="cls-1" d="M153,20.33H147.4l-1.15,3.36h-2.43l5.29-14.4h2.27l5.23,14.4h-2.44Zm-4.94-2h4.26l-2.09-6.15h-.06Z"/><path class="cls-1" d="M162.72,17.72v6h-2.4V9.3h5.32a5.7,5.7,0,0,1,3.73,1.09,3.8,3.8,0,0,1,1.32,3.11,3.21,3.21,0,0,1-.58,1.92,4,4,0,0,1-1.69,1.29A3,3,0,0,1,170.17,18a4.06,4.06,0,0,1,.53,2.15v1.2a4.86,4.86,0,0,0,.16,1.24,1.73,1.73,0,0,0,.53.92v.23h-2.47a1.61,1.61,0,0,1-.51-1,8.55,8.55,0,0,1-.11-1.37V20.14a2.42,2.42,0,0,0-.63-1.76,2.31,2.31,0,0,0-1.74-.65Zm0-1.93h2.79a3.26,3.26,0,0,0,2.11-.55,2.08,2.08,0,0,0,.66-1.69,2.24,2.24,0,0,0-.65-1.71,2.8,2.8,0,0,0-2-.62h-2.92Z"/><path class="cls-1" d="M175.75,23.7V9.3h4.67A6,6,0,0,1,184.87,11a6,6,0,0,1,1.72,4.4V17.6a5.93,5.93,0,0,1-1.72,4.4,6.06,6.06,0,0,1-4.46,1.7Zm2.4-12.47V21.77h2.2a3.55,3.55,0,0,0,2.81-1.17,4.4,4.4,0,0,0,1-3v-2.2a4.37,4.37,0,0,0-1-3,3.55,3.55,0,0,0-2.81-1.17Z"/><path class="cls-1" d="M198.89,20a1.84,1.84,0,0,0-.67-1.47,6.27,6.27,0,0,0-2.36-1,10,10,0,0,1-3.71-1.68,3.34,3.34,0,0,1-1.3-2.73,3.49,3.49,0,0,1,1.44-2.87A5.85,5.85,0,0,1,196,9.09a5.52,5.52,0,0,1,3.81,1.28,3.82,3.82,0,0,1,1.39,3.07l0,.06h-2.3a2.32,2.32,0,0,0-.75-1.79A3.07,3.07,0,0,0,196,11a3.14,3.14,0,0,0-2,.57,1.82,1.82,0,0,0-.71,1.48,1.62,1.62,0,0,0,.77,1.36,8.5,8.5,0,0,0,2.54,1,8.46,8.46,0,0,1,3.53,1.72,3.62,3.62,0,0,1,1.21,2.8,3.38,3.38,0,0,1-1.44,2.86,6.21,6.21,0,0,1-3.78,1.06,6.68,6.68,0,0,1-4-1.2,3.69,3.69,0,0,1-1.65-3.28l0-.06h2.31a2.25,2.25,0,0,0,.91,2,4,4,0,0,0,2.36.65,3.49,3.49,0,0,0,2.08-.54A1.7,1.7,0,0,0,198.89,20Z"/><path class="cls-1" d="M80.59,4.13l-.12.07a1.39,1.39,0,0,1-.37.1,3.52,3.52,0,0,1-.61,0c-.24,0-.51,0-.81-.08a9,9,0,0,1-1-.2,5.17,5.17,0,0,1-.55-.18l-.25-.09-.29-.14a3.08,3.08,0,0,1-1.07-.9,1.93,1.93,0,0,1-.38-.94A1.56,1.56,0,0,1,75.28,1a1.44,1.44,0,0,1,.23-.38,1.86,1.86,0,0,1,.3-.28l.1-.06h0l0,0,0,0L76,.2a2,2,0,0,1,.37-.14l.26,0h.24a2.75,2.75,0,0,1,.79.12,3.7,3.7,0,0,1,1.17.62,5.75,5.75,0,0,1,.84.81,8.16,8.16,0,0,1,.6.81,2.55,2.55,0,0,1,.51,1.33.58.58,0,0,1-.14.36Zm0,0,.1-.09a.49.49,0,0,0,.11-.35,1.49,1.49,0,0,0-.8-1,3.59,3.59,0,0,0-.81-.35,5.42,5.42,0,0,0-.93-.2,7.12,7.12,0,0,0-.9-.06L77,2.1H77a.25.25,0,0,0,.1,0h0l0,0,0,0h0l.08-.05a.37.37,0,0,0,.1-.09.55.55,0,0,0,.08-.14.38.38,0,0,0,0-.22c0-.07,0,0,0,.11a3.11,3.11,0,0,0,.35.74l.12.19.16.21a3.88,3.88,0,0,0,.29.36,3.77,3.77,0,0,0,.67.59,2.25,2.25,0,0,0,1.25.45,1,1,0,0,0,.37-.07Z"/><path class="cls-1" d="M81,4.13l.12.06a1,1,0,0,0,.37.07,2.25,2.25,0,0,0,1.25-.45,3.77,3.77,0,0,0,.67-.59,3.88,3.88,0,0,0,.29-.36l.16-.21L84,2.47a3.11,3.11,0,0,0,.35-.74c0-.09,0-.18,0-.11a.38.38,0,0,0,0,.22.55.55,0,0,0,.08.14l0,.05,0,0h0l.1.06-.06,0,0,0h0a.25.25,0,0,0,.1,0H84.6l-.33,0a7.12,7.12,0,0,0-.9.06,5.42,5.42,0,0,0-.93.2,3.59,3.59,0,0,0-.81.35,1.49,1.49,0,0,0-.8,1,.48.48,0,0,0,.11.35Zm0,0L80.93,4a.58.58,0,0,1-.14-.36,2.55,2.55,0,0,1,.51-1.33,8.16,8.16,0,0,1,.6-.81,5.75,5.75,0,0,1,.84-.81A3.7,3.7,0,0,1,83.91.12,2.75,2.75,0,0,1,84.7,0h.24l.26,0a2,2,0,0,1,.37.14l.05,0,0,0,.06,0,.09.06h0l0,0,0,0L86,.46a1.14,1.14,0,0,1,.15.15,1.44,1.44,0,0,1,.23.38,1.56,1.56,0,0,1,.12.78,1.93,1.93,0,0,1-.38.94,3.08,3.08,0,0,1-1.07.9l-.29.14-.25.09a5.17,5.17,0,0,1-.55.18,9,9,0,0,1-1,.2c-.3,0-.57.07-.81.08a3.52,3.52,0,0,1-.61,0,1.39,1.39,0,0,1-.37-.1Z"/><path class="cls-1" d="M88.46,28.75H73.16a4.53,4.53,0,0,1-4.52-4.52V8.93a4.53,4.53,0,0,1,4.52-4.52H88.46A4.53,4.53,0,0,1,93,8.93V24.23A4.53,4.53,0,0,1,88.46,28.75ZM73.16,6.55a2.39,2.39,0,0,0-2.39,2.39V24.23a2.39,2.39,0,0,0,2.39,2.39H88.46a2.39,2.39,0,0,0,2.39-2.39V8.93a2.39,2.39,0,0,0-2.39-2.39Z"/><rect class="cls-1" x="73.1" y="18.74" width="2.14" height="5"/><rect class="cls-1" x="76.42" y="16.41" width="2.14" height="7.33"/><rect class="cls-1" x="79.74" y="14.01" width="2.14" height="9.73"/><rect class="cls-1" x="83.06" y="11.92" width="2.14" height="11.81"/><rect class="cls-1" x="86.38" y="9.42" width="2.14" height="14.31"/></g></g></svg>