<svg xmlns="http://www.w3.org/2000/svg" xmlns:xlink="http://www.w3.org/1999/xlink" viewBox="0 0 437.09 301.92"><defs><style>.cls-1{fill:none;}.cls-2{fill:#ffd195;}.cls-3{fill:#3a3a3a;}.cls-4{opacity:0.5;}.cls-5{fill:#197278;}.cls-6{opacity:0.4;}.cls-7{clip-path:url(#clip-path);}.cls-8{clip-path:url(#clip-path-2);}.cls-9{fill:#383838;}.cls-10{fill:#262626;}.cls-11,.cls-15{fill:#fff;}.cls-12{fill:#42352c;}.cls-13{fill:#8e8e8e;}.cls-14,.cls-15{opacity:0.1;}.cls-16{fill:#1b9aaa;}.cls-17{fill:#25b6c1;}.cls-18{opacity:0.05;}.cls-19{fill:#8ea604;}.cls-20{fill:#aad643;}.cls-21{fill:#83c736;}.cls-22{fill:#f8fcff;}.cls-23{fill:#808782;}.cls-24{opacity:0.15;}.cls-25{fill:#c2e812;}.cls-26,.cls-28{opacity:0.3;}.cls-27,.cls-28{fill:#fcb216;}</style><clipPath id="clip-path"><rect class="cls-1" x="129.27" y="101.28" width="19.34" height="19.35"/></clipPath><clipPath id="clip-path-2"><rect class="cls-1" x="129.27" y="101.28" width="19.34" height="19.36"/></clipPath></defs><title>money-exchange</title><g id="Layer_2" data-name="Layer 2"><g id="Layer_1-2" data-name="Layer 1"><polygon class="cls-2" points="125 66.32 199.86 69.06 169.54 155.88 120.21 155.88 85.08 144.38 55.27 144.38 55.27 88.71 82.94 88.71 125 66.32"/><path class="cls-3" d="M344.22,157.07V65.79c0-6.09-4.5-11.21-10.59-11.21L243,55.17H134.9c-6.09,0-10.56,5.12-10.56,11.21v90.1A10.23,10.23,0,0,0,134.9,167l198.73.6a10.26,10.26,0,0,0,10.59-10.55"/><path class="cls-4" d="M138.94,103A7.93,7.93,0,1,1,131,111a7.93,7.93,0,0,1,7.94-7.93"/><rect class="cls-5" x="154.85" y="64.07" width="161.41" height="94.05"/><g class="cls-6"><g class="cls-7"><g class="cls-8"><path class="cls-9" d="M138.94,101.28a9.68,9.68,0,1,1-9.68,9.68,9.69,9.69,0,0,1,9.68-9.68"/></g></g></g><path class="cls-10" d="M324.62,120.7a.82.82,0,0,1-.82-.81V102.31a.82.82,0,0,1,.82-.81h1a.8.8,0,0,1,.8.81v17.58a.81.81,0,0,1-.8.81Z"/><path class="cls-10" d="M332.73,108.78a2.32,2.32,0,1,1-2.32,2.32,2.32,2.32,0,0,1,2.32-2.32"/><path class="cls-10" d="M325.07,95.92a1.53,1.53,0,1,1-1.53,1.53,1.53,1.53,0,0,1,1.53-1.53"/><path class="cls-11" d="M166,111.09a17.25,17.25,0,1,0,17.25-17.24A17.26,17.26,0,0,0,166,111.09Z"/><path class="cls-12" d="M176,97.92l0,0Z"/><path class="cls-13" d="M184.86,128.27a17.16,17.16,0,0,0,9.07-3.6l-4.75-1.74-.89-1.36-1.19,0-.16-2,2.26-2.5,1.62-4.43,0-.76c1.76-.31,1.46-2.23,1.46-2.23,0-1.87-1-2.2-1.59-2.22l0-.86.93-3.84s-.43-1.4-.82-2.62c-.14-.41.89,0,.89,0s-.4-2.84-7-3.5-8.47,2.72-8.47,2.72c-.37-1-.18-1.35-.1-1.46a4.22,4.22,0,0,0-1,3.24l-.74-.59-.2,4.06.81,2.54.06.37c-.53.14-1.29.64-1.29,2.37,0,0-.06,2.13,2,2l.11.86,2,4.73,1.84,1.54-.11,2.27h-1.55l-.62,1.57-4.49,1.9a17.14,17.14,0,0,0,9.44,3.5A15,15,0,0,0,184.86,128.27ZM176.6,106Z"/><path class="cls-14" d="M164,95.79s-4,27-40.36,8.66c0,0-.21,3.84-7.76,8.56-6.76,4.24-21.83,2.95-25.94-.48,0,0,4.43-8.24-5.33-17l37.2-17.92Z"/><path class="cls-15" d="M333.63,54.58,243,55.17H134.9c-6.09,0-10.56,5.12-10.56,11.21v90.1a10.52,10.52,0,0,0,3,7.56L341.89,58.72A10.26,10.26,0,0,0,333.63,54.58Z"/><path class="cls-2" d="M164,90.67s-4.42,27.64-40.79,9.33c0,0-10.23,16-33.27,12.53,0,0-13.69-2.93-5.33-22.15l37.2-17.92Z"/><rect class="cls-16" y="87.19" width="42.21" height="60.46"/><polygon class="cls-17" points="62.95 152.28 42.44 152.28 41.16 83.84 64.22 82.56 62.95 152.28"/><rect class="cls-18" y="134.14" width="42.21" height="13.5"/><polygon class="cls-14" points="64.22 88.71 69.08 144.38 63.09 144.38 64.22 88.71"/><polygon class="cls-2" points="307.29 195.7 232.43 198.43 262.75 285.26 312.08 285.26 347.21 273.76 377.02 273.76 377.02 218.09 349.35 218.09 307.29 195.7"/><polygon class="cls-19" points="304.73 186.74 299.23 301.92 117.81 301.92 109.49 183.76 304.73 186.74"/><polygon class="cls-20" points="290.02 199.95 286.67 284.99 132.83 284.99 128.37 198.98 290.02 199.95"/><path class="cls-21" d="M164.63,242c0,13,11.31,23.48,25.27,23.48S215.17,255,215.17,242,203.86,218.5,189.9,218.5,164.63,229,164.63,242Z"/><polygon class="cls-14" points="299.49 296.38 121.76 296.16 120.26 183.76 299.69 292.11 299.49 296.38"/><polygon class="cls-19" points="311.13 180.34 307.29 292.11 125.17 292.11 120.05 179.06 311.13 180.34"/><polygon class="cls-20" points="296.42 193.56 293.07 278.59 139.23 278.59 134.77 192.58 296.42 193.56"/><path class="cls-19" d="M192.47,235.59c0,13,11.32,23.47,25.28,23.47S243,248.55,243,235.59s-11.32-23.48-25.27-23.48S192.47,222.62,192.47,235.59Z"/><path class="cls-14" d="M268.26,225.17s4,27,40.35,8.66c0,0,.21,3.84,7.76,8.56,6.76,4.24,21.83,3,25.94-.48,0,0-4.43-8.24,5.33-17L310.44,207Z"/><path class="cls-2" d="M268.26,220.05s4.41,27.64,40.78,9.33c0,0,10.24,16,33.27,12.53,0,0,13.69-2.93,5.33-22.15l-37.2-17.91Z"/><rect class="cls-22" x="390.08" y="216.56" width="43.81" height="60.46"/><polygon class="cls-22" points="369.35 281.65 389.86 281.65 391.13 213.22 368.07 211.94 369.35 281.65"/><rect class="cls-18" x="390.08" y="263.52" width="43.81" height="13.5"/><polygon class="cls-23" points="386.03 209.99 386.03 285.26 437.09 281.65 437.09 209.99 386.03 209.99"/><polygon class="cls-14" points="368.07 218.09 363.21 273.76 369.2 273.76 368.07 218.09"/><polygon class="cls-13" points="306.32 119.56 210.03 119.56 209.5 102.63 306.86 102.63 306.32 119.56"/><polygon class="cls-24" points="303.19 116.96 213.17 116.96 212.64 105.24 303.71 105.24 303.19 116.96"/><polygon class="cls-25" points="303.19 116.96 213.17 116.96 212.64 105.24 303.71 105.24 303.19 116.96"/><polygon class="cls-11" points="305.36 91.58 304.5 101.5 294.99 103.36 305.03 103.69 307.28 113.69 307.93 103.27 316.87 100.77 307.52 100.55 305.36 91.58"/><g class="cls-26"><rect class="cls-27" x="410.15" y="97.3" width="2.04" height="10.67"/><rect class="cls-27" x="405.84" y="101.61" width="10.67" height="2.04"/></g><g class="cls-26"><rect class="cls-27" x="159.16" y="25.25" width="2.04" height="10.67"/><rect class="cls-27" x="154.85" y="29.57" width="10.67" height="2.04"/></g><g class="cls-26"><rect class="cls-27" x="355.93" width="3.91" height="20.48"/><rect class="cls-27" x="347.64" y="8.29" width="20.48" height="3.91"/></g><g class="cls-26"><rect class="cls-27" x="83.63" y="168.14" width="2.04" height="10.67"/><rect class="cls-27" x="79.32" y="172.45" width="10.67" height="2.04"/></g><g class="cls-26"><rect class="cls-27" x="390.12" y="38.33" width="2.04" height="10.67"/><rect class="cls-27" x="385.8" y="42.64" width="10.67" height="2.04"/></g><g class="cls-26"><rect class="cls-27" x="62.21" y="35.37" width="3.91" height="20.48"/><rect class="cls-27" x="53.93" y="43.66" width="20.48" height="3.91"/></g><path class="cls-28" d="M280.55,32.56c0,2.38-1.92,5.86-4.31,5.86s-4.31-3.48-4.31-5.86a4.31,4.31,0,1,1,8.62,0Z"/><path class="cls-28" d="M32.56,14.18c0,1.1-.89,2.7-2,2.7s-2-1.6-2-2.7a2,2,0,0,1,4,0Z"/><g class="cls-26"><rect class="cls-27" x="367.25" y="162.15" width="3.91" height="20.48"/><rect class="cls-27" x="358.96" y="170.44" width="20.49" height="3.91"/></g><g class="cls-26"><rect class="cls-27" x="30.6" y="214.43" width="3.91" height="20.48"/><rect class="cls-27" x="22.32" y="222.72" width="20.48" height="3.91"/></g><path class="cls-28" d="M90.92,269.5c0,2.38-1.93,5.86-4.31,5.86s-4.31-3.48-4.31-5.86a4.31,4.31,0,0,1,8.62,0Z"/><g class="cls-26"><rect class="cls-27" x="349.33" y="287.28" width="2.04" height="10.67"/><rect class="cls-27" x="345.01" y="291.6" width="10.67" height="2.04"/></g></g></g></svg>