<svg xmlns="http://www.w3.org/2000/svg" viewBox="0 0 94.78 33.34"><defs><style>.cls-1{fill:#edbc1d;opacity:0.8;}.cls-2{fill:#8ec641;}.cls-3{opacity:0.1;}.cls-4{fill:#231f20;}.cls-5{fill:#fff;}</style></defs><title>new-offer-element</title><g id="Layer_2" data-name="Layer 2"><g id="Layer_1_copy" data-name="Layer 1 copy"><polygon class="cls-1" points="3.83 7.31 0 28.38 88.63 33.34 94.78 5.47 3.83 7.31"/><polygon class="cls-2" points="4.56 10.07 92.44 0 85.63 26.18 4.22 31.84 4.56 10.07"/><g class="cls-3"><polygon class="cls-4" points="5.87 32.94 5.79 31.77 85.66 26.21 92.32 0.6 93.45 0.9 86.58 27.32 86.16 27.35 5.87 32.94"/></g><path class="cls-5" d="M20.84,16l.73,8.59-1.68.14-1-11.86,2.34-.2,2.52,6.93-.6-7.1,1.66-.14,1,11.86-1.91.16Z"/><path class="cls-5" d="M28.43,17.13,31,16.91l.14,1.69-2.56.22.29,3.47L32.08,22l.14,1.69-5.08.43-1-11.86,5.08-.43.14,1.69-3.22.27Z"/><path class="cls-5" d="M37,16.95l-.14,6.38-2.56.22L31.95,11.8l1.81-.15,1.79,9.26.11-9.43,1.8-.15,1.73,9.34.17-9.5L41,11l-.32,12-2.47.21Z"/><path class="cls-5" d="M44.62,13.59c-.16-1.91.75-3.07,2.58-3.22s2.92.83,3.08,2.74l.52,6.17c.16,1.91-.75,3.07-2.58,3.22s-2.92-.83-3.08-2.74ZM47,19.71c.07.86.47,1.14,1.06,1.09s.94-.39.87-1.25l-.54-6.4c-.07-.86-.47-1.14-1.06-1.09s-.94.39-.87,1.25Z"/><path class="cls-5" d="M53.55,15.27l2.4-.2.14,1.69-2.4.2.41,4.9L52.25,22l-1-11.86,4.93-.42.14,1.69-3.07.26Z"/><path class="cls-5" d="M59.38,14.78l2.4-.2.14,1.69-2.4.2.42,4.9-1.86.16-1-11.86L62,9.25l.14,1.69-3.07.26Z"/><path class="cls-5" d="M65.18,14l2.56-.22.14,1.69-2.56.22.29,3.47,3.22-.27L69,20.6,63.9,21l-1-11.86L68,8.74l.14,1.69-3.22.27Z"/><path class="cls-5" d="M74,20.17c0-.08-.06-.15-.09-.22a1.81,1.81,0,0,1-.14-.64c0-.15,0-.35-.07-.59l-.16-1.86c-.09-1.1-.48-1.48-1.35-1.4l-.64.05L72,20.34l-1.86.16-1-11.86,2.81-.24c1.95-.17,2.84.66,3,2.49l.08.93a2.4,2.4,0,0,1-1,2.51c1,.31,1.35,1.18,1.45,2.42l.16,1.83A3.49,3.49,0,0,0,75.93,20Zm-2.89-10,.31,3.64.73-.06c.69-.06,1.09-.4,1-1.35l-.1-1.17C73,10.38,72.7,10,72,10.1Z"/></g></g></svg>