<svg xmlns="http://www.w3.org/2000/svg" viewBox="0 0 365.67 15.71"><defs><style>.cls-1{fill:#939393;}.cls-2{fill:none;stroke:#939393;stroke-miterlimit:10;}</style></defs><title>or-marker</title><g id="Layer_2" data-name="Layer 2"><g id="Layer_1-2" data-name="Layer 1"><path class="cls-1" d="M171.24,7.63a8.82,8.82,0,0,1,.85-3.93A6.33,6.33,0,0,1,178,0a6.25,6.25,0,0,1,4.9,2.12,8.19,8.19,0,0,1,1.88,5.62v.35a9.06,9.06,0,0,1-.85,4,6.39,6.39,0,0,1-2.39,2.71,6.59,6.59,0,0,1-3.51,1,6.27,6.27,0,0,1-4.9-2.12A8.17,8.17,0,0,1,171.24,8Zm1.68.46a6.86,6.86,0,0,0,1.41,4.46,4.74,4.74,0,0,0,7.36,0A7.08,7.08,0,0,0,183.1,8V7.63a7.85,7.85,0,0,0-.64-3.18,5.24,5.24,0,0,0-1.81-2.23A4.6,4.6,0,0,0,178,1.43a4.47,4.47,0,0,0-3.66,1.76,7.12,7.12,0,0,0-1.41,4.6Z"/><path class="cls-1" d="M195.22,1.71a5.8,5.8,0,0,0-1.13-.1,4,4,0,0,0-2.65.88A4.75,4.75,0,0,0,189.89,5v10.4h-1.67V.28h1.64l0,2.41A4.46,4.46,0,0,1,194.16,0a2.79,2.79,0,0,1,1.11.18Z"/><line class="cls-2" y1="5.73" x2="140.16" y2="5.73"/><line class="cls-2" x1="225.51" y1="5.73" x2="365.67" y2="5.73"/></g></g></svg>