<?xml version="1.0" encoding="utf-8"?>
<!-- Generator: Adobe Illustrator 16.0.0, SVG Export Plug-In . SVG Version: 6.00 Build 0)  -->
<!DOCTYPE svg PUBLIC "-//W3C//DTD SVG 1.1//EN" "http://www.w3.org/Graphics/SVG/1.1/DTD/svg11.dtd">
<svg version="1.1" id="Layer_1" xmlns="http://www.w3.org/2000/svg" xmlns:xlink="http://www.w3.org/1999/xlink" x="0px" y="0px"
	 width="116.441px" height="99.666px" viewBox="0 0 116.441 99.666" enable-background="new 0 0 116.441 99.666"
	 xml:space="preserve">
<g>
	<g>
		<path fill="#253B80" d="M20.577,67.795h-7.704c-0.527,0-0.976,0.383-1.058,0.904L8.699,88.457
			c-0.063,0.389,0.239,0.742,0.634,0.742h3.68c0.527,0,0.976-0.385,1.058-0.904l0.842-5.332c0.08-0.52,0.53-0.904,1.057-0.904h2.438
			c5.075,0,8.004-2.455,8.771-7.322c0.344-2.129,0.014-3.803-0.984-4.973C25.1,68.477,23.156,67.795,20.577,67.795z M21.468,75.012
			c-0.423,2.766-2.534,2.766-4.577,2.766h-1.162l0.814-5.164c0.049-0.313,0.319-0.543,0.635-0.543h0.533
			c1.391,0,2.704,0,3.382,0.793C21.498,73.338,21.621,74.041,21.468,75.012z"/>
		<path fill="#253B80" d="M43.609,74.922h-3.69c-0.314,0-0.584,0.23-0.633,0.543l-0.164,1.031l-0.259-0.373
			c-0.799-1.16-2.579-1.547-4.356-1.547c-4.077,0-7.562,3.086-8.238,7.42c-0.353,2.16,0.149,4.227,1.375,5.668
			c1.124,1.324,2.732,1.877,4.648,1.877c3.283,0,5.106-2.113,5.106-2.113l-0.166,1.025c-0.062,0.393,0.241,0.744,0.635,0.744h3.322
			c0.528,0,0.975-0.385,1.059-0.906l1.994-12.627C44.306,75.275,44.004,74.922,43.609,74.922z M38.467,82.104
			c-0.356,2.107-2.029,3.523-4.163,3.523c-1.071,0-1.927-0.344-2.478-0.994c-0.546-0.648-0.752-1.568-0.579-2.594
			c0.333-2.09,2.034-3.551,4.136-3.551c1.047,0,1.898,0.348,2.46,1.004C38.405,80.156,38.628,81.082,38.467,82.104z"/>
		<path fill="#253B80" d="M63.26,74.922h-3.708c-0.353,0-0.687,0.176-0.887,0.471l-5.113,7.533l-2.168-7.24
			c-0.137-0.451-0.555-0.764-1.027-0.764h-3.643c-0.444,0-0.751,0.434-0.609,0.85l4.083,11.986l-3.84,5.418
			c-0.302,0.428,0.002,1.014,0.523,1.014h3.705c0.35,0,0.68-0.17,0.879-0.459L63.787,75.93
			C64.083,75.504,63.778,74.922,63.26,74.922z"/>
		<path fill="#179BD7" d="M75.535,67.795H67.83c-0.526,0-0.975,0.383-1.057,0.904l-3.116,19.758
			c-0.063,0.389,0.239,0.742,0.632,0.742h3.955c0.366,0,0.682-0.27,0.739-0.635l0.884-5.602c0.082-0.52,0.531-0.904,1.057-0.904
			h2.438c5.076,0,8.005-2.455,8.771-7.322c0.346-2.129,0.014-3.803-0.983-4.973C80.056,68.477,78.114,67.795,75.535,67.795z
			 M76.424,75.012c-0.419,2.766-2.531,2.766-4.576,2.766h-1.162l0.818-5.164c0.049-0.313,0.315-0.543,0.633-0.543h0.534
			c1.39,0,2.702,0,3.381,0.793C76.456,73.338,76.578,74.041,76.424,75.012z"/>
		<path fill="#179BD7" d="M98.565,74.922h-3.687c-0.316,0-0.586,0.23-0.633,0.543l-0.164,1.031l-0.258-0.373
			c-0.8-1.16-2.58-1.547-4.357-1.547c-4.077,0-7.558,3.086-8.237,7.42c-0.351,2.16,0.148,4.227,1.374,5.668
			c1.127,1.324,2.732,1.877,4.648,1.877c3.285,0,5.105-2.113,5.105-2.113l-0.164,1.025c-0.063,0.393,0.24,0.744,0.635,0.744h3.322
			c0.526,0,0.974-0.385,1.058-0.906l1.995-12.627C99.264,75.275,98.961,74.922,98.565,74.922z M93.424,82.104
			c-0.355,2.107-2.029,3.523-4.164,3.523c-1.069,0-1.928-0.344-2.477-0.994c-0.545-0.648-0.751-1.568-0.58-2.594
			c0.335-2.09,2.033-3.551,4.135-3.551c1.048,0,1.899,0.348,2.461,1.004C93.364,80.156,93.586,81.082,93.424,82.104z"/>
		<path fill="#179BD7" d="M102.916,68.338l-3.162,20.119c-0.062,0.389,0.239,0.742,0.633,0.742h3.18
			c0.528,0,0.976-0.385,1.057-0.904l3.119-19.758c0.062-0.391-0.239-0.742-0.632-0.742h-3.561
			C103.235,67.795,102.965,68.025,102.916,68.338z"/>
	</g>
	<g>
		<path fill="#253B80" d="M48.111,58.844l0.958-6.082l-2.132-0.051H36.753L43.83,7.84c0.023-0.135,0.095-0.26,0.199-0.35
			c0.104-0.092,0.236-0.141,0.377-0.141h17.17c5.699,0,9.633,1.188,11.688,3.529c0.964,1.098,1.577,2.244,1.873,3.508
			c0.311,1.324,0.317,2.908,0.013,4.84l-0.024,0.141v1.238l0.964,0.545c0.812,0.43,1.458,0.922,1.951,1.486
			c0.822,0.939,1.354,2.133,1.58,3.547c0.232,1.455,0.157,3.188-0.226,5.148c-0.438,2.254-1.147,4.219-2.108,5.828
			c-0.88,1.479-2.007,2.707-3.34,3.66c-1.272,0.902-2.788,1.59-4.5,2.029c-1.656,0.432-3.549,0.648-5.622,0.648h-1.336
			c-0.955,0-1.885,0.346-2.614,0.963c-0.729,0.629-1.212,1.49-1.36,2.432l-0.103,0.547l-1.69,10.717l-0.077,0.393
			c-0.02,0.127-0.055,0.188-0.105,0.23c-0.046,0.039-0.11,0.064-0.176,0.064H48.111z"/>
		<path fill="#179BD7" d="M77.001,19.51L77.001,19.51L77.001,19.51c-0.052,0.328-0.109,0.664-0.175,1.008
			c-2.266,11.625-10.014,15.641-19.905,15.641h-5.037c-1.21,0-2.231,0.879-2.419,2.074l0,0l0,0l-2.58,16.355l-0.729,4.637
			c-0.124,0.783,0.48,1.49,1.272,1.49h8.934c1.059,0,1.956-0.768,2.124-1.811l0.086-0.453l1.684-10.678l0.108-0.586
			c0.163-1.047,1.065-1.814,2.124-1.814h1.336c8.655,0,15.432-3.516,17.412-13.686c0.829-4.25,0.4-7.797-1.789-10.291
			C78.783,20.645,77.963,20.02,77.001,19.51z"/>
		<path fill="#222D65" d="M74.633,18.564c-0.347-0.1-0.703-0.191-1.069-0.273c-0.368-0.08-0.744-0.15-1.134-0.215
			c-1.358-0.219-2.846-0.324-4.44-0.324H54.533c-0.333,0-0.648,0.076-0.931,0.213c-0.62,0.297-1.081,0.885-1.193,1.604
			l-2.862,18.135l-0.082,0.529c0.188-1.195,1.209-2.074,2.419-2.074h5.037c9.892,0,17.64-4.018,19.905-15.641
			c0.065-0.344,0.123-0.68,0.175-1.008c-0.573-0.303-1.192-0.563-1.86-0.785C74.977,18.67,74.805,18.617,74.633,18.564z"/>
		<path fill="#253B80" d="M52.409,19.568c0.112-0.719,0.573-1.307,1.193-1.604c0.284-0.135,0.598-0.209,0.931-0.209h13.456
			c1.595,0,3.082,0.104,4.44,0.322c0.39,0.063,0.766,0.135,1.134,0.215c0.366,0.082,0.723,0.174,1.069,0.275
			c0.172,0.051,0.344,0.104,0.51,0.156c0.666,0.223,1.288,0.484,1.86,0.785c0.674-4.297-0.005-7.221-2.327-9.869
			c-2.563-2.916-7.184-4.164-13.099-4.164H44.408c-1.209,0-2.238,0.877-2.426,2.072L34.83,52.885
			c-0.14,0.896,0.551,1.703,1.454,1.703h10.601l2.662-16.885L52.409,19.568z"/>
	</g>
</g>
</svg>
