<svg xmlns="http://www.w3.org/2000/svg" viewBox="0 0 86.81 24.22"><defs><style>.cls-1{fill:#b3cb35;}.cls-2{fill:#8cab3c;}.cls-3{fill:#8bc349;}.cls-4{fill:#fff;}</style></defs><title>popularity-rank-element</title><g id="Layer_2" data-name="Layer 2"><g id="Layer_1_copy" data-name="Layer 1 copy"><polygon class="cls-1" points="30.37 2.01 5.48 0 5.48 17.22 30.37 14.34 30.37 2.01"/><polygon class="cls-2" points="30.37 2.01 0 6.9 0 20.93 30.37 14.34 30.37 2.01"/><polygon class="cls-3" points="0 20.96 86.81 24.22 86.81 4.07 0 6.96 0 20.96"/><path class="cls-4" d="M11,10.88c1.11,0,1.64.6,1.64,1.73v.91c0,1.13-.53,1.73-1.64,1.73h-.52v2.63H9.4v-7Zm-.52,1v2.37H11c.35,0,.54-.15.54-.66v-1c0-.51-.19-.66-.54-.66Z"/><path class="cls-4" d="M13.08,12.56a1.55,1.55,0,0,1,1.67-1.76,1.55,1.55,0,0,1,1.67,1.76v3.64A1.55,1.55,0,0,1,14.74,18a1.55,1.55,0,0,1-1.67-1.76Zm1.1,3.71c0,.51.22.69.57.69s.57-.18.57-.69V12.49c0-.51-.22-.69-.57-.69s-.57.18-.57.69Z"/><path class="cls-4" d="M18.74,10.88c1.11,0,1.64.6,1.64,1.73v.91c0,1.13-.53,1.73-1.64,1.73h-.52v2.63h-1.1v-7Zm-.52,1v2.37h.52c.35,0,.54-.15.54-.66v-1c0-.51-.19-.66-.54-.66Z"/><path class="cls-4" d="M21.94,10.88v5.4c0,.51.22.68.57.68s.57-.17.57-.68v-5.4h1V16.2c0,1.13-.56,1.76-1.64,1.76s-1.64-.63-1.64-1.76V10.88Z"/><path class="cls-4" d="M24.87,10.88H26v6h1.81v1H24.87Z"/><path class="cls-4" d="M31.82,17.87H30.71l-.19-1.27H29.17L29,17.87H28l1.12-7H30.7Zm-2.51-2.22h1.06l-.53-3.54Z"/><path class="cls-4" d="M34.63,17.87s0-.09,0-.13a1.07,1.07,0,0,1,0-.38c0-.09,0-.21,0-.35v-1.1c0-.65-.21-.89-.72-.89h-.38v2.85h-1.1v-7H34c1.15,0,1.63.53,1.63,1.61V13a1.41,1.41,0,0,1-.72,1.42c.56.23.73.76.73,1.49V17a2.07,2.07,0,0,0,.12.85Zm-1.2-6V14h.43c.41,0,.66-.18.66-.74V12.6c0-.51-.17-.72-.56-.72Z"/><path class="cls-4" d="M36.35,10.88h1.1v7h-1.1Z"/><path class="cls-4" d="M37.93,10.88h3.4v1H40.18v6h-1.1v-6H37.93Z"/><path class="cls-4" d="M42.84,15.56l-1.39-4.68H42.6l.84,3.19.84-3.19h1l-1.39,4.68v2.32h-1.1Z"/><path class="cls-4" d="M49.62,17.87s0-.09,0-.13a1.07,1.07,0,0,1,0-.38c0-.09,0-.21,0-.35v-1.1c0-.65-.21-.89-.72-.89h-.38v2.85h-1.1v-7H49c1.15,0,1.63.53,1.63,1.61V13a1.41,1.41,0,0,1-.72,1.42c.56.23.73.76.73,1.49V17a2.07,2.07,0,0,0,.12.85Zm-1.2-6V14h.43c.41,0,.66-.18.66-.74V12.6c0-.51-.17-.72-.56-.72Z"/><path class="cls-4" d="M54.9,17.87H53.79L53.6,16.6H52.25l-.19,1.27h-1l1.12-7h1.61Zm-2.51-2.22h1.06l-.53-3.54Z"/><path class="cls-4" d="M56.39,12.81v5.07h-1v-7h1.38l1.13,4.19V10.88h1v7H57.76Z"/><path class="cls-4" d="M61.12,15.09l-.34.64v2.15h-1.1v-7h1.1v3l1.44-3h1.1L61.79,14l1.53,3.88H62.19Z"/><path class="cls-4" d="M66.43,12v1.06H65.37V12Zm0,3.81v1.06H65.37V15.81Z"/></g></g></svg>