<svg xmlns="http://www.w3.org/2000/svg" viewBox="0 0 11.01 10.87"><defs><style>.cls-1{fill:#a1cd3a;}.cls-1,.cls-2{stroke:#fff;stroke-miterlimit:10;}.cls-2{fill:#8dc63f;}</style></defs><title>qa-primary-chip</title><g id="Layer_2" data-name="Layer 2"><g id="Layer_1_copy" data-name="Layer 1 copy"><path class="cls-1" d="M2.08,7.57h4A1.57,1.57,0,0,0,7.68,6v-4A1.57,1.57,0,0,0,6.1.5h-4A1.57,1.57,0,0,0,.5,2.06V6A1.57,1.57,0,0,0,2.08,7.57Z"/><path class="cls-2" d="M4.91,10.37h4a1.57,1.57,0,0,0,1.58-1.56v-4A1.57,1.57,0,0,0,8.93,3.29h-4A1.57,1.57,0,0,0,3.33,4.85v4A1.57,1.57,0,0,0,4.91,10.37Z"/></g></g></svg>