<?xml version="1.0" encoding="utf-8"?>
<!-- Generator: Adobe Illustrator 16.0.0, SVG Export Plug-In . SVG Version: 6.00 Build 0)  -->
<!DOCTYPE svg PUBLIC "-//W3C//DTD SVG 1.1//EN" "http://www.w3.org/Graphics/SVG/1.1/DTD/svg11.dtd">
<svg version="1.1" id="Layer_1" xmlns="http://www.w3.org/2000/svg" xmlns:xlink="http://www.w3.org/1999/xlink" x="0px" y="0px"
	 width="1336.916px" height="768.916px" viewBox="0 0 1336.916 768.916" enable-background="new 0 0 1336.916 768.916"
	 xml:space="preserve">
<g>
	<g enable-background="new    ">
		<path fill="#8BC34A" d="M279.783,30.453c5.793,0,9.346,1.585,12.626,4.045l-2.842,5.192c-2.788-1.749-5.247-2.842-9.784-2.842
			c-3.717,0-6.286,2.404-6.286,6.777v13.555c0,4.318,2.077,6.668,5.685,6.668c2.678,0,5.192-1.366,6.668-3.279v-5.849h-7.16v-6.176
			h14.484v21.48h-5.411l-1.093-3.498c-2.295,2.24-5.629,3.717-8.963,3.717c-7.543,0-11.587-4.646-11.587-12.298V42.915
			C266.119,35.318,271.803,30.453,279.783,30.453z"/>
		<path fill="#8BC34A" d="M310.887,70.025c-7.379,0-11.915-4.373-11.915-11.533v-6.395c0-7.215,4.536-11.587,11.915-11.587
			c7.324,0,11.86,4.372,11.86,11.587v5.411h-16.725v0.765c0,4.045,1.803,5.794,4.974,5.794c3.334,0,5.684-0.983,8.308-2.405
			l2.624,4.865C318.921,68.604,315.478,70.025,310.887,70.025z M315.751,52.754v-0.438c0-3.881-1.585-5.849-4.864-5.849
			c-3.17,0-4.974,1.858-4.974,5.849v0.438H315.751z"/>
		<path fill="#8BC34A" d="M328.981,46.687h-2.733v-5.63h3.061l1.257-5.411h5.466v5.411h7.488v5.63h-7.488l-0.055,12.735
			c0,3.443,0.765,4.755,3.662,4.755c0.984,0,2.405-0.164,3.279-0.383l1.039,5.521c-1.53,0.438-3.99,0.766-5.685,0.766
			c-6.996,0-9.292-2.897-9.292-10.112V46.687z"/>
		<path fill="#8BC34A" d="M367.134,57.563v11.915h-7.324v-38.26h14.484c7.761,0,12.243,4.81,12.243,12.462v1.421
			c0,7.598-4.482,12.462-12.243,12.462H367.134z M367.134,51.06h6.723c3.443,0,5.302-2.241,5.302-6.669
			c0-4.427-1.858-6.668-5.302-6.668h-6.723V51.06z"/>
		<path fill="#8BC34A" d="M414.579,69.479h-5.903l-0.382-2.678c-1.64,1.857-4.81,3.225-7.925,3.225
			c-5.466,0-9.347-2.515-9.347-8.199c0-6.066,3.717-8.308,10.276-8.308c2.077,0,4.208,0.273,6.285,0.766v-2.897
			c0-3.662-1.749-4.81-5.192-4.81c-3.389,0-5.684,0.82-7.707,1.858l-2.131-4.974c2.624-1.476,6.559-2.951,11.15-2.951
			c7.378,0,10.931,3.661,10.876,10.494V69.479z M401.953,64.56c2.405,0,4.427-1.312,5.629-3.115V58.82
			c-1.803-0.438-3.552-0.602-5.356-0.602c-2.678,0-4.1,0.602-4.1,3.171C398.127,63.739,399.603,64.56,401.953,64.56z"/>
		<path fill="#8BC34A" d="M424.475,37.121c-2.514,0-4.318-1.257-4.318-3.935c0-2.733,1.804-4.1,4.318-4.1
			c2.459,0,4.373,1.366,4.373,4.1C428.847,35.864,426.934,37.121,424.475,37.121z M428.027,41.057v28.422h-7.051l0.055-28.422
			H428.027z"/>
		<path fill="#8BC34A" d="M451.75,67.073c-1.913,1.749-4.536,2.952-7.707,2.952c-6.395,0-9.729-4.373-9.729-11.533v-6.941
			c0-7.215,3.225-11.04,9.511-11.04c2.35,0,4.646,0.327,6.941,1.312V28.485h7.051v40.993h-5.739L451.75,67.073z M450.766,47.834
			c-1.749-0.819-3.553-1.093-5.356-1.093c-2.678,0-4.154,1.64-4.154,5.356v5.794c0,3.989,1.093,6.066,4.264,6.066
			c2.459,0,4.263-1.093,5.247-2.896V47.834z"/>
		<path fill="#8BC34A" d="M473.562,41.057h7.434l6.012,19.567l5.903-19.567h7.379l-10.222,28.422h-6.34L473.562,41.057z"/>
		<path fill="#8BC34A" d="M507.178,37.121c-2.514,0-4.317-1.257-4.317-3.935c0-2.733,1.804-4.1,4.317-4.1
			c2.46,0,4.373,1.366,4.373,4.1C511.551,35.864,509.638,37.121,507.178,37.121z M510.731,41.057v28.422h-7.051l0.055-28.422
			H510.731z"/>
		<path fill="#8BC34A" d="M539.7,69.479h-5.902l-0.383-2.678c-1.64,1.857-4.81,3.225-7.926,3.225c-5.466,0-9.346-2.515-9.346-8.199
			c0-6.066,3.717-8.308,10.275-8.308c2.077,0,4.208,0.273,6.285,0.766v-2.897c0-3.662-1.749-4.81-5.192-4.81
			c-3.389,0-5.685,0.82-7.706,1.858l-2.132-4.974c2.623-1.476,6.559-2.951,11.149-2.951c7.379,0,10.932,3.661,10.877,10.494V69.479z
			 M527.074,64.56c2.405,0,4.428-1.312,5.63-3.115V58.82c-1.804-0.438-3.553-0.602-5.356-0.602c-2.678,0-4.099,0.602-4.099,3.171
			C523.249,63.739,524.724,64.56,527.074,64.56z"/>
		<path fill="#8BC34A" d="M565.72,57.563v11.915h-7.324v-38.26h14.484c7.762,0,12.243,4.81,12.243,12.462v1.421
			c0,7.598-4.481,12.462-12.243,12.462H565.72z M565.72,51.06h6.723c3.443,0,5.302-2.241,5.302-6.669
			c0-4.427-1.858-6.668-5.302-6.668h-6.723V51.06z"/>
		<path fill="#8BC34A" d="M613.166,69.479h-5.902l-0.383-2.678c-1.64,1.857-4.81,3.225-7.926,3.225
			c-5.465,0-9.346-2.515-9.346-8.199c0-6.066,3.717-8.308,10.275-8.308c2.077,0,4.208,0.273,6.285,0.766v-2.897
			c0-3.662-1.749-4.81-5.192-4.81c-3.389,0-5.685,0.82-7.706,1.858l-2.132-4.974c2.623-1.476,6.559-2.951,11.149-2.951
			c7.379,0,10.932,3.661,10.877,10.494V69.479z M600.54,64.56c2.405,0,4.428-1.312,5.63-3.115V58.82
			c-1.804-0.438-3.553-0.602-5.356-0.602c-2.678,0-4.099,0.602-4.099,3.171C596.714,63.739,598.19,64.56,600.54,64.56z"/>
		<path fill="#8BC34A" d="M626.341,68.003l-9.838-26.946h7.434l6.012,18.803l5.903-18.803h7.379l-9.019,24.377h0.055l-4.482,12.298
			l-7.324-0.055L626.341,68.003z"/>
		<path fill="#8BC34A" d="M653.836,57.563v11.915h-7.324v-38.26h14.484c7.761,0,12.243,4.81,12.243,12.462v1.421
			c0,7.598-4.482,12.462-12.243,12.462H653.836z M653.836,51.06h6.723c3.443,0,5.302-2.241,5.302-6.669
			c0-4.427-1.858-6.668-5.302-6.668h-6.723V51.06z"/>
		<path fill="#8BC34A" d="M701.282,69.479h-5.902l-0.383-2.678c-1.641,1.857-4.811,3.225-7.926,3.225
			c-5.467,0-9.346-2.515-9.346-8.199c0-6.066,3.717-8.308,10.275-8.308c2.076,0,4.207,0.273,6.285,0.766v-2.897
			c0-3.662-1.75-4.81-5.193-4.81c-3.389,0-5.684,0.82-7.705,1.858l-2.133-4.974c2.623-1.476,6.559-2.951,11.15-2.951
			c7.379,0,10.932,3.661,10.877,10.494V69.479z M688.655,64.56c2.406,0,4.428-1.312,5.631-3.115V58.82
			c-1.805-0.438-3.553-0.602-5.357-0.602c-2.678,0-4.098,0.602-4.098,3.171C684.831,63.739,686.306,64.56,688.655,64.56z"/>
		<path fill="#8BC34A" d="M707.733,69.479V28.485h6.996v40.993H707.733z"/>
		<path fill="#8BC34A" d="M718.886,72.156c1.094-0.601,2.24-1.53,2.459-2.732c-1.092-0.656-1.748-1.913-1.748-3.279
			c0-2.733,1.912-3.99,4.264-3.99c2.459,0,4.371,1.312,4.371,3.99c0,3.061-1.857,7.324-7.869,9.019L718.886,72.156z"/>
		<path fill="#8BC34A" d="M760.317,69.479H745.45v-38.26h13.992c7.926,0,11.643,3.279,11.643,10.166v1.257
			c0,2.187-1.313,5.356-3.771,6.832c2.623,0.875,4.918,4.209,4.918,7.762v2.241C772.231,65.215,768.515,69.479,760.317,69.479z
			 M760.099,46.96c2.131,0,3.607-1.476,3.607-4.537v-0.327c-0.055-3.553-1.422-4.482-4.592-4.482h-6.34v9.347H760.099z
			 M759.06,63.139c3.662-0.055,5.793-1.749,5.793-4.154v-1.913c0-2.678-1.475-4.317-4.045-4.317h-8.033v10.385H759.06z"/>
		<path fill="#8BC34A" d="M800.056,69.479h-5.902l-0.383-2.678c-1.641,1.857-4.811,3.225-7.926,3.225
			c-5.467,0-9.346-2.515-9.346-8.199c0-6.066,3.717-8.308,10.275-8.308c2.076,0,4.207,0.273,6.285,0.766v-2.897
			c0-3.662-1.75-4.81-5.193-4.81c-3.389,0-5.684,0.82-7.705,1.858l-2.133-4.974c2.623-1.476,6.559-2.951,11.15-2.951
			c7.379,0,10.932,3.661,10.877,10.494V69.479z M787.429,64.56c2.406,0,4.428-1.312,5.631-3.115V58.82
			c-1.805-0.438-3.553-0.602-5.357-0.602c-2.678,0-4.098,0.602-4.098,3.171C783.604,63.739,785.079,64.56,787.429,64.56z"/>
		<path fill="#8BC34A" d="M806.509,41.057h6.066l0.602,2.679c1.748-1.804,4.701-3.225,7.434-3.225c6.613,0,9.127,3.825,9.127,10.385
			v18.583h-6.996V51.605c0-3.334-0.984-4.864-3.99-4.864c-1.967,0-3.99,1.366-5.246,2.951v19.786h-7.051L806.509,41.057z"/>
		<path fill="#8BC34A" d="M848.815,63.958l-3.006-5.575l-2.623,3.116v7.979h-6.996V28.485h6.996v23.229l9.236-10.658h8.418
			l-10.275,11.807l5.355,9.51c1.367,2.46,3.607,2.187,5.248,1.749l-0.055,5.521C854.827,70.571,851.931,69.916,848.815,63.958z"/>
		<path fill="#8BC34A" d="M883.362,37.668h-9.564v-6.449h26.563v6.449h-9.619v31.811h-7.379V37.668z"/>
		<path fill="#8BC34A" d="M902.386,41.057h6.068l0.654,3.17c1.859-2.076,5.193-3.716,8.09-3.716l0.547,6.395
			c-3.279,0-6.34,1.312-8.363,3.334v19.239h-7.051L902.386,41.057z"/>
		<path fill="#8BC34A" d="M942.616,69.479h-5.902l-0.383-2.678c-1.641,1.857-4.811,3.225-7.926,3.225
			c-5.467,0-9.346-2.515-9.346-8.199c0-6.066,3.717-8.308,10.275-8.308c2.076,0,4.207,0.273,6.285,0.766v-2.897
			c0-3.662-1.75-4.81-5.193-4.81c-3.389,0-5.684,0.82-7.705,1.858l-2.133-4.974c2.623-1.476,6.559-2.951,11.15-2.951
			c7.379,0,10.932,3.661,10.877,10.494V69.479z M929.989,64.56c2.406,0,4.428-1.312,5.631-3.115V58.82
			c-1.805-0.438-3.553-0.602-5.357-0.602c-2.678,0-4.098,0.602-4.098,3.171C926.165,63.739,927.64,64.56,929.989,64.56z"/>
		<path fill="#8BC34A" d="M949.069,41.057h6.066l0.602,2.679c1.748-1.804,4.701-3.225,7.434-3.225c6.613,0,9.127,3.825,9.127,10.385
			v18.583h-6.996V51.605c0-3.334-0.984-4.864-3.99-4.864c-1.967,0-3.99,1.366-5.246,2.951v19.786h-7.051L949.069,41.057z"/>
		<path fill="#8BC34A" d="M988.534,64.396c3.115,0,4.92-1.093,4.92-2.896c0-2.46-2.188-2.843-6.287-3.607
			c-4.262-0.766-8.689-1.968-8.689-8.909c0-5.083,3.389-8.472,10.768-8.472c4.537,0,7.543,1.257,10.658,3.443l-2.461,4.591
			c-2.678-1.476-4.809-2.405-7.979-2.405c-2.842,0-3.936,1.039-3.936,2.679c0,2.404,1.967,2.678,5.52,3.279
			c4.428,0.819,9.402,1.858,9.402,9.128c0,5.247-4.154,8.8-11.533,8.8c-4.592,0-8.363-1.367-11.369-3.389l2.459-4.865
			C982.632,63.303,985.2,64.396,988.534,64.396z"/>
		<path fill="#8BC34A" d="M1005.644,46.687h-2.842v-5.63h2.842v-3.061c0-6.777,3.553-9.838,10.166-9.838
			c1.859,0,3.826,0.327,5.303,0.819l-1.094,5.411c-0.875-0.219-2.24-0.328-3.225-0.328c-2.951,0-4.1,1.366-4.1,4.154v2.842h6.887
			v5.63h-6.887v22.792h-7.051V46.687z"/>
		<path fill="#8BC34A" d="M1034.888,70.025c-7.379,0-11.916-4.373-11.916-11.533v-6.395c0-7.215,4.537-11.587,11.916-11.587
			c7.324,0,11.861,4.372,11.861,11.587v5.411h-16.727v0.765c0,4.045,1.805,5.794,4.975,5.794c3.334,0,5.684-0.983,8.309-2.405
			l2.623,4.865C1042.923,68.604,1039.479,70.025,1034.888,70.025z M1039.753,52.754v-0.438c0-3.881-1.586-5.849-4.865-5.849
			c-3.17,0-4.975,1.858-4.975,5.849v0.438H1039.753z"/>
		<path fill="#8BC34A" d="M1052.817,41.057h6.068l0.654,3.17c1.859-2.076,5.193-3.716,8.09-3.716l0.547,6.395
			c-3.279,0-6.34,1.312-8.363,3.334v19.239h-7.051L1052.817,41.057z"/>
	</g>
	<g enable-background="new    ">
		<path fill="#8BC34A" d="M437.566,117.639c0-7.16,4.536-11.532,11.915-11.532c7.324,0,11.86,4.372,11.86,11.532v6.449
			c0.055,7.16-4.536,11.533-11.86,11.533c-7.379,0-11.915-4.373-11.915-11.533V117.639z M444.563,123.487
			c0,3.989,1.749,6.066,4.919,6.066c3.115,0,4.864-2.077,4.864-6.066v-5.247c0-3.99-1.749-6.067-4.864-6.067
			c-3.17,0-4.864,2.077-4.864,6.067L444.563,123.487z"/>
		<path fill="#8BC34A" d="M467.521,106.652h6.067l0.656,3.17c1.858-2.076,5.192-3.716,8.089-3.716l0.547,6.395
			c-3.28,0-6.34,1.312-8.363,3.334v19.239h-7.051L467.521,106.652z"/>
		<path fill="#8BC34A" d="M518.3,126.11c-3.88,0.602-7.816,0.602-11.696,0l-2.569,8.964h-8.089l13.118-38.26h6.723l13.227,38.26
			h-8.035L518.3,126.11z M508.188,120.371c2.842,0.547,5.63,0.547,8.472,0l-4.263-14.702L508.188,120.371z"/>
		<path fill="#8BC34A" d="M569.79,116.218v18.856h-6.996v-18.311c0-3.115-0.601-4.591-3.17-4.591c-2.35,0-4.044,1.694-5.083,3.17
			v19.731h-6.996v-18.201c0-2.951-1.257-4.536-3.279-4.536c-1.913,0-3.717,1.312-4.974,2.951v19.786h-6.996v-28.422h6.067
			l0.602,2.679c1.694-1.804,4.373-3.225,7.16-3.225c3.061,0,5.411,1.312,6.668,3.88c2.295-2.459,5.028-3.88,8.472-3.88
			C566.948,106.106,569.79,109.167,569.79,116.218z"/>
		<path fill="#8BC34A" d="M598.818,135.074h-5.903l-0.382-2.678c-1.64,1.857-4.81,3.225-7.925,3.225
			c-5.466,0-9.347-2.515-9.347-8.199c0-6.066,3.717-8.308,10.276-8.308c2.077,0,4.208,0.273,6.286,0.766v-2.897
			c0-3.662-1.749-4.81-5.193-4.81c-3.389,0-5.684,0.82-7.707,1.858l-2.131-4.974c2.624-1.476,6.559-2.951,11.15-2.951
			c7.379,0,10.931,3.661,10.877,10.494V135.074z M586.192,130.155c2.405,0,4.427-1.312,5.63-3.115v-2.624
			c-1.804-0.438-3.553-0.602-5.356-0.602c-2.678,0-4.1,0.602-4.1,3.171C582.366,129.335,583.842,130.155,586.192,130.155z"/>
		<path fill="#8BC34A" d="M603.685,130.483c6.176-5.192,11.095-10.439,13.773-17.928h-13.5v-5.903h21.48v4.592
			c-2.186,7.433-5.629,12.57-10.713,17.927h11.314v5.903h-22.354V130.483z"/>
		<path fill="#8BC34A" d="M629.268,117.639c0-7.16,4.536-11.532,11.915-11.532c7.324,0,11.86,4.372,11.86,11.532v6.449
			c0.055,7.16-4.536,11.533-11.86,11.533c-7.379,0-11.915-4.373-11.915-11.533V117.639z M636.264,123.487
			c0,3.989,1.749,6.066,4.919,6.066c3.115,0,4.864-2.077,4.864-6.066v-5.247c0-3.99-1.749-6.067-4.864-6.067
			c-3.17,0-4.864,2.077-4.864,6.067L636.264,123.487z"/>
		<path fill="#8BC34A" d="M659.222,106.652h6.067l0.601,2.679c1.749-1.804,4.701-3.225,7.433-3.225
			c6.613,0,9.129,3.825,9.129,10.385v18.583h-6.996v-17.873c0-3.334-0.984-4.864-3.99-4.864c-1.969,0-3.991,1.366-5.248,2.951
			v19.786h-7.051L659.222,106.652z"/>
		<path fill="#8BC34A" d="M714.54,96.049c5.793,0,9.346,1.585,12.625,4.045l-2.842,5.192c-2.787-1.749-5.248-2.842-9.783-2.842
			c-3.717,0-6.287,2.404-6.287,6.777v13.555c0,4.318,2.078,6.668,5.686,6.668c2.678,0,5.191-1.366,6.668-3.279v-5.849h-7.16v-6.176
			h14.484v21.48h-5.412l-1.092-3.498c-2.297,2.24-5.631,3.717-8.965,3.717c-7.543,0-11.588-4.646-11.588-12.298v-15.031
			C700.874,100.914,706.56,96.049,714.54,96.049z"/>
		<path fill="#8BC34A" d="M737.499,102.717c-2.514,0-4.318-1.257-4.318-3.935c0-2.733,1.805-4.1,4.318-4.1
			c2.459,0,4.373,1.366,4.373,4.1C741.872,101.46,739.958,102.717,737.499,102.717z M741.052,106.652v28.422h-7.051l0.055-28.422
			H741.052z"/>
		<path fill="#8BC34A" d="M747.501,112.282h-2.842v-5.63h2.842v-3.061c0-6.777,3.553-9.838,10.166-9.838
			c1.859,0,3.826,0.327,5.303,0.819l-1.094,5.411c-0.875-0.219-2.24-0.328-3.225-0.328c-2.951,0-4.1,1.366-4.1,4.154v2.842h6.887
			v5.63h-6.887v22.792h-7.051V112.282z"/>
		<path fill="#8BC34A" d="M766.798,112.282h-2.732v-5.63h3.061l1.256-5.411h5.467v5.411h7.488v5.63h-7.488l-0.055,12.735
			c0,3.443,0.766,4.755,3.662,4.755c0.982,0,2.404-0.164,3.279-0.383l1.037,5.521c-1.529,0.438-3.988,0.766-5.684,0.766
			c-6.996,0-9.291-2.897-9.291-10.112V112.282z"/>
		<path fill="#8BC34A" d="M810.69,135.84c-7.707,0-13.338-4.865-13.338-12.517v-14.813c0-7.651,5.631-12.462,13.338-12.462
			c4.863,0,7.76,1.367,11.039,3.662l-2.842,5.138c-2.787-1.53-4.59-2.404-8.197-2.404s-5.959,2.568-5.959,6.723v13.5
			c0,4.318,2.406,6.723,5.959,6.723c3.607,0,5.41-0.874,8.197-2.404l2.842,5.192C818.45,134.473,815.554,135.84,810.69,135.84z"/>
		<path fill="#8BC34A" d="M848.952,135.074h-5.902l-0.383-2.678c-1.641,1.857-4.811,3.225-7.926,3.225
			c-5.467,0-9.346-2.515-9.346-8.199c0-6.066,3.717-8.308,10.275-8.308c2.076,0,4.207,0.273,6.285,0.766v-2.897
			c0-3.662-1.75-4.81-5.193-4.81c-3.389,0-5.684,0.82-7.705,1.858l-2.133-4.974c2.623-1.476,6.559-2.951,11.15-2.951
			c7.379,0,10.932,3.661,10.877,10.494V135.074z M836.325,130.155c2.406,0,4.428-1.312,5.631-3.115v-2.624
			c-1.805-0.438-3.553-0.602-5.357-0.602c-2.678,0-4.098,0.602-4.098,3.171C832.501,129.335,833.976,130.155,836.325,130.155z"/>
		<path fill="#8BC34A" d="M855.403,106.652h6.068l0.654,3.17c1.859-2.076,5.193-3.716,8.09-3.716l0.547,6.395
			c-3.279,0-6.34,1.312-8.363,3.334v19.239h-7.051L855.403,106.652z"/>
		<path fill="#8BC34A" d="M890.823,132.669c-1.912,1.749-4.535,2.952-7.705,2.952c-6.396,0-9.73-4.373-9.73-11.533v-6.941
			c0-7.215,3.225-11.04,9.512-11.04c2.35,0,4.645,0.327,6.941,1.312V94.081h7.051v40.993h-5.74L890.823,132.669z M889.841,113.43
			c-1.75-0.819-3.553-1.093-5.357-1.093c-2.678,0-4.154,1.64-4.154,5.356v5.794c0,3.989,1.094,6.066,4.264,6.066
			c2.459,0,4.264-1.093,5.248-2.896V113.43z"/>
	</g>
</g>
<g>
	<g>
		<polygon fill="#B3CB35" points="455.03,727.227 972.631,745.9 933.247,676.516 559.607,670.58 		"/>
		<polygon fill="#8CAB3C" points="1002.957,714.361 455.03,727.227 443.406,697.769 		"/>
		<polygon fill="#8BC34A" points="317.259,592.087 1019.658,592.574 1002.957,714.361 343.917,713.106 		"/>
	</g>
	<g enable-background="new    ">
		<path fill="#FFFFFF" d="M382.384,636.994c0-3.388,1.734-5.177,4.255-5.177c2.005,0,3.252,1.166,3.252,3.523
			c0,3.333-1.816,4.986-4.444,4.986C383.549,640.327,382.384,639.243,382.384,636.994z"/>
		<path fill="#FFFFFF" d="M408.586,638.81c-2.412,0.406-4.796,0.406-7.127,0l-2.764,6.07h-1.843l9.132-18.97h1.761l3.794,18.97
			h-1.843L408.586,638.81z M402.19,637.292c1.978,0.406,4.038,0.406,6.125,0l-1.762-9.458L402.19,637.292z"/>
		<path fill="#FFFFFF" d="M418.339,643.66c2.655,0,3.902-1.544,3.902-3.008c0-1.165-0.786-1.843-2.656-2.141
			c-2.412-0.38-4.606-0.786-4.606-3.496c0-2.466,1.734-4.499,5.257-4.499c2.141,0,3.442,0.732,4.553,1.681l-0.894,1.165
			c-0.976-0.759-2.168-1.354-3.875-1.354c-2.628,0-3.441,1.327-3.441,2.764c0,1.626,1.355,1.925,3.144,2.195
			c2.276,0.353,4.119,0.921,4.119,3.441c0,2.466-2.195,4.743-5.718,4.743c-2.276,0-3.93-0.867-4.824-1.681l0.922-1.165
			C415.087,643.037,416.55,643.66,418.339,643.66z"/>
		<path fill="#FFFFFF" d="M435.11,625.91h10.189l-0.217,1.653h-8.536l-0.949,6.802h7.127l-0.244,1.626h-7.127l-1.03,7.263h8.753
			l-0.217,1.626h-10.406L435.11,625.91z"/>
		<path fill="#FFFFFF" d="M455.541,644.88h-1.166l0.027-1.463c-1.165,0.975-2.683,1.734-4.363,1.734
			c-2.818,0-4.526-0.949-4.526-3.415c0-3.902,2.439-4.661,5.772-4.661c1.273,0,2.493,0.136,3.74,0.434l0.244-1.789
			c0.353-2.655-0.46-3.686-2.899-3.686c-1.789,0-3.577,0.705-4.472,1.247l-0.46-1.273c1.03-0.624,2.927-1.491,5.149-1.491
			c3.279,0,4.797,1.572,4.309,4.797L455.541,644.88z M450.121,643.715c1.734,0,3.306-0.841,4.309-2.006l0.406-2.845
			c-1.328-0.244-2.628-0.38-3.983-0.38c-2.547,0-3.713,0.704-3.713,3.008C447.139,643.173,448.413,643.715,450.121,643.715z"/>
		<path fill="#FFFFFF" d="M464.101,643.66c2.656,0,3.902-1.544,3.902-3.008c0-1.165-0.786-1.843-2.655-2.141
			c-2.412-0.38-4.607-0.786-4.607-3.496c0-2.466,1.734-4.499,5.258-4.499c2.141,0,3.441,0.732,4.553,1.681l-0.895,1.165
			c-0.976-0.759-2.168-1.354-3.875-1.354c-2.629,0-3.442,1.327-3.442,2.764c0,1.626,1.355,1.925,3.144,2.195
			c2.276,0.353,4.119,0.921,4.119,3.441c0,2.466-2.195,4.743-5.718,4.743c-2.276,0-3.929-0.867-4.823-1.681l0.921-1.165
			C460.849,643.037,462.313,643.66,464.101,643.66z"/>
		<path fill="#FFFFFF" d="M475.345,644.582l-3.225-13.794h1.68l2.575,11.707l5.88-11.707h1.653l-6.396,12.385h0.027l-2.927,5.826
			h-1.626L475.345,644.582z"/>
		<path fill="#FFFFFF" d="M500.246,644.88h-1.165l0.027-1.463c-1.166,0.975-2.683,1.734-4.363,1.734
			c-2.818,0-4.525-0.949-4.525-3.415c0-3.902,2.438-4.661,5.772-4.661c1.274,0,2.493,0.136,3.74,0.434l0.244-1.789
			c0.352-2.655-0.461-3.686-2.9-3.686c-1.789,0-3.577,0.705-4.471,1.247l-0.461-1.273c1.03-0.624,2.927-1.491,5.149-1.491
			c3.279,0,4.796,1.572,4.309,4.797L500.246,644.88z M494.826,643.715c1.734,0,3.307-0.841,4.309-2.006l0.407-2.845
			c-1.328-0.244-2.629-0.38-3.984-0.38c-2.547,0-3.712,0.704-3.712,3.008C491.845,643.173,493.119,643.715,494.826,643.715z"/>
		<path fill="#FFFFFF" d="M508.807,643.66c2.655,0,3.902-1.544,3.902-3.008c0-1.165-0.786-1.843-2.656-2.141
			c-2.412-0.38-4.606-0.786-4.606-3.496c0-2.466,1.734-4.499,5.257-4.499c2.141,0,3.442,0.732,4.553,1.681l-0.894,1.165
			c-0.976-0.759-2.168-1.354-3.875-1.354c-2.628,0-3.441,1.327-3.441,2.764c0,1.626,1.355,1.925,3.144,2.195
			c2.276,0.353,4.119,0.921,4.119,3.441c0,2.466-2.195,4.743-5.718,4.743c-2.276,0-3.93-0.867-4.824-1.681l0.922-1.165
			C505.555,643.037,507.018,643.66,508.807,643.66z"/>
		<path fill="#FFFFFF" d="M529.155,643.254l-0.217,1.626h-7.019l0.217-1.626h2.791l2.141-15.148l-2.845,1.788l-0.813-1.328
			l4.2-2.655h1.437l-2.439,17.344H529.155z"/>
		<path fill="#FFFFFF" d="M531.457,635.855h6.965l-0.217,1.599h-6.965L531.457,635.855z"/>
		<path fill="#FFFFFF" d="M546.388,625.53c3.306,0,4.715,1.816,4.715,4.31c0,4.092-3.523,7.263-10.379,13.387h8.97l-0.244,1.653
			h-11.734l0.163-1.246c9.295-8.455,11.436-10.461,11.436-13.496c0-1.626-0.867-2.954-3.144-2.954c-2.114,0-3.387,0.65-4.688,1.518
			l-0.705-1.246C542.323,626.371,544.003,625.53,546.388,625.53z"/>
		<path fill="#FFFFFF" d="M552.943,635.855h6.965l-0.217,1.599h-6.965L552.943,635.855z"/>
		<path fill="#FFFFFF" d="M561.342,643.335l1.029-1.328c1.111,0.841,2.412,1.627,4.526,1.627c3.36,0,4.553-2.061,4.553-4.879
			c0-2.357-1.301-3.197-2.9-3.197h-1.978l0.217-1.572h1.978c2.276,0,3.577-1.842,3.577-3.956c0-1.571-0.84-2.872-3.062-2.872
			c-2.114,0-3.387,0.677-4.688,1.544l-0.705-1.246c1.545-1.084,3.225-1.925,5.61-1.925c3.198,0,4.526,1.789,4.526,4.174
			c0,1.979-1.003,3.767-2.575,4.986c1.247,0.515,2.141,2.574,1.843,4.444l-0.108,0.65c-0.515,3.198-2.547,5.474-6.504,5.474
			C564.296,645.259,562.616,644.392,561.342,643.335z"/>
		<path fill="#FFFFFF" d="M589.52,636.994c0-3.388,1.734-5.177,4.255-5.177c2.005,0,3.252,1.166,3.252,3.523
			c0,3.333-1.815,4.986-4.444,4.986C590.685,640.327,589.52,639.243,589.52,636.994z"/>
		<path fill="#FFFFFF" d="M608.188,625.91h1.653l-2.439,17.344h8.889l-0.217,1.626h-10.542L608.188,625.91z"/>
		<path fill="#FFFFFF" d="M623.388,645.151c-3.279,0-5.041-2.061-4.553-5.502l0.515-3.631c0.488-3.441,2.818-5.502,6.098-5.502
			s5.04,2.061,4.553,5.502l-0.325,2.276h-9.079l-0.135,1.003c-0.38,2.845,0.731,4.362,3.144,4.362c1.788,0,3.414-0.623,4.498-1.354
			l0.597,1.165C627.588,644.284,625.665,645.151,623.388,645.151z M628.32,636.831l0.055-0.461c0.353-2.845-0.759-4.336-3.144-4.336
			c-2.412,0-3.984,1.491-4.336,4.336l-0.055,0.461H628.32z"/>
		<path fill="#FFFFFF" d="M632.22,630.788h1.68l2.493,12.385l5.962-12.385h1.653l-6.992,14.092h-1.761L632.22,630.788z"/>
		<path fill="#FFFFFF" d="M648.912,645.151c-3.279,0-5.041-2.061-4.553-5.502l0.515-3.631c0.488-3.441,2.818-5.502,6.098-5.502
			s5.04,2.061,4.553,5.502l-0.325,2.276h-9.079l-0.135,1.003c-0.38,2.845,0.731,4.362,3.144,4.362c1.788,0,3.414-0.623,4.498-1.354
			l0.597,1.165C653.112,644.284,651.188,645.151,648.912,645.151z M653.843,636.831l0.055-0.461
			c0.353-2.845-0.759-4.336-3.144-4.336c-2.412,0-3.984,1.491-4.336,4.336l-0.055,0.461H653.843z"/>
		<path fill="#FFFFFF" d="M658.123,644.88l2.846-20.324h1.571l-2.846,20.324H658.123z"/>
		<path fill="#FFFFFF" d="M680.45,641.005l2.113-15.095h1.652l-2.654,18.97h-1.465l0.055-1.87c-1.246,1.192-2.98,2.249-5.148,2.249
			c-3.389,0-5.148-1.599-4.635-5.365l1.979-13.983h1.68l-1.924,13.604c-0.406,2.953,0.57,4.173,3.172,4.173
			C677.388,643.688,679.446,642.306,680.45,641.005z"/>
		<path fill="#FFFFFF" d="M688.577,632.577c1.219-1.166,2.818-2.061,4.416-2.061c3.145,0,4.607,1.951,4.119,5.366l-0.541,3.767
			c-0.488,3.441-2.764,5.502-6.07,5.502c-1.436,0-2.547-0.244-3.551-0.624l-0.623,4.417h-1.572l2.549-18.156h1.301L688.577,632.577z
			 M695.487,636.263c0.379-2.737-0.326-4.255-2.736-4.255c-1.627,0-3.416,1.246-4.391,2.385l-1.193,8.536
			c0.977,0.515,2.277,0.705,3.605,0.705c2.412,0,3.875-1.464,4.281-4.31L695.487,636.263z"/>
		<path fill="#FFFFFF" d="M706.864,636.994c0-3.388,1.734-5.177,4.256-5.177c2.004,0,3.252,1.166,3.252,3.523
			c0,3.333-1.816,4.986-4.445,4.986C708.03,640.327,706.864,639.243,706.864,636.994z"/>
		<path fill="#FFFFFF" d="M728.298,643.634c3.17,0,5.094-1.816,5.094-4.282c0-2.168-1.463-3.089-3.768-3.496
			c-2.682-0.46-4.742-1.626-4.742-4.606c0-3.334,2.305-5.719,6.234-5.719c2.357,0,3.793,0.813,5.012,1.87l-1.057,1.274
			c-1.084-0.867-2.303-1.518-4.172-1.518c-2.873,0-4.311,1.599-4.311,3.875c0,2.113,1.301,2.791,3.496,3.197
			c2.467,0.461,5.041,1.464,5.041,4.797c0,3.55-2.656,6.232-7.045,6.232c-2.494,0-4.473-0.894-5.42-1.788l1.002-1.382
			C724.638,642.874,726.347,643.634,728.298,643.634z"/>
		<path fill="#FFFFFF" d="M740.272,624.556h1.572l-1.111,7.912c1.328-1.191,2.711-1.951,4.229-1.951c3.17,0,4.553,1.653,4.064,5.122
			l-1.301,9.241h-1.572l1.246-8.889c0.381-2.764-0.244-4.038-2.629-4.038c-1.625,0-3.305,1.22-4.281,2.358l-1.49,10.568h-1.572
			L740.272,624.556z"/>
		<path fill="#FFFFFF" d="M761.489,644.88h-1.166l0.027-1.463c-1.166,0.975-2.684,1.734-4.363,1.734
			c-2.818,0-4.525-0.949-4.525-3.415c0-3.902,2.439-4.661,5.771-4.661c1.273,0,2.494,0.136,3.74,0.434l0.244-1.789
			c0.352-2.655-0.461-3.686-2.9-3.686c-1.787,0-3.576,0.705-4.471,1.247l-0.461-1.273c1.029-0.624,2.928-1.491,5.148-1.491
			c3.279,0,4.797,1.572,4.309,4.797L761.489,644.88z M756.069,643.715c1.734,0,3.305-0.841,4.309-2.006l0.406-2.845
			c-1.328-0.244-2.629-0.38-3.984-0.38c-2.547,0-3.713,0.704-3.713,3.008C753.087,643.173,754.362,643.715,756.069,643.715z"/>
		<path fill="#FFFFFF" d="M767.503,630.788h1.301l-0.055,1.87c1.355-1.437,2.846-2.142,4.471-2.142l-0.08,1.518
			c-1.762,0-3.416,1.03-4.607,2.548l-1.436,10.298h-1.572L767.503,630.788z"/>
		<path fill="#FFFFFF" d="M777.989,645.151c-3.279,0-5.041-2.061-4.553-5.502l0.514-3.631c0.488-3.441,2.818-5.502,6.098-5.502
			s5.041,2.061,4.553,5.502l-0.324,2.276h-9.078l-0.137,1.003c-0.379,2.845,0.732,4.362,3.145,4.362
			c1.787,0,3.414-0.623,4.498-1.354l0.596,1.165C782.188,644.284,780.265,645.151,777.989,645.151z M782.921,636.831l0.055-0.461
			c0.352-2.845-0.76-4.336-3.145-4.336c-2.412,0-3.982,1.491-4.336,4.336l-0.055,0.461H782.921z"/>
		<path fill="#FFFFFF" d="M793.593,641.573c0-3.252,3.008-5.474,4.986-6.774c-0.975-1.247-2.006-2.71-2.006-4.417
			c0-2.412,1.898-4.852,5.23-4.852c2.955,0,4.066,1.545,4.066,3.469c0,2.981-2.143,4.146-4.906,6.017l3.902,5.257
			c1.084-1.327,1.734-2.926,1.896-3.956l1.6,0.136c-0.299,1.382-1.219,3.55-2.52,5.014l2.059,2.628l-1.408,1.139l-1.844-2.439
			c-1.572,1.437-3.82,2.466-6.043,2.466C795.571,645.259,793.593,644.229,793.593,641.573z M795.3,641.249
			c0,1.815,1.49,2.492,3.469,2.492c1.816,0,3.713-0.867,4.959-2.113l-4.254-5.664C796.872,637.698,795.3,639.298,795.3,641.249z
			 M804.298,629.216c0-1.301-0.705-2.168-2.711-2.168c-2.195,0-3.414,1.274-3.414,3.171c0,1.437,0.977,2.358,1.896,3.632
			C802.157,632.36,804.298,631.438,804.298,629.216z"/>
		<path fill="#FFFFFF" d="M820.255,625.91h1.652l-1.164,8.292h8.617l1.164-8.292h1.654l-2.656,18.97h-1.652l1.273-9.051h-8.617
			l-1.275,9.051h-1.652L820.255,625.91z"/>
		<path fill="#FFFFFF" d="M843.097,644.88h-1.164l0.025-1.463c-1.164,0.975-2.682,1.734-4.361,1.734
			c-2.818,0-4.527-0.949-4.527-3.415c0-3.902,2.439-4.661,5.773-4.661c1.273,0,2.492,0.136,3.74,0.434l0.242-1.789
			c0.354-2.655-0.459-3.686-2.898-3.686c-1.789,0-3.578,0.705-4.473,1.247l-0.459-1.273c1.029-0.624,2.926-1.491,5.148-1.491
			c3.279,0,4.797,1.572,4.309,4.797L843.097,644.88z M837.677,643.715c1.734,0,3.307-0.841,4.309-2.006l0.406-2.845
			c-1.326-0.244-2.627-0.38-3.982-0.38c-2.547,0-3.713,0.704-3.713,3.008C834.696,643.173,835.97,643.715,837.677,643.715z"/>
		<path fill="#FFFFFF" d="M847.267,630.788h1.68l2.494,12.385l5.961-12.385h1.654l-6.992,14.092h-1.762L847.267,630.788z"/>
		<path fill="#FFFFFF" d="M863.958,645.151c-3.279,0-5.041-2.061-4.553-5.502l0.516-3.631c0.488-3.441,2.818-5.502,6.098-5.502
			s5.039,2.061,4.553,5.502l-0.326,2.276h-9.078l-0.135,1.003c-0.381,2.845,0.73,4.362,3.143,4.362c1.789,0,3.414-0.623,4.498-1.354
			l0.598,1.165C868.159,644.284,866.235,645.151,863.958,645.151z M868.89,636.831l0.055-0.461c0.354-2.845-0.758-4.336-3.143-4.336
			c-2.412,0-3.984,1.491-4.336,4.336l-0.055,0.461H868.89z"/>
		<path fill="#FFFFFF" d="M880.919,631.384c0.516-3.631,3.604-5.854,7.072-5.854c3.441,0,5.881,2.223,5.367,5.854l-1.111,8.021
			c-0.516,3.632-3.605,5.854-7.047,5.854c-3.469,0-5.908-2.222-5.393-5.854L880.919,631.384z M881.515,639.026
			c-0.434,3.008,1.41,4.607,3.93,4.607s4.797-1.6,5.203-4.607l1.002-7.263c0.434-3.008-1.381-4.606-3.902-4.606
			c-2.52,0-4.795,1.599-5.229,4.606L881.515,639.026z"/>
		<path fill="#FFFFFF" d="M896.851,632.251h-1.654l0.217-1.463h1.654l0.895-2.683h1.057l-0.379,2.683h4.633l-0.217,1.463h-4.607
			l-1.164,8.104c-0.354,2.547-0.109,3.522,2.086,3.522c0.543,0,1.68-0.081,2.277-0.243l0.107,1.273
			c-0.568,0.162-1.842,0.379-2.465,0.379c-3.09,0-4.094-1.246-3.605-4.688L896.851,632.251z"/>
		<path fill="#FFFFFF" d="M906.739,624.556h1.572l-1.111,7.912c1.328-1.191,2.711-1.951,4.229-1.951c3.17,0,4.553,1.653,4.064,5.122
			l-1.301,9.241h-1.572l1.246-8.889c0.381-2.764-0.244-4.038-2.629-4.038c-1.625,0-3.305,1.22-4.281,2.358l-1.49,10.568h-1.572
			L906.739,624.556z"/>
		<path fill="#FFFFFF" d="M923.296,645.151c-3.279,0-5.041-2.061-4.553-5.502l0.514-3.631c0.488-3.441,2.818-5.502,6.098-5.502
			s5.041,2.061,4.553,5.502l-0.324,2.276h-9.078l-0.137,1.003c-0.379,2.845,0.732,4.362,3.145,4.362
			c1.787,0,3.414-0.623,4.498-1.354l0.596,1.165C927.495,644.284,925.571,645.151,923.296,645.151z M928.228,636.831l0.055-0.461
			c0.352-2.845-0.76-4.336-3.145-4.336c-2.412,0-3.982,1.491-4.336,4.336l-0.055,0.461H928.228z"/>
		<path fill="#FFFFFF" d="M934.483,630.788h1.301l-0.055,1.87c1.355-1.437,2.846-2.142,4.473-2.142l-0.082,1.518
			c-1.762,0-3.414,1.03-4.607,2.548l-1.436,10.298h-1.572L934.483,630.788z"/>
		<path fill="#FFFFFF" d="M944.808,643.66c2.656,0,3.902-1.544,3.902-3.008c0-1.165-0.785-1.843-2.656-2.141
			c-2.412-0.38-4.607-0.786-4.607-3.496c0-2.466,1.734-4.499,5.258-4.499c2.141,0,3.441,0.732,4.553,1.681l-0.895,1.165
			c-0.975-0.759-2.168-1.354-3.875-1.354c-2.629,0-3.441,1.327-3.441,2.764c0,1.626,1.355,1.925,3.145,2.195
			c2.275,0.353,4.119,0.921,4.119,3.441c0,2.466-2.195,4.743-5.719,4.743c-2.277,0-3.93-0.867-4.824-1.681l0.922-1.165
			C941.556,643.037,943.019,643.66,944.808,643.66z"/>
	</g>
	<g enable-background="new    ">
		<path fill="#FFFFFF" d="M461.16,658.424h1.463l4.254,12.357l7.724-12.357h1.518l-2.656,18.97h-1.653l2.195-15.23l-6.911,10.976
			h-1.138l-3.74-10.813l-2.06,15.067h-1.653L461.16,658.424z"/>
		<path fill="#FFFFFF" d="M487.037,677.394h-1.166l0.027-1.463c-1.165,0.975-2.683,1.734-4.363,1.734
			c-2.818,0-4.526-0.949-4.526-3.415c0-3.902,2.439-4.661,5.772-4.661c1.273,0,2.493,0.136,3.74,0.434l0.244-1.789
			c0.353-2.655-0.46-3.686-2.899-3.686c-1.789,0-3.577,0.705-4.472,1.247l-0.46-1.273c1.03-0.624,2.927-1.491,5.149-1.491
			c3.279,0,4.797,1.572,4.309,4.797L487.037,677.394z M481.617,676.229c1.734,0,3.306-0.841,4.309-2.006l0.406-2.845
			c-1.328-0.244-2.628-0.38-3.983-0.38c-2.547,0-3.713,0.704-3.713,3.008C478.635,675.687,479.909,676.229,481.617,676.229z"/>
		<path fill="#FFFFFF" d="M492.806,664.765h-1.653l0.217-1.463h1.653l0.894-2.683h1.057l-0.379,2.683h4.634l-0.217,1.463h-4.606
			l-1.166,8.104c-0.352,2.547-0.108,3.522,2.086,3.522c0.542,0,1.681-0.081,2.276-0.243l0.108,1.273
			c-0.569,0.162-1.843,0.379-2.466,0.379c-3.089,0-4.092-1.246-3.604-4.688L492.806,664.765z"/>
		<path fill="#FFFFFF" d="M505.162,676.174c1.789,0,3.144-0.623,4.228-1.354l0.596,1.165c-1.111,0.813-2.764,1.681-5.041,1.681
			c-3.279,0-5.014-2.061-4.525-5.502l0.515-3.631c0.488-3.441,2.791-5.502,6.07-5.502c2.357,0,3.441,0.76,4.553,1.734l-0.976,1.111
			c-0.948-0.785-1.87-1.354-3.794-1.354c-2.385,0-3.957,1.49-4.336,4.336l-0.406,2.98
			C501.639,674.684,502.777,676.174,505.162,676.174z"/>
		<path fill="#FFFFFF" d="M516.162,657.069h1.571l-1.111,7.912c1.328-1.191,2.71-1.951,4.228-1.951c3.17,0,4.553,1.653,4.065,5.122
			l-1.301,9.241h-1.572l1.247-8.889c0.379-2.764-0.244-4.038-2.629-4.038c-1.626,0-3.306,1.22-4.281,2.358l-1.491,10.568h-1.572
			L516.162,657.069z"/>
		<path fill="#FFFFFF" d="M538.731,670.728l-4.038-12.304h1.843l3.279,10.434l6.206-10.434h1.815l-7.452,12.249l-0.922,6.721h-1.653
			L538.731,670.728z"/>
		<path fill="#FFFFFF" d="M547.211,668.532c0.488-3.441,2.818-5.502,6.098-5.502c3.279,0,5.04,2.061,4.553,5.502l-0.515,3.631
			c-0.488,3.441-2.818,5.502-6.097,5.502c-3.279,0-5.041-2.061-4.553-5.502L547.211,668.532z M548.323,671.838
			c-0.407,2.846,0.731,4.31,3.144,4.31c2.412,0,3.956-1.464,4.363-4.31l0.407-2.98c0.406-2.846-0.732-4.31-3.144-4.31
			c-2.412,0-3.957,1.464-4.363,4.31L548.323,671.838z"/>
		<path fill="#FFFFFF" d="M564.796,677.665c-3.117,0-4.146-1.897-3.659-5.313l1.274-9.051h1.572l-1.22,8.645
			c-0.406,2.818,0.027,4.309,2.331,4.309c1.788,0,3.387-1.246,4.471-2.466l1.491-10.487h1.571l-1.978,14.092h-1.301l0.027-1.789
			C568.238,676.607,566.72,677.665,564.796,677.665z"/>
		<path fill="#FFFFFF" d="M576.663,663.302h1.301l-0.054,1.87c1.354-1.437,2.845-2.142,4.471-2.142l-0.082,1.518
			c-1.761,0-3.414,1.03-4.606,2.548l-1.437,10.298h-1.572L576.663,663.302z"/>
		<path fill="#FFFFFF" d="M591.348,658.424H593l-2.438,17.344h8.889l-0.217,1.626h-10.542L591.348,658.424z"/>
		<path fill="#FFFFFF" d="M606.548,677.665c-3.279,0-5.041-2.061-4.553-5.502l0.515-3.631c0.488-3.441,2.818-5.502,6.098-5.502
			c3.279,0,5.04,2.061,4.553,5.502l-0.325,2.276h-9.079l-0.135,1.003c-0.38,2.845,0.731,4.362,3.144,4.362
			c1.788,0,3.414-0.623,4.498-1.354l0.597,1.165C610.749,676.798,608.825,677.665,606.548,677.665z M611.48,669.345l0.055-0.461
			c0.352-2.845-0.759-4.336-3.144-4.336c-2.412,0-3.984,1.491-4.336,4.336L604,669.345H611.48z"/>
		<path fill="#FFFFFF" d="M615.38,663.302h1.68l2.493,12.385l5.962-12.385h1.653l-6.992,14.092h-1.761L615.38,663.302z"/>
		<path fill="#FFFFFF" d="M632.071,677.665c-3.279,0-5.04-2.061-4.553-5.502l0.515-3.631c0.488-3.441,2.818-5.502,6.097-5.502
			c3.279,0,5.041,2.061,4.553,5.502l-0.325,2.276h-9.078l-0.136,1.003c-0.379,2.845,0.732,4.362,3.144,4.362
			c1.789,0,3.415-0.623,4.499-1.354l0.596,1.165C636.271,676.798,634.347,677.665,632.071,677.665z M637.003,669.345l0.054-0.461
			c0.353-2.845-0.759-4.336-3.144-4.336c-2.412,0-3.983,1.491-4.336,4.336l-0.054,0.461H637.003z"/>
		<path fill="#FFFFFF" d="M641.282,677.394l2.845-20.324h1.572l-2.846,20.324H641.282z"/>
	</g>
	<g enable-background="new    ">
		<path fill="#FFFFFF" d="M656.049,669.453c0-3.658,2.087-5.501,5.068-5.501c2.385,0,3.875,1.246,3.875,3.875
			c0,3.551-2.141,5.366-5.176,5.366C657.513,673.193,656.049,671.946,656.049,669.453z"/>
		<path fill="#FFFFFF" d="M679.73,670.456c-0.813,0-1.653-0.055-2.331-0.271l-1.002,7.209h-3.632l2.656-18.97h6.964
			c3.876,0,5.989,2.385,5.529,5.556l-0.136,0.948c-0.325,2.304-1.925,4.228-4.31,5.04l1.518,3.849
			c0.488,1.247,1.681,1.084,2.494,0.895l-0.407,2.764c-3.197,0.461-4.742,0.244-5.826-2.818L679.73,670.456z M677.86,666.96
			c0.922,0.271,1.924,0.353,3.09,0.353c1.896,0,3.035-1.192,3.225-2.737l0.027-0.244c0.189-1.571-0.542-2.683-2.25-2.683h-3.333
			L677.86,666.96z"/>
		<path fill="#FFFFFF" d="M694.47,677.665c-3.658,0-5.609-2.168-5.122-5.719l0.461-3.17c0.515-3.578,3.062-5.746,6.721-5.746
			c3.631,0,5.582,2.168,5.067,5.746l-0.379,2.683h-8.293l-0.055,0.379c-0.298,2.006,0.488,2.873,2.061,2.873
			c1.652,0,2.899-0.488,4.281-1.192l0.976,2.412C698.534,676.96,696.746,677.665,694.47,677.665z M698.073,669.101l0.027-0.217
			c0.244-1.924-0.379-2.899-2.005-2.899c-1.572,0-2.629,0.922-2.873,2.899l-0.026,0.217H698.073z"/>
		<path fill="#FFFFFF" d="M709.616,674.656c1.652,0,2.547-0.434,3.956-1.138l0.948,2.412c-1.626,1.029-3.17,1.734-5.447,1.734
			c-3.631,0-5.582-2.195-5.094-5.746l0.46-3.143c0.515-3.578,3.063-5.746,6.694-5.746c2.303,0,3.576,0.65,4.959,1.734l-1.653,2.385
			c-1.22-0.731-1.897-1.138-3.604-1.138c-1.68,0-2.683,1.084-2.953,3.063l-0.353,2.547
			C707.258,673.6,707.936,674.656,709.616,674.656z"/>
		<path fill="#FFFFFF" d="M722.864,677.665c-3.658,0-5.609-2.168-5.121-5.719l0.46-3.17c0.515-3.578,3.063-5.746,6.721-5.746
			c3.632,0,5.583,2.168,5.067,5.746l-0.379,2.683h-8.293l-0.054,0.379c-0.298,2.006,0.487,2.873,2.06,2.873
			c1.653,0,2.899-0.488,4.281-1.192l0.977,2.412C726.93,676.96,725.141,677.665,722.864,677.665z M726.469,669.101l0.027-0.217
			c0.243-1.924-0.38-2.899-2.006-2.899c-1.571,0-2.628,0.922-2.872,2.899l-0.027,0.217H726.469z"/>
		<path fill="#FFFFFF" d="M737.225,663.302l-1.978,14.092h-3.496l2.005-14.092H737.225z M735.734,661.351
			c-1.111,0-1.897-0.542-1.897-1.653c0-1.518,1.084-2.33,2.467-2.33c1.111,0,1.896,0.596,1.896,1.734
			C738.2,660.619,737.089,661.351,735.734,661.351z"/>
		<path fill="#FFFFFF" d="M738.876,663.302h3.686l1.626,9.701l4.282-9.701h3.658l-7.046,14.092h-3.144L738.876,663.302z"/>
		<path fill="#FFFFFF" d="M757.031,677.665c-3.659,0-5.61-2.168-5.122-5.719l0.461-3.17c0.515-3.578,3.063-5.746,6.721-5.746
			c3.631,0,5.582,2.168,5.067,5.746l-0.38,2.683h-8.292l-0.054,0.379c-0.299,2.006,0.487,2.873,2.059,2.873
			c1.653,0,2.9-0.488,4.282-1.192l0.976,2.412C761.096,676.96,759.308,677.665,757.031,677.665z M760.636,669.101l0.026-0.217
			c0.244-1.924-0.379-2.899-2.005-2.899c-1.572,0-2.629,0.922-2.873,2.899l-0.027,0.217H760.636z"/>
		<path fill="#FFFFFF" d="M778.978,670.456c-0.813,0-1.653-0.055-2.33-0.271l-1.003,7.209h-3.632l2.656-18.97h6.965
			c3.875,0,5.988,2.385,5.527,5.556l-0.135,0.948c-0.325,2.304-1.924,4.228-4.309,5.04l1.518,3.849
			c0.487,1.247,1.68,1.084,2.492,0.895l-0.406,2.764c-3.197,0.461-4.742,0.244-5.826-2.818L778.978,670.456z M777.107,666.96
			c0.922,0.271,1.925,0.353,3.09,0.353c1.896,0,3.035-1.192,3.225-2.737l0.027-0.244c0.189-1.571-0.542-2.683-2.249-2.683h-3.334
			L777.107,666.96z"/>
		<path fill="#FFFFFF" d="M793.717,677.665c-3.659,0-5.61-2.168-5.122-5.719l0.461-3.17c0.515-3.578,3.063-5.746,6.721-5.746
			c3.631,0,5.582,2.168,5.067,5.746l-0.38,2.683h-8.292l-0.054,0.379c-0.299,2.006,0.487,2.873,2.059,2.873
			c1.653,0,2.9-0.488,4.282-1.192l0.976,2.412C797.781,676.96,795.993,677.665,793.717,677.665z M797.321,669.101l0.026-0.217
			c0.244-1.924-0.379-2.899-2.005-2.899c-1.572,0-2.629,0.922-2.873,2.899l-0.027,0.217H797.321z"/>
		<path fill="#FFFFFF" d="M811.003,672.001l-2.628,5.393h-3.171l-2.71-14.092h3.686l1.301,9.701l2.737-5.799l-0.623-3.902h3.712
			l0.867,9.701l3.93-9.701h3.658l-6.693,14.092h-3.171L811.003,672.001z"/>
		<path fill="#FFFFFF" d="M832.11,677.394h-2.926v-1.328c-0.949,0.922-2.602,1.6-4.146,1.6c-2.467,0-4.119-1.084-4.119-3.442
			c0-3.388,2.06-4.742,5.718-4.742c1.03,0,2.087,0.136,3.089,0.38l0.19-1.437c0.243-1.815-0.542-2.385-2.249-2.385
			c-1.681,0-2.873,0.406-3.957,0.921l-0.705-2.466c1.41-0.731,3.469-1.464,5.746-1.464c3.658,0,5.148,1.816,4.66,5.203
			L832.11,677.394z M826.203,674.954c1.192,0,2.276-0.65,3.008-1.544l0.19-1.301c-0.867-0.217-1.734-0.298-2.629-0.298
			c-1.518,0-2.276,0.379-2.276,1.842C824.496,674.603,825.146,674.954,826.203,674.954z"/>
		<path fill="#FFFFFF" d="M837.284,663.302h3.008l0.109,1.572c1.057-1.03,2.818-1.844,4.254-1.844l-0.162,3.171
			c-1.626,0-3.225,0.65-4.391,1.653l-1.328,9.539h-3.495L837.284,663.302z"/>
		<path fill="#FFFFFF" d="M853.027,676.201c-1.057,0.867-2.438,1.464-4.011,1.464c-3.171,0-4.525-2.168-4.038-5.719l0.488-3.441
			c0.515-3.577,2.385-5.475,5.501-5.475c1.165,0,2.276,0.163,3.333,0.65l0.948-6.611h3.496l-2.872,20.324h-2.846V676.201z
			 M853.895,666.662c-0.813-0.406-1.681-0.542-2.574-0.542c-1.328,0-2.168,0.813-2.439,2.656l-0.406,2.872
			c-0.271,1.979,0.108,3.008,1.681,3.008c1.219,0,2.194-0.542,2.818-1.437L853.895,666.662z"/>
		<path fill="#FFFFFF" d="M864.271,674.873c1.652,0,2.655-0.596,2.655-1.626c0-1.057-1.057-1.246-2.899-1.599
			c-1.87-0.353-3.74-0.895-3.74-3.658c0-2.981,1.924-4.96,5.989-4.96c2.249,0,3.658,0.624,5.04,1.708l-1.518,2.276
			c-1.246-0.732-2.222-1.192-3.793-1.192c-1.572,0-2.168,0.623-2.168,1.544c0,1.003,0.921,1.111,2.52,1.41
			c1.951,0.352,4.092,0.84,4.092,3.767c0,3.089-2.385,5.122-6.395,5.122c-2.277,0-4.038-0.678-5.394-1.681l1.572-2.412
			C861.426,674.331,862.618,674.873,864.271,674.873z"/>
		<path fill="#FFFFFF" d="M872.643,676.12c0-1.437,0.895-2.114,2.113-2.114c1.003,0,1.653,0.488,1.653,1.491
			c0,1.463-0.895,2.168-2.168,2.168C873.293,677.665,872.643,677.177,872.643,676.12z M874.539,663.302l0.678-4.878h3.469
			l-0.678,4.878l-1.545,8.916h-2.845L874.539,663.302z"/>
	</g>
</g>
<g>
	<rect x="206.457" y="180.973" fill="#FCB216" width="924.002" height="322.29"/>
	<g>
		<path d="M973.866,374.763"/>
	</g>
	<polygon fill="#191919" points="710.477,193.04 939.682,193.04 953.644,207.772 943.087,439.695 477.861,439.695 467.31,207.772 
		481.269,193.04 	"/>
	<polygon fill="#2B2D42" points="704.368,209.522 917.388,209.522 929.621,222.289 920.374,423.211 500.574,423.211 
		491.334,222.289 503.565,209.522 	"/>
	<g>
		<g>
			<polygon fill="#8E8E8E" points="825.146,307.098 595.811,307.098 594.42,270.115 826.538,270.115 			"/>
			<polygon opacity="0.15" enable-background="new    " points="818.655,302.095 602.304,302.095 600.991,275.122 819.957,275.122 
							"/>
			<polygon fill="#FCB216" points="600.991,275.122 602.304,302.095 610.789,302.095 610.789,275.122 			"/>
			<polygon opacity="0.25" fill="#FFFFFF" enable-background="new    " points="602.304,302.095 602.546,303.889 818.655,302.095 
							"/>
		</g>
		<g enable-background="new    ">
			<path fill="#FFFFFF" d="M684.244,280.371h1.931v12.449h5.611v1.629h-7.542V280.371z"/>
			<path fill="#FFFFFF" d="M694.923,290.648c0,0.898,0.185,1.542,0.553,1.931c0.369,0.389,0.909,0.583,1.619,0.583
				c1.167,0,2.286-0.234,3.359-0.704v1.448c-1.02,0.496-2.18,0.744-3.479,0.744c-2.588,0-3.882-1.22-3.882-3.66v-4.264
				c0-1.261,0.342-2.199,1.025-2.815c0.684-0.617,1.643-0.925,2.877-0.925c2.587,0,3.881,1.246,3.881,3.74v2.715h-5.953V290.648z
				 M699.065,288.074v-1.167c0-0.911-0.167-1.555-0.502-1.931c-0.336-0.375-0.852-0.563-1.549-0.563s-1.221,0.19-1.568,0.573
				c-0.349,0.382-0.523,1.021-0.523,1.92v1.167H699.065z"/>
			<path fill="#FFFFFF" d="M701.681,283.188h1.91l2.052,7.38c0.094,0.336,0.241,1.073,0.442,2.213c0-0.416,0.127-1.146,0.382-2.192
				l2.052-7.4h1.891l-3.5,11.262h-1.75L701.681,283.188z"/>
			<path fill="#FFFFFF" d="M713.083,290.648c0,0.898,0.185,1.542,0.553,1.931c0.369,0.389,0.909,0.583,1.619,0.583
				c1.167,0,2.286-0.234,3.359-0.704v1.448c-1.02,0.496-2.18,0.744-3.479,0.744c-2.588,0-3.882-1.22-3.882-3.66v-4.264
				c0-1.261,0.342-2.199,1.025-2.815c0.684-0.617,1.643-0.925,2.877-0.925c2.587,0,3.881,1.246,3.881,3.74v2.715h-5.953V290.648z
				 M717.226,288.074v-1.167c0-0.911-0.167-1.555-0.502-1.931c-0.336-0.375-0.852-0.563-1.549-0.563s-1.221,0.19-1.568,0.573
				c-0.349,0.382-0.523,1.021-0.523,1.92v1.167H717.226z"/>
			<path fill="#FFFFFF" d="M721.369,294.449v-14.842l1.851-0.302v15.144H721.369z"/>
		</g>
		<g enable-background="new    ">
			<path fill="#FFFFFF" d="M737.678,280.371v14.078h-3.177v-10.84l-2.535,1.025v-2.795l3.66-1.469H737.678z"/>
		</g>
	</g>
	<g>
		<g>
			<polygon fill="#8E8E8E" points="825.146,357.111 595.811,357.111 594.42,320.132 826.538,320.132 			"/>
			<polygon opacity="0.15" enable-background="new    " points="818.655,352.109 602.304,352.109 600.991,325.142 819.957,325.142 
							"/>
			<polygon fill="#FCB216" points="600.991,325.142 602.304,352.109 631.741,352.106 631.741,325.135 			"/>
			<polygon opacity="0.25" fill="#FFFFFF" enable-background="new    " points="602.304,352.109 602.546,353.906 818.655,352.109 
							"/>
		</g>
		<g enable-background="new    ">
			<path fill="#FFFFFF" d="M682.985,330.386h1.931v12.449h5.611v1.629h-7.542V330.386z"/>
			<path fill="#FFFFFF" d="M693.665,340.663c0,0.898,0.184,1.542,0.553,1.931c0.368,0.389,0.908,0.583,1.619,0.583
				c1.166,0,2.285-0.234,3.357-0.704v1.448c-1.019,0.496-2.178,0.744-3.479,0.744c-2.588,0-3.882-1.22-3.882-3.66v-4.264
				c0-1.261,0.343-2.199,1.026-2.815c0.684-0.617,1.643-0.925,2.875-0.925c2.588,0,3.882,1.246,3.882,3.74v2.715h-5.952V340.663z
				 M697.808,338.089v-1.167c0-0.911-0.168-1.555-0.503-1.931c-0.335-0.375-0.852-0.563-1.549-0.563s-1.22,0.19-1.569,0.573
				c-0.348,0.382-0.521,1.021-0.521,1.92v1.167H697.808z"/>
			<path fill="#FFFFFF" d="M700.422,333.202h1.911l2.051,7.38c0.094,0.336,0.241,1.073,0.442,2.213c0-0.416,0.128-1.146,0.382-2.192
				l2.052-7.4h1.89l-3.499,11.262h-1.749L700.422,333.202z"/>
			<path fill="#FFFFFF" d="M711.825,340.663c0,0.898,0.184,1.542,0.553,1.931c0.368,0.389,0.908,0.583,1.619,0.583
				c1.166,0,2.285-0.234,3.357-0.704v1.448c-1.019,0.496-2.178,0.744-3.479,0.744c-2.588,0-3.882-1.22-3.882-3.66v-4.264
				c0-1.261,0.343-2.199,1.026-2.815c0.684-0.617,1.643-0.925,2.875-0.925c2.588,0,3.882,1.246,3.882,3.74v2.715h-5.952V340.663z
				 M715.968,338.089v-1.167c0-0.911-0.168-1.555-0.503-1.931c-0.335-0.375-0.852-0.563-1.549-0.563s-1.22,0.19-1.569,0.573
				c-0.348,0.382-0.521,1.021-0.521,1.92v1.167H715.968z"/>
			<path fill="#FFFFFF" d="M720.11,344.464v-14.842l1.85-0.302v15.144H720.11z"/>
		</g>
		<g enable-background="new    ">
			<path fill="#FFFFFF" d="M735.937,340.02c0-0.657-0.117-1.12-0.352-1.388c-0.234-0.269-0.586-0.402-1.056-0.402
				c-0.751,0-1.488,0.114-2.212,0.342l-1.811-1.247v-6.938h7.703v2.574h-4.525v2.957c0.402-0.135,0.985-0.201,1.75-0.201
				c1.152,0,2.058,0.345,2.715,1.035c0.656,0.69,0.985,1.74,0.985,3.147v0.362c0,1.421-0.396,2.511-1.187,3.268
				c-0.791,0.758-1.971,1.137-3.539,1.137c-1.556,0-2.91-0.281-4.063-0.845v-2.554c1.595,0.482,2.875,0.724,3.841,0.724
				c1.167,0,1.749-0.529,1.749-1.589V340.02z"/>
		</g>
	</g>
	<g>
		<g enable-background="new    ">
			<path fill="#C2E812" d="M786.462,340.356h-4.211v-4.188h4.211v-4.286h4.338v4.286h4.212v4.188H790.8v4.287h-4.338V340.356z"/>
			<path fill="#C2E812" d="M803.959,346.986c-1.229-0.133-2.422-0.407-3.577-0.822c-1.154-0.415-2.205-0.964-3.152-1.646
				l2.243-3.314c0.798,0.564,1.574,1.014,2.331,1.346c0.756,0.333,1.523,0.565,2.305,0.698v-2.991
				c-0.996-0.232-1.873-0.498-2.629-0.798c-0.757-0.299-1.389-0.66-1.895-1.084c-0.508-0.424-0.889-0.918-1.146-1.483
				c-0.258-0.564-0.387-1.237-0.387-2.019v-0.05c0-0.73,0.133-1.403,0.398-2.019c0.266-0.614,0.652-1.15,1.16-1.607
				c0.506-0.457,1.129-0.827,1.869-1.109c0.738-0.282,1.582-0.457,2.529-0.523v-1.421h2.592v1.496
				c1.03,0.116,1.978,0.34,2.842,0.673c0.863,0.332,1.67,0.756,2.418,1.271l-2.044,3.34c-0.516-0.365-1.06-0.673-1.633-0.922
				s-1.143-0.44-1.707-0.573v2.891c0.997,0.233,1.864,0.503,2.604,0.811c0.738,0.308,1.358,0.673,1.857,1.097
				c0.498,0.424,0.871,0.927,1.121,1.508c0.249,0.582,0.373,1.255,0.373,2.019v0.05c0,0.765-0.141,1.45-0.424,2.057
				c-0.282,0.606-0.681,1.134-1.195,1.583c-0.516,0.448-1.135,0.806-1.857,1.071s-1.524,0.44-2.404,0.523v2.442h-2.593V346.986z
				 M804.134,333.203c-0.615,0.05-1.051,0.188-1.309,0.411c-0.258,0.225-0.387,0.503-0.387,0.835v0.05
				c0,0.333,0.112,0.603,0.336,0.811c0.225,0.208,0.678,0.403,1.359,0.586V333.203z M806.452,343.397
				c1.112-0.116,1.669-0.54,1.669-1.271v-0.05c0-0.332-0.116-0.606-0.349-0.822s-0.673-0.415-1.32-0.599V343.397z"/>
			<path fill="#C2E812" d="M814.028,343.397l6.529-4.985c0.814-0.631,1.393-1.18,1.732-1.645c0.341-0.465,0.512-0.964,0.512-1.495
				c0-0.549-0.18-0.98-0.536-1.297c-0.358-0.315-0.827-0.474-1.408-0.474c-0.582,0-1.134,0.18-1.657,0.536
				c-0.523,0.357-1.127,0.927-1.808,1.707l-3.265-2.716c0.465-0.599,0.938-1.13,1.42-1.596c0.482-0.465,1.002-0.855,1.559-1.171
				s1.172-0.557,1.844-0.724c0.674-0.165,1.434-0.249,2.281-0.249c0.947,0,1.814,0.138,2.604,0.411
				c0.789,0.274,1.467,0.652,2.032,1.135c0.564,0.481,1.005,1.067,1.321,1.757c0.314,0.689,0.473,1.441,0.473,2.256v0.05
				c0,0.697-0.087,1.32-0.262,1.869c-0.174,0.548-0.436,1.06-0.785,1.532c-0.349,0.474-0.772,0.927-1.271,1.358
				c-0.499,0.433-1.071,0.881-1.72,1.347l-2.991,2.093h7.203v3.938h-13.808V343.397z"/>
			<path fill="#C2E812" d="M836.31,347.385c-1.545,0-2.883-0.249-4.013-0.747c-1.13-0.499-2.151-1.172-3.065-2.02l2.767-3.24
				c0.714,0.599,1.412,1.064,2.093,1.396c0.682,0.332,1.396,0.498,2.145,0.498c0.797,0,1.424-0.183,1.881-0.548
				s0.686-0.864,0.686-1.496v-0.05c0-0.631-0.236-1.125-0.71-1.482s-1.093-0.536-1.856-0.536c-0.532,0-1.026,0.083-1.483,0.249
				s-0.894,0.374-1.309,0.623l-2.866-1.595l0.498-8.849h11.665v3.988h-7.851l-0.15,2.642c0.398-0.183,0.818-0.332,1.259-0.448
				s0.951-0.175,1.533-0.175c0.78,0,1.532,0.112,2.255,0.337s1.359,0.561,1.907,1.01c0.548,0.448,0.988,1.021,1.321,1.72
				c0.332,0.697,0.498,1.52,0.498,2.467v0.05c0,0.98-0.179,1.854-0.535,2.617c-0.357,0.765-0.852,1.413-1.483,1.944
				c-0.632,0.532-1.388,0.938-2.269,1.221C838.345,347.244,837.373,347.385,836.31,347.385z"/>
		</g>
	</g>
	<g>
		<g>
			<polygon fill="#8E8E8E" points="825.146,407.121 595.811,407.121 594.42,370.147 826.538,370.147 			"/>
			<polygon opacity="0.15" enable-background="new    " points="818.655,402.127 602.304,402.127 600.991,375.146 819.957,375.146 
							"/>
			<polygon fill="#FCB216" points="600.991,375.146 602.304,402.127 746.819,402.127 746.819,375.146 			"/>
			<polygon opacity="0.25" fill="#FFFFFF" enable-background="new    " points="602.304,402.127 602.546,403.914 818.655,402.127 
							"/>
		</g>
		<g enable-background="new    ">
			<path fill="#FFFFFF" d="M678.683,380.401h1.931v12.449h5.611v1.629h-7.542V380.401z"/>
			<path fill="#FFFFFF" d="M689.362,390.679c0,0.898,0.184,1.542,0.553,1.931c0.368,0.389,0.908,0.583,1.619,0.583
				c1.166,0,2.285-0.234,3.357-0.704v1.448c-1.019,0.496-2.178,0.744-3.479,0.744c-2.588,0-3.882-1.22-3.882-3.66v-4.264
				c0-1.261,0.343-2.199,1.026-2.815c0.684-0.617,1.643-0.925,2.875-0.925c2.588,0,3.882,1.246,3.882,3.74v2.715h-5.952V390.679z
				 M693.505,388.104v-1.167c0-0.911-0.168-1.555-0.503-1.931c-0.335-0.375-0.852-0.563-1.549-0.563s-1.22,0.19-1.569,0.573
				c-0.348,0.382-0.521,1.021-0.521,1.92v1.167H693.505z"/>
			<path fill="#FFFFFF" d="M696.119,383.218h1.911l2.051,7.38c0.094,0.336,0.241,1.073,0.442,2.213c0-0.416,0.128-1.146,0.382-2.192
				l2.052-7.4h1.89l-3.499,11.262h-1.749L696.119,383.218z"/>
			<path fill="#FFFFFF" d="M707.522,390.679c0,0.898,0.184,1.542,0.553,1.931c0.368,0.389,0.908,0.583,1.619,0.583
				c1.166,0,2.285-0.234,3.357-0.704v1.448c-1.019,0.496-2.178,0.744-3.479,0.744c-2.588,0-3.882-1.22-3.882-3.66v-4.264
				c0-1.261,0.343-2.199,1.026-2.815c0.684-0.617,1.643-0.925,2.875-0.925c2.588,0,3.882,1.246,3.882,3.74v2.715h-5.952V390.679z
				 M711.665,388.104v-1.167c0-0.911-0.168-1.555-0.503-1.931c-0.335-0.375-0.852-0.563-1.549-0.563s-1.22,0.19-1.569,0.573
				c-0.348,0.382-0.521,1.021-0.521,1.92v1.167H711.665z"/>
			<path fill="#FFFFFF" d="M715.808,394.479v-14.842l1.85-0.302v15.144H715.808z"/>
		</g>
		<g enable-background="new    ">
			<path fill="#FFFFFF" d="M728.456,382.996h-4.082v-2.595h8.426v2.132l-2.936,3.459c2.225,0,3.338,1.301,3.338,3.902v0.382
				c0,1.407-0.436,2.494-1.307,3.258c-0.872,0.765-2.119,1.146-3.741,1.146c-1.475,0-2.802-0.281-3.981-0.845v-2.554
				c1.595,0.482,2.882,0.724,3.861,0.724c0.563,0,1.035-0.157,1.418-0.473c0.381-0.315,0.572-0.688,0.572-1.116v-0.221
				c0-0.631-0.147-1.066-0.442-1.308s-0.737-0.362-1.327-0.362c-0.604,0-1.105,0.04-1.508,0.121l-1.488-1.891L728.456,382.996z"/>
			<path fill="#FFFFFF" d="M734.087,384.344c0-1.354,0.418-2.384,1.256-3.087c0.839-0.704,1.948-1.057,3.329-1.057
				c1.395,0,2.504,0.349,3.329,1.046c0.824,0.697,1.236,1.729,1.236,3.098v6.194c0,1.367-0.412,2.399-1.236,3.097
				c-0.825,0.697-1.935,1.046-3.329,1.046c-1.381,0-2.49-0.352-3.329-1.056c-0.838-0.704-1.256-1.733-1.256-3.087V384.344z
				 M737.265,390.256c0,0.685,0.117,1.15,0.352,1.398s0.586,0.372,1.056,0.372s0.817-0.124,1.046-0.372s0.342-0.714,0.342-1.398
				v-5.631c0-0.67-0.113-1.133-0.342-1.388s-0.576-0.382-1.046-0.382s-0.821,0.127-1.056,0.382s-0.352,0.718-0.352,1.388V390.256z"
				/>
		</g>
	</g>
	<g>
		<g enable-background="new    ">
			<path fill="#C2E812" d="M779.884,390.368h-4.211v-4.187h4.211v-4.287h4.337v4.287h4.212v4.187h-4.212v4.287h-4.337V390.368z"/>
			<path fill="#C2E812" d="M797.38,396.998c-1.229-0.133-2.422-0.407-3.576-0.822c-1.155-0.415-2.205-0.964-3.152-1.646l2.242-3.314
				c0.798,0.565,1.574,1.014,2.33,1.346c0.756,0.333,1.525,0.565,2.307,0.698v-2.991c-0.998-0.232-1.874-0.498-2.63-0.797
				c-0.757-0.3-1.388-0.661-1.894-1.085c-0.508-0.423-0.89-0.917-1.146-1.482c-0.258-0.564-0.387-1.237-0.387-2.019v-0.05
				c0-0.731,0.133-1.404,0.398-2.019c0.266-0.615,0.652-1.15,1.159-1.608c0.507-0.456,1.13-0.826,1.869-1.108
				s1.583-0.457,2.529-0.523v-1.421h2.593v1.495c1.029,0.117,1.977,0.341,2.841,0.673c0.863,0.333,1.669,0.757,2.417,1.271
				l-2.043,3.34c-0.516-0.365-1.06-0.673-1.633-0.922c-0.573-0.25-1.143-0.44-1.707-0.573v2.891c0.996,0.232,1.865,0.503,2.604,0.81
				c0.74,0.308,1.359,0.673,1.857,1.097s0.873,0.927,1.121,1.508c0.25,0.582,0.375,1.255,0.375,2.02v0.05
				c0,0.764-0.143,1.449-0.424,2.056c-0.283,0.606-0.682,1.134-1.197,1.583c-0.515,0.448-1.134,0.806-1.856,1.071
				s-1.524,0.44-2.405,0.523v2.442h-2.592V396.998z M797.555,383.216c-0.615,0.05-1.052,0.187-1.309,0.411
				c-0.258,0.225-0.386,0.503-0.386,0.835v0.05c0,0.333,0.111,0.603,0.336,0.81c0.225,0.208,0.677,0.403,1.358,0.586V383.216z
				 M799.872,393.409c1.113-0.116,1.67-0.54,1.67-1.271v-0.05c0-0.332-0.116-0.606-0.349-0.822
				c-0.233-0.216-0.673-0.415-1.321-0.598V393.409z"/>
			<path fill="#C2E812" d="M810.688,383.988l-2.941,0.673l-0.922-3.738l5.109-1.445h3.514v17.57h-4.76V383.988z"/>
			<path fill="#C2E812" d="M824.694,397.396c-1.545,0-2.883-0.249-4.012-0.747c-1.131-0.499-2.152-1.172-3.066-2.02l2.767-3.239
				c0.714,0.598,1.412,1.063,2.094,1.396c0.681,0.332,1.396,0.498,2.144,0.498c0.797,0,1.424-0.183,1.881-0.548
				s0.686-0.864,0.686-1.495v-0.05c0-0.632-0.236-1.126-0.71-1.483s-1.093-0.536-1.856-0.536c-0.532,0-1.026,0.084-1.482,0.25
				c-0.458,0.166-0.895,0.373-1.309,0.623l-2.867-1.596l0.499-8.848h11.664v3.988h-7.851l-0.15,2.642
				c0.399-0.183,0.818-0.332,1.26-0.448c0.439-0.116,0.95-0.175,1.532-0.175c0.78,0,1.532,0.112,2.255,0.336
				c0.723,0.225,1.359,0.562,1.907,1.01s0.988,1.021,1.321,1.72c0.332,0.698,0.498,1.521,0.498,2.468v0.05
				c0,0.98-0.179,1.853-0.536,2.616c-0.357,0.765-0.852,1.413-1.483,1.944c-0.631,0.532-1.387,0.938-2.268,1.221
				C826.729,397.256,825.758,397.396,824.694,397.396z"/>
			<path fill="#C2E812" d="M841.916,397.396c-1.246,0-2.368-0.236-3.364-0.71c-0.997-0.474-1.841-1.121-2.529-1.944
				c-0.69-0.822-1.222-1.781-1.596-2.878c-0.373-1.097-0.561-2.26-0.561-3.489v-0.05c0-1.229,0.191-2.396,0.573-3.502
				c0.382-1.104,0.922-2.068,1.62-2.891c0.697-0.823,1.545-1.475,2.542-1.957c0.997-0.481,2.118-0.723,3.364-0.723
				s2.363,0.236,3.352,0.71c0.989,0.474,1.832,1.122,2.53,1.944s1.233,1.782,1.607,2.879s0.562,2.26,0.562,3.489v0.05
				c0,1.229-0.188,2.396-0.562,3.501c-0.374,1.105-0.913,2.069-1.62,2.892c-0.706,0.822-1.557,1.475-2.555,1.956
				C844.284,397.155,843.162,397.396,841.916,397.396z M841.966,393.11c0.482,0,0.922-0.116,1.321-0.35
				c0.398-0.232,0.735-0.561,1.009-0.984c0.274-0.424,0.486-0.922,0.636-1.495s0.225-1.209,0.225-1.906v-0.05
				c0-0.698-0.079-1.338-0.237-1.919c-0.158-0.582-0.378-1.085-0.66-1.508c-0.283-0.424-0.623-0.756-1.021-0.997
				s-0.84-0.361-1.321-0.361s-0.918,0.116-1.308,0.349c-0.391,0.232-0.728,0.557-1.01,0.972c-0.283,0.416-0.498,0.914-0.648,1.496
				c-0.149,0.581-0.225,1.221-0.225,1.919v0.05c0,0.697,0.079,1.342,0.237,1.932c0.157,0.59,0.378,1.096,0.66,1.52
				s0.623,0.752,1.022,0.984C841.044,392.994,841.483,393.11,841.966,393.11z"/>
		</g>
	</g>
	<g>
		<g enable-background="new    ">
			<path fill="#FCB216" d="M582.228,225.25h11.646l-0.248,1.89h-9.757l-1.084,7.774h8.146l-0.279,1.858h-8.146l-1.177,8.302h10.005
				l-0.248,1.858h-11.895L582.228,225.25z"/>
			<path fill="#FCB216" d="M605.579,246.933h-1.332l0.031-1.673c-1.332,1.115-3.066,1.982-4.987,1.982
				c-3.221,0-5.173-1.084-5.173-3.902c0-4.461,2.788-5.328,6.598-5.328c1.456,0,2.85,0.155,4.275,0.495l0.279-2.044
				c0.402-3.035-0.527-4.213-3.314-4.213c-2.044,0-4.089,0.806-5.111,1.425l-0.527-1.455c1.177-0.713,3.346-1.704,5.886-1.704
				c3.748,0,5.482,1.797,4.925,5.482L605.579,246.933z M599.384,245.601c1.982,0,3.779-0.96,4.925-2.292l0.465-3.253
				c-1.518-0.278-3.005-0.434-4.553-0.434c-2.912,0-4.244,0.806-4.244,3.438C595.977,244.981,597.433,245.601,599.384,245.601z"/>
			<path fill="#FCB216" d="M612.452,230.825h1.487l-0.062,2.138c1.549-1.642,3.252-2.447,5.111-2.447l-0.093,1.734
				c-2.013,0-3.903,1.178-5.266,2.912l-1.642,11.771h-1.797L612.452,230.825z"/>
			<path fill="#FCB216" d="M621.618,230.825h1.487l-0.031,2.045c1.363-1.271,3.19-2.354,4.987-2.354c3.624,0,5.08,2.044,4.522,6.04
				l-1.456,10.377h-1.796l1.394-9.974c0.434-3.19-0.155-4.802-2.912-4.802c-1.859,0-3.872,1.487-4.987,2.788l-1.672,11.987h-1.797
				L621.618,230.825z"/>
			<path fill="#FCB216" d="M639.858,230.825l-2.261,16.107H635.8l2.261-16.107H639.858z M639.363,227.697
				c-0.806,0-1.301-0.496-1.301-1.271c0-0.991,0.744-1.673,1.735-1.673c0.774,0,1.27,0.496,1.27,1.239
				C641.066,227.016,640.323,227.697,639.363,227.697z"/>
			<path fill="#FCB216" d="M644.503,230.825h1.487l-0.031,2.045c1.363-1.271,3.19-2.354,4.987-2.354c3.624,0,5.08,2.044,4.522,6.04
				l-1.456,10.377h-1.797l1.394-9.974c0.434-3.19-0.155-4.802-2.912-4.802c-1.859,0-3.872,1.487-4.987,2.788l-1.672,11.987h-1.797
				L644.503,230.825z"/>
			<path fill="#FCB216" d="M662.031,251.889c-3.098,0-4.801-1.053-4.801-3.593c0-2.138,1.332-3.47,2.974-4.615
				c-0.744-0.961-0.496-2.354,0.991-3.779c-0.836-0.898-1.363-1.921-1.363-3.407c0-3.687,2.292-5.979,6.195-5.979
				c1.549,0,2.726,0.372,3.625,1.239l2.199-2.571l1.486,1.332l-2.912,2.385c0.187,0.372,0.342,1.054,0.342,1.982
				c0,3.748-2.262,6.071-6.227,6.071c-0.774,0-1.456-0.093-2.075-0.278c-0.774,0.558-1.363,2.137-0.031,2.292l3.841,0.434
				c2.633,0.31,4.337,0.991,4.337,3.346c0,3.469-2.447,5.142-5.947,5.142H662.031z M664.602,250.247
				c2.447,0,4.182-1.054,4.182-3.129c0-1.579-1.611-1.89-3.686-2.106l-3.841-0.402c-1.642,1.054-2.199,2.199-2.199,3.376
				c0,1.643,1.301,2.262,3.562,2.262H664.602z M661.69,235.72c-0.372,2.602,0.929,3.562,3.097,3.562c2.2,0,3.748-0.929,4.12-3.53
				c0.372-2.603-0.929-3.531-3.129-3.531C663.611,232.22,662.062,233.117,661.69,235.72z"/>
			<path fill="#FCB216" d="M678.661,245.539c3.035,0,4.461-1.766,4.461-3.438c0-1.332-0.898-2.106-3.036-2.447
				c-2.757-0.434-5.266-0.898-5.266-3.996c0-2.818,1.982-5.142,6.009-5.142c2.447,0,3.935,0.836,5.204,1.921l-1.022,1.332
				c-1.115-0.868-2.478-1.549-4.43-1.549c-3.004,0-3.934,1.518-3.934,3.159c0,1.858,1.549,2.199,3.594,2.509
				c2.602,0.402,4.708,1.054,4.708,3.934c0,2.819-2.509,5.421-6.536,5.421c-2.602,0-4.491-0.991-5.514-1.92l1.054-1.332
				C674.944,244.826,676.616,245.539,678.661,245.539z"/>
			<path fill="#FCB216" d="M698.821,232.87c1.393-1.332,3.221-2.354,5.049-2.354c3.593,0,5.266,2.23,4.708,6.133l-0.62,4.306
				c-0.557,3.935-3.159,6.288-6.938,6.288c-1.643,0-2.912-0.278-4.059-0.712l-0.713,5.049h-1.796l2.911-20.754h1.487L698.821,232.87
				z M706.72,237.082c0.434-3.128-0.372-4.862-3.129-4.862c-1.858,0-3.902,1.425-5.018,2.726l-1.363,9.757
				c1.115,0.589,2.602,0.806,4.119,0.806c2.758,0,4.43-1.673,4.895-4.925L706.72,237.082z"/>
			<path fill="#FCB216" d="M717.433,247.242c-3.748,0-5.761-2.354-5.203-6.288l0.588-4.15c0.559-3.934,3.222-6.288,6.97-6.288
				s5.762,2.354,5.204,6.288l-0.372,2.602h-10.376l-0.155,1.146c-0.434,3.252,0.836,4.987,3.593,4.987
				c2.045,0,3.903-0.713,5.143-1.549l0.682,1.332C722.234,246.251,720.035,247.242,717.433,247.242z M723.071,237.733l0.061-0.527
				c0.403-3.252-0.867-4.956-3.592-4.956c-2.758,0-4.555,1.704-4.957,4.956l-0.062,0.527H723.071z"/>
			<path fill="#FCB216" d="M730.222,230.825h1.486l-0.062,2.138c1.549-1.642,3.253-2.447,5.111-2.447l-0.093,1.734
				c-2.014,0-3.903,1.178-5.266,2.912l-1.643,11.771h-1.797L730.222,230.825z"/>
			<path fill="#FCB216" d="M751.962,237.856c-1.734,0-3.19-0.093-4.739-0.558l-1.362,9.634h-1.891l3.036-21.683h7.248
				c3.935,0,6.009,2.509,5.575,5.73l-0.154,1.208c-0.341,2.664-2.571,4.956-5.668,5.545l2.57,6.442
				c0.682,1.734,1.673,1.61,2.57,1.363l-0.217,1.518c-2.261,0.434-3.376,0.248-4.49-2.726L751.962,237.856z M747.47,235.534
				c1.735,0.434,3.346,0.557,5.267,0.557c2.88,0,4.708-1.889,5.11-4.336l0.063-0.372c0.402-2.54-1.022-4.243-3.902-4.243h-5.359
				L747.47,235.534z"/>
			<path fill="#FCB216" d="M767.167,247.242c-3.748,0-5.762-2.354-5.205-6.288l0.59-4.15c0.557-3.934,3.221-6.288,6.969-6.288
				s5.762,2.354,5.204,6.288l-0.372,2.602h-10.377l-0.154,1.146c-0.434,3.252,0.836,4.987,3.593,4.987
				c2.044,0,3.903-0.713,5.142-1.549l0.682,1.332C771.968,246.251,769.769,247.242,767.167,247.242z M772.804,237.733l0.063-0.527
				c0.402-3.252-0.867-4.956-3.594-4.956c-2.756,0-4.553,1.704-4.955,4.956l-0.063,0.527H772.804z"/>
			<path fill="#FCB216" d="M779.677,232.498h-2.076l0.248-1.673h2.076l0.247-1.766c0.526-3.748,2.788-5.544,6.319-5.544
				c0.805,0,1.549,0.154,2.137,0.341l-0.526,1.486c-0.558-0.124-1.239-0.217-1.858-0.217c-2.571,0-3.934,1.27-4.274,3.841
				l-0.248,1.858h5.358l-0.247,1.673h-5.359l-2.013,14.435h-1.797L779.677,232.498z"/>
			<path fill="#FCB216" d="M793.303,247.242c-3.747,0-5.761-2.354-5.203-6.288l0.588-4.15c0.558-3.934,3.222-6.288,6.97-6.288
				s5.762,2.354,5.204,6.288l-0.372,2.602h-10.377l-0.154,1.146c-0.434,3.252,0.836,4.987,3.593,4.987
				c2.045,0,3.903-0.713,5.143-1.549l0.681,1.332C798.104,246.251,795.905,247.242,793.303,247.242z M798.94,237.733l0.063-0.527
				c0.402-3.252-0.867-4.956-3.594-4.956c-2.757,0-4.553,1.704-4.956,4.956l-0.062,0.527H798.94z"/>
			<path fill="#FCB216" d="M806.092,230.825h1.487l-0.063,2.138c1.549-1.642,3.253-2.447,5.111-2.447l-0.093,1.734
				c-2.014,0-3.903,1.178-5.267,2.912l-1.642,11.771h-1.796L806.092,230.825z"/>
			<path fill="#FCB216" d="M815.259,230.825h1.487l-0.063,2.138c1.549-1.642,3.253-2.447,5.111-2.447l-0.093,1.734
				c-2.014,0-3.903,1.178-5.267,2.912l-1.642,11.771h-1.796L815.259,230.825z"/>
			<path fill="#FCB216" d="M832.479,246.933h-1.332l0.031-1.673c-1.332,1.115-3.066,1.982-4.987,1.982
				c-3.222,0-5.173-1.084-5.173-3.902c0-4.461,2.788-5.328,6.598-5.328c1.456,0,2.85,0.155,4.274,0.495l0.279-2.044
				c0.402-3.035-0.526-4.213-3.314-4.213c-2.044,0-4.089,0.806-5.111,1.425l-0.526-1.455c1.177-0.713,3.346-1.704,5.886-1.704
				c3.748,0,5.482,1.797,4.925,5.482L832.479,246.933z M826.283,245.601c1.982,0,3.779-0.96,4.926-2.292l0.464-3.253
				c-1.518-0.278-3.004-0.434-4.553-0.434c-2.912,0-4.244,0.806-4.244,3.438C822.876,244.981,824.332,245.601,826.283,245.601z"/>
			<path fill="#FCB216" d="M837.091,246.933l3.252-23.231h1.797l-3.253,23.231H837.091z"/>
		</g>
	</g>
	<polygon fill="#AAA9A9" points="943.09,439.695 940.653,475.633 927.47,487.271 710.479,487.271 493.491,487.271 480.304,475.633 
		477.867,439.695 	"/>
	<polygon fill="#AAA9A9" points="759.239,535.728 661.715,535.728 667.862,487.271 753.091,487.271 	"/>
	<path opacity="0.1" enable-background="new    " d="M1130.459,548.826c0,3.816-206.848,6.907-461.988,6.907
		c-255.163,0-462.014-3.091-462.014-6.907c0-3.814,206.851-6.904,462.014-6.904C923.611,541.922,1130.459,545.012,1130.459,548.826z
		"/>
	<polygon fill="#BABABA" points="800.556,548.826 620.4,548.826 626.547,535.728 794.412,535.728 	"/>
	<polygon opacity="0.1" enable-background="new    " points="667.867,487.271 753.094,487.271 755.122,503.263 665.836,503.263 	"/>
	<polygon opacity="0.3" fill="#FFFFFF" enable-background="new    " points="626.547,535.728 624.758,539.543 795.306,535.728 	"/>
	<g>
		<path fill="#FF9900" d="M893.786,547.444c0,0,6.614,10.053,27.291,10.668c0,0,16.251,0.021,23.602-6.996
			c0.611-0.579,0.583-1.021,0.43-1.312c-0.115-0.22-0.363-0.447-0.866-0.23c0,0-8.786,4.229-23.021,4.599
			c0,0-12.738-0.176-26.801-7.562c-0.211-0.108-0.69-0.252-0.871-0.091C893.407,546.652,893.489,547.023,893.786,547.444z"/>
		<path fill="#FF9900" d="M939.876,547.937c0,0,5.717-0.902,7.382,0.233c0,0,0.247,0.209,0.281,0.537
			c0.091,0.772-0.197,2.604-1.966,6.74c0,0,0.099,0.771,0.827,0.152c1.698-1.445,4.018-5.813,3.905-8.452
			c-0.021-0.436,0.002-0.702-0.403-0.99c0,0-4.359-2.28-10.031,0.938C939.597,547.252,939.171,547.749,939.876,547.937z"/>
		<path fill="#191919" d="M946.525,532.443c0,0-4.325-3.665-3.98-10.608l-0.008-20.891c0,0,1.203-18.209-21.635-18.197
			c0,0-18.802-0.879-22.356,15.23c0,0-0.914,2.356,1.019,3.041l10.593,1.212c0,0,1.28,0.102,1.747-1.554
			c0,0,0.522-6.408,8.587-6.719c8.057-0.321,7.234,9.198,7.22,11.764c0,0-30.828-1.904-31.132,20.941
			c-0.306,22.852,27.372,18.678,33.228,8.784c0,0,3.392,5.262,5.605,6.66c0,0,1.488,1.461,3.414-0.229l7.658-6.622
			C946.483,535.257,947.726,534.073,946.525,532.443z M911.986,524.837c0.111-12.227,15.724-10.639,15.724-10.639
			C929.811,536.221,911.879,537.057,911.986,524.837z"/>
	</g>
	<path opacity="0.1" enable-background="new    " d="M722.461,464.117c0,6.619-5.36,11.985-11.982,11.985
		c-6.616,0-11.985-5.366-11.985-11.985c0-6.615,5.369-11.984,11.985-11.984C717.101,452.133,722.461,457.502,722.461,464.117z"/>
	<g enable-background="new    ">
		<path fill="#C2E812" d="M794.237,290.342h-4.211v-4.187h4.211v-4.287h4.337v4.287h4.212v4.187h-4.212v4.287h-4.337V290.342z"/>
		<path fill="#C2E812" d="M811.733,296.972c-1.229-0.133-2.422-0.407-3.576-0.822c-1.155-0.415-2.205-0.964-3.152-1.646l2.242-3.314
			c0.798,0.565,1.574,1.014,2.33,1.346c0.756,0.333,1.525,0.565,2.307,0.698v-2.991c-0.998-0.232-1.874-0.498-2.63-0.797
			c-0.757-0.3-1.388-0.661-1.894-1.085c-0.508-0.423-0.89-0.917-1.146-1.482c-0.258-0.564-0.387-1.237-0.387-2.019v-0.05
			c0-0.731,0.133-1.404,0.398-2.019c0.266-0.615,0.652-1.15,1.159-1.608c0.507-0.456,1.13-0.826,1.869-1.108
			s1.583-0.457,2.529-0.523v-1.421h2.593v1.495c1.029,0.117,1.977,0.341,2.841,0.673c0.863,0.333,1.669,0.757,2.417,1.271
			l-2.043,3.34c-0.516-0.365-1.06-0.673-1.633-0.922c-0.573-0.25-1.143-0.44-1.707-0.573v2.891c0.996,0.232,1.865,0.503,2.604,0.81
			c0.74,0.308,1.359,0.673,1.857,1.097s0.873,0.927,1.121,1.508c0.25,0.582,0.375,1.255,0.375,2.02v0.05
			c0,0.764-0.143,1.449-0.424,2.056c-0.283,0.606-0.682,1.134-1.197,1.583c-0.515,0.448-1.134,0.806-1.856,1.071
			s-1.524,0.44-2.405,0.523v2.442h-2.592V296.972z M811.908,283.189c-0.615,0.05-1.052,0.187-1.309,0.411
			c-0.258,0.225-0.386,0.503-0.386,0.835v0.05c0,0.333,0.111,0.603,0.336,0.81c0.225,0.208,0.677,0.403,1.358,0.586V283.189z
			 M814.226,293.383c1.113-0.116,1.67-0.54,1.67-1.271v-0.05c0-0.332-0.116-0.606-0.349-0.822c-0.233-0.216-0.673-0.415-1.321-0.598
			V293.383z"/>
		<path fill="#C2E812" d="M828.531,297.37c-1.546,0-2.883-0.249-4.013-0.747c-1.13-0.499-2.152-1.172-3.065-2.02l2.767-3.239
			c0.714,0.598,1.412,1.063,2.094,1.396c0.681,0.332,1.395,0.498,2.143,0.498c0.798,0,1.425-0.183,1.882-0.548
			s0.686-0.864,0.686-1.495v-0.05c0-0.632-0.237-1.126-0.71-1.483c-0.475-0.357-1.094-0.536-1.857-0.536
			c-0.531,0-1.025,0.084-1.482,0.25s-0.894,0.373-1.309,0.623l-2.866-1.596l0.499-8.848h11.664v3.988h-7.852l-0.149,2.642
			c0.399-0.183,0.818-0.332,1.259-0.448c0.439-0.116,0.951-0.175,1.533-0.175c0.78,0,1.532,0.112,2.255,0.336
			c0.723,0.225,1.358,0.562,1.907,1.01c0.548,0.448,0.988,1.021,1.32,1.72s0.498,1.521,0.498,2.468v0.05
			c0,0.98-0.178,1.853-0.535,2.616c-0.357,0.765-0.852,1.413-1.483,1.944c-0.632,0.532-1.388,0.938-2.268,1.221
			C830.566,297.229,829.595,297.37,828.531,297.37z"/>
	</g>
	<g>
		<path fill="#EAB8A9" d="M373.684,524.289c0,0,3.775,3.974,2.529,7.411l-1.495,8.522l5.047,7.735l8.517-2.105l1.249-5.786
			l-1.249-5.942l-2.35-11.73l0,0l-0.934-13.765l11.728-49.571l-2.192-10.011l2.192-18.144l2.185-23.456l-25.226-4.067l-1.825,67.246
			l-2.974,41.607C368.885,512.233,361.587,513.83,373.684,524.289z"/>
		<path opacity="0.15" fill="#1E1E1E" enable-background="new    " d="M397.411,423.541l-14.14-4.017c0,0-5.829-0.59-10.009-0.59
			l-0.32,11.7h23.807L397.411,423.541z"/>
		<polygon fill="#705746" points="386.725,519.274 371.7,521.221 373.104,524.083 386.725,522.408 		"/>
		<path fill="#FCC6B1" d="M375.572,517.482l-1.521-6.154l0,0l11.907-60.158l-1.882-3.897l3.041-8.888l-3.01-31.254
			c0,0-18.14-14.493-28.674,0l13.556,31.299l0,0l-3.438,10.095l-0.71,63.11l-9.407,27.494l1.565,4.898l7.716,4.799l6.673-8.963
			l-0.113-6.511L375.572,517.482z"/>
		<path fill="#FCC6B1" d="M407.346,258.822c-3.76-0.961-6.417,4.479-6.417,4.479l-2.413,14.729l7.641,13.333l4.509-10.366
			l40.794,6.683l36.652-50.7l11.981,2.085l16.823-6.441l1.316-5.909c0,0-18.768,4.794-23.146,2.501
			c-4.383-2.295-9.854-0.701-9.854-0.701l-5.164,4.765l-29.708,36.541L407.346,258.822"/>
		<path fill="#FCC6B1" d="M358.042,256.015c0,0,6.179,21.763,18.018,22.015c0,0,19.247-0.953,19.646-22.693l-14.396-2.508
			l-0.942-8.346h-11.188l-0.514,8.408L358.042,256.015z"/>
		<path opacity="0.15" fill="#1E1E1E" enable-background="new    " d="M380.51,245.782l-9.722-0.488c0,0-0.77,0.004-1.667,0.147
			l-0.258,4.211h12.089L380.51,245.782z"/>
		<path opacity="0.15" fill="#1E1E1E" enable-background="new    " d="M385.357,420.119l-2.086-0.595c0,0-13.188-1.35-14.118,0
			c-0.563,0.817-5.031,1.029-6.927,3.296l3.951,9.122h20.316L385.357,420.119z"/>
		<g>
			<g>
				<path fill="#D81E5B" d="M407.265,350.909l-8.749-26.241l9.807-36.43c0,0-10.372-9.779-0.281-30.773l-14.061-3.051
					c-0.537,23.615-17.631,23.615-17.631,23.615c-11.835-0.252-17.909-23.272-17.909-23.272l-12.949,3.129l-1.298,29.762
					l10.776,37.693l-8.514,28.096c0,0-3.292,29.147,7.925,75.172h50.394C404.774,428.608,413.398,377.859,407.265,350.909z"/>
			</g>
		</g>
		<path fill="#634742" d="M407.001,204.658c0,0,12.121,40.891-23.226,39.035C383.775,243.693,374.488,193.479,407.001,204.658z"/>
		<path fill="#FCC6B1" d="M402.057,216.505c0,0,9.953-1.342,10.299-16.269c0,0-0.006-10.297-11.166-8.806L402.057,216.505z"/>
		<path fill="#634742" d="M344.229,204.658c0,0-12.114,40.891,23.235,39.035C367.464,243.693,376.747,193.479,344.229,204.658z"/>
		<path fill="#FCC6B1" d="M347.955,216.158c0,0-10.023-0.671-11.371-15.537c0,0-0.697-10.274,10.541-9.537L347.955,216.158z"/>
		<path fill="#FFD0BB" d="M348.887,223.779l7.116,12.993l11.462,11.531h14.882l12.257-11.531l6.318-11.023l8.157-44.608
			c0,0,0.098-19.701-32.83-21.575c-26.256-1.493-35.522,18.292-35.522,18.292L348.887,223.779z"/>
		<polygon fill="#634742" points="406.515,195.892 402.637,216.379 402.379,189.1 		"/>
		<polygon fill="#634742" points="342.263,195.892 347.955,217.668 346.399,189.1 		"/>
		<path fill="#634742" d="M365.462,162.855c0,0,3.229,21.781,22.628,26.316c0,0-4.189-5.273-5.29-13.244
			C382.801,175.928,368.028,162.785,365.462,162.855z"/>
		<path fill="#634742" d="M342.263,195.892c0,0,16.545-9.549,23.199-33.036c0,0,30.205,30.268,43.617,34.155
			c0,0,8.174-24.142-5.876-37.627c-5.972-5.727-23.395-13.75-38.744-2.74c0,0-18.527-4.728-25.277,12.147
			C336.828,174.671,336.578,187.218,342.263,195.892z"/>
		<path fill="#E9DFD6" d="M410.866,172.001"/>
		<path fill="#1E1E1E" d="M391.395,203.894c0,2.969-1.672,5.374-3.747,5.374c-2.066,0-3.747-2.405-3.747-5.374
			c0-2.967,1.68-5.374,3.747-5.374C389.723,198.52,391.395,200.927,391.395,203.894z"/>
		<ellipse fill="#1E1E1E" cx="362.275" cy="203.894" rx="3.752" ry="5.374"/>
		<polygon opacity="0.15" fill="#1E1E1E" enable-background="new    " points="370.459,219.569 379.35,219.569 374.943,223.363 		
			"/>
		<path fill="#634742" d="M382.478,193.042l0.818-3.942c0,0,16.425,2.938,14.814,12.628
			C398.11,201.728,393.979,192.184,382.478,193.042z"/>
		<path fill="#634742" d="M366.394,193.042l-0.814-3.942c0,0-16.42,2.938-14.816,12.628
			C350.762,201.728,354.9,192.184,366.394,193.042z"/>
		<path fill="#1E1E1E" d="M359.505,202.669c0,0-2.742,1.076-4.703-1.567c0,0,0.685,3.368,4.703,3.368
			C359.505,204.47,360.302,203.138,359.505,202.669z"/>
		<path fill="#1E1E1E" d="M390.705,202.669c0,0,2.741,1.076,4.707-1.567c0,0-0.688,3.368-4.707,3.368
			C390.705,204.47,389.914,203.138,390.705,202.669z"/>
		<path fill="#F7F7F9" d="M364.459,202.148c0,0.579-0.374,1.045-0.84,1.045c-0.464,0-0.843-0.466-0.843-1.045
			c0-0.574,0.379-1.047,0.843-1.047C364.085,201.102,364.459,201.574,364.459,202.148z"/>
		<path fill="#F7F7F9" d="M390.064,202.148c0,0.579-0.381,1.045-0.848,1.045c-0.461,0-0.838-0.466-0.838-1.045
			c0-0.574,0.377-1.047,0.838-1.047C389.684,201.102,390.064,201.574,390.064,202.148z"/>
		<path fill="#FFFFFF" d="M366.027,229.932c0,0,9.187,3.353,16.939,0C382.968,229.932,380.194,246.497,366.027,229.932z"/>
		<path opacity="0.1" fill="#F7F7F9" enable-background="new    " d="M370.075,157.667c0,0,13.312-5.935,25.631,0.852
			c0,0,11.64,5.214,12.654,21.849c0,0-5.407-12.985-15.184-17.625C382.05,157.459,370.075,157.667,370.075,157.667z"/>
		<path fill="#FCC6B1" d="M319,288.268l-12.736,23.514l38.741,30.965l2.604,1.562l8.55-7.295l7.193-1.875
			c0,0,5.839,1.981,7.193-0.833l-6.463-1.773l-5.004,0.525l5.63-2.404c0,0,6.355,2.404,8.133-0.939l-7.615-1.77l-4.795,0.627
			l4.694-1.93c0,0,6.675,2.448,8.237-1.72l-7.822-1.253l-8.029,1.773l4.069-4.278c0,0,6.672-0.311,5.834-4.378l-8.754,2.509
			l-6.363,5.627l-6.88,7.504l-19.293-24.239l16.212-22.696l1.857,2.948c0,0,8.571-8.121,7.729-21.324c0,0-0.563-9.48-7.729-8.127
			C344.193,258.986,334.315,260.426,319,288.268z"/>
		<polygon fill="#7C614C" points="361.186,517.823 376.213,519.767 374.807,522.637 361.186,520.949 		"/>
		<path fill="#7C614C" d="M355.433,540.971c0,0,9.1-0.128,12.965,3.56l3.303-4.194l-0.313-3.808l-14.608-2.152l-2.028,4.631
			L355.433,540.971z"/>
		<path fill="#705746" d="M390.029,541.118c0,0-9.217,0.136-12.936,3.661l-2.665-4.273l0.302-3.647l14.01-2.076l1.95,4.445
			L390.029,541.118z"/>
	</g>
	<g>
		<g>
			<path fill="#3A57A0" d="M915.627,200.02h-6.428c-0.439,0-0.815,0.319-0.886,0.755l-2.596,16.492
				c-0.053,0.326,0.196,0.616,0.523,0.616h3.073c0.439,0,0.814-0.323,0.887-0.754l0.699-4.452c0.07-0.432,0.443-0.751,0.881-0.751
				h2.035c4.24,0,6.684-2.046,7.325-6.114c0.283-1.773,0.011-3.169-0.827-4.147C919.403,200.589,917.779,200.02,915.627,200.02z
				 M916.376,206.043c-0.354,2.307-2.115,2.307-3.822,2.307h-0.972l0.682-4.309c0.037-0.261,0.269-0.453,0.531-0.453h0.439
				c1.167,0,2.261,0,2.828,0.661C916.399,204.642,916.501,205.232,916.376,206.043z"/>
			<path fill="#3A57A0" d="M934.852,205.968h-3.074c-0.264,0-0.493,0.195-0.532,0.454l-0.135,0.861l-0.22-0.313
				c-0.666-0.968-2.15-1.289-3.637-1.289c-3.398,0-6.309,2.575-6.876,6.191c-0.292,1.804,0.124,3.528,1.151,4.73
				c0.938,1.104,2.279,1.566,3.879,1.566c2.739,0,4.257-1.762,4.257-1.762l-0.134,0.856c-0.057,0.329,0.202,0.619,0.53,0.619h2.771
				c0.441,0,0.815-0.323,0.882-0.759l1.665-10.537C935.433,206.262,935.186,205.968,934.852,205.968z M930.563,211.96
				c-0.298,1.76-1.694,2.946-3.475,2.946c-0.894,0-1.609-0.289-2.065-0.835c-0.454-0.539-0.632-1.308-0.488-2.162
				c0.282-1.748,1.702-2.967,3.453-2.967c0.878,0,1.586,0.291,2.055,0.839C930.509,210.336,930.695,211.111,930.563,211.96z"/>
			<path fill="#3A57A0" d="M951.254,205.968h-3.094c-0.294,0-0.571,0.147-0.74,0.396l-4.266,6.28l-1.811-6.038
				c-0.114-0.375-0.47-0.639-0.857-0.639h-3.036c-0.376,0-0.633,0.364-0.514,0.71l3.409,10.003l-3.206,4.521
				c-0.253,0.357,0,0.847,0.436,0.847h3.096c0.29,0,0.564-0.139,0.732-0.384l10.29-14.854
				C951.946,206.452,951.69,205.968,951.254,205.968z"/>
			<path fill="#17DCD7" d="M961.502,200.02h-6.43c-0.44,0-0.816,0.319-0.889,0.755l-2.593,16.492
				c-0.057,0.326,0.193,0.616,0.523,0.616h3.298c0.308,0,0.568-0.228,0.619-0.528l0.733-4.678c0.07-0.432,0.449-0.755,0.887-0.755
				h2.033c4.234,0,6.685-2.048,7.32-6.11c0.289-1.773,0.013-3.169-0.821-4.149C965.274,200.589,963.652,200.02,961.502,200.02z
				 M962.247,206.043c-0.358,2.307-2.118,2.307-3.822,2.307h-0.975l0.685-4.309c0.046-0.261,0.264-0.453,0.531-0.453h0.445
				c1.158,0,2.251,0,2.817,0.661C962.265,204.642,962.372,205.232,962.247,206.043z"/>
			<path fill="#17DCD7" d="M980.72,205.968h-3.078c-0.256,0-0.48,0.195-0.523,0.454l-0.141,0.861l-0.216-0.313
				c-0.663-0.968-2.15-1.289-3.632-1.289c-3.404,0-6.307,2.575-6.878,6.191c-0.296,1.804,0.125,3.528,1.145,4.73
				c0.946,1.104,2.284,1.566,3.882,1.566c2.743,0,4.266-1.762,4.266-1.762l-0.14,0.856c-0.059,0.329,0.206,0.619,0.525,0.619h2.773
				c0.443,0,0.813-0.323,0.885-0.759l1.665-10.537C981.307,206.262,981.057,205.968,980.72,205.968z M976.43,211.96
				c-0.299,1.76-1.688,2.946-3.472,2.946c-0.892,0-1.612-0.289-2.069-0.835c-0.457-0.539-0.632-1.308-0.483-2.162
				c0.277-1.748,1.695-2.967,3.451-2.967c0.877,0,1.584,0.291,2.055,0.839C976.385,210.336,976.565,211.111,976.43,211.96z"/>
			<path fill="#17DCD7" d="M984.354,200.474l-2.645,16.793c-0.046,0.326,0.201,0.616,0.534,0.616h2.662
				c0.434,0,0.806-0.323,0.87-0.754l2.604-16.492c0.052-0.325-0.195-0.617-0.523-0.617h-2.972
				C984.619,200.02,984.398,200.214,984.354,200.474z"/>
		</g>
		<g>
			<path fill="#253B80" d="M938.611,192.553l0.798-5.08l-1.778-0.041h-8.504l5.91-37.451c0.021-0.112,0.078-0.218,0.167-0.295
				c0.083-0.076,0.2-0.117,0.314-0.117h14.329c4.759,0,8.041,0.992,9.759,2.944c0.802,0.919,1.316,1.875,1.561,2.934
				c0.26,1.101,0.267,2.422,0.011,4.034l-0.021,0.119v1.033l0.808,0.454c0.677,0.361,1.212,0.774,1.629,1.242
				c0.682,0.778,1.133,1.78,1.316,2.957c0.194,1.218,0.135,2.662-0.185,4.298c-0.372,1.884-0.962,3.519-1.766,4.868
				c-0.731,1.231-1.676,2.259-2.783,3.055c-1.063,0.751-2.328,1.327-3.759,1.688c-1.38,0.364-2.962,0.544-4.693,0.544h-1.115
				c-0.791,0-1.57,0.287-2.176,0.801c-0.612,0.53-1.014,1.246-1.138,2.036l-0.087,0.454l-1.408,8.943l-0.066,0.323
				c-0.017,0.116-0.047,0.164-0.089,0.195c-0.038,0.033-0.087,0.056-0.146,0.056h-6.887L938.611,192.553L938.611,192.553z"/>
			<path fill="#17DCD7" d="M962.722,159.721L962.722,159.721L962.722,159.721c-0.04,0.273-0.092,0.553-0.141,0.84
				c-1.896,9.699-8.36,13.058-16.621,13.058h-4.201c-1.009,0-1.86,0.729-2.018,1.727l0,0l0,0L937.59,189l-0.609,3.865
				c-0.105,0.656,0.401,1.247,1.063,1.247h7.455c0.886,0,1.637-0.639,1.771-1.514l0.07-0.375l1.407-8.914l0.091-0.491
				c0.141-0.872,0.891-1.512,1.771-1.512h1.114c7.229,0,12.88-2.933,14.534-11.424c0.688-3.546,0.331-6.508-1.495-8.587
				C964.207,160.665,963.528,160.145,962.722,159.721z"/>
			<path fill="#222D65" d="M960.75,158.933c-0.292-0.085-0.593-0.161-0.896-0.233c-0.309-0.063-0.619-0.122-0.943-0.177
				c-1.136-0.185-2.378-0.271-3.707-0.271h-11.235c-0.274,0-0.537,0.067-0.771,0.177c-0.52,0.251-0.907,0.739-0.998,1.341
				l-2.391,15.134l-0.065,0.442c0.156-0.997,1.009-1.727,2.018-1.727h4.201c8.261,0,14.727-3.358,16.621-13.058
				c0.049-0.287,0.101-0.566,0.141-0.84c-0.475-0.253-0.991-0.474-1.552-0.659C961.036,159.019,960.89,158.972,960.75,158.933z"/>
			<path fill="#3A57A0" d="M942.197,159.769c0.091-0.602,0.479-1.09,0.998-1.341c0.237-0.109,0.496-0.17,0.771-0.17h11.235
				c1.329,0,2.57,0.08,3.707,0.265c0.324,0.055,0.636,0.114,0.943,0.177c0.305,0.072,0.604,0.15,0.893,0.233
				c0.145,0.039,0.289,0.086,0.428,0.129c0.557,0.186,1.074,0.406,1.549,0.659c0.565-3.592,0-6.034-1.938-8.241
				c-2.145-2.435-5.996-3.475-10.937-3.475h-14.325c-1.013,0-1.871,0.73-2.025,1.729l-5.973,37.841
				c-0.117,0.748,0.462,1.425,1.215,1.425h8.851l2.217-14.097L942.197,159.769z"/>
		</g>
	</g>
	<g>
		<rect x="505.497" y="489.451" fill="#E2E2E2" width="12.146" height="34.381"/>
		<g>
			<rect x="478.471" y="489.451" fill="#E2E2E2" width="12.148" height="34.381"/>
		</g>
		<g>
			<rect x="532.53" y="489.451" fill="#E2E2E2" width="12.139" height="34.381"/>
		</g>
		<rect x="470.453" y="521.998" fill="#E2E2E2" width="82.234" height="5.102"/>
		<path fill="#E2E2E2" d="M511.574,455.137l-41.121,24.681v9.635h82.234v-9.635L511.574,455.137z"/>
		<g>
			<path fill="#49C6E5" d="M486.071,472.719v5.904l12.796-12.6l-12.796-10.6v5.597c0,0-27.992,0.397-27.992,32.793
				C458.079,493.813,463.97,468.719,486.071,472.719z"/>
			<path fill="#49C6E5" d="M457.204,501.318v-7.505c0-17.145,7.846-25.386,14.425-29.29c5.755-3.42,11.448-4.164,13.574-4.327
				v-6.628l14.962,12.396l-14.962,14.729v-7.238c-1.289-0.198-2.552-0.296-3.762-0.296c-17.414,0-22.476,20.648-22.521,20.854
				L457.204,501.318z M486.944,457.272v4.606l-0.861,0.014c-0.07,0-6.903,0.151-13.63,4.162
				c-7.556,4.507-11.973,11.848-13.17,21.869c2.965-6.573,9.537-16.509,22.157-16.509c1.538,0,3.148,0.152,4.783,0.446l0.721,0.127
				v4.556l10.625-10.472L486.944,457.272z"/>
		</g>
		<g>
			<path fill="#49C6E5" d="M526.947,517.817v-5.9l-12.798,12.601l12.798,10.601v-5.604c0,0,27.988-0.396,27.988-32.79
				C554.936,496.725,549.039,521.816,526.947,517.817z"/>
			<path fill="#49C6E5" d="M527.814,536.967l-14.971-12.396l14.971-14.728v7.239c1.284,0.194,2.545,0.299,3.758,0.299
				c17.406,0,22.469-20.649,22.516-20.857l1.719-7.301v7.501c0,17.144-7.844,25.394-14.424,29.294
				c-5.758,3.414-11.452,4.161-13.567,4.323L527.814,536.967L527.814,536.967z M515.442,524.465l10.631,8.798v-4.602l0.854-0.016
				c0.069,0,6.905-0.157,13.628-4.161c7.554-4.505,11.974-11.85,13.176-21.871c-2.976,6.58-9.538,16.512-22.158,16.512
				c-1.541,0-3.154-0.154-4.786-0.451l-0.715-0.131v-4.554L515.442,524.465z"/>
		</g>
		<path fill="#FFFFFF" d="M511.572,465.964c5.506,0,9.969,4.464,9.969,9.97c0,5.507-4.462,9.973-9.969,9.973
			c-5.51,0-9.976-4.466-9.976-9.973C501.597,470.428,506.063,465.964,511.572,465.964z"/>
		<g>
			<path fill="#8DC249" d="M510.996,481.326c-0.813-0.084-1.602-0.262-2.36-0.542c-0.763-0.269-1.455-0.631-2.08-1.081l1.482-2.191
				c0.521,0.375,1.038,0.67,1.535,0.891c0.5,0.222,1.004,0.375,1.523,0.46v-1.974c-0.664-0.153-1.24-0.323-1.733-0.521
				c-0.505-0.203-0.921-0.438-1.252-0.724c-0.337-0.275-0.596-0.605-0.762-0.978c-0.17-0.369-0.251-0.814-0.251-1.33v-0.033
				c0-0.484,0.087-0.926,0.263-1.332c0.177-0.404,0.431-0.762,0.763-1.066c0.337-0.299,0.748-0.542,1.24-0.727
				c0.487-0.189,1.04-0.301,1.667-0.348v-0.939h1.711v0.988c0.678,0.08,1.302,0.229,1.875,0.44c0.566,0.224,1.105,0.507,1.595,0.844
				l-1.349,2.207c-0.344-0.245-0.697-0.441-1.079-0.609c-0.38-0.17-0.75-0.289-1.128-0.382v1.91
				c0.659,0.152,1.229,0.334,1.721,0.534c0.485,0.205,0.9,0.441,1.229,0.724c0.327,0.278,0.573,0.611,0.739,0.998
				c0.162,0.385,0.242,0.83,0.242,1.331v0.034c0,0.506-0.09,0.955-0.275,1.354c-0.187,0.401-0.455,0.747-0.791,1.044
				c-0.342,0.299-0.747,0.531-1.226,0.712c-0.477,0.172-1.009,0.287-1.587,0.345v1.613h-1.715v-1.652H510.996z M511.114,472.227
				c-0.406,0.038-0.7,0.132-0.872,0.271c-0.167,0.152-0.251,0.339-0.251,0.557v0.031c0,0.224,0.077,0.395,0.221,0.539
				c0.147,0.135,0.448,0.26,0.901,0.388L511.114,472.227L511.114,472.227z M512.642,478.957c0.735-0.074,1.1-0.354,1.1-0.836v-0.032
				c0-0.219-0.075-0.4-0.231-0.541c-0.147-0.147-0.442-0.278-0.868-0.396V478.957z"/>
		</g>
	</g>
	<polygon opacity="0.08" fill="#FFFFFF" enable-background="new    " points="953.644,207.772 477.861,439.699 467.31,207.772 
		481.269,193.04 939.682,193.04 	"/>
	<g opacity="0.5">
		<rect x="980.896" y="284.385" fill="#FFFFFF" width="1.613" height="8.447"/>
		<rect x="977.48" y="287.802" fill="#FFFFFF" width="8.446" height="1.613"/>
	</g>
	<g opacity="0.3">
		<rect x="980.896" y="284.385" fill="#FFFFFF" width="1.613" height="8.447"/>
		<rect x="977.48" y="287.802" fill="#FFFFFF" width="8.446" height="1.613"/>
	</g>
	<g opacity="0.65">
		<rect x="1048.651" y="439.699" fill="#FFFFFF" width="1.613" height="8.446"/>
		<rect x="1045.234" y="443.116" fill="#FFFFFF" width="8.446" height="1.611"/>
	</g>
	<g opacity="0.3">
		<rect x="971.825" y="464.668" fill="#FFFFFF" width="1.614" height="8.446"/>
		<rect x="968.409" y="468.086" fill="#FFFFFF" width="8.446" height="1.612"/>
	</g>
	<g opacity="0.5">
		<rect x="447.484" y="426.413" fill="#FFFFFF" width="1.612" height="8.446"/>
		<rect x="444.067" y="429.83" fill="#FFFFFF" width="8.445" height="1.613"/>
	</g>
	<g opacity="0.65">
		<rect x="448.29" y="197.924" fill="#FFFFFF" width="1.613" height="8.446"/>
		<rect x="444.874" y="201.341" fill="#FFFFFF" width="8.445" height="1.613"/>
	</g>
	<g opacity="0.3">
		<rect x="423.89" y="308.31" fill="#FFFFFF" width="2.26" height="11.822"/>
		<rect x="419.107" y="313.093" fill="#FFFFFF" width="11.822" height="2.258"/>
	</g>
	<g opacity="0.65">
		<rect x="945.945" y="419.427" fill="#FFFFFF" width="2.258" height="11.822"/>
		<rect x="941.163" y="424.21" fill="#FFFFFF" width="11.821" height="2.258"/>
	</g>
	<g opacity="0.3">
		<rect x="316.452" y="242.707" fill="#FFFFFF" width="1.613" height="8.447"/>
		<rect x="313.036" y="246.125" fill="#FFFFFF" width="8.447" height="1.612"/>
	</g>
	<g opacity="0.65">
		<rect x="1016.2" y="230.713" fill="#FFFFFF" width="3.098" height="16.218"/>
		<rect x="1009.64" y="237.273" fill="#FFFFFF" width="16.219" height="3.098"/>
	</g>
	<g opacity="0.4">
		<rect x="1008.092" y="394.019" fill="#FFFFFF" width="3.096" height="16.219"/>
		<rect x="1001.53" y="400.578" fill="#FFFFFF" width="16.218" height="3.097"/>
	</g>
	<g opacity="0.65">
		<rect x="468.904" y="390.903" fill="#FFFFFF" width="3.097" height="16.218"/>
		<rect x="462.343" y="397.464" fill="#FFFFFF" width="16.218" height="3.098"/>
	</g>
	<g opacity="0.5">
		<rect x="331.929" y="444.023" fill="#FFFFFF" width="3.099" height="16.217"/>
		<rect x="325.369" y="450.583" fill="#FFFFFF" width="16.218" height="3.098"/>
	</g>
	<g opacity="0.65">
		<rect x="286.735" y="208.946" fill="#FFFFFF" width="3.097" height="16.218"/>
		<rect x="280.175" y="215.507" fill="#FFFFFF" width="16.217" height="3.097"/>
	</g>
	<polygon fill="#FFFFFF" points="838.463,210.473 842.375,222.214 833.021,227.016 843.199,224.05 849.051,234.831 845.224,223.48 
		854.258,218.383 844.213,221.349 	"/>
</g>
</svg>
