<svg xmlns="http://www.w3.org/2000/svg" xmlns:xlink="http://www.w3.org/1999/xlink" viewBox="0 0 435.49 298.05"><defs><style>.cls-1,.cls-2,.cls-3,.cls-4,.cls-5{fill:none;}.cls-2,.cls-3,.cls-4,.cls-5{stroke:#a3dd58;stroke-miterlimit:10;stroke-width:2.53px;}.cls-3{stroke-dasharray:3.79 3.79;}.cls-4{stroke-dasharray:3.81 3.81;}.cls-5{stroke-dasharray:3.78 3.78;}.cls-6{fill:#f2c897;}.cls-7{opacity:0.1;}.cls-8{fill:#3a3a3a;}.cls-30,.cls-9{fill:#fff;}.cls-10{fill:#8dc249;}.cls-11{fill:#e73b2f;}.cls-12{fill:#bfbfbf;}.cls-13{opacity:0.4;}.cls-14{clip-path:url(#clip-path);}.cls-15{clip-path:url(#clip-path-2);}.cls-16{fill:#383838;}.cls-17{fill:#262626;}.cls-18{fill:#db504a;}.cls-19{fill:#846535;}.cls-20{clip-path:url(#clip-path-3);}.cls-21{fill:#1b9aaa;}.cls-22{fill:#727272;}.cls-23,.cls-29{opacity:0.2;}.cls-24{fill:#808782;}.cls-25{clip-path:url(#clip-path-5);}.cls-26{fill:#111;}.cls-27{fill:#197278;}.cls-28{fill:#c2e812;}.cls-29{fill:#cecece;}.cls-30{opacity:0.05;}.cls-31,.cls-33{opacity:0.3;}.cls-32,.cls-33{fill:#fcb216;}</style><clipPath id="clip-path"><rect class="cls-1" x="33.83" y="244.17" width="8.92" height="8.92"/></clipPath><clipPath id="clip-path-2"><rect class="cls-1" x="33.83" y="244.17" width="8.92" height="8.92"/></clipPath><clipPath id="clip-path-3"><rect class="cls-1" x="399.42" y="244.17" width="8.92" height="8.92"/></clipPath><clipPath id="clip-path-5"><rect class="cls-1" x="200.52" y="268.7" width="24.48" height="24.47"/></clipPath></defs><title>share-link-img</title><g id="Layer_2" data-name="Layer 2"><g id="Layer_1-2" data-name="Layer 1"><line class="cls-2" x1="403.94" y1="194.47" x2="403.94" y2="192.57"/><line class="cls-3" x1="403.94" y1="188.78" x2="403.94" y2="130.05"/><polyline class="cls-2" points="403.94 128.16 403.94 126.26 402.04 126.26"/><line class="cls-4" x1="398.23" y1="126.26" x2="42.16" y2="126.26"/><polyline class="cls-2" points="40.25 126.26 38.35 126.26 38.35 128.16"/><line class="cls-5" x1="38.35" y1="131.94" x2="38.35" y2="190.53"/><line class="cls-2" x1="38.35" y1="192.42" x2="38.35" y2="194.32"/><rect class="cls-6" x="8.01" y="277.75" width="34.71" height="20.3"/><path class="cls-6" d="M59.92,211.31l5.81-1.93s4.74,9.58-6,14.45"/><path class="cls-6" d="M64.27,229l5.64,2.4s-2.79,10.32-14,6.88"/><path class="cls-6" d="M63.28,238.48l5.29,5.41s-4.56,6.16-11.16.92"/><path class="cls-6" d="M42.75,280.77s10.57-14.63,6.27-29H31.91l-.71,29Z"/><path class="cls-7" d="M37,255.36s2.37,7.75-5.75,25.41c0,0,13.84-12.48,12.32-29.77C43.52,251,36.48,253.51,37,255.36Z"/><path class="cls-8" d="M59.55,154H17.47a5,5,0,0,0-5.17,4.88l.28,41.78V250.5a5,5,0,0,0,5.16,4.86H59.28a4.71,4.71,0,0,0,4.85-4.86l.28-91.62A4.73,4.73,0,0,0,59.55,154"/><rect class="cls-9" x="16.68" y="166.89" width="43.36" height="74.41"/><rect class="cls-10" x="16.68" y="166.89" width="43.36" height="3.62"/><rect class="cls-11" x="19.76" y="189.18" width="8.31" height="2.88"/><rect class="cls-11" x="19.76" y="196.02" width="37.19" height="0.72"/><rect class="cls-12" x="19.76" y="199.5" width="8.31" height="2.88"/><rect class="cls-12" x="19.76" y="206.33" width="37.19" height="0.72"/><rect class="cls-12" x="19.76" y="209.81" width="8.31" height="2.88"/><rect class="cls-12" x="19.76" y="216.65" width="37.19" height="0.72"/><rect class="cls-12" x="19.76" y="220.13" width="8.31" height="2.88"/><rect class="cls-12" x="19.76" y="226.96" width="37.19" height="0.72"/><rect class="cls-12" x="16.68" y="235.51" width="43.36" height="5.79"/><g class="cls-13"><g class="cls-14"><g class="cls-15"><path class="cls-16" d="M33.83,248.63a4.46,4.46,0,1,1,4.46,4.47,4.46,4.46,0,0,1-4.46-4.47"/></g></g></g><path class="cls-17" d="M34.63,248.63a3.66,3.66,0,1,1,3.66,3.66,3.65,3.65,0,0,1-3.66-3.66"/><rect class="cls-17" x="33.93" y="162.2" width="8.85" height="1.21" rx="0.37" ry="0.37"/><path class="cls-17" d="M37.28,159.3a1.08,1.08,0,1,1,1.08,1.07,1.08,1.08,0,0,1-1.08-1.07"/><path class="cls-17" d="M31.36,162.83a.71.71,0,1,1,.7.7.7.7,0,0,1-.7-.7"/><path class="cls-6" d="M31.2,280.77H8L0,256.55l4.65-31,7.85-6.31.08,14.7,4.1-7.39,23.94-7s11.46,11-11.21,18.88L26.36,245s12.5,2.78,11.14,17.63a47.57,47.57,0,0,1-6.3,18.16"/><polygon class="cls-18" points="5.97 284.79 45.29 284.79 43.3 298.03 7.42 298.03 5.97 284.79"/><rect class="cls-10" x="19.76" y="174.42" width="37.19" height="10.98"/><rect class="cls-19" x="373.59" y="277.75" width="34.71" height="20.3"/><path class="cls-19" d="M425.5,211.31l5.81-1.93s4.75,9.58-5.94,14.45"/><path class="cls-19" d="M429.86,229l5.63,2.4s-2.78,10.32-14,6.88"/><path class="cls-19" d="M428.87,238.48l5.28,5.41s-4.55,6.16-11.15.92"/><path class="cls-19" d="M408.34,280.77s10.56-14.63,6.26-29H397.49l-.71,29Z"/><path class="cls-7" d="M402.53,255.36s2.37,7.75-5.75,25.41c0,0,13.85-12.48,12.32-29.77C409.1,251,402.07,253.51,402.53,255.36Z"/><path class="cls-8" d="M425.14,154H383.05a5,5,0,0,0-5.17,4.88l.28,41.78V250.5a5,5,0,0,0,5.17,4.86h41.53a4.71,4.71,0,0,0,4.86-4.86l.28-91.62a4.74,4.74,0,0,0-4.86-4.88"/><rect class="cls-9" x="382.26" y="166.89" width="43.36" height="74.41"/><rect class="cls-10" x="382.26" y="166.89" width="43.36" height="3.62"/><rect class="cls-11" x="385.35" y="189.18" width="8.31" height="2.88"/><rect class="cls-11" x="385.35" y="196.02" width="37.19" height="0.72"/><rect class="cls-12" x="385.35" y="199.5" width="8.31" height="2.88"/><rect class="cls-12" x="385.35" y="206.33" width="37.19" height="0.72"/><rect class="cls-12" x="385.35" y="209.81" width="8.31" height="2.88"/><rect class="cls-12" x="385.35" y="216.65" width="37.19" height="0.72"/><rect class="cls-12" x="385.35" y="220.13" width="8.31" height="2.88"/><rect class="cls-12" x="385.35" y="226.96" width="37.19" height="0.72"/><rect class="cls-12" x="382.26" y="235.51" width="43.36" height="5.79"/><g class="cls-13"><g class="cls-20"><g class="cls-20"><path class="cls-16" d="M399.42,248.63a4.46,4.46,0,1,1,4.46,4.47,4.46,4.46,0,0,1-4.46-4.47"/></g></g></g><path class="cls-17" d="M400.22,248.63a3.66,3.66,0,1,1,3.66,3.66,3.65,3.65,0,0,1-3.66-3.66"/><path class="cls-17" d="M408.36,163a.37.37,0,0,1-.37.37h-8.1a.37.37,0,0,1-.37-.37v-.46a.37.37,0,0,1,.37-.38H408a.37.37,0,0,1,.37.38Z"/><path class="cls-17" d="M402.87,159.3a1.07,1.07,0,1,1,1.07,1.07,1.07,1.07,0,0,1-1.07-1.07"/><path class="cls-17" d="M396.94,162.83a.71.71,0,0,1,1.42,0,.71.71,0,0,1-1.42,0"/><path class="cls-19" d="M396.78,280.77H373.59l-8-24.22,4.65-31,7.84-6.31.08,14.7,4.1-7.39,23.95-7s11.46,11-11.21,18.88L392,245s12.5,2.78,11.13,17.63a47.57,47.57,0,0,1-6.3,18.16"/><polygon class="cls-21" points="371.56 284.79 410.88 284.79 408.89 298.03 373 298.03 371.56 284.79"/><rect class="cls-10" x="385.35" y="174.42" width="37.19" height="10.98"/><polygon class="cls-22" points="140.62 79.04 137.16 78.16 137.68 93.76 140.62 93.76 140.62 79.04"/><polygon class="cls-22" points="140.62 97.95 137.16 97.07 137.68 112.68 140.62 112.68 140.62 97.95"/><polygon class="cls-22" points="285.68 60.56 288.77 59.35 288.31 80.75 285.68 80.75 285.68 60.56"/><polygon class="cls-23" points="284.67 60.51 285.97 60 285.97 80.75 284.62 80.75 284.67 60.51"/><polygon class="cls-22" points="139.66 50.72 137.18 50.25 137.55 58.51 139.66 58.51 139.66 50.72"/><path class="cls-24" d="M164,298.05H271c7.8,0,14.64-5.71,14.64-13.5l.76-254.3c0-7.8-6.84-13.56-14.63-13.56H155c-7.8,0-15.49,5.76-15.49,13.56l.77,115.94V284.55c0,7.79,7.69,13.5,15.48,13.5Z"/><path class="cls-8" d="M271.11,18.28H155.6c-7.7,0-14.18,5.7-14.18,13.4l.76,114.64V283.11c0,7.7,6.47,13.35,14.18,13.35h114a12.94,12.94,0,0,0,13.33-13.35l.76-251.43a13,13,0,0,0-13.33-13.4"/><g class="cls-13"><g class="cls-25"><g class="cls-25"><path class="cls-22" d="M201.71,280.94a11,11,0,1,1,11,11.05,11,11,0,0,1-11-11.05"/></g></g></g><path class="cls-26" d="M203.27,280.94a9.49,9.49,0,1,1,9.49,9.49,9.49,9.49,0,0,1-9.49-9.49"/><path class="cls-8" d="M203.27,280.94a9.49,9.49,0,1,1,9.49,9.49,9.49,9.49,0,0,1-9.49-9.49"/><rect class="cls-27" x="149.77" y="49.25" width="126.33" height="213.76"/><path class="cls-28" d="M252.4,156.13a39.47,39.47,0,1,1-39.47-39.47A39.47,39.47,0,0,1,252.4,156.13Z"/><polygon class="cls-9" points="202.37 162.75 203.24 167.11 207.41 167.38 223.88 149.18 223.62 144.85 218.85 144.89 202.37 162.75"/><polygon class="cls-9" points="208.32 153.32 196.93 166.39 197.72 171.8 204.44 172.67 216.13 160.45 217.35 168.05 207.15 178.87 192.33 177.63 190.44 162.6 201.47 151.29 208.32 153.32"/><polygon class="cls-9" points="209.17 152.6 221.55 139.68 227.07 140.45 228.27 146.14 216.83 159.49 226 159.49 235.42 147.88 232.54 134.97 217.35 133.4 207.58 143.7 209.17 152.6"/><polygon class="cls-9" points="182.54 110.78 178.6 128.22 161.23 129.23 179.02 132.26 180.6 150.59 184.28 132.21 200.79 129.92 184.21 127.25 182.54 110.78"/><rect class="cls-29" x="149.77" y="263.01" width="126.33" height="1.54"/><rect class="cls-17" x="200.79" y="35.73" width="24.29" height="3.31" rx="1.02" ry="1.02"/><path class="cls-17" d="M210.92,27.87a2,2,0,1,1,2,2,2,2,0,0,1-2-2"/><path class="cls-17" d="M193.57,37.39a2.1,2.1,0,1,1,2.1,2.09,2.1,2.1,0,0,1-2.1-2.09"/><path class="cls-30" d="M280.33,21.79a13.31,13.31,0,0,0-9.22-3.51H155.6c-7.7,0-14.18,5.7-14.18,13.4l.76,114.64V283.11a13,13,0,0,0,7,11.56l131-272.1C280.28,22.3,280.31,22.06,280.33,21.79Z"/><g class="cls-31"><rect class="cls-32" x="310.96" y="45.49" width="1.82" height="9.52"/><rect class="cls-32" x="307.11" y="49.34" width="9.52" height="1.82"/></g><g class="cls-31"><rect class="cls-32" x="401.12" y="92.49" width="3.49" height="18.29"/><rect class="cls-32" x="393.73" y="99.89" width="18.28" height="3.49"/></g><g class="cls-31"><rect class="cls-32" x="59.25" width="3.49" height="18.28"/><rect class="cls-32" x="51.85" y="7.4" width="18.28" height="3.49"/></g><g class="cls-31"><rect class="cls-32" x="352.95" y="73.14" width="1.82" height="9.52"/><rect class="cls-32" x="349.1" y="77" width="9.52" height="1.82"/></g><g class="cls-31"><rect class="cls-32" x="26.14" y="95.97" width="1.82" height="9.52"/><rect class="cls-32" x="22.29" y="99.82" width="9.52" height="1.82"/></g><g class="cls-31"><rect class="cls-32" x="315.73" y="146.61" width="1.82" height="9.52"/><rect class="cls-32" x="311.87" y="150.46" width="9.52" height="1.82"/></g><g class="cls-31"><rect class="cls-32" x="376" width="3.49" height="18.28"/><rect class="cls-32" x="368.6" y="7.4" width="18.29" height="3.49"/></g><path class="cls-33" d="M86,174.41c0,1-.8,2.41-1.77,2.41s-1.78-1.43-1.78-2.41a1.78,1.78,0,0,1,3.55,0Z"/><path class="cls-33" d="M102.27,66.48c0,2.13-1.72,5.24-3.85,5.24s-3.85-3.11-3.85-5.24a3.85,3.85,0,1,1,7.7,0Z"/><path class="cls-33" d="M126.46,148.7c0,2.12-1.72,5.23-3.84,5.23s-3.85-3.11-3.85-5.23a3.85,3.85,0,1,1,7.69,0Z"/><path class="cls-33" d="M349.1,171.26c0,1.41-1.14,3.47-2.56,3.47s-2.55-2.06-2.55-3.47a2.56,2.56,0,1,1,5.11,0Z"/><g class="cls-31"><rect class="cls-32" x="153.62" y="0.95" width="1.82" height="9.52"/><rect class="cls-32" x="149.77" y="4.8" width="9.52" height="1.82"/></g></g></g></svg>