<svg xmlns="http://www.w3.org/2000/svg" viewBox="0 0 585.94 78.93"><defs><style>.cls-1{fill:#fcb216;}</style></defs><title>share-your-link</title><g id="Layer_2" data-name="Layer 2"><g id="Layer_1-2" data-name="Layer 1"><path class="cls-1" d="M67.46,22.86a3.05,3.05,0,0,0-1.14-2.52,14.35,14.35,0,0,0-4-1.86,40.53,40.53,0,0,1-4.7-1.87q-5.94-2.92-5.94-8A7.19,7.19,0,0,1,53.13,4.1a9.6,9.6,0,0,1,4.19-3A16.32,16.32,0,0,1,63.41,0a14.14,14.14,0,0,1,5.91,1.18,9.35,9.35,0,0,1,4.06,3.34,8.74,8.74,0,0,1,1.45,5H67.48a3.71,3.71,0,0,0-1.14-2.9,4.51,4.51,0,0,0-3.1-1,5,5,0,0,0-3.12.88A2.66,2.66,0,0,0,59,8.65a2.7,2.7,0,0,0,1.26,2.13,15.47,15.47,0,0,0,4.43,2A27.64,27.64,0,0,1,69.88,15q5,2.85,5,7.87a7.46,7.46,0,0,1-3,6.3c-2,1.53-4.78,2.29-8.3,2.29a16.63,16.63,0,0,1-6.73-1.33,10.15,10.15,0,0,1-4.53-3.66,9.44,9.44,0,0,1-1.52-5.34h7.39a4.67,4.67,0,0,0,1.27,3.62,6,6,0,0,0,4.12,1.17,4.79,4.79,0,0,0,2.89-.79A2.6,2.6,0,0,0,67.46,22.86Z"/><path class="cls-1" d="M104.16,31H96.83V18.22H86V31H78.61V.42H86V12.55H96.83V.42h7.33Z"/><path class="cls-1" d="M126.56,25.28h-10.1L114.7,31h-7.87L118,.42H125L136.26,31h-7.91Zm-8.33-5.69h6.57L121.5,9Z"/><path class="cls-1" d="M149.85,20.18h-4V31h-7.37V.42h12q5.44,0,8.5,2.41a8.16,8.16,0,0,1,3.07,6.82,9.91,9.91,0,0,1-1.29,5.28,9.19,9.19,0,0,1-4,3.4l6.38,12.34V31h-7.9Zm-4-5.67h4.66a4.18,4.18,0,0,0,3.16-1.11,4.24,4.24,0,0,0,1.06-3.08,4.35,4.35,0,0,0-1.07-3.11,4.13,4.13,0,0,0-3.15-1.12h-4.66Z"/><path class="cls-1" d="M185.5,18H173.91v7.31H187.6V31H166.54V.42h21.1V6.11H173.91v6.44H185.5Z"/><path class="cls-1" d="M212.5,13.69,218.13.42h8L216.24,20V31h-7.48V20L198.94.42h7.91Z"/><path class="cls-1" d="M253.59,16.33a18,18,0,0,1-1.66,7.92,12.23,12.23,0,0,1-4.71,5.3,13.13,13.13,0,0,1-7,1.86,13.35,13.35,0,0,1-6.93-1.79,12.17,12.17,0,0,1-4.71-5.14,17.5,17.5,0,0,1-1.78-7.66V15.1a18.1,18.1,0,0,1,1.65-7.93,12.19,12.19,0,0,1,4.72-5.3,14,14,0,0,1,13.93,0,12.44,12.44,0,0,1,4.74,5.26,17.47,17.47,0,0,1,1.71,7.82Zm-7.5-1.28c0-3-.5-5.34-1.52-6.92a4.87,4.87,0,0,0-4.35-2.36q-5.55,0-5.86,8.32l0,2.24a13.16,13.16,0,0,0,1.49,6.91,4.87,4.87,0,0,0,4.43,2.42,4.8,4.8,0,0,0,4.3-2.38,12.78,12.78,0,0,0,1.53-6.82Z"/><path class="cls-1" d="M281.37.42v20a11.56,11.56,0,0,1-1.45,5.89,9.4,9.4,0,0,1-4.16,3.79,14.59,14.59,0,0,1-6.4,1.3q-5.6,0-8.8-2.9a10.31,10.31,0,0,1-3.27-7.93V.42h7.41v20.3q.12,5,4.66,5a4.5,4.5,0,0,0,3.46-1.26A5.84,5.84,0,0,0,274,20.39V.42Z"/><path class="cls-1" d="M297.32,20.18h-4V31H286V.42h12c3.62,0,6.46.8,8.5,2.41a8.19,8.19,0,0,1,3.07,6.82,10,10,0,0,1-1.29,5.28,9.22,9.22,0,0,1-4,3.4l6.39,12.34V31h-7.9Zm-4-5.67H298a4.18,4.18,0,0,0,3.16-1.11,4.28,4.28,0,0,0,1.06-3.08,4.35,4.35,0,0,0-1.07-3.11A4.16,4.16,0,0,0,298,6.09h-4.66Z"/><path class="cls-1" d="M332.1,25.32h12.82V31h-20.2V.42h7.38Z"/><path class="cls-1" d="M355.88,31h-7.34V.42h7.34Z"/><path class="cls-1" d="M386.54,31h-7.33L368.38,12V31H361V.42h7.37l10.81,19V.42h7.35Z"/><path class="cls-1" d="M401.59,19.61l-3,3.32V31H391.2V.42h7.37V13.9L401.13,10,407.72.42h9.11L406.5,13.94l10.33,17H408.1Z"/><path class="cls-1" d="M453.1,19.59,456.6.42h7.31L457.42,31h-7.64l-4.1-17.43-4,17.43h-7.62L427.54.42h7.33l3.51,19.17L442.58.42h6.25Z"/><path class="cls-1" d="M474.64,31h-7.35V.42h7.35Z"/><path class="cls-1" d="M503.15,6.11H494V31h-7.36V6.11h-9V.42h25.55Z"/><path class="cls-1" d="M531.81,31h-7.33V18.22H513.63V31h-7.37V.42h7.37V12.55h10.85V.42h7.33Z"/><path class="cls-1" d="M19.25,66.31H7.37V78.49H0V47.92H20.45v5.69H7.37v7H19.25Z"/><path class="cls-1" d="M34.87,67.68h-4V78.49H23.52V47.92h12c3.62,0,6.46.8,8.5,2.41a8.19,8.19,0,0,1,3.07,6.82,9.93,9.93,0,0,1-1.3,5.28,9.13,9.13,0,0,1-4,3.4l6.38,12.34v.32H40.27Zm-4-5.67h4.67a4.18,4.18,0,0,0,3.16-1.11,4.28,4.28,0,0,0,1.06-3.08,4.35,4.35,0,0,0-1.07-3.11,4.16,4.16,0,0,0-3.15-1.12H30.88Z"/><path class="cls-1" d="M59.42,78.49H52.07V47.92h7.35Z"/><path class="cls-1" d="M83.5,65.51H71.91v7.31H85.6v5.67H64.54V47.92h21.1v5.69H71.91v6.44H83.5Z"/><path class="cls-1" d="M114.13,78.49h-7.32L96,59.47v19H88.6V47.92H96l10.82,19v-19h7.34Z"/><path class="cls-1" d="M118.79,78.49V47.92h9.85a14.47,14.47,0,0,1,7.29,1.84,12.92,12.92,0,0,1,5,5.18,15.63,15.63,0,0,1,1.83,7.51v1.4A15.79,15.79,0,0,1,141,71.38a12.93,12.93,0,0,1-5,5.21,14.24,14.24,0,0,1-7.19,1.9Zm7.38-24.88V72.82h2.56a5.73,5.73,0,0,0,4.87-2.26q1.69-2.25,1.7-6.71V62.53c0-3-.57-5.18-1.7-6.67a5.85,5.85,0,0,0-5-2.25Z"/><path class="cls-1" d="M162.36,70.36a3.05,3.05,0,0,0-1.14-2.52,14.36,14.36,0,0,0-4-1.87,38.53,38.53,0,0,1-4.71-1.86q-5.94-2.93-5.94-8A7.19,7.19,0,0,1,148,51.6a9.66,9.66,0,0,1,4.19-3,16.35,16.35,0,0,1,6.09-1.08,14.3,14.3,0,0,1,5.91,1.17A9.37,9.37,0,0,1,168.28,52a8.74,8.74,0,0,1,1.45,5h-7.35a3.71,3.71,0,0,0-1.14-2.9,4.5,4.5,0,0,0-3.1-1,5.07,5.07,0,0,0-3.12.87,2.57,2.57,0,0,0,.12,4.35,15.9,15.9,0,0,0,4.43,2,27,27,0,0,1,5.21,2.2q5,2.85,4.95,7.87a7.49,7.49,0,0,1-3,6.3q-3,2.3-8.29,2.29a16.57,16.57,0,0,1-6.73-1.33,10.18,10.18,0,0,1-4.54-3.66,9.54,9.54,0,0,1-1.52-5.34H153a4.67,4.67,0,0,0,1.27,3.62,6,6,0,0,0,4.13,1.17,4.76,4.76,0,0,0,2.88-.79A2.61,2.61,0,0,0,162.36,70.36Z"/><path class="cls-1" d="M188.44,62.38A19.47,19.47,0,0,1,186.5,59a8.13,8.13,0,0,1-.71-3.3,7.86,7.86,0,0,1,2.4-6,8.68,8.68,0,0,1,6.25-2.28,8.1,8.1,0,0,1,5.74,2.11,6.85,6.85,0,0,1,2.26,5.24q0,3.9-4.3,6.92l-1.6,1.12,4.71,5.39a11.13,11.13,0,0,0,1.15-5.06h5.94q0,6.19-2.85,9.93l4.66,5.36h-7.9l-1.42-1.62a14.88,14.88,0,0,1-3.6,1.56,16,16,0,0,1-4.15.5,10.72,10.72,0,0,1-7.27-2.38,8,8,0,0,1-2.72-6.27,7.07,7.07,0,0,1,1.08-3.84,16.35,16.35,0,0,1,4.21-4Zm5.1,11.09a7.7,7.7,0,0,0,3.53-.86l-5.5-6.26-.19.13a5.1,5.1,0,0,0-1.2,3.32,3.71,3.71,0,0,0,1,2.6A3.1,3.1,0,0,0,193.54,73.47ZM191.9,55.64a6.38,6.38,0,0,0,1.6,3.57l1.41-.88a4.69,4.69,0,0,0,1.4-1.3,3,3,0,0,0,.44-1.7,2.37,2.37,0,0,0-.67-1.68,2.17,2.17,0,0,0-1.66-.71,2.36,2.36,0,0,0-1.84.74A2.82,2.82,0,0,0,191.9,55.64Z"/><path class="cls-1" d="M249.79,63.83a18,18,0,0,1-1.66,7.92,12.23,12.23,0,0,1-4.71,5.3,14.09,14.09,0,0,1-13.89.06A12.17,12.17,0,0,1,224.81,72,17.67,17.67,0,0,1,223,64.32V62.59a18.08,18.08,0,0,1,1.65-7.92,12.19,12.19,0,0,1,4.72-5.3,14,14,0,0,1,13.93,0,12.44,12.44,0,0,1,4.74,5.26,17.47,17.47,0,0,1,1.71,7.82Zm-7.5-1.28c0-3-.5-5.34-1.52-6.92a4.89,4.89,0,0,0-4.35-2.36q-5.55,0-5.86,8.32l0,2.24A13.16,13.16,0,0,0,232,70.74a4.87,4.87,0,0,0,4.43,2.42,4.8,4.8,0,0,0,4.3-2.38A12.78,12.78,0,0,0,242.29,64Z"/><path class="cls-1" d="M279.12,78.49h-7.33L261,59.47v19h-7.37V47.92H261l10.81,19v-19h7.35Z"/><path class="cls-1" d="M310.26,70.36a3.05,3.05,0,0,0-1.14-2.52,14.6,14.6,0,0,0-4-1.87,39,39,0,0,1-4.7-1.86q-5.94-2.93-5.94-8a7.19,7.19,0,0,1,1.48-4.49,9.6,9.6,0,0,1,4.19-3,16.28,16.28,0,0,1,6.09-1.08,14.33,14.33,0,0,1,5.91,1.17A9.43,9.43,0,0,1,316.18,52a8.74,8.74,0,0,1,1.45,5h-7.35a3.68,3.68,0,0,0-1.15-2.9,4.47,4.47,0,0,0-3.09-1,5,5,0,0,0-3.12.87,2.57,2.57,0,0,0,.12,4.35,15.76,15.76,0,0,0,4.43,2,26.61,26.61,0,0,1,5.2,2.2q5,2.85,5,7.87a7.49,7.49,0,0,1-3,6.3q-3,2.3-8.3,2.29a16.6,16.6,0,0,1-6.73-1.33,10.09,10.09,0,0,1-4.53-3.66,9.46,9.46,0,0,1-1.52-5.34h7.39a4.67,4.67,0,0,0,1.27,3.62,6,6,0,0,0,4.12,1.17,4.79,4.79,0,0,0,2.89-.79A2.63,2.63,0,0,0,310.26,70.36Z"/><path class="cls-1" d="M347.29,63.83a18.15,18.15,0,0,1-1.65,7.92,12.31,12.31,0,0,1-4.72,5.3,13.08,13.08,0,0,1-7,1.86,13.25,13.25,0,0,1-6.92-1.8A12.17,12.17,0,0,1,322.32,72a17.39,17.39,0,0,1-1.77-7.66V62.59a18.08,18.08,0,0,1,1.65-7.92,12.13,12.13,0,0,1,4.72-5.3,14,14,0,0,1,13.93,0,12.35,12.35,0,0,1,4.73,5.26,17.47,17.47,0,0,1,1.71,7.82Zm-7.49-1.28q0-4.54-1.52-6.92a4.9,4.9,0,0,0-4.36-2.36q-5.54,0-5.86,8.32l0,2.24a13.26,13.26,0,0,0,1.49,6.91A4.89,4.89,0,0,0,334,73.16a4.82,4.82,0,0,0,4.31-2.38A12.78,12.78,0,0,0,339.8,64Z"/><path class="cls-1" d="M375.83,68.14a11.21,11.21,0,0,1-1.72,5.64,10.38,10.38,0,0,1-4.42,3.78,15,15,0,0,1-6.5,1.35A12,12,0,0,1,353.7,75q-3.46-3.92-3.46-11.08V62.38a18.56,18.56,0,0,1,1.56-7.86,11.9,11.9,0,0,1,4.5-5.21,12.62,12.62,0,0,1,6.81-1.83,13.14,13.14,0,0,1,8.94,2.93,11.58,11.58,0,0,1,3.84,8.07h-7.35a5.46,5.46,0,0,0-1.4-4,5.8,5.8,0,0,0-4-1.22,4.42,4.42,0,0,0-4,2.06q-1.27,2.05-1.34,6.57V64q0,4.89,1.23,7a4.49,4.49,0,0,0,4.23,2.09,5.63,5.63,0,0,0,3.88-1.19,5.05,5.05,0,0,0,1.43-3.8Z"/><path class="cls-1" d="M387.17,78.49h-7.35V47.92h7.35Z"/><path class="cls-1" d="M410,72.78h-10.1l-1.76,5.71H390.3l11.21-30.57h6.93l11.29,30.57h-7.91Zm-8.33-5.69h6.57L405,56.48Z"/><path class="cls-1" d="M429.33,72.82h12.83v5.67H422V47.92h7.37Z"/><path class="cls-1" d="M465.65,47.92l6.82,21.27,6.81-21.27H489V78.49h-7.39V71.35l.71-14.61-7.39,21.75H470l-7.41-21.78.71,14.64v7.14H456V47.92Z"/><path class="cls-1" d="M512.62,65.51H501v7.31h13.69v5.67H493.66V47.92h21.1v5.69H501v6.44h11.59Z"/><path class="cls-1" d="M517.72,78.49V47.92h9.85a14.4,14.4,0,0,1,7.28,1.84,12.85,12.85,0,0,1,5,5.18,15.64,15.64,0,0,1,1.84,7.51v1.4A15.79,15.79,0,0,1,540,71.38a13,13,0,0,1-5,5.21,14.27,14.27,0,0,1-7.19,1.9Zm7.37-24.88V72.82h2.56a5.71,5.71,0,0,0,4.87-2.26c1.14-1.5,1.7-3.74,1.7-6.71V62.53c0-3-.56-5.18-1.7-6.67a5.81,5.81,0,0,0-4.95-2.25Z"/><path class="cls-1" d="M553.37,78.49H546V47.92h7.35Z"/><path class="cls-1" d="M576.24,72.78h-10.1l-1.76,5.71H556.5l11.21-30.57h6.93l11.3,30.57H578Zm-8.34-5.69h6.57l-3.29-10.61Z"/></g></g></svg>