<svg xmlns="http://www.w3.org/2000/svg" viewBox="0 0 365.67 56.48"><defs><style>.cls-1{fill:#fcb216;}.cls-2{fill:#fff;}</style></defs><title>sign-up-btn</title><g id="Layer_2" data-name="Layer 2"><g id="Layer_1-2" data-name="Layer 1"><rect class="cls-1" width="365.67" height="56.48"/><path class="cls-2" d="M119.66,30.58a1.6,1.6,0,0,0-.6-1.33,7.73,7.73,0,0,0-2.12-1,22.51,22.51,0,0,1-2.48-1q-3.12-1.54-3.12-4.23a3.78,3.78,0,0,1,.78-2.36,5,5,0,0,1,2.2-1.59,8.58,8.58,0,0,1,3.21-.57,7.57,7.57,0,0,1,3.11.62,4.92,4.92,0,0,1,2.14,1.76,4.63,4.63,0,0,1,.76,2.62h-3.87a2,2,0,0,0-.6-1.53,2.34,2.34,0,0,0-1.63-.54,2.62,2.62,0,0,0-1.64.46,1.38,1.38,0,0,0-.61,1.16,1.44,1.44,0,0,0,.67,1.13,8.58,8.58,0,0,0,2.33,1,13.94,13.94,0,0,1,2.74,1.15,4.61,4.61,0,0,1,2.61,4.15A3.94,3.94,0,0,1,122,33.88a7.11,7.11,0,0,1-4.37,1.2,8.64,8.64,0,0,1-3.54-.7,5.35,5.35,0,0,1-2.39-1.93,5,5,0,0,1-.8-2.81h3.89a2.47,2.47,0,0,0,.67,1.91,3.16,3.16,0,0,0,2.17.61,2.54,2.54,0,0,0,1.52-.41A1.36,1.36,0,0,0,119.66,30.58Z"/><path class="cls-2" d="M129.67,34.86H125.8V18.76h3.87Z"/><path class="cls-2" d="M145.55,32.87a6.23,6.23,0,0,1-2.62,1.6,11.2,11.2,0,0,1-3.79.61,6.74,6.74,0,0,1-5-1.93,7.85,7.85,0,0,1-2-5.39V26.37a9.58,9.58,0,0,1,.84-4.15,6.25,6.25,0,0,1,2.4-2.74,6.88,6.88,0,0,1,3.62-.95,7.19,7.19,0,0,1,4.68,1.37A5.86,5.86,0,0,1,145.54,24H141.8a3,3,0,0,0-.86-1.92,2.82,2.82,0,0,0-1.88-.58,2.54,2.54,0,0,0-2.26,1.24,6.67,6.67,0,0,0-.81,3.54v1a6.43,6.43,0,0,0,.83,3.62,2.91,2.91,0,0,0,2.59,1.22,3.28,3.28,0,0,0,2.26-.68v-2.5H139V26.26h6.58Z"/><path class="cls-2" d="M161.25,34.86h-3.86l-5.71-10v10H147.8V18.76h3.88l5.7,10v-10h3.87Z"/><path class="cls-2" d="M182,18.76V29.3a6,6,0,0,1-.76,3.1,4.92,4.92,0,0,1-2.19,2,7.68,7.68,0,0,1-3.37.69A6.72,6.72,0,0,1,171,33.56a5.44,5.44,0,0,1-1.72-4.18V18.76h3.9V29.45c.05,1.76.86,2.65,2.46,2.65a2.38,2.38,0,0,0,1.82-.67,3.1,3.1,0,0,0,.62-2.15V18.76Z"/><path class="cls-2" d="M188.27,29.4v5.46h-3.88V18.76h6.43a7.48,7.48,0,0,1,3.26.68,5.16,5.16,0,0,1,2.21,1.94,5.33,5.33,0,0,1,.77,2.84A4.68,4.68,0,0,1,195.38,28a7,7,0,0,1-4.63,1.41Zm0-3h2.55a2.44,2.44,0,0,0,1.72-.56,2.13,2.13,0,0,0,.59-1.6,2.61,2.61,0,0,0-.61-1.8,2.13,2.13,0,0,0-1.66-.68h-2.59Z"/><path class="cls-2" d="M218.22,34.86h-3.86l-5.71-10v10h-3.88V18.76h3.88l5.7,10v-10h3.87Z"/><path class="cls-2" d="M234.31,27.14a9.54,9.54,0,0,1-.88,4.17A6.43,6.43,0,0,1,231,34.1a6.92,6.92,0,0,1-3.67,1,7,7,0,0,1-3.65-.94,6.52,6.52,0,0,1-2.48-2.71,9.27,9.27,0,0,1-.93-4v-.91a9.55,9.55,0,0,1,.87-4.18,6.48,6.48,0,0,1,2.48-2.79,7,7,0,0,1,3.69-1,6.87,6.87,0,0,1,3.65,1,6.52,6.52,0,0,1,2.49,2.77,9.22,9.22,0,0,1,.91,4.12Zm-3.95-.67a6.84,6.84,0,0,0-.8-3.65,2.58,2.58,0,0,0-2.3-1.24q-2.91,0-3.08,4.38v1.18a7,7,0,0,0,.78,3.64,2.56,2.56,0,0,0,2.33,1.27,2.53,2.53,0,0,0,2.27-1.25,6.79,6.79,0,0,0,.81-3.59Z"/><path class="cls-2" d="M248.78,28.86l1.85-10.1h3.84l-3.41,16.1h-4l-2.15-9.18-2.12,9.18h-4l-3.43-16.1h3.86L241,28.86l2.21-10.1h3.3Z"/></g></g></svg>