<svg xmlns="http://www.w3.org/2000/svg" xmlns:xlink="http://www.w3.org/1999/xlink" viewBox="0 0 418.7 298.7"><defs><style>.cls-1{fill:none;}.cls-15,.cls-2{fill:#fcb216;}.cls-14,.cls-2{opacity:0.3;}.cls-3{fill:#afafaf;}.cls-4{fill:#c9c9c9;}.cls-5{fill:#2b2b2b;}.cls-6{fill:#197278;}.cls-11,.cls-7{fill:#fff;}.cls-8{fill:#8ec14c;}.cls-9{opacity:0.15;}.cls-10{fill:#ff9f03;}.cls-11,.cls-13{opacity:0.1;}.cls-12{fill:#9d9d9d;}.cls-16{fill:#f2c897;}.cls-17{fill:#3a3a3a;}.cls-18{fill:#354578;}.cls-19{fill:#9baac9;}.cls-20{fill:#fefefe;}.cls-21{opacity:0.4;}.cls-22{clip-path:url(#clip-path);}.cls-23{clip-path:url(#clip-path-2);}.cls-24{fill:#383838;}.cls-25,.cls-26{fill:#262626;}.cls-25{opacity:0.5;}.cls-27{fill:#db504a;}</style><clipPath id="clip-path"><rect class="cls-1" x="77.34" y="164.47" width="16.27" height="16.26"/></clipPath><clipPath id="clip-path-2"><rect class="cls-1" x="77.34" y="164.47" width="16.28" height="16.26"/></clipPath></defs><title>start-leveling-img</title><g id="Layer_2" data-name="Layer 2"><g id="Layer_1-2" data-name="Layer 1"><path class="cls-2" d="M29,110.18c0,1.38-1.12,3.41-2.5,3.41s-2.5-2-2.5-3.41a2.5,2.5,0,0,1,5,0Z"/><polygon class="cls-3" points="312.18 253.93 252.46 253.93 260.04 226.18 304.58 226.18 312.18 253.93"/><path class="cls-4" d="M334.47,259.8H230.17v-3.38a2.25,2.25,0,0,1,.93-1.76,3.72,3.72,0,0,1,2.25-.73h97.93a3.7,3.7,0,0,1,2.25.73,2.23,2.23,0,0,1,.94,1.76Z"/><path class="cls-5" d="M394.58,204.78V74c0-2.72-2.52-5-5.59-5H175.65c-3.06,0-5.56,2.24-5.56,5V204.78Z"/><rect class="cls-6" x="181.67" y="79.31" width="201.32" height="115.16"/><polygon class="cls-7" points="327.06 133.88 330.24 129.6 331.65 123.1 330.48 117.07 327.06 108.5 235.86 108.5 235.86 134.83 327.06 133.88"/><path class="cls-8" d="M328.59,106.54s8.94,17,0,30.35h-96.5l1.53-5.08H327s5.45-4.33.27-20.61H232.92l-.83-4.66Z"/><polygon class="cls-9" points="235.86 122.77 318.24 121.32 235.86 120.56 235.86 122.77"/><polygon class="cls-7" points="222.05 139.9 217.77 144.19 215.87 150.69 217.45 156.72 222.05 165.28 344.96 165.28 344.96 138.95 222.05 139.9"/><path class="cls-10" d="M220,167.25s-12.05-17,0-30.36H350L348,142H222.11s-7.35,4.33-.37,20.62H348.92l1.11,4.66Z"/><polygon class="cls-9" points="344.96 150.96 241.99 152.42 344.96 153.18 344.96 150.96"/><path class="cls-11" d="M389,69H175.65c-3.06,0-5.56,2.24-5.56,5V204.78L392.73,70.3A5.94,5.94,0,0,0,389,69Z"/><path class="cls-4" d="M394.58,221.21V204.78H170.09v16.43c0,2.74,2.5,5,5.56,5H389C392.06,226.18,394.58,224,394.58,221.21Z"/><path class="cls-12" d="M286,215.48a3.71,3.71,0,1,1-3.71-3.7A3.71,3.71,0,0,1,286,215.48Z"/><polygon class="cls-13" points="260.04 226.18 257.26 236.38 307.37 236.38 304.58 226.18 260.04 226.18"/><g class="cls-14"><rect class="cls-15" x="399.2" y="128.72" width="3.05" height="15.99"/><rect class="cls-15" x="392.73" y="135.18" width="15.99" height="3.06"/></g><g class="cls-14"><rect class="cls-15" x="147.17" y="203.78" width="3.05" height="15.99"/><rect class="cls-15" x="140.71" y="210.25" width="15.99" height="3.06"/></g><path class="cls-2" d="M385.75,26.27c0,1.53-1.24,3.76-2.76,3.76s-2.76-2.23-2.76-3.76a2.76,2.76,0,1,1,5.52,0Z"/><g class="cls-14"><rect class="cls-15" x="9.14" y="51.01" width="2.21" height="11.55"/><rect class="cls-15" x="4.47" y="55.69" width="11.55" height="2.21"/></g><g class="cls-14"><rect class="cls-15" x="306.9" y="38.35" width="2.7" height="14.15"/><rect class="cls-15" x="301.18" y="44.07" width="14.15" height="2.7"/></g><g class="cls-14"><rect class="cls-15" x="4.14" y="188.11" width="1.96" height="10.25"/><rect class="cls-15" y="192.25" width="10.25" height="1.96"/></g><rect class="cls-16" x="30.24" y="225.71" width="63.31" height="73"/><path class="cls-16" d="M124.92,104.53l10.6-3.52s8.66,17.47-10.85,26.34"/><path class="cls-16" d="M132.87,136.71l10.27,4.38s-5.07,18.83-25.56,12.56"/><path class="cls-16" d="M131.06,154.07l9.65,9.87s-8.32,11.24-20.35,1.69"/><path class="cls-16" d="M93.62,231.22s19.27-26.68,11.43-52.89H73.84l-1.3,52.89Z"/><path class="cls-13" d="M83,184.87S87.35,199,72.54,231.22c0,0,25.25-22.76,22.47-54.3C95,176.92,82.18,181.5,83,184.87Z"/><path class="cls-17" d="M124.25,0H47.5c-5.12,0-9.42,3.78-9.42,8.9l.5,76.19V176c0,5.12,4.3,8.87,9.42,8.87h75.76a8.59,8.59,0,0,0,8.86-8.87l.5-167.1A8.62,8.62,0,0,0,124.25,0"/><rect class="cls-6" x="46.05" y="23.51" width="79.08" height="135.71"/><polygon class="cls-18" points="54.98 63.65 60.18 108.85 90.96 108.85 101.11 119.08 98.21 108.85 110.78 108.85 116.21 63.65 54.98 63.65"/><path class="cls-19" d="M100.48,83.32c-.08-2-1.54-1.79-1.55-1.79l-.05-.66.7-2.8s-.33-1-.63-1.92c-.09-.3.68,0,.68,0s-.3-2.07-5.31-2.55-6.42,2-6.42,2c-.28-.72-.13-1-.07-1.07a3,3,0,0,0-.77,2.37l-.55-.43-.16,3L87,81.29l0,.24c-.43,0-1.19.34-1.25,1.79,0,0-.11,1.68,1.53,1.6v.65l1.43,3.62,1.37,1,1.8,1.39h0V92.8h0L85,94l0,5.71h16.84V93.79l-6.85-1.05h0l0-1.19h0l2.87-2.31.11-.33,1.26-3,0-1C100.58,84.88,100.48,83.32,100.48,83.32Z"/><path class="cls-20" d="M84.44,83.32c-.09-2-1.54-1.79-1.55-1.79l0-.66.7-2.8s-.33-1-.63-1.92c-.1-.3.69,0,.69,0s-.31-2.07-5.32-2.55-6.42,2-6.42,2c-.28-.72-.13-1-.07-1.07A3,3,0,0,0,71,76.9l-.56-.43-.16,3,.62,1.86,0,.24c-.43,0-1.19.34-1.25,1.79,0,0-.11,1.68,1.53,1.6v.65l1.42,3.62,1.37,1,1.81,1.39h0V92.8h0L68.93,94l0,5.71H85.75V93.79l-6.86-1.06h0l0-1.18h0l2.87-2.31.11-.33,1.26-3,0-1C84.54,84.88,84.44,83.32,84.44,83.32Z"/><g class="cls-21"><g class="cls-22"><g class="cls-23"><path class="cls-24" d="M77.34,172.6a8.14,8.14,0,1,1,8.14,8.14,8.14,8.14,0,0,1-8.14-8.14"/></g></g></g><path class="cls-25" d="M78.81,171.42a6.67,6.67,0,1,1,6.67,6.68,6.67,6.67,0,0,1-6.67-6.68"/><rect class="cls-26" x="77.53" y="14.96" width="16.14" height="2.2" rx="0.68" ry="0.68"/><path class="cls-26" d="M83.64,9.66a2,2,0,1,1,2,1.95,2,2,0,0,1-2-1.95"/><path class="cls-26" d="M72.83,16.09a1.29,1.29,0,1,1,1.29,1.29,1.29,1.29,0,0,1-1.29-1.29"/><path class="cls-11" d="M124.25,0H47.5c-5.12,0-9.42,3.78-9.42,8.9l.5,76.19V176A8.57,8.57,0,0,0,42.09,183L131.81,4.09A8.63,8.63,0,0,0,124.25,0Z"/><path class="cls-16" d="M72.54,231.22H30.24L15.64,187l8.48-56.53L38.44,119l.14,26.81,7.47-13.48,43.68-12.82s20.9,20-20.44,34.43l-5.56,12S86.52,171,84,198.08a86.73,86.73,0,0,1-11.49,33.14"/><polygon class="cls-27" points="26.53 238.55 98.25 238.55 94.62 298.66 29.17 298.66 26.53 238.55"/><polygon class="cls-7" points="58.14 56.79 54.98 63.47 47.88 62.31 54.78 65.14 53.77 72.67 56.91 65.59 63.77 66.16 57.33 63.59 58.14 56.79"/><g class="cls-14"><rect class="cls-15" x="197.7" y="31.52" width="3.05" height="15.99"/><rect class="cls-15" x="191.23" y="37.99" width="15.99" height="3.05"/></g><path class="cls-2" d="M370.12,241c0,1.38-1.12,3.41-2.5,3.41s-2.51-2-2.51-3.41a2.51,2.51,0,0,1,5,0Z"/><g class="cls-14"><rect class="cls-15" x="412.6" y="187.13" width="1.96" height="10.25"/><rect class="cls-15" x="408.45" y="191.27" width="10.25" height="1.96"/></g><g class="cls-14"><rect class="cls-15" x="207.72" y="234.93" width="1.96" height="10.25"/><rect class="cls-15" x="203.57" y="239.08" width="10.25" height="1.96"/></g><polygon class="cls-7" points="211.11 98.83 207.81 105.8 200.4 104.59 207.6 107.54 206.55 115.4 209.82 108.02 216.99 108.6 210.26 105.92 211.11 98.83"/></g></g></svg>