<svg xmlns="http://www.w3.org/2000/svg" viewBox="0 0 587.51 126.43"><defs><style>.cls-1{fill:#fcb216;}</style></defs><title>start-leveling</title><g id="Layer_2" data-name="Layer 2"><g id="Layer_1-2" data-name="Layer 1"><path class="cls-1" d="M54.3,22.89a3,3,0,0,0-1.15-2.52,13.81,13.81,0,0,0-4-1.87,39.82,39.82,0,0,1-4.7-1.87q-5.94-2.92-5.94-8A7.16,7.16,0,0,1,40,4.13a9.48,9.48,0,0,1,4.19-3A16.26,16.26,0,0,1,50.24,0,14.14,14.14,0,0,1,56.15,1.2a9.38,9.38,0,0,1,4.07,3.34,8.81,8.81,0,0,1,1.45,5H54.32a3.69,3.69,0,0,0-1.15-2.9,4.47,4.47,0,0,0-3.09-1A5,5,0,0,0,47,6.46a2.66,2.66,0,0,0-1.15,2.21,2.67,2.67,0,0,0,1.26,2.13,15.85,15.85,0,0,0,4.43,2A27.39,27.39,0,0,1,56.71,15q4.95,2.85,5,7.87a7.45,7.45,0,0,1-3,6.3c-2,1.53-4.78,2.29-8.29,2.29a16.43,16.43,0,0,1-6.73-1.33,10.23,10.23,0,0,1-4.54-3.65,9.57,9.57,0,0,1-1.52-5.35H45a4.7,4.7,0,0,0,1.27,3.62,6,6,0,0,0,4.13,1.17,4.72,4.72,0,0,0,2.89-.79A2.6,2.6,0,0,0,54.3,22.89Z"/><path class="cls-1" d="M89.44,6.13H80.27V31H72.9V6.13h-9V.44H89.44Z"/><path class="cls-1" d="M107.4,25.3H97.3L95.53,31H87.66L98.87.44h6.93L117.09,31h-7.91Zm-8.34-5.69h6.57L102.33,9Z"/><path class="cls-1" d="M130.68,20.2h-4V31h-7.37V.44h12c3.63,0,6.46.81,8.5,2.41a8.16,8.16,0,0,1,3.07,6.82A10,10,0,0,1,141.63,15a9.17,9.17,0,0,1-4,3.39L144,30.7V31h-7.89Zm-4-5.67h4.66a4.18,4.18,0,0,0,3.16-1.11,4.24,4.24,0,0,0,1.06-3.08,4.32,4.32,0,0,0-1.07-3.1,4.14,4.14,0,0,0-3.15-1.13h-4.66Z"/><path class="cls-1" d="M170.32,6.13h-9.17V31h-7.37V6.13h-9V.44h25.55Z"/><path class="cls-1" d="M190.25,25.34h12.82V31H182.88V.44h7.37Z"/><path class="cls-1" d="M225.14,18H213.55v7.3h13.69V31H206.18V.44h21.1V6.13H213.55v6.45h11.59Z"/><path class="cls-1" d="M242.11,22.7,248.19.44h8.23L246.14,31h-8.06L227.87.44H236Z"/><path class="cls-1" d="M277.61,18H266v7.3h13.69V31H258.65V.44h21.1V6.13H266v6.45h11.59Z"/><path class="cls-1" d="M290.08,25.34h12.83V31h-20.2V.44h7.37Z"/><path class="cls-1" d="M313.87,31h-7.35V.44h7.35Z"/><path class="cls-1" d="M344.53,31H337.2L326.36,12V31H319V.44h7.37l10.82,19V.44h7.35Z"/><path class="cls-1" d="M374.21,27.23a11.83,11.83,0,0,1-5,3.05,21.5,21.5,0,0,1-7.18,1.15,12.79,12.79,0,0,1-9.6-3.67q-3.58-3.68-3.84-10.23l0-2.64A18.34,18.34,0,0,1,350.19,7a11.91,11.91,0,0,1,4.57-5.18A12.92,12.92,0,0,1,361.64,0q5.7,0,8.87,2.61t3.68,7.8h-7.1a5.8,5.8,0,0,0-1.63-3.65,5.27,5.27,0,0,0-3.57-1.09A4.81,4.81,0,0,0,357.6,8a12.7,12.7,0,0,0-1.53,6.72v1.85q0,4.57,1.57,6.87a5.51,5.51,0,0,0,4.92,2.3,6.14,6.14,0,0,0,4.28-1.28V19.74h-5.12V14.68h12.49Z"/><path class="cls-1" d="M413.18.44v20a11.46,11.46,0,0,1-1.45,5.89,9.37,9.37,0,0,1-4.15,3.79,14.64,14.64,0,0,1-6.41,1.3q-5.58,0-8.79-2.9a10.28,10.28,0,0,1-3.28-7.93V.44h7.41v20.3q.14,5,4.66,5a4.53,4.53,0,0,0,3.47-1.26,5.9,5.9,0,0,0,1.17-4.09V.44Z"/><path class="cls-1" d="M425.15,20.64V31h-7.37V.44H430a14.2,14.2,0,0,1,6.2,1.29,9.69,9.69,0,0,1,4.18,3.68,10,10,0,0,1,1.48,5.4,8.86,8.86,0,0,1-3.2,7.15c-2.14,1.79-5.06,2.68-8.79,2.68Zm0-5.69H430a4.54,4.54,0,0,0,3.26-1.07,4,4,0,0,0,1.13-3,5,5,0,0,0-1.16-3.43,4.09,4.09,0,0,0-3.15-1.3h-4.91Z"/><path class="cls-1" d="M482,31h-7.33L463.85,12V31h-7.37V.44h7.37l10.81,19V.44H482Z"/><path class="cls-1" d="M512.56,16.36a18.07,18.07,0,0,1-1.66,7.91,12.26,12.26,0,0,1-4.72,5.3,13.08,13.08,0,0,1-7,1.86,13.4,13.4,0,0,1-6.93-1.79,12.3,12.3,0,0,1-4.71-5.14,17.36,17.36,0,0,1-1.77-7.66V15.12a18.1,18.1,0,0,1,1.65-7.93,12.18,12.18,0,0,1,4.72-5.3,14,14,0,0,1,13.93,0,12.35,12.35,0,0,1,4.73,5.26A17.61,17.61,0,0,1,512.56,15Zm-7.5-1.28q0-4.56-1.52-6.92a4.89,4.89,0,0,0-4.36-2.37q-5.54,0-5.86,8.32l0,2.25a13.24,13.24,0,0,0,1.49,6.9,4.89,4.89,0,0,0,4.43,2.42,4.83,4.83,0,0,0,4.31-2.37,12.84,12.84,0,0,0,1.53-6.83Z"/><path class="cls-1" d="M540,19.61,543.55.44h7.3L544.37,31h-7.65l-4.09-17.43-4,17.43H521L514.49.44h7.33l3.5,19.17L529.52.44h6.26Z"/><path class="cls-1" d="M46.93,72.8H36.83l-1.77,5.71H27.19L38.4,47.94h6.93l11.3,30.57H48.71Zm-8.34-5.69h6.57l-3.29-10.6Z"/><path class="cls-1" d="M84.38,78.51H77.06l-10.84-19v19H58.85V47.94h7.37L77,67v-19h7.35Z"/><path class="cls-1" d="M89,78.51V47.94h9.85a14.47,14.47,0,0,1,7.29,1.84,12.92,12.92,0,0,1,5,5.18,15.66,15.66,0,0,1,1.83,7.51v1.41a15.72,15.72,0,0,1-1.77,7.52,12.93,12.93,0,0,1-5,5.21,14.14,14.14,0,0,1-7.19,1.9Zm7.37-24.88V72.84H99a5.73,5.73,0,0,0,4.87-2.26c1.13-1.5,1.7-3.74,1.7-6.7V62.55q0-4.42-1.7-6.67a5.85,5.85,0,0,0-5-2.25Z"/><path class="cls-1" d="M150.29,53.63h-9.18V78.51h-7.36V53.63h-9V47.94h25.55Z"/><path class="cls-1" d="M179,78.51h-7.33V65.74H160.77V78.51H153.4V47.94h7.37V60.08h10.85V47.94H179Z"/><path class="cls-1" d="M202.57,65.54H191v7.3h13.69v5.67H183.61V47.94h21.1v5.69H191v6.45h11.59Z"/><path class="cls-1" d="M233.2,78.51h-7.32L215,59.49v19h-7.37V47.94H215l10.81,19v-19h7.35Z"/><path class="cls-1" d="M260.75,47.94h7.35v21a10,10,0,0,1-1.35,5.21A9.31,9.31,0,0,1,263,77.67a11.57,11.57,0,0,1-5.41,1.26q-5,0-7.77-2.52A9.15,9.15,0,0,1,247,69.27h7.39a5.09,5.09,0,0,0,.72,3,2.88,2.88,0,0,0,2.43.94,2.74,2.74,0,0,0,2.36-1.14,5.42,5.42,0,0,0,.83-3.21Z"/><path class="cls-1" d="M298.63,63.86A18.1,18.1,0,0,1,297,71.77a12.26,12.26,0,0,1-4.72,5.3,13.08,13.08,0,0,1-7,1.86,13.25,13.25,0,0,1-6.92-1.8A12.17,12.17,0,0,1,273.65,72a17.5,17.5,0,0,1-1.77-7.66V62.62a18.1,18.1,0,0,1,1.65-7.93,12.19,12.19,0,0,1,4.72-5.3,14,14,0,0,1,13.93,0,12.44,12.44,0,0,1,4.74,5.26,17.74,17.74,0,0,1,1.71,7.82Zm-7.5-1.29c0-3-.51-5.34-1.52-6.91a4.89,4.89,0,0,0-4.36-2.37c-3.69,0-5.65,2.77-5.85,8.32l0,2.25a13.24,13.24,0,0,0,1.49,6.9,4.89,4.89,0,0,0,4.43,2.42,4.81,4.81,0,0,0,4.31-2.38A12.78,12.78,0,0,0,291.13,64Z"/><path class="cls-1" d="M310.28,78.51h-7.35V47.94h7.35Z"/><path class="cls-1" d="M340.93,78.51h-7.32l-10.84-19v19H315.4V47.94h7.37l10.82,19v-19h7.34Z"/><path class="cls-1" d="M380.28,47.94V68a11.46,11.46,0,0,1-1.45,5.89,9.37,9.37,0,0,1-4.15,3.79,14.64,14.64,0,0,1-6.41,1.3q-5.58,0-8.8-2.9a10.31,10.31,0,0,1-3.27-7.93V47.94h7.41v20.3c.08,3.35,1.64,5,4.66,5A4.53,4.53,0,0,0,371.74,72a5.9,5.9,0,0,0,1.17-4.09v-20Z"/><path class="cls-1" d="M400.65,70.38a3,3,0,0,0-1.15-2.51,13.81,13.81,0,0,0-4-1.87,39.82,39.82,0,0,1-4.7-1.87q-5.94-2.92-5.94-8a7.14,7.14,0,0,1,1.48-4.48,9.48,9.48,0,0,1,4.19-3,16.26,16.26,0,0,1,6.08-1.08,14.14,14.14,0,0,1,5.91,1.18A9.38,9.38,0,0,1,406.57,52,8.81,8.81,0,0,1,408,57h-7.35a3.68,3.68,0,0,0-1.15-2.9,4.47,4.47,0,0,0-3.09-1,5,5,0,0,0-3.12.88,2.57,2.57,0,0,0,.11,4.34,15.85,15.85,0,0,0,4.43,2,27.39,27.39,0,0,1,5.21,2.19q5,2.85,5,7.87a7.45,7.45,0,0,1-3,6.3c-2,1.53-4.78,2.29-8.29,2.29A16.43,16.43,0,0,1,390,77.6a10.09,10.09,0,0,1-4.53-3.66,9.45,9.45,0,0,1-1.53-5.34h7.39a4.7,4.7,0,0,0,1.27,3.62,6,6,0,0,0,4.13,1.17,4.72,4.72,0,0,0,2.89-.79A2.62,2.62,0,0,0,400.65,70.38Z"/><path class="cls-1" d="M430.36,78.51H423V47.94h7.35Z"/><path class="cls-1" d="M461,78.51h-7.33l-10.83-19v19h-7.37V47.94h7.37l10.81,19v-19H461Z"/><path class="cls-1" d="M502.27,63.86a18,18,0,0,1-1.66,7.91,12.3,12.3,0,0,1-4.71,5.3,14.09,14.09,0,0,1-13.89.06A12.17,12.17,0,0,1,477.29,72a17.64,17.64,0,0,1-1.77-7.66V62.62a18.1,18.1,0,0,1,1.65-7.93,12.19,12.19,0,0,1,4.72-5.3,14,14,0,0,1,13.93,0,12.44,12.44,0,0,1,4.74,5.26,17.74,17.74,0,0,1,1.71,7.82Zm-7.5-1.29c0-3-.5-5.34-1.52-6.91a4.88,4.88,0,0,0-4.36-2.37q-5.53,0-5.85,8.32l0,2.25a13.15,13.15,0,0,0,1.49,6.9,4.87,4.87,0,0,0,4.43,2.42,4.8,4.8,0,0,0,4.3-2.38A12.78,12.78,0,0,0,494.77,64Z"/><path class="cls-1" d="M530.05,47.94V68a11.56,11.56,0,0,1-1.45,5.89,9.4,9.4,0,0,1-4.16,3.79,14.62,14.62,0,0,1-6.4,1.3q-5.6,0-8.8-2.9A10.32,10.32,0,0,1,506,68.1V47.94h7.42v20.3q.12,5,4.66,5A4.5,4.5,0,0,0,521.5,72a5.89,5.89,0,0,0,1.18-4.09v-20Z"/><path class="cls-1" d="M546,67.7h-4V78.51h-7.37V47.94h12c3.63,0,6.46.8,8.51,2.41a8.18,8.18,0,0,1,3.06,6.82A9.93,9.93,0,0,1,557,62.45a9.13,9.13,0,0,1-4,3.4l6.38,12.35v.31H551.4ZM542,62h4.66a4.15,4.15,0,0,0,3.16-1.11,4.24,4.24,0,0,0,1.07-3.08,4.37,4.37,0,0,0-1.07-3.11,4.17,4.17,0,0,0-3.16-1.12H542Z"/><path class="cls-1" d="M25.62,122.23a11.92,11.92,0,0,1-5,3,21.45,21.45,0,0,1-7.18,1.16,12.83,12.83,0,0,1-9.6-3.68Q.28,119.07,0,112.53l0-2.65A18.14,18.14,0,0,1,1.6,102a11.8,11.8,0,0,1,4.56-5.19A12.92,12.92,0,0,1,13,95c3.81,0,6.76.87,8.87,2.61s3.33,4.34,3.68,7.8H18.5a5.78,5.78,0,0,0-1.64-3.65,5.27,5.27,0,0,0-3.57-1.09A4.79,4.79,0,0,0,9,103a12.58,12.58,0,0,0-1.54,6.72v1.84c0,3,.53,5.35,1.57,6.88a5.53,5.53,0,0,0,4.92,2.3,6.23,6.23,0,0,0,4.29-1.28v-4.75H13.12v-5.06h12.5Z"/><path class="cls-1" d="M41.26,115.2h-4V126H29.9V95.44h12c3.62,0,6.46.8,8.5,2.41a8.16,8.16,0,0,1,3.07,6.82A9.93,9.93,0,0,1,52.21,110a9.19,9.19,0,0,1-4,3.4l6.38,12.34V126h-7.9Zm-4-5.67h4.66a4.18,4.18,0,0,0,3.16-1.11,4.24,4.24,0,0,0,1.06-3.08,4.35,4.35,0,0,0-1.07-3.11,4.15,4.15,0,0,0-3.15-1.12H37.27Z"/><path class="cls-1" d="M83.84,111.35a18.15,18.15,0,0,1-1.66,7.92,12.31,12.31,0,0,1-4.72,5.3,13.08,13.08,0,0,1-7,1.86,13.25,13.25,0,0,1-6.92-1.8,12.23,12.23,0,0,1-4.72-5.13,17.53,17.53,0,0,1-1.77-7.66v-1.73a18.08,18.08,0,0,1,1.65-7.92,12.13,12.13,0,0,1,4.72-5.3,13.16,13.16,0,0,1,7-1.87,13,13,0,0,1,6.93,1.85,12.44,12.44,0,0,1,4.74,5.26A17.74,17.74,0,0,1,83.84,110Zm-7.5-1.28q0-4.54-1.52-6.92a4.9,4.9,0,0,0-4.36-2.36q-5.53,0-5.86,8.32l0,2.24a13.15,13.15,0,0,0,1.5,6.91,5.17,5.17,0,0,0,8.73,0,12.78,12.78,0,0,0,1.53-6.82Z"/><path class="cls-1" d="M111.62,95.44v20a11.58,11.58,0,0,1-1.45,5.89,9.4,9.4,0,0,1-4.16,3.79,14.76,14.76,0,0,1-6.4,1.3q-5.6,0-8.8-2.9a10.37,10.37,0,0,1-3.28-7.94V95.44h7.41v20.3c.09,3.35,1.64,5,4.67,5a4.5,4.5,0,0,0,3.46-1.26,5.92,5.92,0,0,0,1.18-4.1v-20Z"/><path class="cls-1" d="M123.58,115.64V126h-7.37V95.44h12.2a14.24,14.24,0,0,1,6.21,1.29,9.64,9.64,0,0,1,4.17,3.67,10,10,0,0,1,1.48,5.41,8.84,8.84,0,0,1-3.2,7.15c-2.13,1.78-5.06,2.68-8.78,2.68Zm0-5.69h4.83a4.58,4.58,0,0,0,3.27-1.07,4,4,0,0,0,1.12-3,4.9,4.9,0,0,0-1.15-3.42,4.09,4.09,0,0,0-3.15-1.3h-4.92Z"/><path class="cls-1" d="M160,117.88a3,3,0,0,0-1.14-2.52,14.6,14.6,0,0,0-4-1.87,39,39,0,0,1-4.7-1.86q-5.94-2.92-5.94-8a7.19,7.19,0,0,1,1.48-4.49,9.6,9.6,0,0,1,4.19-3A16.28,16.28,0,0,1,155.92,95a14.37,14.37,0,0,1,5.91,1.17,9.43,9.43,0,0,1,4.06,3.35,8.74,8.74,0,0,1,1.45,5H160a3.71,3.71,0,0,0-1.14-2.9,4.51,4.51,0,0,0-3.1-1,5,5,0,0,0-3.12.87,2.57,2.57,0,0,0,.12,4.35,15.76,15.76,0,0,0,4.43,2,26.61,26.61,0,0,1,5.2,2.2q5,2.85,5,7.87a7.49,7.49,0,0,1-3,6.3c-2,1.53-4.78,2.29-8.3,2.29a16.6,16.6,0,0,1-6.73-1.33,10.09,10.09,0,0,1-4.53-3.66,9.49,9.49,0,0,1-1.52-5.34h7.39a4.67,4.67,0,0,0,1.27,3.62,6,6,0,0,0,4.12,1.16,4.79,4.79,0,0,0,2.89-.78A2.61,2.61,0,0,0,160,117.88Z"/><path class="cls-1" d="M199.19,120.3h-10.1L187.33,126h-7.88l11.22-30.57h6.92L208.89,126H201Zm-8.34-5.69h6.58L194.13,104Z"/><path class="cls-1" d="M236.65,126h-7.33l-10.83-19v19h-7.37V95.44h7.37l10.81,19v-19h7.35Z"/><path class="cls-1" d="M241.31,126V95.44h9.85a14.4,14.4,0,0,1,7.28,1.84,12.85,12.85,0,0,1,5.05,5.18,15.75,15.75,0,0,1,1.84,7.51v1.4a15.68,15.68,0,0,1-1.78,7.53,12.91,12.91,0,0,1-5,5.21,14.27,14.27,0,0,1-7.19,1.9Zm7.37-24.88v19.21h2.56a5.72,5.72,0,0,0,4.87-2.26q1.69-2.25,1.7-6.71v-1.32c0-3-.57-5.18-1.7-6.67a5.81,5.81,0,0,0-5-2.25Z"/><path class="cls-1" d="M302.55,101.13h-9.17V126H286V101.13h-9V95.44h25.55Z"/><path class="cls-1" d="M317,115.2h-4V126h-7.37V95.44h12c3.63,0,6.46.8,8.51,2.41a8.18,8.18,0,0,1,3.06,6.82A9.93,9.93,0,0,1,328,110a9.19,9.19,0,0,1-4,3.4l6.38,12.34V126h-7.89Zm-4-5.67h4.66a4.18,4.18,0,0,0,3.16-1.11,4.24,4.24,0,0,0,1.06-3.08,4.35,4.35,0,0,0-1.07-3.11,4.13,4.13,0,0,0-3.15-1.12H313Z"/><path class="cls-1" d="M351.08,120.3H341L339.21,126h-7.87l11.21-30.57h6.93L360.78,126h-7.92Zm-8.34-5.69h6.57L346,104Z"/><path class="cls-1" d="M370.85,126h-7.34V95.44h7.34Z"/><path class="cls-1" d="M401.51,126h-7.33l-10.83-19v19H376V95.44h7.37l10.81,19v-19h7.35Z"/><path class="cls-1" d="M414,126h-7.35V95.44H414Z"/><path class="cls-1" d="M444.68,126h-7.33l-10.84-19v19h-7.37V95.44h7.37l10.82,19v-19h7.35Z"/><path class="cls-1" d="M474.37,122.23a11.92,11.92,0,0,1-5,3,21.45,21.45,0,0,1-7.18,1.16,12.83,12.83,0,0,1-9.6-3.68q-3.58-3.68-3.84-10.22l0-2.65a18.14,18.14,0,0,1,1.6-7.88,11.8,11.8,0,0,1,4.56-5.19A12.92,12.92,0,0,1,461.79,95c3.81,0,6.76.87,8.87,2.61s3.33,4.34,3.68,7.8h-7.09a5.78,5.78,0,0,0-1.64-3.65,5.27,5.27,0,0,0-3.57-1.09,4.79,4.79,0,0,0-4.28,2.35,12.58,12.58,0,0,0-1.54,6.72v1.84c0,3,.53,5.35,1.57,6.88a5.53,5.53,0,0,0,4.92,2.3,6.23,6.23,0,0,0,4.29-1.28v-4.75h-5.13v-5.06h12.5Z"/><path class="cls-1" d="M505.12,117.88a3,3,0,0,0-1.14-2.52,14.36,14.36,0,0,0-4-1.87,38.53,38.53,0,0,1-4.71-1.86q-5.94-2.92-5.94-8a7.25,7.25,0,0,1,1.48-4.49,9.66,9.66,0,0,1,4.19-3A16.35,16.35,0,0,1,501.07,95,14.3,14.3,0,0,1,507,96.19,9.37,9.37,0,0,1,511,99.54a8.74,8.74,0,0,1,1.45,5h-7.35a3.71,3.71,0,0,0-1.14-2.9,4.48,4.48,0,0,0-3.1-1,5,5,0,0,0-3.11.87,2.57,2.57,0,0,0,.11,4.35,15.9,15.9,0,0,0,4.43,2,27,27,0,0,1,5.21,2.2q4.95,2.85,4.95,7.87a7.46,7.46,0,0,1-3,6.3q-3,2.3-8.29,2.29a16.6,16.6,0,0,1-6.73-1.33,10.18,10.18,0,0,1-4.54-3.66,9.57,9.57,0,0,1-1.52-5.34h7.39a4.67,4.67,0,0,0,1.27,3.62,6,6,0,0,0,4.13,1.16,4.76,4.76,0,0,0,2.88-.78A2.61,2.61,0,0,0,505.12,117.88Z"/><path class="cls-1" d="M524.13,126h-7.35V95.44h7.35Z"/><path class="cls-1" d="M552.64,101.13h-9.18V126h-7.37V101.13h-9V95.44h25.55Z"/><path class="cls-1" d="M574.71,113H563.12v7.31h13.69V126H555.75V95.44h21.1v5.69H563.12v6.44h11.59Z"/><path class="cls-1" d="M579.66,122.84a3.24,3.24,0,0,1,1.12-2.55,4.43,4.43,0,0,1,5.61,0,3.46,3.46,0,0,1,0,5.1,4.43,4.43,0,0,1-5.61,0A3.27,3.27,0,0,1,579.66,122.84Zm6.84-6.51h-5.73l-.9-20.89h7.54Z"/></g></g></svg>