<svg xmlns="http://www.w3.org/2000/svg" viewBox="0 0 527.95 126.41"><defs><style>.cls-1{fill:#fcb216;}</style></defs><title>the-more</title><g id="Layer_2" data-name="Layer 2"><g id="Layer_1-2" data-name="Layer 1"><path class="cls-1" d="M25.55,6.11H16.38V31H9V6.11H0V.42H25.55Z"/><path class="cls-1" d="M54.21,31H46.88V18.22H36V31H28.66V.42H36V12.56H46.88V.42h7.33Z"/><path class="cls-1" d="M77.83,18H66.24v7.31H79.93V31H58.87V.42H80V6.11H66.24v6.45H77.83Z"/><path class="cls-1" d="M103.32.42l6.83,21.27L117,.42h9.7V31h-7.39V23.85L120,9.24,112.58,31h-4.87L100.3,9.22,101,23.85V31H93.64V.42Z"/><path class="cls-1" d="M157.22,16.33a18,18,0,0,1-1.66,7.92,12.23,12.23,0,0,1-4.71,5.3,13.13,13.13,0,0,1-7,1.86A13.35,13.35,0,0,1,137,29.62a12.25,12.25,0,0,1-4.72-5.14,17.64,17.64,0,0,1-1.77-7.66V15.1a18.1,18.1,0,0,1,1.65-7.93,12.24,12.24,0,0,1,4.72-5.3,14,14,0,0,1,13.93,0,12.44,12.44,0,0,1,4.74,5.26,17.6,17.6,0,0,1,1.71,7.82Zm-7.5-1.28c0-3-.5-5.34-1.52-6.91a4.88,4.88,0,0,0-4.36-2.37q-5.53,0-5.85,8.32l0,2.24a13.16,13.16,0,0,0,1.49,6.91,4.87,4.87,0,0,0,4.43,2.42,4.82,4.82,0,0,0,4.3-2.37,12.84,12.84,0,0,0,1.53-6.83Z"/><path class="cls-1" d="M172.38,20.18h-4V31H161V.42h12q5.44,0,8.5,2.41a8.16,8.16,0,0,1,3.07,6.82,9.91,9.91,0,0,1-1.29,5.28,9.19,9.19,0,0,1-4,3.4l6.38,12.34V31h-7.9Zm-4-5.67h4.66a4.18,4.18,0,0,0,3.16-1.11,4.24,4.24,0,0,0,1.06-3.08,4.37,4.37,0,0,0-1.07-3.11,4.13,4.13,0,0,0-3.15-1.12h-4.66Z"/><path class="cls-1" d="M208,18H196.44v7.31h13.69V31H189.07V.42h21.1V6.11H196.44v6.45H208Z"/><path class="cls-1" d="M235,13.69,240.66.42h8L238.77,20V31h-7.48V20L221.47.42h7.91Z"/><path class="cls-1" d="M276.12,16.33a18,18,0,0,1-1.66,7.92,12.17,12.17,0,0,1-4.71,5.3,13.13,13.13,0,0,1-7,1.86,13.37,13.37,0,0,1-6.93-1.79,12.25,12.25,0,0,1-4.72-5.14,17.64,17.64,0,0,1-1.77-7.66V15.1A18.1,18.1,0,0,1,251,7.17a12.24,12.24,0,0,1,4.72-5.3,14,14,0,0,1,13.93,0,12.44,12.44,0,0,1,4.74,5.26,17.47,17.47,0,0,1,1.71,7.82Zm-7.49-1.28c0-3-.51-5.34-1.53-6.91a4.87,4.87,0,0,0-4.35-2.37q-5.55,0-5.86,8.32l0,2.24a13.16,13.16,0,0,0,1.49,6.91,4.87,4.87,0,0,0,4.43,2.42,4.82,4.82,0,0,0,4.3-2.37,12.93,12.93,0,0,0,1.54-6.83Z"/><path class="cls-1" d="M303.9.42v20a11.46,11.46,0,0,1-1.45,5.89,9.4,9.4,0,0,1-4.16,3.79,14.59,14.59,0,0,1-6.4,1.3q-5.59,0-8.8-2.9a10.31,10.31,0,0,1-3.27-7.93V.42h7.41v20.3c.08,3.35,1.64,5,4.66,5a4.5,4.5,0,0,0,3.46-1.26,5.84,5.84,0,0,0,1.18-4.09V.42Z"/><path class="cls-1" d="M336.57,25.28h-10.1L324.71,31h-7.88L328,.42H335L346.27,31h-7.92Zm-8.34-5.69h6.57L331.51,9Z"/><path class="cls-1" d="M374,31H366.7L355.86,12V31h-7.37V.42h7.37l10.82,19V.42H374Z"/><path class="cls-1" d="M378.69,31V.42h9.84a14.47,14.47,0,0,1,7.29,1.84,12.92,12.92,0,0,1,5.05,5.18A15.78,15.78,0,0,1,402.71,15v1.41a15.76,15.76,0,0,1-1.78,7.52,12.93,12.93,0,0,1-5,5.21,14.12,14.12,0,0,1-7.19,1.9Zm7.37-24.88V25.32h2.56a5.72,5.72,0,0,0,4.87-2.26c1.13-1.5,1.7-3.74,1.7-6.7V15c0-2.95-.57-5.18-1.7-6.67a5.83,5.83,0,0,0-5-2.25Z"/><path class="cls-1" d="M428.38,13.69,434,.42h8L432.12,20V31h-7.47V20L414.82.42h7.92Z"/><path class="cls-1" d="M469.47,16.33a18,18,0,0,1-1.66,7.92,12.17,12.17,0,0,1-4.71,5.3,13.13,13.13,0,0,1-7,1.86,13.4,13.4,0,0,1-6.93-1.79,12.3,12.3,0,0,1-4.71-5.14,17.5,17.5,0,0,1-1.78-7.66V15.1a18.1,18.1,0,0,1,1.65-7.93,12.2,12.2,0,0,1,4.73-5.3,14,14,0,0,1,13.93,0,12.42,12.42,0,0,1,4.73,5.26,17.47,17.47,0,0,1,1.71,7.82ZM462,15.05c0-3-.51-5.34-1.52-6.91a4.89,4.89,0,0,0-4.36-2.37q-5.55,0-5.86,8.32l0,2.24a13.26,13.26,0,0,0,1.49,6.91,5.18,5.18,0,0,0,8.74.05A13,13,0,0,0,462,16.46Z"/><path class="cls-1" d="M497.25.42v20a11.46,11.46,0,0,1-1.45,5.89,9.37,9.37,0,0,1-4.15,3.79,14.64,14.64,0,0,1-6.41,1.3q-5.58,0-8.79-2.9a10.28,10.28,0,0,1-3.28-7.93V.42h7.41v20.3c.08,3.35,1.64,5,4.66,5a4.53,4.53,0,0,0,3.47-1.26,5.9,5.9,0,0,0,1.17-4.09V.42Z"/><path class="cls-1" d="M513.21,20.18h-4V31h-7.37V.42h12q5.45,0,8.5,2.41a8.16,8.16,0,0,1,3.07,6.82,9.91,9.91,0,0,1-1.29,5.28,9.19,9.19,0,0,1-4,3.4l6.38,12.34V31h-7.9Zm-4-5.67h4.66A4.18,4.18,0,0,0,517,13.4a4.24,4.24,0,0,0,1.06-3.08A4.37,4.37,0,0,0,517,7.21a4.15,4.15,0,0,0-3.15-1.12h-4.66Z"/><path class="cls-1" d="M11.91,67.68h-4V78.49H.55V47.92h12c3.62,0,6.46.8,8.5,2.41a8.19,8.19,0,0,1,3.07,6.82,10,10,0,0,1-1.29,5.28,9.22,9.22,0,0,1-4.05,3.4L25.2,78.17v.32H17.3ZM7.92,62h4.66a4.18,4.18,0,0,0,3.16-1.11,4.28,4.28,0,0,0,1.06-3.08,4.35,4.35,0,0,0-1.07-3.11,4.16,4.16,0,0,0-3.15-1.12H7.92Z"/><path class="cls-1" d="M47.56,65.51H36v7.31H49.66v5.67H28.6V47.92H49.7v5.69H36v6.44H47.56Z"/><path class="cls-1" d="M71.91,66.31H60V78.49H52.66V47.92H73.11v5.69H60v7H71.91Z"/><path class="cls-1" d="M95.13,65.51H83.54v7.31H97.23v5.67H76.17V47.92H97.28v5.69H83.54v6.44H95.13Z"/><path class="cls-1" d="M111.59,67.68h-4V78.49h-7.37V47.92h12c3.62,0,6.46.8,8.5,2.41a8.19,8.19,0,0,1,3.07,6.82,9.93,9.93,0,0,1-1.3,5.28,9.13,9.13,0,0,1-4,3.4l6.38,12.34v.32H117Zm-4-5.67h4.66a4.18,4.18,0,0,0,3.16-1.11,4.28,4.28,0,0,0,1.06-3.08,4.35,4.35,0,0,0-1.07-3.11,4.16,4.16,0,0,0-3.15-1.12h-4.66Z"/><path class="cls-1" d="M139.65,67.68h-4V78.49h-7.37V47.92h12c3.62,0,6.46.8,8.5,2.41a8.19,8.19,0,0,1,3.07,6.82,9.93,9.93,0,0,1-1.29,5.28,9.22,9.22,0,0,1-4,3.4l6.39,12.34v.32H145Zm-4-5.67h4.66a4.18,4.18,0,0,0,3.16-1.11,4.28,4.28,0,0,0,1.06-3.08,4.35,4.35,0,0,0-1.07-3.11,4.16,4.16,0,0,0-3.15-1.12h-4.66Z"/><path class="cls-1" d="M173.7,72.78H163.6l-1.76,5.71H154l11.22-30.57h6.93L183.4,78.49h-7.91Zm-8.33-5.69h6.57l-3.3-10.6Z"/><path class="cls-1" d="M193,72.82h12.83v5.67h-20.2V47.92H193Z"/><path class="cls-1" d="M224.7,70.36a3.05,3.05,0,0,0-1.14-2.52,14.4,14.4,0,0,0-4-1.86,40.05,40.05,0,0,1-4.71-1.87q-5.94-2.93-5.94-8a7.19,7.19,0,0,1,1.48-4.49,9.6,9.6,0,0,1,4.19-3,16.32,16.32,0,0,1,6.09-1.08,14.3,14.3,0,0,1,5.91,1.17A9.44,9.44,0,0,1,230.62,52a8.74,8.74,0,0,1,1.45,5h-7.35a3.71,3.71,0,0,0-1.14-2.9,4.51,4.51,0,0,0-3.1-1,5,5,0,0,0-3.12.87,2.57,2.57,0,0,0,.12,4.35,15.47,15.47,0,0,0,4.43,2,27,27,0,0,1,5.21,2.2q4.95,2.85,4.95,7.87a7.48,7.48,0,0,1-3,6.3c-2,1.53-4.78,2.29-8.3,2.29A16.63,16.63,0,0,1,214,77.58a10.15,10.15,0,0,1-4.53-3.66A9.46,9.46,0,0,1,208,68.58h7.39a4.67,4.67,0,0,0,1.27,3.62,6,6,0,0,0,4.12,1.17,4.79,4.79,0,0,0,2.89-.79A2.6,2.6,0,0,0,224.7,70.36Z"/><path class="cls-1" d="M253.93,72.82h12.83v5.67h-20.2V47.92h7.37Z"/><path class="cls-1" d="M288.82,65.51H277.23v7.31h13.69v5.67H269.86V47.92H291v5.69H277.23v6.44h11.59Z"/><path class="cls-1" d="M305.79,70.17l6.09-22.25h8.23L309.82,78.49h-8.06L291.55,47.92h8.17Z"/><path class="cls-1" d="M341.29,65.51H329.7v7.31h13.69v5.67H322.33V47.92h21.1v5.69H329.7v6.44h11.59Z"/><path class="cls-1" d="M353.76,72.82h12.83v5.67h-20.2V47.92h7.37Z"/><path class="cls-1" d="M404.38,47.92v20a11.55,11.55,0,0,1-1.44,5.89,9.45,9.45,0,0,1-4.16,3.79,14.62,14.62,0,0,1-6.4,1.3q-5.6,0-8.8-2.9a10.33,10.33,0,0,1-3.28-7.93V47.92h7.41v20.3c.09,3.35,1.64,5,4.67,5A4.5,4.5,0,0,0,395.84,72,5.89,5.89,0,0,0,397,67.89v-20Z"/><path class="cls-1" d="M416.35,68.12V78.49H409V47.92h12.2a14.24,14.24,0,0,1,6.21,1.29,9.76,9.76,0,0,1,4.17,3.67A10,10,0,0,1,433,58.29a8.83,8.83,0,0,1-3.2,7.15c-2.13,1.78-5.06,2.68-8.78,2.68Zm0-5.69h4.83a4.58,4.58,0,0,0,3.27-1.07,4,4,0,0,0,1.12-3,4.92,4.92,0,0,0-1.15-3.42,4.1,4.1,0,0,0-3.15-1.3h-4.92Z"/><path class="cls-1" d="M430.65,86.72,427.08,85l.72-1.43a11.59,11.59,0,0,0,1.53-5.2V73.16H435l0,4.55a11.55,11.55,0,0,1-1.24,4.92A12.41,12.41,0,0,1,430.65,86.72Z"/><path class="cls-1" d="M473.53,53.61h-9.18V78.49H457V53.61h-9V47.92h25.56Z"/><path class="cls-1" d="M502.19,78.49h-7.33V65.72H484V78.49h-7.37V47.92H484V60.05h10.86V47.92h7.33Z"/><path class="cls-1" d="M525.81,65.51H514.22v7.31h13.69v5.67H506.85V47.92H528v5.69H514.22v6.44h11.59Z"/><path class="cls-1" d="M100.9,95.42l6.82,21.27,6.8-21.27h9.7V126h-7.39v-7.14l.72-14.61L110.16,126h-4.87l-7.42-21.78.72,14.64V126H91.22V95.42Z"/><path class="cls-1" d="M154.79,111.33a18.15,18.15,0,0,1-1.65,7.92,12.31,12.31,0,0,1-4.72,5.3,13.08,13.08,0,0,1-7,1.86,13.31,13.31,0,0,1-6.93-1.8,12.27,12.27,0,0,1-4.71-5.13,17.53,17.53,0,0,1-1.78-7.66v-1.73a18.08,18.08,0,0,1,1.65-7.92,12.21,12.21,0,0,1,4.73-5.3,14,14,0,0,1,13.93,0,12.47,12.47,0,0,1,4.73,5.26,17.53,17.53,0,0,1,1.71,7.82Zm-7.49-1.28c0-3-.51-5.34-1.52-6.92a4.9,4.9,0,0,0-4.36-2.36q-5.55,0-5.86,8.31l0,2.25a13.26,13.26,0,0,0,1.49,6.91,5.19,5.19,0,0,0,8.74,0,12.87,12.87,0,0,0,1.53-6.82Z"/><path class="cls-1" d="M170,115.17h-4V126h-7.37V95.42h12q5.43,0,8.5,2.41a8.18,8.18,0,0,1,3.06,6.82,9.93,9.93,0,0,1-1.29,5.28,9.13,9.13,0,0,1-4,3.4l6.38,12.34V126h-7.89Zm-4-5.67h4.67a4.17,4.17,0,0,0,3.16-1.1,4.3,4.3,0,0,0,1.06-3.08,4.35,4.35,0,0,0-1.07-3.11,4.16,4.16,0,0,0-3.15-1.12H166Z"/><path class="cls-1" d="M205.61,113H194v7.31h13.69V126H186.65V95.42h21.1v5.69H194v6.44h11.59Z"/><path class="cls-1" d="M232.61,108.69l5.62-13.27h8L236.34,115v11h-7.47V115L219,95.42H227Z"/><path class="cls-1" d="M273.7,111.33a18.15,18.15,0,0,1-1.66,7.92,12.31,12.31,0,0,1-4.72,5.3,13.08,13.08,0,0,1-7,1.86,13.31,13.31,0,0,1-6.93-1.8,12.27,12.27,0,0,1-4.71-5.13,17.39,17.39,0,0,1-1.77-7.66v-1.73a18.23,18.23,0,0,1,1.64-7.92,12.21,12.21,0,0,1,4.73-5.3,14,14,0,0,1,13.93,0A12.47,12.47,0,0,1,272,102.1a17.67,17.67,0,0,1,1.72,7.82Zm-7.5-1.28c0-3-.51-5.34-1.52-6.92a4.9,4.9,0,0,0-4.36-2.36q-5.53,0-5.86,8.31l0,2.25a13.26,13.26,0,0,0,1.49,6.91,5.19,5.19,0,0,0,8.74,0,12.78,12.78,0,0,0,1.53-6.82Z"/><path class="cls-1" d="M301.47,95.42v20a11.48,11.48,0,0,1-1.45,5.89,9.43,9.43,0,0,1-4.15,3.79,14.78,14.78,0,0,1-6.41,1.3q-5.58,0-8.79-2.9a10.31,10.31,0,0,1-3.28-7.94V95.42h7.41v20.3q.13,5,4.66,5a4.53,4.53,0,0,0,3.47-1.26,5.92,5.92,0,0,0,1.17-4.1v-20Z"/><path class="cls-1" d="M335.74,113H324.15v7.31h13.69V126H316.78V95.42h21.1v5.69H324.15v6.44h11.59Z"/><path class="cls-1" d="M358.21,120.28h-10.1L346.34,126h-7.87l11.21-30.57h6.93L367.9,126H360Zm-8.34-5.69h6.57L353.14,104Z"/><path class="cls-1" d="M381.49,115.17h-4V126h-7.37V95.42h12q5.44,0,8.5,2.41a8.16,8.16,0,0,1,3.07,6.82,9.93,9.93,0,0,1-1.29,5.28,9.19,9.19,0,0,1-4,3.4l6.38,12.34V126h-7.9Zm-4-5.67h4.66a4.17,4.17,0,0,0,3.16-1.1,4.25,4.25,0,0,0,1.06-3.08,4.35,4.35,0,0,0-1.07-3.11,4.13,4.13,0,0,0-3.15-1.12H377.5Z"/><path class="cls-1" d="M423.71,126h-7.33l-10.83-19v19h-7.37V95.42h7.37l10.81,19v-19h7.35Z"/><path class="cls-1" d="M428.23,122.82a3.24,3.24,0,0,1,1.12-2.55,4.43,4.43,0,0,1,5.61,0,3.46,3.46,0,0,1,0,5.1,4.43,4.43,0,0,1-5.61,0A3.27,3.27,0,0,1,428.23,122.82Zm6.84-6.51h-5.73l-.9-20.89H436Z"/></g></g></svg>