<svg xmlns="http://www.w3.org/2000/svg" viewBox="0 0 365.66 56.48"><defs><style>.cls-1{fill:#8bc34a;}.cls-2{fill:#fff;}</style></defs><title>view-offers-btn</title><g id="Layer_2" data-name="Layer 2"><g id="Layer_1-2" data-name="Layer 1"><rect class="cls-1" width="365.66" height="56.48"/><path class="cls-2" d="M44.35,31.48l3.21-11.72h4.33l-5.41,16.1H42.23l-5.37-16.1h4.3Z"/><path class="cls-2" d="M57.2,35.86H53.33V19.76H57.2Z"/><path class="cls-2" d="M69.88,29h-6.1v3.84H71v3H59.9V19.76H71v3H63.78v3.39h6.1Z"/><path class="cls-2" d="M85,29.86l1.85-10.1h3.85l-3.42,16.1h-4l-2.16-9.18L79,35.86H75l-3.43-16.1h3.86l1.84,10.1,2.21-10.1h3.3Z"/><path class="cls-2" d="M107,32.85h-5.32l-.93,3H96.64l5.91-16.1h3.65l6,16.1H108Zm-4.39-3h3.46l-1.74-5.59Z"/><path class="cls-2" d="M113.32,35.86V19.76h5.18a7.56,7.56,0,0,1,3.84,1A6.73,6.73,0,0,1,125,23.46a8.22,8.22,0,0,1,1,3.95v.74a8.23,8.23,0,0,1-.94,4,6.8,6.8,0,0,1-2.63,2.74,7.46,7.46,0,0,1-3.78,1Zm3.88-13.1V32.87h1.35a3,3,0,0,0,2.56-1.18,5.85,5.85,0,0,0,.9-3.54v-.69a5.76,5.76,0,0,0-.9-3.52,3,3,0,0,0-2.61-1.18Z"/><path class="cls-2" d="M134,31.48l3.21-11.72h4.33l-5.41,16.1h-4.25l-5.37-16.1h4.3Z"/><path class="cls-2" d="M152.66,29h-6.1v3.84h7.21v3H142.68V19.76h11.11v3h-7.23v3.39h6.1Z"/><path class="cls-2" d="M161.33,30.17h-2.1v5.69h-3.88V19.76h6.33A7,7,0,0,1,166.16,21a4.3,4.3,0,0,1,1.62,3.59,5.23,5.23,0,0,1-.68,2.78A4.84,4.84,0,0,1,165,29.19l3.36,6.5v.17h-4.16Zm-2.1-3h2.45a2.2,2.2,0,0,0,1.67-.58,2.27,2.27,0,0,0,.56-1.63,2.25,2.25,0,0,0-.57-1.63,2.16,2.16,0,0,0-1.66-.59h-2.45Z"/><path class="cls-2" d="M182.21,22.76h-4.83v13.1h-3.89V22.76h-4.74v-3h13.46Z"/><path class="cls-2" d="M188,35.86h-3.87V19.76H188Z"/><path class="cls-2" d="M199,31.58a1.6,1.6,0,0,0-.6-1.33,7.73,7.73,0,0,0-2.12-1,22.51,22.51,0,0,1-2.48-1q-3.12-1.54-3.12-4.23a3.84,3.84,0,0,1,.77-2.36,5.08,5.08,0,0,1,2.21-1.59,8.58,8.58,0,0,1,3.21-.57,7.57,7.57,0,0,1,3.11.62,4.92,4.92,0,0,1,2.14,1.76,4.6,4.6,0,0,1,.76,2.62H199a2,2,0,0,0-.6-1.53,2.36,2.36,0,0,0-1.63-.54,2.62,2.62,0,0,0-1.64.46,1.38,1.38,0,0,0-.61,1.16,1.44,1.44,0,0,0,.67,1.13,8.58,8.58,0,0,0,2.33,1,13.94,13.94,0,0,1,2.74,1.15,4.61,4.61,0,0,1,2.61,4.15,3.91,3.91,0,0,1-1.59,3.31,7,7,0,0,1-4.37,1.21,8.64,8.64,0,0,1-3.54-.7A5.3,5.3,0,0,1,191,33.45a5,5,0,0,1-.8-2.81h3.89a2.47,2.47,0,0,0,.67,1.91,3.16,3.16,0,0,0,2.17.61,2.54,2.54,0,0,0,1.52-.41A1.36,1.36,0,0,0,199,31.58Z"/><path class="cls-2" d="M214.84,29h-6.11v3.84h7.21v3H204.85V19.76H216v3h-7.24v3.39h6.11Z"/><path class="cls-2" d="M223.51,30.17h-2.1v5.69h-3.89V19.76h6.34A7.06,7.06,0,0,1,228.34,21,4.29,4.29,0,0,1,230,24.62a5.14,5.14,0,0,1-.68,2.78,4.75,4.75,0,0,1-2.12,1.79l3.36,6.5v.17h-4.16Zm-2.1-3h2.45a2.18,2.18,0,0,0,1.66-.58,2.23,2.23,0,0,0,.56-1.63,2.24,2.24,0,0,0-.56-1.63,2.17,2.17,0,0,0-1.66-.59h-2.45Z"/><path class="cls-2" d="M233.45,24.8l-1.64-.88a6.38,6.38,0,0,0,.94-3.12V18.87h2.72v1.81a4.94,4.94,0,0,1-.59,2.19A6.52,6.52,0,0,1,233.45,24.8Z"/><path class="cls-2" d="M246.1,31.58a1.6,1.6,0,0,0-.6-1.33,7.88,7.88,0,0,0-2.12-1,21.73,21.73,0,0,1-2.48-1q-3.14-1.54-3.13-4.23a3.78,3.78,0,0,1,.78-2.36,5.08,5.08,0,0,1,2.21-1.59,8.56,8.56,0,0,1,3.2-.57,7.59,7.59,0,0,1,3.12.62,5,5,0,0,1,2.14,1.76,4.68,4.68,0,0,1,.76,2.62h-3.87a2,2,0,0,0-.6-1.53,2.38,2.38,0,0,0-1.63-.54,2.63,2.63,0,0,0-1.65.46,1.39,1.39,0,0,0-.6,1.16,1.43,1.43,0,0,0,.66,1.13,8.68,8.68,0,0,0,2.34,1,14.21,14.21,0,0,1,2.74,1.15A4.61,4.61,0,0,1,250,31.56a3.91,3.91,0,0,1-1.59,3.31A7,7,0,0,1,244,36.08a8.57,8.57,0,0,1-3.54-.7,5.3,5.3,0,0,1-2.39-1.93,5,5,0,0,1-.81-2.81h3.9a2.47,2.47,0,0,0,.67,1.91,3.14,3.14,0,0,0,2.17.61,2.54,2.54,0,0,0,1.52-.41A1.39,1.39,0,0,0,246.1,31.58Z"/><path class="cls-2" d="M271.24,28.14a9.54,9.54,0,0,1-.87,4.17,6.43,6.43,0,0,1-2.48,2.79,7.42,7.42,0,0,1-7.32,0,6.43,6.43,0,0,1-2.48-2.7,9.13,9.13,0,0,1-.93-4v-.91a9.55,9.55,0,0,1,.86-4.18,6.5,6.5,0,0,1,2.49-2.79,7,7,0,0,1,3.69-1,6.89,6.89,0,0,1,3.65,1,6.52,6.52,0,0,1,2.49,2.77,9.21,9.21,0,0,1,.9,4.12Zm-3.95-.67a6.75,6.75,0,0,0-.8-3.65,2.56,2.56,0,0,0-2.29-1.24q-2.93,0-3.09,4.38v1.18a6.9,6.9,0,0,0,.79,3.64,2.73,2.73,0,0,0,4.6,0,6.7,6.7,0,0,0,.8-3.59Z"/><path class="cls-2" d="M283.38,29.45h-6.25v6.41h-3.89V19.76H284v3h-6.88v3.7h6.25Z"/><path class="cls-2" d="M295.77,29.45h-6.26v6.41h-3.88V19.76H296.4v3h-6.89v3.7h6.26Z"/><path class="cls-2" d="M308,29h-6.11v3.84h7.21v3H298V19.76h11.12v3h-7.24v3.39H308Z"/><path class="cls-2" d="M316.67,30.17h-2.1v5.69h-3.89V19.76H317A7.06,7.06,0,0,1,321.5,21a4.29,4.29,0,0,1,1.61,3.59,5.14,5.14,0,0,1-.68,2.78,4.73,4.73,0,0,1-2.13,1.79l3.37,6.5v.17h-4.16Zm-2.1-3H317a2.18,2.18,0,0,0,1.66-.58,2.23,2.23,0,0,0,.56-1.63,2.24,2.24,0,0,0-.56-1.63,2.17,2.17,0,0,0-1.66-.59h-2.45Z"/><path class="cls-2" d="M333.76,31.58a1.6,1.6,0,0,0-.6-1.33,7.73,7.73,0,0,0-2.12-1,22.51,22.51,0,0,1-2.48-1c-2.08-1-3.13-2.44-3.13-4.23a3.78,3.78,0,0,1,.78-2.36,5.08,5.08,0,0,1,2.21-1.59,8.58,8.58,0,0,1,3.21-.57,7.57,7.57,0,0,1,3.11.62,4.92,4.92,0,0,1,2.14,1.76,4.6,4.6,0,0,1,.76,2.62h-3.87a2,2,0,0,0-.6-1.53,2.36,2.36,0,0,0-1.63-.54,2.62,2.62,0,0,0-1.64.46,1.34,1.34,0,0,0,.06,2.29,8.58,8.58,0,0,0,2.33,1A13.94,13.94,0,0,1,335,27.41a4.61,4.61,0,0,1,2.61,4.15,3.91,3.91,0,0,1-1.59,3.31,7,7,0,0,1-4.37,1.21,8.64,8.64,0,0,1-3.54-.7,5.3,5.3,0,0,1-2.39-1.93,5,5,0,0,1-.8-2.81h3.89a2.47,2.47,0,0,0,.67,1.91,3.16,3.16,0,0,0,2.17.61,2.54,2.54,0,0,0,1.52-.41A1.36,1.36,0,0,0,333.76,31.58Z"/></g></g></svg>