<svg xmlns="http://www.w3.org/2000/svg" viewBox="0 0 365.67 56.48"><defs><style>.cls-1{fill:#8bc34a;}.cls-2{fill:#fff;}</style></defs><title>vistit-fb-btn</title><g id="Layer_2" data-name="Layer 2"><g id="Layer_1-2" data-name="Layer 1"><rect class="cls-1" width="365.67" height="56.48"/><path class="cls-2" d="M45,31.48l3.2-11.72H52.5l-5.42,16.1H42.83l-5.37-16.1h4.3Z"/><path class="cls-2" d="M57.81,35.86H53.94V19.76h3.87Z"/><path class="cls-2" d="M68.81,31.58a1.6,1.6,0,0,0-.6-1.33,7.88,7.88,0,0,0-2.12-1,21.73,21.73,0,0,1-2.48-1c-2.08-1-3.13-2.44-3.13-4.23a3.78,3.78,0,0,1,.78-2.36,5.08,5.08,0,0,1,2.21-1.59,8.56,8.56,0,0,1,3.2-.57,7.59,7.59,0,0,1,3.12.62,4.92,4.92,0,0,1,2.14,1.76,4.6,4.6,0,0,1,.76,2.62H68.82a2,2,0,0,0-.6-1.53,2.38,2.38,0,0,0-1.63-.54,2.65,2.65,0,0,0-1.65.46,1.39,1.39,0,0,0-.6,1.16A1.43,1.43,0,0,0,65,25.22a8.68,8.68,0,0,0,2.34,1,13.94,13.94,0,0,1,2.74,1.15,4.61,4.61,0,0,1,2.61,4.15,3.91,3.91,0,0,1-1.59,3.31,7,7,0,0,1-4.37,1.21,8.57,8.57,0,0,1-3.54-.7,5.3,5.3,0,0,1-2.39-1.93,5,5,0,0,1-.8-2.81h3.89a2.47,2.47,0,0,0,.67,1.91,3.14,3.14,0,0,0,2.17.61,2.54,2.54,0,0,0,1.52-.41A1.39,1.39,0,0,0,68.81,31.58Z"/><path class="cls-2" d="M78.82,35.86H75V19.76h3.87Z"/><path class="cls-2" d="M93.83,22.76H89v13.1H85.12V22.76H80.37v-3H93.83Z"/><path class="cls-2" d="M110.58,29.45h-6.25v6.41h-3.89V19.76h10.77v3h-6.88v3.7h6.25Z"/><path class="cls-2" d="M112.83,35.86V19.76h5.78a8.2,8.2,0,0,1,4.73,1.14A3.79,3.79,0,0,1,125,24.21a3.77,3.77,0,0,1-.58,2.13,3.3,3.3,0,0,1-1.69,1.3,3.48,3.48,0,0,1,1.94,1.24,3.6,3.6,0,0,1,.67,2.21,4.26,4.26,0,0,1-1.5,3.56,7.19,7.19,0,0,1-4.44,1.21Zm3.88-9.39h2a2.93,2.93,0,0,0,1.82-.46,1.67,1.67,0,0,0,.54-1.35,1.74,1.74,0,0,0-.59-1.47,3.13,3.13,0,0,0-1.89-.44h-1.9Zm0,2.54v3.86h2.54a2.45,2.45,0,0,0,1.62-.48,1.69,1.69,0,0,0,.56-1.35,1.79,1.79,0,0,0-2-2Z"/><path class="cls-2" d="M137,30.4v5.46h-3.89V19.76h6.43a7.55,7.55,0,0,1,3.27.68,5.18,5.18,0,0,1,2.2,1.93,5.3,5.3,0,0,1,.78,2.85A4.68,4.68,0,0,1,144.06,29a7,7,0,0,1-4.63,1.41Zm0-3h2.54a2.44,2.44,0,0,0,1.72-.56,2.13,2.13,0,0,0,.59-1.6,2.57,2.57,0,0,0-.61-1.8,2.12,2.12,0,0,0-1.66-.68H137Z"/><path class="cls-2" d="M153.8,30.17h-2.1v5.69h-3.89V19.76h6.34A7.06,7.06,0,0,1,158.63,21a4.29,4.29,0,0,1,1.61,3.59,5.14,5.14,0,0,1-.68,2.78,4.73,4.73,0,0,1-2.13,1.79l3.36,6.5v.17h-4.15Zm-2.1-3h2.45a2.18,2.18,0,0,0,1.66-.58,2.23,2.23,0,0,0,.56-1.63,2.29,2.29,0,0,0-.56-1.63,2.17,2.17,0,0,0-1.66-.59H151.7Z"/><path class="cls-2" d="M176.22,28.14a9.54,9.54,0,0,1-.87,4.17,6.43,6.43,0,0,1-2.48,2.79,7.42,7.42,0,0,1-7.32,0,6.43,6.43,0,0,1-2.48-2.7,9.13,9.13,0,0,1-.94-4v-.91a9.55,9.55,0,0,1,.87-4.18,6.5,6.5,0,0,1,2.49-2.79,7,7,0,0,1,3.69-1,6.89,6.89,0,0,1,3.65,1,6.58,6.58,0,0,1,2.49,2.77,9.35,9.35,0,0,1,.9,4.12Zm-3.95-.67a6.75,6.75,0,0,0-.8-3.65,2.56,2.56,0,0,0-2.29-1.24q-2.93,0-3.09,4.38v1.18a6.9,6.9,0,0,0,.79,3.64,2.73,2.73,0,0,0,4.6,0,6.7,6.7,0,0,0,.8-3.59Z"/><path class="cls-2" d="M191.86,28.14a9.54,9.54,0,0,1-.88,4.17,6.43,6.43,0,0,1-2.48,2.79,7.4,7.4,0,0,1-7.31,0,6.45,6.45,0,0,1-2.49-2.7,9.27,9.27,0,0,1-.93-4v-.91a9.55,9.55,0,0,1,.87-4.18,6.38,6.38,0,0,1,2.49-2.79,7,7,0,0,1,3.68-1,6.87,6.87,0,0,1,3.65,1,6.6,6.6,0,0,1,2.5,2.77,9.35,9.35,0,0,1,.9,4.12Zm-4-.67a6.84,6.84,0,0,0-.8-3.65,2.58,2.58,0,0,0-2.3-1.24q-2.91,0-3.08,4.38v1.18a7,7,0,0,0,.78,3.64,2.73,2.73,0,0,0,4.6,0,6.79,6.79,0,0,0,.81-3.59Z"/><path class="cls-2" d="M204,29.45h-6.26v6.41h-3.88V19.76h10.77v3h-6.89v3.7H204Z"/><path class="cls-2" d="M215.76,30.4v5.46h-3.88V19.76h6.43a7.48,7.48,0,0,1,3.26.68,5.12,5.12,0,0,1,2.2,1.93,5.3,5.3,0,0,1,.78,2.85A4.68,4.68,0,0,1,222.87,29a7,7,0,0,1-4.63,1.41Zm0-3h2.55a2.44,2.44,0,0,0,1.72-.56,2.13,2.13,0,0,0,.59-1.6,2.61,2.61,0,0,0-.61-1.8,2.13,2.13,0,0,0-1.66-.68h-2.59Z"/><path class="cls-2" d="M230.76,35.86h-3.87V19.76h3.87Z"/><path class="cls-2" d="M246.48,30.41a5.81,5.81,0,0,1-.91,3,5.45,5.45,0,0,1-2.32,2,8,8,0,0,1-3.43.71,6.3,6.3,0,0,1-5-2.07A8.52,8.52,0,0,1,233,28.17v-.79a9.71,9.71,0,0,1,.83-4.14,6.06,6.06,0,0,1,2.37-2.74,6.55,6.55,0,0,1,3.58-1,6.94,6.94,0,0,1,4.71,1.54,6.08,6.08,0,0,1,2,4.25h-3.87a2.86,2.86,0,0,0-.74-2.11,3,3,0,0,0-2.12-.64,2.31,2.31,0,0,0-2.12,1.08,6.94,6.94,0,0,0-.71,3.46v1.14a7.56,7.56,0,0,0,.65,3.68A2.35,2.35,0,0,0,239.82,33a3,3,0,0,0,2.05-.63,2.69,2.69,0,0,0,.75-2Z"/><path class="cls-2" d="M267.14,33.87a6.23,6.23,0,0,1-2.62,1.6,11.24,11.24,0,0,1-3.79.61,6.74,6.74,0,0,1-5.05-1.93,7.85,7.85,0,0,1-2-5.39V27.37a9.65,9.65,0,0,1,.84-4.16,6.27,6.27,0,0,1,2.4-2.73,6.86,6.86,0,0,1,3.62-.95,7.16,7.16,0,0,1,4.67,1.37A5.87,5.87,0,0,1,267.13,25h-3.74a3.08,3.08,0,0,0-.86-1.92,2.83,2.83,0,0,0-1.89-.58,2.54,2.54,0,0,0-2.25,1.24,6.67,6.67,0,0,0-.81,3.54v1a6.43,6.43,0,0,0,.83,3.62A2.9,2.9,0,0,0,261,33.09a3.24,3.24,0,0,0,2.25-.67v-2.5h-2.69V27.26h6.58Z"/><path class="cls-2" d="M275.37,30.17h-2.1v5.69h-3.88V19.76h6.34A7.06,7.06,0,0,1,280.21,21a4.32,4.32,0,0,1,1.61,3.59,5.23,5.23,0,0,1-.68,2.78A4.73,4.73,0,0,1,279,29.19l3.36,6.5v.17h-4.16Zm-2.1-3h2.46a2.19,2.19,0,0,0,1.66-.58A2.27,2.27,0,0,0,278,25a2.29,2.29,0,0,0-.56-1.63,2.17,2.17,0,0,0-1.66-.59h-2.46Z"/><path class="cls-2" d="M297.8,28.14a9.4,9.4,0,0,1-.88,4.17,6.43,6.43,0,0,1-2.48,2.79,7.4,7.4,0,0,1-7.31,0,6.52,6.52,0,0,1-2.49-2.7,9.27,9.27,0,0,1-.93-4v-.91a9.55,9.55,0,0,1,.87-4.18,6.5,6.5,0,0,1,2.49-2.79,7,7,0,0,1,3.68-1,6.87,6.87,0,0,1,3.65,1,6.6,6.6,0,0,1,2.5,2.77,9.35,9.35,0,0,1,.9,4.12Zm-3.95-.67a6.84,6.84,0,0,0-.8-3.65,2.58,2.58,0,0,0-2.3-1.24q-2.91,0-3.08,4.38v1.18a7,7,0,0,0,.78,3.64,2.57,2.57,0,0,0,2.34,1.27A2.53,2.53,0,0,0,293,31.8a6.79,6.79,0,0,0,.81-3.59Z"/><path class="cls-2" d="M312.43,19.76V30.3a6,6,0,0,1-.77,3.1,4.82,4.82,0,0,1-2.19,2,7.65,7.65,0,0,1-3.37.69,6.65,6.65,0,0,1-4.63-1.53,5.45,5.45,0,0,1-1.73-4.18V19.76h3.91V30.45c0,1.76.86,2.64,2.45,2.64a2.4,2.4,0,0,0,1.83-.66,3.1,3.1,0,0,0,.62-2.15V19.76Z"/><path class="cls-2" d="M318.73,30.4v5.46h-3.88V19.76h6.42a7.55,7.55,0,0,1,3.27.68,5.12,5.12,0,0,1,2.2,1.93,5.3,5.3,0,0,1,.78,2.85A4.65,4.65,0,0,1,325.83,29a7,7,0,0,1-4.62,1.41Zm0-3h2.54a2.41,2.41,0,0,0,1.72-.56,2.09,2.09,0,0,0,.59-1.6,2.61,2.61,0,0,0-.6-1.8,2.13,2.13,0,0,0-1.66-.68h-2.59Z"/></g></g></svg>