<svg xmlns="http://www.w3.org/2000/svg" viewBox="0 0 534.94 119.13"><defs><style>.cls-1{fill:#8bc34a;}</style></defs><title>welcome 2</title><g id="Layer_2" data-name="Layer 2"><g id="Layer_1-2" data-name="Layer 1"><path class="cls-1" d="M97.71,30.66l5.48-30h11.43L104.47,48.48H92.53l-6.4-27.24L79.86,48.48H67.94L57.77.69H69.22l5.48,30,6.57-30h9.78Z"/><path class="cls-1" d="M148.75,28.19H130.63V39.62H152v8.86H119.11V.69h33V9.58H130.63V19.66h18.12Z"/><path class="cls-1" d="M168.25,39.62H188.3v8.86H156.73V.69h11.52Z"/><path class="cls-1" d="M229.73,32.3a17.55,17.55,0,0,1-2.7,8.81A16.19,16.19,0,0,1,220.12,47,23.49,23.49,0,0,1,210,49.13q-9.42,0-14.84-6.13t-5.42-17.33V23.3A28.92,28.92,0,0,1,192.16,11a18.59,18.59,0,0,1,7-8.14A19.67,19.67,0,0,1,209.83,0q8.7,0,14,4.58t6,12.62H218.33c-.08-2.91-.82-5-2.19-6.27S212.66,9,209.83,9a6.9,6.9,0,0,0-6.3,3.21q-2,3.22-2.1,10.28V25.9q0,7.65,1.92,10.93c1.28,2.18,3.49,3.28,6.62,3.28A8.84,8.84,0,0,0,216,38.24q2.1-1.87,2.23-5.94Z"/><path class="cls-1" d="M275.64,25.57a28.15,28.15,0,0,1-2.59,12.37,19.15,19.15,0,0,1-7.37,8.29,20.47,20.47,0,0,1-10.88,2.9A20.81,20.81,0,0,1,244,46.33a19.13,19.13,0,0,1-7.37-8,27.42,27.42,0,0,1-2.77-12V23.63a28.43,28.43,0,0,1,2.57-12.39A19.12,19.12,0,0,1,243.79,3a21.86,21.86,0,0,1,21.78,0,19.52,19.52,0,0,1,7.4,8.22,27.5,27.5,0,0,1,2.67,12.23Zm-11.71-2q0-7.12-2.38-10.82a7.64,7.64,0,0,0-6.81-3.69q-8.67,0-9.16,13l0,3.51q0,7,2.33,10.8a7.62,7.62,0,0,0,6.92,3.77,7.52,7.52,0,0,0,6.73-3.71c1.58-2.47,2.37-6,2.4-10.66Z"/><path class="cls-1" d="M296.72.69l10.66,33.25L318,.69h15.16V48.48H321.63V37.32l1.11-22.85-11.55,34h-7.61L292,14.44l1.12,22.88V48.48H281.58V.69Z"/><path class="cls-1" d="M370.14,28.19H352V39.62h21.4v8.86H340.5V.69h33V9.58H352V19.66h18.12Z"/><path class="cls-1" d="M430.4,9.58H416.06v38.9H404.54V9.58H390.46V.69H430.4Z"/><path class="cls-1" d="M474.81,25.57a28.15,28.15,0,0,1-2.59,12.37,19.22,19.22,0,0,1-7.37,8.29A20.47,20.47,0,0,1,454,49.13a20.81,20.81,0,0,1-10.83-2.8,19.13,19.13,0,0,1-7.37-8,27.28,27.28,0,0,1-2.77-12V23.63a28.29,28.29,0,0,1,2.57-12.39A19.12,19.12,0,0,1,443,3a21.85,21.85,0,0,1,21.77,0,19.54,19.54,0,0,1,7.41,8.22,27.5,27.5,0,0,1,2.67,12.23Zm-11.72-2q0-7.12-2.38-10.82a7.62,7.62,0,0,0-6.81-3.69q-8.65,0-9.15,13l0,3.51q0,7,2.33,10.8A7.64,7.64,0,0,0,454,40.14a7.52,7.52,0,0,0,6.73-3.71q2.35-3.7,2.39-10.66Z"/><path class="cls-1" d="M11.52,109.62H31.58v8.86H0V70.69H11.52Z"/><path class="cls-1" d="M66.07,98.19H48v11.43h21.4v8.86H36.43V70.69h33v8.89H48V89.66H66.07Z"/><path class="cls-1" d="M92.59,105.48l9.52-34.79H115L98.89,118.48H86.29l-16-47.79H83.11Z"/><path class="cls-1" d="M148.09,98.19H130v11.43h21.4v8.86H118.46V70.69h33v8.89H130V89.66h18.11Z"/><path class="cls-1" d="M167.59,109.62h20.06v8.86H156.07V70.69h11.52Z"/><path class="cls-1" d="M227,101.58h-6.24v16.9H209.24V70.69h18.81q8.5,0,13.29,3.77t4.8,10.66a15.58,15.58,0,0,1-2,8.26,14.4,14.4,0,0,1-6.32,5.31l10,19.3v.49H235.44Zm-6.24-8.87h7.29A6.53,6.53,0,0,0,233,91a7.85,7.85,0,0,0,0-9.68,6.47,6.47,0,0,0-4.92-1.76h-7.29Z"/><path class="cls-1" d="M282.73,98.19H264.62v11.43H286v8.86H253.09V70.69h33v8.89H264.62V89.66h18.11Z"/><path class="cls-1" d="M327.73,100.66l5.48-30h11.43l-10.15,47.79H322.55l-6.4-27.24-6.27,27.24H298L287.79,70.69h11.45l5.48,30,6.57-30h9.78Z"/><path class="cls-1" d="M374.87,109.55H359.08l-2.76,8.93H344l17.53-47.79h10.83L390,118.48H377.66Zm-13-8.89h10.28L367,84.08Z"/><path class="cls-1" d="M411.27,101.58H405v16.9H393.51V70.69h18.81q8.49,0,13.29,3.77t4.79,10.66a15.48,15.48,0,0,1-2,8.26,14.35,14.35,0,0,1-6.32,5.31L432,118v.49H419.7ZM405,92.71h7.29A6.56,6.56,0,0,0,417.26,91a7.89,7.89,0,0,0,0-9.68,6.5,6.5,0,0,0-4.92-1.76H405Z"/><path class="cls-1" d="M437.36,118.48V70.69h15.39a22.68,22.68,0,0,1,11.39,2.87,20.29,20.29,0,0,1,7.9,8.11,24.48,24.48,0,0,1,2.87,11.73v2.2a24.73,24.73,0,0,1-2.77,11.77,20.29,20.29,0,0,1-7.82,8.14,22.1,22.1,0,0,1-11.24,3Zm11.52-38.9v30h4a9,9,0,0,0,7.61-3.53q2.65-3.53,2.66-10.49V93.53q0-6.91-2.66-10.43a9.1,9.1,0,0,0-7.75-3.52Z"/><path class="cls-1" d="M505.47,105.78a4.74,4.74,0,0,0-1.79-3.94,22.06,22.06,0,0,0-6.29-2.92A60.59,60.59,0,0,1,490,96q-9.29-4.57-9.29-12.54a11.2,11.2,0,0,1,2.32-7,15,15,0,0,1,6.54-4.73A25.67,25.67,0,0,1,499.13,70a22.35,22.35,0,0,1,9.24,1.84,14.6,14.6,0,0,1,6.35,5.24A13.66,13.66,0,0,1,517,84.87H505.5a5.78,5.78,0,0,0-1.79-4.53,7,7,0,0,0-4.84-1.61A7.83,7.83,0,0,0,494,80.09a4,4,0,0,0,.18,6.8A25,25,0,0,0,501.1,90a42.46,42.46,0,0,1,8.14,3.43Q517,97.87,517,105.71a11.69,11.69,0,0,1-4.73,9.85q-4.72,3.57-13,3.57a25.69,25.69,0,0,1-10.52-2.08,15.81,15.81,0,0,1-7.09-5.71,14.85,14.85,0,0,1-2.38-8.35h11.55c0,2.56.66,4.44,2,5.66s3.47,1.82,6.45,1.82a7.43,7.43,0,0,0,4.51-1.23A4.08,4.08,0,0,0,505.47,105.78Z"/><path class="cls-1" d="M522.67,113.52a5.09,5.09,0,0,1,1.75-4,7,7,0,0,1,8.76,0,5.4,5.4,0,0,1,0,8,6.93,6.93,0,0,1-8.76,0A5.09,5.09,0,0,1,522.67,113.52Zm10.7-10.17h-9L523,70.69h11.79Z"/></g></g></svg>